<?xml version="1.0" encoding="utf-8"?>
<!-- Generator: Adobe Illustrator 17.0.2, SVG Export Plug-In . SVG Version: 6.00 Build 0)  -->
<!DOCTYPE svg PUBLIC "-//W3C//DTD SVG 1.1//EN" "http://www.w3.org/Graphics/SVG/1.1/DTD/svg11.dtd">
<svg version="1.1" id="Ebene_1" xmlns="http://www.w3.org/2000/svg" xmlns:xlink="http://www.w3.org/1999/xlink" x="0px" y="0px"
	 width="15px" height="555.246px" viewBox="0 0 15 555.246" enable-background="new 0 0 15 555.246" xml:space="preserve">
<g transform="translate(0 0)">
	<path d="M6.587,12.009L3.001,8.423l1.131-1.131l2.251,2.251l4.316-6.042L12,4.431L6.587,12.009z"/>
	<path fill="#66afe9" d="M12,1.123c1.103,0,2,0.783,2,1.886v9c0,1.103-0.897,2.114-2,2.114H3c-1.103,0-2-1.011-2-2.114v-9
		c0-1.103,0.897-1.886,2-1.886L12,1.123 M12,0.123H3c-1.65,0-3,1.236-3,2.886v9c0,1.65,1.35,3.114,3,3.114h9c1.65,0,3-1.464,3-3.114
		v-9C15,1.359,13.65,0.123,12,0.123L12,0.123z"/>
</g>
<g transform="translate(0 0)">
	<path d="M6.587,57.222l-3.586-3.586l1.131-1.131l2.251,2.251l4.316-6.042L12,49.644L6.587,57.222z"/>
	<path fill="#757575" d="M12,46.123c1.103,0,2,0.996,2,2.099v9c0,1.103-0.897,1.901-2,1.901H3c-1.103,0-2-0.798-2-1.901v-9
		c0-1.103,0.897-2.099,2-2.099H12 M12,45.123H3c-1.65,0-3,1.449-3,3.099v9c0,1.65,1.35,2.901,3,2.901h9c1.65,0,3-1.251,3-2.901v-9
		C15,46.572,13.65,45.123,12,45.123L12,45.123z"/>
</g>
<g transform="translate(0 90)">
	<path fill="#757575" d="M12,1.123c1.103,0,2,0.783,2,1.886v9c0,1.103-0.897,2.114-2,2.114H3c-1.103,0-2-1.011-2-2.114v-9
		c0-1.103,0.897-1.886,2-1.886L12,1.123 M12,0.123H3c-1.65,0-3,1.236-3,2.886v9c0,1.65,1.35,3.114,3,3.114h9c1.65,0,3-1.464,3-3.114
		v-9C15,1.359,13.65,0.123,12,0.123L12,0.123z"/>
</g>
<g transform="translate(0 135)">
	<path fill="#454545" d="M6,6.123l4.5,4l4.5-4H6z"/>
</g>
<g transform="translate(0 180)">
	<path fill="#757575" d="M11,7.5C11,9.433,9.433,11,7.5,11S4,9.433,4,7.5S5.567,4,7.5,4S11,5.567,11,7.5z"/>
	<path fill="#66afe9" d="M7.5,1C11.084,1,14,3.916,14,7.5S11.084,14,7.5,14S1,11.084,1,7.5S3.916,1,7.5,1 M7.5,0
		C3.358,0,0,3.358,0,7.5S3.358,15,7.5,15S15,11.642,15,7.5S11.642,0,7.5,0L7.5,0z"/>
</g>
<g transform="translate(0 180)">
	<path fill="#757575" d="M11,52.614c0,1.933-1.567,3.5-3.5,3.5S4,54.547,4,52.614c0-1.933,1.567-3.5,3.5-3.5S11,50.681,11,52.614z"
		/>
	<path fill="#757575" d="M7.5,46.114c3.584,0,6.5,2.916,6.5,6.5s-2.916,6.5-6.5,6.5S1,56.198,1,52.614S3.916,46.114,7.5,46.114
		 M7.5,45.114c-4.142,0-7.5,3.358-7.5,7.5s3.358,7.5,7.5,7.5s7.5-3.358,7.5-7.5S11.642,45.114,7.5,45.114L7.5,45.114z"/>
</g>
<g transform="translate(0 270)">
	<path fill="#757575" d="M7.5,1.141c3.584,0,6.5,2.916,6.5,6.5s-2.916,6.5-6.5,6.5S1,11.225,1,7.641S3.916,1.141,7.5,1.141
		 M7.5,0.141c-4.142,0-7.5,3.358-7.5,7.5s3.358,7.5,7.5,7.5s7.5-3.358,7.5-7.5S11.642,0.141,7.5,0.141L7.5,0.141z"/>
</g>
<g transform="translate(0 315)">
	<path fill="#66afe9" d="M7.5,1C11.084,1,14,3.916,14,7.5S11.084,14,7.5,14S1,11.084,1,7.5S3.916,1,7.5,1 M7.5,0
		C3.358,0,0,3.358,0,7.5S3.358,15,7.5,15S15,11.642,15,7.5S11.642,0,7.5,0L7.5,0z"/>
</g>
<g transform="translate(0 360)">
	<path fill="#66afe9" d="M12,1c1.103,0,2,0.906,2,2.009v9C14,13.112,13.103,14,12,14H3c-1.103,0-2-0.888-2-1.991v-9
		C1,1.906,1.897,1,3,1H12 M12,0H3C1.35,0,0,1.359,0,3.009v9C0,13.659,1.35,15,3,15h9c1.65,0,3-1.341,3-2.991v-9
		C15,1.359,13.65,0,12,0L12,0z"/>
</g>
<g transform="translate(0 45)">
	<path fill="#CCCCCC" d="M6.587,507.246l-3.586-3.586l1.131-1.131l2.251,2.251l4.316-6.042l1.301,0.93L6.587,507.246z"/>
	<path fill="#CCCCCC" d="M12,496.246c1.103,0,2,0.897,2,2v9c0,1.103-0.897,2-2,2H3c-1.103,0-2-0.897-2-2v-9c0-1.103,0.897-2,2-2H12
		 M12,495.246H3c-1.65,0-3,1.35-3,3v9c0,1.65,1.35,3,3,3h9c1.65,0,3-1.35,3-3v-9C15,496.596,13.65,495.246,12,495.246L12,495.246z"
		/>
</g>
<g transform="translate(0 315)">
	<path fill="#CCCCCC" d="M7.5,91c3.584,0,6.5,2.916,6.5,6.5s-2.916,6.5-6.5,6.5S1,101.084,1,97.5S3.916,91,7.5,91 M7.5,90
		C3.358,90,0,93.358,0,97.5s3.358,7.5,7.5,7.5s7.5-3.358,7.5-7.5S11.642,90,7.5,90L7.5,90z"/>
</g>
<g transform="translate(0 360)">
	<path fill="#CCCCCC" d="M12,91c1.103,0,2,0.906,2,2.009v9c0,1.103-0.897,1.991-2,1.991H3c-1.103,0-2-0.888-2-1.991v-9
		C1,91.906,1.897,91,3,91H12 M12,90H3c-1.65,0-3,1.359-3,3.009v9C0,103.659,1.35,105,3,105h9c1.65,0,3-1.341,3-2.991v-9
		C15,91.359,13.65,90,12,90L12,90z"/>
</g>
<g transform="translate(0 315)">
	<path fill="#CCCCCC" d="M7.5,181c3.584,0,6.5,2.916,6.5,6.5s-2.916,6.5-6.5,6.5S1,191.084,1,187.5S3.916,181,7.5,181 M7.5,180
		c-4.142,0-7.5,3.358-7.5,7.5s3.358,7.5,7.5,7.5s7.5-3.358,7.5-7.5S11.642,180,7.5,180L7.5,180z"/>
</g>
<path fill="#CCCCCC" d="M11,502.667c0,1.933-1.567,3.5-3.5,3.5S4,504.6,4,502.667s1.567-3.5,3.5-3.5S11,500.734,11,502.667z"/>
<rect x="15" y="238.123" fill="#757575" width="1" height="1.844"/>
</svg>
