<?xml version="1.0" encoding="utf-8"?>
<!-- Generator: Adobe Illustrator 17.0.0, SVG Export Plug-In . SVG Version: 6.00 Build 0)  -->
<!DOCTYPE svg PUBLIC "-//W3C//DTD SVG 1.1//EN" "http://www.w3.org/Graphics/SVG/1.1/DTD/svg11.dtd">
<svg version="1.1" id="Calque_1" xmlns="http://www.w3.org/2000/svg" xmlns:xlink="http://www.w3.org/1999/xlink" x="0px" y="0px"
	 width="33.572px" height="36.867px" viewBox="-35.863 -2.397 33.572 36.867" enable-background="new -35.863 -2.397 33.572 36.867"
	 xml:space="preserve" preserveAspectRatio="xMinYMin meet">
<path fill="#FF0000" d="M-2.348,0.32c0,0-6.255-2.717-16.727-2.717h-0.003c-10.471,0-16.727,2.717-16.727,2.717
	s-0.56,12.03,1.814,18.831C-29.797,31.112-19.08,34.47-19.08,34.47h0.003h0.005c0,0,10.714-3.36,14.91-15.319
	C-1.788,12.349-2.348,0.32-2.348,0.32"/>
<polyline fill="#FFFFFF" points="-7.959,10.69 -7.959,17.318 -15.757,17.318 -15.757,25.052 -22.439,25.052 -22.439,17.318
	-30.234,17.318 -30.234,10.69 -22.439,10.69 -22.439,2.96 -15.759,2.96 -15.757,10.69 -7.959,10.69 "/>
</svg>
