<?xml version="1.0" encoding="utf-8"?>
<!-- Generator: Adobe Illustrator 17.0.0, SVG Export Plug-In . SVG Version: 6.00 Build 0)  -->
<!DOCTYPE svg PUBLIC "-//W3C//DTD SVG 1.1//EN" "http://www.w3.org/Graphics/SVG/1.1/DTD/svg11.dtd">
<svg version="1.1" id="Ebene_1" xmlns="http://www.w3.org/2000/svg" xmlns:xlink="http://www.w3.org/1999/xlink" x="0px" y="0px"
	 width="223.972px" height="55.993px" viewBox="0 0 223.972 55.993" enable-background="new 0 0 223.972 55.993"
	 xml:space="preserve">
<g>
	<g>
		<path fill="#0D0E0E" d="M43.275,9.644c0.437,0.277,0.948,0.437,1.641,0.437c0.917,0,1.674-0.469,1.674-1.524
			c0-1.461-3.411-1.642-3.411-3.592c0-1.194,1.045-1.94,2.356-1.94c0.362,0,0.948,0.053,1.46,0.245l-0.117,0.672
			c-0.33-0.182-0.853-0.277-1.354-0.277c-0.767,0-1.609,0.32-1.609,1.279c0,1.493,3.411,1.503,3.411,3.678
			c0,1.503-1.289,2.1-2.441,2.1c-0.725,0-1.289-0.149-1.684-0.32L43.275,9.644z"/>
		<path fill="#0D0E0E" d="M53.103,5.88c-0.362-0.16-0.799-0.277-1.162-0.277c-1.311,0-2.047,0.949-2.047,2.27
			c0,1.237,0.746,2.271,1.972,2.271c0.427,0,0.821-0.096,1.226-0.245l0.064,0.629c-0.459,0.16-0.885,0.192-1.396,0.192
			c-1.749,0-2.601-1.333-2.601-2.846c0-1.674,1.077-2.846,2.687-2.846c0.65,0,1.119,0.149,1.311,0.213L53.103,5.88z"/>
		<path fill="#0D0E0E" d="M55.128,2.597H55.8v3.475h0.022c0.288-0.597,0.895-1.045,1.695-1.045c1.461,0,1.855,0.97,1.855,2.313
			v3.251h-0.671V7.352c0-0.938-0.181-1.748-1.29-1.748c-1.194,0-1.61,1.13-1.61,2.079v2.91h-0.671V2.597z"/>
		<path fill="#0D0E0E" d="M67.473,10.592h-0.81l-1.482-4.701h-0.022l-1.482,4.701h-0.81l-1.748-5.437h0.735l1.428,4.702h0.022
			l1.514-4.702h0.81l1.439,4.702h0.021l1.503-4.702h0.672L67.473,10.592z"/>
		<path fill="#0D0E0E" d="M74.658,10.422c-0.469,0.192-1.077,0.298-1.578,0.298c-1.801,0-2.473-1.215-2.473-2.846
			c0-1.663,0.917-2.846,2.292-2.846c1.535,0,2.164,1.237,2.164,2.697v0.341h-3.721c0,1.152,0.619,2.079,1.791,2.079
			c0.49,0,1.205-0.203,1.525-0.405V10.422z M74.327,7.49c0-0.949-0.384-1.887-1.385-1.887c-0.992,0-1.599,0.991-1.599,1.887H74.327z
			"/>
		<path fill="#0D0E0E" d="M77.844,3.706h-0.671V2.811h0.671V3.706z M77.173,5.156h0.671v5.437h-0.671V5.156z"/>
		<path fill="#0D0E0E" d="M79.87,10.028l3.273-4.297h-3.145V5.156h3.923v0.576l-3.272,4.285h3.272v0.576h-4.05V10.028z"/>
		<path fill="#0D0E0E" d="M89.581,10.422c-0.469,0.192-1.077,0.298-1.578,0.298c-1.801,0-2.473-1.215-2.473-2.846
			c0-1.663,0.917-2.846,2.292-2.846c1.535,0,2.164,1.237,2.164,2.697v0.341h-3.721c0,1.152,0.619,2.079,1.791,2.079
			c0.49,0,1.205-0.203,1.525-0.405V10.422z M89.25,7.49c0-0.949-0.384-1.887-1.385-1.887c-0.992,0-1.599,0.991-1.599,1.887H89.25z"
			/>
		<path fill="#0D0E0E" d="M92.096,6.371c0-0.597,0-0.821-0.042-1.215h0.671V6.2h0.021c0.245-0.607,0.704-1.172,1.397-1.172
			c0.16,0,0.352,0.032,0.469,0.064v0.704c-0.139-0.043-0.32-0.064-0.49-0.064c-1.066,0-1.354,1.194-1.354,2.175v2.687h-0.672V6.371z
			"/>
		<path fill="#0D0E0E" d="M97.149,3.706h-0.672V2.811h0.672V3.706z M96.477,5.156h0.672v5.437h-0.672V5.156z"/>
		<path fill="#0D0E0E" d="M99.26,9.804c0.405,0.203,0.896,0.341,1.418,0.341c0.64,0,1.204-0.352,1.204-0.97
			c0-1.289-2.612-1.087-2.612-2.665c0-1.077,0.874-1.482,1.77-1.482c0.288,0,0.864,0.064,1.343,0.246l-0.064,0.586
			c-0.352-0.16-0.831-0.256-1.204-0.256c-0.693,0-1.173,0.213-1.173,0.906c0,1.013,2.676,0.885,2.676,2.665
			c0,1.152-1.077,1.545-1.898,1.545c-0.522,0-1.045-0.064-1.525-0.255L99.26,9.804z"/>
		<path fill="#0D0E0E" d="M108.192,5.88c-0.362-0.16-0.799-0.277-1.162-0.277c-1.311,0-2.047,0.949-2.047,2.27
			c0,1.237,0.746,2.271,1.972,2.271c0.427,0,0.821-0.096,1.226-0.245l0.064,0.629c-0.458,0.16-0.885,0.192-1.396,0.192
			c-1.749,0-2.601-1.333-2.601-2.846c0-1.674,1.077-2.846,2.687-2.846c0.65,0,1.119,0.149,1.311,0.213L108.192,5.88z"/>
		<path fill="#0D0E0E" d="M110.217,2.597h0.672v3.475h0.021c0.288-0.597,0.896-1.045,1.695-1.045c1.461,0,1.855,0.97,1.855,2.313
			v3.251h-0.671V7.352c0-0.938-0.181-1.748-1.289-1.748c-1.194,0-1.61,1.13-1.61,2.079v2.91h-0.672V2.597z"/>
		<path fill="#0D0E0E" d="M120.622,10.422c-0.469,0.192-1.077,0.298-1.578,0.298c-1.801,0-2.473-1.215-2.473-2.846
			c0-1.663,0.917-2.846,2.292-2.846c1.535,0,2.164,1.237,2.164,2.697v0.341h-3.721c0,1.152,0.619,2.079,1.791,2.079
			c0.49,0,1.205-0.203,1.525-0.405V10.422z M120.291,7.49c0-0.949-0.384-1.887-1.385-1.887c-0.992,0-1.599,0.991-1.599,1.887
			H120.291z"/>
		<path fill="#0D0E0E" d="M126.687,3.152h3.645v0.64h-2.91v2.655h2.761v0.64h-2.761v2.868h3.038v0.64h-3.773V3.152z"/>
		<path fill="#0D0E0E" d="M133.445,3.706h-0.672V2.811h0.672V3.706z M132.774,5.156h0.672v5.437h-0.672V5.156z"/>
		<path fill="#0D0E0E" d="M140.278,10.592h-0.672V9.729h-0.021c-0.363,0.693-0.917,0.991-1.695,0.991
			c-1.492,0-2.238-1.236-2.238-2.846c0-1.652,0.64-2.846,2.238-2.846c1.066,0,1.599,0.778,1.695,1.045h0.021V2.597h0.672V10.592z
			 M137.997,10.145c1.194,0,1.609-1.28,1.609-2.271c0-0.991-0.416-2.27-1.609-2.27c-1.279,0-1.61,1.215-1.61,2.27
			C136.387,8.93,136.717,10.145,137.997,10.145z"/>
		<path fill="#0D0E0E" d="M147.036,10.145c0,1.514-0.683,2.75-2.548,2.75c-0.714,0-1.364-0.203-1.642-0.288l0.053-0.671
			c0.415,0.214,1.013,0.384,1.599,0.384c1.727,0,1.876-1.258,1.876-2.793h-0.022c-0.362,0.789-0.959,1.066-1.652,1.066
			c-1.738,0-2.292-1.514-2.292-2.718c0-1.652,0.64-2.846,2.238-2.846c0.725,0,1.194,0.096,1.695,0.746h0.021V5.156h0.672V10.145z
			 M144.712,10.017c1.215,0,1.652-1.152,1.652-2.143c0-1.311-0.384-2.27-1.609-2.27c-1.279,0-1.61,1.215-1.61,2.27
			C143.145,8.94,143.571,10.017,144.712,10.017z"/>
		<path fill="#0D0E0E" d="M153.134,10.422c-0.469,0.192-1.077,0.298-1.578,0.298c-1.801,0-2.473-1.215-2.473-2.846
			c0-1.663,0.917-2.846,2.292-2.846c1.535,0,2.164,1.237,2.164,2.697v0.341h-3.721c0,1.152,0.619,2.079,1.791,2.079
			c0.49,0,1.205-0.203,1.525-0.405V10.422z M152.803,7.49c0-0.949-0.384-1.887-1.385-1.887c-0.992,0-1.6,0.991-1.6,1.887H152.803z"
			/>
		<path fill="#0D0E0E" d="M155.649,6.435c0-0.416,0-0.842-0.042-1.28h0.65v0.97h0.022c0.223-0.49,0.628-1.098,1.758-1.098
			c1.344,0,1.855,0.895,1.855,2.089v3.475h-0.671V7.288c0-1.023-0.362-1.684-1.29-1.684c-1.226,0-1.61,1.077-1.61,1.983v3.006
			h-0.671V6.435z"/>
		<path fill="#0D0E0E" d="M164.528,5.028c1.759,0,2.537,1.364,2.537,2.846s-0.778,2.846-2.537,2.846
			c-1.758,0-2.537-1.364-2.537-2.846S162.77,5.028,164.528,5.028z M164.528,10.145c1.173,0,1.801-1.013,1.801-2.271
			c0-1.258-0.628-2.27-1.801-2.27c-1.172,0-1.801,1.013-1.801,2.27C162.727,9.132,163.356,10.145,164.528,10.145z"/>
		<path fill="#0D0E0E" d="M168.75,9.804c0.405,0.203,0.895,0.341,1.418,0.341c0.64,0,1.204-0.352,1.204-0.97
			c0-1.289-2.612-1.087-2.612-2.665c0-1.077,0.874-1.482,1.77-1.482c0.288,0,0.864,0.064,1.343,0.246l-0.064,0.586
			c-0.352-0.16-0.831-0.256-1.204-0.256c-0.693,0-1.173,0.213-1.173,0.906c0,1.013,2.675,0.885,2.675,2.665
			c0,1.152-1.077,1.545-1.897,1.545c-0.522,0-1.045-0.064-1.524-0.255L168.75,9.804z"/>
		<path fill="#0D0E0E" d="M173.728,9.804c0.405,0.203,0.895,0.341,1.418,0.341c0.64,0,1.204-0.352,1.204-0.97
			c0-1.289-2.612-1.087-2.612-2.665c0-1.077,0.874-1.482,1.77-1.482c0.288,0,0.864,0.064,1.343,0.246l-0.064,0.586
			c-0.352-0.16-0.831-0.256-1.204-0.256c-0.693,0-1.173,0.213-1.173,0.906c0,1.013,2.675,0.885,2.675,2.665
			c0,1.152-1.077,1.545-1.897,1.545c-0.522,0-1.045-0.064-1.524-0.255L173.728,9.804z"/>
		<path fill="#0D0E0E" d="M182.768,10.422c-0.469,0.192-1.077,0.298-1.578,0.298c-1.801,0-2.473-1.215-2.473-2.846
			c0-1.663,0.917-2.846,2.292-2.846c1.535,0,2.164,1.237,2.164,2.697v0.341h-3.721c0,1.152,0.619,2.079,1.791,2.079
			c0.49,0,1.205-0.203,1.525-0.405V10.422z M182.437,7.49c0-0.949-0.384-1.887-1.385-1.887c-0.992,0-1.599,0.991-1.599,1.887
			H182.437z"/>
		<path fill="#0D0E0E" d="M185.283,6.435c0-0.416,0-0.842-0.042-1.28h0.65v0.97h0.021c0.223-0.49,0.628-1.098,1.758-1.098
			c1.344,0,1.855,0.895,1.855,2.089v3.475h-0.672V7.288c0-1.023-0.362-1.684-1.29-1.684c-1.226,0-1.61,1.077-1.61,1.983v3.006
			h-0.672V6.435z"/>
		<path fill="#0D0E0E" d="M191.626,9.804c0.405,0.203,0.896,0.341,1.418,0.341c0.64,0,1.204-0.352,1.204-0.97
			c0-1.289-2.612-1.087-2.612-2.665c0-1.077,0.874-1.482,1.77-1.482c0.288,0,0.864,0.064,1.343,0.246l-0.064,0.586
			c-0.352-0.16-0.831-0.256-1.204-0.256c-0.693,0-1.173,0.213-1.173,0.906c0,1.013,2.675,0.885,2.675,2.665
			c0,1.152-1.077,1.545-1.897,1.545c-0.522,0-1.045-0.064-1.524-0.255L191.626,9.804z"/>
		<path fill="#0D0E0E" d="M200.559,5.88c-0.362-0.16-0.799-0.277-1.162-0.277c-1.311,0-2.047,0.949-2.047,2.27
			c0,1.237,0.746,2.271,1.972,2.271c0.427,0,0.821-0.096,1.226-0.245l0.064,0.629c-0.459,0.16-0.885,0.192-1.396,0.192
			c-1.749,0-2.601-1.333-2.601-2.846c0-1.674,1.077-2.846,2.687-2.846c0.65,0,1.119,0.149,1.311,0.213L200.559,5.88z"/>
		<path fill="#0D0E0E" d="M202.584,2.597h0.671v3.475h0.022c0.288-0.597,0.895-1.045,1.695-1.045c1.461,0,1.855,0.97,1.855,2.313
			v3.251h-0.672V7.352c0-0.938-0.182-1.748-1.289-1.748c-1.194,0-1.61,1.13-1.61,2.079v2.91h-0.671V2.597z"/>
		<path fill="#0D0E0E" d="M212.465,9.718h-0.021c-0.298,0.65-1.056,1.002-1.727,1.002c-1.545,0-1.791-1.045-1.791-1.535
			c0-1.822,1.941-1.907,3.348-1.907h0.128V7c0-0.928-0.33-1.396-1.236-1.396c-0.565,0-1.097,0.128-1.6,0.447v-0.65
			c0.416-0.203,1.12-0.373,1.6-0.373c1.343,0,1.908,0.608,1.908,2.026v2.399c0,0.437,0,0.767,0.054,1.14h-0.662V9.718z
			 M212.401,7.853h-0.191c-1.162,0-2.547,0.118-2.547,1.312c0,0.714,0.511,0.981,1.129,0.981c1.577,0,1.609-1.375,1.609-1.962V7.853
			z"/>
		<path fill="#0D0E0E" d="M215.962,5.731h-1.097V5.156h1.097V4.762c0-1.14,0.043-2.292,1.44-2.292c0.212,0,0.501,0.032,0.628,0.107
			l-0.043,0.586c-0.139-0.075-0.341-0.117-0.533-0.117c-0.917,0-0.82,0.991-0.82,1.641v0.469h1.225v0.576h-1.225v4.861h-0.673V5.731
			z"/>
		<path fill="#0D0E0E" d="M222.229,5.731h-1.236V9.25c0,0.49,0.182,0.895,0.726,0.895c0.255,0,0.426-0.053,0.617-0.128l0.043,0.554
			c-0.16,0.064-0.49,0.149-0.821,0.149c-1.193,0-1.236-0.821-1.236-1.812V5.731h-1.065V5.156h1.065V3.845l0.672-0.235v1.545h1.236
			V5.731z"/>
		<path fill="#0D0E0E" d="M48.498,18.687c-0.469-0.245-1.141-0.32-1.663-0.32c-1.929,0-3.017,1.365-3.017,3.209
			c0,1.876,1.056,3.208,3.017,3.208c0.49,0,1.237-0.064,1.663-0.32l0.042,0.64c-0.405,0.246-1.236,0.32-1.706,0.32
			c-2.345,0-3.752-1.546-3.752-3.848c0-2.26,1.45-3.848,3.752-3.848c0.437,0,1.322,0.075,1.706,0.277L48.498,18.687z"/>
		<path fill="#0D0E0E" d="M53.113,19.732c1.759,0,2.538,1.364,2.538,2.846c0,1.482-0.778,2.846-2.538,2.846
			c-1.758,0-2.537-1.364-2.537-2.846C50.576,21.096,51.355,19.732,53.113,19.732z M53.113,24.849c1.173,0,1.801-1.013,1.801-2.271
			c0-1.258-0.628-2.27-1.801-2.27c-1.172,0-1.801,1.013-1.801,2.27C51.312,23.836,51.941,24.849,53.113,24.849z"/>
		<path fill="#0D0E0E" d="M57.75,21.139c0-0.416,0-0.842-0.042-1.28h0.65v0.97h0.022c0.223-0.49,0.628-1.098,1.758-1.098
			c1.344,0,1.855,0.895,1.855,2.089v3.475h-0.671v-3.305c0-1.023-0.362-1.684-1.29-1.684c-1.226,0-1.61,1.077-1.61,1.983v3.006
			H57.75V21.139z"/>
		<path fill="#0D0E0E" d="M64.967,20.435h-1.098v-0.576h1.098v-0.394c0-1.14,0.042-2.292,1.439-2.292
			c0.214,0,0.501,0.032,0.629,0.106l-0.042,0.587c-0.139-0.075-0.341-0.117-0.533-0.117c-0.916,0-0.821,0.991-0.821,1.641v0.469
			h1.226v0.576h-1.226v4.861h-0.671V20.435z"/>
		<path fill="#0D0E0E" d="M72.536,25.125c-0.469,0.192-1.077,0.298-1.578,0.298c-1.801,0-2.473-1.215-2.473-2.846
			c0-1.663,0.917-2.846,2.292-2.846c1.535,0,2.164,1.237,2.164,2.697v0.341H69.22c0,1.152,0.619,2.079,1.791,2.079
			c0.49,0,1.205-0.203,1.525-0.405V25.125z M72.205,22.194c0-0.949-0.384-1.887-1.385-1.887c-0.992,0-1.6,0.991-1.6,1.887H72.205z
			 M71.086,17.759h0.842l-1.344,1.535h-0.49L71.086,17.759z"/>
		<path fill="#0D0E0E" d="M79.358,25.296h-0.672v-0.864h-0.021c-0.363,0.693-0.917,0.991-1.695,0.991
			c-1.492,0-2.238-1.236-2.238-2.846c0-1.652,0.64-2.846,2.238-2.846c1.066,0,1.599,0.778,1.695,1.045h0.021v-3.475h0.672V25.296z
			 M77.076,24.849c1.194,0,1.609-1.28,1.609-2.271c0-0.991-0.416-2.27-1.609-2.27c-1.279,0-1.61,1.215-1.61,2.27
			C75.466,23.633,75.797,24.849,77.076,24.849z"/>
		<path fill="#0D0E0E" d="M85.455,25.125c-0.469,0.192-1.077,0.298-1.578,0.298c-1.801,0-2.473-1.215-2.473-2.846
			c0-1.663,0.917-2.846,2.292-2.846c1.535,0,2.164,1.237,2.164,2.697v0.341h-3.721c0,1.152,0.619,2.079,1.791,2.079
			c0.49,0,1.205-0.203,1.525-0.405V25.125z M85.124,22.194c0-0.949-0.384-1.887-1.385-1.887c-0.992,0-1.599,0.991-1.599,1.887
			H85.124z M84.005,17.759h0.842l-1.343,1.535h-0.49L84.005,17.759z"/>
		<path fill="#0D0E0E" d="M87.971,21.074c0-0.597,0-0.821-0.042-1.215H88.6v1.045h0.021c0.245-0.608,0.704-1.173,1.397-1.173
			c0.16,0,0.352,0.032,0.469,0.064v0.704c-0.139-0.043-0.32-0.064-0.49-0.064c-1.066,0-1.354,1.194-1.354,2.175v2.687h-0.672V21.074
			z"/>
		<path fill="#0D0E0E" d="M95.475,24.422h-0.022c-0.298,0.65-1.055,1.002-1.727,1.002c-1.545,0-1.79-1.045-1.79-1.535
			c0-1.822,1.94-1.907,3.347-1.907h0.128v-0.277c0-0.928-0.331-1.396-1.237-1.396c-0.565,0-1.098,0.128-1.599,0.447v-0.65
			c0.416-0.203,1.119-0.373,1.599-0.373c1.343,0,1.908,0.608,1.908,2.026v2.399c0,0.437,0,0.767,0.053,1.14h-0.661V24.422z
			 M95.411,22.557h-0.192c-1.162,0-2.548,0.117-2.548,1.311c0,0.714,0.512,0.981,1.13,0.981c1.577,0,1.61-1.375,1.61-1.962V22.557z"
			/>
		<path fill="#0D0E0E" d="M100.859,20.435h-1.237v3.518c0,0.49,0.182,0.895,0.725,0.895c0.256,0,0.427-0.053,0.619-0.128
			l0.042,0.554c-0.16,0.064-0.49,0.149-0.821,0.149c-1.194,0-1.237-0.821-1.237-1.812v-3.177h-1.066v-0.576h1.066v-1.311
			l0.671-0.235v1.546h1.237V20.435z"/>
		<path fill="#0D0E0E" d="M103.566,18.409h-0.672v-0.895h0.672V18.409z M102.894,19.859h0.672v5.437h-0.672V19.859z"/>
		<path fill="#0D0E0E" d="M108.213,19.732c1.759,0,2.537,1.364,2.537,2.846c0,1.482-0.778,2.846-2.537,2.846
			c-1.758,0-2.537-1.364-2.537-2.846C105.676,21.096,106.454,19.732,108.213,19.732z M108.213,24.849
			c1.173,0,1.801-1.013,1.801-2.271c0-1.258-0.628-2.27-1.801-2.27c-1.172,0-1.801,1.013-1.801,2.27
			C106.411,23.836,107.04,24.849,108.213,24.849z"/>
		<path fill="#0D0E0E" d="M112.85,21.139c0-0.416,0-0.842-0.042-1.28h0.65v0.97h0.021c0.223-0.49,0.628-1.098,1.758-1.098
			c1.344,0,1.855,0.895,1.855,2.089v3.475h-0.672v-3.305c0-1.023-0.362-1.684-1.289-1.684c-1.226,0-1.61,1.077-1.61,1.983v3.006
			h-0.672V21.139z"/>
		<path fill="#0D0E0E" d="M122.881,24.507c0.405,0.203,0.895,0.341,1.418,0.341c0.64,0,1.204-0.352,1.204-0.97
			c0-1.289-2.612-1.087-2.612-2.665c0-1.077,0.874-1.482,1.77-1.482c0.288,0,0.864,0.064,1.343,0.245l-0.064,0.587
			c-0.352-0.16-0.831-0.256-1.204-0.256c-0.693,0-1.173,0.213-1.173,0.906c0,1.013,2.675,0.885,2.675,2.665
			c0,1.152-1.077,1.546-1.897,1.546c-0.522,0-1.045-0.064-1.524-0.255L122.881,24.507z"/>
		<path fill="#0D0E0E" d="M132.517,24.017c0,0.416,0,0.842,0.043,1.279h-0.651v-0.97h-0.021c-0.224,0.49-0.629,1.097-1.759,1.097
			c-1.343,0-1.855-0.896-1.855-2.089v-3.475h0.671v3.305c0,1.024,0.363,1.685,1.29,1.685c1.226,0,1.609-1.077,1.609-1.983v-3.006
			h0.672V24.017z"/>
		<path fill="#0D0E0E" d="M135.704,18.409h-0.671v-0.895h0.671V18.409z M135.033,19.859h0.671v5.437h-0.671V19.859z"/>
		<path fill="#0D0E0E" d="M137.815,24.507c0.405,0.203,0.895,0.341,1.418,0.341c0.64,0,1.204-0.352,1.204-0.97
			c0-1.289-2.612-1.087-2.612-2.665c0-1.077,0.874-1.482,1.77-1.482c0.288,0,0.864,0.064,1.343,0.245l-0.064,0.587
			c-0.352-0.16-0.831-0.256-1.204-0.256c-0.693,0-1.173,0.213-1.173,0.906c0,1.013,2.676,0.885,2.676,2.665
			c0,1.152-1.077,1.546-1.898,1.546c-0.522,0-1.045-0.064-1.525-0.255L137.815,24.507z"/>
		<path fill="#0D0E0E" d="M142.793,24.507c0.405,0.203,0.896,0.341,1.418,0.341c0.64,0,1.204-0.352,1.204-0.97
			c0-1.289-2.612-1.087-2.612-2.665c0-1.077,0.874-1.482,1.77-1.482c0.288,0,0.864,0.064,1.343,0.245l-0.064,0.587
			c-0.352-0.16-0.831-0.256-1.204-0.256c-0.693,0-1.173,0.213-1.173,0.906c0,1.013,2.676,0.885,2.676,2.665
			c0,1.152-1.077,1.546-1.898,1.546c-0.522,0-1.045-0.064-1.525-0.255L142.793,24.507z"/>
		<path fill="#0D0E0E" d="M151.832,25.125c-0.469,0.192-1.077,0.298-1.578,0.298c-1.801,0-2.473-1.215-2.473-2.846
			c0-1.663,0.917-2.846,2.292-2.846c1.535,0,2.164,1.237,2.164,2.697v0.341h-3.721c0,1.152,0.619,2.079,1.791,2.079
			c0.49,0,1.205-0.203,1.525-0.405V25.125z M151.502,22.194c0-0.949-0.384-1.887-1.385-1.887c-0.992,0-1.6,0.991-1.6,1.887H151.502z
			"/>
		<path fill="#0D0E0E" d="M48.498,33.39c-0.469-0.245-1.141-0.32-1.663-0.32c-1.929,0-3.017,1.365-3.017,3.209
			c0,1.876,1.056,3.208,3.017,3.208c0.49,0,1.237-0.064,1.663-0.32l0.042,0.64c-0.405,0.246-1.236,0.32-1.706,0.32
			c-2.345,0-3.752-1.545-3.752-3.848c0-2.26,1.45-3.848,3.752-3.848c0.437,0,1.322,0.074,1.706,0.277L48.498,33.39z"/>
		<path fill="#0D0E0E" d="M53.113,34.435c1.759,0,2.538,1.364,2.538,2.846c0,1.482-0.778,2.846-2.538,2.846
			c-1.758,0-2.537-1.364-2.537-2.846C50.576,35.799,51.355,34.435,53.113,34.435z M53.113,39.552c1.173,0,1.801-1.013,1.801-2.271
			c0-1.258-0.628-2.27-1.801-2.27c-1.172,0-1.801,1.013-1.801,2.27C51.312,38.539,51.941,39.552,53.113,39.552z"/>
		<path fill="#0D0E0E" d="M57.75,35.842c0-0.416,0-0.842-0.042-1.28h0.65v0.97h0.022c0.223-0.49,0.628-1.098,1.758-1.098
			c1.344,0,1.855,0.895,1.855,2.089V40h-0.671v-3.305c0-1.023-0.362-1.684-1.29-1.684c-1.226,0-1.61,1.077-1.61,1.983V40H57.75
			V35.842z"/>
		<path fill="#0D0E0E" d="M64.967,35.138h-1.098v-0.576h1.098v-0.394c0-1.14,0.042-2.292,1.439-2.292
			c0.214,0,0.501,0.032,0.629,0.107l-0.042,0.586c-0.139-0.075-0.341-0.117-0.533-0.117c-0.916,0-0.821,0.991-0.821,1.641v0.469
			h1.226v0.576h-1.226V40h-0.671V35.138z"/>
		<path fill="#0D0E0E" d="M72.536,39.829c-0.469,0.192-1.077,0.298-1.578,0.298c-1.801,0-2.473-1.215-2.473-2.846
			c0-1.663,0.917-2.846,2.292-2.846c1.535,0,2.164,1.237,2.164,2.697v0.341H69.22c0,1.152,0.619,2.079,1.791,2.079
			c0.49,0,1.205-0.203,1.525-0.405V39.829z M72.205,36.898c0-0.949-0.384-1.887-1.385-1.887c-0.992,0-1.6,0.991-1.6,1.887H72.205z"
			/>
		<path fill="#0D0E0E" d="M79.358,40h-0.672v-0.864h-0.021c-0.363,0.693-0.917,0.991-1.695,0.991c-1.492,0-2.238-1.236-2.238-2.846
			c0-1.652,0.64-2.846,2.238-2.846c1.066,0,1.599,0.778,1.695,1.045h0.021v-3.475h0.672V40z M77.076,39.552
			c1.194,0,1.609-1.28,1.609-2.271c0-0.991-0.416-2.27-1.609-2.27c-1.279,0-1.61,1.215-1.61,2.27
			C75.466,38.337,75.797,39.552,77.076,39.552z"/>
		<path fill="#0D0E0E" d="M85.455,39.829c-0.469,0.192-1.077,0.298-1.578,0.298c-1.801,0-2.473-1.215-2.473-2.846
			c0-1.663,0.917-2.846,2.292-2.846c1.535,0,2.164,1.237,2.164,2.697v0.341h-3.721c0,1.152,0.619,2.079,1.791,2.079
			c0.49,0,1.205-0.203,1.525-0.405V39.829z M85.124,36.898c0-0.949-0.384-1.887-1.385-1.887c-0.992,0-1.599,0.991-1.599,1.887
			H85.124z"/>
		<path fill="#0D0E0E" d="M87.971,35.778c0-0.597,0-0.821-0.042-1.215H88.6v1.045h0.021c0.245-0.607,0.704-1.172,1.397-1.172
			c0.16,0,0.352,0.032,0.469,0.064v0.704c-0.139-0.043-0.32-0.064-0.49-0.064c-1.066,0-1.354,1.194-1.354,2.175V40h-0.672V35.778z"
			/>
		<path fill="#0D0E0E" d="M95.475,39.126h-0.022c-0.298,0.65-1.055,1.002-1.727,1.002c-1.545,0-1.79-1.045-1.79-1.535
			c0-1.822,1.94-1.907,3.347-1.907h0.128v-0.277c0-0.928-0.331-1.396-1.237-1.396c-0.565,0-1.098,0.128-1.599,0.447v-0.65
			c0.416-0.203,1.119-0.373,1.599-0.373c1.343,0,1.908,0.608,1.908,2.025v2.399c0,0.437,0,0.767,0.053,1.14h-0.661V39.126z
			 M95.411,37.26h-0.192c-1.162,0-2.548,0.118-2.548,1.312c0,0.714,0.512,0.981,1.13,0.981c1.577,0,1.61-1.375,1.61-1.962V37.26z"/>
		<path fill="#0D0E0E" d="M98.012,39.435l3.273-4.297H98.14v-0.576h3.923v0.576l-3.272,4.285h3.272V40h-4.05V39.435z"/>
		<path fill="#0D0E0E" d="M104.749,33.113h-0.672v-0.895h0.672V33.113z M104.078,34.563h0.672V40h-0.672V34.563z"/>
		<path fill="#0D0E0E" d="M109.396,34.435c1.759,0,2.537,1.364,2.537,2.846c0,1.482-0.778,2.846-2.537,2.846
			c-1.758,0-2.537-1.364-2.537-2.846C106.859,35.799,107.638,34.435,109.396,34.435z M109.396,39.552
			c1.173,0,1.801-1.013,1.801-2.271c0-1.258-0.628-2.27-1.801-2.27c-1.172,0-1.801,1.013-1.801,2.27
			C107.595,38.539,108.224,39.552,109.396,39.552z"/>
		<path fill="#0D0E0E" d="M114.033,35.842c0-0.416,0-0.842-0.042-1.28h0.65v0.97h0.021c0.223-0.49,0.628-1.098,1.758-1.098
			c1.344,0,1.855,0.895,1.855,2.089V40h-0.672v-3.305c0-1.023-0.362-1.684-1.289-1.684c-1.226,0-1.61,1.077-1.61,1.983V40h-0.672
			V35.842z"/>
		<path fill="#0D0E0E" d="M124.438,39.829c-0.469,0.192-1.077,0.298-1.578,0.298c-1.801,0-2.473-1.215-2.473-2.846
			c0-1.663,0.917-2.846,2.292-2.846c1.535,0,2.164,1.237,2.164,2.697v0.341h-3.721c0,1.152,0.619,2.079,1.791,2.079
			c0.49,0,1.205-0.203,1.525-0.405V39.829z M124.107,36.898c0-0.949-0.384-1.887-1.385-1.887c-0.992,0-1.6,0.991-1.6,1.887H124.107z
			"/>
		<path fill="#0D0E0E" d="M130.513,39.051c0.437,0.277,0.948,0.437,1.641,0.437c0.917,0,1.674-0.469,1.674-1.524
			c0-1.461-3.411-1.642-3.411-3.593c0-1.194,1.045-1.94,2.356-1.94c0.362,0,0.948,0.053,1.46,0.245l-0.117,0.672
			c-0.331-0.182-0.853-0.277-1.354-0.277c-0.767,0-1.609,0.32-1.609,1.279c0,1.493,3.411,1.503,3.411,3.678
			c0,1.503-1.289,2.1-2.441,2.1c-0.725,0-1.29-0.149-1.684-0.32L130.513,39.051z"/>
		<path fill="#0D0E0E" d="M138.69,40h-0.789l-1.844-5.437h0.736l1.503,4.702h0.021l1.578-4.702h0.703L138.69,40z"/>
		<path fill="#0D0E0E" d="M143.039,33.113h-0.671v-0.895h0.671V33.113z M142.367,34.563h0.671V40h-0.671V34.563z"/>
		<path fill="#0D0E0E" d="M145.064,39.435l3.273-4.297h-3.145v-0.576h3.923v0.576l-3.272,4.285h3.272V40h-4.05V39.435z"/>
		<path fill="#0D0E0E" d="M150.628,39.435l3.273-4.297h-3.145v-0.576h3.923v0.576l-3.272,4.285h3.272V40h-4.05V39.435z"/>
		<path fill="#0D0E0E" d="M160.339,39.829c-0.469,0.192-1.077,0.298-1.578,0.298c-1.801,0-2.473-1.215-2.473-2.846
			c0-1.663,0.917-2.846,2.292-2.846c1.535,0,2.164,1.237,2.164,2.697v0.341h-3.721c0,1.152,0.619,2.079,1.791,2.079
			c0.49,0,1.205-0.203,1.525-0.405V39.829z M160.008,36.898c0-0.949-0.384-1.887-1.385-1.887c-0.992,0-1.599,0.991-1.599,1.887
			H160.008z"/>
		<path fill="#0D0E0E" d="M162.855,35.778c0-0.597,0-0.821-0.042-1.215h0.671v1.045h0.021c0.245-0.607,0.704-1.172,1.397-1.172
			c0.16,0,0.352,0.032,0.469,0.064v0.704c-0.139-0.043-0.32-0.064-0.49-0.064c-1.066,0-1.354,1.194-1.354,2.175V40h-0.671V35.778z"
			/>
		<path fill="#0D0E0E" d="M170.359,39.126h-0.022c-0.298,0.65-1.055,1.002-1.727,1.002c-1.545,0-1.79-1.045-1.79-1.535
			c0-1.822,1.94-1.907,3.347-1.907h0.128v-0.277c0-0.928-0.331-1.396-1.237-1.396c-0.565,0-1.098,0.128-1.599,0.447v-0.65
			c0.416-0.203,1.119-0.373,1.599-0.373c1.343,0,1.908,0.608,1.908,2.025v2.399c0,0.437,0,0.767,0.053,1.14h-0.661V39.126z
			 M170.295,37.26h-0.192c-1.162,0-2.548,0.118-2.548,1.312c0,0.714,0.512,0.981,1.13,0.981c1.577,0,1.61-1.375,1.61-1.962V37.26z"
			/>
		<path fill="#0D0E0E" d="M48.498,48.093c-0.469-0.245-1.141-0.32-1.663-0.32c-1.929,0-3.017,1.365-3.017,3.209
			c0,1.876,1.056,3.208,3.017,3.208c0.49,0,1.237-0.064,1.663-0.32l0.042,0.64c-0.405,0.246-1.236,0.32-1.706,0.32
			c-2.345,0-3.752-1.545-3.752-3.848c0-2.26,1.45-3.848,3.752-3.848c0.437,0,1.322,0.074,1.706,0.277L48.498,48.093z"/>
		<path fill="#0D0E0E" d="M53.113,49.138c1.759,0,2.538,1.364,2.538,2.846c0,1.482-0.778,2.846-2.538,2.846
			c-1.758,0-2.537-1.364-2.537-2.846C50.576,50.502,51.355,49.138,53.113,49.138z M53.113,54.255c1.173,0,1.801-1.013,1.801-2.271
			c0-1.258-0.628-2.27-1.801-2.27c-1.172,0-1.801,1.013-1.801,2.27C51.312,53.242,51.941,54.255,53.113,54.255z"/>
		<path fill="#0D0E0E" d="M57.75,50.545c0-0.416,0-0.842-0.042-1.28h0.65v0.97h0.022c0.223-0.49,0.628-1.098,1.758-1.098
			c1.344,0,1.855,0.896,1.855,2.089v3.475h-0.671v-3.305c0-1.023-0.362-1.684-1.29-1.684c-1.226,0-1.61,1.077-1.61,1.982v3.006
			H57.75V50.545z"/>
		<path fill="#0D0E0E" d="M64.967,49.841h-1.098v-0.576h1.098v-0.394c0-1.14,0.042-2.292,1.439-2.292
			c0.214,0,0.501,0.032,0.629,0.107l-0.042,0.586c-0.139-0.075-0.341-0.117-0.533-0.117c-0.916,0-0.821,0.991-0.821,1.641v0.469
			h1.226v0.576h-1.226v4.861h-0.671V49.841z"/>
		<path fill="#0D0E0E" d="M72.536,54.532c-0.469,0.192-1.077,0.298-1.578,0.298c-1.801,0-2.473-1.215-2.473-2.846
			c0-1.663,0.917-2.846,2.292-2.846c1.535,0,2.164,1.237,2.164,2.697v0.341H69.22c0,1.151,0.619,2.079,1.791,2.079
			c0.49,0,1.205-0.202,1.525-0.405V54.532z M72.205,51.6c0-0.949-0.384-1.887-1.385-1.887c-0.992,0-1.6,0.991-1.6,1.887H72.205z"/>
		<path fill="#0D0E0E" d="M79.358,54.703h-0.672v-0.864h-0.021c-0.363,0.693-0.917,0.991-1.695,0.991
			c-1.492,0-2.238-1.236-2.238-2.846c0-1.652,0.64-2.846,2.238-2.846c1.066,0,1.599,0.778,1.695,1.045h0.021v-3.475h0.672V54.703z
			 M77.076,54.255c1.194,0,1.609-1.28,1.609-2.271c0-0.991-0.416-2.27-1.609-2.27c-1.279,0-1.61,1.215-1.61,2.27
			C75.466,53.04,75.797,54.255,77.076,54.255z"/>
		<path fill="#0D0E0E" d="M85.455,54.532c-0.469,0.192-1.077,0.298-1.578,0.298c-1.801,0-2.473-1.215-2.473-2.846
			c0-1.663,0.917-2.846,2.292-2.846c1.535,0,2.164,1.237,2.164,2.697v0.341h-3.721c0,1.151,0.619,2.079,1.791,2.079
			c0.49,0,1.205-0.202,1.525-0.405V54.532z M85.124,51.6c0-0.949-0.384-1.887-1.385-1.887c-0.992,0-1.599,0.991-1.599,1.887H85.124z
			"/>
		<path fill="#0D0E0E" d="M87.971,50.481c0-0.597,0-0.821-0.042-1.215H88.6v1.045h0.021c0.245-0.607,0.704-1.172,1.397-1.172
			c0.16,0,0.352,0.032,0.469,0.064v0.704c-0.139-0.043-0.32-0.064-0.49-0.064c-1.066,0-1.354,1.194-1.354,2.175v2.687h-0.672V50.481
			z"/>
		<path fill="#0D0E0E" d="M95.475,53.828h-0.022c-0.298,0.65-1.055,1.002-1.727,1.002c-1.545,0-1.79-1.045-1.79-1.535
			c0-1.822,1.94-1.908,3.347-1.908h0.128V51.11c0-0.927-0.331-1.396-1.237-1.396c-0.565,0-1.098,0.128-1.599,0.447v-0.65
			c0.416-0.203,1.119-0.373,1.599-0.373c1.343,0,1.908,0.608,1.908,2.026v2.399c0,0.437,0,0.767,0.053,1.14h-0.661V53.828z
			 M95.411,51.963h-0.192c-1.162,0-2.548,0.118-2.548,1.312c0,0.714,0.512,0.981,1.13,0.981c1.577,0,1.61-1.375,1.61-1.962V51.963z"
			/>
		<path fill="#0D0E0E" d="M98.012,54.138l3.273-4.297H98.14v-0.576h3.923v0.576l-3.272,4.285h3.272v0.576h-4.05V54.138z"/>
		<path fill="#0D0E0E" d="M104.749,47.816h-0.672v-0.895h0.672V47.816z M104.078,49.266h0.672v5.437h-0.672V49.266z"/>
		<path fill="#0D0E0E" d="M111.517,53.423c0,0.416,0,0.842,0.043,1.279h-0.651v-0.97h-0.021c-0.224,0.49-0.629,1.097-1.759,1.097
			c-1.343,0-1.855-0.895-1.855-2.089v-3.475h0.672v3.305c0,1.024,0.363,1.685,1.29,1.685c1.226,0,1.609-1.077,1.609-1.983v-3.006
			h0.671V53.423z"/>
		<path fill="#0D0E0E" d="M114.033,50.545c0-0.416,0-0.842-0.042-1.28h0.65v0.97h0.021c0.223-0.49,0.628-1.098,1.758-1.098
			c1.344,0,1.855,0.896,1.855,2.089v3.475h-0.672v-3.305c0-1.023-0.362-1.684-1.289-1.684c-1.226,0-1.61,1.077-1.61,1.982v3.006
			h-0.672V50.545z"/>
		<path fill="#0D0E0E" d="M124.064,53.914c0.405,0.203,0.895,0.341,1.418,0.341c0.64,0,1.204-0.352,1.204-0.97
			c0-1.29-2.612-1.087-2.612-2.665c0-1.077,0.874-1.482,1.77-1.482c0.288,0,0.864,0.064,1.343,0.245l-0.064,0.586
			c-0.352-0.16-0.831-0.256-1.204-0.256c-0.693,0-1.173,0.213-1.173,0.906c0,1.013,2.675,0.885,2.675,2.665
			c0,1.152-1.077,1.545-1.897,1.545c-0.522,0-1.045-0.064-1.524-0.255L124.064,53.914z"/>
		<path fill="#0D0E0E" d="M131.344,54.703h-0.789l-1.844-5.437h0.736l1.503,4.702h0.021l1.578-4.702h0.703L131.344,54.703z"/>
		<path fill="#0D0E0E" d="M135.694,47.816h-0.671v-0.895h0.671V47.816z M135.022,49.266h0.671v5.437h-0.671V49.266z"/>
		<path fill="#0D0E0E" d="M137.719,54.138l3.273-4.297h-3.145v-0.576h3.923v0.576l-3.272,4.285h3.272v0.576h-4.05V54.138z"/>
		<path fill="#0D0E0E" d="M143.784,50.481c0-0.597,0-0.821-0.042-1.215h0.672v1.045h0.021c0.245-0.607,0.704-1.172,1.397-1.172
			c0.16,0,0.352,0.032,0.469,0.064v0.704c-0.139-0.043-0.32-0.064-0.49-0.064c-1.066,0-1.354,1.194-1.354,2.175v2.687h-0.672V50.481
			z"/>
		<path fill="#0D0E0E" d="M151.288,53.828h-0.021c-0.298,0.65-1.055,1.002-1.727,1.002c-1.546,0-1.79-1.045-1.79-1.535
			c0-1.822,1.94-1.908,3.347-1.908h0.128V51.11c0-0.927-0.331-1.396-1.237-1.396c-0.565,0-1.098,0.128-1.599,0.447v-0.65
			c0.416-0.203,1.119-0.373,1.599-0.373c1.343,0,1.908,0.608,1.908,2.026v2.399c0,0.437,0,0.767,0.053,1.14h-0.661V53.828z
			 M151.225,51.963h-0.192c-1.162,0-2.548,0.118-2.548,1.312c0,0.714,0.512,0.981,1.13,0.981c1.577,0,1.61-1.375,1.61-1.962V51.963z
			"/>
	</g>
	<g>
		<path fill="#FF0000" d="M30.989,2.827c0,0-5.638-2.469-15.077-2.469h-0.003C6.469,0.358,0.83,2.827,0.83,2.827
			S0.325,13.76,2.465,19.942c3.78,10.87,13.442,13.923,13.442,13.923h0.003h0.003c0,0,9.66-3.053,13.442-13.923
			C31.495,13.76,30.989,2.827,30.989,2.827z"/>
	</g>
	<polygon fill="#FFFFFF" points="25.93,12.252 25.93,18.276 18.902,18.276 18.902,25.304 12.878,25.304 12.878,18.276 5.85,18.276
		5.85,12.252 12.878,12.252 12.878,5.226 18.901,5.226 18.902,12.252 	"/>
</g>
</svg>
