<?xml version="1.0" encoding="utf-8"?>
<!-- Generator: Adobe Illustrator 17.0.0, SVG Export Plug-In . SVG Version: 6.00 Build 0)  -->
<!DOCTYPE svg PUBLIC "-//W3C//DTD SVG 1.1//EN" "http://www.w3.org/Graphics/SVG/1.1/DTD/svg11.dtd">
<svg version="1.1" id="Ebene_1" xmlns="http://www.w3.org/2000/svg" xmlns:xlink="http://www.w3.org/1999/xlink" x="0px" y="0px"
	 width="246px" height="61px" viewBox="-36.309 -2.434 246 61" enable-background="new -36.309 -2.434 246 61" xml:space="preserve"
	>
<g>
	<path d="M11.223,7.621c0.483,0.306,1.046,0.483,1.811,0.483c1.011,0,1.845-0.517,1.845-1.682c0-1.61-3.761-1.811-3.761-3.962
		c0-1.317,1.151-2.14,2.598-2.14c0.4,0,1.046,0.058,1.61,0.27l-0.129,0.742c-0.365-0.199-0.942-0.306-1.494-0.306
		c-0.847,0-1.775,0.353-1.775,1.411c0,1.646,3.763,1.659,3.763,4.057c0,1.657-1.422,2.317-2.692,2.317
		c-0.8,0-1.424-0.165-1.858-0.354L11.223,7.621z"/>
	<path d="M22.064,3.469c-0.4-0.176-0.881-0.306-1.282-0.306c-1.446,0-2.258,1.047-2.258,2.505c0,1.364,0.823,2.505,2.176,2.505
		c0.47,0,0.905-0.105,1.351-0.271l0.071,0.695c-0.505,0.176-0.975,0.212-1.54,0.212c-1.928,0-2.869-1.471-2.869-3.14
		c0-1.847,1.188-3.139,2.963-3.139c0.718,0,1.235,0.165,1.446,0.235L22.064,3.469z"/>
	<path d="M24.298-0.152h0.742v3.833h0.024c0.318-0.658,0.988-1.152,1.869-1.152c1.612,0,2.048,1.071,2.048,2.551v3.587h-0.742V5.092
		c0-1.035-0.201-1.928-1.424-1.928c-1.317,0-1.775,1.246-1.775,2.294v3.209h-0.742V-0.152z"/>
	<path d="M37.914,8.666h-0.892L35.387,3.48h-0.024l-1.635,5.186h-0.894L30.906,2.67h0.812l1.576,5.185h0.024l1.67-5.185h0.894
		l1.587,5.185h0.024L39.15,2.67h0.74L37.914,8.666z"/>
	<path d="M45.84,8.478c-0.517,0.212-1.187,0.329-1.74,0.329c-1.988,0-2.728-1.34-2.728-3.14c0-1.834,1.011-3.139,2.527-3.139
		c1.693,0,2.388,1.364,2.388,2.974v0.376h-4.104c0,1.271,0.682,2.294,1.975,2.294c0.541,0,1.329-0.224,1.682-0.447
		C45.84,7.726,45.84,8.478,45.84,8.478z M45.474,5.244c0-1.046-0.423-2.082-1.529-2.082c-1.093,0-1.764,1.094-1.764,2.082H45.474z"
		/>
	<path d="M49.355,1.07h-0.742V0.083h0.742V1.07z M48.615,2.67h0.742v5.997h-0.742V2.67z"/>
	<path d="M51.589,8.044L55.2,3.306h-3.47V2.671h4.327v0.635l-3.609,4.727h3.609v0.635h-4.468V8.044z"/>
	<path d="M62.3,8.478c-0.517,0.212-1.187,0.329-1.739,0.329c-1.988,0-2.728-1.34-2.728-3.14c0-1.834,1.011-3.139,2.527-3.139
		c1.693,0,2.386,1.364,2.386,2.974v0.376h-4.103c0,1.271,0.682,2.294,1.975,2.294c0.541,0,1.329-0.224,1.681-0.447
		C62.3,7.726,62.3,8.478,62.3,8.478z M61.936,5.244c0-1.046-0.423-2.082-1.529-2.082c-1.094,0-1.764,1.094-1.764,2.082H61.936z"/>
	<path d="M65.076,4.01c0-0.658,0-0.905-0.047-1.339h0.742v1.151h0.024c0.27-0.669,0.776-1.293,1.54-1.293
		c0.177,0,0.389,0.034,0.517,0.071v0.776c-0.154-0.047-0.353-0.071-0.541-0.071c-1.176,0-1.493,1.317-1.493,2.399v2.963h-0.742V4.01
		z"/>
	<path d="M70.648,1.07h-0.742V0.083h0.742V1.07z M69.908,2.67h0.742v5.997h-0.742V2.67z"/>
	<path d="M72.978,7.796c0.447,0.224,0.988,0.376,1.563,0.376c0.705,0,1.329-0.389,1.329-1.071c0-1.422-2.88-1.199-2.88-2.94
		c0-1.188,0.964-1.634,1.952-1.634c0.318,0,0.952,0.071,1.482,0.27l-0.071,0.648c-0.389-0.177-0.917-0.282-1.329-0.282
		c-0.764,0-1.293,0.235-1.293,1c0,1.118,2.952,0.977,2.952,2.94c0,1.27-1.188,1.706-2.093,1.706c-0.577,0-1.152-0.071-1.682-0.284
		L72.978,7.796z"/>
	<path d="M82.83,3.469c-0.4-0.176-0.881-0.306-1.281-0.306c-1.445,0-2.258,1.047-2.258,2.505c0,1.364,0.823,2.505,2.175,2.505
		c0.47,0,0.906-0.105,1.353-0.271l0.071,0.695c-0.505,0.176-0.977,0.212-1.54,0.212c-1.928,0-2.869-1.471-2.869-3.14
		c0-1.847,1.187-3.139,2.963-3.139c0.718,0,1.235,0.165,1.447,0.235L82.83,3.469z"/>
	<path d="M85.064-0.152h0.74v3.833h0.025c0.317-0.658,0.988-1.152,1.869-1.152c1.61,0,2.046,1.071,2.046,2.551v3.587h-0.742V5.092
		c0-1.035-0.199-1.928-1.422-1.928c-1.317,0-1.776,1.246-1.776,2.294v3.209h-0.74C85.064,8.667,85.064-0.152,85.064-0.152z"/>
	<path d="M96.54,8.478c-0.517,0.212-1.187,0.329-1.739,0.329c-1.988,0-2.728-1.34-2.728-3.14c0-1.834,1.011-3.139,2.527-3.139
		c1.693,0,2.386,1.364,2.386,2.974v0.376h-4.103c0,1.271,0.682,2.294,1.975,2.294c0.541,0,1.329-0.224,1.681-0.447
		C96.54,7.726,96.54,8.478,96.54,8.478z M96.177,5.244c0-1.046-0.423-2.082-1.529-2.082c-1.094,0-1.764,1.094-1.764,2.082H96.177z"
		/>
	<path d="M103.584,0.459h4.021v0.706h-3.209v2.929h3.045V4.8h-3.045v3.164h3.35V8.67h-4.162
		C103.584,8.668,103.584,0.459,103.584,0.459z"/>
	<path d="M111.039,1.07h-0.74V0.083h0.74V1.07z M110.298,2.67h0.74v5.997h-0.74V2.67z"/>
	<path d="M118.576,8.666h-0.742V7.715h-0.024c-0.4,0.764-1.011,1.094-1.869,1.094c-1.646,0-2.469-1.364-2.469-3.14
		c0-1.822,0.705-3.139,2.469-3.139c1.176,0,1.764,0.858,1.869,1.152h0.024v-3.835h0.742V8.666z M116.059,8.173
		c1.317,0,1.775-1.411,1.775-2.505s-0.458-2.505-1.775-2.505c-1.411,0-1.776,1.34-1.776,2.505
		C114.283,6.832,114.648,8.173,116.059,8.173z"/>
	<path d="M126.03,8.173c0,1.67-0.753,3.034-2.809,3.034c-0.789,0-1.505-0.224-1.811-0.318l0.06-0.742
		c0.458,0.235,1.116,0.425,1.764,0.425c1.905,0,2.069-1.388,2.069-3.081h-0.024c-0.4,0.87-1.058,1.176-1.823,1.176
		c-1.916,0-2.529-1.67-2.529-2.999c0-1.822,0.705-3.139,2.469-3.139c0.8,0,1.317,0.105,1.869,0.823h0.024V2.67h0.742v5.503H126.03z
		 M123.467,8.031c1.34,0,1.823-1.271,1.823-2.364c0-1.446-0.423-2.505-1.775-2.505c-1.411,0-1.776,1.34-1.776,2.505
		C121.738,6.843,122.21,8.031,123.467,8.031z"/>
	<path d="M132.756,8.478c-0.517,0.212-1.187,0.329-1.74,0.329c-1.988,0-2.728-1.34-2.728-3.14c0-1.834,1.011-3.139,2.527-3.139
		c1.693,0,2.388,1.364,2.388,2.974v0.376h-4.104c0,1.271,0.682,2.294,1.975,2.294c0.541,0,1.329-0.224,1.682-0.447V8.478z
		 M132.393,5.244c0-1.046-0.423-2.082-1.529-2.082c-1.093,0-1.764,1.094-1.764,2.082H132.393z"/>
	<path d="M135.531,4.081c0-0.458,0-0.928-0.047-1.409h0.718V3.74h0.024c0.248-0.541,0.693-1.21,1.939-1.21
		c1.482,0,2.048,0.988,2.048,2.305v3.833h-0.742V5.023c0-1.129-0.4-1.859-1.424-1.859c-1.353,0-1.775,1.188-1.775,2.189v3.316
		h-0.742C135.531,8.668,135.531,4.081,135.531,4.081z"/>
	<path d="M145.325,2.529c1.941,0,2.799,1.505,2.799,3.139s-0.858,3.14-2.799,3.14c-1.939,0-2.799-1.505-2.799-3.14
		S143.386,2.529,145.325,2.529z M145.325,8.173c1.293,0,1.988-1.118,1.988-2.505s-0.693-2.505-1.988-2.505
		c-1.293,0-1.986,1.118-1.986,2.505S144.033,8.173,145.325,8.173z"/>
	<path d="M149.983,7.796c0.447,0.224,0.988,0.376,1.563,0.376c0.706,0,1.329-0.389,1.329-1.071c0-1.422-2.88-1.199-2.88-2.94
		c0-1.188,0.964-1.634,1.952-1.634c0.318,0,0.952,0.071,1.482,0.27l-0.071,0.648c-0.389-0.177-0.917-0.282-1.329-0.282
		c-0.764,0-1.293,0.235-1.293,1c0,1.118,2.952,0.977,2.952,2.94c0,1.27-1.188,1.706-2.093,1.706c-0.577,0-1.152-0.071-1.682-0.284
		L149.983,7.796z"/>
	<path d="M155.474,7.796c0.447,0.224,0.988,0.376,1.565,0.376c0.706,0,1.328-0.389,1.328-1.071c0-1.422-2.88-1.199-2.88-2.94
		c0-1.188,0.964-1.634,1.952-1.634c0.317,0,0.952,0.071,1.482,0.27l-0.071,0.648c-0.389-0.177-0.917-0.282-1.329-0.282
		c-0.765,0-1.293,0.235-1.293,1c0,1.118,2.951,0.977,2.951,2.94c0,1.27-1.187,1.706-2.093,1.706c-0.575,0-1.151-0.071-1.681-0.284
		L155.474,7.796z"/>
	<path d="M165.445,8.478c-0.517,0.212-1.188,0.329-1.74,0.329c-1.988,0-2.728-1.34-2.728-3.14c0-1.834,1.011-3.139,2.527-3.139
		c1.693,0,2.388,1.364,2.388,2.974v0.376h-4.104c0,1.271,0.684,2.294,1.975,2.294c0.541,0,1.329-0.224,1.682-0.447V8.478
		L165.445,8.478z M165.081,5.244c0-1.046-0.425-2.082-1.53-2.082c-1.093,0-1.764,1.094-1.764,2.082H165.081z"/>
	<path d="M168.22,4.081c0-0.458,0-0.928-0.047-1.409h0.718V3.74h0.024c0.248-0.541,0.695-1.21,1.941-1.21
		c1.482,0,2.046,0.988,2.046,2.305v3.833h-0.742V5.023c0-1.129-0.4-1.859-1.422-1.859c-1.353,0-1.776,1.188-1.776,2.189v3.316
		h-0.742V4.081L168.22,4.081z"/>
	<path d="M175.217,7.796c0.447,0.224,0.988,0.376,1.563,0.376c0.706,0,1.329-0.389,1.329-1.071c0-1.422-2.88-1.199-2.88-2.94
		c0-1.188,0.964-1.634,1.952-1.634c0.318,0,0.952,0.071,1.482,0.27l-0.071,0.648c-0.389-0.177-0.917-0.282-1.329-0.282
		c-0.764,0-1.293,0.235-1.293,1c0,1.118,2.952,0.977,2.952,2.94c0,1.27-1.188,1.706-2.093,1.706c-0.577,0-1.152-0.071-1.682-0.284
		L175.217,7.796z"/>
	<path d="M185.069,3.469c-0.4-0.176-0.881-0.306-1.281-0.306c-1.445,0-2.258,1.047-2.258,2.505c0,1.364,0.823,2.505,2.175,2.505
		c0.47,0,0.906-0.105,1.353-0.271l0.071,0.695c-0.505,0.176-0.977,0.212-1.54,0.212c-1.928,0-2.869-1.471-2.869-3.14
		c0-1.847,1.187-3.139,2.963-3.139c0.718,0,1.235,0.165,1.447,0.235L185.069,3.469z"/>
	<path d="M187.304-0.152h0.74v3.833h0.024c0.317-0.658,0.988-1.152,1.869-1.152c1.61,0,2.046,1.071,2.046,2.551v3.587h-0.742V5.092
		c0-1.035-0.199-1.928-1.424-1.928c-1.317,0-1.775,1.246-1.775,2.294v3.209h-0.74v-8.819C187.302-0.152,187.304-0.152,187.304-0.152
		z"/>
	<path d="M198.204,7.702h-0.024c-0.329,0.716-1.165,1.105-1.905,1.105c-1.704,0-1.975-1.152-1.975-1.693
		c0-2.011,2.14-2.106,3.692-2.106h0.141V4.703c0-1.022-0.364-1.54-1.364-1.54c-0.622,0-1.21,0.141-1.764,0.494V2.939
		c0.458-0.223,1.235-0.411,1.764-0.411c1.482,0,2.106,0.669,2.106,2.234v2.646c0,0.481,0,0.847,0.058,1.257h-0.729V7.702z
		 M198.133,5.645h-0.212c-1.282,0-2.811,0.129-2.811,1.446c0,0.789,0.564,1.082,1.246,1.082c1.74,0,1.776-1.518,1.776-2.164V5.645
		H198.133z"/>
	<path d="M202.06,3.305h-1.21V2.67h1.21V2.234c0-1.257,0.047-2.529,1.588-2.529c0.234,0,0.553,0.034,0.693,0.118l-0.047,0.648
		c-0.154-0.082-0.376-0.13-0.588-0.13c-1.011,0-0.905,1.093-0.905,1.811v0.517h1.351v0.635h-1.351v5.362h-0.742V3.305H202.06z"/>
	<path d="M208.974,3.305h-1.364v3.88c0,0.541,0.199,0.988,0.8,0.988c0.282,0,0.47-0.06,0.684-0.141l0.045,0.611
		c-0.176,0.071-0.541,0.165-0.905,0.165c-1.317,0-1.364-0.906-1.364-1.999V3.305h-1.176V2.67h1.176V1.223l0.742-0.259V2.67h1.364
		v0.635H208.974z"/>
</g>
<g>
	<path d="M17.079,17.604c-0.517-0.271-1.257-0.353-1.834-0.353c-2.129,0-3.328,1.505-3.328,3.539c0,2.069,1.163,3.54,3.328,3.54
		c0.541,0,1.364-0.071,1.834-0.353l0.047,0.706c-0.447,0.271-1.364,0.354-1.881,0.354c-2.587,0-4.139-1.706-4.139-4.246
		c0-2.493,1.599-4.244,4.139-4.244c0.481,0,1.458,0.082,1.881,0.304L17.079,17.604z"/>
	<path d="M22.464,18.757c1.939,0,2.799,1.505,2.799,3.139s-0.859,3.14-2.799,3.14c-1.941,0-2.799-1.505-2.799-3.14
		C19.665,20.26,20.523,18.757,22.464,18.757z M22.464,24.401c1.293,0,1.988-1.118,1.988-2.505s-0.695-2.505-1.988-2.505
		s-1.988,1.118-1.988,2.505S21.17,24.401,22.464,24.401z"/>
	<path d="M27.58,20.307c0-0.458,0-0.928-0.047-1.409h0.718v1.069h0.024c0.246-0.541,0.693-1.21,1.939-1.21
		c1.482,0,2.046,0.988,2.046,2.305v3.833h-0.742V21.25c0-1.129-0.4-1.859-1.424-1.859c-1.351,0-1.775,1.188-1.775,2.189v3.316h-0.74
		v-4.589H27.58z"/>
	<path d="M35.539,19.533h-1.21v-0.635h1.21v-0.436c0-1.257,0.047-2.529,1.588-2.529c0.234,0,0.553,0.034,0.693,0.118l-0.047,0.648
		c-0.154-0.082-0.376-0.13-0.588-0.13c-1.011,0-0.905,1.093-0.905,1.811v0.517h1.351v0.635H36.28v5.362h-0.742
		C35.539,24.893,35.539,19.533,35.539,19.533z"/>
	<path d="M43.888,24.707c-0.517,0.212-1.188,0.329-1.74,0.329c-1.988,0-2.728-1.34-2.728-3.14c0-1.834,1.011-3.139,2.527-3.139
		c1.693,0,2.388,1.364,2.388,2.974v0.376H40.23c0,1.271,0.684,2.294,1.975,2.294c0.541,0,1.329-0.224,1.682-0.447
		C43.888,23.954,43.888,24.707,43.888,24.707z M43.524,21.472c0-1.046-0.425-2.082-1.53-2.082c-1.093,0-1.764,1.094-1.764,2.082
		H43.524z M42.289,16.581h0.93l-1.482,1.693h-0.541L42.289,16.581z"/>
	<path d="M51.413,24.895h-0.742v-0.952h-0.024c-0.4,0.764-1.013,1.094-1.869,1.094c-1.646,0-2.469-1.364-2.469-3.14
		c0-1.822,0.706-3.139,2.469-3.139c1.176,0,1.764,0.858,1.869,1.152h0.024v-3.833h0.742V24.895z M48.897,24.401
		c1.317,0,1.775-1.411,1.775-2.505s-0.458-2.505-1.775-2.505c-1.411,0-1.775,1.34-1.775,2.505
		C47.122,23.06,47.486,24.401,48.897,24.401z"/>
	<path d="M58.139,24.707c-0.517,0.212-1.188,0.329-1.74,0.329c-1.988,0-2.728-1.34-2.728-3.14c0-1.834,1.011-3.139,2.527-3.139
		c1.693,0,2.388,1.364,2.388,2.974v0.376h-4.104c0,1.271,0.684,2.294,1.975,2.294c0.541,0,1.329-0.224,1.682-0.447
		C58.139,23.954,58.139,24.707,58.139,24.707z M57.775,21.472c0-1.046-0.425-2.082-1.53-2.082c-1.093,0-1.764,1.094-1.764,2.082
		H57.775z M56.538,16.581h0.93l-1.482,1.693h-0.541L56.538,16.581z"/>
	<path d="M60.914,20.237c0-0.658,0-0.905-0.047-1.339h0.74v1.151h0.024c0.27-0.669,0.776-1.293,1.54-1.293
		c0.176,0,0.389,0.034,0.517,0.071v0.776c-0.154-0.047-0.353-0.071-0.541-0.071c-1.176,0-1.494,1.317-1.494,2.399v2.963h-0.74
		v-4.656h0.001C60.914,20.238,60.914,20.237,60.914,20.237z"/>
	<path d="M69.192,23.931h-0.024c-0.329,0.716-1.165,1.105-1.905,1.105c-1.704,0-1.975-1.152-1.975-1.693
		c0-2.011,2.14-2.106,3.692-2.106h0.141v-0.306c0-1.022-0.364-1.54-1.364-1.54c-0.622,0-1.21,0.141-1.764,0.494v-0.718
		c0.458-0.223,1.235-0.411,1.764-0.411c1.482,0,2.106,0.669,2.106,2.234v2.646c0,0.481,0,0.847,0.058,1.257h-0.729
		C69.192,24.895,69.192,23.931,69.192,23.931z M69.121,21.872H68.91c-1.282,0-2.811,0.129-2.811,1.446
		c0,0.789,0.564,1.082,1.246,1.082c1.74,0,1.776-1.518,1.776-2.164C69.121,22.236,69.121,21.872,69.121,21.872z"/>
	<path d="M75.129,19.533h-1.364v3.88c0,0.541,0.199,0.988,0.8,0.988c0.282,0,0.47-0.06,0.682-0.141l0.047,0.611
		c-0.176,0.071-0.541,0.165-0.906,0.165c-1.317,0-1.364-0.906-1.364-1.999v-3.504h-1.176v-0.635h1.176v-1.447l0.742-0.259v1.706
		h1.364C75.129,18.898,75.129,19.533,75.129,19.533z"/>
	<path d="M78.116,17.297h-0.742v-0.988h0.742V17.297z M77.374,18.898h0.742v5.997h-0.742V18.898z"/>
	<path d="M83.242,18.757c1.941,0,2.799,1.505,2.799,3.139s-0.858,3.14-2.799,3.14s-2.799-1.505-2.799-3.14
		C80.444,20.26,81.301,18.757,83.242,18.757z M83.242,24.401c1.293,0,1.988-1.118,1.988-2.505s-0.695-2.505-1.988-2.505
		s-1.988,1.118-1.988,2.505S81.949,24.401,83.242,24.401z"/>
	<path d="M88.357,20.307c0-0.458,0-0.928-0.047-1.409h0.718v1.069h0.024c0.248-0.541,0.695-1.21,1.941-1.21
		c1.482,0,2.046,0.988,2.046,2.305v3.833h-0.742V21.25c0-1.129-0.4-1.859-1.422-1.859c-1.353,0-1.776,1.188-1.776,2.189v3.316
		h-0.742L88.357,20.307L88.357,20.307z"/>
	<path d="M99.54,24.023c0.447,0.224,0.988,0.376,1.565,0.376c0.705,0,1.328-0.389,1.328-1.071c0-1.422-2.88-1.199-2.88-2.94
		c0-1.188,0.964-1.634,1.952-1.634c0.318,0,0.952,0.071,1.482,0.27l-0.071,0.647c-0.387-0.177-0.917-0.282-1.329-0.282
		c-0.764,0-1.293,0.235-1.293,1c0,1.118,2.951,0.977,2.951,2.94c0,1.27-1.187,1.706-2.093,1.706c-0.575,0-1.152-0.071-1.681-0.284
		L99.54,24.023z"/>
	<path d="M110.169,23.484c0,0.458,0,0.928,0.045,1.411h-0.716v-1.071h-0.024c-0.248,0.541-0.693,1.212-1.941,1.212
		c-1.482,0-2.046-0.988-2.046-2.306v-3.832h0.742v3.645c0,1.129,0.4,1.858,1.422,1.858c1.351,0,1.776-1.188,1.776-2.187v-3.316
		h0.742L110.169,23.484L110.169,23.484z"/>
	<path d="M113.686,17.297h-0.742v-0.988h0.742V17.297z M112.944,18.898h0.742v5.997h-0.742V18.898z"/>
	<path d="M116.012,24.023c0.447,0.224,0.988,0.376,1.565,0.376c0.705,0,1.329-0.389,1.329-1.071c0-1.422-2.882-1.199-2.882-2.94
		c0-1.188,0.964-1.634,1.952-1.634c0.318,0,0.952,0.071,1.482,0.27l-0.071,0.647c-0.389-0.177-0.917-0.282-1.328-0.282
		c-0.765,0-1.293,0.235-1.293,1c0,1.118,2.952,0.977,2.952,2.94c0,1.27-1.188,1.706-2.093,1.706c-0.577,0-1.152-0.071-1.682-0.284
		L116.012,24.023z"/>
	<path d="M121.504,24.023c0.447,0.224,0.988,0.376,1.565,0.376c0.706,0,1.328-0.389,1.328-1.071c0-1.422-2.88-1.199-2.88-2.94
		c0-1.188,0.964-1.634,1.952-1.634c0.318,0,0.952,0.071,1.482,0.27l-0.071,0.647c-0.387-0.177-0.917-0.282-1.329-0.282
		c-0.764,0-1.293,0.235-1.293,1c0,1.118,2.951,0.977,2.951,2.94c0,1.27-1.187,1.706-2.093,1.706c-0.575,0-1.152-0.071-1.681-0.284
		L121.504,24.023z"/>
	<path d="M131.475,24.707c-0.517,0.212-1.187,0.329-1.74,0.329c-1.988,0-2.728-1.34-2.728-3.14c0-1.834,1.011-3.139,2.527-3.139
		c1.693,0,2.388,1.364,2.388,2.974v0.376h-4.104c0,1.271,0.682,2.294,1.975,2.294c0.541,0,1.329-0.224,1.682-0.447V24.707z
		 M131.11,21.472c0-1.046-0.423-2.082-1.529-2.082c-1.093,0-1.764,1.094-1.764,2.082H131.11z"/>
</g>
<g>
	<path d="M17.079,33.83c-0.517-0.271-1.257-0.353-1.834-0.353c-2.129,0-3.328,1.504-3.328,3.539c0,2.069,1.163,3.54,3.328,3.54
		c0.541,0,1.364-0.071,1.834-0.354l0.047,0.707c-0.447,0.27-1.364,0.353-1.881,0.353c-2.587,0-4.139-1.706-4.139-4.246
		c0-2.493,1.599-4.246,4.139-4.246c0.481,0,1.458,0.083,1.881,0.306L17.079,33.83z"/>
	<path d="M22.464,34.982c1.939,0,2.799,1.507,2.799,3.14s-0.859,3.14-2.799,3.14c-1.941,0-2.799-1.507-2.799-3.14
		S20.523,34.982,22.464,34.982z M22.464,40.626c1.293,0,1.988-1.116,1.988-2.505c0-1.387-0.695-2.505-1.988-2.505
		s-1.988,1.118-1.988,2.505C20.476,39.51,21.17,40.626,22.464,40.626z"/>
	<path d="M27.58,36.534c0-0.459,0-0.928-0.047-1.411h0.718v1.072h0.024c0.246-0.542,0.693-1.212,1.939-1.212
		c1.482,0,2.046,0.989,2.046,2.306v3.833h-0.742v-3.647c0-1.127-0.4-1.858-1.424-1.858c-1.351,0-1.775,1.188-1.775,2.189v3.316
		h-0.74v-4.588C27.579,36.534,27.58,36.534,27.58,36.534z"/>
	<path d="M35.539,35.76h-1.21v-0.637h1.21v-0.434c0-1.259,0.047-2.526,1.588-2.526c0.234,0,0.553,0.033,0.693,0.116l-0.047,0.646
		c-0.154-0.083-0.376-0.129-0.588-0.129c-1.011,0-0.905,1.093-0.905,1.809v0.517h1.351v0.637H36.28v5.362h-0.742
		C35.539,41.121,35.539,35.76,35.539,35.76z"/>
	<path d="M43.888,40.932c-0.517,0.213-1.188,0.331-1.74,0.331c-1.988,0-2.728-1.34-2.728-3.14c0-1.834,1.011-3.14,2.527-3.14
		c1.693,0,2.388,1.366,2.388,2.976v0.376H40.23c0,1.27,0.684,2.292,1.975,2.292c0.541,0,1.329-0.224,1.682-0.447
		C43.888,40.179,43.888,40.932,43.888,40.932z M43.524,37.697c0-1.046-0.425-2.08-1.53-2.08c-1.093,0-1.764,1.094-1.764,2.08H43.524
		z"/>
	<path d="M51.413,41.121h-0.742V40.17h-0.024c-0.4,0.762-1.013,1.093-1.869,1.093c-1.646,0-2.469-1.364-2.469-3.14
		c0-1.823,0.706-3.14,2.469-3.14c1.176,0,1.764,0.859,1.869,1.152h0.024v-3.832h0.742V41.121z M48.897,40.626
		c1.317,0,1.775-1.409,1.775-2.505c0-1.093-0.458-2.505-1.775-2.505c-1.411,0-1.775,1.34-1.775,2.505
		C47.122,39.287,47.486,40.626,48.897,40.626z"/>
	<path d="M58.139,40.932c-0.517,0.213-1.188,0.331-1.74,0.331c-1.988,0-2.728-1.34-2.728-3.14c0-1.834,1.011-3.14,2.527-3.14
		c1.693,0,2.388,1.366,2.388,2.976v0.376h-4.104c0,1.27,0.684,2.292,1.975,2.292c0.541,0,1.329-0.224,1.682-0.447
		C58.139,40.179,58.139,40.932,58.139,40.932z M57.775,37.697c0-1.046-0.425-2.08-1.53-2.08c-1.093,0-1.764,1.094-1.764,2.08H57.775
		z"/>
	<path d="M60.914,36.464c0-0.658,0-0.905-0.047-1.34h0.74v1.154h0.024c0.27-0.671,0.776-1.295,1.54-1.295
		c0.176,0,0.389,0.036,0.517,0.071v0.778c-0.154-0.049-0.353-0.071-0.541-0.071c-1.176,0-1.494,1.317-1.494,2.397v2.965h-0.74
		v-4.658L60.914,36.464L60.914,36.464z"/>
	<path d="M69.192,40.156h-0.024c-0.329,0.716-1.165,1.105-1.905,1.105c-1.704,0-1.975-1.152-1.975-1.693
		c0-2.011,2.14-2.106,3.692-2.106h0.141v-0.304c0-1.024-0.364-1.541-1.364-1.541c-0.622,0-1.21,0.143-1.764,0.494v-0.716
		c0.458-0.224,1.235-0.414,1.764-0.414c1.482,0,2.106,0.671,2.106,2.236v2.646c0,0.481,0,0.845,0.058,1.259h-0.729
		C69.192,41.121,69.192,40.156,69.192,40.156z M69.121,38.099H68.91c-1.282,0-2.811,0.129-2.811,1.446
		c0,0.789,0.564,1.082,1.246,1.082c1.74,0,1.776-1.518,1.776-2.164C69.121,38.463,69.121,38.099,69.121,38.099z"/>
	<path d="M71.99,40.496l3.609-4.736h-3.468v-0.637h4.327v0.637l-3.609,4.727h3.609v0.635H71.99
		C71.99,41.121,71.99,40.496,71.99,40.496z"/>
	<path d="M79.422,33.524h-0.74v-0.988h0.74V33.524z M78.68,35.123h0.74v5.998h-0.74V35.123z"/>
	<path d="M84.548,34.982c1.939,0,2.799,1.507,2.799,3.14s-0.859,3.14-2.799,3.14c-1.941,0-2.799-1.507-2.799-3.14
		S82.607,34.982,84.548,34.982z M84.548,40.626c1.293,0,1.988-1.116,1.988-2.505c0-1.387-0.695-2.505-1.988-2.505
		s-1.988,1.118-1.988,2.505C82.56,39.51,83.253,40.626,84.548,40.626z"/>
	<path d="M89.662,36.534c0-0.459,0-0.928-0.047-1.411h0.718v1.072h0.024c0.246-0.542,0.693-1.212,1.939-1.212
		c1.482,0,2.046,0.989,2.046,2.306v3.833H93.6v-3.647c0-1.127-0.4-1.858-1.424-1.858c-1.351,0-1.775,1.188-1.775,2.189v3.316h-0.74
		C89.662,41.123,89.662,36.534,89.662,36.534z"/>
	<path d="M101.139,40.932c-0.517,0.213-1.187,0.331-1.739,0.331c-1.988,0-2.728-1.34-2.728-3.14c0-1.834,1.011-3.14,2.527-3.14
		c1.693,0,2.386,1.366,2.386,2.976v0.376h-4.103c0,1.27,0.682,2.292,1.975,2.292c0.541,0,1.329-0.224,1.681-0.447
		C101.139,40.179,101.139,40.932,101.139,40.932z M100.773,37.697c0-1.046-0.423-2.08-1.529-2.08c-1.094,0-1.764,1.094-1.764,2.08
		H100.773z"/>
	<path d="M107.959,40.074c0.483,0.306,1.046,0.483,1.811,0.483c1.011,0,1.845-0.517,1.845-1.682c0-1.61-3.761-1.809-3.761-3.962
		c0-1.317,1.151-2.14,2.598-2.14c0.4,0,1.046,0.06,1.61,0.273l-0.129,0.74c-0.365-0.201-0.942-0.304-1.494-0.304
		c-0.847,0-1.775,0.353-1.775,1.409c0,1.646,3.763,1.659,3.763,4.056c0,1.66-1.422,2.319-2.692,2.319
		c-0.8,0-1.424-0.165-1.858-0.353L107.959,40.074z"/>
	<path d="M116.976,41.121h-0.87l-2.035-5.998h0.812l1.659,5.188h0.024l1.74-5.188h0.776L116.976,41.121z"/>
	<path d="M121.774,33.524h-0.74v-0.988h0.74V33.524z M121.034,35.123h0.74v5.998h-0.74V35.123z"/>
	<path d="M124.01,40.496l3.609-4.736h-3.468v-0.637h4.327v0.637l-3.609,4.727h3.609v0.635h-4.468
		C124.01,41.121,124.01,40.496,124.01,40.496z"/>
	<path d="M130.146,40.496l3.609-4.736h-3.468v-0.637h4.327v0.637l-3.611,4.727h3.611v0.635h-4.468
		C130.146,41.121,130.146,40.496,130.146,40.496z"/>
	<path d="M140.859,40.932c-0.517,0.213-1.188,0.331-1.74,0.331c-1.988,0-2.728-1.34-2.728-3.14c0-1.834,1.011-3.14,2.529-3.14
		c1.693,0,2.386,1.366,2.386,2.976v0.376h-4.104c0,1.27,0.682,2.292,1.975,2.292c0.541,0,1.329-0.224,1.681-0.447v0.753h0.001
		L140.859,40.932L140.859,40.932z M140.493,37.697c0-1.046-0.423-2.08-1.529-2.08c-1.094,0-1.764,1.094-1.764,2.08H140.493z"/>
	<path d="M143.634,36.464c0-0.658,0-0.905-0.047-1.34h0.74v1.154h0.024c0.27-0.671,0.776-1.295,1.54-1.295
		c0.176,0,0.389,0.036,0.517,0.071v0.778c-0.154-0.049-0.353-0.071-0.541-0.071c-1.176,0-1.494,1.317-1.494,2.397v2.965h-0.74
		v-4.658L143.634,36.464L143.634,36.464z"/>
	<path d="M151.91,40.156h-0.024c-0.329,0.716-1.165,1.105-1.905,1.105c-1.704,0-1.975-1.152-1.975-1.693
		c0-2.011,2.14-2.106,3.692-2.106h0.141v-0.304c0-1.024-0.364-1.541-1.364-1.541c-0.622,0-1.21,0.143-1.764,0.494v-0.716
		c0.458-0.224,1.235-0.414,1.764-0.414c1.482,0,2.106,0.671,2.106,2.236v2.646c0,0.481,0,0.845,0.058,1.259h-0.729V40.156z
		 M151.841,38.099h-0.212c-1.282,0-2.811,0.129-2.811,1.446c0,0.789,0.564,1.082,1.246,1.082c1.74,0,1.776-1.518,1.776-2.164v-0.364
		H151.841z"/>
</g>
<g>
	<path d="M17.079,50.056c-0.517-0.271-1.257-0.353-1.834-0.353c-2.129,0-3.328,1.504-3.328,3.539c0,2.069,1.163,3.54,3.328,3.54
		c0.541,0,1.364-0.071,1.834-0.354l0.047,0.707c-0.447,0.27-1.364,0.353-1.881,0.353c-2.587,0-4.139-1.706-4.139-4.246
		c0-2.493,1.599-4.246,4.139-4.246c0.481,0,1.458,0.083,1.881,0.306L17.079,50.056z"/>
	<path d="M22.464,51.207c1.939,0,2.799,1.507,2.799,3.14c0,1.634-0.859,3.14-2.799,3.14c-1.941,0-2.799-1.507-2.799-3.14
		S20.523,51.207,22.464,51.207z M22.464,56.853c1.293,0,1.988-1.116,1.988-2.505c0-1.387-0.695-2.505-1.988-2.505
		s-1.988,1.118-1.988,2.505C20.476,55.736,21.17,56.853,22.464,56.853z"/>
	<path d="M27.58,52.761c0-0.459,0-0.928-0.047-1.411h0.718v1.072h0.024c0.246-0.542,0.693-1.212,1.939-1.212
		c1.482,0,2.046,0.989,2.046,2.306v3.833h-0.742v-3.647c0-1.127-0.4-1.858-1.424-1.858c-1.351,0-1.775,1.188-1.775,2.189v3.316
		h-0.74v-4.588C27.579,52.761,27.58,52.761,27.58,52.761z"/>
	<path d="M35.539,51.985h-1.21v-0.637h1.21v-0.434c0-1.259,0.047-2.526,1.588-2.526c0.234,0,0.553,0.033,0.693,0.116l-0.047,0.646
		c-0.154-0.083-0.376-0.129-0.588-0.129c-1.011,0-0.905,1.093-0.905,1.809v0.517h1.351v0.637H36.28v5.362h-0.742
		C35.539,57.347,35.539,51.985,35.539,51.985z"/>
	<path d="M43.888,57.157c-0.517,0.213-1.188,0.331-1.74,0.331c-1.988,0-2.728-1.34-2.728-3.14c0-1.834,1.011-3.14,2.527-3.14
		c1.693,0,2.388,1.366,2.388,2.976v0.376H40.23c0,1.27,0.684,2.292,1.975,2.292c0.541,0,1.329-0.224,1.682-0.447
		C43.888,56.404,43.888,57.157,43.888,57.157z M43.524,53.924c0-1.046-0.425-2.08-1.53-2.08c-1.093,0-1.764,1.094-1.764,2.08
		C40.23,53.924,43.524,53.924,43.524,53.924z"/>
	<path d="M51.413,57.347h-0.742v-0.952h-0.024c-0.4,0.762-1.013,1.093-1.869,1.093c-1.646,0-2.469-1.364-2.469-3.14
		c0-1.823,0.706-3.14,2.469-3.14c1.176,0,1.764,0.859,1.869,1.152h0.024v-3.832h0.742V57.347z M48.897,56.853
		c1.317,0,1.775-1.409,1.775-2.505c0-1.093-0.458-2.505-1.775-2.505c-1.411,0-1.775,1.34-1.775,2.505
		C47.122,55.512,47.486,56.853,48.897,56.853z"/>
	<path d="M58.139,57.157c-0.517,0.213-1.188,0.331-1.74,0.331c-1.988,0-2.728-1.34-2.728-3.14c0-1.834,1.011-3.14,2.527-3.14
		c1.693,0,2.388,1.366,2.388,2.976v0.376h-4.104c0,1.27,0.684,2.292,1.975,2.292c0.541,0,1.329-0.224,1.682-0.447
		C58.139,56.404,58.139,57.157,58.139,57.157z M57.775,53.924c0-1.046-0.425-2.08-1.53-2.08c-1.093,0-1.764,1.094-1.764,2.08
		C54.481,53.924,57.775,53.924,57.775,53.924z"/>
	<path d="M60.914,52.69c0-0.658,0-0.905-0.047-1.34h0.74v1.154h0.024c0.27-0.671,0.776-1.295,1.54-1.295
		c0.176,0,0.389,0.036,0.517,0.071v0.778c-0.154-0.049-0.353-0.071-0.541-0.071c-1.176,0-1.494,1.317-1.494,2.397v2.965h-0.74V52.69
		H60.914z"/>
	<path d="M69.192,56.382h-0.024c-0.329,0.716-1.165,1.105-1.905,1.105c-1.704,0-1.975-1.152-1.975-1.693
		c0-2.011,2.14-2.106,3.692-2.106h0.141v-0.304c0-1.024-0.364-1.541-1.364-1.541c-0.622,0-1.21,0.143-1.764,0.494v-0.716
		c0.458-0.224,1.235-0.414,1.764-0.414c1.482,0,2.106,0.671,2.106,2.236v2.646c0,0.481,0,0.845,0.058,1.259h-0.729
		C69.192,57.348,69.192,56.382,69.192,56.382z M69.121,54.325H68.91c-1.282,0-2.811,0.129-2.811,1.446
		c0,0.789,0.564,1.082,1.246,1.082c1.74,0,1.776-1.518,1.776-2.164C69.121,54.689,69.121,54.325,69.121,54.325z"/>
	<path d="M71.99,56.723l3.609-4.736h-3.468V51.35h4.327v0.637l-3.609,4.727h3.609v0.635H71.99
		C71.99,57.348,71.99,56.723,71.99,56.723z"/>
	<path d="M79.422,49.751h-0.74v-0.988h0.74V49.751z M78.68,51.348h0.74v5.998h-0.74V51.348z"/>
	<path d="M86.887,55.936c0,0.459,0,0.928,0.047,1.411h-0.718v-1.072h-0.024c-0.246,0.542-0.693,1.212-1.939,1.212
		c-1.482,0-2.046-0.989-2.046-2.306v-3.833h0.74v3.647c0,1.129,0.4,1.858,1.424,1.858c1.353,0,1.775-1.187,1.775-2.189v-3.316h0.742
		L86.887,55.936L86.887,55.936z"/>
	<path d="M89.662,52.761c0-0.459,0-0.928-0.047-1.411h0.718v1.072h0.024c0.246-0.542,0.693-1.212,1.939-1.212
		c1.482,0,2.046,0.989,2.046,2.306v3.833H93.6v-3.647c0-1.127-0.4-1.858-1.424-1.858c-1.351,0-1.775,1.188-1.775,2.189v3.316h-0.74
		C89.662,57.35,89.662,52.761,89.662,52.761z"/>
	<path d="M100.846,56.476c0.447,0.224,0.988,0.376,1.565,0.376c0.705,0,1.329-0.387,1.329-1.071c0-1.422-2.882-1.201-2.882-2.94
		c0-1.188,0.964-1.635,1.952-1.635c0.318,0,0.952,0.071,1.482,0.271l-0.071,0.647c-0.389-0.177-0.917-0.284-1.328-0.284
		c-0.765,0-1.293,0.235-1.293,1c0,1.118,2.952,0.977,2.952,2.94c0,1.271-1.188,1.706-2.093,1.706c-0.577,0-1.152-0.071-1.682-0.282
		L100.846,56.476z"/>
	<path d="M108.876,57.347h-0.87l-2.033-5.998h0.812l1.659,5.188h0.024l1.74-5.188h0.776L108.876,57.347z"/>
	<path d="M113.673,49.751h-0.742v-0.988h0.742V49.751z M112.932,51.348h0.742v5.998h-0.742V51.348z"/>
	<path d="M115.907,56.723l3.611-4.736h-3.468V51.35h4.327v0.637l-3.611,4.727h3.611v0.635h-4.47
		C115.907,57.348,115.907,56.723,115.907,56.723z"/>
	<path d="M122.597,52.69c0-0.658,0-0.905-0.047-1.34h0.742v1.154h0.024c0.27-0.671,0.776-1.295,1.54-1.295
		c0.177,0,0.389,0.036,0.517,0.071v0.778c-0.154-0.049-0.353-0.071-0.541-0.071c-1.176,0-1.493,1.317-1.493,2.397v2.965h-0.742
		C122.597,57.349,122.597,52.69,122.597,52.69z"/>
	<path d="M130.875,56.382h-0.025c-0.329,0.716-1.163,1.105-1.905,1.105c-1.704,0-1.975-1.152-1.975-1.693
		c0-2.011,2.14-2.106,3.692-2.106h0.141v-0.304c0-1.024-0.365-1.541-1.364-1.541c-0.622,0-1.21,0.143-1.764,0.494v-0.716
		c0.458-0.224,1.234-0.414,1.764-0.414c1.482,0,2.104,0.671,2.104,2.236v2.646c0,0.481,0,0.845,0.06,1.259h-0.729L130.875,56.382
		C130.874,56.382,130.875,56.382,130.875,56.382z M130.806,54.325h-0.212c-1.282,0-2.809,0.129-2.809,1.446
		c0,0.789,0.564,1.082,1.246,1.082c1.74,0,1.776-1.518,1.776-2.164L130.806,54.325L130.806,54.325z"/>
</g>
<g>
	<g>
		<g>
			<g>
				<g>
					<g>
						<defs>
							<rect id="SVGID_1_" x="-35.861" y="-2.397" width="33.57" height="36.868"/>
						</defs>
						<clipPath id="SVGID_2_">
							<use xlink:href="#SVGID_1_"  overflow="visible"/>
						</clipPath>
						<path clip-path="url(#SVGID_2_)" fill="#DC0018" d="M-2.348,0.32c0,0-6.255-2.717-16.727-2.717h-0.003
							c-10.471,0-16.727,2.717-16.727,2.717s-0.56,12.03,1.814,18.831C-29.797,31.112-19.08,34.47-19.08,34.47h0.003h0.005
							c0,0,10.714-3.36,14.91-15.319C-1.788,12.349-2.348,0.32-2.348,0.32"/>
					</g>
				</g>
			</g>
		</g>
	</g>
</g>
<polyline fill="#FFFFFF" points="-7.959,10.69 -7.959,17.318 -15.757,17.318 -15.757,25.052 -22.439,25.052 -22.439,17.318 
	-30.234,17.318 -30.234,10.69 -22.439,10.69 -22.439,2.96 -15.759,2.96 -15.757,10.69 -7.959,10.69 "/>
</svg>
