<?xml version="1.0" standalone="no"?>
<!DOCTYPE svg PUBLIC "-//W3C//DTD SVG 1.1//EN" "http://www.w3.org/Graphics/SVG/1.1/DTD/svg11.dtd" >
<svg xmlns="http://www.w3.org/2000/svg">
<metadata>
Created by FontPrep 20130207 at Wed Apr 23 14:15:19 2014
 By Yann Gouffon
Copyright  2009 Linotype GmbH, www.linotype.com. All rights reserved. This font software may not be reproduced, modified, disclosed or transferred without the express written approval of Linotype GmbH. Frutiger is a trademark of Linotype Corp. registered in the U.S. Patent and Trademark Office and may be registered in certain other jurisdictions in the name of Linotype Corp. or its licensee Linotype GmbH. This typeface is original artwork of Adrian Frutiger and Linotype Design Studio. The design may be protected in certain jurisdictions.
</metadata>
<defs>
<font id="bab94e88c5ef5fab74d6cfb67c835516" horiz-adv-x='1024' >
  <font-face 
    font-family="FrutigerNeueW02-Bd"
    font-weight="400"
    font-stretch="normal"
    units-per-em="2048"
    panose-1="2 0 5 3 0 0 0 0 0 0"
    ascent="1556"
    descent="-492"
    x-height="1055"
    cap-height="1430"
    bbox="-59 -477 2085 1954"
    underline-thickness="102"
    underline-position="-102"
    unicode-range="U+000D-017E"
  />
<missing-glyph horiz-adv-x="1024" 
 />
    <glyph glyph-name=".notdef" horiz-adv-x="1024" 
 />
    <glyph glyph-name=".null" horiz-adv-x="0" 
 />
    <glyph glyph-name="uni000D" unicode="&#xd;" horiz-adv-x="0" 
 />
    <glyph glyph-name="space" unicode=" " horiz-adv-x="512" 
 />
    <glyph glyph-name="exclam" unicode="!" horiz-adv-x="700" 
d="M207 274h285v-274h-285v274zM190 1430h324l-49 -1016h-229z" />
    <glyph glyph-name="quotedbl" unicode="&#x22;" horiz-adv-x="935" 
d="M580 819l-39 611h219l-39 -611h-141zM215 819l-39 611h217l-35 -611h-143z" />
    <glyph glyph-name="numbersign" unicode="#" 
d="M762 862h-219l-54 -291h218zM76 399v172h209l53 291h-174v172h207l71 396h205l-72 -396h216l75 396h205l-74 -396h174v-172h-208l-54 -291h178v-172h-208l-76 -399h-203l74 399h-217l-76 -399h-201l74 399h-178z" />
    <glyph glyph-name="dollar" unicode="$" 
d="M664 217q167 24 165 180q1 61 -33 105t-132 78v-363zM393 1060q0 -70 36 -107q36 -38 128 -66v332q-74 -10 -119 -52q-45 -37 -45 -107zM557 1618h113v-178q109 0 182 -10q84 -6 158 -37l-25 -242q-78 38 -149 49q-55 14 -166 19v-361q124 -43 202 -82q162 -81 209 -211
q25 -68 25 -153q0 -180 -110 -292t-332 -132v-178h-117v174q-211 0 -408 63l29 258q39 -23 82 -35q71 -31 158 -44q88 -13 139 -13v399l-64 23q-202 72 -288 164q-78 88 -78 248q1 159 115 265t325 126v180z" />
    <glyph glyph-name="percent" unicode="%" horiz-adv-x="1929" 
d="M1438 -25q-88 0 -148 29q-68 25 -114 78q-45 47 -74 119q-25 74 -25 157q0 186 99 281q102 92 262 92t262 -92q98 -96 98 -281q0 -84 -24 -157q-60 -150 -189 -197q-59 -29 -147 -29zM1438 139q61 0 98 51q41 49 41 166t-41 160q-37 47 -98 47t-99 -47q-41 -43 -41 -160
t41 -166q38 -51 99 -51zM1511 1507l-911 -1550h-172l911 1550h172zM492 698q-78 0 -148 27q-134 60 -188 201q-25 68 -25 155q0 185 99 279q100 94 262 94t261 -93t99 -267t-98 -291q-40 -45 -112 -75t-150 -30zM492 862q61 0 98 51q41 49 41 166t-41 160q-37 47 -98 47
t-99 -47q-41 -43 -41 -160t41 -166q38 -51 99 -51z" />
    <glyph glyph-name="ampersand" unicode="&#x26;" horiz-adv-x="1488" 
d="M385 412q0 -60 21 -105q25 -39 57 -69q78 -54 168 -55q172 -2 272 89l-340 369q-178 -73 -178 -229zM870 1117q0 77 -49 110t-119 33t-120 -35q-47 -37 -47 -95q-1 -58 29 -113q30 -56 106 -130q92 43 146 98t54 132zM1038 133q-184 -156 -416 -156q-124 0 -214 29
q-196 62 -269 215q-37 74 -37 168q0 272 342 406q-170 170 -170 322t123 243q57 37 132 58q162 45 327 3q148 -28 223 -147q33 -59 33 -141q0 -137 -82 -227t-244 -163l279 -301q94 132 100 336h240q-10 -263 -191 -485l277 -293h-336z" />
    <glyph glyph-name="quotesingle" unicode="'" horiz-adv-x="573" 
d="M219 819l-43 611h221l-43 -611h-135z" />
    <glyph glyph-name="parenleft" unicode="(" horiz-adv-x="737" 
d="M82 634q0 470 328 922h262q-241 -393 -283 -698q-18 -110 -18 -224q0 -356 166 -677q61 -123 135 -244h-262q-328 451 -328 921z" />
    <glyph glyph-name="parenright" unicode=")" horiz-adv-x="737" 
d="M655 637q0 -470 -327 -924h-262q241 394 282 697q37 231 0 448q-30 222 -147 453q-57 119 -135 245h262q327 -449 327 -919z" />
    <glyph glyph-name="asterisk" unicode="*" horiz-adv-x="1146" 
d="M907 866l-186 -135l-150 254l-155 -254l-189 135l203 221l-283 64l70 221l275 -125l-29 301h225l-31 -299l275 117l63 -217l-284 -62z" />
    <glyph glyph-name="plus" unicode="+" 
d="M494 424h-420v221h420v426h237v-426h416v-221h-416v-424h-237v424z" />
    <glyph glyph-name="comma" unicode="," horiz-adv-x="532" 
d="M465 287l-186 -516h-230l133 516h283z" />
    <glyph glyph-name="hyphen" unicode="-" horiz-adv-x="686" 
d="M76 668h545v-230h-545v230z" />
    <glyph glyph-name="period" unicode="." horiz-adv-x="532" 
d="M121 295h293v-295h-293v295z" />
    <glyph glyph-name="slash" unicode="/" horiz-adv-x="1034" 
d="M645 1430h246l-500 -1430h-248z" />
    <glyph glyph-name="zero" unicode="0" 
d="M610 1243q-236 -1 -235 -529q0 -528 237 -528q113 0 173 132t61 395q0 530 -236 530zM623 1454q510 0 510 -738t-521 -741q-137 0 -239 50q-287 155 -287 677q0 388 130 570t407 182z" />
    <glyph glyph-name="one" unicode="1" 
d="M557 961q0 70 4 102q0 57 2 76h-4q-30 -30 -71 -64q-42 -35 -103 -86l-74 -59l-141 192l416 308h260v-1430h-291v748q0 63 2 100v113z" />
    <glyph glyph-name="two" unicode="2" 
d="M422 217q196 6 424 6h239v-223h-974v238q517 412 606 616q37 76 37 146q0 175 -156 217q-45 12 -100 12q-160 0 -330 -96l-29 237q177 84 426 84q96 0 189 -24q185 -61 262 -207q39 -77 39 -165q1 -88 -17 -152q-37 -137 -166 -283q-131 -154 -325 -312
q-109 -78 -125 -90v-4z" />
    <glyph glyph-name="three" unicode="3" 
d="M457 195q327 0 327 222q0 114 -100 165q-103 49 -287 49h-32q-27 0 -39 -2v213q20 -4 69 -4q379 0 379 204q0 96 -76 146t-224 51q-148 0 -304 -72l-18 226q157 61 394 61t374 -98t137 -275q0 -145 -93 -228t-247 -103v-7q253 -32 332 -215q27 -59 27 -145t-44 -164
q-135 -244 -582 -244q-162 0 -339 54l14 239q189 -73 332 -73z" />
    <glyph glyph-name="four" unicode="4" 
d="M711 752q0 147 8 467h-4q-1 -4 -19 -37t-28 -52l-56 -98q-57 -105 -100 -166l-221 -356h420v242zM977 510h194v-217h-194v-293h-272v293h-662v229l586 908h348v-920z" />
    <glyph glyph-name="five" unicode="5" 
d="M805 453q0 256 -342 258q-133 0 -281 -47l11 766h847v-216h-598l-8 -313q79 14 174 14q95 -1 188 -31q189 -62 261 -229q35 -83 35 -191t-43 -198q-41 -96 -119 -155q-148 -136 -441 -136q-139 0 -321 43l4 242q145 -63 300 -63t241 65q92 61 92 191z" />
    <glyph glyph-name="six" unicode="6" 
d="M866 454q0 121 -51 187q-57 78 -160 78t-188 -76q-31 -33 -57 -84q-42 -106 -2 -211q18 -53 51 -90q27 -35 73 -61q103 -40 201 0q49 27 74 61t45 86q14 58 14 110zM756 1239q-182 0 -284 -124t-105 -347h4q53 72 143 114t191 42q196 0 321 -125q55 -55 87 -141t32 -190
q0 -214 -139 -353q-148 -140 -399 -140q-249 1 -383 177t-134 531t174 566q84 102 205 152q115 53 272 53q175 0 308 -45l-29 -225q-129 55 -264 55z" />
    <glyph glyph-name="seven" unicode="7" 
d="M98 1202v228h987v-236l-522 -1194h-317l547 1202h-695z" />
    <glyph glyph-name="eight" unicode="8" 
d="M608 178q108 0 183 55q73 55 73 155t-68 156q-68 58 -210 105q-222 -79 -224 -258q0 -100 68 -158q70 -55 178 -55zM823 1071q0 92 -61 139q-60 47 -152 47t-164 -45q-66 -49 -66 -137t70 -142t183 -93q190 82 190 231zM1149 410q0 -114 -41 -194q-41 -79 -117 -134
t-168 -78q-94 -29 -217 -29q-235 0 -385 105q-147 116 -147 293q0 131 78 221q72 88 235 154q-150 60 -214 139q-64 80 -64 181q0 186 141 288q146 98 361 98q226 -1 356 -92q137 -102 137 -258q0 -119 -64 -199t-204 -143q168 -61 241 -148q72 -90 72 -204z" />
    <glyph glyph-name="nine" unicode="9" 
d="M596 719q110 0 170 72q66 66 65 180q0 179 -135 262q-47 20 -99 20q-104 0 -171 -84q-57 -81 -57 -195t58 -184q59 -70 169 -71zM604 1454q526 0 526 -708q0 -362 -168 -566q-168 -205 -487 -205q-187 0 -323 52l26 227q135 -63 281 -64q197 0 295 129t100 353h-4
q-57 -84 -145 -119q-81 -41 -183 -41q-206 0 -317 119q-121 121 -121 331t137 349q143 143 383 143z" />
    <glyph glyph-name="colon" unicode=":" horiz-adv-x="573" 
d="M141 1055h293v-295h-293v295zM141 295h293v-295h-293v295z" />
    <glyph glyph-name="semicolon" unicode=";" horiz-adv-x="573" 
d="M141 1055h293v-295h-293v295zM465 287l-186 -516h-230l133 516h283z" />
    <glyph glyph-name="less" unicode="&#x3c;" 
d="M281 541v-4q31 -6 71 -21q61 -16 103 -31t161 -51l523 -176v-268l-1057 391v307l1057 393v-266l-523 -178q-43 -13 -65 -21t-55 -17t-58 -17q-128 -41 -157 -41z" />
    <glyph glyph-name="equal" unicode="=" 
d="M74 420h1073v-221h-1073v221zM74 872h1073v-221h-1073v221z" />
    <glyph glyph-name="greater" unicode="&#x3e;" 
d="M82 -10v268l522 176q43 12 109 35q144 49 227 68v4q-6 2 -52 11t-88 24q-42 14 -75 23t-55 17t-66 21l-522 178v266l1057 -393v-307z" />
    <glyph glyph-name="question" unicode="?" horiz-adv-x="1032" 
d="M360 274h287v-274h-287v274zM446 1229q-160 0 -315 -80l-29 235q201 70 410 70t340 -90q129 -92 129 -270q0 -88 -43 -172q-47 -82 -149 -189t-128 -165t-26 -81q-4 -18 -4 -51v-26h-250v26q-1 112 21 168t54 100t90 108q132 145 132 245q0 172 -232 172z" />
    <glyph glyph-name="at" unicode="@" horiz-adv-x="2048" 
d="M1086 905q-52 0 -95 -37q-49 -35 -78 -94q-27 -39 -57 -129q-20 -79 -20 -151t28 -117q25 -47 75 -47q101 0 159 110q22 43 65 168q29 112 29 164q0 51 -29 92q-25 41 -77 41zM1184 309v15q0 14 2 24h-4q-45 -94 -127 -151q-84 -51 -176 -52q-143 0 -220 101
q-76 102 -75 262q0 225 133 397q59 82 142 128t173 46q171 0 232 -151h4l26 112h222l-125 -460q-27 -98 -31 -121t-4 -56q0 -81 80 -79q47 0 96 32q145 126 145 420q0 220 -157 379q-165 145 -414 143q-152 0 -283 -56t-221 -152q-94 -94 -151 -234q-53 -141 -53 -299
t49 -283q50 -125 139 -204q82 -82 211 -129t282 -47q268 0 486 110l53 -174q-249 -113 -545 -113q-203 0 -371 58q-166 63 -280 168q-236 228 -238 618q0 190 70 361q150 333 478 468q163 66 343 66q358 -1 574 -182q215 -194 217 -518q0 -121 -33 -233q-68 -230 -242 -326
q-88 -51 -186 -51q-97 0 -159 41q-62 42 -62 122z" />
    <glyph glyph-name="A" unicode="A" horiz-adv-x="1488" 
d="M834 881q-8 23 -20 56t-28 90q-17 57 -23 76q-5 19 -12 43t-16 58h-4q-4 -10 -10 -34t-15 -46t-24 -77t-55 -166l-119 -334h444zM1468 0h-313l-125 330h-596l-125 -330h-297l561 1430h326z" />
    <glyph glyph-name="B" unicode="B" horiz-adv-x="1282" 
d="M451 215h94q176 0 260 48t84 159t-86 160q-94 45 -273 45h-79v-412zM451 827h75q80 0 136 9q66 6 104 28q94 39 92 160q0 57 -22 96q-23 33 -66 60q-82 35 -215 37h-104v-390zM172 1430h438q251 0 385 -87q146 -90 146 -280q0 -121 -74 -209t-223 -119v-4
q156 -20 246 -108q88 -89 88 -215t-48 -200t-126 -122q-144 -86 -388 -86h-444v1430z" />
    <glyph glyph-name="C" unicode="C" horiz-adv-x="1267" 
d="M871 1444q183 0 329 -51l-20 -248q-66 29 -148 51q-86 14 -174 14t-174 -32q-183 -66 -246 -244q-35 -86 -35 -208q0 -226 138 -372q140 -129 328 -129q189 0 327 56l10 -248q-151 -47 -329 -47q-360 0 -566 192q-215 201 -215 535q0 170 58 305q116 268 399 375
q135 51 318 51z" />
    <glyph glyph-name="D" unicode="D" horiz-adv-x="1505" 
d="M461 219h76q258 0 405 111q166 126 166 381q0 256 -166 391q-141 104 -405 102h-76v-985zM563 1430q385 0 604 -162q238 -185 239 -548t-243 -554q-121 -90 -268 -125q-145 -41 -332 -41h-391v1430h391z" />
    <glyph glyph-name="E" unicode="E" horiz-adv-x="1148" 
d="M172 1430h846v-238h-561v-344h516v-232h-516v-376h567v-240h-852v1430z" />
    <glyph glyph-name="F" unicode="F" horiz-adv-x="1048" 
d="M172 1430h799v-240h-510v-361h483v-233h-483v-596h-289v1430z" />
    <glyph glyph-name="G" unicode="G" horiz-adv-x="1482" 
d="M931 1444q213 0 374 -55l-21 -256q-154 81 -379 80t-364 -134q-136 -140 -135 -366q1 -225 126 -353q127 -137 367 -137q99 0 168 21v356h-305v229h579v-768q-218 -75 -481 -75q-330 0 -547 194q-215 207 -217 541q0 170 58 299q114 272 416 374q148 50 361 50z" />
    <glyph glyph-name="H" unicode="H" horiz-adv-x="1497" 
d="M172 1430h291v-570h573v570h289v-1430h-289v618h-573v-618h-291v1430z" />
    <glyph glyph-name="I" unicode="I" horiz-adv-x="632" 
d="M172 1430h289v-1430h-289v1430z" />
    <glyph glyph-name="J" unicode="J" horiz-adv-x="802" 
d="M641 442q0 -467 -420 -467q-102 0 -194 29l8 250q55 -16 137 -21q94 -1 136 55t42 183v959h291v-988z" />
    <glyph glyph-name="K" unicode="K" horiz-adv-x="1378" 
d="M461 0h-289v1430h289v-623h4q43 55 59 77t66 79q37 51 69 86q31 39 54 65l268 316h358l-604 -668l662 -762h-389l-316 385q-8 9 -23 29t-25 31t-30 39t-34 46q-68 87 -115 158h-4v-688z" />
    <glyph glyph-name="L" unicode="L" horiz-adv-x="1052" 
d="M172 1430h289v-1184h555v-246h-844v1430z" />
    <glyph glyph-name="M" unicode="M" horiz-adv-x="1959" 
d="M434 1092v-142q2 -45 2 -135v-815h-264v1430h463l223 -682q6 -18 28 -90t35 -113q13 -40 58 -221h4q10 38 34 116t32 107t61 201l229 682h449v-1430h-277v950q0 100 5 142q0 90 2 131h-5q-6 -17 -17 -55t-17 -58l-37 -123q-50 -152 -68 -211l-276 -776h-258l-267 768
q-48 145 -65 209q-16 47 -34 111t-40 135h-4q4 -40 4 -131z" />
    <glyph glyph-name="N" unicode="N" horiz-adv-x="1536" 
d="M1112 410q-8 92 -8 419v601h260v-1430h-365l-366 700q-54 102 -170 353q-31 74 -37 88h-4q4 -24 4 -92q4 -40 4 -131v-138q2 -45 2 -112v-668h-260v1430h385l361 -707l20 -40t23 -48q10 -19 28 -59t35 -75t40 -85q22 -51 33 -75q11 -25 15 -36h4q-4 28 -4 105z" />
    <glyph glyph-name="O" unicode="O" horiz-adv-x="1605" 
d="M799 1231q-88 0 -157 -36q-69 -35 -122 -105t-78 -164q-28 -88 -28 -211q1 -232 106 -375q114 -141 287 -141q90 0 156 39q143 72 202 266q29 102 29 213t-27 213q-35 104 -83 166t-121 100q-76 35 -164 35zM1311 176q-96 -100 -221 -147q-127 -53 -289 -53
q-321 -1 -508 198t-188 547q-1 349 185 541t515 192q328 0 510 -197q186 -198 186 -535t-190 -546z" />
    <glyph glyph-name="P" unicode="P" horiz-adv-x="1175" 
d="M461 764h51q84 0 135 10q55 6 103 33q90 57 90 183t-84 174t-244 48h-51v-448zM172 1430h360q272 0 422 -87q179 -109 181 -352q0 -131 -50 -213q-45 -82 -129 -139q-84 -49 -190 -74q-123 -20 -234 -20h-71v-545h-289v1430z" />
    <glyph glyph-name="Q" unicode="Q" horiz-adv-x="1605" 
d="M799 1231q-88 0 -157 -36q-69 -35 -122 -105t-78 -164q-28 -88 -28 -211t26 -211t80 -168q116 -143 287 -141q90 0 156 38q142 71 202 271q29 98 29 211t-27 215q-35 104 -83 166t-121 100q-76 35 -164 35zM1501 721q0 -238 -94 -410t-260 -260l319 -325h-350l-233 256
q-43 -6 -84 -7q-320 0 -506 199q-187 199 -188 547q-1 349 185 541t515 192q328 0 510 -197q186 -198 186 -536z" />
    <glyph glyph-name="R" unicode="R" horiz-adv-x="1273" 
d="M461 815h84q170 0 250 45q79 49 79 160t-88 147q-56 37 -241 37h-84v-389zM172 1430h414q276 0 426 -74q76 -45 118 -115q41 -75 41 -201q1 -126 -79 -212t-220 -111v-4q25 -5 57 -23q61 -33 93 -96l14 -29q12 -27 19 -43l221 -522h-318l-159 406q-44 111 -86 151
q-35 21 -70 29t-106 8h-76v-594h-289v1430z" />
    <glyph glyph-name="S" unicode="S" horiz-adv-x="1122" 
d="M658 1231q-126 0 -192 -44q-66 -43 -67 -113q1 -70 39 -108t90 -61q49 -29 129 -55q199 -70 289 -171t90 -257q0 -198 -145 -328q-153 -119 -374 -119q-220 0 -398 62l26 252q168 -82 311 -82q144 0 212 47q74 43 74 130t-58 134q-58 54 -235 119q-177 66 -262 159
t-85 244q0 191 143 302q143 112 350 112q208 0 366 -51l-23 -234q-154 62 -280 62z" />
    <glyph glyph-name="T" unicode="T" horiz-adv-x="1157" 
d="M721 0h-293v1194l-391 -6v242h1083v-242l-399 6v-1194z" />
    <glyph glyph-name="U" unicode="U" horiz-adv-x="1486" 
d="M1325 567q0 -590 -586 -592q-307 0 -442 150t-135 442v863h291v-842q0 -205 71 -291q68 -90 222 -90t229 89q74 89 74 292v842h276v-863z" />
    <glyph glyph-name="V" unicode="V" horiz-adv-x="1386" 
d="M623 498q4 -12 17 -54t24 -71q11 -30 36 -123h5q12 37 16 53q26 103 41 139q4 25 16 56l307 932h291l-510 -1430h-350l-506 1430h309z" />
    <glyph glyph-name="W" unicode="W" horiz-adv-x="2121" 
d="M1114 956q-8 29 -16 74t-14 64q-5 19 -23 131h-4q-2 -12 -18 -117t-29 -152l-213 -956h-365l-395 1430h309l207 -857q0 -1 5 -23q12 -52 28 -132l20 -107q12 -68 15 -88h4q45 257 54 294q9 38 11 56l187 857h383l196 -857q4 -27 15 -70t16 -89l20 -103l15 -88h4l14 88
q8 33 20 97t21 100q2 18 7 40t5 25l205 857h287l-383 -1430h-363z" />
    <glyph glyph-name="X" unicode="X" horiz-adv-x="1382" 
d="M399 1430l154 -263q69 -123 95 -170t59 -104q7 11 17 33q9 22 13 28t19 34q42 85 96 177l152 265h307l-441 -695l476 -735h-342l-146 246q-39 59 -74 128q-36 69 -62 116t-34 67q-31 -53 -42 -73q-10 -20 -30 -54q-20 -32 -61 -101t-51 -83l-150 -246h-327l487 735
l-459 695h344z" />
    <glyph glyph-name="Y" unicode="Y" horiz-adv-x="1361" 
d="M829 0h-288v569l-529 861h338l162 -289q28 -47 66 -121t54 -106l28 -56q11 -24 32 -61h4q20 39 38 77t36 67q18 30 37 64q18 33 39 73t33 63l157 289h314l-521 -863v-567z" />
    <glyph glyph-name="Z" unicode="Z" horiz-adv-x="1146" 
d="M1081 240v-240h-1013v244q152 222 261 372t199 277q111 147 161 214t67 85h-662v238h971v-240q-193 -274 -333 -468t-221 -307q-82 -114 -136 -175h706z" />
    <glyph glyph-name="bracketleft" unicode="[" horiz-adv-x="737" 
d="M629 1556v-190h-205v-1460h205v-193h-457v1843h457z" />
    <glyph glyph-name="backslash" unicode="\" horiz-adv-x="1034" 
d="M891 0h-248l-500 1430h246z" />
    <glyph glyph-name="bracketright" unicode="]" horiz-adv-x="737" 
d="M565 -287h-456v193h202v1460h-202v190h456v-1843z" />
    <glyph glyph-name="asciicircum" unicode="^" 
d="M610 1243q0 -11 -31 -108q-31 -96 -38 -111l-168 -481h-250l338 887h299l338 -887h-248l-150 420l-20 61q-24 79 -38 125q-15 47 -21 69t-7 25h-4z" />
    <glyph glyph-name="underscore" unicode="_" horiz-adv-x="1024" 
d="M1024 -160v-102h-1024v102h1024z" />
    <glyph glyph-name="grave" unicode="`" horiz-adv-x="1024" 
d="M223 1548h285l172 -362h-164z" />
    <glyph glyph-name="a" unicode="a" horiz-adv-x="1140" 
d="M676 489q-336 1 -336 -155t164 -156q116 0 184 72q78 78 78 235q-37 4 -49 4h-41zM788 0q-4 16 -4 80t4 96h-4q-113 -196 -362 -196q-148 0 -254 86q-100 100 -98 241q0 168 139 254q137 90 403 90h72q29 -2 78 -6q0 123 -60 178t-200 55q-141 0 -309 -94l-11 213
q168 82 392 82q223 0 339 -116q105 -113 105 -314q0 -45 -2 -71v-170q-2 -27 -2 -105t14 -303h-240z" />
    <glyph glyph-name="b" unicode="b" horiz-adv-x="1296" 
d="M498 770q-72 -103 -72 -243q0 -139 70 -242q35 -43 82 -72q49 -25 108 -25q118 0 184 98t66 246t-62 241t-182 93q-119 0 -194 -96zM424 1184q0 -176 -6 -293h4q119 188 354 188q94 0 182 -39q165 -87 226 -286q30 -98 30 -219q-1 -250 -122 -402q-122 -158 -346 -158
q-114 1 -199 53q-86 52 -137 142h-4q0 -40 -9 -170h-254q11 124 11 315v1233h270v-364z" />
    <glyph glyph-name="c" unicode="c" horiz-adv-x="942" 
d="M674 862q-154 0 -236 -98q-80 -84 -81 -238t77 -235q78 -96 244 -94q100 0 178 36l14 -215q-255 -70 -460 7q-106 37 -184 107q-156 142 -156 390q0 254 168 400q149 145 407 145q123 0 213 -29l-20 -209q-80 33 -164 33z" />
    <glyph glyph-name="d" unicode="d" horiz-adv-x="1294" 
d="M614 868q-57 0 -106 -24q-89 -56 -127 -180q-16 -70 -16 -138t16 -137q38 -128 131 -176q41 -27 102 -27q60 0 110 27t79 70q71 87 71 246t-71 241q-27 43 -82 74q-50 24 -107 24zM901 0q-6 74 -6 184h-4q-119 -208 -343 -208q-223 -1 -343 151q-123 150 -123 398
q0 247 126 400q126 154 342 154q215 0 322 -188h5q-7 136 -7 293v364h271v-1233q0 -202 10 -315h-250z" />
    <glyph glyph-name="e" unicode="e" horiz-adv-x="1150" 
d="M819 639q0 125 -59 188q-62 57 -158 57t-164 -61q-72 -61 -82 -184h463zM1071 516q0 -55 -4 -65h-707q4 -125 95 -195q88 -72 246 -72t292 86l4 -225q-136 -68 -304 -69q-169 -1 -274 35t-181 108q-158 150 -158 413q0 244 148 396q148 151 380 151q463 0 463 -563z" />
    <glyph glyph-name="f" unicode="f" horiz-adv-x="802" 
d="M643 1346q-64 0 -94 -48q-29 -51 -29 -165v-78h242v-203h-242v-852h-274v852h-207v203h207v73q0 221 90 324q86 104 291 104q87 0 157 -20l-22 -213q-55 23 -119 23z" />
    <glyph glyph-name="g" unicode="g" horiz-adv-x="1290" 
d="M887 975v80h254v-973q0 -250 -133 -385q-68 -74 -172 -111q-102 -41 -250 -41q-234 0 -420 70l20 233q189 -98 377 -98q226 0 289 184q23 63 22 148v53q0 18 5 55h-5q-45 -76 -129 -135q-86 -55 -198 -55t-197 37q-170 83 -235 272q-33 92 -33 216q0 244 128 399t351 155
t326 -192h4q-4 66 -4 88zM610 868q-57 0 -102 -24q-92 -58 -127 -176q-16 -66 -16 -131q0 -141 65 -232q66 -90 180 -90t189 92q71 91 71 232t-71 235q-31 39 -82 70q-50 24 -107 24z" />
    <glyph glyph-name="h" unicode="h" horiz-adv-x="1290" 
d="M424 1133q0 -208 -6 -256h4q125 202 332 202t307 -127q84 -118 86 -340v-612h-270v508q1 57 -5 133q-10 142 -86 193q-39 27 -106 26q-128 0 -192 -101t-64 -282v-477h-270v1548h270v-415z" />
    <glyph glyph-name="i" unicode="i" horiz-adv-x="589" 
d="M158 1055h274v-1055h-274v1055zM158 1255v263h274v-263h-274z" />
    <glyph glyph-name="j" unicode="j" horiz-adv-x="589" 
d="M-14 -240q12 -4 41 -4q75 0 103 46t28 161v1092h274v-1129q0 -381 -344 -381q-71 0 -113 11zM158 1518h274v-263h-274v263z" />
    <glyph glyph-name="k" unicode="k" horiz-adv-x="1163" 
d="M432 537v-537h-278v1548h278v-940h4q10 14 39 51q23 37 65 86q40 49 56 69t25 30l180 211h315l-426 -469l473 -586h-342l-205 276q-18 25 -42 57q-24 33 -40 59q-18 26 -35 49t-22 34q-6 9 -13 21t-15 23t-13 18h-4z" />
    <glyph glyph-name="l" unicode="l" horiz-adv-x="589" 
d="M158 1548h274v-1548h-274v1548z" />
    <glyph glyph-name="m" unicode="m" horiz-adv-x="1914" 
d="M1425 1079q342 0 347 -465v-614h-277v586q0 274 -176 274q-100 0 -160 -90q-61 -86 -61 -248v-522h-277v637q0 96 -43 162q-43 61 -134 61t-155 -90q-65 -89 -65 -238v-532h-274v727q0 166 -11 328h256q4 -35 6 -88v-93h5q53 100 148 152t204 53q109 0 188 -55
q82 -53 111 -154q117 209 368 209z" />
    <glyph glyph-name="n" unicode="n" horiz-adv-x="1284" 
d="M762 1079q197 0 295 -125q82 -108 84 -340v-614h-271v508q0 187 -26 252q-23 47 -58 74q-40 26 -106 26t-125 -37q-55 -39 -90 -100q-45 -88 -45 -246v-477h-270v727q0 171 -11 328h260q9 -140 9 -176h4q121 200 350 200z" />
    <glyph glyph-name="o" unicode="o" horiz-adv-x="1269" 
d="M901 535q-1 164 -71 253t-193 89q-123 -1 -194 -91t-71 -253t70 -257q74 -92 195 -92t190 95q74 92 74 256zM635 1079q123 0 229 -39q102 -42 172 -110t115 -176q39 -111 39 -228t-39 -227q-91 -206 -291 -285q-98 -39 -226 -39t-224 41q-98 35 -177 111q-76 78 -112 176
q-41 100 -41 224q0 251 156 403q158 149 399 149z" />
    <glyph glyph-name="p" unicode="p" horiz-adv-x="1292" 
d="M682 864q-59 0 -109 -24q-153 -89 -153 -314q0 -153 72 -243q71 -97 182 -97t190 97q62 99 63 249t-63 242q-67 90 -182 90zM420 -31v-399h-275v1165q0 205 -10 320h262q7 -62 9 -170h4q68 98 152 146t196 48q214 0 334 -148t119 -394t-124 -406q-124 -156 -338 -156
t-331 191h-4l4 -49v-72q2 -27 2 -76z" />
    <glyph glyph-name="q" unicode="q" horiz-adv-x="1292" 
d="M607 868q-114 0 -179 -94q-63 -86 -63 -236q0 -151 65 -251q70 -94 190 -94t183 94q71 84 71 235q0 76 -18 140q-22 66 -54 108t-85 74q-52 24 -110 24zM1155 1055q-6 -68 -6 -162v-1323h-275v340q0 35 3 59v76q0 50 4 70q0 41 2 53h-6q-120 -189 -336 -191
q-102 0 -193 39q-171 89 -233 293q-33 101 -33 229q0 239 123 396q59 70 143 106q80 39 196 39t196 -48t143 -146h4l12 170h256z" />
    <glyph glyph-name="r" unicode="r" horiz-adv-x="806" 
d="M709 1079q62 0 90 -12l-6 -236q-41 14 -95 15q-274 0 -274 -416v-430h-279v741q0 194 -10 314h258q4 -12 4 -43v-54l4 -57v-47h5q86 225 303 225z" />
    <glyph glyph-name="s" unicode="s" horiz-adv-x="915" 
d="M567 289q0 29 -10 47q-4 16 -30 38q-43 35 -180 82q-137 48 -204 113q-63 75 -63 169q0 168 117 255q117 88 292 87t295 -50l-22 -205q-136 59 -228 59q-184 1 -184 -110q0 -29 7 -43t32 -39q69 -34 147 -60q79 -26 130 -52q116 -58 155 -152q21 -47 21 -123
q0 -75 -33 -139q-62 -120 -223 -170q-246 -56 -502 35l14 217q143 -70 297 -72q72 0 121 29q51 25 51 84z" />
    <glyph glyph-name="t" unicode="t" horiz-adv-x="794" 
d="M223 385v467h-203v203h207v221l258 88v-309h252v-203h-252v-412q0 -121 32 -176t132 -55q47 0 101 16l6 -211q-69 -26 -189 -26q-182 0 -264 94q-80 96 -80 303z" />
    <glyph glyph-name="u" unicode="u" horiz-adv-x="1284" 
d="M881 174h-4q-49 -78 -138 -141q-89 -57 -197 -57q-198 -1 -299 112q-100 114 -100 297v670h271v-547q0 -152 39 -221q43 -88 157 -87t183 92t69 236v527h273v-908q4 -102 10 -147h-256q-8 78 -8 174z" />
    <glyph glyph-name="v" unicode="v" horiz-adv-x="1144" 
d="M510 469q3 -12 18 -57l19 -68q3 -8 13 -46q11 -38 22 -85h4q2 7 11 39t15 57t11 35q10 43 20 70q6 29 16 55l187 586h276l-383 -1055h-323l-387 1055h297z" />
    <glyph glyph-name="w" unicode="w" horiz-adv-x="1837" 
d="M356 0l-327 1055h293l155 -572q2 -6 6 -26q5 -19 9 -33t9 -41t7 -37l7 -35q5 -25 11 -47t11 -51h4q2 27 13 69t17 74q6 31 15 60q8 28 18 65l152 574h338l163 -572q11 -49 15 -61t12 -49t13 -62t11 -47t11 -51h4q4 29 14 66t13 58q4 21 9 48t9 39t8 32t6 25l154 574h272
l-325 -1055h-338l-166 604q-30 116 -53 252h-4q-31 -157 -60 -252l-166 -604h-340z" />
    <glyph glyph-name="x" unicode="x" horiz-adv-x="1144" 
d="M588 682q29 66 61 119q31 53 37 65l107 189h299l-342 -510l368 -545h-319l-125 211q-56 97 -107 192h-4q-27 -53 -63 -117t-47 -81l-121 -205h-309l372 545l-344 510h322l110 -189q4 -13 16 -30q11 -16 25 -42t22 -42t14 -26q5 -10 13 -24t11 -20h4z" />
    <glyph glyph-name="y" unicode="y" horiz-adv-x="1146" 
d="M639 -225q-118 -230 -370 -230q-93 0 -189 29l20 205q60 -21 132 -21t120 42t82 155l-409 1100h299l163 -510q20 -66 40 -128t57 -196h4q25 102 96 324l164 510h276l-415 -1129q-31 -82 -70 -151z" />
    <glyph glyph-name="z" unicode="z" horiz-adv-x="1032" 
d="M963 207v-207h-893v229q152 172 286 324q149 169 277 297h-545v205h856v-219q-53 -63 -220 -254t-202 -228q-36 -36 -56 -58l-30 -33q-12 -11 -30 -31t-25 -25h582z" />
    <glyph glyph-name="braceleft" unicode="{" horiz-adv-x="737" 
d="M213 991v113q0 244 92 336q57 57 137 80q76 27 217 36v-157q-109 -8 -153 -77t-45 -210v-84q0 -211 -51 -283q-47 -89 -201 -108v-4q149 -17 201 -115q51 -72 51 -276v-86q0 -143 45 -210t153 -75v-158q-139 10 -220 36q-163 52 -206 214q-20 80 -20 201v115
q0 133 -39 196q-45 65 -166 82v156q124 19 164 81q41 62 41 197z" />
    <glyph glyph-name="bar" unicode="|" horiz-adv-x="573" 
d="M172 1610h229v-2048h-229v2048z" />
    <glyph glyph-name="braceright" unicode="}" horiz-adv-x="737" 
d="M524 279v-113q0 -244 -92 -336q-57 -57 -137 -80q-76 -27 -217 -37v158q110 8 154 77t44 210v84q0 207 52 282q50 90 200 109v4q-78 10 -125 39q-49 25 -75 74q-50 77 -52 278v86q0 143 -45 210t-153 75v157q139 -10 220 -36q163 -51 206 -213q20 -80 20 -201v-115
q0 -133 39 -196q47 -67 166 -82v-156q-120 -18 -162 -81q-43 -62 -43 -197z" />
    <glyph glyph-name="asciitilde" unicode="~" 
d="M853 319q-83 0 -157 32t-114 52l-115 58q-59 27 -139 27t-147 -48q-67 -47 -97 -102v256q45 55 119 88q75 33 157 33t170 -38t122 -57q34 -18 58 -29t59 -28t117 -17t142 48q66 41 100 102v-256q-44 -55 -118 -88t-157 -33z" />
    <glyph glyph-name="uni00A0" unicode="&#xa0;" horiz-adv-x="512" 
 />
    <glyph glyph-name="exclamdown" unicode="&#xa1;" horiz-adv-x="700" 
d="M494 780h-285v275h285v-275zM510 -375h-324l50 1016h229z" />
    <glyph glyph-name="cent" unicode="&#xa2;" 
d="M496 520q0 -131 77 -215l168 539q-119 -23 -180 -109q-65 -84 -65 -215zM829 209q104 0 181 37l10 -228q-181 -61 -422 -10l-84 -272h-117l97 309q-133 63 -211 184q-74 123 -74 271q0 275 170 422q153 145 401 145h31l78 252h119l-82 -262q43 -6 82 -19l-25 -221
q-59 24 -123 31l-190 -612q55 -27 159 -27z" />
    <glyph glyph-name="sterling" unicode="&#xa3;" 
d="M887 1214q-131 0 -199 -84q-72 -80 -72 -237v-62h306v-155h-306v-459h461v-217h-930v217h181v459h-154v155h154v68q0 545 530 545q121 0 238 -35l-17 -231q-106 36 -192 36z" />
    <glyph glyph-name="currency" unicode="&#xa4;" 
d="M611 1110q109 0 198 -55l184 184l144 -141l-185 -185q54 -89 55 -197q1 -109 -57 -204l187 -184l-144 -142l-186 185q-93 -52 -201 -53q-107 -1 -196 55l-187 -187l-141 142l186 186q-53 90 -53 198t53 199l-186 187l141 141l187 -186q92 57 201 57zM609 911
q-81 0 -132 -55t-51 -142t53 -141q49 -55 133 -55t133 55q53 55 53 143t-54 141q-54 54 -135 54z" />
    <glyph glyph-name="yen" unicode="&#xa5;" 
d="M1065 758v-152h-291l-14 -31v-94h305v-151h-305v-330h-293v330h-307v151h307v86l-23 39h-284v152h205l-355 672h314l141 -289q6 -18 44 -97q38 -80 46 -102t35 -74q10 -27 31 -71h4q20 45 47 107t44 93q17 32 26 55t24 53q14 30 16 36l138 289h290l-354 -672h209z" />
    <glyph glyph-name="brokenbar" unicode="&#xa6;" horiz-adv-x="573" 
d="M172 356h229v-794h-229v794zM172 1610h229v-795h-229v795z" />
    <glyph glyph-name="section" unicode="&#xa7;" 
d="M840 529q0 75 -41 110q-12 12 -62 41q-41 20 -102 45l-168 68q-73 -59 -73 -151q-1 -99 169 -163l203 -80q74 55 74 130zM221 8q164 -80 340 -80q217 0 217 142q0 48 -24 74t-88 55l-203 84q-143 57 -207 132t-66 187q0 162 146 258q-135 94 -135 252t123 250
q120 102 313 100q72 0 158 -12q88 -8 176 -31l-21 -225q-129 59 -301 59q-90 0 -145 -36q-53 -37 -53 -99q0 -104 186 -168l133 -47q283 -96 283 -304q0 -97 -40 -168t-112 -107q70 -45 98 -105q35 -57 35 -139t-35 -146q-58 -131 -235 -196q-90 -27 -182 -27
q-173 0 -377 62z" />
    <glyph glyph-name="dieresis" unicode="&#xa8;" horiz-adv-x="1024" 
d="M182 1505h236v-239h-236v239zM842 1266h-236v239h236v-239z" />
    <glyph glyph-name="copyright" unicode="&#xa9;" horiz-adv-x="1843" 
d="M412 1229q211 207 509 207t511 -207q210 -211 210 -513q0 -154 -56 -283q-115 -268 -384 -384q-134 -55 -282 -55t-280 57q-269 116 -382 385q-57 129 -57 283t57 280q55 131 154 230zM922 1354q-139 0 -250 -51q-231 -95 -336 -340q-49 -115 -49 -247q0 -264 184 -452
q80 -86 201 -137q111 -51 250 -51t249 51q121 51 201 137q88 90 135 207q49 117 49 249q0 257 -184 447q-82 86 -201 136q-110 51 -249 51zM769 941q-81 -81 -81 -215t86 -212q37 -41 94 -59q47 -23 128 -23t184 47l10 -155q-76 -37 -189 -37q-223 0 -351 116t-128 315
t131 326q132 123 326 121q113 0 205 -39l-13 -157q-90 53 -205 53q-116 0 -197 -81z" />
    <glyph glyph-name="ordfeminine" unicode="&#xaa;" horiz-adv-x="897" 
d="M328 612q-119 0 -201 64q-76 70 -76 190t107 183q109 68 307 67h55q23 0 60 -4q0 164 -183 164q-135 0 -247 -68l-9 172q117 56 305 57q189 1 272 -87t83 -244q0 -57 -2 -94v-121q0 -59 4 -150l8 -118h-209q-4 12 -4 28v66q0 23 2 37h-2q-88 -142 -270 -142zM553 989h-31
q-240 0 -239 -123q0 -51 32 -75q29 -29 99 -29t118 55q50 55 50 170q-10 2 -29 2z" />
    <glyph glyph-name="guillemotleft" unicode="&#xab;" horiz-adv-x="1122" 
d="M319 932h252l-219 -414l219 -412h-252l-237 412zM1026 106h-250l-237 412l237 414h250l-217 -414z" />
    <glyph glyph-name="logicalnot" unicode="&#xac;" 
d="M893 651h-832v209h1057v-659h-225v450z" />
    <glyph glyph-name="uni00AD" unicode="&#xad;" horiz-adv-x="686" 
d="M76 668h545v-230h-545v230z" />
    <glyph glyph-name="registered" unicode="&#xae;" horiz-adv-x="1024" 
d="M509 1358q-61 0 -115 -24q-110 -48 -161 -158q-46 -114 0 -236q51 -111 162 -162q113 -46 234 0q110 50 161 167q51 116 -2 231q-25 57 -65 94q-37 40 -95 64t-119 24zM515 1417q147 0 255 -106q53 -55 74 -115q28 -57 28 -138t-28 -140q-23 -64 -75 -116t-116 -77
q-59 -29 -136 -29t-143 28t-118 79q-51 51 -76 115q-28 63 -28 139q1 153 106 258q55 51 117 74q63 28 140 28zM459 1106h14q45 0 72 10q25 10 24 39q0 29 -24 41q-33 8 -72 8h-14v-98zM377 1276h110q74 0 120 -25t46 -90q0 -35 -18 -59q-16 -29 -55 -35v-4q26 -12 43 -45
l73 -160h-98l-55 131q-10 29 -27 35q-12 10 -53 10h-4v-176h-82v418z" />
    <glyph glyph-name="macron" unicode="&#xaf;" horiz-adv-x="1024" 
d="M213 1417h598v-137h-598v137z" />
    <glyph glyph-name="degree" unicode="&#xb0;" horiz-adv-x="819" 
d="M406 1280q-68 0 -109 -46t-41 -114t43 -114t110 -45q67 0 109 46q42 45 43 115t-43 114t-112 44zM415 1454q132 0 230 -99t97 -235q-2 -138 -100 -236t-233 -98t-237 99q-98 98 -97 236q1 139 99 237q42 42 106 68q64 28 135 28z" />
    <glyph glyph-name="plusminus" unicode="&#xb1;" 
d="M494 580h-420v221h420v270h237v-270h416v-221h-416v-269h-237v269zM74 221h1073v-221h-1073v221z" />
    <glyph glyph-name="uni00B2" unicode="&#xb2;" horiz-adv-x="778" 
d="M94 1698q115 51 257 51t218 -59q41 -29 68 -77q27 -47 27 -95t-9 -101q-35 -125 -167 -244q-86 -77 -121 -101t-64 -46v-4q78 4 127 4h252v-149h-604v151q109 86 172 143q76 63 119 115q47 51 65 98q23 38 23 96t-43 89q-47 27 -103 26q-104 0 -198 -57z" />
    <glyph glyph-name="uni00B3" unicode="&#xb3;" horiz-adv-x="778" 
d="M471 1490q0 114 -179 114q-93 0 -177 -43l-13 151q97 37 246 37q150 0 235 -59t85 -164q0 -163 -197 -199v-4q97 -11 153 -67t56 -128q0 -126 -102 -195t-246 -70q-145 -1 -254 28l10 162q110 -43 209 -43q184 0 184 120q0 66 -59 91q-54 26 -121 26t-86 -4v143
q6 -2 23 -2h24q209 0 209 106z" />
    <glyph glyph-name="acute" unicode="&#xb4;" horiz-adv-x="1024" 
d="M508 1186h-164l172 362h285z" />
    <glyph glyph-name="mu" unicode="&#xb5;" horiz-adv-x="1345" 
d="M422 -221v-209h-272v1485h270v-547q0 -161 26 -211q26 -51 60 -74q36 -23 96 -23t110 34q101 66 134 237q16 88 16 174v410h273v-703q0 -61 12 -90q14 -26 48 -26t42 4l10 -242q-62 -10 -100 -10q-123 0 -187 48t-79 163h-4q-53 -104 -142 -162q-88 -61 -205 -62
q-61 0 -112 23l-6 -4q2 -14 2 -55q4 -24 4 -76q4 -28 4 -84z" />
    <glyph glyph-name="paragraph" unicode="&#xb6;" horiz-adv-x="1280" 
d="M1092 1262v-1672h-205v1672h-221v-1672h-205v883q-193 14 -301 138t-109 323q0 119 39 205q39 96 107 155q144 136 391 136h616v-168h-112z" />
    <glyph glyph-name="periodcentered" unicode="&#xb7;" horiz-adv-x="532" 
d="M121 696h293v-286h-293v286z" />
    <glyph glyph-name="cedilla" unicode="&#xb8;" horiz-adv-x="1024" 
d="M492 -125h18q89 0 141 -35q58 -46 59 -111t-22 -98q-18 -35 -57 -57q-63 -45 -160 -45q-98 0 -158 14l13 103l55 -6q20 -4 51 -5q113 0 113 72q0 39 -29 55q-31 12 -86 12t-90 -10l25 254h129l-25 -145q8 2 23 2z" />
    <glyph glyph-name="uni00B9" unicode="&#xb9;" horiz-adv-x="778" 
d="M348 1495q0 33 4 45h-4q-19 -18 -64 -54t-48 -40l-43 -33l-93 133l267 189h180v-858h-201v487q0 45 2 70v61z" />
    <glyph glyph-name="ordmasculine" unicode="&#xba;" horiz-adv-x="989" 
d="M684 1022q0 116 -52 180t-136 64t-136 -66t-53 -180q0 -114 51 -180q52 -66 138 -66t135 66q53 66 53 182zM176 1323q121 113 314 113t323 -113q121 -117 121 -305q0 -98 -33 -170q-64 -161 -227 -217q-84 -31 -181 -31t-177 29q-165 60 -230 219q-31 74 -31 170t34 177
t87 128z" />
    <glyph glyph-name="guillemotright" unicode="&#xbb;" horiz-adv-x="1122" 
d="M803 106h-252l217 412l-217 414h252l237 -414zM96 932h250l238 -414l-238 -412h-250l217 412z" />
    <glyph glyph-name="onequarter" unicode="&#xbc;" horiz-adv-x="1843" 
d="M1499 315v234q4 106 6 158h-2q-6 -11 -16 -31q-11 -20 -21 -37t-25 -43t-27 -46t-18 -28q-6 -10 -16 -25t-10 -18l-104 -164h233zM1681 315h119v-145h-119v-170h-186v170h-393v156l352 532h227v-543zM1442 1520l-850 -1565h-172l850 1565h172zM348 1194q0 33 4 45h-4
q-27 -27 -64 -56q-37 -28 -48 -38l-43 -33l-93 133l267 189h180v-859h-201v488q0 47 2 67v64z" />
    <glyph glyph-name="onehalf" unicode="&#xbd;" horiz-adv-x="1843" 
d="M1159 821q115 51 257 51t218 -59q95 -67 95 -192q0 -27 -9 -80q-34 -123 -167 -244q-86 -77 -121 -101t-64 -46v-5q78 4 127 5h252v-150h-604v152q109 86 172 143q76 63 119 115q47 51 65 98q23 39 23 96t-43 88q-47 27 -103 27q-104 0 -198 -57zM1442 1520l-850 -1565
h-172l850 1565h172zM348 1194q0 33 4 45h-4q-27 -27 -64 -56q-37 -28 -48 -38l-43 -33l-93 133l267 189h180v-859h-201v488q0 47 2 67v64z" />
    <glyph glyph-name="threequarters" unicode="&#xbe;" horiz-adv-x="1843" 
d="M1499 315v234q4 106 6 158h-2q-6 -11 -16 -31q-11 -20 -21 -37t-25 -43t-27 -46t-18 -28q-6 -10 -16 -25t-10 -18l-104 -164h233zM1681 315h119v-145h-119v-170h-186v170h-393v156l352 532h227v-543zM1442 1520l-850 -1565h-172l850 1565h172zM324 1303q-125 0 -209 -43
l-13 151q97 37 246 37q150 0 235 -58t85 -165q0 -164 -197 -199v-4q97 -12 153 -68t56 -128q0 -126 -102 -194q-102 -69 -246 -70q-145 -1 -254 28l10 162q103 -43 209 -43q184 0 184 120q1 65 -57 91t-162 26h-20q-19 0 -27 -4v143q6 -2 23 -2h24q209 0 209 106
q0 56 -41 85q-44 29 -106 29z" />
    <glyph glyph-name="questiondown" unicode="&#xbf;" horiz-adv-x="1032" 
d="M672 780h-287v275h287v-275zM580 -178q174 0 321 80l29 -236q-201 -70 -411 -70t-339 95q-129 94 -129 270q0 88 43 172q27 47 62 90q72 82 112 125q130 141 129 219q4 18 4 51v27h250v-27q0 -109 -21 -166q-22 -57 -54 -101q-32 -45 -90 -109t-95 -124t-37 -120
q0 -96 67 -136t159 -40z" />
    <glyph glyph-name="Agrave" unicode="&#xc0;" horiz-adv-x="1488" 
d="M834 881q-8 23 -20 56t-28 90q-17 57 -23 76q-5 19 -12 43t-16 58h-4q-4 -10 -10 -34t-15 -46t-24 -77t-55 -166l-119 -334h444zM1468 0h-313l-125 330h-596l-125 -330h-297l561 1430h326zM395 1872h285l172 -363h-164z" />
    <glyph glyph-name="Aacute" unicode="&#xc1;" horiz-adv-x="1488" 
d="M834 881q-8 23 -20 56t-28 90q-17 57 -23 76q-5 19 -12 43t-16 58h-4q-4 -10 -10 -34t-15 -46t-24 -77t-55 -166l-119 -334h444zM1468 0h-313l-125 330h-596l-125 -330h-297l561 1430h326zM780 1509h-164l172 363h285z" />
    <glyph glyph-name="Acircumflex" unicode="&#xc2;" horiz-adv-x="1488" 
d="M834 881q-8 23 -20 56t-28 90q-17 57 -23 76q-5 19 -12 43t-16 58h-4q-4 -10 -10 -34t-15 -46t-24 -77t-55 -166l-119 -334h444zM1468 0h-313l-125 330h-596l-125 -330h-297l561 1430h326zM854 1872l217 -363h-188l-144 230l-145 -230h-182l231 363h211z" />
    <glyph glyph-name="Atilde" unicode="&#xc3;" horiz-adv-x="1488" 
d="M834 881q-8 23 -20 56t-28 90q-17 57 -23 76q-5 19 -12 43t-16 58h-4q-4 -10 -10 -34t-15 -46t-24 -77t-55 -166l-119 -334h444zM1468 0h-313l-125 330h-596l-125 -330h-297l561 1430h326zM899 1716q74 0 86 103h107q-12 -121 -66 -189t-141 -67q-49 -1 -117 25t-115 41
q-98 31 -141 -3q-23 -31 -31 -76h-106q34 252 217 250q70 0 167 -42q96 -42 140 -42z" />
    <glyph glyph-name="Adieresis" unicode="&#xc4;" horiz-adv-x="1488" 
d="M834 881q-8 23 -20 56t-28 90q-17 57 -23 76q-5 19 -12 43t-16 58h-4q-4 -10 -10 -34t-15 -46t-24 -77t-55 -166l-119 -334h444zM1468 0h-313l-125 330h-596l-125 -330h-297l561 1430h326zM410 1823h235v-240h-235v240zM1069 1583h-235v240h235v-240z" />
    <glyph glyph-name="Aring" unicode="&#xc5;" horiz-adv-x="1488" 
d="M834 881q-8 23 -20 56t-28 90q-17 57 -23 76q-5 19 -12 43t-16 58h-4q-4 -10 -10 -34t-15 -46t-24 -77t-55 -166l-119 -334h444zM1468 0h-313l-125 330h-596l-125 -330h-297l561 1430h326zM736 1829q-48 0 -81 -33t-33 -83t34 -85q32 -35 80 -35t83 35t35 83t-35 83
t-83 35zM740 1925q40 0 83 -16q129 -63 129 -197q0 -45 -16 -83q-35 -84 -117 -113q-80 -33 -164 0q-35 14 -65 45q-62 54 -63 147q-1 92 61 154t152 63z" />
    <glyph glyph-name="AE" unicode="&#xc6;" horiz-adv-x="1947" 
d="M967 1176l-2 71h-4q-16 -43 -35 -76q-6 -16 -22 -48t-28 -58q-11 -26 -81 -156l-187 -352h414l-33 352q-6 68 -6 78zM1806 1192h-553l31 -344h481v-232h-458l32 -376h484v-240h-756l-27 328h-555l-174 -328h-307l784 1430h1018v-238z" />
    <glyph glyph-name="Ccedilla" unicode="&#xc7;" horiz-adv-x="1267" 
d="M844 -14q-20 0 -29 2l-18 -115q8 2 22 2h19q88 0 141 -35q59 -47 59 -111q0 -65 -22 -98q-18 -35 -58 -57q-62 -45 -160 -45t-157 14l12 103l56 -6q20 -4 51 -5q114 0 112 72q0 39 -28 55q-31 12 -86 12t-90 -10l22 236q-139 23 -248 82q-102 51 -188 147
q-158 199 -158 486q0 168 60 304t159 226q95 91 239 145t316 54t330 -51l-20 -248q-72 31 -148 51q-82 14 -172 14t-176 -32q-183 -66 -246 -244q-35 -86 -35 -208q0 -226 138 -372q140 -129 328 -129q189 0 327 56l10 -248q-151 -47 -334 -47h-28z" />
    <glyph glyph-name="Egrave" unicode="&#xc8;" horiz-adv-x="1148" 
d="M172 1430h846v-238h-561v-344h516v-232h-516v-376h567v-240h-852v1430zM260 1872h285l172 -363h-164z" />
    <glyph glyph-name="Eacute" unicode="&#xc9;" horiz-adv-x="1148" 
d="M172 1430h846v-238h-561v-344h516v-232h-516v-376h567v-240h-852v1430zM645 1509h-164l172 363h285z" />
    <glyph glyph-name="Ecircumflex" unicode="&#xca;" horiz-adv-x="1148" 
d="M172 1430h846v-238h-561v-344h516v-232h-516v-376h567v-240h-852v1430zM709 1872l217 -363h-189l-143 230l-145 -230h-183l232 363h211z" />
    <glyph glyph-name="Edieresis" unicode="&#xcb;" horiz-adv-x="1148" 
d="M172 1430h846v-238h-561v-344h516v-232h-516v-376h567v-240h-852v1430zM281 1823h235v-240h-235v240zM940 1583h-235v240h235v-240z" />
    <glyph glyph-name="Igrave" unicode="&#xcc;" horiz-adv-x="632" 
d="M-18 1872h284l172 -363h-164zM172 1430h289v-1430h-289v1430z" />
    <glyph glyph-name="Iacute" unicode="&#xcd;" horiz-adv-x="632" 
d="M172 1430h289v-1430h-289v1430zM362 1509h-163l172 363h284z" />
    <glyph glyph-name="Icircumflex" unicode="&#xce;" horiz-adv-x="632" 
d="M172 1430h289v-1430h-289v1430zM434 1872l217 -363h-188l-144 230l-145 -230h-182l231 363h211z" />
    <glyph glyph-name="Idieresis" unicode="&#xcf;" horiz-adv-x="632" 
d="M-4 1823h235v-240h-235v240zM655 1583h-235v240h235v-240zM172 1430h289v-1430h-289v1430z" />
    <glyph glyph-name="Eth" unicode="&#xd0;" horiz-adv-x="1505" 
d="M461 797h262v-129h-262v-449h76q258 0 405 111q166 126 166 381q0 256 -166 391q-141 104 -405 102h-76v-407zM563 1430q385 0 604 -162q238 -185 239 -548t-243 -554q-121 -90 -268 -125q-145 -41 -332 -41h-391v668h-109v129h109v633h391z" />
    <glyph glyph-name="Ntilde" unicode="&#xd1;" horiz-adv-x="1536" 
d="M1112 410q-8 92 -8 419v601h260v-1430h-365l-366 700q-54 102 -170 353q-31 74 -37 88h-4q4 -24 4 -92q4 -40 4 -131v-138q2 -45 2 -112v-668h-260v1430h385l361 -707l20 -40t23 -48q10 -19 28 -59t35 -75t40 -85q22 -51 33 -75q11 -25 15 -36h4q-4 28 -4 105zM948 1716
q74 0 86 103h107q-11 -121 -65 -189t-142 -67q-49 -1 -117 25t-115 41q-97 31 -141 -3q-23 -31 -31 -76h-106q16 119 70 185q54 65 136 65q81 0 178 -42q96 -42 140 -42z" />
    <glyph glyph-name="Ograve" unicode="&#xd2;" horiz-adv-x="1605" 
d="M799 1231q-88 0 -157 -36q-69 -35 -122 -105t-78 -164q-28 -88 -28 -211q1 -232 106 -375q114 -141 287 -141q90 0 156 39q143 72 202 266q29 102 29 213t-27 213q-35 104 -83 166t-121 100q-76 35 -164 35zM1311 176q-96 -100 -221 -147q-127 -53 -289 -53
q-321 -1 -508 198t-188 547q-1 349 185 541t515 192q328 0 510 -197q186 -198 186 -535t-190 -546zM469 1872h285l172 -363h-164z" />
    <glyph glyph-name="Oacute" unicode="&#xd3;" horiz-adv-x="1605" 
d="M799 1231q-88 0 -157 -36q-69 -35 -122 -105t-78 -164q-28 -88 -28 -211q1 -232 106 -375q114 -141 287 -141q90 0 156 39q143 72 202 266q29 102 29 213t-27 213q-35 104 -83 166t-121 100q-76 35 -164 35zM1311 176q-96 -100 -221 -147q-127 -53 -289 -53
q-321 -1 -508 198t-188 547q-1 349 185 541t515 192q328 0 510 -197q186 -198 186 -535t-190 -546zM831 1509h-163l172 363h284z" />
    <glyph glyph-name="Ocircumflex" unicode="&#xd4;" horiz-adv-x="1605" 
d="M799 1231q-88 0 -157 -36q-69 -35 -122 -105t-78 -164q-28 -88 -28 -211q1 -232 106 -375q114 -141 287 -141q90 0 156 39q143 72 202 266q29 102 29 213t-27 213q-35 104 -83 166t-121 100q-76 35 -164 35zM1311 176q-96 -100 -221 -147q-127 -53 -289 -53
q-321 -1 -508 198t-188 547q-1 349 185 541t515 192q328 0 510 -197q186 -198 186 -535t-190 -546zM909 1872l217 -363h-188l-143 230l-146 -230h-182l231 363h211z" />
    <glyph glyph-name="Otilde" unicode="&#xd5;" horiz-adv-x="1605" 
d="M799 1231q-88 0 -157 -36q-69 -35 -122 -105t-78 -164q-28 -88 -28 -211q1 -232 106 -375q114 -141 287 -141q90 0 156 39q143 72 202 266q29 102 29 213t-27 213q-35 104 -83 166t-121 100q-76 35 -164 35zM1311 176q-96 -100 -221 -147q-127 -53 -289 -53
q-321 -1 -508 198t-188 547q-1 349 185 541t515 192q328 0 510 -197q186 -198 186 -535t-190 -546zM954 1716q74 0 86 103h107q-12 -127 -66 -189q-49 -68 -141 -67q-49 1 -116 25q-66 24 -98 35t-42 15q-46 8 -70 8t-47 -22q-23 -23 -30 -74h-107q16 119 70 185
q54 65 136 65q81 0 164 -36q82 -36 105 -42t49 -6z" />
    <glyph glyph-name="Odieresis" unicode="&#xd6;" horiz-adv-x="1605" 
d="M799 1231q-88 0 -157 -36q-69 -35 -122 -105t-78 -164q-28 -88 -28 -211q1 -232 106 -375q114 -141 287 -141q90 0 156 39q143 72 202 266q29 102 29 213t-27 213q-35 104 -83 166t-121 100q-76 35 -164 35zM1311 176q-96 -100 -221 -147q-127 -53 -289 -53
q-321 -1 -508 198t-188 547q-1 349 185 541t515 192q328 0 510 -197q186 -198 186 -535t-190 -546zM469 1823h236v-240h-236v240zM1128 1583h-235v240h235v-240z" />
    <glyph glyph-name="multiply" unicode="&#xd7;" 
d="M442 530l-364 365l166 166l364 -365l365 365l168 -166l-367 -365l367 -364l-168 -166l-365 365l-364 -365l-166 166z" />
    <glyph glyph-name="Oslash" unicode="&#xd8;" horiz-adv-x="1605" 
d="M799 1235q-90 0 -156 -39q-70 -36 -123 -106t-78 -164q-28 -88 -28 -242t65 -281l570 734q-103 98 -250 98zM1194 715q0 190 -70 321l-571 -735q102 -102 254 -102q90 0 156 39q143 72 202 266q29 102 29 211zM815 1458q233 0 395 -110l115 147l96 -76l-116 -149
q196 -205 196 -549q0 -336 -190 -545q-96 -100 -221 -147q-127 -53 -291 -54q-232 0 -410 115l-119 -153l-94 75l121 158q-191 195 -192 545t184 546q185 197 526 197z" />
    <glyph glyph-name="Ugrave" unicode="&#xd9;" horiz-adv-x="1486" 
d="M1325 567q0 -590 -586 -592q-307 0 -442 150t-135 442v863h291v-842q0 -205 71 -291q68 -90 222 -90t229 89q74 89 74 292v842h276v-863zM416 1872h284l172 -363h-163z" />
    <glyph glyph-name="Uacute" unicode="&#xda;" horiz-adv-x="1486" 
d="M1325 567q0 -590 -586 -592q-307 0 -442 150t-135 442v863h291v-842q0 -205 71 -291q68 -90 222 -90t229 89q74 89 74 292v842h276v-863zM760 1509h-164l172 363h285z" />
    <glyph glyph-name="Ucircumflex" unicode="&#xdb;" horiz-adv-x="1486" 
d="M1325 567q0 -590 -586 -592q-307 0 -442 150t-135 442v863h291v-842q0 -205 71 -291q68 -90 222 -90t229 89q74 89 74 292v842h276v-863zM858 1872l217 -363h-188l-144 230l-145 -230h-182l231 363h211z" />
    <glyph glyph-name="Udieresis" unicode="&#xdc;" horiz-adv-x="1486" 
d="M1325 567q0 -590 -586 -592q-307 0 -442 150t-135 442v863h291v-842q0 -205 71 -291q68 -90 222 -90t229 89q74 89 74 292v842h276v-863zM408 1823h235v-240h-235v240zM1067 1583h-236v240h236v-240z" />
    <glyph glyph-name="Yacute" unicode="&#xdd;" horiz-adv-x="1361" 
d="M829 0h-288v569l-529 861h338l162 -289q28 -47 66 -121t54 -106l28 -56q11 -24 32 -61h4q20 39 38 77t36 67q18 30 37 64q18 33 39 73t33 63l157 289h314l-521 -863v-567zM762 1509h-164l172 363h285z" />
    <glyph glyph-name="Thorn" unicode="&#xde;" horiz-adv-x="1175" 
d="M461 567h51q84 0 135 11q55 6 103 32q90 58 90 184t-84 174t-244 48h-51v-449zM172 1430h289v-197h71q271 0 422 -86q179 -109 181 -352q0 -131 -50 -213q-45 -82 -129 -140q-84 -49 -190 -73q-123 -20 -234 -21h-71v-348h-289v1430z" />
    <glyph glyph-name="germandbls" unicode="&#xdf;" horiz-adv-x="1265" 
d="M915 461q0 117 -77 178q-80 57 -211 57h-37v205h33q101 -1 165 59t64 166t-53 166q-53 62 -131 62t-123 -29q-93 -52 -111 -201q-12 -72 -12 -151v-973h-275v1012q-1 270 141 407t384 137q200 0 328 -111t126 -290q0 -129 -72 -219t-202 -121v-4q160 -27 250 -123
t90 -250q0 -104 -37 -184q-65 -162 -256 -236q-86 -32 -192 -32t-170 20l6 219q45 -18 116 -18q127 0 193 67q63 70 63 187z" />
    <glyph glyph-name="agrave" unicode="&#xe0;" horiz-adv-x="1140" 
d="M676 489q-336 1 -336 -155t164 -156q116 0 184 72q78 78 78 235q-37 4 -49 4h-41zM788 0q-4 16 -4 80t4 96h-4q-113 -196 -362 -196q-148 0 -254 86q-100 100 -98 241q0 168 139 254q137 90 403 90h72q29 -2 78 -6q0 123 -60 178t-200 55q-141 0 -309 -94l-11 213
q168 82 392 82q223 0 339 -116q105 -113 105 -314q0 -45 -2 -71v-170q-2 -27 -2 -105t14 -303h-240zM285 1548h284l172 -362h-163z" />
    <glyph glyph-name="aacute" unicode="&#xe1;" horiz-adv-x="1140" 
d="M676 489q-336 1 -336 -155t164 -156q116 0 184 72q78 78 78 235q-37 4 -49 4h-41zM788 0q-4 16 -4 80t4 96h-4q-113 -196 -362 -196q-148 0 -254 86q-100 100 -98 241q0 168 139 254q137 90 403 90h72q29 -2 78 -6q0 123 -60 178t-200 55q-141 0 -309 -94l-11 213
q168 82 392 82q223 0 339 -116q105 -113 105 -314q0 -45 -2 -71v-170q-2 -27 -2 -105t14 -303h-240zM618 1186h-163l172 362h284z" />
    <glyph glyph-name="acircumflex" unicode="&#xe2;" horiz-adv-x="1140" 
d="M676 489q-336 1 -336 -155t164 -156q116 0 184 72q78 78 78 235q-37 4 -49 4h-41zM788 0q-4 16 -4 80t4 96h-4q-113 -196 -362 -196q-148 0 -254 86q-100 100 -98 241q0 168 139 254q137 90 403 90h72q29 -2 78 -6q0 123 -60 178t-200 55q-141 0 -309 -94l-11 213
q168 82 392 82q223 0 339 -116q105 -113 105 -314q0 -45 -2 -71v-170q-2 -27 -2 -105t14 -303h-240zM713 1548l217 -362h-189l-143 229l-145 -229h-183l232 362h211z" />
    <glyph glyph-name="atilde" unicode="&#xe3;" horiz-adv-x="1140" 
d="M676 489q-336 1 -336 -155t164 -156q116 0 184 72q78 78 78 235q-37 4 -49 4h-41zM788 0q-4 16 -4 80t4 96h-4q-113 -196 -362 -196q-148 0 -254 86q-100 100 -98 241q0 168 139 254q137 90 403 90h72q29 -2 78 -6q0 123 -60 178t-200 55q-141 0 -309 -94l-11 213
q168 82 392 82q223 0 339 -116q105 -113 105 -314q0 -45 -2 -71v-170q-2 -27 -2 -105t14 -303h-240zM756 1372q74 0 86 103h106q-12 -121 -65 -189t-142 -67q-49 -1 -117 25t-115 41q-48 15 -81 17q-33 1 -59 -20q-23 -31 -31 -76h-107q34 252 218 250q69 0 166 -42t141 -42
z" />
    <glyph glyph-name="adieresis" unicode="&#xe4;" horiz-adv-x="1140" 
d="M676 489q-336 1 -336 -155t164 -156q116 0 184 72q78 78 78 235q-37 4 -49 4h-41zM788 0q-4 16 -4 80t4 96h-4q-113 -196 -362 -196q-148 0 -254 86q-100 100 -98 241q0 168 139 254q137 90 403 90h72q29 -2 78 -6q0 123 -60 178t-200 55q-141 0 -309 -94l-11 213
q168 82 392 82q223 0 339 -116q105 -113 105 -314q0 -45 -2 -71v-170q-2 -27 -2 -105t14 -303h-240zM258 1505h236v-239h-236v239zM918 1266h-236v239h236v-239z" />
    <glyph glyph-name="aring" unicode="&#xe5;" horiz-adv-x="1140" 
d="M676 489q-336 1 -336 -155t164 -156q116 0 184 72q78 78 78 235q-37 4 -49 4h-41zM788 0q-4 16 -4 80t4 96h-4q-113 -196 -362 -196q-148 0 -254 86q-100 100 -98 241q0 168 139 254q137 90 403 90h72q29 -2 78 -6q0 123 -60 178t-200 55q-141 0 -309 -94l-11 213
q168 82 392 82q223 0 339 -116q105 -113 105 -314q0 -45 -2 -71v-170q-2 -27 -2 -105t14 -303h-240zM576 1475q-46 0 -82 -33q-33 -35 -33 -84t34 -84q35 -35 81 -35t81 35t35 83t-35 83t-81 35zM581 1571q42 0 78 -19q35 -12 68 -44q62 -60 64 -150q1 -41 -17 -82
q-35 -82 -115 -115q-45 -16 -85 -16q-84 0 -147 61q-62 61 -62 151q1 91 63 152q62 62 153 62z" />
    <glyph glyph-name="ae" unicode="&#xe6;" horiz-adv-x="1802" 
d="M725 489h-49q-166 1 -251 -37t-85 -130q0 -68 42 -108t108 -40q134 0 198 76q78 78 78 235q-25 4 -41 4zM1475 639q0 125 -58 188q-63 57 -162 58q-49 0 -88 -17q-41 -12 -73 -45q-31 -27 -58 -78q-20 -49 -26 -106h465zM1722 516q0 -55 -4 -65h-704q12 -184 197 -248
q58 -20 132 -21q166 0 306 86l4 -225q-125 -66 -342 -68q-136 0 -262 62q-118 64 -166 170h-4q-51 -103 -155 -167t-263 -65q-271 0 -361 185q-31 61 -30 147q0 172 143 258t412 86q59 0 137 -6q0 121 -57 178q-61 55 -181 56q-169 0 -329 -95l-13 215q178 80 371 80
q281 0 365 -172q57 84 143 125q86 47 205 47q225 0 344 -137q113 -143 112 -426z" />
    <glyph glyph-name="ccedilla" unicode="&#xe7;" horiz-adv-x="942" 
d="M674 862q-154 0 -236 -98q-80 -84 -81 -238t77 -235q78 -96 244 -94q100 0 178 36l14 -215q-117 -32 -223 -32h-33l-18 -113q8 2 22 2h19q89 0 141 -35q58 -46 59 -111t-22 -98q-18 -35 -57 -57q-62 -45 -160 -45t-158 14l13 103l55 -6q20 -4 51 -5q113 0 113 72
q0 39 -29 55q-51 20 -106 13q-54 -6 -70 -11l25 236q-195 39 -310 176q-113 137 -112 346q0 254 168 400q149 145 407 145q123 0 213 -29l-20 -209q-80 33 -164 33z" />
    <glyph glyph-name="egrave" unicode="&#xe8;" horiz-adv-x="1150" 
d="M819 639q0 125 -59 188q-62 57 -158 57t-164 -61q-72 -61 -82 -184h463zM1071 516q0 -55 -4 -65h-707q4 -125 95 -195q88 -72 246 -72t292 86l4 -225q-136 -68 -304 -69q-169 -1 -274 35t-181 108q-158 150 -158 413q0 244 148 396q148 151 380 151q463 0 463 -563z
M264 1548h285l172 -362h-164z" />
    <glyph glyph-name="eacute" unicode="&#xe9;" horiz-adv-x="1150" 
d="M819 639q0 125 -59 188q-62 57 -158 57t-164 -61q-72 -61 -82 -184h463zM1071 516q0 -55 -4 -65h-707q4 -125 95 -195q88 -72 246 -72t292 86l4 -225q-136 -68 -304 -69q-169 -1 -274 35t-181 108q-158 150 -158 413q0 244 148 396q148 151 380 151q463 0 463 -563z
M647 1186h-164l172 362h285z" />
    <glyph glyph-name="ecircumflex" unicode="&#xea;" horiz-adv-x="1150" 
d="M819 639q0 125 -59 188q-62 57 -158 57t-164 -61q-72 -61 -82 -184h463zM1071 516q0 -55 -4 -65h-707q4 -125 95 -195q88 -72 246 -72t292 86l4 -225q-136 -68 -304 -69q-169 -1 -274 35t-181 108q-158 150 -158 413q0 244 148 396q148 151 380 151q463 0 463 -563z
M705 1548l217 -362h-189l-143 229l-146 -229h-182l232 362h211z" />
    <glyph glyph-name="edieresis" unicode="&#xeb;" horiz-adv-x="1150" 
d="M819 639q0 125 -59 188q-62 57 -158 57t-164 -61q-72 -61 -82 -184h463zM1071 516q0 -55 -4 -65h-707q4 -125 95 -195q88 -72 246 -72t292 86l4 -225q-136 -68 -304 -69q-169 -1 -274 35t-181 108q-158 150 -158 413q0 244 148 396q148 151 380 151q463 0 463 -563z
M264 1505h236v-239h-236v239zM924 1266h-236v239h236v-239z" />
    <glyph glyph-name="igrave" unicode="&#xec;" horiz-adv-x="589" 
d="M-59 1548h284l172 -362h-164zM158 1055h274v-1055h-274v1055z" />
    <glyph glyph-name="iacute" unicode="&#xed;" horiz-adv-x="589" 
d="M158 1055h274v-1055h-274v1055zM354 1186h-164l172 362h285z" />
    <glyph glyph-name="icircumflex" unicode="&#xee;" horiz-adv-x="589" 
d="M158 1055h274v-1055h-274v1055zM418 1548l217 -362h-189l-143 229l-145 -229h-183l232 362h211z" />
    <glyph glyph-name="idieresis" unicode="&#xef;" horiz-adv-x="589" 
d="M-25 1505h236v-239h-236v239zM635 1266h-236v239h236v-239zM158 1055h274v-1055h-274v1055z" />
    <glyph glyph-name="eth" unicode="&#xf0;" horiz-adv-x="1275" 
d="M642 825q-58 0 -114 -22q-102 -52 -139 -168q-18 -61 -18 -132q1 -71 23 -132q46 -124 141 -158q45 -23 104 -23q111 0 188 84q76 84 76 236q0 74 -20 133q-51 125 -140 160q-43 22 -101 22zM1196 588q0 -277 -156 -445q-155 -168 -406 -168t-402 144q-152 144 -152 371
t137 387q145 145 334 145t293 -92h4q-45 104 -123 184q-74 80 -170 146l-221 -130l-90 95l190 108q-66 42 -93 52q-35 14 -114 49l176 157q138 -56 252 -127l195 115l88 -94l-166 -92q424 -304 424 -805z" />
    <glyph glyph-name="ntilde" unicode="&#xf1;" horiz-adv-x="1284" 
d="M762 1079q197 0 295 -125q82 -108 84 -340v-614h-271v508q0 187 -26 252q-23 47 -58 74q-40 26 -106 26t-125 -37q-55 -39 -90 -100q-45 -88 -45 -246v-477h-270v727q0 171 -11 328h260q9 -140 9 -176h4q121 200 350 200zM838 1372q74 0 86 103h106q-12 -121 -65 -189
t-142 -67q-49 -1 -117 25t-115 41q-48 15 -81 17q-33 1 -59 -20q-23 -31 -31 -76h-107q17 119 71 185q54 65 135 65t162 -35t107 -42t50 -7z" />
    <glyph glyph-name="ograve" unicode="&#xf2;" horiz-adv-x="1269" 
d="M901 535q-1 164 -71 253t-193 89q-123 -1 -194 -91t-71 -253t70 -257q74 -92 195 -92t190 95q74 92 74 256zM635 1079q123 0 229 -39q102 -42 172 -110t115 -176q39 -111 39 -228t-39 -227q-91 -206 -291 -285q-98 -39 -226 -39t-224 41q-98 35 -177 111q-76 78 -112 176
q-41 100 -41 224q0 251 156 403q158 149 399 149zM328 1548h284l172 -362h-163z" />
    <glyph glyph-name="oacute" unicode="&#xf3;" horiz-adv-x="1269" 
d="M901 535q-1 164 -71 253t-193 89q-123 -1 -194 -91t-71 -253t70 -257q74 -92 195 -92t190 95q74 92 74 256zM635 1079q123 0 229 -39q102 -42 172 -110t115 -176q39 -111 39 -228t-39 -227q-91 -206 -291 -285q-98 -39 -226 -39t-224 41q-98 35 -177 111q-76 78 -112 176
q-41 100 -41 224q0 251 156 403q158 149 399 149zM657 1186h-163l172 362h284z" />
    <glyph glyph-name="ocircumflex" unicode="&#xf4;" horiz-adv-x="1269" 
d="M901 535q-1 164 -71 253t-193 89q-123 -1 -194 -91t-71 -253t70 -257q74 -92 195 -92t190 95q74 92 74 256zM635 1079q123 0 229 -39q102 -42 172 -110t115 -176q39 -111 39 -228t-39 -227q-91 -206 -291 -285q-98 -39 -226 -39t-224 41q-98 35 -177 111q-76 78 -112 176
q-41 100 -41 224q0 251 156 403q158 149 399 149zM756 1548l217 -362h-189l-143 229l-145 -229h-183l232 362h211z" />
    <glyph glyph-name="otilde" unicode="&#xf5;" horiz-adv-x="1269" 
d="M901 535q-1 164 -71 253t-193 89q-123 -1 -194 -91t-71 -253t70 -257q74 -92 195 -92t190 95q74 92 74 256zM635 1079q123 0 229 -39q102 -42 172 -110t115 -176q39 -111 39 -228t-39 -227q-91 -206 -291 -285q-98 -39 -226 -39t-224 41q-98 35 -177 111q-76 78 -112 176
q-41 100 -41 224q0 251 156 403q158 149 399 149zM807 1372q74 0 86 103h106q-12 -127 -65 -189q-49 -68 -141 -67q-49 1 -116 25t-99 35t-41 15q-45 8 -70 8t-47 -22q-22 -23 -31 -74h-106q34 252 217 250q70 0 153 -36q82 -36 105 -42t49 -6z" />
    <glyph glyph-name="odieresis" unicode="&#xf6;" horiz-adv-x="1269" 
d="M901 535q-1 164 -71 253t-193 89q-123 -1 -194 -91t-71 -253t70 -257q74 -92 195 -92t190 95q74 92 74 256zM635 1079q123 0 229 -39q102 -42 172 -110t115 -176q39 -111 39 -228t-39 -227q-91 -206 -291 -285q-98 -39 -226 -39t-224 41q-98 35 -177 111q-76 78 -112 176
q-41 100 -41 224q0 251 156 403q158 149 399 149zM311 1505h236v-239h-236v239zM971 1266h-236v239h236v-239z" />
    <glyph glyph-name="divide" unicode="&#xf7;" 
d="M479 1053h273v-273h-273v273zM74 645h1073v-221h-1073v221zM479 289h273v-273h-273v273z" />
    <glyph glyph-name="oslash" unicode="&#xf8;" horiz-adv-x="1269" 
d="M362 522q0 -94 39 -182l406 487q-51 58 -173 59t-197 -93t-75 -271zM635 180q139 0 210 100t71 233q0 132 -39 224l-412 -485q66 -72 170 -72zM641 1081q197 0 311 -82l109 131l82 -67l-109 -131q72 -72 113 -182t41 -232q0 -123 -41 -219q-35 -96 -111 -170
q-156 -152 -399 -152q-176 0 -322 95l-116 -138l-84 66l116 141q-147 150 -147 381q0 125 39 232q86 209 291 288q98 39 227 39z" />
    <glyph glyph-name="ugrave" unicode="&#xf9;" horiz-adv-x="1284" 
d="M881 174h-4q-49 -78 -138 -141q-89 -57 -197 -57q-198 -1 -299 112q-100 114 -100 297v670h271v-547q0 -152 39 -221q43 -88 157 -87t183 92t69 236v527h273v-908q4 -102 10 -147h-256q-8 78 -8 174zM309 1548h285l172 -362h-164z" />
    <glyph glyph-name="uacute" unicode="&#xfa;" horiz-adv-x="1284" 
d="M881 174h-4q-49 -78 -138 -141q-89 -57 -197 -57q-198 -1 -299 112q-100 114 -100 297v670h271v-547q0 -152 39 -221q43 -88 157 -87t183 92t69 236v527h273v-908q4 -102 10 -147h-256q-8 78 -8 174zM659 1186h-163l172 362h284z" />
    <glyph glyph-name="ucircumflex" unicode="&#xfb;" horiz-adv-x="1284" 
d="M881 174h-4q-49 -78 -138 -141q-89 -57 -197 -57q-198 -1 -299 112q-100 114 -100 297v670h271v-547q0 -152 39 -221q43 -88 157 -87t183 92t69 236v527h273v-908q4 -102 10 -147h-256q-8 78 -8 174zM754 1548l217 -362h-189l-143 229l-145 -229h-183l232 362h211z" />
    <glyph glyph-name="udieresis" unicode="&#xfc;" horiz-adv-x="1284" 
d="M881 174h-4q-49 -78 -138 -141q-89 -57 -197 -57q-198 -1 -299 112q-100 114 -100 297v670h271v-547q0 -152 39 -221q43 -88 157 -87t183 92t69 236v527h273v-908q4 -102 10 -147h-256q-8 78 -8 174zM309 1505h236v-239h-236v239zM969 1266h-236v239h236v-239z" />
    <glyph glyph-name="yacute" unicode="&#xfd;" horiz-adv-x="1146" 
d="M639 -225q-118 -230 -370 -230q-93 0 -189 29l20 205q60 -21 132 -21t120 42t82 155l-409 1100h299l163 -510q20 -66 40 -128t57 -196h4q25 102 96 324l164 510h276l-415 -1129q-31 -82 -70 -151zM606 1186h-164l172 362h285z" />
    <glyph glyph-name="thorn" unicode="&#xfe;" horiz-adv-x="1300" 
d="M502 770q-70 -100 -71 -240q-1 -139 69 -245q35 -43 82 -72q49 -25 108 -25q118 0 184 98t66 246t-62 241t-182 93q-119 0 -194 -96zM426 117v-74q2 -27 2 -74v-403h-270v1982h270v-418q0 -57 -2 -88v-92l-4 -59h4q119 188 354 188q94 0 183 -39q164 -86 225 -286
q31 -98 31 -219q0 -248 -123 -402q-56 -74 -144 -116t-192 -42q-224 0 -334 195h-4q4 -12 4 -53z" />
    <glyph glyph-name="ydieresis" unicode="&#xff;" horiz-adv-x="1146" 
d="M639 -225q-118 -230 -370 -230q-93 0 -189 29l20 205q60 -21 132 -21t120 42t82 155l-409 1100h299l163 -510q20 -66 40 -128t57 -196h4q25 102 96 324l164 510h276l-415 -1129q-31 -82 -70 -151zM252 1505h235v-239h-235v239zM911 1266h-235v239h235v-239z" />
    <glyph glyph-name="Amacron" unicode="&#x100;" horiz-adv-x="1488" 
d="M834 881q-8 23 -20 56t-28 90q-17 57 -23 76q-5 19 -12 43t-16 58h-4q-4 -10 -10 -34t-15 -46t-24 -77t-55 -166l-119 -334h444zM1468 0h-313l-125 330h-596l-125 -330h-297l561 1430h326zM438 1767h598v-137h-598v137z" />
    <glyph glyph-name="amacron" unicode="&#x101;" horiz-adv-x="1140" 
d="M676 489q-336 1 -336 -155t164 -156q116 0 184 72q78 78 78 235q-37 4 -49 4h-41zM788 0q-4 16 -4 80t4 96h-4q-113 -196 -362 -196q-148 0 -254 86q-100 100 -98 241q0 168 139 254q137 90 403 90h72q29 -2 78 -6q0 123 -60 178t-200 55q-141 0 -309 -94l-11 213
q168 82 392 82q223 0 339 -116q105 -113 105 -314q0 -45 -2 -71v-170q-2 -27 -2 -105t14 -303h-240zM297 1417h598v-137h-598v137z" />
    <glyph glyph-name="Abreve" unicode="&#x102;" horiz-adv-x="1488" 
d="M834 881q-8 23 -20 56t-28 90q-17 57 -23 76q-5 19 -12 43t-16 58h-4q-4 -10 -10 -34t-15 -46t-24 -77t-55 -166l-119 -334h444zM1468 0h-313l-125 330h-596l-125 -330h-297l561 1430h326zM737 1653q84 0 133 55q47 57 70 147h139q-10 -74 -39 -135q-24 -61 -72 -111
t-102 -73q-55 -29 -128 -29t-136 29q-122 66 -176 193q-25 55 -29 126h142q2 -88 58 -145t140 -57z" />
    <glyph glyph-name="abreve" unicode="&#x103;" horiz-adv-x="1140" 
d="M676 489q-336 1 -336 -155t164 -156q116 0 184 72q78 78 78 235q-37 4 -49 4h-41zM788 0q-4 16 -4 80t4 96h-4q-113 -196 -362 -196q-148 0 -254 86q-100 100 -98 241q0 168 139 254q137 90 403 90h72q29 -2 78 -6q0 123 -60 178t-200 55q-141 0 -309 -94l-11 213
q168 82 392 82q223 0 339 -116q105 -113 105 -314q0 -45 -2 -71v-170q-2 -27 -2 -105t14 -303h-240zM582 1346q84 0 133 55q47 57 69 147h140q-10 -74 -39 -135q-23 -61 -72 -111t-102 -73q-55 -29 -128 -29t-137 29q-121 66 -176 192q-25 55 -28 127h141q2 -88 58 -145
q57 -57 141 -57z" />
    <glyph glyph-name="Aogonek" unicode="&#x104;" horiz-adv-x="1488" 
d="M944 551l-162 446q-4 7 -10 25t-15 44t-26 91q-17 -63 -27 -91t-22 -64q-12 -34 -18 -48l-144 -403h424zM1163 -238q0 -77 94 -77q65 0 117 24l21 -121q-85 -30 -177 -30t-151 36q-33 18 -53 54q-20 29 -21 91t30 109q48 76 136 152l-127 326h-594l-121 -326h-297
l555 1430h324l569 -1430h-159q-146 -146 -146 -238z" />
    <glyph glyph-name="aogonek" unicode="&#x105;" horiz-adv-x="1140" 
d="M676 489q-336 1 -336 -155t164 -156q116 0 184 72q78 78 78 235q-25 4 -41 4h-49zM793 0q-9 54 -9 99t4 77h-4q-115 -196 -362 -196q-148 0 -254 86q-100 100 -98 241q0 168 139 254q137 90 403 90h72q29 -2 78 -6q0 123 -60 178t-200 55q-141 0 -309 -94l-11 213
q168 82 392 82q223 0 339 -116q105 -113 105 -314l-4 -274v-82q0 -88 7 -180t7 -113h-88q-145 -145 -145 -238q0 -77 94 -77q63 0 117 24l20 -121q-86 -30 -178 -30t-150 36q-33 18 -53 54q-20 28 -20 90t37 121t131 141z" />
    <glyph glyph-name="Cacute" unicode="&#x106;" horiz-adv-x="1267" 
d="M871 1444q183 0 329 -51l-20 -248q-66 29 -148 51q-86 14 -174 14t-174 -32q-183 -66 -246 -244q-35 -86 -35 -208q0 -226 138 -372q140 -129 328 -129q189 0 327 56l10 -248q-151 -47 -329 -47q-360 0 -566 192q-215 201 -215 535q0 170 58 305q116 268 399 375
q135 51 318 51zM858 1509h-164l172 363h285z" />
    <glyph glyph-name="cacute" unicode="&#x107;" horiz-adv-x="942" 
d="M674 862q-154 0 -236 -98q-80 -84 -81 -238t77 -235q78 -96 244 -94q100 0 178 36l14 -215q-255 -70 -460 7q-106 37 -184 107q-156 142 -156 390q0 254 168 400q149 145 407 145q123 0 213 -29l-20 -209q-80 33 -164 33zM635 1186h-164l172 362h285z" />
    <glyph glyph-name="Ccircumflex" unicode="&#x108;" horiz-adv-x="1267" 
d="M871 1444q183 0 329 -51l-20 -248q-66 29 -148 51q-86 14 -174 14t-174 -32q-183 -66 -246 -244q-35 -86 -35 -208q0 -226 138 -372q140 -129 328 -129q189 0 327 56l10 -248q-151 -47 -329 -47q-360 0 -566 192q-215 201 -215 535q0 170 58 305q116 268 399 375
q135 51 318 51zM922 1872l217 -363h-189l-143 230l-145 -230h-183l232 363h211z" />
    <glyph glyph-name="ccircumflex" unicode="&#x109;" horiz-adv-x="942" 
d="M674 862q-154 0 -236 -98q-80 -84 -81 -238t77 -235q78 -96 244 -94q100 0 178 36l14 -215q-255 -70 -460 7q-106 37 -184 107q-156 142 -156 390q0 254 168 400q149 145 407 145q123 0 213 -29l-20 -209q-80 33 -164 33zM686 1548l217 -362h-188l-144 229l-145 -229
h-182l231 362h211z" />
    <glyph glyph-name="Cdotaccent" unicode="&#x10a;" horiz-adv-x="1267" 
d="M871 1444q183 0 329 -51l-20 -248q-66 29 -148 51q-86 14 -174 14t-174 -32q-183 -66 -246 -244q-35 -86 -35 -208q0 -226 138 -372q140 -129 328 -129q189 0 327 56l10 -248q-151 -47 -329 -47q-360 0 -566 192q-215 201 -215 535q0 170 58 305q116 268 399 375
q135 51 318 51zM981 1577h-281v262h281v-262z" />
    <glyph glyph-name="cdotaccent" unicode="&#x10b;" horiz-adv-x="942" 
d="M674 862q-154 0 -236 -98q-80 -84 -81 -238t77 -235q78 -96 244 -94q100 0 178 36l14 -215q-255 -70 -460 7q-106 37 -184 107q-156 142 -156 390q0 254 168 400q149 145 407 145q123 0 213 -29l-20 -209q-80 33 -164 33zM745 1255h-280v263h280v-263z" />
    <glyph glyph-name="Ccaron" unicode="&#x10c;" horiz-adv-x="1267" 
d="M871 1444q183 0 329 -51l-20 -248q-66 29 -148 51q-86 14 -174 14t-174 -32q-183 -66 -246 -244q-35 -86 -35 -208q0 -226 138 -372q140 -129 328 -129q189 0 327 56l10 -248q-151 -47 -329 -47q-360 0 -566 192q-215 201 -215 535q0 170 58 305q116 268 399 375
q135 51 318 51zM717 1509l-217 363h188l143 -230l146 230h182l-231 -363h-211z" />
    <glyph glyph-name="ccaron" unicode="&#x10d;" horiz-adv-x="942" 
d="M674 862q-154 0 -236 -98q-80 -84 -81 -238t77 -235q78 -96 244 -94q100 0 178 36l14 -215q-255 -70 -460 7q-106 37 -184 107q-156 142 -156 390q0 254 168 400q149 145 407 145q123 0 213 -29l-20 -209q-80 33 -164 33zM471 1186l-217 362h188l144 -229l145 229h182
l-231 -362h-211z" />
    <glyph glyph-name="Dcaron" unicode="&#x10e;" horiz-adv-x="1505" 
d="M461 219h76q258 0 405 111q166 126 166 381q0 256 -166 391q-141 104 -405 102h-76v-985zM563 1430q385 0 604 -162q238 -185 239 -548t-243 -554q-121 -90 -268 -125q-145 -41 -332 -41h-391v1430h391zM485 1509l-217 363h189l143 -230l145 230h183l-232 -363h-211z" />
    <glyph glyph-name="dcaron" unicode="&#x10f;" horiz-adv-x="1294" 
d="M1384 1186h-149l33 362h229zM614 868q-57 0 -106 -24q-89 -56 -127 -180q-16 -70 -16 -138t16 -137q38 -128 131 -176q41 -27 102 -27q60 0 110 27t79 70q71 87 71 246t-71 241q-27 43 -82 74q-50 24 -107 24zM901 0q-6 74 -6 184h-4q-119 -208 -343 -208
q-223 -1 -343 151q-123 150 -123 398q0 247 126 400q126 154 342 154q215 0 322 -188h5q-7 136 -7 293v364h271v-1233q0 -202 10 -315h-250z" />
    <glyph glyph-name="Dcroat" unicode="&#x110;" horiz-adv-x="1505" 
d="M461 797h262v-129h-262v-449h76q258 0 405 111q166 126 166 381q0 256 -166 391q-141 104 -405 102h-76v-407zM563 1430q385 0 604 -162q238 -185 239 -548t-243 -554q-121 -90 -268 -125q-145 -41 -332 -41h-391v668h-109v129h109v633h391z" />
    <glyph glyph-name="dcroat" unicode="&#x111;" horiz-adv-x="1294" 
d="M614 868q-57 0 -106 -24q-89 -56 -127 -180q-16 -70 -16 -138t16 -137q38 -128 131 -176q41 -27 102 -27q60 0 110 27t79 70q71 87 71 246t-71 241q-27 43 -82 74q-50 24 -107 24zM901 0q-6 74 -6 184h-4q-119 -208 -343 -208q-223 -1 -343 151q-123 150 -123 398
q0 247 126 400q126 154 342 154q215 0 322 -188h5q-7 136 -7 291v96h-217v129h217v141h271v-141h110v-129h-110v-963q0 -202 10 -315h-250z" />
    <glyph glyph-name="Emacron" unicode="&#x112;" horiz-adv-x="1148" 
d="M172 1430h846v-238h-561v-344h516v-232h-516v-376h567v-240h-852v1430zM295 1767h598v-137h-598v137z" />
    <glyph glyph-name="emacron" unicode="&#x113;" horiz-adv-x="1150" 
d="M819 639q0 125 -59 188q-62 57 -158 57t-164 -61q-72 -61 -82 -184h463zM1071 516q0 -55 -4 -65h-707q4 -125 95 -195q88 -72 246 -72t292 86l4 -225q-136 -68 -304 -69q-169 -1 -274 35t-181 108q-158 150 -158 413q0 244 148 396q148 151 380 151q463 0 463 -563z
M297 1417h598v-137h-598v137z" />
    <glyph glyph-name="Ebreve" unicode="&#x114;" horiz-adv-x="1148" 
d="M172 1430h846v-238h-561v-344h516v-232h-516v-376h567v-240h-852v1430zM596 1653q84 0 133 55q47 57 70 147h139q-8 -59 -37 -135q-33 -70 -74 -110q-47 -51 -102 -74q-55 -29 -128 -29t-133 30q-126 63 -179 192q-25 55 -29 126h141q3 -88 59 -145t140 -57z" />
    <glyph glyph-name="ebreve" unicode="&#x115;" horiz-adv-x="1150" 
d="M819 639q0 125 -59 188q-62 57 -158 57t-164 -61q-72 -61 -82 -184h463zM1071 516q0 -55 -4 -65h-707q4 -125 95 -195q88 -72 246 -72t292 86l4 -225q-136 -68 -304 -69q-169 -1 -274 35t-181 108q-158 150 -158 413q0 244 148 396q148 151 380 151q463 0 463 -563z
M602 1346q84 0 133 55q47 57 70 147h139q-10 -74 -39 -135q-23 -61 -71 -111t-103 -73q-55 -29 -128 -29t-136 29q-124 67 -176 192q-25 55 -29 127h141q3 -88 59 -145t140 -57z" />
    <glyph glyph-name="Edotaccent" unicode="&#x116;" horiz-adv-x="1148" 
d="M172 1430h846v-238h-561v-344h516v-232h-516v-376h567v-240h-852v1430zM758 1577h-281v262h281v-262z" />
    <glyph glyph-name="edotaccent" unicode="&#x117;" horiz-adv-x="1150" 
d="M819 639q0 125 -59 188q-62 57 -158 57t-164 -61q-72 -61 -82 -184h463zM1071 516q0 -55 -4 -65h-707q4 -125 95 -195q88 -72 246 -72t292 86l4 -225q-136 -68 -304 -69q-169 -1 -274 35t-181 108q-158 150 -158 413q0 244 148 396q148 151 380 151q463 0 463 -563z
M745 1255h-280v263h280v-263z" />
    <glyph glyph-name="Eogonek" unicode="&#x118;" horiz-adv-x="1148" 
d="M659 -352q-20 29 -20 95t37 114q18 33 49 67q49 49 80 76h-633v1430h846v-238h-561v-344h516v-232h-516v-376h567v-240h-70q-145 -145 -145 -238q0 -77 94 -77q71 0 117 24l20 -121q-96 -30 -183 -30q-88 0 -144 36q-33 18 -54 54z" />
    <glyph glyph-name="eogonek" unicode="&#x119;" horiz-adv-x="1150" 
d="M819 639q0 125 -59 188q-62 57 -158 57t-164 -61q-72 -61 -82 -184h463zM1071 516q0 -55 -4 -65h-707q4 -125 95 -195q88 -72 246 -72t292 86l4 -225l-32 -14q-47 -20 -88 -56q-41 -31 -66 -65q-57 -62 -57 -148q0 -78 94 -77q63 0 117 24l20 -121q-88 -30 -179 -30
t-149 36q-33 18 -53 54q-20 29 -20 86t30 116q33 59 111 130q-15 -5 -37 -5h-35q-265 0 -415 146q-158 146 -158 396q0 251 147 409q153 153 381 153q463 0 463 -563z" />
    <glyph glyph-name="Ecaron" unicode="&#x11a;" horiz-adv-x="1148" 
d="M172 1430h846v-238h-561v-344h516v-232h-516v-376h567v-240h-852v1430zM500 1509l-217 363h188l143 -230l146 230h182l-231 -363h-211z" />
    <glyph glyph-name="ecaron" unicode="&#x11b;" horiz-adv-x="1150" 
d="M819 639q0 125 -59 188q-62 57 -158 57t-164 -61q-72 -61 -82 -184h463zM1071 516q0 -55 -4 -65h-707q4 -125 95 -195q88 -72 246 -72t292 86l4 -225q-136 -68 -304 -69q-169 -1 -274 35t-181 108q-158 150 -158 413q0 244 148 396q148 151 380 151q463 0 463 -563z
M500 1186l-217 362h188l143 -229l146 229h182l-231 -362h-211z" />
    <glyph glyph-name="Gcircumflex" unicode="&#x11c;" horiz-adv-x="1482" 
d="M931 1444q213 0 374 -55l-21 -256q-154 81 -379 80t-364 -134q-136 -140 -135 -366q1 -225 126 -353q127 -137 367 -137q99 0 168 21v356h-305v229h579v-768q-218 -75 -481 -75q-330 0 -547 194q-215 207 -217 541q0 170 58 299q114 272 416 374q148 50 361 50zM965 1872
l217 -363h-189l-143 230l-145 -230h-183l232 363h211z" />
    <glyph glyph-name="gcircumflex" unicode="&#x11d;" horiz-adv-x="1290" 
d="M887 975v80h254v-973q0 -250 -133 -385q-68 -74 -172 -111q-102 -41 -250 -41q-234 0 -420 70l20 233q189 -98 377 -98q226 0 289 184q23 63 22 148v53q0 18 5 55h-5q-45 -76 -129 -135q-86 -55 -198 -55t-197 37q-170 83 -235 272q-33 92 -33 216q0 244 128 399t351 155
t326 -192h4q-4 66 -4 88zM610 868q-57 0 -102 -24q-92 -58 -127 -176q-16 -66 -16 -131q0 -141 65 -232q66 -90 180 -90t189 92q71 91 71 232t-71 235q-31 39 -82 70q-50 24 -107 24zM743 1548l218 -362h-189l-143 229l-146 -229h-182l231 362h211z" />
    <glyph glyph-name="Gbreve" unicode="&#x11e;" horiz-adv-x="1482" 
d="M931 1444q213 0 374 -55l-21 -256q-154 81 -379 80t-364 -134q-136 -140 -135 -366q1 -225 126 -353q127 -137 367 -137q99 0 168 21v356h-305v229h579v-768q-218 -75 -481 -75q-330 0 -547 194q-215 207 -217 541q0 170 58 299q114 272 416 374q148 50 361 50zM854 1653
q84 0 133 55q47 57 70 147h139q-8 -59 -37 -135q-33 -70 -74 -110q-47 -51 -102 -74q-55 -29 -128 -29t-133 30q-126 63 -179 192q-25 55 -29 126h141q3 -88 59 -145t140 -57z" />
    <glyph glyph-name="gbreve" unicode="&#x11f;" horiz-adv-x="1290" 
d="M887 975v80h254v-973q0 -250 -133 -385q-68 -74 -172 -111q-102 -41 -250 -41q-234 0 -420 70l20 233q189 -98 377 -98q226 0 289 184q23 63 22 148v53q0 18 5 55h-5q-45 -76 -129 -135q-86 -55 -198 -55t-197 37q-170 83 -235 272q-33 92 -33 216q0 244 128 399t351 155
t326 -192h4q-4 66 -4 88zM610 868q-57 0 -102 -24q-92 -58 -127 -176q-16 -66 -16 -131q0 -141 65 -232q66 -90 180 -90t189 92q71 91 71 232t-71 235q-31 39 -82 70q-50 24 -107 24zM622 1346q84 0 134 55q47 57 69 147h140q-10 -74 -39 -135q-23 -61 -72 -111t-102 -73
q-54 -29 -128 -29t-137 29q-121 66 -176 192q-25 55 -28 127h141q2 -88 58 -145t140 -57z" />
    <glyph glyph-name="Gdotaccent" unicode="&#x120;" horiz-adv-x="1482" 
d="M931 1444q213 0 374 -55l-21 -256q-154 81 -379 80t-364 -134q-136 -140 -135 -366q1 -225 126 -353q127 -137 367 -137q99 0 168 21v356h-305v229h579v-768q-218 -75 -481 -75q-330 0 -547 194q-215 207 -217 541q0 170 58 299q114 272 416 374q148 50 361 50z
M1001 1577h-280v262h280v-262z" />
    <glyph glyph-name="gdotaccent" unicode="&#x121;" horiz-adv-x="1290" 
d="M887 975v80h254v-973q0 -250 -133 -385q-68 -74 -172 -111q-102 -41 -250 -41q-234 0 -420 70l20 233q189 -98 377 -98q226 0 289 184q23 63 22 148v53q0 18 5 55h-5q-45 -76 -129 -135q-86 -55 -198 -55t-197 37q-170 83 -235 272q-33 92 -33 216q0 244 128 399t351 155
t326 -192h4q-4 66 -4 88zM610 868q-57 0 -102 -24q-92 -58 -127 -176q-16 -66 -16 -131q0 -141 65 -232q66 -90 180 -90t189 92q71 91 71 232t-71 235q-31 39 -82 70q-50 24 -107 24zM772 1255h-280v263h280v-263z" />
    <glyph glyph-name="uni0122" unicode="&#x122;" horiz-adv-x="1482" 
d="M805 -477h-152l111 350h272zM931 1444q213 0 374 -55l-21 -256q-154 81 -379 80t-364 -134q-136 -140 -135 -366q1 -225 126 -353q127 -137 367 -137q99 0 168 21v356h-305v229h579v-768q-218 -75 -481 -75q-330 0 -547 194q-215 207 -217 541q0 170 58 299
q114 272 416 374q148 50 361 50z" />
    <glyph glyph-name="uni0123" unicode="&#x123;" horiz-adv-x="1290" 
d="M684 1548h152l-111 -362h-272zM887 975v80h254v-973q0 -250 -133 -385q-68 -74 -172 -111q-102 -41 -250 -41q-234 0 -420 70l20 233q189 -98 377 -98q226 0 289 184q23 63 22 148v53q0 18 5 55h-5q-45 -76 -129 -135q-86 -55 -198 -55t-197 37q-170 83 -235 272
q-33 92 -33 216q0 244 128 399t351 155t326 -192h4q-4 66 -4 88zM610 868q-57 0 -102 -24q-92 -58 -127 -176q-16 -66 -16 -131q0 -141 65 -232q66 -90 180 -90t189 92q71 91 71 232t-71 235q-31 39 -82 70q-50 24 -107 24z" />
    <glyph glyph-name="Hcircumflex" unicode="&#x124;" horiz-adv-x="1497" 
d="M172 1430h291v-570h573v570h289v-1430h-289v618h-573v-618h-291v1430zM866 1872l217 -363h-188l-143 230l-146 -230h-182l231 363h211z" />
    <glyph glyph-name="hcircumflex" unicode="&#x125;" horiz-adv-x="1290" 
d="M424 1133q0 -208 -6 -256h4q125 202 332 202t307 -127q84 -118 86 -340v-612h-270v508q1 57 -5 133q-10 142 -86 193q-39 27 -106 26q-128 0 -192 -101t-64 -282v-477h-270v1548h270v-415zM760 1954l217 -363h-189l-143 230l-145 -230h-183l232 363h211z" />
    <glyph glyph-name="Hbar" unicode="&#x126;" horiz-adv-x="1497" 
d="M1036 819v246h-573v-246h573zM172 1065h-86v133h86v232h291v-232h573v232h289v-232h84v-133h-84v-1065h-289v598h-573v-598h-291v1065z" />
    <glyph glyph-name="hbar" unicode="&#x127;" horiz-adv-x="1290" 
d="M424 1133q0 -208 -6 -256h4q125 202 332 202t307 -127q84 -118 86 -340v-612h-270v508q1 57 -5 133q-10 142 -86 193q-39 27 -106 26q-128 0 -192 -101t-64 -282v-477h-270v1278h-99v129h99v141h270v-141h229v-129h-229v-145z" />
    <glyph glyph-name="Itilde" unicode="&#x128;" horiz-adv-x="632" 
d="M172 1430h289v-1430h-289v1430zM481 1716q74 0 86 103h107q-12 -121 -66 -189t-141 -67q-49 -1 -117 25t-115 41q-97 31 -141 -3q-23 -31 -31 -76h-106q17 119 71 185q54 65 135 65t178 -42q96 -42 140 -42z" />
    <glyph glyph-name="itilde" unicode="&#x129;" horiz-adv-x="589" 
d="M158 1055h274v-1055h-274v1055zM467 1372q74 0 86 103h106q-12 -127 -65 -189q-49 -68 -141 -67q-49 1 -116 25t-99 35t-41 15q-45 8 -70 8t-47 -22q-22 -23 -31 -74h-106q34 252 217 250q70 0 153 -36q82 -36 105 -42t49 -6z" />
    <glyph glyph-name="Imacron" unicode="&#x12a;" horiz-adv-x="632" 
d="M25 1767h598v-137h-598v137zM172 1430h289v-1430h-289v1430z" />
    <glyph glyph-name="imacron" unicode="&#x12b;" horiz-adv-x="589" 
d="M6 1417h598v-137h-598v137zM158 1055h274v-1055h-274v1055z" />
    <glyph glyph-name="Iogonek" unicode="&#x12e;" horiz-adv-x="632" 
d="M500 -412q-96 -30 -183 -30t-145 36q-33 18 -53 54q-20 29 -21 94t37 115q18 33 49 67q49 49 80 76h-92v1430h289v-1430h-47q-146 -146 -146 -238q0 -77 94 -77q72 0 117 24z" />
    <glyph glyph-name="iogonek" unicode="&#x12f;" horiz-adv-x="589" 
d="M158 1255v263h274v-263h-274zM475 -412q-96 -30 -183 -30t-145 36q-33 18 -53 54q-20 29 -20 95t37 114q18 33 49 67q49 49 80 76h-82v1055h274v-1055h-43q-145 -145 -145 -238q0 -77 94 -77q71 0 117 24z" />
    <glyph glyph-name="Idotaccent" unicode="&#x130;" horiz-adv-x="632" 
d="M172 1430h289v-1430h-289v1430zM465 1577h-281v262h281v-262z" />
    <glyph glyph-name="dotlessi" unicode="&#x131;" horiz-adv-x="589" 
d="M158 1055h274v-1055h-274v1055z" />
    <glyph glyph-name="IJ" unicode="&#x132;" horiz-adv-x="1415" 
d="M963 471v959h290v-988q0 -232 -94 -340q-106 -127 -325 -127q-103 0 -195 29l8 250q54 -16 137 -21q94 0 138 56q41 57 41 182zM172 1430h289v-1430h-289v1430z" />
    <glyph glyph-name="ij" unicode="&#x133;" horiz-adv-x="1159" 
d="M555 -240q12 -4 41 -4q76 0 104 46t27 161v1092h274v-1129q0 -381 -344 -381q-72 0 -112 11zM727 1518h274v-263h-274v263zM158 1055h274v-1055h-274v1055zM158 1255v263h274v-263h-274z" />
    <glyph glyph-name="Jcircumflex" unicode="&#x134;" horiz-adv-x="802" 
d="M641 442q0 -467 -420 -467q-102 0 -194 29l8 250q55 -16 137 -21q94 -1 136 55t42 183v959h291v-988zM612 1872l217 -363h-188l-143 230l-146 -230h-182l231 363h211z" />
    <glyph glyph-name="jcircumflex" unicode="&#x135;" horiz-adv-x="589" 
d="M422 1548l217 -362h-188l-144 229l-145 -229h-182l231 362h211zM-14 -240q12 -4 41 -4q75 0 103 46t28 161v1092h274v-1129q0 -381 -344 -381q-71 0 -113 11z" />
    <glyph glyph-name="uni0136" unicode="&#x136;" horiz-adv-x="1378" 
d="M629 -477h-152l111 350h272zM461 0h-289v1430h289v-623h4q43 55 59 77t66 79q37 51 69 86q31 39 54 65l268 316h358l-604 -668l662 -762h-389l-316 385q-8 9 -23 29t-25 31t-30 39t-34 46q-68 87 -115 158h-4v-688z" />
    <glyph glyph-name="uni0137" unicode="&#x137;" horiz-adv-x="1163" 
d="M516 -477h-151l110 350h273zM432 537v-537h-278v1548h278v-940h4q10 14 39 51q23 37 65 86q40 49 56 69t25 30l180 211h315l-426 -469l473 -586h-342l-205 276q-18 25 -42 57q-24 33 -40 59q-18 26 -35 49t-22 34q-6 9 -13 21t-15 23t-13 18h-4z" />
    <glyph glyph-name="Lacute" unicode="&#x139;" horiz-adv-x="1052" 
d="M172 1430h289v-1184h555v-246h-844v1430zM393 1509h-164l172 363h285z" />
    <glyph glyph-name="lacute" unicode="&#x13a;" horiz-adv-x="589" 
d="M158 1548h274v-1548h-274v1548zM358 1591h-163l172 363h284z" />
    <glyph glyph-name="uni013B" unicode="&#x13b;" horiz-adv-x="1052" 
d="M537 -477h-152l111 350h272zM172 1430h289v-1184h555v-246h-844v1430z" />
    <glyph glyph-name="uni013C" unicode="&#x13c;" horiz-adv-x="589" 
d="M223 -477h-151l110 350h273zM158 1548h274v-1548h-274v1548z" />
    <glyph glyph-name="Lcaron" unicode="&#x13d;" horiz-adv-x="1052" 
d="M756 1186h-150l33 362h229zM172 1430h289v-1184h555v-246h-844v1430z" />
    <glyph glyph-name="lcaron" unicode="&#x13e;" horiz-adv-x="589" 
d="M692 1186h-149l32 362h230zM158 1548h274v-1548h-274v1548z" />
    <glyph glyph-name="Ldot" unicode="&#x13f;" horiz-adv-x="1052" 
d="M991 729h-280v262h280v-262zM172 1430h289v-1184h555v-246h-844v1430z" />
    <glyph glyph-name="ldot" unicode="&#x140;" horiz-adv-x="847" 
d="M854 729h-281v262h281v-262zM158 1548h274v-1548h-274v1548z" />
    <glyph glyph-name="Lslash" unicode="&#x141;" horiz-adv-x="1052" 
d="M461 246h555v-246h-844v674l-123 -76v162l123 76v594h289v-433l215 133v-161l-215 -133v-590z" />
    <glyph glyph-name="lslash" unicode="&#x142;" horiz-adv-x="630" 
d="M453 0h-275v741l-158 -123v162l158 123v645h275v-438l145 115v-164l-145 -115v-946z" />
    <glyph glyph-name="Nacute" unicode="&#x143;" horiz-adv-x="1536" 
d="M1112 410q-8 92 -8 419v601h260v-1430h-365l-366 700q-54 102 -170 353q-31 74 -37 88h-4q4 -24 4 -92q4 -40 4 -131v-138q2 -45 2 -112v-668h-260v1430h385l361 -707l20 -40t23 -48q10 -19 28 -59t35 -75t40 -85q22 -51 33 -75q11 -25 15 -36h4q-4 28 -4 105zM844 1509
h-164l172 363h285z" />
    <glyph glyph-name="nacute" unicode="&#x144;" horiz-adv-x="1284" 
d="M762 1079q197 0 295 -125q82 -108 84 -340v-614h-271v508q0 187 -26 252q-23 47 -58 74q-40 26 -106 26t-125 -37q-55 -39 -90 -100q-45 -88 -45 -246v-477h-270v727q0 171 -11 328h260q9 -140 9 -176h4q121 200 350 200zM692 1186h-164l172 362h285z" />
    <glyph glyph-name="uni0145" unicode="&#x145;" horiz-adv-x="1536" 
d="M713 -477h-152l111 350h272zM1112 410q-8 92 -8 419v601h260v-1430h-365l-366 700q-54 102 -170 353q-31 74 -37 88h-4q4 -24 4 -92q4 -40 4 -131v-138q2 -45 2 -112v-668h-260v1430h385l361 -707l20 -40t23 -48q10 -19 28 -59t35 -75t40 -85q22 -51 33 -75
q11 -25 15 -36h4q-4 28 -4 105z" />
    <glyph glyph-name="uni0146" unicode="&#x146;" horiz-adv-x="1284" 
d="M567 -477h-151l110 350h273zM762 1079q197 0 295 -125q82 -108 84 -340v-614h-271v508q0 187 -26 252q-23 47 -58 74q-40 26 -106 26t-125 -37q-55 -39 -90 -100q-45 -88 -45 -246v-477h-270v727q0 171 -11 328h260q9 -140 9 -176h4q121 200 350 200z" />
    <glyph glyph-name="Ncaron" unicode="&#x147;" horiz-adv-x="1536" 
d="M1112 410q-8 92 -8 419v601h260v-1430h-365l-366 700q-54 102 -170 353q-31 74 -37 88h-4q4 -24 4 -92q4 -40 4 -131v-138q2 -45 2 -112v-668h-260v1430h385l361 -707l20 -40t23 -48q10 -19 28 -59t35 -75t40 -85q22 -51 33 -75q11 -25 15 -36h4q-4 28 -4 105zM653 1509
l-217 363h189l143 -230l145 230h183l-232 -363h-211z" />
    <glyph glyph-name="ncaron" unicode="&#x148;" horiz-adv-x="1284" 
d="M762 1079q197 0 295 -125q82 -108 84 -340v-614h-271v508q0 187 -26 252q-23 47 -58 74q-40 26 -106 26t-125 -37q-55 -39 -90 -100q-45 -88 -45 -246v-477h-270v727q0 171 -11 328h260q9 -140 9 -176h4q121 200 350 200zM526 1186l-217 362h189l143 -229l145 229h183
l-232 -362h-211z" />
    <glyph glyph-name="napostrophe" unicode="&#x149;" horiz-adv-x="1284" 
d="M217 1186h-149l32 362h230zM762 1079q197 0 295 -125q82 -108 84 -340v-614h-271v508q0 187 -26 252q-23 47 -58 74q-40 26 -106 26t-125 -37q-55 -39 -90 -100q-45 -88 -45 -246v-477h-270v727q0 171 -11 328h260q9 -140 9 -176h4q121 200 350 200z" />
    <glyph glyph-name="Omacron" unicode="&#x14c;" horiz-adv-x="1605" 
d="M799 1231q-88 0 -157 -36q-69 -35 -122 -105t-78 -164q-28 -88 -28 -211q1 -232 106 -375q114 -141 287 -141q90 0 156 39q143 72 202 266q29 102 29 213t-27 213q-35 104 -83 166t-121 100q-76 35 -164 35zM1311 176q-96 -100 -221 -147q-127 -53 -289 -53
q-321 -1 -508 198t-188 547q-1 349 185 541t515 192q328 0 510 -197q186 -198 186 -535t-190 -546zM492 1767h598v-137h-598v137z" />
    <glyph glyph-name="omacron" unicode="&#x14d;" horiz-adv-x="1269" 
d="M901 535q-1 164 -71 253t-193 89q-123 -1 -194 -91t-71 -253t70 -257q74 -92 195 -92t190 95q74 92 74 256zM635 1079q123 0 229 -39q102 -42 172 -110t115 -176q39 -111 39 -228t-39 -227q-91 -206 -291 -285q-98 -39 -226 -39t-224 41q-98 35 -177 111q-76 78 -112 176
q-41 100 -41 224q0 251 156 403q158 149 399 149zM334 1417h598v-137h-598v137z" />
    <glyph glyph-name="Obreve" unicode="&#x14e;" horiz-adv-x="1605" 
d="M799 1231q-88 0 -157 -36q-69 -35 -122 -105t-78 -164q-28 -88 -28 -211q1 -232 106 -375q114 -141 287 -141q90 0 156 39q143 72 202 266q29 102 29 213t-27 213q-35 104 -83 166t-121 100q-76 35 -164 35zM1311 176q-96 -100 -221 -147q-127 -53 -289 -53
q-321 -1 -508 198t-188 547q-1 349 185 541t515 192q328 0 510 -197q186 -198 186 -535t-190 -546zM790 1653q84 0 134 55q47 57 69 147h140q-10 -74 -39 -135q-23 -61 -72 -111t-102 -73q-54 -29 -128 -29t-137 29q-122 66 -176 193q-25 55 -28 126h141q2 -88 58 -145
t140 -57z" />
    <glyph glyph-name="obreve" unicode="&#x14f;" horiz-adv-x="1269" 
d="M901 535q-1 164 -71 253t-193 89q-123 -1 -194 -91t-71 -253t70 -257q74 -92 195 -92t190 95q74 92 74 256zM635 1079q123 0 229 -39q102 -42 172 -110t115 -176q39 -111 39 -228t-39 -227q-91 -206 -291 -285q-98 -39 -226 -39t-224 41q-98 35 -177 111q-76 78 -112 176
q-41 100 -41 224q0 251 156 403q158 149 399 149zM626 1346q84 0 134 55q47 57 69 147h140q-10 -74 -39 -135q-23 -61 -72 -111t-102 -73q-55 -29 -128 -29t-136 29q-123 67 -177 192q-25 55 -28 127h141q2 -88 58 -145t140 -57z" />
    <glyph glyph-name="Ohungarumlaut" unicode="&#x150;" horiz-adv-x="1605" 
d="M799 1231q-88 0 -157 -36q-69 -35 -122 -105t-78 -164q-28 -88 -28 -211q1 -232 106 -375q114 -141 287 -141q90 0 156 39q143 72 202 266q29 102 29 213t-27 213q-35 104 -83 166t-121 100q-76 35 -164 35zM1311 176q-96 -100 -221 -147q-127 -53 -289 -53
q-321 -1 -508 198t-188 547q-1 349 185 541t515 192q328 0 510 -197q186 -198 186 -535t-190 -546zM674 1507h-160l160 363h258zM1051 1507h-166l198 363h263z" />
    <glyph glyph-name="ohungarumlaut" unicode="&#x151;" horiz-adv-x="1269" 
d="M901 535q-1 164 -71 253t-193 89q-123 -1 -194 -91t-71 -253t70 -257q74 -92 195 -92t190 95q74 92 74 256zM635 1079q123 0 229 -39q102 -42 172 -110t115 -176q39 -111 39 -228t-39 -227q-91 -206 -291 -285q-98 -39 -226 -39t-224 41q-98 35 -177 111q-76 78 -112 176
q-41 100 -41 224q0 251 156 403q158 149 399 149zM518 1186h-160l160 362h258zM895 1186h-166l199 362h262z" />
    <glyph glyph-name="OE" unicode="&#x152;" horiz-adv-x="1964" 
d="M891 219q65 0 108 6v971q-43 4 -61 8l-66 2q-221 0 -344 -132t-122 -361q0 -106 32 -205q123 -289 453 -289zM1829 1430v-238h-539v-344h492v-232h-492v-376h549v-240h-575l-383 -8q-366 0 -574 186q-211 195 -212 537t216 538q203 187 551 187q122 0 164 -6l174 -4h629z
" />
    <glyph glyph-name="oe" unicode="&#x153;" horiz-adv-x="1923" 
d="M1595 639q0 244 -219 246q-51 0 -86 -17q-37 -10 -78 -45q-39 -39 -53 -78q-23 -39 -29 -106h465zM628 874q-124 0 -190 -91t-66 -253t66 -256q68 -90 189 -90t189 92t67 254q0 162 -66 256q-65 88 -189 88zM229 930q158 149 404 149q247 0 383 -170q130 170 364 170
q236 0 350 -138t113 -425v-33l-4 -32h-704q12 -187 198 -250q59 -18 131 -19q167 0 305 86l5 -225q-132 -66 -342 -68q-279 0 -414 170q-134 -170 -391 -170q-127 0 -224 41q-94 35 -168 107q-155 151 -155 399t149 408z" />
    <glyph glyph-name="Racute" unicode="&#x154;" horiz-adv-x="1273" 
d="M461 815h84q170 0 250 45q79 49 79 160t-88 147q-56 37 -241 37h-84v-389zM172 1430h414q276 0 426 -74q76 -45 118 -115q41 -75 41 -201q1 -126 -79 -212t-220 -111v-4q25 -5 57 -23q61 -33 93 -96l14 -29q12 -27 19 -43l221 -522h-318l-159 406q-44 111 -86 151
q-35 21 -70 29t-106 8h-76v-594h-289v1430zM616 1509h-163l172 363h284z" />
    <glyph glyph-name="racute" unicode="&#x155;" horiz-adv-x="806" 
d="M709 1079q62 0 90 -12l-6 -236q-41 14 -95 15q-274 0 -274 -416v-430h-279v741q0 194 -10 314h258q4 -12 4 -43v-54l4 -57v-47h5q86 225 303 225zM449 1186h-164l172 362h284z" />
    <glyph glyph-name="uni0156" unicode="&#x156;" horiz-adv-x="1273" 
d="M588 -477h-152l111 350h272zM461 815h84q170 0 250 45q79 49 79 160t-88 147q-56 37 -241 37h-84v-389zM172 1430h414q276 0 426 -74q76 -45 118 -115q41 -75 41 -201q1 -126 -79 -212t-220 -111v-4q25 -5 57 -23q61 -33 93 -96l14 -29q12 -27 19 -43l221 -522h-318
l-159 406q-44 111 -86 151q-35 21 -70 29t-106 8h-76v-594h-289v1430z" />
    <glyph glyph-name="uni0157" unicode="&#x157;" horiz-adv-x="806" 
d="M231 -477h-151l110 350h273zM709 1079q62 0 90 -12l-6 -236q-41 14 -95 15q-274 0 -274 -416v-430h-279v741q0 194 -10 314h258q4 -12 4 -43v-54l4 -57v-47h5q86 225 303 225z" />
    <glyph glyph-name="Rcaron" unicode="&#x158;" horiz-adv-x="1273" 
d="M461 815h84q170 0 250 45q79 49 79 160t-88 147q-56 37 -241 37h-84v-389zM172 1430h414q276 0 426 -74q76 -45 118 -115q41 -75 41 -201q1 -126 -79 -212t-220 -111v-4q25 -5 57 -23q61 -33 93 -96l14 -29q12 -27 19 -43l221 -522h-318l-159 406q-44 111 -86 151
q-35 21 -70 29t-106 8h-76v-594h-289v1430zM483 1509l-217 363h189l143 -230l145 230h183l-232 -363h-211z" />
    <glyph glyph-name="rcaron" unicode="&#x159;" horiz-adv-x="806" 
d="M709 1079q62 0 90 -12l-6 -236q-41 14 -95 15q-274 0 -274 -416v-430h-279v741q0 194 -10 314h258q4 -12 4 -43v-54l4 -57v-47h5q86 225 303 225zM305 1186l-217 362h188l144 -229l145 229h183l-232 -362h-211z" />
    <glyph glyph-name="Sacute" unicode="&#x15a;" horiz-adv-x="1122" 
d="M658 1231q-126 0 -192 -44q-66 -43 -67 -113q1 -70 39 -108t90 -61q49 -29 129 -55q199 -70 289 -171t90 -257q0 -198 -145 -328q-153 -119 -374 -119q-220 0 -398 62l26 252q168 -82 311 -82q144 0 212 47q74 43 74 130t-58 134q-58 54 -235 119q-177 66 -262 159
t-85 244q0 191 143 302q143 112 350 112q208 0 366 -51l-23 -234q-154 62 -280 62zM651 1509h-164l172 363h285z" />
    <glyph glyph-name="sacute" unicode="&#x15b;" horiz-adv-x="915" 
d="M567 289q0 29 -10 47q-4 16 -30 38q-43 35 -180 82q-137 48 -204 113q-63 75 -63 169q0 168 117 255q117 88 292 87t295 -50l-22 -205q-136 59 -228 59q-184 1 -184 -110q0 -29 7 -43t32 -39q69 -34 147 -60q79 -26 130 -52q116 -58 155 -152q21 -47 21 -123
q0 -75 -33 -139q-62 -120 -223 -170q-246 -56 -502 35l14 217q143 -70 297 -72q72 0 121 29q51 25 51 84zM502 1186h-164l172 362h285z" />
    <glyph glyph-name="Scircumflex" unicode="&#x15c;" horiz-adv-x="1122" 
d="M658 1231q-126 0 -192 -44q-66 -43 -67 -113q1 -70 39 -108t90 -61q49 -29 129 -55q199 -70 289 -171t90 -257q0 -198 -145 -328q-153 -119 -374 -119q-220 0 -398 62l26 252q168 -82 311 -82q144 0 212 47q74 43 74 130t-58 134q-58 54 -235 119q-177 66 -262 159
t-85 244q0 191 143 302q143 112 350 112q208 0 366 -51l-23 -234q-154 62 -280 62zM719 1872l217 -363h-188l-144 230l-145 -230h-183l232 363h211z" />
    <glyph glyph-name="scircumflex" unicode="&#x15d;" horiz-adv-x="915" 
d="M567 289q0 29 -10 47q-4 16 -30 38q-43 35 -180 82q-137 48 -204 113q-63 75 -63 169q0 168 117 255q117 88 292 87t295 -50l-22 -205q-136 59 -228 59q-184 1 -184 -110q0 -29 7 -43t32 -39q69 -34 147 -60q79 -26 130 -52q116 -58 155 -152q21 -47 21 -123
q0 -75 -33 -139q-62 -120 -223 -170q-246 -56 -502 35l14 217q143 -70 297 -72q72 0 121 29q51 25 51 84zM588 1548l217 -362h-189l-143 229l-145 -229h-183l232 362h211z" />
    <glyph glyph-name="Scedilla" unicode="&#x15e;" horiz-adv-x="1122" 
d="M381 -354q99 -11 106 -11q113 0 113 72q0 39 -30 53t-84 14t-91 -10l19 213q-157 11 -295 60l26 252q168 -82 311 -82q144 0 212 47q74 43 74 130t-58 134q-58 54 -235 119q-177 66 -262 159t-85 244q0 191 143 302q143 112 350 112q208 0 366 -51l-23 -234
q-154 62 -280 62t-192 -44q-66 -43 -67 -113q1 -70 39 -108t90 -61q49 -29 129 -55q199 -70 289 -171t90 -257q0 -199 -135 -316q-126 -117 -360 -129l-17 -104q8 2 21 2h20q97 0 140 -35q61 -38 61 -121q0 -47 -21 -88q-57 -77 -141 -92q-52 -10 -114 -10t-121 14z" />
    <glyph glyph-name="scedilla" unicode="&#x15f;" horiz-adv-x="915" 
d="M567 289q0 29 -10 47q-4 16 -30 38q-43 35 -180 82q-137 48 -204 113q-63 75 -63 169q0 168 117 255q117 88 292 87t295 -50l-22 -205q-136 59 -228 59q-184 1 -184 -110q0 -29 7 -43t32 -39q69 -34 147 -60q79 -26 130 -52q116 -58 155 -152q20 -47 21 -117
q0 -151 -100 -233t-265 -98l-16 -107q8 2 22 2h19q89 0 141 -35q59 -47 59 -111q0 -65 -22 -98q-18 -35 -57 -57q-63 -45 -161 -45t-157 14l12 103l56 -6q20 -4 51 -5q113 0 113 72q0 39 -29 55q-31 12 -86 12t-90 -10l18 213q-131 6 -266 54l14 217q143 -70 297 -72
q72 0 121 29q51 25 51 84z" />
    <glyph glyph-name="Scaron" unicode="&#x160;" horiz-adv-x="1122" 
d="M658 1231q-126 0 -192 -44q-66 -43 -67 -113q1 -70 39 -108t90 -61q49 -29 129 -55q199 -70 289 -171t90 -257q0 -198 -145 -328q-153 -119 -374 -119q-220 0 -398 62l26 252q168 -82 311 -82q144 0 212 47q74 43 74 130t-58 134q-58 54 -235 119q-177 66 -262 159
t-85 244q0 191 143 302q143 112 350 112q208 0 366 -51l-23 -234q-154 62 -280 62zM479 1509l-217 363h189l143 -230l145 230h183l-232 -363h-211z" />
    <glyph glyph-name="scaron" unicode="&#x161;" horiz-adv-x="915" 
d="M567 289q0 29 -10 47q-4 16 -30 38q-43 35 -180 82q-137 48 -204 113q-63 75 -63 169q0 168 117 255q117 88 292 87t295 -50l-22 -205q-136 59 -228 59q-184 1 -184 -110q0 -29 7 -43t32 -39q69 -34 147 -60q79 -26 130 -52q116 -58 155 -152q21 -47 21 -123
q0 -75 -33 -139q-62 -120 -223 -170q-246 -56 -502 35l14 217q143 -70 297 -72q72 0 121 29q51 25 51 84zM371 1186l-217 362h188l143 -229l146 229h182l-231 -362h-211z" />
    <glyph glyph-name="uni0162" unicode="&#x162;" horiz-adv-x="1157" 
d="M506 -477h-152l111 350h272zM721 0h-293v1194l-391 -6v242h1083v-242l-399 6v-1194z" />
    <glyph glyph-name="uni0163" unicode="&#x163;" horiz-adv-x="794" 
d="M375 -477h-152l111 350h272zM223 385v467h-203v203h207v221l258 88v-309h252v-203h-252v-412q0 -121 32 -176t132 -55q47 0 101 16l6 -211q-69 -26 -189 -26q-182 0 -264 94q-80 96 -80 303z" />
    <glyph glyph-name="Tcaron" unicode="&#x164;" horiz-adv-x="1157" 
d="M721 0h-293v1194l-391 -6v242h1083v-242l-399 6v-1194zM459 1509l-217 363h188l143 -230l146 230h182l-231 -363h-211z" />
    <glyph glyph-name="tcaron" unicode="&#x165;" horiz-adv-x="794" 
d="M772 1186h-149l32 362h230zM223 385v467h-203v203h207v221l258 88v-309h252v-203h-252v-412q0 -121 32 -176t132 -55q47 0 101 16l6 -211q-69 -26 -189 -26q-182 0 -264 94q-80 96 -80 303z" />
    <glyph glyph-name="Tbar" unicode="&#x166;" horiz-adv-x="1157" 
d="M231 946h197v248l-391 -6v242h1083v-242l-399 6v-248h203v-129h-203v-817h-293v817h-197v129z" />
    <glyph glyph-name="tbar" unicode="&#x167;" horiz-adv-x="794" 
d="M223 385v156h-160v129h160v182h-203v203h207v221l258 88v-309h252v-203h-252v-182h177v-129h-177v-101q0 -121 32 -176t132 -55q47 0 101 16l6 -211q-69 -26 -189 -26q-182 0 -264 94q-80 96 -80 303z" />
    <glyph glyph-name="Utilde" unicode="&#x168;" horiz-adv-x="1486" 
d="M1325 567q0 -590 -586 -592q-307 0 -442 150t-135 442v863h291v-842q0 -205 71 -291q68 -90 222 -90t229 89q74 89 74 292v842h276v-863zM918 1716q74 0 86 103h106q-12 -127 -66 -189q-49 -68 -141 -67q-49 1 -116 25t-99 35t-41 15q-45 8 -69 8t-48 -22
q-23 -23 -30 -74h-107q17 119 71 185q54 65 135 65t164 -36t105 -42t50 -6z" />
    <glyph glyph-name="utilde" unicode="&#x169;" horiz-adv-x="1284" 
d="M881 174h-4q-49 -78 -138 -141q-89 -57 -197 -57q-198 -1 -299 112q-100 114 -100 297v670h271v-547q0 -152 39 -221q43 -88 157 -87t183 92t69 236v527h273v-908q4 -102 10 -147h-256q-8 78 -8 174zM817 1372q74 0 86 103h107q-12 -121 -66 -189t-141 -67
q-49 -1 -117 25t-115 41q-97 31 -141 -3q-23 -31 -31 -76h-106q34 252 217 250q70 0 167 -42q96 -42 140 -42z" />
    <glyph glyph-name="Umacron" unicode="&#x16a;" horiz-adv-x="1486" 
d="M1325 567q0 -590 -586 -592q-307 0 -442 150t-135 442v863h291v-842q0 -205 71 -291q68 -90 222 -90t229 89q74 89 74 292v842h276v-863zM455 1767h598v-137h-598v137z" />
    <glyph glyph-name="umacron" unicode="&#x16b;" horiz-adv-x="1284" 
d="M881 174h-4q-49 -78 -138 -141q-89 -57 -197 -57q-198 -1 -299 112q-100 114 -100 297v670h271v-547q0 -152 39 -221q43 -88 157 -87t183 92t69 236v527h273v-908q4 -102 10 -147h-256q-8 78 -8 174zM340 1417h598v-137h-598v137z" />
    <glyph glyph-name="Ubreve" unicode="&#x16c;" horiz-adv-x="1486" 
d="M1325 567q0 -590 -586 -592q-307 0 -442 150t-135 442v863h291v-842q0 -205 71 -291q68 -90 222 -90t229 89q74 89 74 292v842h276v-863zM745 1653q84 0 134 55q47 57 69 147h139q-10 -74 -38 -135q-23 -61 -72 -111t-103 -73q-55 -29 -128 -29t-136 29q-122 66 -176 193
q-25 55 -28 126h141q2 -88 58 -145t140 -57z" />
    <glyph glyph-name="ubreve" unicode="&#x16d;" horiz-adv-x="1284" 
d="M881 174h-4q-49 -78 -138 -141q-89 -57 -197 -57q-198 -1 -299 112q-100 114 -100 297v670h271v-547q0 -152 39 -221q43 -88 157 -87t183 92t69 236v527h273v-908q4 -102 10 -147h-256q-8 78 -8 174zM647 1346q84 0 133 55q47 57 70 147h139q-10 -74 -39 -135
q-24 -61 -72 -111t-102 -73q-55 -29 -128 -29t-136 29q-121 66 -176 192q-25 55 -29 127h142q2 -88 58 -145t140 -57z" />
    <glyph glyph-name="Uring" unicode="&#x16e;" horiz-adv-x="1486" 
d="M1325 567q0 -590 -586 -592q-307 0 -442 150t-135 442v863h291v-842q0 -205 71 -291q68 -90 222 -90t229 89q74 89 74 292v842h276v-863zM753 1829q-48 0 -81 -33t-33 -83t33 -85t81 -35t83 35q34 35 34 83t-34 83q-35 35 -83 35zM757 1925q40 0 83 -16q37 -18 65 -47
q62 -54 64 -150q0 -45 -19 -84q-14 -38 -45 -68q-60 -59 -149 -60q-88 -1 -150 61q-63 55 -63 148q0 92 62 154t152 62z" />
    <glyph glyph-name="uring" unicode="&#x16f;" horiz-adv-x="1284" 
d="M881 174h-4q-49 -78 -138 -141q-89 -57 -197 -57q-198 -1 -299 112q-100 114 -100 297v670h271v-547q0 -152 39 -221q43 -88 157 -87t183 92t69 236v527h273v-908q4 -102 10 -147h-256q-8 78 -8 174zM636 1475q-46 0 -83 -33q-33 -35 -33 -84t34 -84t81 -35t82 35t35 83
t-35 83t-81 35zM850 1358q0 -43 -16 -82q-36 -85 -117 -115q-39 -16 -80 -16q-89 0 -150 61q-63 55 -63 151t63 150q56 64 147 64q90 0 152 -64q64 -56 64 -149z" />
    <glyph glyph-name="Uhungarumlaut" unicode="&#x170;" horiz-adv-x="1486" 
d="M1325 567q0 -590 -586 -592q-307 0 -442 150t-135 442v863h291v-842q0 -205 71 -291q68 -90 222 -90t229 89q74 89 74 292v842h276v-863zM590 1507h-160l160 363h258zM967 1507h-166l198 363h263z" />
    <glyph glyph-name="uhungarumlaut" unicode="&#x171;" horiz-adv-x="1284" 
d="M881 174h-4q-49 -78 -138 -141q-89 -57 -197 -57q-198 -1 -299 112q-100 114 -100 297v670h271v-547q0 -152 39 -221q43 -88 157 -87t183 92t69 236v527h273v-908q4 -102 10 -147h-256q-8 78 -8 174zM496 1186h-160l160 362h258zM872 1186h-165l198 362h262z" />
    <glyph glyph-name="Uogonek" unicode="&#x172;" horiz-adv-x="1486" 
d="M985 -412q-88 -30 -179 -30t-149 36q-33 18 -53 54q-20 29 -20 87t28 112t109 128q-293 8 -428 154q-131 143 -131 438v863h291v-842q0 -205 71 -291q68 -90 222 -90t229 89q74 89 74 292v842h276v-863q0 -512 -438 -579q-66 -72 -85 -100q-19 -29 -24 -35
q-24 -57 -24 -91q0 -77 94 -77q63 0 117 24z" />
    <glyph glyph-name="uogonek" unicode="&#x173;" horiz-adv-x="1284" 
d="M881 174h-4q-49 -78 -138 -141q-89 -57 -197 -57q-198 -1 -299 112q-100 114 -100 297v670h271v-547q0 -152 39 -221q43 -88 157 -87t183 92t69 236v527h273v-908q4 -102 10 -147h-107q-45 -45 -71 -82q-20 -23 -45 -61q-29 -60 -29 -95q0 -77 94 -77q63 0 117 24
l20 -121q-85 -30 -178 -30t-149 36q-33 18 -54 54q-20 29 -20 91t30 110q48 75 136 151q-8 78 -8 174z" />
    <glyph glyph-name="Wcircumflex" unicode="&#x174;" horiz-adv-x="2121" 
d="M1114 956q-8 29 -16 74t-14 64q-5 19 -23 131h-4q-2 -12 -18 -117t-29 -152l-213 -956h-365l-395 1430h309l207 -857q0 -1 5 -23q12 -52 28 -132l20 -107q12 -68 15 -88h4q45 257 54 294q9 38 11 56l187 857h383l196 -857q4 -27 15 -70t16 -89l20 -103l15 -88h4l14 88
q8 33 20 97t21 100q2 18 7 40t5 25l205 857h287l-383 -1430h-363zM1169 1872l217 -363h-188l-143 230l-146 -230h-182l231 363h211z" />
    <glyph glyph-name="wcircumflex" unicode="&#x175;" horiz-adv-x="1837" 
d="M356 0l-327 1055h293l155 -572q2 -6 6 -26q5 -19 9 -33t9 -41t7 -37l7 -35q5 -25 11 -47t11 -51h4q2 27 13 69t17 74q6 31 15 60q8 28 18 65l152 574h338l163 -572q11 -49 15 -61t12 -49t13 -62t11 -47t11 -51h4q4 29 14 66t13 58q4 21 9 48t9 39t8 32t6 25l154 574h272
l-325 -1055h-338l-166 604q-30 116 -53 252h-4q-31 -157 -60 -252l-166 -604h-340zM1057 1548l217 -362h-189l-143 229l-145 -229h-183l232 362h211z" />
    <glyph glyph-name="Ycircumflex" unicode="&#x176;" horiz-adv-x="1361" 
d="M829 0h-288v569l-529 861h338l162 -289q28 -47 66 -121t54 -106l28 -56q11 -24 32 -61h4q20 39 38 77t36 67q18 30 37 64q18 33 39 73t33 63l157 289h314l-521 -863v-567zM797 1872l217 -363h-189l-143 230l-145 -230h-183l232 363h211z" />
    <glyph glyph-name="ycircumflex" unicode="&#x177;" horiz-adv-x="1146" 
d="M639 -225q-118 -230 -370 -230q-93 0 -189 29l20 205q60 -21 132 -21t120 42t82 155l-409 1100h299l163 -510q20 -66 40 -128t57 -196h4q25 102 96 324l164 510h276l-415 -1129q-31 -82 -70 -151zM700 1548l218 -362h-189l-143 229l-146 -229h-182l231 362h211z" />
    <glyph glyph-name="Ydieresis" unicode="&#x178;" horiz-adv-x="1361" 
d="M829 0h-288v569l-529 861h338l162 -289q28 -47 66 -121t54 -106l28 -56q11 -24 32 -61h4q20 39 38 77t36 67q18 30 37 64q18 33 39 73t33 63l157 289h314l-521 -863v-567zM365 1823h235v-240h-235v240zM1024 1583h-236v240h236v-240z" />
    <glyph glyph-name="Zacute" unicode="&#x179;" horiz-adv-x="1146" 
d="M1081 240v-240h-1013v244q152 222 261 372t199 277q111 147 161 214t67 85h-662v238h971v-240q-193 -274 -333 -468t-221 -307q-82 -114 -136 -175h706zM614 1509h-163l172 363h284z" />
    <glyph glyph-name="zacute" unicode="&#x17a;" horiz-adv-x="1032" 
d="M963 207v-207h-893v229q152 172 286 324q149 169 277 297h-545v205h856v-219q-53 -63 -220 -254t-202 -228q-36 -36 -56 -58l-30 -33q-12 -11 -30 -31t-25 -25h582zM547 1186h-164l172 362h285z" />
    <glyph glyph-name="Zdotaccent" unicode="&#x17b;" horiz-adv-x="1146" 
d="M1081 240v-240h-1013v244q152 222 261 372t199 277q111 147 161 214t67 85h-662v238h971v-240q-193 -274 -333 -468t-221 -307q-82 -114 -136 -175h706zM719 1577h-281v262h281v-262z" />
    <glyph glyph-name="zdotaccent" unicode="&#x17c;" horiz-adv-x="1032" 
d="M963 207v-207h-893v229q152 172 286 324q149 169 277 297h-545v205h856v-219q-53 -63 -220 -254t-202 -228q-36 -36 -56 -58l-30 -33q-12 -11 -30 -31t-25 -25h582zM676 1255h-281v263h281v-263z" />
    <glyph glyph-name="Zcaron" unicode="&#x17d;" horiz-adv-x="1146" 
d="M1081 240v-240h-1013v244q152 222 261 372t199 277q111 147 161 214t67 85h-662v238h971v-240q-193 -274 -333 -468t-221 -307q-82 -114 -136 -175h706zM481 1509l-217 363h189l143 -230l145 230h183l-232 -363h-211z" />
    <glyph glyph-name="zcaron" unicode="&#x17e;" horiz-adv-x="1032" 
d="M963 207v-207h-893v229q152 172 286 324q149 169 277 297h-545v205h856v-219q-53 -63 -220 -254t-202 -228q-36 -36 -56 -58l-30 -33q-12 -11 -30 -31t-25 -25h582zM426 1186l-217 362h188l144 -229l145 229h182l-231 -362h-211z" />
  </font>
</defs>
</svg>
