<?xml  version="1.0" encoding="UTF-8"?>
<!DOCTYPE svg PUBLIC "-//W3C//DTD SVG 1.0//EN" "http://www.w3.org/TR/2001/REC-SVG-20010904/DTD/svg10.dtd" >
<svg xmlns="http://www.w3.org/2000/svg" >
<metadata>
<version>1.0</version>
<id><![CDATA[Frutiger Neue W02 It]]></id>
<vendor>Monotype Imaging Inc.</vendor>
<credits>
<name>Fonts.com WebFonts</name>
<URL>http://webfonts.fonts.com</URL>
<role>Home of the Web fonts</role>
</credits>
<license>
<URL>http://webfonts.fonts.com/Legal</URL>
</license>
<copyright><![CDATA[Copyright © 2009 Linotype GmbH, www.linotype.com. All rights reserved. This font software may not be reproduced, modified, disclosed or transferred without the express written approval of Linotype GmbH. Frutiger is a trademark of Linotype Corp. registered in the U.S. Patent and Trademark Office and may be registered in certain other jurisdictions in the name of Linotype Corp. or its licensee Linotype GmbH. This typeface is original artwork of Adrian Frutiger and Linotype Design Studio. The design may be protected in certain jurisdictions.]]></copyright>
<trademark><![CDATA[Frutiger is a trademark of Linotype Corp. registered in the U.S. Patent and Trademark Office and may be registered in certain other jurisdictions in the name of Linotype Corp. or its licensee Linotype GmbH.]]></trademark>
<licensee>
<name></name>
</licensee>
</metadata>
<defs >
<font horiz-adv-x="549" id="3e2948c8-46c0-405b-b79f-be6a75b9f087">
<font-face font-family="" panose-1="2 11 6 3 4 3 4 9 2 3" ascent="962" descent="-240" units-per-em="1000" alphabetic="0">
</font-face>
<missing-glyph horiz-adv-x="0" />

<glyph unicode="&#xA;" />
<glyph unicode="&#xD;" horiz-adv-x="0" />
<glyph unicode=" " horiz-adv-x="240" />
<glyph unicode="!" horiz-adv-x="315" d="M301 698L177 205H96L190 698H301ZM175 107L154 0H42L65 107H175Z"  />
<glyph unicode="&quot;" horiz-adv-x="433" d="M332 698H422L350 438H286L332 698ZM158 698H249L181 438H116L158 698Z"  />
<glyph unicode="#" horiz-adv-x="570" d="M75 0L119 203H22L37 275H135L167 426H70L85 497H182L224 698H306L264 497H379L422 698H504L460 497H557L542 426H446L413 275H510L495 203H397L354 0H272L316 203H202L156 0H75ZM364 426H249L216 275H331L364 426Z"  />
<glyph unicode="$" horiz-adv-x="570" d="M507 584Q480 601 441 614T363 630L311 398Q354 377 386 357T440 313T472 262T483 202Q483 154 465 116T412 52T329 11T219 -4L199 -92H140L162 -4Q144 -4 123 -1T79 8T37 21T0 37L28 118Q47 106 68 98T111 83T149 74T179 71L239 330Q198 350 170 370T125 411T99 457T91 511Q91 560 111 595T165 654T239 689T322 701L342 794H400L379 700Q415 698 458 688T534 661L507 584ZM306 631Q246 626 215 596T184 523Q184 509 187 496T198 471T222 446T260 421L306 631ZM236 70Q314 74 350 108T386 194Q386 212 382 226T368 253T338 280T290 309L236 70Z"  />
<glyph unicode="%" horiz-adv-x="870" d="M228 -21H160L655 735H724L228 -21ZM219 409Q263 409 293 451T323 562Q323 605 304 627T250 650Q228 650 209 639T176 607T154 559T146 496Q146 453 165 431T219 409ZM214 349Q142 349 106 389T70 499Q70 544 84 582T122 649T181 694T255 710Q327 710 363 670T399 559Q399 514 385 476T347 410T288 365T214 349ZM626 48Q670 48 700 90T730 201Q730 244 711 266T657 289Q635 289 616 278T583 246T561 198T553 135Q553 92 572 70T626 48ZM621 -12Q549 -12 513 28T477 138Q477 183 491 221T529 288T588 333T662 349Q734 349 770 309T806 198Q806 153 792 115T754 49T695 4T621 -12Z"  />
<glyph unicode="&amp;" horiz-adv-x="728" d="M487 192Q501 207 514 228T537 275T555 327T567 380H658Q647 310 615 243T536 125L629 0H518L469 67Q426 30 378 11T264 -9Q163 -9 105 42T47 182Q47 260 95 313T246 394Q216 437 204 469T192 537Q192 575 206 606T247 661T310 697T391 710Q475 710 523 669T571 557Q571 485 522 439T368 358L487 192ZM348 422Q415 442 449 474T484 554Q484 591 457 614T388 637Q340 637 312 609T283 536Q283 513 293 485T332 418L348 422ZM286 333Q209 313 176 277T142 189Q142 137 178 104T275 71Q313 71 353 86T425 131L286 333Z"  />
<glyph unicode="&apos;" horiz-adv-x="260" d="M158 698H249L181 438H116L158 698Z"  />
<glyph unicode="(" horiz-adv-x="330" d="M373 760Q322 694 279 625T206 486T158 347T141 212Q141 131 157 40T206 -140H132Q93 -56 69 39T45 226Q45 295 60 361T107 492T183 623T288 760H373Z"  />
<glyph unicode=")" horiz-adv-x="330" d="M-46 -140Q5 -74 48 -5T121 134T169 273T186 408Q186 489 170 580T121 760H195Q234 676 258 581T282 394Q282 325 266 259T220 128T144 -3T39 -140H-46Z"  />
<glyph unicode="*" horiz-adv-x="500" d="M301 763L388 743L341 592L498 621L504 532L343 533L423 393L339 355L291 507L178 392L119 458L249 550L105 619L149 699L281 603L301 763Z"  />
<glyph unicode="+" horiz-adv-x="570" d="M316 503V291H525V211H316V0H232V211H21V291H232V503H316Z"  />
<glyph unicode="&#x2c;" horiz-adv-x="240" d="M153 114L6 -133H-70L52 114H153Z"  />
<glyph unicode="-" horiz-adv-x="330" d="M294 303L279 224H12L28 303H294Z"  />
<glyph unicode="." horiz-adv-x="240" d="M144 112L122 0H8L31 112H144Z"  />
<glyph unicode="/" horiz-adv-x="480" d="M0 0L427 698H512L88 0H0Z"  />
<glyph unicode="0" horiz-adv-x="570" d="M541 494Q541 445 533 389T508 276T465 168T404 76T322 12T220 -12Q127 -12 79 48T31 220Q31 268 39 323T65 432T109 537T172 625T253 687T354 710Q445 710 493 653T541 494ZM444 491Q444 631 349 631Q310 631 279 609T223 550T181 467T153 374T136 283T131 207Q131 144 152 106T221 68Q260 68 291 90T348 148T391 230T421 323T438 414T444 491Z"  />
<glyph unicode="1" horiz-adv-x="570" d="M202 0L285 400Q290 422 296 449T308 504T320 554T330 589H327Q302 569 269 546T198 498L155 571L362 698H445L298 0H202Z"  />
<glyph unicode="2" horiz-adv-x="570" d="M-19 0Q-13 24 -7 47T4 96Q206 241 311 346T417 536Q417 630 294 630Q254 630 212 618T132 586L142 675Q179 693 224 701T312 710Q407 710 462 669T517 547Q517 502 500 458T443 364T335 256T167 124Q156 116 135 102T96 80V78Q119 79 143 80T192 82T238 83T278 83H441L422 0H-19Z"  />
<glyph unicode="3" horiz-adv-x="570" d="M461 217Q461 162 440 120T382 48T293 3T180 -12Q132 -12 84 -5T-10 20L13 105Q56 85 98 76T181 67Q223 67 257 77T315 105T353 151T367 214Q367 271 322 301T193 331Q184 331 176 331T155 329L171 407Q182 406 191 406T212 405Q258 405 297 413T366 439T412 481T429 539Q429 563 419 580T391 609T349 626T297 631Q252 631 213 622T138 597L146 684Q189 698 225 704T304 710Q353 710 393 700T463 670T508 620T524 549Q524 514 509 483T467 428T403 389T320 367V365Q389 352 425 311T461 217Z"  />
<glyph unicode="4" horiz-adv-x="570" d="M281 0L316 155H-4L17 246L386 698H526L425 234H519L501 155H412L376 0H281ZM361 370Q367 396 375 429T392 498T411 570T430 640H428Q423 633 412 619T387 586T359 550T332 516L104 234H329L361 370Z"  />
<glyph unicode="5" horiz-adv-x="570" d="M479 254Q479 191 457 142T395 58T300 6T179 -12Q143 -12 101 -7T18 9L35 90Q70 76 105 71T177 65Q220 65 258 76T324 110T368 166T385 243Q385 297 346 330T226 363Q196 363 163 358T96 342L181 698H556L539 618H252L204 431Q222 434 239 435T272 436Q369 436 424 387T479 254Z"  />
<glyph unicode="6" horiz-adv-x="570" d="M501 266Q501 205 483 154T431 66T350 9T247 -12Q198 -12 160 3T96 47T57 116T43 205Q43 257 52 315T81 429T131 536T203 625T298 687T419 710Q498 710 569 681L540 607Q517 620 486 627T423 635Q327 635 258 566T153 375H156Q184 411 229 433T322 455Q363 455 396 442T452 403T488 343T501 266ZM405 258Q405 311 376 344T297 377Q264 377 234 364T182 327T147 270T134 197Q134 171 140 147T161 104T196 73T248 61Q281 61 309 75T359 116T392 178T405 258Z"  />
<glyph unicode="7" horiz-adv-x="570" d="M60 0L464 616H115L133 698H577L558 606L172 0H60Z"  />
<glyph unicode="8" horiz-adv-x="570" d="M491 197Q491 147 472 108T420 43T340 2T238 -12Q188 -12 147 1T77 38T31 96T15 172Q15 252 68 300T213 374Q156 404 134 442T111 526Q111 568 128 602T175 660T249 697T343 710Q438 710 493 668T548 555Q548 486 504 440T372 362Q431 333 461 294T491 197ZM400 194Q400 240 370 272T275 330Q188 304 149 267T110 177Q110 126 147 95T245 63Q279 63 307 72T356 99T388 141T400 194ZM453 545Q453 589 422 613T338 637Q309 637 284 630T239 608T210 574T199 526Q199 486 223 457T301 402Q372 423 412 458T453 545Z"  />
<glyph unicode="9" horiz-adv-x="570" d="M536 499Q536 446 527 388T499 273T449 165T377 74T281 12T160 -12Q81 -12 10 17L39 93Q62 80 93 73T157 65Q253 65 321 135T425 332H423Q395 295 352 276T260 257Q178 257 130 305T81 438Q81 497 99 547T151 633T232 689T335 710Q433 710 484 656T536 499ZM445 511Q445 567 418 602T335 638Q301 638 272 624T222 586T188 526T176 449Q176 396 206 366T285 335Q318 335 347 348T398 385T432 441T445 511Z"  />
<glyph unicode=":" horiz-adv-x="280" d="M235 514L212 402H99L123 514H235ZM148 112L126 0H12L35 112H148Z"  />
<glyph unicode=";" horiz-adv-x="280" d="M236 514L213 402H99L123 514H236ZM154 114L7 -133H-69L53 114H154Z"  />
<glyph unicode="&lt;" horiz-adv-x="570" d="M33 199V303L527 509V410L283 314Q269 308 246 300T199 282T152 266T117 254V252Q130 248 152 240T198 222T246 204T283 189L527 94V-6L33 199Z"  />
<glyph unicode="=" horiz-adv-x="570" d="M534 395V315H30V395H534ZM534 187V107H30V187H534Z"  />
<glyph unicode="&gt;" horiz-adv-x="570" d="M33 -6V94L277 189Q291 195 314 204T361 222T408 239T443 252V254Q430 258 408 265T362 282T314 299T277 314L33 410V509L527 303V199L33 -6Z"  />
<glyph unicode="?" horiz-adv-x="475" d="M237 108L214 0H104L126 108H237ZM123 686Q167 700 200 705T272 710Q366 710 422 670T478 549Q478 520 471 496T447 450T405 404T342 353Q315 333 298 317T270 286T253 255T242 218L237 194H150L156 221Q163 252 173 277T199 325T239 371T301 421Q346 456 364 484T382 545Q382 587 348 609T259 632Q223 632 188 625T114 600L123 686Z"  />
<glyph unicode="@" horiz-adv-x="1000" d="M752 -65Q698 -90 633 -103T492 -117Q399 -117 325 -91T200 -16T121 100T93 251Q93 342 128 423T225 566T372 663T556 699Q635 699 700 678T811 616T884 520T910 394Q910 336 895 280T850 180T776 109T674 82Q633 82 607 101T580 152Q580 160 581 168T584 185H582Q553 133 513 108T422 82Q358 82 326 125T293 234Q293 278 309 328T356 422T429 493T527 522Q572 522 602 501T643 437H645Q650 454 655 470T666 503H749Q734 465 716 420T683 332T656 250T645 187Q645 169 655 158T690 147Q726 147 753 170T799 228T827 306T837 388Q837 445 817 491T761 569T675 618T562 636Q484 636 414 607T291 527T207 406T176 253Q176 184 198 128T262 32T364 -30T501 -52Q564 -52 624 -39T736 0L752 -65ZM535 455Q506 455 479 436T431 385T396 314T383 235Q383 197 400 174T451 151Q480 151 508 173T557 229T592 303T606 381Q606 414 588 434T535 455Z"  />
<glyph unicode="A" horiz-adv-x="709" d="M649 0H550L512 176H158L44 0H-63L396 698H498L649 0ZM497 255Q480 336 468 396T449 500T437 569T431 609H429Q422 597 407 572T366 505T302 402T209 255H497Z"  />
<glyph unicode="B" horiz-adv-x="607" d="M335 698Q380 698 420 691T491 666T539 617T557 538Q557 507 546 479T514 427T462 386T391 362V360Q453 346 487 307T521 210Q521 152 496 112T426 47T323 11T195 0H24L172 698H335ZM204 401H281Q314 401 346 407T405 427T447 466T463 527Q463 575 430 598T334 621H249L204 401ZM137 79H197Q250 79 291 85T362 107T406 149T421 213Q421 275 375 300T249 326H189L137 79Z"  />
<glyph unicode="C" horiz-adv-x="600" d="M613 589Q550 621 461 621Q397 621 341 596T242 529T176 429T152 307Q152 256 169 214T217 142T293 96T394 79Q468 79 524 101L511 11Q481 2 451 -2T386 -6Q312 -6 250 16T144 77T75 172T50 295Q50 382 81 456T169 586T302 673T471 705Q522 705 564 697T640 673L613 589Z"  />
<glyph unicode="D" horiz-adv-x="717" d="M172 698H309Q495 698 582 622T669 398Q669 312 639 239T550 113T402 30T195 0H24L172 698ZM140 83H202Q301 83 371 109T484 180T548 281T568 399Q568 457 550 498T498 565T417 604T312 616H251L140 83Z"  />
<glyph unicode="E" d="M559 698L540 616H250L206 406H477L459 325H189L139 83H440L421 0H24L172 698H559Z"  />
<glyph unicode="F" horiz-adv-x="505" d="M544 698L527 616H251L204 390H459L440 309H186L122 0H24L172 698H544Z"  />
<glyph unicode="G" horiz-adv-x="715" d="M655 581Q562 621 471 621Q403 621 345 598T245 532T178 433T153 307Q153 255 170 213T219 140T295 93T395 76Q421 76 441 78T483 85L531 302H380L398 381H643L563 16Q526 5 484 0T397 -6Q316 -6 252 15T143 75T74 172T50 300Q50 392 84 467T176 595T312 677T477 706Q587 706 685 665L655 581Z"  />
<glyph unicode="H" horiz-adv-x="718" d="M268 698L206 403H541L603 698H699L554 0H455L524 322H190L123 0H24L172 698H268Z"  />
<glyph unicode="I" horiz-adv-x="287" d="M268 698L123 0H24L172 698H268Z"  />
<glyph unicode="J" horiz-adv-x="377" d="M370 698L261 174Q241 77 190 33T50 -12Q24 -12 2 -8T-49 7L-31 89Q6 70 45 70Q76 70 96 78T131 103T153 142T168 197L274 698H370Z"  />
<glyph unicode="K" horiz-adv-x="626" d="M122 0H24L172 698H267L199 380H201Q209 388 232 410T296 471T397 566T539 698H664L293 367L574 0H447Q352 129 291 215T196 352H194L122 0Z"  />
<glyph unicode="L" horiz-adv-x="504" d="M268 698L140 83H434L416 0H24L172 698H268Z"  />
<glyph unicode="M" horiz-adv-x="960" d="M338 698Q362 548 379 442T406 265T422 156T429 107H431Q437 120 458 158T520 267T624 443T779 698H941L793 0H696L776 380Q780 402 788 438T805 511T821 582T834 631H832Q826 620 819 607T798 570T759 504T695 397T597 233T455 0H356Q334 138 319 236T293 401T276 509T267 574T262 611T259 635H257Q254 619 247 584T231 510T215 435T202 380L117 0H24L183 698H338Z"  />
<glyph unicode="N" horiz-adv-x="733" d="M619 698H714L566 0H439Q398 125 369 217T319 374T287 483T267 554T256 598T249 627H247Q244 611 239 582T227 518T213 448T199 384L119 0H24L172 698H313Q353 571 381 481T429 327T460 224T479 160T489 122T495 97H497Q500 113 504 137T513 188T524 244T535 296L619 698Z"  />
<glyph unicode="O" horiz-adv-x="778" d="M439 710Q506 710 559 690T649 633T705 544T725 427Q725 338 699 259T624 119T505 24T347 -12Q281 -12 227 7T135 64T75 155T54 280Q54 365 81 443T158 580T280 675T439 710ZM437 630Q375 630 324 602T235 526T178 414T157 277Q157 229 171 191T210 126T270 85T350 70Q414 70 465 100T550 180T603 294T622 427Q622 470 610 507T574 572T516 614T437 630Z"  />
<glyph unicode="P" horiz-adv-x="566" d="M122 0H24L172 698H288Q333 698 381 692T470 666T537 611T563 519Q563 455 540 410T475 337T374 295T242 281Q228 281 213 281T180 283L122 0ZM197 367Q213 365 227 365T256 365Q300 365 338 372T403 395T447 439T463 509Q463 564 418 590T274 616H249L197 367Z"  />
<glyph unicode="Q" horiz-adv-x="778" d="M439 710Q506 710 559 690T649 633T705 544T725 427Q725 356 709 291T660 171T582 75T478 11L605 -134H474L381 -10Q373 -11 364 -11T347 -12Q281 -12 227 7T135 64T75 155T54 280Q54 365 81 443T158 580T280 675T439 710ZM437 630Q375 630 324 602T235 526T178 414T157 277Q157 229 171 191T210 126T270 85T350 70Q414 70 465 100T550 180T603 294T622 427Q622 470 610 507T574 572T516 614T437 630Z"  />
<glyph unicode="R" horiz-adv-x="616" d="M306 698Q349 698 396 693T482 671T546 619T572 526Q572 490 558 459T520 405T461 366T385 347V345Q422 334 439 305T470 223L532 0H432L381 196Q372 230 364 252T339 288T295 307T221 313H186L122 0H24L172 698H306ZM204 394Q215 393 225 393T244 393Q293 393 335 398T407 416T455 455T472 521Q472 552 457 571T418 600T361 613T296 616H250L204 394Z"  />
<glyph unicode="S" horiz-adv-x="506" d="M459 591Q435 608 397 617T325 627Q265 627 226 599T187 519Q187 504 191 490T206 462T239 433T294 398Q335 375 361 352T403 306T424 257T430 203Q430 153 412 114T362 46T284 3T185 -12Q92 -12 -3 28L27 115Q62 95 103 84T183 72Q249 72 291 105T334 197Q334 235 310 264T228 326Q185 350 158 372T115 417T93 464T87 515Q87 559 106 595T157 656T233 696T326 710Q371 710 411 701T487 675L459 591Z"  />
<glyph unicode="T" horiz-adv-x="541" d="M599 698L583 616L379 620L249 0H153L283 620L74 616L90 698H599Z"  />
<glyph unicode="U" horiz-adv-x="718" d="M260 698L175 292Q166 247 166 209Q166 140 206 104T316 67Q372 67 409 90T472 152T511 239T537 338L612 698H709L622 292Q607 224 584 168T524 72T436 10T314 -12Q203 -12 137 42T70 202Q70 228 74 264T92 359L164 698H260Z"  />
<glyph unicode="V" horiz-adv-x="649" d="M178 698Q201 546 217 435T244 250T260 134T266 78H268Q275 92 298 133T363 250T470 435T625 698H731L309 0H195L79 698H178Z"  />
<glyph unicode="W" horiz-adv-x="1006" d="M580 0Q576 112 574 217T570 408T567 552T566 631H564Q556 610 530 551T466 407T378 217T274 0H147L88 698H188Q198 567 204 473T215 313T222 208T226 144T227 109T228 90H230Q233 98 238 108T253 142T282 204T330 308T404 468T511 698H649Q654 549 656 444T660 268T662 155T663 90H665Q667 95 672 105T688 137T719 199T772 304T853 466T971 698H1077L705 0H580H580Z"  />
<glyph unicode="X" horiz-adv-x="662" d="M347 424Q359 439 376 460T421 513T488 591T581 698H705L393 358L588 0H480Q447 62 422 110T377 196T345 261T322 307Q307 288 284 261T229 197T153 112T55 0H-68L277 375L105 698H209Q242 634 265 589T305 512T331 460T347 424Z"  />
<glyph unicode="Y" horiz-adv-x="618" d="M171 698Q207 615 230 561T269 472T294 414T311 371H313Q328 391 346 413T395 471T473 561T594 698H714L348 293L287 0H188L251 294L63 698H171Z"  />
<glyph unicode="Z" horiz-adv-x="558" d="M567 607Q458 484 377 392T239 236T149 135T100 83H473L459 0H-24L-8 85Q85 192 165 284T306 445T407 559T460 616H106L124 698H583L567 607H567Z"  />
<glyph unicode="[" horiz-adv-x="330" d="M372 760L357 693H254L93 -74H194L181 -140H-14L177 760H372Z"  />
<glyph unicode="\" horiz-adv-x="480" d="M97 698H177L404 0H324L97 698Z"  />
<glyph unicode="]" horiz-adv-x="330" d="M-59 -140L-44 -73H59L220 694H119L132 760H327L136 -140H-59Z"  />
<glyph unicode="^" horiz-adv-x="570" d="M407 272L326 482Q323 491 317 508T303 544T291 579T282 605H281Q279 596 274 580T262 544T249 508T239 482L162 272H70L243 698H326L500 272H407Z"  />
<glyph unicode="_" horiz-adv-x="500" d="M500 -78V-128H0V-78H500Z"  />
<glyph unicode="`" horiz-adv-x="500" d="M363 579H296L176 756H277L363 579Z"  />
<glyph unicode="a" horiz-adv-x="547" d="M369 245Q355 247 338 247T306 248Q251 248 214 239T153 216T119 182T109 140Q109 105 132 86T195 66Q227 66 256 79T308 116T347 173T369 245ZM343 90Q320 45 274 20T171 -6Q99 -6 56 32T13 134Q13 222 84 268T292 315Q313 315 337 315T381 312Q383 320 384 329T385 349Q385 397 355 422T270 448Q193 448 124 417L133 497Q164 509 203 515T280 522Q374 522 424 480T474 359Q474 326 466 281T447 193Q438 152 433 125T424 76T420 38T419 0H335Q336 21 339 45T345 90H343H343Z"  />
<glyph unicode="b" horiz-adv-x="618" d="M349 446Q308 446 273 427T212 375T172 299T157 206Q157 141 191 103T284 64Q323 64 355 84T411 138T448 218T461 317Q461 375 434 410T349 446ZM203 443Q240 485 283 503T372 522Q461 522 510 468T559 317Q559 260 543 201T495 95T413 18T298 -12Q235 -12 191 14T126 91H124L105 0H18L179 756H273L233 575Q225 538 216 501T201 443H203Z"  />
<glyph unicode="c" horiz-adv-x="452" d="M421 415Q379 440 323 440Q279 440 244 423T183 376T143 306T129 217Q129 152 164 113T268 73Q295 73 320 77T374 95L361 8Q336 -1 311 -4T260 -7Q148 -7 89 53T30 219Q30 283 51 337T112 432T204 494T321 517Q355 517 386 512T445 495L421 415Z"  />
<glyph unicode="d" horiz-adv-x="618" d="M466 432Q467 444 471 464T479 505T487 546T493 576L531 756H624L494 143Q489 121 486 104T480 70T475 37T469 0H386Q388 19 392 43T402 86H400Q374 45 333 17T233 -12Q188 -12 151 3T88 47T48 117T34 208Q34 276 55 333T113 433T199 498T306 522Q371 522 409 496T464 432H466ZM309 446Q270 446 238 428T182 377T145 301T132 210Q132 141 165 103T256 64Q292 64 324 83T381 135T420 212T435 307Q435 374 402 410T309 446Z"  />
<glyph unicode="e" horiz-adv-x="555" d="M129 232Q127 222 127 212Q127 140 172 103T290 66Q367 66 437 95L421 9Q385 -2 351 -7T279 -12Q161 -12 98 47T34 215Q34 279 55 335T113 433T200 498T310 522Q404 522 455 471T507 328Q507 308 504 281T495 232H129ZM414 303Q416 311 416 320T417 337Q417 391 388 420T308 450Q245 450 202 411T141 303H414Z"  />
<glyph unicode="f" horiz-adv-x="348" d="M430 678Q406 685 379 685Q329 685 300 650T255 535L249 506H387L371 434H236L142 0H49L142 434H27L41 506H158L164 535Q174 586 190 627T230 698T291 744T377 760Q395 760 413 758T446 751L430 678Z"  />
<glyph unicode="g" horiz-adv-x="616" d="M25 -97Q66 -120 110 -132T195 -145Q245 -145 278 -128T334 -80T370 -8T395 80H393Q366 42 325 21T230 0Q185 0 149 14T88 56T49 121T35 208Q35 276 54 333T109 433T193 498T299 522Q360 522 403 497T465 424H467L486 510H574L469 29Q457 -24 438 -70T386 -150T306 -203T190 -222Q145 -222 98 -213T6 -183L25 -97ZM310 446Q274 446 242 428T186 379T147 305T132 213Q132 147 165 111T253 74Q291 74 324 92T382 143T421 220T435 314Q435 378 402 412T310 446Z"  />
<glyph unicode="h" horiz-adv-x="608" d="M369 522Q450 522 492 479T534 358Q534 338 531 316T523 271L466 0H372L432 279Q437 299 439 317T442 349Q442 396 420 421T351 446Q309 446 271 421T204 352Q196 339 190 326T177 294T165 252T152 192L112 0H18L177 756H271L232 576Q229 563 224 543T214 501T205 461T197 433H199Q232 474 274 498T369 522Z"  />
<glyph unicode="i" horiz-adv-x="266" d="M264 698L243 593H135L157 698H264ZM220 510L112 0H18L126 510H220Z"  />
<glyph unicode="j" horiz-adv-x="266" d="M268 698L246 593H139L161 698H268ZM224 510L102 -69Q85 -146 47 -184T-58 -222Q-76 -222 -95 -219T-133 -210L-118 -131Q-94 -139 -70 -139Q-30 -139 -13 -113T17 -27L130 510H224Z"  />
<glyph unicode="k" horiz-adv-x="531" d="M111 0H18L178 756H272L173 303H175Q179 307 191 318T231 352T304 413T422 510H551L259 284L471 0H355Q305 71 272 118T217 196T185 244T169 270H167L111 0Z"  />
<glyph unicode="l" horiz-adv-x="266" d="M178 756H272L112 0H18L178 756Z"  />
<glyph unicode="m" horiz-adv-x="899" d="M190 421Q220 465 263 493T362 522Q417 522 451 496T496 427Q530 472 577 497T678 522Q750 522 787 485T825 382Q825 354 820 323T808 263L751 0H657L714 265Q721 297 725 323T729 369Q729 401 712 423T649 446Q623 446 599 434T554 400T519 349T495 283L431 0H337L399 291Q406 323 408 340T411 369Q411 405 391 425T334 446Q299 446 264 423T202 353Q194 340 188 326T177 294T165 251T152 191L112 0H18L103 400Q108 426 113 453T122 510H207Q204 491 199 466T188 421H190Z"  />
<glyph unicode="n" horiz-adv-x="608" d="M190 421Q225 470 271 496T369 522Q450 522 492 479T534 358Q534 338 531 316T523 271L466 0H372L432 279Q437 299 439 317T442 349Q442 396 420 421T351 446Q309 446 271 421T204 352Q196 339 190 326T177 294T165 252T152 192L112 0H18L103 400Q108 426 113 453T122 510H207Q204 492 199 468T188 421H190Z"  />
<glyph unicode="o" horiz-adv-x="600" d="M321 522Q372 522 413 506T482 461T525 392T540 301Q540 236 521 180T466 80T377 13T256 -12Q204 -12 163 4T93 49T49 119T34 211Q34 275 55 332T114 431T205 497T321 522ZM314 446Q272 446 238 427T181 375T144 300T131 211Q131 144 164 104T259 64Q303 64 337 83T395 135T431 210T444 297Q444 366 411 406T314 446Z"  />
<glyph unicode="p" horiz-adv-x="618" d="M124 92Q122 80 119 63T113 27T107 -11T100 -45L66 -210H-27L104 411Q110 440 113 462T121 510H207Q205 494 201 472T193 433H196Q227 475 269 498T365 522Q457 522 507 466T558 312Q558 256 541 198T491 94T409 18T296 -12Q233 -12 191 14T126 92H124ZM344 446Q306 446 272 427T212 375T171 299T155 206Q155 174 164 148T191 103T232 74T284 64Q321 64 353 84T409 138T446 219T460 317Q460 380 430 413T344 446Z"  />
<glyph unicode="q" horiz-adv-x="618" d="M311 446Q272 446 240 428T183 377T146 302T133 211Q133 142 166 103T257 64Q294 64 326 83T383 135T421 212T435 307Q435 374 403 410T311 446ZM394 68Q365 30 325 9T228 -12Q184 -12 148 3T87 47T48 116T34 207Q34 270 53 327T108 428T194 496T305 522Q367 522 408 495T465 428H467Q471 448 476 469T488 510H579Q574 493 569 472T559 429L423 -210H329L365 -54Q369 -38 373 -21T381 13T389 44T396 68H394Z"  />
<glyph unicode="r" horiz-adv-x="385" d="M207 510Q204 490 200 469T188 419H190Q222 470 261 496T346 522Q364 522 376 520T403 513L384 433Q371 438 361 440T336 443Q297 443 268 425T217 375T181 304T158 220L112 0H18L93 353Q104 409 110 444T122 510H207Z"  />
<glyph unicode="s" horiz-adv-x="396" d="M346 422Q290 451 234 451Q195 451 169 433T143 384Q143 373 146 364T158 345T182 324T221 296Q277 258 299 226T322 151Q322 74 267 31T118 -12Q86 -12 50 -5T-22 14L3 89Q62 61 119 61Q168 61 197 82T226 144Q226 172 206 194T139 247Q100 273 77 302T53 374Q53 445 105 483T243 522Q310 522 375 494L346 422Z"  />
<glyph unicode="t" horiz-adv-x="371" d="M180 633L283 668L247 506H387L372 434H231L184 215Q176 177 173 161T170 131Q170 98 189 85T240 72Q260 72 276 75T306 84L291 6Q275 1 256 -2T213 -6Q144 -6 110 24T76 108Q76 128 79 154T94 230L138 434H25L40 506H154L180 633Z"  />
<glyph unicode="u" horiz-adv-x="608" d="M214 -12Q133 -12 91 31T49 152Q49 172 52 194T60 239L117 510H211L151 231Q146 211 144 193T141 161Q141 114 163 89T232 64Q274 64 312 89T379 158Q387 171 394 184T407 216T419 258T432 318L472 510H566L480 110Q475 84 470 57T461 0H376Q379 18 384 42T395 89H393Q358 40 312 14T214 -12Z"  />
<glyph unicode="v" horiz-adv-x="498" d="M147 510Q164 382 174 304T190 181T198 114T202 81H204Q210 94 220 115T255 181T321 305T433 510H532L241 0H132L50 510H147Z"  />
<glyph unicode="w" horiz-adv-x="833" d="M109 0L49 510H145Q157 380 164 301T174 177T179 111T180 78H182Q186 86 191 97T205 128T229 177T267 252T322 361T400 510H517Q529 381 536 302T547 178T552 111T553 78H555Q561 90 571 111T604 177T667 302T773 510H873L595 0H482Q473 91 468 157T458 269T452 346T448 395T447 423T446 440H444Q441 434 438 425T426 399T404 352T365 277T306 162T220 0H109Z"  />
<glyph unicode="x" horiz-adv-x="498" d="M251 327Q266 347 301 389T403 510H516L293 266L420 0H316Q284 72 260 124T226 205Q206 178 163 125T56 0H-59L181 273L70 510H172Q207 432 225 390T251 327Z"  />
<glyph unicode="y" horiz-adv-x="498" d="M147 510Q164 382 174 304T190 180T198 114T202 81H204Q208 89 213 100T229 131T254 180T294 255T352 362T433 510H532L216 -45Q189 -93 165 -126T115 -181T62 -212T-2 -222Q-36 -222 -65 -215L-54 -139Q-30 -145 -8 -145Q38 -145 70 -114T134 -21L50 510H147Z"  />
<glyph unicode="z" horiz-adv-x="501" d="M473 428Q380 338 314 276T203 172T132 108T94 74V72H415L402 0H-24L-9 81Q96 183 164 248T274 352T336 409T367 436V438H83L97 510H488L473 428H473Z"  />
<glyph unicode="{" horiz-adv-x="330" d="M18 343Q54 347 75 356T110 382T131 423T146 479L159 539Q171 597 186 638T226 707T291 747T394 760L381 699Q324 699 297 664T255 559L245 512Q235 465 225 430T200 369T161 330T99 311L98 309Q143 302 160 280T177 222Q177 210 176 197T171 165T162 121T148 60Q140 23 140 0Q140 -38 158 -56T216 -79L203 -140Q159 -137 129 -130T81 -109T55 -75T47 -27Q47 -5 51 21T62 80Q69 113 73 134T80 170T84 193T85 209Q85 239 68 255T3 277L18 343Z"  />
<glyph unicode="|" horiz-adv-x="264" d="M94 786H170V-214H94V786Z"  />
<glyph unicode="}" horiz-adv-x="330" d="M307 277Q271 273 250 264T215 238T194 197T179 141L166 81Q154 23 139 -18T99 -87T34 -127T-69 -140L-56 -79Q1 -79 28 -44T70 61L80 108Q90 154 100 190T125 251T164 290T226 309L227 311Q182 318 165 340T148 398Q148 410 149 423T154 455T163 499T177 560Q185 597 185 620Q185 658 167 676T109 699L122 760Q166 757 196 750T244 729T270 695T278 647Q278 625 274 599T263 540Q256 507 252 485T245 449T241 427T240 411Q240 381 257 365T322 343L307 277Z"  />
<glyph unicode="~" horiz-adv-x="570" d="M517 229Q495 203 461 187T388 171Q347 171 317 183T259 211T203 238T140 251Q120 251 102 245T69 229T42 206T21 180V272Q43 299 77 314T150 330Q190 330 221 318T279 291T335 264T398 251Q439 251 469 273T517 322V229Z"  />
<glyph unicode="&#xA0;" horiz-adv-x="240" />
<glyph unicode="&#xA1;" horiz-adv-x="315" d="M-16 -187L108 306H189L95 -187H-16ZM110 404L131 511H243L220 404H110Z"  />
<glyph unicode="&#xA2;" horiz-adv-x="570" d="M466 413Q439 430 401 436L290 74Q295 73 300 73T310 73Q337 73 363 78T418 96L405 9Q380 0 354 -3T302 -7Q292 -7 283 -7T266 -5L229 -127H178L218 4Q146 24 108 80T70 219Q70 283 92 337T153 432T246 494T363 517H374L411 639H463L424 512Q441 509 458 504T490 493L466 413ZM169 217Q169 170 188 137T243 86L350 439Q309 436 276 418T219 371T182 302T169 217Z"  />
<glyph unicode="&#xA3;" horiz-adv-x="570" d="M558 606Q502 631 449 631Q403 631 373 611T324 559T292 488T271 410L266 390H434L423 335H258L205 81H455L438 0H-4L12 81H107L160 335H76L88 390H169L177 425Q190 479 208 530T256 621T333 685T451 710Q490 710 523 703T585 683L558 606Z"  />
<glyph unicode="&#xA4;" horiz-adv-x="570" d="M287 241Q332 241 361 271T390 349Q390 396 361 426T287 457Q243 457 213 427T183 349Q183 302 212 272T287 241ZM101 595L189 506Q232 532 287 532Q341 532 384 506L473 595L531 537L443 449Q472 406 472 350Q472 296 444 251L531 165L471 105L384 192Q340 165 287 165Q232 165 187 193L99 105L41 163L129 251Q116 273 109 298T102 350Q102 405 129 447L41 535L101 595Z"  />
<glyph unicode="&#xA5;" horiz-adv-x="570" d="M180 698Q210 615 229 560T259 467T277 405T287 361H289Q303 381 318 404T360 463T428 555T533 698H653L361 336H480L470 282H324L311 219H456L445 164H299L266 0H167L201 164H55L66 219H213L227 282H79L91 336H213L72 698H180Z"  />
<glyph unicode="&#xA6;" horiz-adv-x="264" d="M94 786H170V398H94V786ZM94 174H170V-214H94V174Z"  />
<glyph unicode="&#xA7;" horiz-adv-x="570" d="M29 -13Q74 -32 112 -40T189 -48Q255 -48 291 -23T328 44Q328 59 323 71T305 95T268 119T209 148Q172 164 147 180T107 213T86 249T80 291Q80 336 107 373T194 439Q161 462 147 488T132 548Q132 584 147 614T191 665T260 698T352 710Q400 710 441 702T517 677L490 602Q458 619 426 627T355 635Q295 635 261 613T226 553Q226 540 231 529T249 506T287 480T349 447Q388 428 414 411T456 376T479 339T486 295Q486 248 457 211T370 152Q422 113 422 49Q422 -34 362 -79T188 -124Q144 -124 94 -116T2 -89L29 -13ZM314 185Q352 200 376 226T400 284Q400 299 394 312T372 340T327 370T255 407Q208 390 186 363T164 307Q164 281 182 260T248 216L314 185Z"  />
<glyph unicode="&#xA8;" horiz-adv-x="500" d="M362 697H451L430 597H341L362 697ZM199 697H288L267 597H178L199 697Z"  />
<glyph unicode="&#xA9;" horiz-adv-x="900" d="M566 483Q547 494 525 500T478 507Q445 507 418 496T371 465T340 418T329 357Q329 322 340 294T372 246T421 214T482 203Q502 203 523 207T570 223L574 164Q555 156 530 152T482 147Q434 147 394 160T324 201T279 267T262 357Q262 402 278 440T324 505T392 547T478 562Q503 562 526 559T571 546L566 483ZM450 661Q384 661 328 637T230 570T164 471T140 350Q140 285 164 229T229 129T327 62T450 37Q516 37 572 61T670 129T736 229T760 352Q760 415 736 471T671 569T573 636T450 661ZM450 701Q523 701 587 674T699 600T774 488T802 350Q802 276 775 212T699 100T587 25T450 -3Q377 -3 313 24T201 100T126 213T98 352Q98 425 125 488T201 599T313 674T450 701Z"  />
<glyph unicode="&#xAA;" horiz-adv-x="424" d="M323 484Q312 486 303 486T285 486Q211 486 180 464T148 411Q148 388 163 374T202 360Q253 360 284 396T323 484ZM307 368Q283 329 249 313T178 297Q124 297 92 326T59 406Q59 469 113 506T281 543Q292 543 306 543T333 541Q336 556 336 570Q336 599 315 616T252 633Q225 633 192 624T132 600L147 676Q176 686 207 691T268 697Q341 697 379 667T418 576Q418 559 414 532T403 474T391 416T382 370Q380 356 378 338T376 303H303Q304 320 305 335T309 368H307Z"  />
<glyph unicode="&#xAB;" horiz-adv-x="510" d="M189 456H293L111 248L211 53H114L11 250L189 456ZM387 456H491L309 248L409 53H312L209 250L387 456Z"  />
<glyph unicode="&#xAC;" horiz-adv-x="570" d="M440 329H21V409H524V98H440V329Z"  />
<glyph unicode="&#xAD;" horiz-adv-x="330" d="M294 303L279 224H12L28 303H294Z"  />
<glyph unicode="&#xAE;" horiz-adv-x="500" d="M236 621H288Q324 621 346 610T368 568Q368 551 357 539T325 522V520Q336 516 342 509T353 491L386 421H344L317 482Q311 496 303 501T276 507H272V421H236V621ZM272 538H281Q330 538 330 564Q330 581 318 585T281 590H272V538ZM304 692Q339 692 370 678T425 640T462 585T476 517Q476 480 463 448T425 391T369 354T301 340Q264 340 232 354T175 392T138 448T124 518Q124 554 138 586T176 641T233 678T304 692ZM298 663Q268 663 242 652T196 620T165 574T153 517Q153 486 164 459T196 412T243 381T300 369Q330 369 357 380T404 412T435 460T447 518Q447 548 435 574T403 620T356 651T298 663Z"  />
<glyph unicode="&#xAF;" horiz-adv-x="500" d="M184 670H453L442 612H172L184 670Z"  />
<glyph unicode="&#xB0;" horiz-adv-x="370" d="M227 708Q258 708 286 696T335 662T368 613T380 552Q380 520 368 492T334 442T285 409T224 396Q192 396 164 408T114 442T81 491T69 553Q69 585 81 613T115 663T165 696T227 708ZM223 635Q190 635 168 611T146 552Q146 517 168 493T224 469Q259 469 281 493T303 553Q303 588 281 611T223 635Z"  />
<glyph unicode="&#xB1;" horiz-adv-x="570" d="M320 503V364H529V284H320V146H236V284H25V364H236V503H320ZM529 80V0H25V80H529Z"  />
<glyph unicode="&#xB2;" horiz-adv-x="380" d="M70 428Q70 430 72 439T76 460T81 481T84 494Q199 578 258 635T318 738Q318 766 301 779T253 792Q230 792 202 784T151 762L155 829Q181 842 210 847T268 853Q325 853 360 826T396 746Q396 718 386 693T354 640T295 581T206 512Q198 506 188 499T168 487V486Q197 487 223 487T271 488H355L344 428H70Z"  />
<glyph unicode="&#xB3;" horiz-adv-x="380" d="M370 557Q370 491 323 457T197 422Q166 422 135 428T77 445L93 504Q118 493 144 487T195 480Q237 480 265 497T294 553Q294 617 194 617Q188 617 183 617T171 615L182 674Q188 673 194 673T207 673Q264 673 295 692T326 744Q326 770 306 781T255 793Q211 793 162 771L169 835Q190 842 215 847T268 852Q327 852 364 827T402 752Q402 711 372 682T284 645V643Q322 637 346 614T370 557Z"  />
<glyph unicode="&#xB4;" horiz-adv-x="500" d="M326 579H255L373 756H485L326 579Z"  />
<glyph unicode="&#xB5;" horiz-adv-x="638" d="M401 99Q374 67 349 46T298 11T247 -7T197 -12Q169 -12 149 -4T114 18L110 16Q109 6 106 -12T99 -51T90 -96T81 -138L66 -210H-28L125 510H219L165 258Q159 229 155 203T151 154Q151 115 169 91T234 66Q266 66 297 82T355 127T402 194T431 277L480 510H574L494 135Q488 107 491 91T517 75Q524 75 530 76T542 79L529 2Q517 -3 501 -4T469 -6Q431 -6 412 20T403 99H401Z"  />
<glyph unicode="&#xB6;" horiz-adv-x="619" d="M566 629L389 -197H305L482 629H367L191 -197H107L199 231Q39 252 39 402Q39 472 65 527T137 620T242 678T369 698H634L620 629H566Z"  />
<glyph unicode="&#xB7;" horiz-adv-x="240" d="M175 319L153 207H39L62 319H175Z"  />
<glyph unicode="&#xB8;" horiz-adv-x="500" d="M221 -71Q226 -70 232 -70T246 -69Q275 -69 297 -84T319 -135Q319 -160 309 -179T280 -211T239 -230T190 -237Q175 -237 158 -235T130 -229L141 -188Q153 -191 163 -192T185 -193Q211 -193 232 -183T253 -145Q253 -126 241 -118T208 -109Q201 -109 190 -110T165 -114L204 11H253L221 -71Z"  />
<glyph unicode="&#xB9;" horiz-adv-x="380" d="M193 428L241 646Q244 659 248 676T256 711T264 744T270 768H269Q251 750 189 708L155 760L291 847H358L269 428H193Z"  />
<glyph unicode="&#xBA;" horiz-adv-x="483" d="M311 697Q390 697 436 651T483 527Q483 477 467 435T422 361T351 313T258 295Q218 295 186 307T131 341T96 396T83 467Q83 517 100 559T147 632T219 680T311 697ZM305 631Q276 631 253 618T212 583T186 530T176 465Q176 417 199 390T263 362Q291 362 314 375T355 412T382 465T392 530Q392 578 369 604T305 631Z"  />
<glyph unicode="&#xBB;" horiz-adv-x="510" d="M283 52H179L361 260L261 455H358L461 258L283 52ZM85 52H-19L163 260L63 455H160L263 258L85 52Z"  />
<glyph unicode="&#xBC;" horiz-adv-x="885" d="M168 281L216 499Q219 512 223 529T231 564T239 597T245 621H244Q226 603 164 561L130 613L266 700H333L244 281H168ZM241 -21H173L669 735H738L241 -21ZM665 0L685 88H497L510 153L729 419H826L767 144H822L810 88H756L736 0H665ZM715 221Q722 250 732 292T753 372H752Q745 362 734 347T699 302L570 144H697L715 221Z"  />
<glyph unicode="&#xBD;" horiz-adv-x="885" d="M168 281L216 499Q219 512 223 529T231 564T239 597T245 621H244Q226 603 164 561L130 613L266 700H333L244 281H168ZM241 -21H173L669 735H738L241 -21ZM489 0Q489 2 491 11T495 32T500 53T503 66Q618 150 677 207T737 310Q737 338 720 351T672 364Q649 364 621 356T570 334L574 401Q600 414 629 419T687 425Q744 425 779 398T815 318Q815 290 805 265T773 212T714 153T625 84Q617 78 607 71T587 59V58Q616 59 642 59T690 60H774L763 0H489Z"  />
<glyph unicode="&#xBE;" horiz-adv-x="885" d="M345 410Q345 344 298 310T172 275Q141 275 110 281T52 298L68 357Q93 346 119 340T170 333Q212 333 240 350T269 406Q269 470 169 470Q163 470 158 470T146 468L157 527Q163 526 169 526T182 526Q239 526 270 545T301 597Q301 623 281 634T230 646Q186 646 137 624L144 688Q165 695 190 700T243 705Q302 705 339 680T377 605Q377 564 347 535T259 498V496Q297 490 321 467T345 410ZM241 -21H173L669 735H738L241 -21ZM665 0L685 88H497L510 153L729 419H826L767 144H822L810 88H756L736 0H665ZM715 221Q722 250 732 292T753 372H752Q745 362 734 347T699 302L570 144H697L715 221Z"  />
<glyph unicode="&#xBF;" horiz-adv-x="475" d="M205 403L228 511H338L316 403H205ZM319 -175Q275 -189 242 -194T170 -199Q76 -199 20 -159T-36 -38Q-36 -10 -29 14T-5 61T37 107T100 158Q127 178 144 194T172 225T189 256T200 293L205 317H292L286 290Q278 258 269 234T243 186T203 140T141 90Q96 55 78 27T60 -34Q60 -76 94 -98T183 -121Q219 -121 254 -114T328 -89L319 -175Z"  />
<glyph unicode="&#xC0;" horiz-adv-x="709" d="M649 0H550L512 176H158L44 0H-63L396 698H498L649 0ZM497 255Q480 336 468 396T449 500T437 569T431 609H429Q422 597 407 572T366 505T302 402T209 255H497ZM495 750H428L327 894H428L495 750Z"  />
<glyph unicode="&#xC1;" horiz-adv-x="709" d="M649 0H550L512 176H158L44 0H-63L396 698H498L649 0ZM497 255Q480 336 468 396T449 500T437 569T431 609H429Q422 597 407 572T366 505T302 402T209 255H497ZM480 750H409L503 894H615L480 750Z"  />
<glyph unicode="&#xC2;" horiz-adv-x="709" d="M649 0H550L512 176H158L44 0H-63L396 698H498L649 0ZM497 255Q480 336 468 396T449 500T437 569T431 609H429Q422 597 407 572T366 505T302 402T209 255H497ZM439 894H525L600 750H526L475 848L388 750H306L439 894Z"  />
<glyph unicode="&#xC3;" horiz-adv-x="709" d="M649 0H550L512 176H158L44 0H-63L396 698H498L649 0ZM497 255Q480 336 468 396T449 500T437 569T431 609H429Q422 597 407 572T366 505T302 402T209 255H497ZM287 761Q300 810 324 840T391 870Q409 870 427 863T469 841Q485 832 499 826T526 820Q546 820 557 832T576 868H628Q617 819 592 788T525 756Q506 756 488 762T451 780Q426 794 413 799T386 805Q371 805 358 795T338 761H287Z"  />
<glyph unicode="&#xC4;" horiz-adv-x="709" d="M649 0H550L512 176H158L44 0H-63L396 698H498L649 0ZM497 255Q480 336 468 396T449 500T437 569T431 609H429Q422 597 407 572T366 505T302 402T209 255H497ZM513 857H602L581 757H492L513 857ZM350 857H439L418 757H329L350 857Z"  />
<glyph unicode="&#xC5;" horiz-adv-x="709" d="M649 0H550L512 176H158L44 0H-63L396 698H498L649 0ZM497 255Q480 336 468 396T449 500T437 569T431 609H429Q422 597 407 572T366 505T302 402T209 255H497ZM458 940Q479 940 497 932T529 910T551 878T559 838Q559 817 551 799T529 767T497 745T457 737Q436 737 418 745T385 766T363 798T355 838Q355 859 363 878T385 910T418 932T458 940ZM457 900Q432 900 414 882T396 839Q396 813 414 796T458 778Q483 778 501 795T519 839Q519 865 501 882T457 900Z"  />
<glyph unicode="&#xC6;" horiz-adv-x="926" d="M932 698L914 616H645L604 406H853L836 325H591L544 83H813L796 0H430L466 177H196L52 0H-70L517 698H932ZM481 256Q514 424 532 513T559 626H557Q549 615 529 589T472 518T384 409T258 256H481H481Z"  />
<glyph unicode="&#xC7;" horiz-adv-x="600" d="M613 589Q550 621 461 621Q397 621 341 596T242 529T176 429T152 307Q152 256 169 214T217 142T293 96T394 79Q468 79 524 101L511 11Q481 2 451 -2T386 -6Q377 -6 369 -6T353 -4L327 -71Q332 -70 338 -70T352 -69Q381 -69 403 -84T425 -135Q425 -160 415 -179T386 -211T345 -230T296 -237Q281 -237 264 -235T236 -229L247 -188Q259 -191 269 -192T291 -193Q317 -193 338 -183T359 -145Q359 -126 347 -118T314 -109Q307 -109 296 -110T271 -114L307 1Q249 11 202 37T121 101T69 188T50 295Q50 382 81 456T169 586T302 673T471 705Q522 705 564 697T640 673L613 589Z"  />
<glyph unicode="&#xC8;" d="M559 698L540 616H250L206 406H477L459 325H189L139 83H440L421 0H24L172 698H559ZM412 750H345L244 894H345L412 750Z"  />
<glyph unicode="&#xC9;" d="M559 698L540 616H250L206 406H477L459 325H189L139 83H440L421 0H24L172 698H559ZM388 750H317L411 894H523L388 750Z"  />
<glyph unicode="&#xCA;" d="M559 698L540 616H250L206 406H477L459 325H189L139 83H440L421 0H24L172 698H559ZM358 894H444L519 750H445L394 848L307 750H225L358 894Z"  />
<glyph unicode="&#xCB;" d="M559 698L540 616H250L206 406H477L459 325H189L139 83H440L421 0H24L172 698H559ZM428 857H517L496 757H407L428 857ZM265 857H354L333 757H244L265 857Z"  />
<glyph unicode="&#xCC;" horiz-adv-x="287" d="M268 698L123 0H24L172 698H268ZM271 750H204L103 894H204L271 750Z"  />
<glyph unicode="&#xCD;" horiz-adv-x="287" d="M268 698L123 0H24L172 698H268ZM256 750H185L279 894H391L256 750Z"  />
<glyph unicode="&#xCE;" horiz-adv-x="287" d="M268 698L123 0H24L172 698H268ZM217 894H303L378 750H304L253 848L166 750H84L217 894Z"  />
<glyph unicode="&#xCF;" horiz-adv-x="287" d="M268 698L123 0H24L172 698H268ZM290 857H379L358 757H269L290 857ZM127 857H216L195 757H106L127 857Z"  />
<glyph unicode="&#xD0;" horiz-adv-x="717" d="M95 334H25L38 389H106L172 698H309Q495 698 582 622T669 398Q669 312 639 239T550 113T402 30T195 0H24L95 334ZM204 389H355L343 334H192L140 83H202Q301 83 371 109T484 180T548 281T568 399Q568 457 550 498T498 565T417 604T312 616H251L204 389Z"  />
<glyph unicode="&#xD1;" horiz-adv-x="733" d="M619 698H714L566 0H439Q398 125 369 217T319 374T287 483T267 554T256 598T249 627H247Q244 611 239 582T227 518T213 448T199 384L119 0H24L172 698H313Q353 571 381 481T429 327T460 224T479 160T489 122T495 97H497Q500 113 504 137T513 188T524 244T535 296L619 698ZM286 761Q299 810 323 840T390 870Q408 870 426 863T468 841Q484 832 498 826T525 820Q545 820 556 832T575 868H627Q616 819 591 788T524 756Q505 756 487 762T450 780Q425 794 412 799T385 805Q370 805 357 795T337 761H286Z"  />
<glyph unicode="&#xD2;" horiz-adv-x="778" d="M439 710Q506 710 559 690T649 633T705 544T725 427Q725 338 699 259T624 119T505 24T347 -12Q281 -12 227 7T135 64T75 155T54 280Q54 365 81 443T158 580T280 675T439 710ZM437 630Q375 630 324 602T235 526T178 414T157 277Q157 229 171 191T210 126T270 85T350 70Q414 70 465 100T550 180T603 294T622 427Q622 470 610 507T574 572T516 614T437 630ZM490 750H423L322 894H423L490 750Z"  />
<glyph unicode="&#xD3;" horiz-adv-x="778" d="M439 710Q506 710 559 690T649 633T705 544T725 427Q725 338 699 259T624 119T505 24T347 -12Q281 -12 227 7T135 64T75 155T54 280Q54 365 81 443T158 580T280 675T439 710ZM437 630Q375 630 324 602T235 526T178 414T157 277Q157 229 171 191T210 126T270 85T350 70Q414 70 465 100T550 180T603 294T622 427Q622 470 610 507T574 572T516 614T437 630ZM474 750H403L497 894H609L474 750Z"  />
<glyph unicode="&#xD4;" horiz-adv-x="778" d="M439 710Q506 710 559 690T649 633T705 544T725 427Q725 338 699 259T624 119T505 24T347 -12Q281 -12 227 7T135 64T75 155T54 280Q54 365 81 443T158 580T280 675T439 710ZM437 630Q375 630 324 602T235 526T178 414T157 277Q157 229 171 191T210 126T270 85T350 70Q414 70 465 100T550 180T603 294T622 427Q622 470 610 507T574 572T516 614T437 630ZM450 894H536L611 750H537L486 848L399 750H317L450 894Z"  />
<glyph unicode="&#xD5;" horiz-adv-x="778" d="M439 710Q506 710 559 690T649 633T705 544T725 427Q725 338 699 259T624 119T505 24T347 -12Q281 -12 227 7T135 64T75 155T54 280Q54 365 81 443T158 580T280 675T439 710ZM437 630Q375 630 324 602T235 526T178 414T157 277Q157 229 171 191T210 126T270 85T350 70Q414 70 465 100T550 180T603 294T622 427Q622 470 610 507T574 572T516 614T437 630ZM307 761Q320 810 344 840T411 870Q429 870 447 863T489 841Q505 832 519 826T546 820Q566 820 577 832T596 868H648Q637 819 612 788T545 756Q526 756 508 762T471 780Q446 794 433 799T406 805Q391 805 378 795T358 761H307Z"  />
<glyph unicode="&#xD6;" horiz-adv-x="778" d="M439 710Q506 710 559 690T649 633T705 544T725 427Q725 338 699 259T624 119T505 24T347 -12Q281 -12 227 7T135 64T75 155T54 280Q54 365 81 443T158 580T280 675T439 710ZM437 630Q375 630 324 602T235 526T178 414T157 277Q157 229 171 191T210 126T270 85T350 70Q414 70 465 100T550 180T603 294T622 427Q622 470 610 507T574 572T516 614T437 630ZM517 857H606L585 757H496L517 857ZM354 857H443L422 757H333L354 857Z"  />
<glyph unicode="&#xD7;" horiz-adv-x="570" d="M98 496L284 310L470 496L528 438L342 252L528 66L468 6L282 192L96 6L38 64L224 250L38 436L98 496Z"  />
<glyph unicode="&#xD8;" horiz-adv-x="778" d="M439 710Q500 710 549 694T634 646L714 730L754 692L672 606Q725 535 725 427Q725 338 699 259T624 119T505 24T347 -12Q222 -12 145 53L65 -31L26 3L110 92Q83 127 69 174T54 280Q54 365 81 443T158 580T280 675T439 710ZM437 630Q375 630 324 602T235 526T178 414T157 277Q157 212 181 167L569 577Q545 602 512 616T437 630ZM622 427Q622 483 600 530L212 123Q263 70 350 70Q414 70 465 100T550 180T603 294T622 427Z"  />
<glyph unicode="&#xD9;" horiz-adv-x="718" d="M260 698L175 292Q166 247 166 209Q166 140 206 104T316 67Q372 67 409 90T472 152T511 239T537 338L612 698H709L622 292Q607 224 584 168T524 72T436 10T314 -12Q203 -12 137 42T70 202Q70 228 74 264T92 359L164 698H260ZM484 750H417L316 894H417L484 750Z"  />
<glyph unicode="&#xDA;" horiz-adv-x="718" d="M260 698L175 292Q166 247 166 209Q166 140 206 104T316 67Q372 67 409 90T472 152T511 239T537 338L612 698H709L622 292Q607 224 584 168T524 72T436 10T314 -12Q203 -12 137 42T70 202Q70 228 74 264T92 359L164 698H260ZM461 750H390L484 894H596L461 750Z"  />
<glyph unicode="&#xDB;" horiz-adv-x="718" d="M260 698L175 292Q166 247 166 209Q166 140 206 104T316 67Q372 67 409 90T472 152T511 239T537 338L612 698H709L622 292Q607 224 584 168T524 72T436 10T314 -12Q203 -12 137 42T70 202Q70 228 74 264T92 359L164 698H260ZM430 894H516L591 750H517L466 848L379 750H297L430 894Z"  />
<glyph unicode="&#xDC;" horiz-adv-x="718" d="M260 698L175 292Q166 247 166 209Q166 140 206 104T316 67Q372 67 409 90T472 152T511 239T537 338L612 698H709L622 292Q607 224 584 168T524 72T436 10T314 -12Q203 -12 137 42T70 202Q70 228 74 264T92 359L164 698H260ZM501 857H590L569 757H480L501 857ZM338 857H427L406 757H317L338 857Z"  />
<glyph unicode="&#xDD;" horiz-adv-x="618" d="M171 698Q207 615 230 561T269 472T294 414T311 371H313Q328 391 346 413T395 471T473 561T594 698H714L348 293L287 0H188L251 294L63 698H171ZM393 750H322L416 894H528L393 750Z"  />
<glyph unicode="&#xDE;" horiz-adv-x="561" d="M125 0H24L175 698H272L252 596Q278 596 299 596T337 595Q443 590 499 543T555 413Q555 329 509 273T383 195Q355 187 320 184T225 180H165L125 0ZM184 265H225Q284 265 316 269T368 282Q410 297 431 329T452 406Q452 435 442 455T408 488T349 506T259 512H236L184 265Z"  />
<glyph unicode="&#xDF;" horiz-adv-x="617" d="M125 489Q138 550 158 600T210 685T287 740T396 760Q484 760 532 713T581 587Q581 551 569 519T535 461T483 418T419 395V393Q474 385 511 346T548 239Q548 183 529 138T476 59T393 8T287 -10Q264 -10 236 -7T188 2L205 82Q222 76 243 73T286 69Q323 69 354 81T407 115T443 168T456 237Q456 268 445 291T414 328T370 349T317 356Q311 356 306 356T294 355L308 427Q354 427 388 439T446 472T480 522T492 585Q492 632 465 659T389 687Q356 687 329 676T281 639T244 573T215 474L112 0H18L125 489Z"  />
<glyph unicode="&#xE0;" horiz-adv-x="547" d="M369 245Q355 247 338 247T306 248Q251 248 214 239T153 216T119 182T109 140Q109 105 132 86T195 66Q227 66 256 79T308 116T347 173T369 245ZM343 90Q320 45 274 20T171 -6Q99 -6 56 32T13 134Q13 222 84 268T292 315Q313 315 337 315T381 312Q383 320 384 329T385 349Q385 397 355 422T270 448Q193 448 124 417L133 497Q164 509 203 515T280 522Q374 522 424 480T474 359Q474 326 466 281T447 193Q438 152 433 125T424 76T420 38T419 0H335Q336 21 339 45T345 90H343H343ZM364 579H297L177 756H278L364 579Z"  />
<glyph unicode="&#xE1;" horiz-adv-x="547" d="M369 245Q355 247 338 247T306 248Q251 248 214 239T153 216T119 182T109 140Q109 105 132 86T195 66Q227 66 256 79T308 116T347 173T369 245ZM343 90Q320 45 274 20T171 -6Q99 -6 56 32T13 134Q13 222 84 268T292 315Q313 315 337 315T381 312Q383 320 384 329T385 349Q385 397 355 422T270 448Q193 448 124 417L133 497Q164 509 203 515T280 522Q374 522 424 480T474 359Q474 326 466 281T447 193Q438 152 433 125T424 76T420 38T419 0H335Q336 21 339 45T345 90H343H343ZM319 579H248L366 756H478L319 579Z"  />
<glyph unicode="&#xE2;" horiz-adv-x="547" d="M369 245Q355 247 338 247T306 248Q251 248 214 239T153 216T119 182T109 140Q109 105 132 86T195 66Q227 66 256 79T308 116T347 173T369 245ZM343 90Q320 45 274 20T171 -6Q99 -6 56 32T13 134Q13 222 84 268T292 315Q313 315 337 315T381 312Q383 320 384 329T385 349Q385 397 355 422T270 448Q193 448 124 417L133 497Q164 509 203 515T280 522Q374 522 424 480T474 359Q474 326 466 281T447 193Q438 152 433 125T424 76T420 38T419 0H335Q336 21 339 45T345 90H343H343ZM321 756H407L474 579H400L357 707L252 579H170L321 756Z"  />
<glyph unicode="&#xE3;" horiz-adv-x="547" d="M369 245Q355 247 338 247T306 248Q251 248 214 239T153 216T119 182T109 140Q109 105 132 86T195 66Q227 66 256 79T308 116T347 173T369 245ZM343 90Q320 45 274 20T171 -6Q99 -6 56 32T13 134Q13 222 84 268T292 315Q313 315 337 315T381 312Q383 320 384 329T385 349Q385 397 355 422T270 448Q193 448 124 417L133 497Q164 509 203 515T280 522Q374 522 424 480T474 359Q474 326 466 281T447 193Q438 152 433 125T424 76T420 38T419 0H335Q336 21 339 45T345 90H343H343ZM169 598Q182 647 206 677T273 707Q291 707 309 700T351 678Q367 669 381 663T408 657Q428 657 439 669T458 705H510Q499 656 474 625T407 593Q388 593 370 599T333 617Q308 631 295 636T268 642Q253 642 240 632T220 598H169Z"  />
<glyph unicode="&#xE4;" horiz-adv-x="547" d="M369 245Q355 247 338 247T306 248Q251 248 214 239T153 216T119 182T109 140Q109 105 132 86T195 66Q227 66 256 79T308 116T347 173T369 245ZM343 90Q320 45 274 20T171 -6Q99 -6 56 32T13 134Q13 222 84 268T292 315Q313 315 337 315T381 312Q383 320 384 329T385 349Q385 397 355 422T270 448Q193 448 124 417L133 497Q164 509 203 515T280 522Q374 522 424 480T474 359Q474 326 466 281T447 193Q438 152 433 125T424 76T420 38T419 0H335Q336 21 339 45T345 90H343H343ZM380 697H469L448 597H359L380 697ZM217 697H306L285 597H196L217 697Z"  />
<glyph unicode="&#xE5;" horiz-adv-x="547" d="M369 245Q355 247 338 247T306 248Q251 248 214 239T153 216T119 182T109 140Q109 105 132 86T195 66Q227 66 256 79T308 116T347 173T369 245ZM343 90Q320 45 274 20T171 -6Q99 -6 56 32T13 134Q13 222 84 268T292 315Q313 315 337 315T381 312Q383 320 384 329T385 349Q385 397 355 422T270 448Q193 448 124 417L133 497Q164 509 203 515T280 522Q374 522 424 480T474 359Q474 326 466 281T447 193Q438 152 433 125T424 76T420 38T419 0H335Q336 21 339 45T345 90H343H343ZM341 765Q362 765 380 757T412 735T434 703T442 663Q442 642 434 624T412 592T380 570T340 562Q319 562 301 570T268 591T246 623T238 663Q238 684 246 703T268 735T301 757T341 765ZM340 725Q315 725 297 707T279 664Q279 638 297 621T341 603Q366 603 384 620T402 664Q402 690 384 707T340 725Z"  />
<glyph unicode="&#xE6;" horiz-adv-x="879" d="M634 522Q728 522 779 471T831 328Q831 308 828 281T819 232H453Q451 222 451 212Q451 140 496 103T614 66Q691 66 761 95L745 9Q709 -2 675 -7T602 -12Q520 -12 467 22T390 110Q376 85 356 63T311 25T254 -2T186 -12Q110 -12 62 24T13 130Q13 216 84 263T292 311Q313 311 337 311T381 308Q383 316 384 327T385 349Q385 395 356 421T270 448Q233 448 194 440T124 416L132 497Q163 509 202 515T280 522Q350 522 392 497T451 430Q477 470 526 496T634 522ZM369 241Q355 243 338 243T306 244Q253 244 216 235T155 212T120 178T109 136Q109 101 133 81T200 60Q234 60 262 73T312 111T348 168T369 241ZM738 303Q740 311 740 320T741 337Q741 391 712 421T632 451Q569 451 526 412T465 303H738Z"  />
<glyph unicode="&#xE7;" horiz-adv-x="452" d="M421 415Q379 440 323 440Q279 440 244 423T183 376T143 306T129 217Q129 152 164 113T268 73Q295 73 320 77T374 95L361 8Q336 -1 311 -4T260 -7Q252 -7 245 -7T231 -6L206 -71Q211 -70 217 -70T231 -69Q260 -69 282 -84T304 -135Q304 -160 294 -179T265 -211T224 -230T175 -237Q160 -237 143 -235T115 -229L126 -188Q138 -191 148 -192T170 -193Q196 -193 217 -183T238 -145Q238 -126 226 -118T193 -109Q186 -109 175 -110T150 -114L186 1Q109 20 70 76T30 219Q30 283 51 337T112 432T204 494T321 517Q355 517 386 512T445 495L421 415Z"  />
<glyph unicode="&#xE8;" horiz-adv-x="555" d="M129 232Q127 222 127 212Q127 140 172 103T290 66Q367 66 437 95L421 9Q385 -2 351 -7T279 -12Q161 -12 98 47T34 215Q34 279 55 335T113 433T200 498T310 522Q404 522 455 471T507 328Q507 308 504 281T495 232H129ZM414 303Q416 311 416 320T417 337Q417 391 388 420T308 450Q245 450 202 411T141 303H414ZM367 579H300L180 756H281L367 579Z"  />
<glyph unicode="&#xE9;" horiz-adv-x="555" d="M129 232Q127 222 127 212Q127 140 172 103T290 66Q367 66 437 95L421 9Q385 -2 351 -7T279 -12Q161 -12 98 47T34 215Q34 279 55 335T113 433T200 498T310 522Q404 522 455 471T507 328Q507 308 504 281T495 232H129ZM414 303Q416 311 416 320T417 337Q417 391 388 420T308 450Q245 450 202 411T141 303H414ZM338 579H267L385 756H497L338 579Z"  />
<glyph unicode="&#xEA;" horiz-adv-x="555" d="M129 232Q127 222 127 212Q127 140 172 103T290 66Q367 66 437 95L421 9Q385 -2 351 -7T279 -12Q161 -12 98 47T34 215Q34 279 55 335T113 433T200 498T310 522Q404 522 455 471T507 328Q507 308 504 281T495 232H129ZM414 303Q416 311 416 320T417 337Q417 391 388 420T308 450Q245 450 202 411T141 303H414ZM328 756H414L481 579H407L364 707L259 579H177L328 756Z"  />
<glyph unicode="&#xEB;" horiz-adv-x="555" d="M129 232Q127 222 127 212Q127 140 172 103T290 66Q367 66 437 95L421 9Q385 -2 351 -7T279 -12Q161 -12 98 47T34 215Q34 279 55 335T113 433T200 498T310 522Q404 522 455 471T507 328Q507 308 504 281T495 232H129ZM414 303Q416 311 416 320T417 337Q417 391 388 420T308 450Q245 450 202 411T141 303H414ZM396 697H485L464 597H375L396 697ZM233 697H322L301 597H212L233 697Z"  />
<glyph unicode="&#xEC;" horiz-adv-x="266" d="M220 510L112 0H18L126 510H220ZM226 579H159L39 756H140L226 579Z"  />
<glyph unicode="&#xED;" horiz-adv-x="266" d="M220 510L112 0H18L126 510H220ZM213 579H142L260 756H372L213 579Z"  />
<glyph unicode="&#xEE;" horiz-adv-x="266" d="M220 510L112 0H18L126 510H220ZM182 756H268L335 579H261L218 707L113 579H31L182 756Z"  />
<glyph unicode="&#xEF;" horiz-adv-x="266" d="M220 510L112 0H18L126 510H220ZM247 697H336L315 597H226L247 697ZM84 697H173L152 597H63L84 697Z"  />
<glyph unicode="&#xF0;" horiz-adv-x="610" d="M531 722L416 664Q481 605 515 526T550 337Q550 264 531 201T473 91T380 17T255 -10Q205 -10 165 5T95 50T50 121T34 216Q34 273 55 326T113 421T199 487T302 512Q340 512 379 500T450 452L452 454Q441 505 412 548T341 627L210 561L171 605L292 664Q248 693 201 712L255 766Q317 738 368 702L493 764L531 722ZM321 437Q282 437 247 420T187 373T146 302T131 213Q131 141 165 102T260 63Q305 63 341 80T402 129T440 202T454 294Q454 365 416 401T321 437Z"  />
<glyph unicode="&#xF1;" horiz-adv-x="608" d="M190 421Q225 470 271 496T369 522Q450 522 492 479T534 358Q534 338 531 316T523 271L466 0H372L432 279Q437 299 439 317T442 349Q442 396 420 421T351 446Q309 446 271 421T204 352Q196 339 190 326T177 294T165 252T152 192L112 0H18L103 400Q108 426 113 453T122 510H207Q204 492 199 468T188 421H190ZM187 598Q200 647 224 677T291 707Q309 707 327 700T369 678Q385 669 399 663T426 657Q446 657 457 669T476 705H528Q517 656 492 625T425 593Q406 593 388 599T351 617Q326 631 313 636T286 642Q271 642 258 632T238 598H187Z"  />
<glyph unicode="&#xF2;" horiz-adv-x="600" d="M321 522Q372 522 413 506T482 461T525 392T540 301Q540 236 521 180T466 80T377 13T256 -12Q204 -12 163 4T93 49T49 119T34 211Q34 275 55 332T114 431T205 497T321 522ZM314 446Q272 446 238 427T181 375T144 300T131 211Q131 144 164 104T259 64Q303 64 337 83T395 135T431 210T444 297Q444 366 411 406T314 446ZM381 579H314L194 756H295L381 579Z"  />
<glyph unicode="&#xF3;" horiz-adv-x="600" d="M321 522Q372 522 413 506T482 461T525 392T540 301Q540 236 521 180T466 80T377 13T256 -12Q204 -12 163 4T93 49T49 119T34 211Q34 275 55 332T114 431T205 497T321 522ZM314 446Q272 446 238 427T181 375T144 300T131 211Q131 144 164 104T259 64Q303 64 337 83T395 135T431 210T444 297Q444 366 411 406T314 446ZM357 579H286L404 756H516L357 579Z"  />
<glyph unicode="&#xF4;" horiz-adv-x="600" d="M321 522Q372 522 413 506T482 461T525 392T540 301Q540 236 521 180T466 80T377 13T256 -12Q204 -12 163 4T93 49T49 119T34 211Q34 275 55 332T114 431T205 497T321 522ZM314 446Q272 446 238 427T181 375T144 300T131 211Q131 144 164 104T259 64Q303 64 337 83T395 135T431 210T444 297Q444 366 411 406T314 446ZM352 756H438L505 579H431L388 707L283 579H201L352 756Z"  />
<glyph unicode="&#xF5;" horiz-adv-x="600" d="M321 522Q372 522 413 506T482 461T525 392T540 301Q540 236 521 180T466 80T377 13T256 -12Q204 -12 163 4T93 49T49 119T34 211Q34 275 55 332T114 431T205 497T321 522ZM314 446Q272 446 238 427T181 375T144 300T131 211Q131 144 164 104T259 64Q303 64 337 83T395 135T431 210T444 297Q444 366 411 406T314 446ZM187 598Q200 647 224 677T291 707Q309 707 327 700T369 678Q385 669 399 663T426 657Q446 657 457 669T476 705H528Q517 656 492 625T425 593Q406 593 388 599T351 617Q326 631 313 636T286 642Q271 642 258 632T238 598H187Z"  />
<glyph unicode="&#xF6;" horiz-adv-x="600" d="M321 522Q372 522 413 506T482 461T525 392T540 301Q540 236 521 180T466 80T377 13T256 -12Q204 -12 163 4T93 49T49 119T34 211Q34 275 55 332T114 431T205 497T321 522ZM314 446Q272 446 238 427T181 375T144 300T131 211Q131 144 164 104T259 64Q303 64 337 83T395 135T431 210T444 297Q444 366 411 406T314 446ZM407 697H496L475 597H386L407 697ZM244 697H333L312 597H223L244 697Z"  />
<glyph unicode="&#xF7;" horiz-adv-x="570" d="M525 291V211H21V291H525ZM331 15H219V127H331V15ZM331 375H219V487H331V375Z"  />
<glyph unicode="&#xF8;" horiz-adv-x="600" d="M321 522Q367 522 403 509T468 473L540 545L575 510L502 437Q540 382 540 301Q540 236 521 180T466 80T377 13T256 -12Q160 -12 103 39L31 -32L-3 2L71 76Q34 131 34 211Q34 275 55 332T114 431T205 497T321 522ZM444 297Q444 336 432 368L166 102Q199 64 259 64Q303 64 337 83T395 135T431 210T444 297ZM314 446Q272 446 238 427T181 375T144 300T131 211Q131 173 141 146L405 410Q371 446 314 446Z"  />
<glyph unicode="&#xF9;" horiz-adv-x="608" d="M214 -12Q133 -12 91 31T49 152Q49 172 52 194T60 239L117 510H211L151 231Q146 211 144 193T141 161Q141 114 163 89T232 64Q274 64 312 89T379 158Q387 171 394 184T407 216T419 258T432 318L472 510H566L480 110Q475 84 470 57T461 0H376Q379 18 384 42T395 89H393Q358 40 312 14T214 -12ZM395 579H328L208 756H309L395 579Z"  />
<glyph unicode="&#xFA;" horiz-adv-x="608" d="M214 -12Q133 -12 91 31T49 152Q49 172 52 194T60 239L117 510H211L151 231Q146 211 144 193T141 161Q141 114 163 89T232 64Q274 64 312 89T379 158Q387 171 394 184T407 216T419 258T432 318L472 510H566L480 110Q475 84 470 57T461 0H376Q379 18 384 42T395 89H393Q358 40 312 14T214 -12ZM374 579H303L421 756H533L374 579Z"  />
<glyph unicode="&#xFB;" horiz-adv-x="608" d="M214 -12Q133 -12 91 31T49 152Q49 172 52 194T60 239L117 510H211L151 231Q146 211 144 193T141 161Q141 114 163 89T232 64Q274 64 312 89T379 158Q387 171 394 184T407 216T419 258T432 318L472 510H566L480 110Q475 84 470 57T461 0H376Q379 18 384 42T395 89H393Q358 40 312 14T214 -12ZM351 756H437L504 579H430L387 707L282 579H200L351 756Z"  />
<glyph unicode="&#xFC;" horiz-adv-x="608" d="M214 -12Q133 -12 91 31T49 152Q49 172 52 194T60 239L117 510H211L151 231Q146 211 144 193T141 161Q141 114 163 89T232 64Q274 64 312 89T379 158Q387 171 394 184T407 216T419 258T432 318L472 510H566L480 110Q475 84 470 57T461 0H376Q379 18 384 42T395 89H393Q358 40 312 14T214 -12ZM410 697H499L478 597H389L410 697ZM247 697H336L315 597H226L247 697Z"  />
<glyph unicode="&#xFD;" horiz-adv-x="498" d="M147 510Q164 382 174 304T190 180T198 114T202 81H204Q208 89 213 100T229 131T254 180T294 255T352 362T433 510H532L216 -45Q189 -93 165 -126T115 -181T62 -212T-2 -222Q-36 -222 -65 -215L-54 -139Q-30 -145 -8 -145Q38 -145 70 -114T134 -21L50 510H147ZM320 579H249L367 756H479L320 579Z"  />
<glyph unicode="&#xFE;" horiz-adv-x="621" d="M350 444Q309 444 275 425T215 372T175 296T160 204Q160 140 194 102T286 63Q323 63 355 82T410 136T447 215T461 314Q461 372 434 408T350 444ZM180 756H274L208 446H210Q246 487 287 504T373 522Q462 522 511 468T561 317Q561 259 545 201T496 96T414 20T298 -10Q170 -10 129 91H127L67 -210H-28L180 756Z"  />
<glyph unicode="&#xFF;" horiz-adv-x="498" d="M147 510Q164 382 174 304T190 180T198 114T202 81H204Q208 89 213 100T229 131T254 180T294 255T352 362T433 510H532L216 -45Q189 -93 165 -126T115 -181T62 -212T-2 -222Q-36 -222 -65 -215L-54 -139Q-30 -145 -8 -145Q38 -145 70 -114T134 -21L50 510H147ZM362 697H451L430 597H341L362 697ZM199 697H288L267 597H178L199 697Z"  />
<glyph unicode="&#x100;" horiz-adv-x="709" d="M649 0H550L512 176H158L44 0H-63L396 698H498L649 0ZM497 255Q480 336 468 396T449 500T437 569T431 609H429Q422 597 407 572T366 505T302 402T209 255H497ZM340 841H609L598 783H328L340 841Z"  />
<glyph unicode="&#x101;" horiz-adv-x="547" d="M369 245Q355 247 338 247T306 248Q251 248 214 239T153 216T119 182T109 140Q109 105 132 86T195 66Q227 66 256 79T308 116T347 173T369 245ZM343 90Q320 45 274 20T171 -6Q99 -6 56 32T13 134Q13 222 84 268T292 315Q313 315 337 315T381 312Q383 320 384 329T385 349Q385 397 355 422T270 448Q193 448 124 417L133 497Q164 509 203 515T280 522Q374 522 424 480T474 359Q474 326 466 281T447 193Q438 152 433 125T424 76T420 38T419 0H335Q336 21 339 45T345 90H343H343ZM201 670H470L459 612H189L201 670Z"  />
<glyph unicode="&#x102;" horiz-adv-x="709" d="M649 0H550L512 176H158L44 0H-63L396 698H498L649 0ZM497 255Q480 336 468 396T449 500T437 569T431 609H429Q422 597 407 572T366 505T302 402T209 255H497ZM373 892Q373 854 396 834T459 814Q506 814 530 833T566 892H620Q609 826 566 790T456 754Q396 754 358 786T320 881V892H373Z"  />
<glyph unicode="&#x103;" horiz-adv-x="547" d="M369 245Q355 247 338 247T306 248Q251 248 214 239T153 216T119 182T109 140Q109 105 132 86T195 66Q227 66 256 79T308 116T347 173T369 245ZM343 90Q320 45 274 20T171 -6Q99 -6 56 32T13 134Q13 222 84 268T292 315Q313 315 337 315T381 312Q383 320 384 329T385 349Q385 397 355 422T270 448Q193 448 124 417L133 497Q164 509 203 515T280 522Q374 522 424 480T474 359Q474 326 466 281T447 193Q438 152 433 125T424 76T420 38T419 0H335Q336 21 339 45T345 90H343H343ZM244 736Q244 716 248 697T261 664T287 642T328 633Q375 633 404 660T445 736H501Q495 698 480 668T441 617T388 585T324 573Q288 573 262 585T220 618T197 666T189 725V736H244Z"  />
<glyph unicode="&#x104;" horiz-adv-x="709" d="M649 0H601Q553 -41 534 -69T514 -123Q514 -143 525 -154T559 -166Q574 -166 588 -163T619 -151V-195Q599 -206 578 -209T536 -213Q496 -213 471 -194T446 -139Q446 -101 472 -70T550 0L512 176H158L44 0H-63L396 698H498L649 0ZM497 255Q480 336 468 396T449 500T437 569T431 609H429Q422 597 407 572T366 505T302 402T209 255H497Z"  />
<glyph unicode="&#x105;" horiz-adv-x="547" d="M343 90Q320 45 274 20T171 -6Q99 -6 56 32T13 134Q13 222 84 268T292 315Q313 315 337 315T381 312Q383 320 384 329T385 349Q385 397 355 422T270 448Q193 448 124 417L133 497Q164 509 203 515T280 522Q374 522 424 480T474 359Q474 326 466 281T447 193Q438 152 433 125T424 76T420 38T419 0H387Q339 -41 320 -69T300 -123Q300 -143 311 -154T345 -166Q360 -166 374 -163T405 -151V-195Q385 -206 364 -209T322 -213Q282 -213 257 -194T232 -139Q232 -101 258 -70T335 0Q336 21 339 45T345 90H343H343ZM369 245Q355 247 338 247T306 248Q251 248 214 239T153 216T119 182T109 140Q109 105 132 86T195 66Q227 66 256 79T308 116T347 173T369 245Z"  />
<glyph unicode="&#x106;" horiz-adv-x="600" d="M613 589Q550 621 461 621Q397 621 341 596T242 529T176 429T152 307Q152 256 169 214T217 142T293 96T394 79Q468 79 524 101L511 11Q481 2 451 -2T386 -6Q312 -6 250 16T144 77T75 172T50 295Q50 382 81 456T169 586T302 673T471 705Q522 705 564 697T640 673L613 589ZM472 750H401L495 894H607L472 750Z"  />
<glyph unicode="&#x107;" horiz-adv-x="452" d="M421 415Q379 440 323 440Q279 440 244 423T183 376T143 306T129 217Q129 152 164 113T268 73Q295 73 320 77T374 95L361 8Q336 -1 311 -4T260 -7Q148 -7 89 53T30 219Q30 283 51 337T112 432T204 494T321 517Q355 517 386 512T445 495L421 415ZM337 579H266L384 756H496L337 579Z"  />
<glyph unicode="&#x108;" horiz-adv-x="600" d="M613 589Q550 621 461 621Q397 621 341 596T242 529T176 429T152 307Q152 256 169 214T217 142T293 96T394 79Q468 79 524 101L511 11Q481 2 451 -2T386 -6Q312 -6 250 16T144 77T75 172T50 295Q50 382 81 456T169 586T302 673T471 705Q522 705 564 697T640 673L613 589ZM456 894H542L617 750H543L492 848L405 750H323L456 894Z"  />
<glyph unicode="&#x109;" horiz-adv-x="452" d="M421 415Q379 440 323 440Q279 440 244 423T183 376T143 306T129 217Q129 152 164 113T268 73Q295 73 320 77T374 95L361 8Q336 -1 311 -4T260 -7Q148 -7 89 53T30 219Q30 283 51 337T112 432T204 494T321 517Q355 517 386 512T445 495L421 415ZM319 743H405L472 566H398L355 694L250 566H168L319 743Z"  />
<glyph unicode="&#x10A;" horiz-adv-x="600" d="M613 589Q550 621 461 621Q397 621 341 596T242 529T176 429T152 307Q152 256 169 214T217 142T293 96T394 79Q468 79 524 101L511 11Q481 2 451 -2T386 -6Q312 -6 250 16T144 77T75 172T50 295Q50 382 81 456T169 586T302 673T471 705Q522 705 564 697T640 673L613 589ZM437 857H526L505 757H416L437 857Z"  />
<glyph unicode="&#x10B;" horiz-adv-x="452" d="M421 415Q379 440 323 440Q279 440 244 423T183 376T143 306T129 217Q129 152 164 113T268 73Q295 73 320 77T374 95L361 8Q336 -1 311 -4T260 -7Q148 -7 89 53T30 219Q30 283 51 337T112 432T204 494T321 517Q355 517 386 512T445 495L421 415ZM302 698H391L370 598H281L302 698Z"  />
<glyph unicode="&#x10C;" horiz-adv-x="600" d="M613 589Q550 621 461 621Q397 621 341 596T242 529T176 429T152 307Q152 256 169 214T217 142T293 96T394 79Q468 79 524 101L511 11Q481 2 451 -2T386 -6Q312 -6 250 16T144 77T75 172T50 295Q50 382 81 456T169 586T302 673T471 705Q522 705 564 697T640 673L613 589ZM647 894L511 750H426L348 894H424L475 801L568 894H647Z"  />
<glyph unicode="&#x10D;" horiz-adv-x="452" d="M421 415Q379 440 323 440Q279 440 244 423T183 376T143 306T129 217Q129 152 164 113T268 73Q295 73 320 77T374 95L361 8Q336 -1 311 -4T260 -7Q148 -7 89 53T30 219Q30 283 51 337T112 432T204 494T321 517Q355 517 386 512T445 495L421 415ZM368 579H282L215 756H289L332 628L437 756H519L368 579Z"  />
<glyph unicode="&#x10E;" horiz-adv-x="717" d="M172 698H309Q495 698 582 622T669 398Q669 312 639 239T550 113T402 30T195 0H24L172 698ZM140 83H202Q301 83 371 109T484 180T548 281T568 399Q568 457 550 498T498 565T417 604T312 616H251L140 83ZM556 894L420 750H335L257 894H333L384 801L477 894H556Z"  />
<glyph unicode="&#x10F;" horiz-adv-x="618" d="M466 432Q467 444 471 464T479 505T487 546T493 576L531 756H624L494 143Q489 121 486 104T480 70T475 37T469 0H386Q388 19 392 43T402 86H400Q374 45 333 17T233 -12Q188 -12 151 3T88 47T48 117T34 208Q34 276 55 333T113 433T199 498T306 522Q371 522 409 496T464 432H466ZM309 446Q270 446 238 428T182 377T145 301T132 210Q132 141 165 103T256 64Q292 64 324 83T381 135T420 212T435 307Q435 374 402 410T309 446ZM701 579H645L699 756H784L701 579Z"  />
<glyph unicode="&#x110;" horiz-adv-x="717" d="M95 334H25L38 389H106L172 698H309Q495 698 582 622T669 398Q669 312 639 239T550 113T402 30T195 0H24L95 334ZM204 389H355L343 334H192L140 83H202Q301 83 371 109T484 180T548 281T568 399Q568 457 550 498T498 565T417 604T312 616H251L204 389Z"  />
<glyph unicode="&#x111;" horiz-adv-x="618" d="M466 432Q467 444 471 464T479 505T487 546T493 576L504 628H397L408 675H514L531 756H624L607 675H661L650 628H597L494 143Q489 121 486 104T480 70T475 37T469 0H386Q388 19 392 43T402 86H400Q374 45 333 17T233 -12Q188 -12 151 3T88 47T48 117T34 208Q34 276 55 333T113 433T199 498T306 522Q371 522 409 496T464 432H466ZM309 446Q270 446 238 428T182 377T145 301T132 210Q132 141 165 103T256 64Q292 64 324 83T381 135T420 212T435 307Q435 374 402 410T309 446Z"  />
<glyph unicode="&#x112;" d="M559 698L540 616H250L206 406H477L459 325H189L139 83H440L421 0H24L172 698H559ZM256 841H525L514 783H244L256 841Z"  />
<glyph unicode="&#x113;" horiz-adv-x="555" d="M129 232Q127 222 127 212Q127 140 172 103T290 66Q367 66 437 95L421 9Q385 -2 351 -7T279 -12Q161 -12 98 47T34 215Q34 279 55 335T113 433T200 498T310 522Q404 522 455 471T507 328Q507 308 504 281T495 232H129ZM414 303Q416 311 416 320T417 337Q417 391 388 420T308 450Q245 450 202 411T141 303H414ZM211 670H480L469 612H199L211 670Z"  />
<glyph unicode="&#x114;" d="M559 698L540 616H250L206 406H477L459 325H189L139 83H440L421 0H24L172 698H559ZM287 892Q287 854 310 834T373 814Q420 814 444 833T480 892H534Q523 826 480 790T370 754Q310 754 272 786T234 881V892H287Z"  />
<glyph unicode="&#x115;" horiz-adv-x="555" d="M129 232Q127 222 127 212Q127 140 172 103T290 66Q367 66 437 95L421 9Q385 -2 351 -7T279 -12Q161 -12 98 47T34 215Q34 279 55 335T113 433T200 498T310 522Q404 522 455 471T507 328Q507 308 504 281T495 232H129ZM414 303Q416 311 416 320T417 337Q417 391 388 420T308 450Q245 450 202 411T141 303H414ZM247 736Q247 716 251 697T264 664T290 642T331 633Q378 633 407 660T448 736H504Q498 698 483 668T444 617T391 585T327 573Q291 573 265 585T223 618T200 666T192 725V736H247Z"  />
<glyph unicode="&#x116;" d="M559 698L540 616H250L206 406H477L459 325H189L139 83H440L421 0H24L172 698H559ZM342 857H431L410 757H321L342 857Z"  />
<glyph unicode="&#x117;" horiz-adv-x="555" d="M129 232Q127 222 127 212Q127 140 172 103T290 66Q367 66 437 95L421 9Q385 -2 351 -7T279 -12Q161 -12 98 47T34 215Q34 279 55 335T113 433T200 498T310 522Q404 522 455 471T507 328Q507 308 504 281T495 232H129ZM414 303Q416 311 416 320T417 337Q417 391 388 420T308 450Q245 450 202 411T141 303H414ZM301 698H390L369 598H280L301 698Z"  />
<glyph unicode="&#x118;" d="M559 698L540 616H250L206 406H477L459 325H189L139 83H440L421 0H375Q327 -41 308 -69T288 -123Q288 -143 299 -154T333 -166Q348 -166 362 -163T393 -151V-195Q373 -206 352 -209T310 -213Q270 -213 245 -194T220 -139Q220 -101 246 -70T323 0H24L172 698H559Z"  />
<glyph unicode="&#x119;" horiz-adv-x="555" d="M129 232Q127 222 127 212Q127 140 172 103T290 66Q367 66 437 95L421 12L408 6Q352 -20 323 -56T293 -123Q293 -143 304 -154T338 -166Q353 -166 367 -163T398 -151V-195Q378 -206 357 -209T315 -213Q275 -213 250 -194T225 -139Q225 -104 251 -73T325 -10V-9Q317 -11 302 -11T279 -12Q161 -12 98 47T34 215Q34 279 55 335T113 433T200 498T310 522Q404 522 455 471T507 328Q507 308 504 281T495 232H129ZM414 303Q416 311 416 320T417 337Q417 391 388 420T308 450Q245 450 202 411T141 303H414Z"  />
<glyph unicode="&#x11A;" d="M559 698L540 616H250L206 406H477L459 325H189L139 83H440L421 0H24L172 698H559ZM554 894L418 750H333L255 894H331L382 801L475 894H554Z"  />
<glyph unicode="&#x11B;" horiz-adv-x="555" d="M129 232Q127 222 127 212Q127 140 172 103T290 66Q367 66 437 95L421 9Q385 -2 351 -7T279 -12Q161 -12 98 47T34 215Q34 279 55 335T113 433T200 498T310 522Q404 522 455 471T507 328Q507 308 504 281T495 232H129ZM414 303Q416 311 416 320T417 337Q417 391 388 420T308 450Q245 450 202 411T141 303H414ZM374 579H288L221 756H295L338 628L443 756H525L374 579Z"  />
<glyph unicode="&#x11C;" horiz-adv-x="715" d="M655 581Q562 621 471 621Q403 621 345 598T245 532T178 433T153 307Q153 255 170 213T219 140T295 93T395 76Q421 76 441 78T483 85L531 302H380L398 381H643L563 16Q526 5 484 0T397 -6Q316 -6 252 15T143 75T74 172T50 300Q50 392 84 467T176 595T312 677T477 706Q587 706 685 665L655 581ZM458 894H544L619 750H545L494 848L407 750H325L458 894Z"  />
<glyph unicode="&#x11D;" horiz-adv-x="616" d="M25 -97Q66 -120 110 -132T195 -145Q245 -145 278 -128T334 -80T370 -8T395 80H393Q366 42 325 21T230 0Q185 0 149 14T88 56T49 121T35 208Q35 276 54 333T109 433T193 498T299 522Q360 522 403 497T465 424H467L486 510H574L469 29Q457 -24 438 -70T386 -150T306 -203T190 -222Q145 -222 98 -213T6 -183L25 -97ZM310 446Q274 446 242 428T186 379T147 305T132 213Q132 147 165 111T253 74Q291 74 324 92T382 143T421 220T435 314Q435 378 402 412T310 446ZM345 756H431L498 579H424L381 707L276 579H194L345 756Z"  />
<glyph unicode="&#x11E;" horiz-adv-x="715" d="M655 581Q562 621 471 621Q403 621 345 598T245 532T178 433T153 307Q153 255 170 213T219 140T295 93T395 76Q421 76 441 78T483 85L531 302H380L398 381H643L563 16Q526 5 484 0T397 -6Q316 -6 252 15T143 75T74 172T50 300Q50 392 84 467T176 595T312 677T477 706Q587 706 685 665L655 581ZM394 892Q394 854 417 834T480 814Q527 814 551 833T587 892H641Q630 826 587 790T477 754Q417 754 379 786T341 881V892H394Z"  />
<glyph unicode="&#x11F;" horiz-adv-x="616" d="M25 -97Q66 -120 110 -132T195 -145Q245 -145 278 -128T334 -80T370 -8T395 80H393Q366 42 325 21T230 0Q185 0 149 14T88 56T49 121T35 208Q35 276 54 333T109 433T193 498T299 522Q360 522 403 497T465 424H467L486 510H574L469 29Q457 -24 438 -70T386 -150T306 -203T190 -222Q145 -222 98 -213T6 -183L25 -97ZM310 446Q274 446 242 428T186 379T147 305T132 213Q132 147 165 111T253 74Q291 74 324 92T382 143T421 220T435 314Q435 378 402 412T310 446ZM262 736Q262 716 266 697T279 664T305 642T346 633Q393 633 422 660T463 736H519Q513 698 498 668T459 617T406 585T342 573Q306 573 280 585T238 618T215 666T207 725V736H262Z"  />
<glyph unicode="&#x120;" horiz-adv-x="715" d="M655 581Q562 621 471 621Q403 621 345 598T245 532T178 433T153 307Q153 255 170 213T219 140T295 93T395 76Q421 76 441 78T483 85L531 302H380L398 381H643L563 16Q526 5 484 0T397 -6Q316 -6 252 15T143 75T74 172T50 300Q50 392 84 467T176 595T312 677T477 706Q587 706 685 665L655 581ZM453 857H542L521 757H432L453 857Z"  />
<glyph unicode="&#x121;" horiz-adv-x="616" d="M25 -97Q66 -120 110 -132T195 -145Q245 -145 278 -128T334 -80T370 -8T395 80H393Q366 42 325 21T230 0Q185 0 149 14T88 56T49 121T35 208Q35 276 54 333T109 433T193 498T299 522Q360 522 403 497T465 424H467L486 510H574L469 29Q457 -24 438 -70T386 -150T306 -203T190 -222Q145 -222 98 -213T6 -183L25 -97ZM310 446Q274 446 242 428T186 379T147 305T132 213Q132 147 165 111T253 74Q291 74 324 92T382 143T421 220T435 314Q435 378 402 412T310 446ZM307 698H396L375 598H286L307 698Z"  />
<glyph unicode="&#x122;" horiz-adv-x="715" d="M655 581Q562 621 471 621Q403 621 345 598T245 532T178 433T153 307Q153 255 170 213T219 140T295 93T395 76Q421 76 441 78T483 85L531 302H380L398 381H643L563 16Q526 5 484 0T397 -6Q316 -6 252 15T143 75T74 172T50 300Q50 392 84 467T176 595T312 677T477 706Q587 706 685 665L655 581ZM317 -230H251L322 -62H423L317 -230Z"  />
<glyph unicode="&#x123;" horiz-adv-x="616" d="M25 -97Q66 -120 110 -132T195 -145Q245 -145 278 -128T334 -80T370 -8T395 80H393Q366 42 325 21T230 0Q185 0 149 14T88 56T49 121T35 208Q35 276 54 333T109 433T193 498T299 522Q360 522 403 497T465 424H467L486 510H574L469 29Q457 -24 438 -70T386 -150T306 -203T190 -222Q145 -222 98 -213T6 -183L25 -97ZM310 446Q274 446 242 428T186 379T147 305T132 213Q132 147 165 111T253 74Q291 74 324 92T382 143T421 220T435 314Q435 378 402 412T310 446ZM384 756H450L365 579H264L384 756Z"  />
<glyph unicode="&#x124;" horiz-adv-x="718" d="M268 698L206 403H541L603 698H699L554 0H455L524 322H190L123 0H24L172 698H268ZM428 894H514L589 750H515L464 848L377 750H295L428 894Z"  />
<glyph unicode="&#x125;" horiz-adv-x="608" d="M369 522Q450 522 492 479T534 358Q534 338 531 316T523 271L466 0H372L432 279Q437 299 439 317T442 349Q442 396 420 421T351 446Q309 446 271 421T204 352Q196 339 190 326T177 294T165 252T152 192L112 0H18L177 756H271L232 576Q229 563 224 543T214 501T205 461T197 433H199Q232 474 274 498T369 522ZM363 934H449L524 790H450L399 888L312 790H230L363 934Z"  />
<glyph unicode="&#x126;" horiz-adv-x="718" d="M268 698L242 576H577L603 698H699L673 576H715L703 523H662L554 0H455L521 312H187L123 0H24L135 523H90L102 576H146L172 698H268ZM538 393L565 523H230L203 393H538Z"  />
<glyph unicode="&#x127;" horiz-adv-x="608" d="M369 522Q450 522 492 479T534 358Q534 338 531 316T523 271L466 0H372L432 279Q437 299 439 317T442 349Q442 396 420 421T351 446Q309 446 271 421T204 352Q196 339 190 326T177 294T165 252T152 192L112 0H18L150 628H98L109 675H160L177 756H271L253 675H353L342 628H243L232 576Q229 563 224 543T214 501T205 461T197 433H199Q232 474 274 498T369 522Z"  />
<glyph unicode="&#x128;" horiz-adv-x="287" d="M268 698L123 0H24L172 698H268ZM65 761Q78 810 102 840T169 870Q187 870 205 863T247 841Q263 832 277 826T304 820Q324 820 335 832T354 868H406Q395 819 370 788T303 756Q284 756 266 762T229 780Q204 794 191 799T164 805Q149 805 136 795T116 761H65Z"  />
<glyph unicode="&#x129;" horiz-adv-x="266" d="M220 510L112 0H18L126 510H220ZM25 598Q38 647 62 677T129 707Q147 707 165 700T207 678Q223 669 237 663T264 657Q284 657 295 669T314 705H366Q355 656 330 625T263 593Q244 593 226 599T189 617Q164 631 151 636T124 642Q109 642 96 632T76 598H25Z"  />
<glyph unicode="&#x12A;" horiz-adv-x="287" d="M268 698L123 0H24L172 698H268ZM110 841H379L368 783H98L110 841Z"  />
<glyph unicode="&#x12B;" horiz-adv-x="266" d="M220 510L112 0H18L126 510H220ZM67 670H336L325 612H55L67 670Z"  />
<glyph unicode="&#x12E;" horiz-adv-x="287" d="M268 698L123 0H112Q66 -40 46 -68T26 -123Q26 -143 37 -154T71 -166Q86 -166 100 -163T131 -151V-195Q111 -206 90 -209T48 -213Q8 -213 -17 -194T-42 -139Q-42 -101 -16 -70T61 0H24L172 698H268Z"  />
<glyph unicode="&#x12F;" horiz-adv-x="266" d="M220 510L112 0H103Q53 -42 35 -69T16 -123Q16 -143 27 -154T61 -166Q76 -166 90 -163T121 -151V-195Q101 -206 80 -209T38 -213Q-2 -213 -27 -194T-52 -139Q-52 -101 -26 -70T51 0H18L126 510H220ZM264 698L243 593H135L157 698H264Z"  />
<glyph unicode="&#x130;" horiz-adv-x="287" d="M268 698L123 0H24L172 698H268ZM209 857H298L277 757H188L209 857Z"  />
<glyph unicode="&#x131;" horiz-adv-x="266" d="M220 510L112 0H18L126 510H220Z"  />
<glyph unicode="&#x132;" horiz-adv-x="653" d="M268 698L123 0H24L172 698H268ZM646 698L537 174Q517 77 466 33T326 -12Q300 -12 278 -8T227 7L245 89Q282 70 321 70Q352 70 372 78T407 103T429 142T444 197L550 698H646Z"  />
<glyph unicode="&#x133;" horiz-adv-x="522" d="M264 698L243 593H135L157 698H264ZM220 510L112 0H18L126 510H220ZM524 698L502 593H395L417 698H524ZM480 510L358 -69Q341 -146 303 -184T198 -222Q180 -222 161 -219T123 -210L138 -131Q162 -139 186 -139Q226 -139 243 -113T273 -27L386 510H480Z"  />
<glyph unicode="&#x134;" horiz-adv-x="377" d="M370 698L261 174Q241 77 190 33T50 -12Q24 -12 2 -8T-49 7L-31 89Q6 70 45 70Q76 70 96 78T131 103T153 142T168 197L274 698H370ZM307 894H393L468 750H394L343 848L256 750H174L307 894Z"  />
<glyph unicode="&#x135;" horiz-adv-x="266" d="M224 510L102 -69Q85 -146 47 -184T-58 -222Q-76 -222 -95 -219T-133 -210L-118 -131Q-94 -139 -70 -139Q-30 -139 -13 -113T17 -27L130 510H224ZM182 756H268L335 579H261L218 707L113 579H31L182 756Z"  />
<glyph unicode="&#x136;" horiz-adv-x="626" d="M122 0H24L172 698H267L199 380H201Q209 388 232 410T296 471T397 566T539 698H664L293 367L574 0H447Q352 129 291 215T196 352H194L122 0ZM216 -230H150L221 -62H322L216 -230Z"  />
<glyph unicode="&#x137;" horiz-adv-x="531" d="M111 0H18L178 756H272L173 303H175Q179 307 191 318T231 352T304 413T422 510H551L259 284L471 0H355Q305 71 272 118T217 196T185 244T169 270H167L111 0ZM156 -230H90L161 -62H262L156 -230Z"  />
<glyph unicode="&#x139;" horiz-adv-x="504" d="M268 698L140 83H434L416 0H24L172 698H268ZM257 750H186L280 894H392L257 750Z"  />
<glyph unicode="&#x13A;" horiz-adv-x="266" d="M178 756H272L112 0H18L178 756ZM263 790H192L286 934H398L263 790Z"  />
<glyph unicode="&#x13B;" horiz-adv-x="504" d="M268 698L140 83H434L416 0H24L172 698H268ZM166 -230H100L171 -62H272L166 -230Z"  />
<glyph unicode="&#x13C;" horiz-adv-x="266" d="M178 756H272L112 0H18L178 756ZM10 -230H-56L15 -62H116L10 -230Z"  />
<glyph unicode="&#x13D;" horiz-adv-x="504" d="M268 698L140 83H434L416 0H24L172 698H268ZM373 579H317L371 756H456L373 579Z"  />
<glyph unicode="&#x13E;" horiz-adv-x="266" d="M178 756H272L112 0H18L178 756ZM349 579H293L347 756H432L349 579Z"  />
<glyph unicode="&#x13F;" horiz-adv-x="504" d="M268 698L140 83H434L416 0H24L172 698H268ZM365 440H454L433 340H344L365 440Z"  />
<glyph unicode="&#x140;" horiz-adv-x="386" d="M178 756H272L112 0H18L178 756ZM305 440H394L373 340H284L305 440Z"  />
<glyph unicode="&#x141;" horiz-adv-x="504" d="M268 698L219 466L327 532L311 461L206 400L140 83H434L416 0H24L96 343L18 293L34 363L110 408L172 698H268Z"  />
<glyph unicode="&#x142;" horiz-adv-x="286" d="M109 386L32 334L46 401L123 451L188 756H282L230 514L314 570L298 503L217 449L122 0H28L109 386Z"  />
<glyph unicode="&#x143;" horiz-adv-x="733" d="M619 698H714L566 0H439Q398 125 369 217T319 374T287 483T267 554T256 598T249 627H247Q244 611 239 582T227 518T213 448T199 384L119 0H24L172 698H313Q353 571 381 481T429 327T460 224T479 160T489 122T495 97H497Q500 113 504 137T513 188T524 244T535 296L619 698ZM471 750H400L494 894H606L471 750Z"  />
<glyph unicode="&#x144;" horiz-adv-x="608" d="M190 421Q225 470 271 496T369 522Q450 522 492 479T534 358Q534 338 531 316T523 271L466 0H372L432 279Q437 299 439 317T442 349Q442 396 420 421T351 446Q309 446 271 421T204 352Q196 339 190 326T177 294T165 252T152 192L112 0H18L103 400Q108 426 113 453T122 510H207Q204 492 199 468T188 421H190ZM359 579H288L406 756H518L359 579Z"  />
<glyph unicode="&#x145;" horiz-adv-x="733" d="M619 698H714L566 0H439Q398 125 369 217T319 374T287 483T267 554T256 598T249 627H247Q244 611 239 582T227 518T213 448T199 384L119 0H24L172 698H313Q353 571 381 481T429 327T460 224T479 160T489 122T495 97H497Q500 113 504 137T513 188T524 244T535 296L619 698ZM249 -230H183L254 -62H355L249 -230Z"  />
<glyph unicode="&#x146;" horiz-adv-x="608" d="M190 421Q225 470 271 496T369 522Q450 522 492 479T534 358Q534 338 531 316T523 271L466 0H372L432 279Q437 299 439 317T442 349Q442 396 420 421T351 446Q309 446 271 421T204 352Q196 339 190 326T177 294T165 252T152 192L112 0H18L103 400Q108 426 113 453T122 510H207Q204 492 199 468T188 421H190ZM189 -230H123L194 -62H295L189 -230Z"  />
<glyph unicode="&#x147;" horiz-adv-x="733" d="M619 698H714L566 0H439Q398 125 369 217T319 374T287 483T267 554T256 598T249 627H247Q244 611 239 582T227 518T213 448T199 384L119 0H24L172 698H313Q353 571 381 481T429 327T460 224T479 160T489 122T495 97H497Q500 113 504 137T513 188T524 244T535 296L619 698ZM619 894L483 750H398L320 894H396L447 801L540 894H619Z"  />
<glyph unicode="&#x148;" horiz-adv-x="608" d="M190 421Q225 470 271 496T369 522Q450 522 492 479T534 358Q534 338 531 316T523 271L466 0H372L432 279Q437 299 439 317T442 349Q442 396 420 421T351 446Q309 446 271 421T204 352Q196 339 190 326T177 294T165 252T152 192L112 0H18L103 400Q108 426 113 453T122 510H207Q204 492 199 468T188 421H190ZM383 579H297L230 756H304L347 628L452 756H534L383 579Z"  />
<glyph unicode="&#x149;" horiz-adv-x="608" d="M190 421Q225 470 271 496T369 522Q450 522 492 479T534 358Q534 338 531 316T523 271L466 0H372L432 279Q437 299 439 317T442 349Q442 396 420 421T351 446Q309 446 271 421T204 352Q196 339 190 326T177 294T165 252T152 192L112 0H18L103 400Q108 426 113 453T122 510H207Q204 492 199 468T188 421H190ZM155 579H99L153 756H238L155 579Z"  />
<glyph unicode="&#x14C;" horiz-adv-x="778" d="M439 710Q506 710 559 690T649 633T705 544T725 427Q725 338 699 259T624 119T505 24T347 -12Q281 -12 227 7T135 64T75 155T54 280Q54 365 81 443T158 580T280 675T439 710ZM437 630Q375 630 324 602T235 526T178 414T157 277Q157 229 171 191T210 126T270 85T350 70Q414 70 465 100T550 180T603 294T622 427Q622 470 610 507T574 572T516 614T437 630ZM345 841H614L603 783H333L345 841Z"  />
<glyph unicode="&#x14D;" horiz-adv-x="600" d="M321 522Q372 522 413 506T482 461T525 392T540 301Q540 236 521 180T466 80T377 13T256 -12Q204 -12 163 4T93 49T49 119T34 211Q34 275 55 332T114 431T205 497T321 522ZM314 446Q272 446 238 427T181 375T144 300T131 211Q131 144 164 104T259 64Q303 64 337 83T395 135T431 210T444 297Q444 366 411 406T314 446ZM229 670H498L487 612H217L229 670Z"  />
<glyph unicode="&#x14E;" horiz-adv-x="778" d="M439 710Q506 710 559 690T649 633T705 544T725 427Q725 338 699 259T624 119T505 24T347 -12Q281 -12 227 7T135 64T75 155T54 280Q54 365 81 443T158 580T280 675T439 710ZM437 630Q375 630 324 602T235 526T178 414T157 277Q157 229 171 191T210 126T270 85T350 70Q414 70 465 100T550 180T603 294T622 427Q622 470 610 507T574 572T516 614T437 630ZM380 892Q380 854 403 834T466 814Q513 814 537 833T573 892H627Q616 826 573 790T463 754Q403 754 365 786T327 881V892H380Z"  />
<glyph unicode="&#x14F;" horiz-adv-x="600" d="M321 522Q372 522 413 506T482 461T525 392T540 301Q540 236 521 180T466 80T377 13T256 -12Q204 -12 163 4T93 49T49 119T34 211Q34 275 55 332T114 431T205 497T321 522ZM314 446Q272 446 238 427T181 375T144 300T131 211Q131 144 164 104T259 64Q303 64 337 83T395 135T431 210T444 297Q444 366 411 406T314 446ZM266 736Q266 716 270 697T283 664T309 642T350 633Q397 633 426 660T467 736H523Q517 698 502 668T463 617T410 585T346 573Q310 573 284 585T242 618T219 666T211 725V736H266Z"  />
<glyph unicode="&#x150;" horiz-adv-x="778" d="M439 710Q506 710 559 690T649 633T705 544T725 427Q725 338 699 259T624 119T505 24T347 -12Q281 -12 227 7T135 64T75 155T54 280Q54 365 81 443T158 580T280 675T439 710ZM437 630Q375 630 324 602T235 526T178 414T157 277Q157 229 171 191T210 126T270 85T350 70Q414 70 465 100T550 180T603 294T622 427Q622 470 610 507T574 572T516 614T437 630ZM549 752H481L569 895H678L549 752ZM385 752H318L399 895H507L385 752Z"  />
<glyph unicode="&#x151;" horiz-adv-x="600" d="M321 522Q372 522 413 506T482 461T525 392T540 301Q540 236 521 180T466 80T377 13T256 -12Q204 -12 163 4T93 49T49 119T34 211Q34 275 55 332T114 431T205 497T321 522ZM314 446Q272 446 238 427T181 375T144 300T131 211Q131 144 164 104T259 64Q303 64 337 83T395 135T431 210T444 297Q444 366 411 406T314 446ZM432 581H367L480 756H583L432 581ZM268 581H204L306 756H405L268 581Z"  />
<glyph unicode="&#x152;" horiz-adv-x="946" d="M560 614Q539 618 520 620T479 622Q407 622 348 599T246 535T180 436T156 309Q156 258 169 216T210 143T280 96T381 79Q398 79 413 80T446 85L560 614ZM933 616H654L610 406H870L852 325H593L543 83H833L814 0H536Q518 0 493 0T448 -2Q431 -3 412 -3T379 -4Q295 -4 234 19T133 84T74 183T55 306Q55 395 86 468T174 594T309 675T480 704Q488 704 498 704T529 702Q558 700 577 699T621 698H952L933 616Z"  />
<glyph unicode="&#x153;" horiz-adv-x="951" d="M321 522Q390 522 435 495T504 418Q542 473 595 497T706 522Q800 522 851 471T903 328Q903 308 900 281T891 232H525Q523 222 523 212Q523 140 568 103T686 66Q763 66 833 95L817 9Q781 -2 747 -7T674 -12Q597 -12 545 17T468 96Q433 46 382 17T256 -12Q204 -12 163 4T93 49T49 119T34 211Q34 275 55 332T114 431T205 497T321 522ZM314 446Q272 446 238 427T181 375T144 300T131 211Q131 144 164 104T259 64Q303 64 337 83T395 135T431 210T444 297Q444 366 411 406T314 446ZM810 303Q812 311 812 320T813 337Q813 391 784 420T704 450Q641 450 598 411T537 303H810Z"  />
<glyph unicode="&#x154;" horiz-adv-x="616" d="M306 698Q349 698 396 693T482 671T546 619T572 526Q572 490 558 459T520 405T461 366T385 347V345Q422 334 439 305T470 223L532 0H432L381 196Q372 230 364 252T339 288T295 307T221 313H186L122 0H24L172 698H306ZM204 394Q215 393 225 393T244 393Q293 393 335 398T407 416T455 455T472 521Q472 552 457 571T418 600T361 613T296 616H250L204 394ZM365 750H294L388 894H500L365 750Z"  />
<glyph unicode="&#x155;" horiz-adv-x="385" d="M207 510Q204 490 200 469T188 419H190Q222 470 261 496T346 522Q364 522 376 520T403 513L384 433Q371 438 361 440T336 443Q297 443 268 425T217 375T181 304T158 220L112 0H18L93 353Q104 409 110 444T122 510H207ZM281 579H210L328 756H440L281 579Z"  />
<glyph unicode="&#x156;" horiz-adv-x="616" d="M306 698Q349 698 396 693T482 671T546 619T572 526Q572 490 558 459T520 405T461 366T385 347V345Q422 334 439 305T470 223L532 0H432L381 196Q372 230 364 252T339 288T295 307T221 313H186L122 0H24L172 698H306ZM204 394Q215 393 225 393T244 393Q293 393 335 398T407 416T455 455T472 521Q472 552 457 571T418 600T361 613T296 616H250L204 394ZM204 -230H138L209 -62H310L204 -230Z"  />
<glyph unicode="&#x157;" horiz-adv-x="385" d="M207 510Q204 490 200 469T188 419H190Q222 470 261 496T346 522Q364 522 376 520T403 513L384 433Q371 438 361 440T336 443Q297 443 268 425T217 375T181 304T158 220L112 0H18L93 353Q104 409 110 444T122 510H207ZM17 -230H-49L22 -62H123L17 -230Z"  />
<glyph unicode="&#x158;" horiz-adv-x="616" d="M306 698Q349 698 396 693T482 671T546 619T572 526Q572 490 558 459T520 405T461 366T385 347V345Q422 334 439 305T470 223L532 0H432L381 196Q372 230 364 252T339 288T295 307T221 313H186L122 0H24L172 698H306ZM204 394Q215 393 225 393T244 393Q293 393 335 398T407 416T455 455T472 521Q472 552 457 571T418 600T361 613T296 616H250L204 394ZM526 894L390 750H305L227 894H303L354 801L447 894H526Z"  />
<glyph unicode="&#x159;" horiz-adv-x="385" d="M207 510Q204 490 200 469T188 419H190Q222 470 261 496T346 522Q364 522 376 520T403 513L384 433Q371 438 361 440T336 443Q297 443 268 425T217 375T181 304T158 220L112 0H18L93 353Q104 409 110 444T122 510H207ZM303 579H217L150 756H224L267 628L372 756H454L303 579Z"  />
<glyph unicode="&#x15A;" horiz-adv-x="506" d="M459 591Q435 608 397 617T325 627Q265 627 226 599T187 519Q187 504 191 490T206 462T239 433T294 398Q335 375 361 352T403 306T424 257T430 203Q430 153 412 114T362 46T284 3T185 -12Q92 -12 -3 28L27 115Q62 95 103 84T183 72Q249 72 291 105T334 197Q334 235 310 264T228 326Q185 350 158 372T115 417T93 464T87 515Q87 559 106 595T157 656T233 696T326 710Q371 710 411 701T487 675L459 591ZM344 750H273L367 894H479L344 750Z"  />
<glyph unicode="&#x15B;" horiz-adv-x="396" d="M346 422Q290 451 234 451Q195 451 169 433T143 384Q143 373 146 364T158 345T182 324T221 296Q277 258 299 226T322 151Q322 74 267 31T118 -12Q86 -12 50 -5T-22 14L3 89Q62 61 119 61Q168 61 197 82T226 144Q226 172 206 194T139 247Q100 273 77 302T53 374Q53 445 105 483T243 522Q310 522 375 494L346 422ZM276 579H205L323 756H435L276 579Z"  />
<glyph unicode="&#x15C;" horiz-adv-x="506" d="M459 591Q435 608 397 617T325 627Q265 627 226 599T187 519Q187 504 191 490T206 462T239 433T294 398Q335 375 361 352T403 306T424 257T430 203Q430 153 412 114T362 46T284 3T185 -12Q92 -12 -3 28L27 115Q62 95 103 84T183 72Q249 72 291 105T334 197Q334 235 310 264T228 326Q185 350 158 372T115 417T93 464T87 515Q87 559 106 595T157 656T233 696T326 710Q371 710 411 701T487 675L459 591ZM326 894H412L487 750H413L362 848L275 750H193L326 894Z"  />
<glyph unicode="&#x15D;" horiz-adv-x="396" d="M346 422Q290 451 234 451Q195 451 169 433T143 384Q143 373 146 364T158 345T182 324T221 296Q277 258 299 226T322 151Q322 74 267 31T118 -12Q86 -12 50 -5T-22 14L3 89Q62 61 119 61Q168 61 197 82T226 144Q226 172 206 194T139 247Q100 273 77 302T53 374Q53 445 105 483T243 522Q310 522 375 494L346 422ZM252 756H338L405 579H331L288 707L183 579H101L252 756Z"  />
<glyph unicode="&#x15E;" horiz-adv-x="506" d="M459 591Q435 608 397 617T325 627Q265 627 226 599T187 519Q187 504 191 490T206 462T239 433T294 398Q335 375 361 352T403 306T424 257T430 203Q430 153 412 114T362 46T284 3T185 -12H180L157 -71Q162 -70 168 -70T182 -69Q211 -69 233 -84T255 -135Q255 -160 245 -179T216 -211T175 -230T126 -237Q111 -237 94 -235T66 -229L77 -188Q89 -191 99 -192T121 -193Q147 -193 168 -183T189 -145Q189 -126 177 -118T144 -109Q137 -109 126 -110T101 -114L133 -9Q65 -1 -3 28L27 115Q62 95 103 84T183 72Q249 72 291 105T334 197Q334 235 310 264T228 326Q185 350 158 372T115 417T93 464T87 515Q87 559 106 595T157 656T233 696T326 710Q371 710 411 701T487 675L459 591Z"  />
<glyph unicode="&#x15F;" horiz-adv-x="396" d="M346 422Q290 451 234 451Q195 451 169 433T143 384Q143 373 146 364T158 345T182 324T221 296Q277 258 299 226T322 151Q322 78 272 36T137 -11L114 -71Q119 -70 125 -70T139 -69Q168 -69 190 -84T212 -135Q212 -160 202 -179T173 -211T132 -230T83 -237Q68 -237 51 -235T23 -229L34 -188Q46 -191 56 -192T78 -193Q104 -193 125 -183T146 -145Q146 -126 134 -118T101 -109Q94 -109 83 -110T58 -114L90 -11Q63 -9 35 -3T-22 14L3 89Q62 61 119 61Q168 61 197 82T226 144Q226 172 206 194T139 247Q100 273 77 302T53 374Q53 445 105 483T243 522Q310 522 375 494L346 422Z"  />
<glyph unicode="&#x160;" horiz-adv-x="506" d="M459 591Q435 608 397 617T325 627Q265 627 226 599T187 519Q187 504 191 490T206 462T239 433T294 398Q335 375 361 352T403 306T424 257T430 203Q430 153 412 114T362 46T284 3T185 -12Q92 -12 -3 28L27 115Q62 95 103 84T183 72Q249 72 291 105T334 197Q334 235 310 264T228 326Q185 350 158 372T115 417T93 464T87 515Q87 559 106 595T157 656T233 696T326 710Q371 710 411 701T487 675L459 591ZM510 894L374 750H289L211 894H287L338 801L431 894H510Z"  />
<glyph unicode="&#x161;" horiz-adv-x="396" d="M346 422Q290 451 234 451Q195 451 169 433T143 384Q143 373 146 364T158 345T182 324T221 296Q277 258 299 226T322 151Q322 74 267 31T118 -12Q86 -12 50 -5T-22 14L3 89Q62 61 119 61Q168 61 197 82T226 144Q226 172 206 194T139 247Q100 273 77 302T53 374Q53 445 105 483T243 522Q310 522 375 494L346 422ZM292 579H206L139 756H213L256 628L361 756H443L292 579Z"  />
<glyph unicode="&#x162;" horiz-adv-x="541" d="M599 698L583 616L379 620L249 0H153L283 620L74 616L90 698H599ZM148 -230H82L153 -62H254L148 -230Z"  />
<glyph unicode="&#x163;" horiz-adv-x="371" d="M180 633L283 668L247 506H387L372 434H231L184 215Q176 177 173 161T170 131Q170 98 189 85T240 72Q260 72 276 75T306 84L291 6Q275 1 256 -2T213 -6Q144 -6 110 24T76 108Q76 128 79 154T94 230L138 434H25L40 506H154L180 633ZM111 -230H45L116 -62H217L111 -230Z"  />
<glyph unicode="&#x164;" horiz-adv-x="541" d="M599 698L583 616L379 620L249 0H153L283 620L74 616L90 698H599ZM533 894L397 750H312L234 894H310L361 801L454 894H533Z"  />
<glyph unicode="&#x165;" horiz-adv-x="371" d="M180 633L283 668L247 506H387L372 434H231L184 215Q176 177 173 161T170 131Q170 98 189 85T240 72Q260 72 276 75T306 84L291 6Q275 1 256 -2T213 -6Q144 -6 110 24T76 108Q76 128 79 154T94 230L138 434H25L40 506H154L180 633ZM388 579H332L386 756H471L388 579Z"  />
<glyph unicode="&#x166;" horiz-adv-x="541" d="M336 416L249 0H153L240 416H134L147 471H251L283 620L74 616L90 698H599L583 616L379 620L347 471H464L452 416H336Z"  />
<glyph unicode="&#x167;" horiz-adv-x="371" d="M180 633L283 668L247 506H387L372 434H231L206 320H304L294 273H196L184 215Q176 177 173 161T170 131Q170 98 189 85T240 72Q260 72 276 75T306 84L291 6Q275 1 256 -2T213 -6Q144 -6 110 24T76 108Q76 128 79 154T94 230L103 273H24L34 320H113L138 434H25L40 506H154L180 633Z"  />
<glyph unicode="&#x168;" horiz-adv-x="718" d="M260 698L175 292Q166 247 166 209Q166 140 206 104T316 67Q372 67 409 90T472 152T511 239T537 338L612 698H709L622 292Q607 224 584 168T524 72T436 10T314 -12Q203 -12 137 42T70 202Q70 228 74 264T92 359L164 698H260ZM283 761Q296 810 320 840T387 870Q405 870 423 863T465 841Q481 832 495 826T522 820Q542 820 553 832T572 868H624Q613 819 588 788T521 756Q502 756 484 762T447 780Q422 794 409 799T382 805Q367 805 354 795T334 761H283Z"  />
<glyph unicode="&#x169;" horiz-adv-x="608" d="M214 -12Q133 -12 91 31T49 152Q49 172 52 194T60 239L117 510H211L151 231Q146 211 144 193T141 161Q141 114 163 89T232 64Q274 64 312 89T379 158Q387 171 394 184T407 216T419 258T432 318L472 510H566L480 110Q475 84 470 57T461 0H376Q379 18 384 42T395 89H393Q358 40 312 14T214 -12ZM196 598Q209 647 233 677T300 707Q318 707 336 700T378 678Q394 669 408 663T435 657Q455 657 466 669T485 705H537Q526 656 501 625T434 593Q415 593 397 599T360 617Q335 631 322 636T295 642Q280 642 267 632T247 598H196Z"  />
<glyph unicode="&#x16A;" horiz-adv-x="718" d="M260 698L175 292Q166 247 166 209Q166 140 206 104T316 67Q372 67 409 90T472 152T511 239T537 338L612 698H709L622 292Q607 224 584 168T524 72T436 10T314 -12Q203 -12 137 42T70 202Q70 228 74 264T92 359L164 698H260ZM322 841H591L580 783H310L322 841Z"  />
<glyph unicode="&#x16B;" horiz-adv-x="608" d="M214 -12Q133 -12 91 31T49 152Q49 172 52 194T60 239L117 510H211L151 231Q146 211 144 193T141 161Q141 114 163 89T232 64Q274 64 312 89T379 158Q387 171 394 184T407 216T419 258T432 318L472 510H566L480 110Q475 84 470 57T461 0H376Q379 18 384 42T395 89H393Q358 40 312 14T214 -12ZM229 670H498L487 612H217L229 670Z"  />
<glyph unicode="&#x16C;" horiz-adv-x="718" d="M260 698L175 292Q166 247 166 209Q166 140 206 104T316 67Q372 67 409 90T472 152T511 239T537 338L612 698H709L622 292Q607 224 584 168T524 72T436 10T314 -12Q203 -12 137 42T70 202Q70 228 74 264T92 359L164 698H260ZM355 892Q355 854 378 834T441 814Q488 814 512 833T548 892H602Q591 826 548 790T438 754Q378 754 340 786T302 881V892H355Z"  />
<glyph unicode="&#x16D;" horiz-adv-x="608" d="M214 -12Q133 -12 91 31T49 152Q49 172 52 194T60 239L117 510H211L151 231Q146 211 144 193T141 161Q141 114 163 89T232 64Q274 64 312 89T379 158Q387 171 394 184T407 216T419 258T432 318L472 510H566L480 110Q475 84 470 57T461 0H376Q379 18 384 42T395 89H393Q358 40 312 14T214 -12ZM271 736Q271 716 275 697T288 664T314 642T355 633Q402 633 431 660T472 736H528Q522 698 507 668T468 617T415 585T351 573Q315 573 289 585T247 618T224 666T216 725V736H271Z"  />
<glyph unicode="&#x16E;" horiz-adv-x="718" d="M260 698L175 292Q166 247 166 209Q166 140 206 104T316 67Q372 67 409 90T472 152T511 239T537 338L612 698H709L622 292Q607 224 584 168T524 72T436 10T314 -12Q203 -12 137 42T70 202Q70 228 74 264T92 359L164 698H260ZM442 940Q463 940 481 932T513 910T535 878T543 838Q543 817 535 799T513 767T481 745T441 737Q420 737 402 745T369 766T347 798T339 838Q339 859 347 878T369 910T402 932T442 940ZM441 900Q416 900 398 882T380 839Q380 813 398 796T442 778Q467 778 485 795T503 839Q503 865 485 882T441 900Z"  />
<glyph unicode="&#x16F;" horiz-adv-x="608" d="M214 -12Q133 -12 91 31T49 152Q49 172 52 194T60 239L117 510H211L151 231Q146 211 144 193T141 161Q141 114 163 89T232 64Q274 64 312 89T379 158Q387 171 394 184T407 216T419 258T432 318L472 510H566L480 110Q475 84 470 57T461 0H376Q379 18 384 42T395 89H393Q358 40 312 14T214 -12ZM354 765Q375 765 393 757T425 735T447 703T455 663Q455 642 447 624T425 592T393 570T353 562Q332 562 314 570T281 591T259 623T251 663Q251 684 259 703T281 735T314 757T354 765ZM353 725Q328 725 310 707T292 664Q292 638 310 621T354 603Q379 603 397 620T415 664Q415 690 397 707T353 725Z"  />
<glyph unicode="&#x170;" horiz-adv-x="718" d="M260 698L175 292Q166 247 166 209Q166 140 206 104T316 67Q372 67 409 90T472 152T511 239T537 338L612 698H709L622 292Q607 224 584 168T524 72T436 10T314 -12Q203 -12 137 42T70 202Q70 228 74 264T92 359L164 698H260ZM539 752H471L559 895H668L539 752ZM375 752H308L389 895H497L375 752Z"  />
<glyph unicode="&#x171;" horiz-adv-x="608" d="M214 -12Q133 -12 91 31T49 152Q49 172 52 194T60 239L117 510H211L151 231Q146 211 144 193T141 161Q141 114 163 89T232 64Q274 64 312 89T379 158Q387 171 394 184T407 216T419 258T432 318L472 510H566L480 110Q475 84 470 57T461 0H376Q379 18 384 42T395 89H393Q358 40 312 14T214 -12ZM443 581H378L491 756H594L443 581ZM279 581H215L317 756H416L279 581Z"  />
<glyph unicode="&#x172;" horiz-adv-x="718" d="M260 698L175 292Q166 247 166 209Q166 140 206 104T316 67Q372 67 409 90T472 152T511 239T537 338L612 698H709L622 292Q610 236 592 188T548 103T487 39T404 0Q357 -41 338 -69T318 -123Q318 -143 329 -154T363 -166Q378 -166 392 -163T423 -151V-195Q403 -206 382 -209T340 -213Q300 -213 275 -194T250 -139Q250 -104 272 -74T338 -11Q332 -11 326 -11T314 -12Q203 -12 137 42T70 202Q70 228 74 264T92 359L164 698H260Z"  />
<glyph unicode="&#x173;" horiz-adv-x="608" d="M214 -12Q133 -12 91 31T49 152Q49 172 52 194T60 239L117 510H211L151 231Q146 211 144 193T141 161Q141 114 163 89T232 64Q274 64 312 89T379 158Q387 171 394 184T407 216T419 258T432 318L472 510H566L480 110Q475 84 470 57T461 0H428Q380 -41 361 -69T341 -123Q341 -143 352 -154T386 -166Q401 -166 415 -163T446 -151V-195Q426 -206 405 -209T363 -213Q323 -213 298 -194T273 -139Q273 -101 299 -70T376 0Q379 18 384 42T395 89H393Q358 40 312 14T214 -12Z"  />
<glyph unicode="&#x174;" horiz-adv-x="1006" d="M580 0Q576 112 574 217T570 408T567 552T566 631H564Q556 610 530 551T466 407T378 217T274 0H147L88 698H188Q198 567 204 473T215 313T222 208T226 144T227 109T228 90H230Q233 98 238 108T253 142T282 204T330 308T404 468T511 698H649Q654 549 656 444T660 268T662 155T663 90H665Q667 95 672 105T688 137T719 199T772 304T853 466T971 698H1077L705 0H580H580ZM577 894H663L738 750H664L613 848L526 750H444L577 894Z"  />
<glyph unicode="&#x175;" horiz-adv-x="833" d="M109 0L49 510H145Q157 380 164 301T174 177T179 111T180 78H182Q186 86 191 97T205 128T229 177T267 252T322 361T400 510H517Q529 381 536 302T547 178T552 111T553 78H555Q561 90 571 111T604 177T667 302T773 510H873L595 0H482Q473 91 468 157T458 269T452 346T448 395T447 423T446 440H444Q441 434 438 425T426 399T404 352T365 277T306 162T220 0H109ZM469 756H555L622 579H548L505 707L400 579H318L469 756Z"  />
<glyph unicode="&#x176;" horiz-adv-x="618" d="M171 698Q207 615 230 561T269 472T294 414T311 371H313Q328 391 346 413T395 471T473 561T594 698H714L348 293L287 0H188L251 294L63 698H171ZM374 894H460L535 750H461L410 848L323 750H241L374 894Z"  />
<glyph unicode="&#x177;" horiz-adv-x="498" d="M147 510Q164 382 174 304T190 180T198 114T202 81H204Q208 89 213 100T229 131T254 180T294 255T352 362T433 510H532L216 -45Q189 -93 165 -126T115 -181T62 -212T-2 -222Q-36 -222 -65 -215L-54 -139Q-30 -145 -8 -145Q38 -145 70 -114T134 -21L50 510H147ZM307 756H393L460 579H386L343 707L238 579H156L307 756Z"  />
<glyph unicode="&#x178;" horiz-adv-x="618" d="M171 698Q207 615 230 561T269 472T294 414T311 371H313Q328 391 346 413T395 471T473 561T594 698H714L348 293L287 0H188L251 294L63 698H171ZM448 857H537L516 757H427L448 857ZM285 857H374L353 757H264L285 857Z"  />
<glyph unicode="&#x179;" horiz-adv-x="558" d="M567 607Q458 484 377 392T239 236T149 135T100 83H473L459 0H-24L-8 85Q85 192 165 284T306 445T407 559T460 616H106L124 698H583L567 607H567ZM367 750H296L390 894H502L367 750Z"  />
<glyph unicode="&#x17A;" horiz-adv-x="501" d="M473 428Q380 338 314 276T203 172T132 108T94 74V72H415L402 0H-24L-9 81Q96 183 164 248T274 352T336 409T367 436V438H83L97 510H488L473 428H473ZM317 579H246L364 756H476L317 579Z"  />
<glyph unicode="&#x17B;" horiz-adv-x="558" d="M567 607Q458 484 377 392T239 236T149 135T100 83H473L459 0H-24L-8 85Q85 192 165 284T306 445T407 559T460 616H106L124 698H583L567 607H567ZM324 857H413L392 757H303L324 857Z"  />
<glyph unicode="&#x17C;" horiz-adv-x="501" d="M473 428Q380 338 314 276T203 172T132 108T94 74V72H415L402 0H-24L-9 81Q96 183 164 248T274 352T336 409T367 436V438H83L97 510H488L473 428H473ZM267 698H356L335 598H246L267 698Z"  />
<glyph unicode="&#x17D;" horiz-adv-x="558" d="M567 607Q458 484 377 392T239 236T149 135T100 83H473L459 0H-24L-8 85Q85 192 165 284T306 445T407 559T460 616H106L124 698H583L567 607H567ZM532 894L396 750H311L233 894H309L360 801L453 894H532Z"  />
<glyph unicode="&#x17E;" horiz-adv-x="501" d="M473 428Q380 338 314 276T203 172T132 108T94 74V72H415L402 0H-24L-9 81Q96 183 164 248T274 352T336 409T367 436V438H83L97 510H488L473 428H473ZM342 579H256L189 756H263L306 628L411 756H493L342 579Z"  />
<glyph unicode="&#x192;" horiz-adv-x="570" d="M227 335H111L121 390H238L250 444Q263 506 278 555T315 638T371 691T454 710Q468 710 485 709T524 702L512 627Q497 630 489 631T470 632Q441 632 422 619T390 581T366 517T345 427L337 390H466L456 335H325L266 56Q253 -6 238 -55T201 -139T147 -192T66 -210Q52 -210 37 -209T0 -202L12 -127Q27 -130 33 -131T50 -132Q78 -132 96 -119T127 -81T150 -17T171 73L227 335Z"  />
<glyph unicode="&#x218;" horiz-adv-x="506" d="M459 591Q435 608 397 617T325 627Q265 627 226 599T187 519Q187 504 191 490T206 462T239 433T294 398Q335 375 361 352T403 306T424 257T430 203Q430 153 412 114T362 46T284 3T185 -12Q92 -12 -3 28L27 115Q62 95 103 84T183 72Q249 72 291 105T334 197Q334 235 310 264T228 326Q185 350 158 372T115 417T93 464T87 515Q87 559 106 595T157 656T233 696T326 710Q371 710 411 701T487 675L459 591ZM159 -230H93L164 -62H265L159 -230Z"  />
<glyph unicode="&#x219;" horiz-adv-x="396" d="M346 422Q290 451 234 451Q195 451 169 433T143 384Q143 373 146 364T158 345T182 324T221 296Q277 258 299 226T322 151Q322 74 267 31T118 -12Q86 -12 50 -5T-22 14L3 89Q62 61 119 61Q168 61 197 82T226 144Q226 172 206 194T139 247Q100 273 77 302T53 374Q53 445 105 483T243 522Q310 522 375 494L346 422ZM91 -230H25L96 -62H197L91 -230Z"  />
<glyph unicode="&#x21A;" horiz-adv-x="541" d="M599 698L583 616L379 620L249 0H153L283 620L74 616L90 698H599ZM148 -230H82L153 -62H254L148 -230Z"  />
<glyph unicode="&#x21B;" horiz-adv-x="371" d="M180 633L283 668L247 506H387L372 434H231L184 215Q176 177 173 161T170 131Q170 98 189 85T240 72Q260 72 276 75T306 84L291 6Q275 1 256 -2T213 -6Q144 -6 110 24T76 108Q76 128 79 154T94 230L138 434H25L40 506H154L180 633ZM111 -230H45L116 -62H217L111 -230Z"  />
<glyph unicode="&#x237;" horiz-adv-x="266" d="M224 510L102 -69Q85 -146 47 -184T-58 -222Q-76 -222 -95 -219T-133 -210L-118 -131Q-94 -139 -70 -139Q-30 -139 -13 -113T17 -27L130 510H224Z"  />
<glyph unicode="&#x2C6;" horiz-adv-x="500" d="M295 756H381L448 579H374L331 707L226 579H144L295 756Z"  />
<glyph unicode="&#x2C7;" horiz-adv-x="500" d="M345 579H259L192 756H266L309 628L414 756H496L345 579Z"  />
<glyph unicode="&#x2C9;" horiz-adv-x="500" d="M184 670H453L442 612H172L184 670Z"  />
<glyph unicode="&#x2D8;" horiz-adv-x="500" d="M227 736Q227 716 231 697T244 664T270 642T311 633Q358 633 387 660T428 736H484Q478 698 463 668T424 617T371 585T307 573Q271 573 245 585T203 618T180 666T172 725V736H227Z"  />
<glyph unicode="&#x2D9;" horiz-adv-x="500" d="M279 698H368L347 598H258L279 698Z"  />
<glyph unicode="&#x2DA;" horiz-adv-x="500" d="M312 765Q333 765 351 757T383 735T405 703T413 663Q413 642 405 624T383 592T351 570T311 562Q290 562 272 570T239 591T217 623T209 663Q209 684 217 703T239 735T272 757T312 765ZM311 725Q286 725 268 707T250 664Q250 638 268 621T312 603Q337 603 355 620T373 664Q373 690 355 707T311 725Z"  />
<glyph unicode="&#x2DB;" horiz-adv-x="500" d="M305 10Q251 -35 229 -66T206 -123Q206 -143 217 -154T251 -166Q266 -166 280 -163T311 -151V-195Q291 -206 270 -209T228 -213Q188 -213 163 -194T138 -139Q138 -98 167 -65T255 10H305Z"  />
<glyph unicode="&#x2DC;" horiz-adv-x="500" d="M143 598Q156 647 180 677T247 707Q265 707 283 700T325 678Q341 669 355 663T382 657Q402 657 413 669T432 705H484Q473 656 448 625T381 593Q362 593 344 599T307 617Q282 631 269 636T242 642Q227 642 214 632T194 598H143Z"  />
<glyph unicode="&#x2DD;" horiz-adv-x="500" d="M397 581H332L445 756H548L397 581ZM233 581H169L271 756H370L233 581Z"  />
<glyph unicode="&#x394;" horiz-adv-x="716" d="M381 698H495L638 88L619 0H-36L-17 88L381 698ZM86 88H537L456 462Q453 477 448 499T439 543T431 587T426 622H424Q417 608 405 587T378 544T351 499T327 462L86 88Z"  />
<glyph unicode="&#x3A9;" horiz-adv-x="784" d="M371 0L387 76Q430 108 472 146T547 229T601 326T622 440Q622 525 578 577T446 630Q391 630 346 609T269 549T219 456T201 338Q201 272 228 201T303 76L287 0H3L22 88H68Q104 88 142 88T210 84L211 86Q186 114 165 148T128 218T104 291T95 363Q95 436 121 499T196 609T310 683T456 710Q516 710 566 694T653 646T711 567T732 459Q732 400 715 349T667 251T595 165T507 86L508 84Q540 87 576 87T646 88H681L662 0H371Z"  />
<glyph unicode="&#x3BC;" horiz-adv-x="638" d="M401 99Q374 67 349 46T298 11T247 -7T197 -12Q169 -12 149 -4T114 18L110 16Q109 6 106 -12T99 -51T90 -96T81 -138L66 -210H-28L125 510H219L165 258Q159 229 155 203T151 154Q151 115 169 91T234 66Q266 66 297 82T355 127T402 194T431 277L480 510H574L494 135Q488 107 491 91T517 75Q524 75 530 76T542 79L529 2Q517 -3 501 -4T469 -6Q431 -6 412 20T403 99H401Z"  />
<glyph unicode="&#x3C0;" horiz-adv-x="651" d="M527 0Q516 -3 498 -4T468 -6Q354 -6 354 103Q354 129 362 169L417 429H263L127 0H33L182 429H59L77 511H644L626 429H502L449 176Q447 164 445 154T443 133Q443 75 499 75Q509 75 520 76T539 79L527 0Z"  />
<glyph unicode="&#x2013;" horiz-adv-x="500" d="M497 298L483 228H-17L-3 298H497Z"  />
<glyph unicode="&#x2014;" horiz-adv-x="1000" d="M877 298L863 228H103L117 298H877Z"  />
<glyph unicode="&#x2018;" horiz-adv-x="263" d="M80 494L222 734H295L178 494H80Z"  />
<glyph unicode="&#x2019;" horiz-adv-x="263" d="M300 734L158 494H85L202 734H300Z"  />
<glyph unicode="&#x201A;" horiz-adv-x="263" d="M161 109L19 -131H-54L63 109H161Z"  />
<glyph unicode="&#x201C;" horiz-adv-x="448" d="M80 494L222 734H295L178 494H80ZM265 494L407 734H480L363 494H265Z"  />
<glyph unicode="&#x201D;" horiz-adv-x="448" d="M485 734L343 494H270L387 734H485ZM300 734L158 494H85L202 734H300Z"  />
<glyph unicode="&#x201E;" horiz-adv-x="448" d="M346 109L204 -131H131L248 109H346ZM159 109L17 -131H-56L61 109H159Z"  />
<glyph unicode="&#x2020;" horiz-adv-x="570" d="M406 692L369 523H543L528 451H353L257 0H172L270 451H96L112 523H285L323 692H406Z"  />
<glyph unicode="&#x2021;" horiz-adv-x="570" d="M403 692L371 532H545L530 460H352L304 234H477L465 162H290L256 0H173L209 162H33L45 234H222L270 460H98L109 532H286L320 692H403Z"  />
<glyph unicode="&#x2022;" horiz-adv-x="500" d="M252 521Q287 521 318 507T372 470T409 415T423 348Q423 312 410 281T373 225T318 188T250 174Q214 174 182 187T127 225T90 281T76 349Q76 385 89 416T127 471T183 507T252 521Z"  />
<glyph unicode="&#x2026;" horiz-adv-x="1000" d="M183 112L161 0H47L70 112H183ZM516 112L494 0H380L403 112H516ZM849 112L827 0H713L736 112H849Z"  />
<glyph unicode="&#x2030;" horiz-adv-x="1251" d="M228 -21H160L655 735H724L228 -21ZM219 409Q263 409 293 451T323 562Q323 605 304 627T250 650Q228 650 209 639T176 607T154 559T146 496Q146 453 165 431T219 409ZM214 349Q142 349 106 389T70 499Q70 544 84 582T122 649T181 694T255 710Q327 710 363 670T399 559Q399 514 385 476T347 410T288 365T214 349ZM626 48Q670 48 700 90T730 201Q730 244 711 266T657 289Q635 289 616 278T583 246T561 198T553 135Q553 92 572 70T626 48ZM621 -12Q549 -12 513 28T477 138Q477 183 491 221T529 288T588 333T662 349Q734 349 770 309T806 198Q806 153 792 115T754 49T695 4T621 -12ZM1007 48Q1051 48 1081 90T1111 201Q1111 244 1092 266T1038 289Q1016 289 997 278T964 246T942 198T934 135Q934 92 953 70T1007 48ZM1002 -12Q930 -12 894 28T858 138Q858 183 872 221T910 288T969 333T1043 349Q1115 349 1151 309T1187 198Q1187 153 1173 115T1135 49T1076 4T1002 -12Z"  />
<glyph unicode="&#x2039;" horiz-adv-x="312" d="M189 456H293L111 248L211 53H114L11 250L189 456Z"  />
<glyph unicode="&#x203A;" horiz-adv-x="312" d="M85 52H-19L163 260L63 455H160L263 258L85 52Z"  />
<glyph unicode="&#x2044;" horiz-adv-x="125" d="M-139 -21H-207L289 735H358L-139 -21Z"  />
<glyph unicode="&#x20AC;" horiz-adv-x="570" d="M571 616Q554 621 536 622T498 624Q416 624 350 576T245 444H504L484 388H224Q219 373 215 356T211 325H463L443 269H208Q208 179 253 128T382 77Q407 77 427 79T469 86L456 1Q435 -3 412 -5T366 -7Q307 -7 260 11T179 64T127 145T109 250V269H37L53 325H112Q115 357 124 388H62L78 444H140Q165 507 203 556T290 638T395 688T512 706Q533 706 554 705T596 698L571 616Z"  />
<glyph unicode="&#x2113;" horiz-adv-x="460" d="M101 374Q116 437 132 497T172 605T232 681T322 710Q381 710 414 674T447 573Q447 517 426 461T368 354T278 258T164 180V165Q164 145 166 128T177 98T200 77T239 69Q255 69 273 71T312 81L301 6Q278 -2 255 -4T212 -6Q169 -6 142 6T98 38T76 84T69 140Q52 135 35 130T1 122L19 208Q49 214 74 224Q79 259 85 296T101 374ZM196 386Q189 355 184 327T174 273Q214 299 247 331T303 401T340 480T353 565Q353 597 341 613T308 630Q290 630 276 617T249 575T224 500T196 386Z"  />
<glyph unicode="&#x2122;" horiz-adv-x="900" d="M255 631H140V682H432V631H317V332H255V631ZM491 682H585L679 414H681L771 682H861V332H805V625H802L700 332H652L550 625H547V332H491V682Z"  />
<glyph unicode="&#x2126;" horiz-adv-x="784" d="M371 0L387 76Q430 108 472 146T547 229T601 326T622 440Q622 525 578 577T446 630Q391 630 346 609T269 549T219 456T201 338Q201 272 228 201T303 76L287 0H3L22 88H68Q104 88 142 88T210 84L211 86Q186 114 165 148T128 218T104 291T95 363Q95 436 121 499T196 609T310 683T456 710Q516 710 566 694T653 646T711 567T732 459Q732 400 715 349T667 251T595 165T507 86L508 84Q540 87 576 87T646 88H681L662 0H371Z"  />
<glyph unicode="&#x212E;" horiz-adv-x="853" d="M748 136Q722 107 691 80T620 33T531 0T418 -12Q344 -12 276 12T157 82T74 194T43 344Q43 424 75 491T162 607T289 683T442 710Q538 710 609 678T727 595T798 480T822 350V346H209L201 336V106Q249 62 305 43T424 24Q512 24 574 56T680 136H748ZM665 391V596Q612 645 555 659T442 674Q414 674 383 670T321 657T260 630T201 587V391L209 382H657L665 391Z"  />
<glyph unicode="&#x2202;" horiz-adv-x="570" d="M235 766Q304 735 359 695T452 603T510 485T530 337Q530 264 511 201T453 91T360 17T235 -10Q185 -10 145 5T75 50T30 121T14 216Q14 273 35 326T93 421T179 487T282 512Q320 512 359 500T430 452L432 454Q422 499 397 539T338 612T263 670T181 712L235 766H235ZM301 437Q262 437 227 420T167 373T126 302T111 213Q111 141 145 102T240 63Q285 63 321 80T382 129T420 202T434 294Q434 365 396 401T301 437Z"  />
<glyph unicode="&#x2206;" horiz-adv-x="716" d="M381 698H495L638 88L619 0H-36L-17 88L381 698ZM86 88H537L456 462Q453 477 448 499T439 543T431 587T426 622H424Q417 608 405 587T378 544T351 499T327 462L86 88Z"  />
<glyph unicode="&#x220F;" horiz-adv-x="760" d="M672 -210H574V684H195V-210H97V766H672V-210Z"  />
<glyph unicode="&#x2211;" horiz-adv-x="670" d="M298 69Q283 49 263 22T221 -34T181 -86T150 -124L151 -125Q166 -125 194 -125T255 -124T322 -123T382 -122H644V-210H40V-134L359 289L53 693V766H630V684H369Q349 684 323 684T271 685T221 686T182 687L181 686Q192 672 210 649T248 599T289 546T323 501L473 303L298 69Z"  />
<glyph unicode="&#x2212;" horiz-adv-x="570" d="M21 211V291H525V211H21Z"  />
<glyph unicode="&#x2215;" horiz-adv-x="125" d="M-139 -21H-207L289 735H358L-139 -21Z"  />
<glyph unicode="&#x2219;" horiz-adv-x="240" d="M175 319L153 207H39L62 319H175Z"  />
<glyph unicode="&#x221A;" horiz-adv-x="648" d="M303 49Q307 37 314 13T330 -39T345 -92T355 -133H357Q359 -116 364 -90T374 -37T385 15T394 54L549 766H648L415 -210H298L160 171H24V251H232L303 49Z"  />
<glyph unicode="&#x221E;" horiz-adv-x="916" d="M402 262Q374 337 338 380T251 423Q190 423 159 379T128 264Q128 231 135 202T158 151T196 115T249 102Q303 102 339 142T402 262ZM441 175Q407 105 357 66T240 26Q191 26 154 44T92 94T54 170T41 268Q41 319 56 362T100 436T167 486T253 504Q295 504 325 494T378 465T420 417T458 354Q492 424 541 464T659 504Q708 504 745 486T808 436T846 360T859 261Q859 210 844 167T800 93T733 44T647 26Q605 26 575 36T522 65T479 112T441 175ZM497 263Q525 188 561 145T648 102Q709 102 740 146T771 261Q771 294 764 323T741 374T703 410T650 423Q596 423 560 383T497 263Z"  />
<glyph unicode="&#x222B;" horiz-adv-x="372" d="M224 -52Q224 -135 184 -178T70 -221Q46 -221 31 -219T1 -213L10 -132Q35 -141 60 -141Q97 -141 111 -118T126 -52V591Q126 669 164 714T276 760Q302 760 320 758T355 750L346 669Q319 680 293 680Q255 680 240 655T224 591V-52Z"  />
<glyph unicode="&#x2248;" horiz-adv-x="570" d="M528 340Q506 314 472 298T399 282Q358 282 328 294T270 322T214 349T151 362Q131 362 113 356T80 340T53 317T32 291V383Q54 410 88 425T161 441Q201 441 232 429T290 402T346 375T409 362Q450 362 480 384T528 433V340ZM528 119Q506 93 472 77T399 61Q358 61 328 73T270 101T214 128T151 141Q131 141 113 135T80 119T53 96T32 70V162Q54 189 88 204T161 220Q201 220 232 208T290 181T346 154T409 141Q450 141 480 163T528 212V119Z"  />
<glyph unicode="&#x2260;" horiz-adv-x="570" d="M317 395L397 530H497L417 395H534V315H370L294 187H534V107H247L167 -28H67L147 107H30V187H194L270 315H30V395H317Z"  />
<glyph unicode="&#x2264;" horiz-adv-x="570" d="M29 80H533V0H29V80ZM29 264V378L533 528V442L335 385Q316 379 282 370T212 352T145 334T99 324V322Q113 319 144 311T212 293T282 273T335 258L533 202V115L29 264Z"  />
<glyph unicode="&#x2265;" horiz-adv-x="570" d="M539 0H35V80H539V0ZM35 115V202L233 258Q252 263 286 273T356 293T423 311T469 322V324Q455 326 424 334T356 351T286 370T233 385L35 442V528L539 378V264L35 115Z"  />
<glyph unicode="&#x25CA;" horiz-adv-x="530" d="M47 349L218 698H316L487 349L316 0H218L47 349ZM133 349L201 212Q207 200 216 180T236 139T254 98T267 66H269Q273 78 281 98T299 139T318 180T334 212L400 347L330 485Q324 497 315 516T296 557T278 598T267 630H265Q261 618 253 599T234 558T215 518T200 485L133 349Z"  />
<glyph unicode="&#xFB01;" horiz-adv-x="614" d="M430 678Q406 685 379 685Q329 685 300 650T255 535L249 506H387L371 434H236L142 0H49L142 434H27L41 506H158L164 535Q174 586 190 627T230 698T291 744T377 760Q395 760 413 758T446 751L430 678ZM612 698L591 593H483L505 698H612ZM568 510L460 0H366L474 510H568Z"  />
<glyph unicode="&#xFB02;" horiz-adv-x="614" d="M430 678Q406 685 379 685Q329 685 300 650T255 535L249 506H387L371 434H236L142 0H49L142 434H27L41 506H158L164 535Q174 586 190 627T230 698T291 744T377 760Q395 760 413 758T446 751L430 678ZM526 756H620L460 0H366L526 756Z"  />

</font>
</defs>
</svg>
