<?xml  version="1.0" encoding="UTF-8"?>
<!DOCTYPE svg PUBLIC "-//W3C//DTD SVG 1.0//EN" "http://www.w3.org/TR/2001/REC-SVG-20010904/DTD/svg10.dtd" >
<svg xmlns="http://www.w3.org/2000/svg" >
<metadata>
<version>1.0</version>
<id><![CDATA[Frutiger Neue W02 Bd]]></id>
<vendor>Monotype Imaging Inc.</vendor>
<credits>
<name>Fonts.com WebFonts</name>
<URL>http://webfonts.fonts.com</URL>
<role>Home of the Web fonts</role>
</credits>
<license>
<URL>http://webfonts.fonts.com/Legal</URL>
</license>
<copyright><![CDATA[Copyright ¨ 2009 Linotype GmbH, www.linotype.com. All rights reserved. This font software may not be reproduced, modified, disclosed or transferred without the express written approval of Linotype GmbH. Frutiger is a trademark of Linotype Corp. registered in the U.S. Patent and Trademark Office and may be registered in certain other jurisdictions in the name of Linotype Corp. or its licensee Linotype GmbH. This typeface is original artwork of Adrian Frutiger and Linotype Design Studio. The design may be protected in certain jurisdictions.]]></copyright>
<trademark><![CDATA[Frutiger is a trademark of Linotype Corp. registered in the U.S. Patent and Trademark Office and may be registered in certain other jurisdictions in the name of Linotype Corp. or its licensee Linotype GmbH.]]></trademark>
<licensee>
<name></name>
</licensee>
</metadata>
<defs >
<font horiz-adv-x="566" id="1a08d2b3-db40-4a33-835d-0a476a906ece">
<font-face font-family="" panose-1="2 11 8 3 4 3 4 2 2 3" ascent="950" descent="-240" units-per-em="1000" alphabetic="0">
</font-face>
<missing-glyph horiz-adv-x="0" />

<glyph unicode="&#xA;" />
<glyph unicode="&#xD;" horiz-adv-x="0" />
<glyph unicode=" " horiz-adv-x="250" />
<glyph unicode="!" horiz-adv-x="342" d="M93 698H251L227 202H115L93 698ZM101 134H240V0H101V134Z"  />
<glyph unicode="&quot;" horiz-adv-x="457" d="M105 400L86 698H192L175 400H105ZM283 400L264 698H371L352 400H283Z"  />
<glyph unicode="#" horiz-adv-x="596" d="M88 0L124 195H37V279H139L165 421H80V505H181L216 698H316L281 505H386L423 698H523L487 505H572V421H470L444 279H531V195H429L392 0H293L329 195H223L186 0H88ZM372 421H265L239 279H345L372 421Z"  />
<glyph unicode="$" horiz-adv-x="596" d="M272 790H327V703Q372 703 416 699T493 680L481 562Q466 570 447 576T408 586T366 593T327 595V419Q384 400 424 380T490 334T528 276T540 201Q540 113 487 59T324 -6V-93H267V-8Q218 -8 169 -1T68 23L82 149Q99 140 121 132T169 117T219 108T267 104V299L236 310Q185 328 151 347T95 390T66 443T57 509Q57 589 113 640T272 702V790ZM272 595Q236 590 214 571T192 516Q192 484 210 465T272 433V595ZM324 106Q366 112 385 135T405 194Q405 225 388 246T324 283V106Z"  />
<glyph unicode="%" horiz-adv-x="942" d="M240 421Q269 421 288 446T308 528Q308 582 289 605T240 628Q211 628 192 605T172 528Q172 471 191 446T240 421ZM240 341Q200 341 168 354T112 392T77 451T64 528Q64 619 112 664T240 710Q319 710 367 665T416 528Q416 486 404 452T368 393T313 355T240 341ZM738 736L293 -21H209L654 736H738ZM702 68Q731 68 750 93T770 175Q770 229 751 252T702 275Q673 275 654 252T634 175Q634 118 653 93T702 68ZM702 -12Q662 -12 630 1T574 39T539 98T526 175Q526 266 574 311T702 357Q781 357 829 312T878 175Q878 133 866 99T830 40T775 2T702 -12Z"  />
<glyph unicode="&amp;" horiz-adv-x="727" d="M686 380Q683 304 657 247T593 143L728 0H564L507 65Q459 25 412 7T300 -11Q244 -11 198 3T119 44T68 107T50 190Q50 323 217 388Q176 428 155 467T134 547Q134 585 150 614T193 663T258 693T339 703Q381 703 418 695T483 668T527 622T543 553Q543 487 504 443T384 363L520 216Q543 248 555 290T569 380H686ZM327 433Q375 456 400 482T425 549Q425 583 401 599T343 615Q308 615 285 598T261 548Q261 524 275 497T327 433ZM275 313Q224 292 206 262T188 195Q188 170 198 150T226 117T267 96T316 89Q352 89 383 98T441 133L275 313Z"  />
<glyph unicode="&apos;" horiz-adv-x="280" d="M107 400L86 698H194L173 400H107Z"  />
<glyph unicode="(" horiz-adv-x="360" d="M40 310Q40 428 79 537T200 760H328Q290 698 262 641T216 528T190 419T181 310Q181 254 189 200T216 91T262 -21T328 -140H200Q118 -26 79 83T40 310Z"  />
<glyph unicode=")" horiz-adv-x="360" d="M320 310Q320 192 281 83T160 -140H32Q70 -78 98 -21T144 91T170 200T179 310Q179 365 171 419T144 528T98 640T32 760H160Q242 646 281 537T320 310Z"  />
<glyph unicode="*" horiz-adv-x="560" d="M443 423L352 357L279 481L203 357L111 423L210 531L72 562L106 670L240 609L226 756H336L321 610L455 667L486 561L347 531L443 423Z"  />
<glyph unicode="+" horiz-adv-x="596" d="M241 207H36V315H241V523H357V315H560V207H357V0H241V207Z"  />
<glyph unicode="&#x2c;" horiz-adv-x="260" d="M227 140L136 -112H24L89 140H227Z"  />
<glyph unicode="-" horiz-adv-x="335" d="M37 326H303V214H37V326Z"  />
<glyph unicode="." horiz-adv-x="260" d="M59 144H202V0H59V144Z"  />
<glyph unicode="/" horiz-adv-x="505" d="M315 698H435L191 0H70L315 698Z"  />
<glyph unicode="0" horiz-adv-x="596" d="M304 710Q553 710 553 351Q553 266 539 199T494 85T415 13T299 -12Q231 -12 183 12T103 83T57 194T42 343Q42 531 105 620T304 710ZM298 607Q242 607 213 544T183 355Q183 222 212 157T299 91Q354 91 383 155T413 348Q413 479 384 543T298 607Z"  />
<glyph unicode="1" horiz-adv-x="596" d="M413 0H271V365Q271 387 271 414T272 469T273 519T275 556H273Q261 544 238 525T188 483L152 454L83 548L286 698H413V0Z"  />
<glyph unicode="2" horiz-adv-x="596" d="M68 669Q110 689 164 699T276 710Q324 710 367 698T444 660T496 597T515 508Q515 475 507 443T479 377T426 304T345 220Q300 178 267 153T206 108V106Q254 108 310 108T413 109H530V0H54V116Q138 184 197 237T295 335T350 417T368 493Q368 521 359 541T332 575T292 594T243 600Q164 600 82 553L68 669Z"  />
<glyph unicode="3" horiz-adv-x="596" d="M194 308Q188 308 178 308T159 307V411Q167 410 176 410T193 409Q282 409 330 433T378 509Q378 556 341 580T244 605Q158 605 83 570L74 680Q118 697 167 703T264 710Q382 710 449 662T516 528Q516 458 471 417T350 366V363Q389 359 421 345T477 309T512 258T525 192Q525 145 504 107T445 43T353 2T237 -12Q191 -12 146 -6T54 14L61 131Q107 113 148 104T230 95Q296 95 339 120T383 202Q383 259 334 283T194 308Z"  />
<glyph unicode="4" horiz-adv-x="596" d="M477 249H572V143H477V0H344V143H21V255L307 698H477V249ZM347 367Q347 412 348 474T351 595H349Q339 576 326 552T299 504T272 459T250 423L142 249H347V367Z"  />
<glyph unicode="5" horiz-adv-x="596" d="M508 593H216L212 440Q234 445 250 446T289 447Q343 447 388 432T465 389T515 321T533 230Q533 174 513 130T455 54T363 5T243 -12Q204 -12 164 -7T82 9L84 127Q156 96 232 96Q304 96 348 127T393 221Q393 285 350 316T226 347Q160 347 89 324L94 698H508V593Z"  />
<glyph unicode="6" horiz-adv-x="596" d="M498 578Q435 605 369 605Q281 605 231 545T179 375H181Q207 410 251 430T343 451Q393 451 433 435T501 390T544 320T559 229Q559 177 542 133T491 57T411 6T303 -12Q174 -12 109 74T44 325Q44 418 66 489T129 610T229 684T362 710Q402 710 441 705T512 688L498 578ZM314 351Q290 351 268 341T229 314T201 273T190 224Q190 195 199 170T223 126T260 97T308 86Q336 86 358 96T394 125T415 168T423 219Q423 247 417 271T398 313T365 341T314 351Z"  />
<glyph unicode="7" horiz-adv-x="596" d="M530 583L275 0H120L387 587H48V698H530V583Z"  />
<glyph unicode="8" horiz-adv-x="596" d="M408 372Q490 342 525 300T561 190Q561 142 541 105T486 41T402 2T296 -12Q238 -12 191 1T109 39T55 100T36 182Q36 245 73 289T189 365Q151 380 125 397T83 434T60 478T53 530Q53 571 71 604T121 661T199 697T300 710Q352 710 396 699T471 665T521 611T539 539Q539 482 508 443T408 372ZM309 410Q402 450 402 523Q402 569 373 591T296 614Q251 614 219 592T186 527Q186 482 219 456T309 410ZM286 317Q232 297 205 267T177 191Q177 142 210 115T298 87Q350 87 386 114T422 189Q422 237 389 266T286 317Z"  />
<glyph unicode="9" horiz-adv-x="596" d="M87 124Q154 93 224 93Q320 93 367 155T417 328H415Q388 289 345 270T253 250Q205 250 166 265T100 308T57 376T41 466Q41 518 58 562T108 640T188 691T295 710Q424 710 488 625T552 374Q552 187 469 88T232 -12Q187 -12 147 -6T74 13L87 124ZM293 351Q343 351 374 385T406 474Q406 503 398 528T375 572T340 601T294 612Q265 612 244 601T209 571T187 528T180 476Q180 419 209 385T293 351Z"  />
<glyph unicode=":" horiz-adv-x="280" d="M69 144H212V0H69V144ZM69 515H212V371H69V515Z"  />
<glyph unicode=";" horiz-adv-x="280" d="M227 140L136 -112H24L89 140H227ZM69 515H212V371H69V515Z"  />
<glyph unicode="&lt;" horiz-adv-x="596" d="M40 186V336L556 528V398L301 311Q286 306 264 299T218 285T172 273T137 264V262Q150 259 172 253T217 239T263 224T301 212L556 126V-5L40 186Z"  />
<glyph unicode="=" horiz-adv-x="596" d="M36 426H560V318H36V426ZM36 205H560V97H36V205Z"  />
<glyph unicode="&gt;" horiz-adv-x="596" d="M40 -5V126L295 212Q310 217 332 224T378 238T423 252T459 262V264Q445 267 424 272T379 285T333 299T295 311L40 398V528L556 336V186L40 -5Z"  />
<glyph unicode="?" horiz-adv-x="504" d="M50 676Q149 710 244 710Q353 710 416 666T479 534Q479 512 474 492T458 450T428 406T382 354Q355 325 340 304T318 267T310 238T308 213V200H186V213Q186 241 189 262T200 303T223 344T262 392Q296 430 313 458T331 516Q331 562 299 581T218 600Q180 600 139 590T64 561L50 676ZM176 134H316V0H176V134Z"  />
<glyph unicode="@" horiz-adv-x="1000" d="M790 -83Q735 -109 668 -123T524 -138Q423 -138 343 -110T207 -28T120 102T90 274Q90 369 124 449T218 588T358 678T530 711Q615 711 685 688T805 622T883 515T911 369Q911 310 896 257T850 162T777 96T680 71Q638 71 608 91T578 151Q578 154 578 158T579 170H577Q554 122 515 97T429 71Q358 71 322 120T285 248Q285 302 302 352T349 442T419 504T504 527Q547 527 575 508T617 453H619L632 508H740L679 283Q670 248 666 230T662 197Q662 180 670 169T701 158Q726 158 747 174T785 220T810 287T819 370Q819 431 799 480T742 563T654 616T540 634Q466 634 403 607T294 532T221 418T194 271Q194 195 218 135T285 34T390 -30T527 -52Q596 -52 655 -38T764 2L790 -83ZM527 442Q505 442 484 425T446 379T419 315T408 244Q408 208 421 185T464 161Q484 161 503 175T536 215Q544 230 552 252T567 297T578 342T582 378Q582 401 569 421T527 442Z"  />
<glyph unicode="A" horiz-adv-x="727" d="M717 0H564L503 161H212L151 0H6L280 698H439L717 0ZM407 430Q401 446 394 467T381 511T368 554T359 588H357Q353 574 347 554T334 512T319 468T306 430L248 267H465L407 430Z"  />
<glyph unicode="B" horiz-adv-x="626" d="M84 698H298Q356 698 404 688T486 657T538 601T557 519Q557 459 521 417T412 359V357Q489 347 532 304T575 191Q575 137 552 100T490 41T402 10T301 0H84V698ZM220 404H257Q293 404 323 407T374 421T407 451T419 500Q419 529 408 547T376 575T328 590T271 594H220V404ZM220 105H266Q352 105 393 128T434 207Q434 261 392 283T259 306H220V105Z"  />
<glyph unicode="C" horiz-adv-x="619" d="M589 16Q556 5 514 -1T426 -7Q342 -7 272 17T152 87T75 199T47 349Q47 430 75 496T152 608T270 680T417 705Q462 705 502 700T586 680L576 559Q538 576 504 583T428 591Q376 591 334 576T261 530T214 456T197 353Q197 295 215 250T264 173T338 126T430 110Q468 110 505 115T584 137L589 16Z"  />
<glyph unicode="D" horiz-adv-x="735" d="M275 698Q363 698 438 680T569 619T656 510T687 346Q687 254 655 189T568 81T437 20T275 0H84V698H275ZM225 107H262Q320 107 371 119T459 160T519 234T541 347Q541 417 519 463T460 538T371 577T262 588H225V107Z"  />
<glyph unicode="E" horiz-adv-x="561" d="M84 698H497V582H223V414H475V301H223V117H500V0H84V698Z"  />
<glyph unicode="F" horiz-adv-x="512" d="M84 698H474V581H225V405H461V291H225V0H84V698Z"  />
<glyph unicode="G" horiz-adv-x="724" d="M627 553Q595 570 546 581T442 592Q386 592 341 575T265 527T216 451T198 351Q198 297 214 252T260 176T336 127T439 109Q461 109 482 111T521 119V293H372V405H655V30Q598 10 539 2T420 -7Q340 -7 272 17T153 88T75 201T47 352Q47 433 75 498T154 610T279 680T443 705Q495 705 544 699T637 678L627 553Z"  />
<glyph unicode="H" horiz-adv-x="731" d="M84 698H226V420H506V698H647V0H506V302H226V0H84V698Z"  />
<glyph unicode="I" horiz-adv-x="309" d="M84 698H225V0H84V698Z"  />
<glyph unicode="J" horiz-adv-x="392" d="M313 698V216Q313 163 302 121T267 50T203 4T108 -12Q85 -12 61 -9T13 2L17 124Q34 119 52 117T84 114Q130 114 150 141T171 230V698H313Z"  />
<glyph unicode="K" horiz-adv-x="673" d="M225 0H84V698H225V394H227Q237 407 253 428T287 470T321 512T348 544L479 698H654L359 372L682 0H492L338 188Q328 200 315 217T287 254T257 295T227 336H225V0Z"  />
<glyph unicode="L" horiz-adv-x="514" d="M84 698H225V120H496V0H84V698Z"  />
<glyph unicode="M" horiz-adv-x="957" d="M419 365Q433 321 449 264T478 158H480Q494 207 511 264T542 365L654 698H873V0H738V341Q738 366 738 398T738 464T739 533T741 597H739Q731 572 722 542T704 482T686 425T671 379L536 0H410L280 375Q276 387 267 415T248 477T228 543T212 597H210Q211 567 211 533T212 465T213 398T213 341V0H84V698H310L419 365Z"  />
<glyph unicode="N" horiz-adv-x="750" d="M539 698H666V0H488L309 342Q295 368 281 398T252 458T227 514T208 557H206Q207 541 208 512T209 448T210 381T211 326V0H84V698H272L448 353Q458 334 471 307T497 251T523 195T543 149H545Q544 168 543 200T541 270T540 343T539 405V698Z"  />
<glyph unicode="O" horiz-adv-x="784" d="M398 710Q475 710 537 685T642 614T709 501T733 352Q733 268 709 201T640 87T532 14T390 -12Q313 -12 250 13T143 85T75 198T51 348Q51 522 142 616T398 710ZM390 601Q348 601 314 583T254 532T216 452T202 348Q202 291 215 245T254 166T315 115T394 97Q436 97 470 115T530 167T569 246T583 349Q583 407 570 454T531 533T470 583T390 601Z"  />
<glyph unicode="P" horiz-adv-x="574" d="M84 698H260Q318 698 371 689T465 656T530 591T554 484Q554 421 531 380T467 313T374 277T260 266H225V0H84V698ZM225 373H250Q286 373 315 377T366 394T398 428T410 483Q410 545 370 568T250 592H225V373Z"  />
<glyph unicode="Q" horiz-adv-x="784" d="M398 710Q475 710 537 685T642 614T709 501T733 352Q733 236 688 152T560 25L716 -134H545L431 -9Q410 -12 390 -12Q313 -12 250 13T143 85T75 198T51 348Q51 522 142 616T398 710ZM390 601Q348 601 314 583T254 532T216 452T202 348Q202 291 215 245T254 165T315 113T394 95Q436 95 470 113T530 165T569 246T583 349Q583 407 570 454T531 533T470 583T390 601Z"  />
<glyph unicode="R" horiz-adv-x="622" d="M84 698H286Q350 698 403 690T493 662T551 606T572 515Q572 446 534 405T426 350V348Q444 343 457 335T481 316T499 290T515 255L623 0H468L390 198Q379 225 370 243T348 271T314 286T262 290H225V0H84V698ZM225 398H266Q350 398 388 420T427 496Q427 524 416 542T385 570T334 584T266 588H225V398Z"  />
<glyph unicode="S" horiz-adv-x="548" d="M458 571Q416 588 382 594T316 601Q260 601 228 580T195 522Q195 506 200 493T219 467T257 442T321 415Q418 380 462 332T506 206Q506 156 488 116T435 47T352 3T243 -12Q145 -12 58 18L71 141Q116 119 157 110T235 101Q291 101 326 123T362 188Q362 208 356 223T335 253T293 280T227 308Q134 342 92 388T50 508Q50 554 68 591T119 655T198 696T300 710Q347 710 387 705T469 685L458 571Z"  />
<glyph unicode="T" horiz-adv-x="565" d="M547 580L352 583V0H209V583L18 580V698H547V580Z"  />
<glyph unicode="U" horiz-adv-x="726" d="M221 698V287Q221 189 255 145T362 101Q440 101 476 145T512 287V698H647V277Q647 133 575 61T361 -12Q211 -12 145 61T79 277V698H221Z"  />
<glyph unicode="V" horiz-adv-x="677" d="M304 243Q312 219 323 184T342 122H344Q348 135 352 151T362 184T371 216T380 243L530 698H672L423 0H252L5 698H156L304 243Z"  />
<glyph unicode="W" horiz-adv-x="1036" d="M544 467Q541 479 538 495T530 530T523 566T518 598H516Q514 584 511 567T505 531T499 496T493 467L389 0H211L18 698H169L270 280Q272 271 276 250T286 204T296 153T303 109H305Q308 127 312 152T322 203T331 250T337 280L428 698H615L711 280Q713 271 717 250T726 203T735 152T743 109H745Q748 126 752 151T762 202T771 248T778 280L878 698H1018L831 0H654L544 467Z"  />
<glyph unicode="X" horiz-adv-x="675" d="M195 698L270 570Q290 535 309 500T345 436Q352 451 361 468T379 503T398 538T416 569L490 698H640L425 359L657 0H490L419 120Q409 136 397 157T373 201T351 242T336 272Q330 261 319 242T295 202T269 158T246 120L173 0H13L251 359L27 698H195Z"  />
<glyph unicode="Y" horiz-adv-x="665" d="M171 698L250 557Q260 540 272 517T297 469T320 424T338 389H340Q347 402 358 423T382 469T407 516T429 557L506 698H659L405 277V0H264V278L6 698H171Z"  />
<glyph unicode="Z" horiz-adv-x="560" d="M520 581Q442 470 384 389T285 251T219 163T183 117H528V0H33V119Q99 215 156 295T258 435T331 533T369 582H46V698H520V581Z"  />
<glyph unicode="[" horiz-adv-x="360" d="M307 760V667H207V-46H307V-140H84V760H307Z"  />
<glyph unicode="\" horiz-adv-x="505" d="M435 0H314L70 698H190L435 0Z"  />
<glyph unicode="]" horiz-adv-x="360" d="M276 -140H53V-46H152V667H53V760H276V-140Z"  />
<glyph unicode="^" horiz-adv-x="596" d="M225 698H371L536 265H415L342 470Q338 482 332 500T320 538T309 576T300 607H298Q295 595 290 577T278 539T265 501T254 470L182 265H60L225 698Z"  />
<glyph unicode="_" horiz-adv-x="500" d="M500 -78V-128H0V-78H500Z"  />
<glyph unicode="`" horiz-adv-x="500" d="M109 756H248L332 579H252L109 756Z"  />
<glyph unicode="a" horiz-adv-x="557" d="M89 487Q128 507 178 517T274 527Q334 527 376 512T445 470T484 404T497 317Q497 302 497 282T496 241T496 199T495 164Q495 118 497 72T502 0H385Q384 6 384 18T383 41Q383 50 383 62T385 86H383Q357 42 314 16T206 -10Q168 -10 137 1T83 32T47 82T34 150Q34 231 102 274T299 318Q315 318 334 318T372 315Q372 375 343 402T251 429Q210 429 169 416T94 383L89 487ZM374 237Q360 239 351 239T330 239Q250 239 208 221T166 157Q166 123 187 105T246 87Q272 87 295 95T336 122T364 168T374 237Z"  />
<glyph unicode="b" horiz-adv-x="633" d="M198 83Q198 61 197 38T194 0H70Q73 32 74 72T75 154V756H207V578Q207 540 207 502T204 435H206Q235 480 278 503T379 527Q428 527 468 508T535 453T578 369T593 262Q593 202 578 152T533 65T463 9T369 -12Q310 -12 268 13T200 83H198ZM336 423Q307 423 284 411T243 376T217 323T208 257Q208 221 217 191T242 139T282 105T335 92Q393 92 425 138T457 258Q457 332 427 377T336 423Z"  />
<glyph unicode="c" horiz-adv-x="460" d="M409 405Q391 413 372 417T328 421Q290 421 262 408T214 373T184 322T174 258Q174 223 183 194T211 142T260 108T331 96Q354 96 375 100T418 114L425 9Q399 1 374 -3T316 -7Q252 -7 200 11T111 64T54 146T34 255Q34 317 56 366T116 450T204 503T312 521Q344 521 369 518T419 507L409 405Z"  />
<glyph unicode="d" horiz-adv-x="632" d="M557 154Q557 113 558 73T562 0H440Q438 18 438 41T437 90H435Q407 40 365 14T263 -12Q211 -12 170 7T100 61T56 146T40 257Q40 317 56 366T101 451T172 507T264 527Q322 527 362 502T426 435H428Q426 464 426 502T425 578V756H557V154ZM299 424Q271 424 249 412T211 377T187 324T178 257Q178 221 186 191T211 138T249 104T300 91Q329 91 352 103T392 138T418 190T427 256Q427 292 418 323T393 376T352 411T299 424Z"  />
<glyph unicode="e" horiz-adv-x="562" d="M176 220Q178 160 221 125T335 90Q378 90 415 101T485 132L487 22Q454 6 411 -3T319 -12Q256 -12 204 6T116 59T59 144T39 260Q39 318 57 367T110 451T191 507T297 527Q409 527 466 460T523 252Q523 246 523 236T521 220H176ZM400 312Q400 375 371 403T292 432Q248 432 214 402T174 312H400Z"  />
<glyph unicode="f" horiz-adv-x="392" d="M372 646Q347 657 321 657Q283 657 269 634T254 553V515H372V416H254V0H120V416H19V515H120V551Q120 658 163 709T306 760Q326 760 346 758T383 750L372 646Z"  />
<glyph unicode="g" horiz-adv-x="630" d="M297 424Q270 424 249 412T211 378T187 326T178 262Q178 193 210 149T298 105Q326 105 349 117T390 150T416 200T425 263Q425 297 416 326T390 377T350 411T297 424ZM557 515V40Q557 -18 541 -66T492 -148T408 -202T286 -222Q233 -222 183 -215T81 -188L91 -74Q139 -100 185 -111T275 -122Q309 -122 337 -113T385 -83T416 -33T427 40Q427 53 427 66T429 93H427Q404 54 364 27T262 0Q212 0 171 18T101 70T56 151T40 255Q40 315 56 365T102 451T174 507T270 527Q330 527 370 501T433 433H435Q433 457 433 476T433 515H557Z"  />
<glyph unicode="h" horiz-adv-x="630" d="M207 553Q207 519 206 485T204 428H206Q234 473 275 500T372 527Q423 527 459 511T517 465T550 393T560 299V0H428V248Q428 285 426 316T413 371T384 407T332 420Q269 420 238 370T207 233V0H75V756H207V553Z"  />
<glyph unicode="i" horiz-adv-x="288" d="M77 613V741H211V613H77ZM77 515H211V0H77V515Z"  />
<glyph unicode="j" horiz-adv-x="288" d="M77 741H211V613H77V741ZM-7 -117Q-2 -118 3 -118T13 -119Q51 -119 64 -96T77 -18V515H211V-36Q211 -222 43 -222Q29 -222 15 -221T-12 -217L-7 -117Z"  />
<glyph unicode="k" horiz-adv-x="568" d="M301 135Q291 149 279 165T256 199T233 232T213 262H211V0H75V756H211V297H213Q221 308 232 322T255 353T280 384T303 412L391 515H545L337 286L568 0H401L301 135Z"  />
<glyph unicode="l" horiz-adv-x="288" d="M77 756H211V0H77V756Z"  />
<glyph unicode="m" horiz-adv-x="935" d="M198 427Q223 475 270 501T370 527Q423 527 462 501T516 425Q544 476 591 501T696 527Q744 527 776 510T828 461T856 389T865 300V0H730V286Q730 420 644 420Q596 420 566 377T536 255V0H401V311Q401 359 380 389T317 420Q294 420 274 409T239 376T216 326T207 260V0H73V355Q73 392 72 432T68 515H193Q195 498 195 473T196 427H198Z"  />
<glyph unicode="n" horiz-adv-x="627" d="M201 429Q230 476 273 501T372 527Q423 527 458 511T516 466T547 394T557 300V0H425V248Q425 285 423 316T412 371T384 407T332 420Q299 420 271 402T227 353Q205 310 205 233V0H73V355Q73 393 72 433T68 515H195Q197 498 198 474T199 429H201Z"  />
<glyph unicode="o" horiz-adv-x="620" d="M314 527Q373 527 422 508T506 453T561 368T581 256Q581 196 562 147T506 62T420 7T310 -12Q250 -12 200 7T115 62T59 147T39 257Q39 319 59 369T115 454T201 508T314 527ZM310 428Q250 428 216 384T182 256Q182 180 216 135T309 90Q369 90 404 135T440 261Q440 341 406 384T310 428Z"  />
<glyph unicode="p" horiz-adv-x="631" d="M71 359Q71 400 70 441T66 515H194Q196 499 197 476T198 432H200Q233 480 274 503T374 527Q424 527 464 508T533 455T576 372T591 263Q591 202 576 152T531 65T461 8T369 -12Q311 -12 271 12T204 81H202Q203 73 203 57T204 22T205 -15T205 -44V-210H71V359ZM333 422Q304 422 281 410T240 375T214 323T205 257Q205 221 214 191T239 139T279 104T332 91Q361 91 383 103T421 138T445 191T453 259Q453 334 422 378T333 422Z"  />
<glyph unicode="q" horiz-adv-x="631" d="M427 -44Q427 -33 427 -15T428 21T429 56T431 82H428Q399 37 360 13T264 -11Q212 -11 171 8T100 64T56 151T40 264Q40 324 55 372T100 455T170 508T263 527Q323 527 363 503T431 432H433Q433 449 435 472T439 515H564Q562 498 562 477T561 436V-210H427V-44ZM295 424Q268 424 246 412T209 379T186 327T178 262Q178 187 210 141T300 94Q329 94 352 106T392 139T418 190T427 255Q427 292 418 323T391 376T350 411T295 424Z"  />
<glyph unicode="r" horiz-adv-x="394" d="M198 417Q218 468 254 497T346 527Q358 527 368 526T390 521L387 406Q366 413 341 413Q207 413 207 210V0H71V362Q71 403 70 443T66 515H192Q193 506 193 494T194 468T195 441T196 417H198Z"  />
<glyph unicode="s" horiz-adv-x="447" d="M48 121Q86 103 122 95T193 86Q227 86 252 99T277 141Q277 154 273 164T257 183T227 200T176 220Q102 245 71 278T39 369Q39 406 53 435T95 484T159 516T243 527Q324 527 383 503L372 403Q308 432 249 432Q215 432 193 418T171 378Q171 365 175 356T190 339T219 324T265 307Q299 296 326 283T372 251T401 209T411 152Q411 112 396 82T353 30T286 -1T200 -12Q158 -12 119 -6T41 15L48 121Z"  />
<glyph unicode="t" horiz-adv-x="388" d="M10 416V515H111V623L237 666V515H360V416H237V215Q237 156 252 129T317 102Q342 102 366 110L369 7Q350 0 327 -3T277 -6Q188 -6 149 40T109 188V416H10Z"  />
<glyph unicode="u" horiz-adv-x="627" d="M428 85Q403 45 361 17T251 -12Q210 -12 177 2T120 42T83 106T70 188V515H202V248Q202 214 206 187T221 140T251 109T299 98Q328 98 350 110T389 144T413 195T421 258V515H554V153Q554 112 554 72T559 0H434Q432 16 431 37T430 85H428Z"  />
<glyph unicode="v" horiz-adv-x="559" d="M249 229Q253 217 257 201T267 168T276 134T284 104H286Q289 117 294 134T304 168T313 202T322 229L413 515H548L361 0H203L14 515H159L249 229Z"  />
<glyph unicode="w" horiz-adv-x="897" d="M174 0L14 515H157L233 236Q236 224 240 207T248 171T256 135T262 104H264Q266 117 270 135T278 171T287 207T295 235L369 515H534L614 236Q617 224 621 207T630 171T638 135T644 104H646Q648 117 652 134T660 171T668 207T675 235L750 515H883L724 0H559L478 295Q471 320 464 356T452 418H450Q445 392 437 356T421 295L340 0H174Z"  />
<glyph unicode="x" horiz-adv-x="559" d="M287 333Q296 353 311 380T335 423L387 515H533L366 266L546 0H390L329 103Q317 123 302 150T277 197H275Q266 179 253 156T221 100L162 0H11L193 266L25 515H182L236 423Q240 415 246 404T260 380T273 355T285 333H287Z"  />
<glyph unicode="y" horiz-adv-x="560" d="M158 515L238 266Q249 234 261 191T285 108H287Q298 148 310 190T334 266L414 515H549L346 -36Q331 -76 313 -110T269 -169T211 -208T135 -222Q110 -222 84 -218T39 -208L49 -108Q80 -118 115 -118Q148 -118 172 -97T212 -22L12 515H158Z"  />
<glyph unicode="z" horiz-adv-x="504" d="M461 408Q393 329 346 275T266 186T215 131T186 101H470V0H34V112Q106 194 155 249T236 338T285 390T309 415H43V515H461V408Z"  />
<glyph unicode="{" horiz-adv-x="360" d="M4 348Q35 353 54 363T85 389T100 428T104 484V539Q104 597 114 637T149 703T216 742T322 760V683Q268 678 247 645T225 543V502Q225 455 220 421T201 364T163 328T102 311V309Q139 304 163 290T200 253T219 197T225 118V76Q225 6 246 -26T322 -63V-140Q258 -136 216 -123T149 -84T114 -18T104 80V136Q104 168 100 191T85 231T55 257T4 272V348Z"  />
<glyph unicode="|" horiz-adv-x="280" d="M84 786H196V-214H84V786Z"  />
<glyph unicode="}" horiz-adv-x="360" d="M356 272Q325 267 306 257T275 231T260 192T256 136V81Q256 23 246 -17T211 -83T144 -122T38 -140V-63Q92 -58 113 -25T135 77V118Q135 164 140 198T159 256T197 292T258 309V311Q221 316 197 329T160 366T141 423T135 502V544Q135 614 114 646T38 683V760Q102 756 144 743T211 704T246 638T256 540V484Q256 452 260 429T275 389T305 363T356 348V272Z"  />
<glyph unicode="~" horiz-adv-x="596" d="M551 215Q529 188 493 172T418 156Q376 156 345 169T285 197T228 225T163 238Q121 238 90 216T41 165V290Q63 317 99 333T174 349Q216 349 247 336T307 308T364 280T429 267Q471 267 502 289T551 340V215Z"  />
<glyph unicode="&#xA0;" horiz-adv-x="250" />
<glyph unicode="&#xA1;" horiz-adv-x="342" d="M249 -183H91L115 313H227L249 -183ZM241 381H102V515H241V381Z"  />
<glyph unicode="&#xA2;" horiz-adv-x="596" d="M480 399Q466 404 452 408T420 414L327 115Q356 102 397 102Q423 102 446 106T493 120L498 9Q449 -7 381 -7Q357 -7 335 -4T292 4L251 -129H194L241 22Q175 53 139 112T102 255Q102 317 124 366T185 450T273 503T381 521H396L434 644H492L452 516Q472 513 492 507L480 399ZM242 258Q242 224 252 197T280 149L362 412Q305 401 274 359T242 258Z"  />
<glyph unicode="&#xA3;" horiz-adv-x="596" d="M72 106H160V330H85V406H160V439Q160 571 225 638T419 705Q479 705 535 688L527 575Q505 583 480 588T433 593Q370 593 336 552T301 436V406H450V330H301V106H526V0H72V106Z"  />
<glyph unicode="&#xA4;" horiz-adv-x="596" d="M297 445Q259 445 234 418T208 349Q208 307 233 280T298 253Q339 253 364 280T390 350Q390 392 364 418T297 445ZM302 542Q351 542 395 515L485 605L555 536L465 446Q478 424 485 400T492 349Q492 322 485 297T464 250L555 160L485 91L394 181Q373 169 349 162T298 155Q244 155 200 182L109 91L40 160L131 251Q105 295 105 350Q105 402 131 445L40 536L109 605L200 514Q223 527 248 534T302 542Z"  />
<glyph unicode="&#xA5;" horiz-adv-x="596" d="M227 557Q235 540 246 517T267 469T287 424T303 389H305Q311 402 320 423T341 469T363 516T382 557L449 698H591L418 370H520V296H378L371 281V235H520V161H371V0H228V161H78V235H228V277L217 296H78V370H178L5 698H158L227 557Z"  />
<glyph unicode="&#xA6;" horiz-adv-x="280" d="M84 786H196V398H84V786ZM84 174H196V-214H84V174Z"  />
<glyph unicode="&#xA7;" horiz-adv-x="596" d="M108 4Q143 -13 189 -24T274 -35Q325 -35 352 -18T380 34Q380 57 368 70T325 97L226 138Q155 167 124 203T93 294Q93 373 164 420Q98 466 98 538Q98 577 113 609T157 665T225 701T311 714Q345 714 388 709T474 693L464 583Q434 597 394 604T317 612Q273 612 247 594T220 546Q220 496 311 464L376 441Q449 415 481 378T514 284Q514 244 494 210T440 158Q472 137 488 107T505 41Q505 1 489 -32T443 -90T373 -127T284 -141Q242 -141 195 -134T100 -111L108 4ZM374 195Q410 222 410 262Q410 278 406 290T391 312T360 332T310 354L228 387Q212 374 202 355T192 317Q192 291 211 271T275 234L374 195Z"  />
<glyph unicode="&#xA8;" horiz-adv-x="500" d="M411 618H296V735H411V618ZM89 735H204V618H89V735Z"  />
<glyph unicode="&#xA9;" horiz-adv-x="900" d="M572 473Q549 487 525 493T478 499Q415 499 376 460T336 357Q336 324 347 297T377 251T423 222T482 211Q502 211 524 215T576 234L581 158Q558 148 532 144T482 140Q432 140 391 154T319 195T272 263T255 357Q255 404 272 443T319 510T389 553T478 569Q503 569 528 565T578 550L572 473ZM450 661Q384 661 328 637T230 570T164 471T140 350Q140 285 164 229T229 129T327 62T450 37Q516 37 572 61T670 129T736 229T760 352Q760 415 736 471T671 569T573 636T450 661ZM450 701Q523 701 587 674T699 600T774 488T802 350Q802 276 775 212T699 100T587 25T450 -3Q377 -3 313 24T201 100T126 213T98 352Q98 425 125 488T201 599T313 674T450 701Z"  />
<glyph unicode="&#xAA;" horiz-adv-x="438" d="M284 482Q276 483 270 483T255 483Q138 483 138 423Q138 399 153 386T195 372Q236 372 260 399T284 482ZM292 368Q272 336 240 318T160 299Q100 299 63 330T25 418Q25 480 77 512T227 545Q239 545 254 545T283 543Q283 623 194 623Q159 623 129 614T73 590L69 674Q99 688 139 695T214 702Q309 702 350 660T391 540Q391 521 391 494T390 443V435Q390 396 392 362T396 304H294Q292 309 292 317T292 335Q292 341 292 349T293 368H292Z"  />
<glyph unicode="&#xAB;" horiz-adv-x="548" d="M501 52H379L263 253L379 455H501L395 253L501 52ZM156 455H279L172 253L279 52H156L40 253L156 455Z"  />
<glyph unicode="&#xAC;" horiz-adv-x="596" d="M436 318H30V420H546V98H436V318Z"  />
<glyph unicode="&#xAD;" horiz-adv-x="335" d="M37 326H303V214H37V326Z"  />
<glyph unicode="&#xAE;" horiz-adv-x="500" d="M184 623H238Q275 623 297 611T319 567Q319 551 310 538T283 521V519Q291 516 296 510T304 497L340 419H292L265 483Q260 496 252 500T226 505H224V419H184V623ZM224 540H231Q254 540 266 545T278 564Q278 579 266 583T231 588H224V540ZM254 692Q289 692 320 678T375 640T412 585T426 517Q426 480 413 448T375 391T319 354T251 340Q214 340 182 354T125 392T88 448T74 518Q74 554 88 586T126 641T183 678T254 692ZM248 663Q218 663 192 652T146 620T115 574T103 517Q103 486 114 459T146 412T193 381T250 369Q280 369 307 380T354 412T385 460T397 518Q397 548 385 574T353 620T306 651T248 663Z"  />
<glyph unicode="&#xAF;" horiz-adv-x="500" d="M104 692H396V625H104V692Z"  />
<glyph unicode="&#xB0;" horiz-adv-x="400" d="M202 710Q235 710 264 697T314 662T349 610T362 547Q362 513 349 484T314 432T263 397T199 384Q165 384 136 397T84 432T50 484T37 548Q37 582 50 611T85 663T138 697T202 710ZM198 625Q166 625 146 603T125 547Q125 513 146 491T199 469Q232 469 253 491T274 548Q274 582 253 603T198 625Z"  />
<glyph unicode="&#xB1;" horiz-adv-x="596" d="M36 108H560V0H36V108ZM241 283H36V391H241V523H357V391H560V283H357V152H241V283Z"  />
<glyph unicode="&#xB2;" horiz-adv-x="380" d="M46 829Q72 841 106 847T176 854Q205 854 231 847T278 825T311 787T324 731Q324 711 320 692T304 653T274 610T227 563Q200 539 181 525T148 501V499Q177 501 209 501T271 501H333V428H38V502Q87 541 122 571T180 627T212 675T223 720Q223 752 202 765T152 779Q129 779 105 773T55 751L46 829Z"  />
<glyph unicode="&#xB3;" horiz-adv-x="380" d="M128 609Q124 609 118 609T105 607V677Q110 676 116 676T128 676Q178 676 204 688T230 729Q230 755 210 769T154 783Q128 783 102 778T56 762L50 836Q77 846 109 850T170 854Q243 854 284 825T326 745Q326 702 301 679T230 648V646Q278 640 305 613T332 544Q332 515 318 492T280 453T222 429T149 421Q122 421 95 424T38 435L43 514Q70 504 95 499T145 493Q184 493 209 506T235 552Q235 584 207 596T128 609Z"  />
<glyph unicode="&#xB4;" horiz-adv-x="500" d="M248 579H168L252 756H391L248 579Z"  />
<glyph unicode="&#xB5;" horiz-adv-x="657" d="M428 97Q402 47 359 18T259 -12Q244 -12 229 -9T204 -1L201 -3Q202 -13 202 -30T204 -67T205 -108T206 -149V-210H73V515H205V248Q205 214 208 187T220 140T247 109T291 98Q324 98 348 115T389 161T413 230T421 315V515H554V172Q554 141 560 128T588 115Q590 115 595 115T604 117L609 -1Q600 -3 586 -4T560 -6Q499 -6 469 17T430 97H428Z"  />
<glyph unicode="&#xB6;" horiz-adv-x="625" d="M533 616V-200H433V616H325V-200H225V231Q131 239 78 298T25 456Q25 512 43 556T96 632T178 681T287 698H588V616H533Z"  />
<glyph unicode="&#xB7;" horiz-adv-x="260" d="M59 340H202V200H59V340Z"  />
<glyph unicode="&#xB8;" horiz-adv-x="500" d="M229 -62Q235 -61 239 -61T249 -61Q268 -61 286 -65T317 -78T339 -101T347 -137Q347 -162 337 -179T309 -208T268 -225T220 -230Q185 -230 153 -223L159 -173Q173 -175 186 -176T211 -178Q233 -178 249 -171T266 -143Q266 -123 252 -117T216 -110Q205 -110 193 -111T166 -115L178 9H241L229 -62Z"  />
<glyph unicode="&#xB9;" horiz-adv-x="380" d="M267 428H169V636Q169 649 169 666T169 699T170 730T172 752H170Q162 744 147 732T115 706L94 690L49 755L179 847H267V428Z"  />
<glyph unicode="&#xBA;" horiz-adv-x="483" d="M244 701Q291 701 330 687T397 646T440 581T456 497Q456 451 441 414T397 349T329 308T241 293Q193 293 154 307T86 349T43 413T27 497Q27 544 42 582T86 646T154 687T244 701ZM241 618Q200 618 175 586T150 498Q150 444 175 411T241 378Q283 378 308 410T334 498Q334 554 309 586T241 618Z"  />
<glyph unicode="&#xBB;" horiz-adv-x="548" d="M47 455H169L285 253L169 52H47L153 253L47 455ZM392 52H269L375 253L269 455H392L508 253L392 52Z"  />
<glyph unicode="&#xBC;" horiz-adv-x="900" d="M267 281H169V489Q169 502 169 519T169 552T170 583T172 605H170Q162 597 147 585T115 559L94 543L49 608L179 700H267V281ZM704 742L289 -22H205L620 742H704ZM821 154H879V83H821V0H730V83H538V159L710 419H821V154ZM732 201Q732 227 732 267T735 345H734Q727 331 718 315T699 284T682 255T669 234L618 154H732V201Z"  />
<glyph unicode="&#xBD;" horiz-adv-x="900" d="M267 281H169V489Q169 502 169 519T169 552T170 583T172 605H170Q162 597 147 585T115 559L94 543L49 608L179 700H267V281ZM704 742L289 -22H205L620 742H704ZM566 401Q592 413 626 419T696 426Q725 426 751 419T798 397T831 359T844 303Q844 283 840 264T824 225T794 182T747 135Q720 111 701 97T668 73V71Q697 73 729 73T791 73H853V0H558V74Q607 113 642 143T700 199T732 247T743 292Q743 324 722 337T672 351Q649 351 625 345T575 323L566 401Z"  />
<glyph unicode="&#xBE;" horiz-adv-x="900" d="M128 462Q124 462 118 462T105 460V530Q110 529 116 529T128 529Q178 529 204 541T230 582Q230 608 210 622T154 636Q128 636 102 631T56 615L50 689Q77 699 109 703T170 707Q243 707 284 678T326 598Q326 555 301 532T230 501V499Q278 493 305 466T332 397Q332 368 318 345T280 306T222 282T149 274Q122 274 95 277T38 288L43 367Q70 357 95 352T145 346Q184 346 209 359T235 405Q235 437 207 449T128 462ZM704 742L289 -22H205L620 742H704ZM821 154H879V83H821V0H730V83H538V159L710 419H821V154ZM732 201Q732 227 732 267T735 345H734Q727 331 718 315T699 284T682 255T669 234L618 154H732V201Z"  />
<glyph unicode="&#xBF;" horiz-adv-x="504" d="M454 -163Q355 -197 260 -197Q151 -197 88 -152T25 -19Q25 3 30 23T46 65T76 109T122 161Q149 189 164 210T186 248T194 277T196 302V315H318V302Q318 274 315 253T304 212T281 171T242 123Q208 85 191 57T173 -1Q173 -47 205 -67T286 -87Q324 -87 365 -77T440 -48L454 -163ZM328 381H188V515H328V381Z"  />
<glyph unicode="&#xC0;" horiz-adv-x="727" d="M717 0H564L503 161H212L151 0H6L280 698H439L717 0ZM407 430Q401 446 394 467T381 511T368 554T359 588H357Q353 574 347 554T334 512T319 468T306 430L248 267H465L407 430ZM193 914H332L416 737H336L193 914Z"  />
<glyph unicode="&#xC1;" horiz-adv-x="727" d="M717 0H564L503 161H212L151 0H6L280 698H439L717 0ZM407 430Q401 446 394 467T381 511T368 554T359 588H357Q353 574 347 554T334 512T319 468T306 430L248 267H465L407 430ZM381 737H301L385 914H524L381 737Z"  />
<glyph unicode="&#xC2;" horiz-adv-x="727" d="M717 0H564L503 161H212L151 0H6L280 698H439L717 0ZM407 430Q401 446 394 467T381 511T368 554T359 588H357Q353 574 347 554T334 512T319 468T306 430L248 267H465L407 430ZM417 914L523 737H431L361 849L290 737H201L314 914H417Z"  />
<glyph unicode="&#xC3;" horiz-adv-x="727" d="M717 0H564L503 161H212L151 0H6L280 698H439L717 0ZM407 430Q401 446 394 467T381 511T368 554T359 588H357Q353 574 347 554T334 512T319 468T306 430L248 267H465L407 430ZM533 888Q527 828 502 796T432 763Q407 763 354 783Q322 795 307 799T281 804Q261 804 251 794T235 757H183Q190 814 217 846T289 879Q309 879 327 874T377 856Q401 845 414 842T439 838Q475 838 481 888H533Z"  />
<glyph unicode="&#xC4;" horiz-adv-x="727" d="M717 0H564L503 161H212L151 0H6L280 698H439L717 0ZM407 430Q401 446 394 467T381 511T368 554T359 588H357Q353 574 347 554T334 512T319 468T306 430L248 267H465L407 430ZM522 773H407V890H522V773ZM200 890H315V773H200V890Z"  />
<glyph unicode="&#xC5;" horiz-adv-x="727" d="M717 0H564L503 161H212L151 0H6L280 698H439L717 0ZM407 430Q401 446 394 467T381 511T368 554T359 588H357Q353 574 347 554T334 512T319 468T306 430L248 267H465L407 430ZM362 940Q383 940 401 932T434 909T457 876T465 836Q465 814 457 795T434 762T401 740T360 732Q339 732 321 740T288 762T265 795T257 836Q257 857 265 876T287 909T321 932T362 940ZM359 893Q336 893 320 877T304 837Q304 813 320 796T359 778Q383 778 400 795T417 835Q417 859 400 876T359 893Z"  />
<glyph unicode="&#xC6;" horiz-adv-x="951" d="M882 582H612L627 414H862V301H638L654 117H890V0H521L508 160H237L152 0H2L385 698H882V582ZM483 444Q481 460 480 482T476 528T473 573T471 609H469Q463 594 453 573T431 528T409 483T388 444L297 272H499L483 444Z"  />
<glyph unicode="&#xC7;" horiz-adv-x="619" d="M589 16Q556 5 514 -1T426 -7Q420 -7 412 -7T398 -6L389 -62Q395 -61 399 -61T409 -61Q428 -61 446 -65T477 -78T499 -101T507 -137Q507 -162 497 -179T469 -208T428 -225T380 -230Q345 -230 313 -223L319 -173Q333 -175 346 -176T371 -178Q393 -178 409 -171T426 -143Q426 -123 412 -117T376 -110Q365 -110 353 -111T326 -115L337 0Q270 11 216 39T125 112T67 216T47 349Q47 430 75 496T153 608T273 680T425 705Q466 705 504 700T586 680L576 559Q539 576 504 583T428 591Q376 591 334 576T261 530T214 456T197 353Q197 295 215 250T264 173T338 126T430 110Q468 110 505 115T584 137L589 16Z"  />
<glyph unicode="&#xC8;" horiz-adv-x="561" d="M84 698H497V582H223V414H475V301H223V117H500V0H84V698ZM127 914H266L350 737H270L127 914Z"  />
<glyph unicode="&#xC9;" horiz-adv-x="561" d="M84 698H497V582H223V414H475V301H223V117H500V0H84V698ZM315 737H235L319 914H458L315 737Z"  />
<glyph unicode="&#xCA;" horiz-adv-x="561" d="M84 698H497V582H223V414H475V301H223V117H500V0H84V698ZM346 914L452 737H360L290 849L219 737H130L243 914H346Z"  />
<glyph unicode="&#xCB;" horiz-adv-x="561" d="M84 698H497V582H223V414H475V301H223V117H500V0H84V698ZM459 773H344V890H459V773ZM137 890H252V773H137V890Z"  />
<glyph unicode="&#xCC;" horiz-adv-x="309" d="M84 698H225V0H84V698ZM-9 914H130L214 737H134L-9 914Z"  />
<glyph unicode="&#xCD;" horiz-adv-x="309" d="M84 698H225V0H84V698ZM177 737H97L181 914H320L177 737Z"  />
<glyph unicode="&#xCE;" horiz-adv-x="309" d="M84 698H225V0H84V698ZM212 914L318 737H226L156 849L85 737H-4L109 914H212Z"  />
<glyph unicode="&#xCF;" horiz-adv-x="309" d="M84 698H225V0H84V698ZM320 773H205V890H320V773ZM-2 890H113V773H-2V890Z"  />
<glyph unicode="&#xD0;" horiz-adv-x="735" d="M275 698Q363 698 438 680T569 619T656 510T687 346Q687 254 655 189T568 81T437 20T275 0H84V326H31V389H84V698H275ZM225 389H353V326H225V107H262Q320 107 371 119T459 160T519 234T541 347Q541 417 519 463T460 538T371 577T262 588H225V389Z"  />
<glyph unicode="&#xD1;" horiz-adv-x="750" d="M539 698H666V0H488L309 342Q295 368 281 398T252 458T227 514T208 557H206Q207 541 208 512T209 448T210 381T211 326V0H84V698H272L448 353Q458 334 471 307T497 251T523 195T543 149H545Q544 168 543 200T541 270T540 343T539 405V698ZM557 888Q551 828 526 796T456 763Q431 763 378 783Q346 795 331 799T305 804Q285 804 275 794T259 757H207Q214 814 241 846T313 879Q333 879 351 874T401 856Q425 845 438 842T463 838Q499 838 505 888H557Z"  />
<glyph unicode="&#xD2;" horiz-adv-x="784" d="M398 710Q475 710 537 685T642 614T709 501T733 352Q733 268 709 201T640 87T532 14T390 -12Q313 -12 250 13T143 85T75 198T51 348Q51 522 142 616T398 710ZM390 601Q348 601 314 583T254 532T216 452T202 348Q202 291 215 245T254 166T315 115T394 97Q436 97 470 115T530 167T569 246T583 349Q583 407 570 454T531 533T470 583T390 601ZM229 914H368L452 737H372L229 914Z"  />
<glyph unicode="&#xD3;" horiz-adv-x="784" d="M398 710Q475 710 537 685T642 614T709 501T733 352Q733 268 709 201T640 87T532 14T390 -12Q313 -12 250 13T143 85T75 198T51 348Q51 522 142 616T398 710ZM390 601Q348 601 314 583T254 532T216 452T202 348Q202 291 215 245T254 166T315 115T394 97Q436 97 470 115T530 167T569 246T583 349Q583 407 570 454T531 533T470 583T390 601ZM406 737H326L410 914H549L406 737Z"  />
<glyph unicode="&#xD4;" horiz-adv-x="784" d="M398 710Q475 710 537 685T642 614T709 501T733 352Q733 268 709 201T640 87T532 14T390 -12Q313 -12 250 13T143 85T75 198T51 348Q51 522 142 616T398 710ZM390 601Q348 601 314 583T254 532T216 452T202 348Q202 291 215 245T254 166T315 115T394 97Q436 97 470 115T530 167T569 246T583 349Q583 407 570 454T531 533T470 583T390 601ZM444 914L550 737H458L388 849L317 737H228L341 914H444Z"  />
<glyph unicode="&#xD5;" horiz-adv-x="784" d="M398 710Q475 710 537 685T642 614T709 501T733 352Q733 268 709 201T640 87T532 14T390 -12Q313 -12 250 13T143 85T75 198T51 348Q51 522 142 616T398 710ZM390 601Q348 601 314 583T254 532T216 452T202 348Q202 291 215 245T254 166T315 115T394 97Q436 97 470 115T530 167T569 246T583 349Q583 407 570 454T531 533T470 583T390 601ZM560 888Q554 828 529 796T459 763Q434 763 381 783Q349 795 334 799T308 804Q288 804 278 794T262 757H210Q217 814 244 846T316 879Q336 879 354 874T404 856Q428 845 441 842T466 838Q502 838 508 888H560Z"  />
<glyph unicode="&#xD6;" horiz-adv-x="784" d="M398 710Q475 710 537 685T642 614T709 501T733 352Q733 268 709 201T640 87T532 14T390 -12Q313 -12 250 13T143 85T75 198T51 348Q51 522 142 616T398 710ZM390 601Q348 601 314 583T254 532T216 452T202 348Q202 291 215 245T254 166T315 115T394 97Q436 97 470 115T530 167T569 246T583 349Q583 407 570 454T531 533T470 583T390 601ZM551 773H436V890H551V773ZM229 890H344V773H229V890Z"  />
<glyph unicode="&#xD7;" horiz-adv-x="596" d="M216 259L38 437L119 518L297 340L475 518L557 437L378 259L557 81L475 0L297 178L119 0L38 81L216 259Z"  />
<glyph unicode="&#xD8;" horiz-adv-x="784" d="M398 712Q511 712 591 658L647 730L694 693L637 620Q683 572 708 505T733 352Q733 268 709 201T640 87T532 14T390 -12Q331 -12 281 2T190 44L132 -31L86 6L145 83Q100 130 76 196T51 348Q51 435 74 502T142 616T251 687T398 712ZM583 349Q583 441 549 506L270 147Q320 97 394 97Q436 97 470 115T530 167T569 246T583 349ZM390 603Q348 603 314 585T254 533T216 452T202 348Q202 259 234 197L512 555Q462 603 390 603Z"  />
<glyph unicode="&#xD9;" horiz-adv-x="726" d="M221 698V287Q221 189 255 145T362 101Q440 101 476 145T512 287V698H647V277Q647 133 575 61T361 -12Q211 -12 145 61T79 277V698H221ZM203 914H342L426 737H346L203 914Z"  />
<glyph unicode="&#xDA;" horiz-adv-x="726" d="M221 698V287Q221 189 255 145T362 101Q440 101 476 145T512 287V698H647V277Q647 133 575 61T361 -12Q211 -12 145 61T79 277V698H221ZM371 737H291L375 914H514L371 737Z"  />
<glyph unicode="&#xDB;" horiz-adv-x="726" d="M221 698V287Q221 189 255 145T362 101Q440 101 476 145T512 287V698H647V277Q647 133 575 61T361 -12Q211 -12 145 61T79 277V698H221ZM419 914L525 737H433L363 849L292 737H203L316 914H419Z"  />
<glyph unicode="&#xDC;" horiz-adv-x="726" d="M221 698V287Q221 189 255 145T362 101Q440 101 476 145T512 287V698H647V277Q647 133 575 61T361 -12Q211 -12 145 61T79 277V698H221ZM521 773H406V890H521V773ZM199 890H314V773H199V890Z"  />
<glyph unicode="&#xDD;" horiz-adv-x="665" d="M171 698L250 557Q260 540 272 517T297 469T320 424T338 389H340Q347 402 358 423T382 469T407 516T429 557L506 698H659L405 277V0H264V278L6 698H171ZM372 737H292L376 914H515L372 737Z"  />
<glyph unicode="&#xDE;" horiz-adv-x="574" d="M84 698H225V602H260Q318 602 371 593T465 560T530 495T554 388Q554 325 531 284T467 217T374 181T260 170H225V0H84V698ZM225 277H250Q286 277 315 281T366 298T398 332T410 387Q410 449 370 472T250 496H225V277Z"  />
<glyph unicode="&#xDF;" horiz-adv-x="618" d="M72 494Q72 627 141 693T328 760Q377 760 418 746T488 705T534 643T550 564Q550 501 515 457T416 398V396Q495 382 538 336T582 214Q582 164 565 124T515 54T439 9T341 -7Q318 -7 298 -5T262 3L265 110Q276 106 292 104T322 101Q385 101 416 134T447 225Q447 283 409 311T306 340H288V440H304Q355 440 385 469T416 554Q416 602 390 631T323 661Q288 661 266 647T230 608T212 549T206 475V0H72V494Z"  />
<glyph unicode="&#xE0;" horiz-adv-x="557" d="M89 487Q128 507 178 517T274 527Q334 527 376 512T445 470T484 404T497 317Q497 302 497 282T496 241T496 199T495 164Q495 118 497 72T502 0H385Q384 6 384 18T383 41Q383 50 383 62T385 86H383Q357 42 314 16T206 -10Q168 -10 137 1T83 32T47 82T34 150Q34 231 102 274T299 318Q315 318 334 318T372 315Q372 375 343 402T251 429Q210 429 169 416T94 383L89 487ZM374 237Q360 239 351 239T330 239Q250 239 208 221T166 157Q166 123 187 105T246 87Q272 87 295 95T336 122T364 168T374 237ZM139 756H278L362 579H282L139 756Z"  />
<glyph unicode="&#xE1;" horiz-adv-x="557" d="M89 487Q128 507 178 517T274 527Q334 527 376 512T445 470T484 404T497 317Q497 302 497 282T496 241T496 199T495 164Q495 118 497 72T502 0H385Q384 6 384 18T383 41Q383 50 383 62T385 86H383Q357 42 314 16T206 -10Q168 -10 137 1T83 32T47 82T34 150Q34 231 102 274T299 318Q315 318 334 318T372 315Q372 375 343 402T251 429Q210 429 169 416T94 383L89 487ZM374 237Q360 239 351 239T330 239Q250 239 208 221T166 157Q166 123 187 105T246 87Q272 87 295 95T336 122T364 168T374 237ZM302 579H222L306 756H445L302 579Z"  />
<glyph unicode="&#xE2;" horiz-adv-x="557" d="M89 487Q128 507 178 517T274 527Q334 527 376 512T445 470T484 404T497 317Q497 302 497 282T496 241T496 199T495 164Q495 118 497 72T502 0H385Q384 6 384 18T383 41Q383 50 383 62T385 86H383Q357 42 314 16T206 -10Q168 -10 137 1T83 32T47 82T34 150Q34 231 102 274T299 318Q315 318 334 318T372 315Q372 375 343 402T251 429Q210 429 169 416T94 383L89 487ZM374 237Q360 239 351 239T330 239Q250 239 208 221T166 157Q166 123 187 105T246 87Q272 87 295 95T336 122T364 168T374 237ZM348 756L454 579H362L292 691L221 579H132L245 756H348Z"  />
<glyph unicode="&#xE3;" horiz-adv-x="557" d="M89 487Q128 507 178 517T274 527Q334 527 376 512T445 470T484 404T497 317Q497 302 497 282T496 241T496 199T495 164Q495 118 497 72T502 0H385Q384 6 384 18T383 41Q383 50 383 62T385 86H383Q357 42 314 16T206 -10Q168 -10 137 1T83 32T47 82T34 150Q34 231 102 274T299 318Q315 318 334 318T372 315Q372 375 343 402T251 429Q210 429 169 416T94 383L89 487ZM374 237Q360 239 351 239T330 239Q250 239 208 221T166 157Q166 123 187 105T246 87Q272 87 295 95T336 122T364 168T374 237ZM463 720Q457 660 432 628T362 595Q337 595 284 615Q252 627 237 631T211 636Q191 636 181 626T165 589H113Q120 646 147 678T219 711Q239 711 257 706T307 688Q331 677 344 674T369 670Q405 670 411 720H463Z"  />
<glyph unicode="&#xE4;" horiz-adv-x="557" d="M89 487Q128 507 178 517T274 527Q334 527 376 512T445 470T484 404T497 317Q497 302 497 282T496 241T496 199T495 164Q495 118 497 72T502 0H385Q384 6 384 18T383 41Q383 50 383 62T385 86H383Q357 42 314 16T206 -10Q168 -10 137 1T83 32T47 82T34 150Q34 231 102 274T299 318Q315 318 334 318T372 315Q372 375 343 402T251 429Q210 429 169 416T94 383L89 487ZM374 237Q360 239 351 239T330 239Q250 239 208 221T166 157Q166 123 187 105T246 87Q272 87 295 95T336 122T364 168T374 237ZM448 618H333V735H448V618ZM126 735H241V618H126V735Z"  />
<glyph unicode="&#xE5;" horiz-adv-x="557" d="M89 487Q128 507 178 517T274 527Q334 527 376 512T445 470T484 404T497 317Q497 302 497 282T496 241T496 199T495 164Q495 118 497 72T502 0H385Q384 6 384 18T383 41Q383 50 383 62T385 86H383Q357 42 314 16T206 -10Q168 -10 137 1T83 32T47 82T34 150Q34 231 102 274T299 318Q315 318 334 318T372 315Q372 375 343 402T251 429Q210 429 169 416T94 383L89 487ZM374 237Q360 239 351 239T330 239Q250 239 208 221T166 157Q166 123 187 105T246 87Q272 87 295 95T336 122T364 168T374 237ZM283 767Q304 767 322 759T355 736T378 703T386 663Q386 641 378 622T355 589T322 567T281 559Q260 559 242 567T209 589T186 622T178 663Q178 684 186 703T208 736T242 759T283 767ZM280 720Q257 720 241 704T225 664Q225 640 241 623T280 605Q304 605 321 622T338 662Q338 686 321 703T280 720Z"  />
<glyph unicode="&#xE6;" horiz-adv-x="880" d="M495 220Q496 190 508 166T541 125T592 99T656 89Q699 89 736 100T805 131L807 21Q774 5 732 -3T640 -12Q604 -12 572 -4T512 18T464 54T431 101H429Q403 49 353 19T225 -12Q185 -12 151 -3T90 27T49 77T34 150Q34 234 104 276T305 318Q334 318 372 315Q372 375 344 402T256 429Q214 429 173 418T95 383L89 488Q131 507 176 517T270 527Q344 527 386 505T448 443Q475 482 518 504T618 527Q730 527 785 460T841 252Q841 246 841 236T839 220H495ZM720 312Q720 375 692 403T613 432Q591 432 571 425T534 402T507 365T493 312H720ZM374 237Q365 239 355 239T330 239Q250 239 208 221T166 157Q166 123 187 104T246 85Q272 85 295 94T336 121T364 168T374 237Z"  />
<glyph unicode="&#xE7;" horiz-adv-x="460" d="M409 405Q391 413 372 417T328 421Q290 421 262 408T214 373T184 322T174 258Q174 223 183 194T211 142T260 108T331 96Q354 96 375 100T418 114L425 9Q399 1 374 -3T316 -7H300L291 -62Q297 -61 301 -61T311 -61Q330 -61 348 -65T379 -78T401 -101T409 -137Q409 -162 399 -179T371 -208T330 -225T282 -230Q247 -230 215 -223L221 -173Q235 -175 248 -176T273 -178Q295 -178 311 -171T328 -143Q328 -123 314 -117T278 -110Q267 -110 255 -111T228 -115L240 0Q144 20 89 86T34 255Q34 317 56 366T116 450T204 503T312 521Q344 521 369 518T419 507L409 405Z"  />
<glyph unicode="&#xE8;" horiz-adv-x="562" d="M176 220Q178 160 221 125T335 90Q378 90 415 101T485 132L487 22Q454 6 411 -3T319 -12Q256 -12 204 6T116 59T59 144T39 260Q39 318 57 367T110 451T191 507T297 527Q409 527 466 460T523 252Q523 246 523 236T521 220H176ZM400 312Q400 375 371 403T292 432Q248 432 214 402T174 312H400ZM129 756H268L352 579H272L129 756Z"  />
<glyph unicode="&#xE9;" horiz-adv-x="562" d="M176 220Q178 160 221 125T335 90Q378 90 415 101T485 132L487 22Q454 6 411 -3T319 -12Q256 -12 204 6T116 59T59 144T39 260Q39 318 57 367T110 451T191 507T297 527Q409 527 466 460T523 252Q523 246 523 236T521 220H176ZM400 312Q400 375 371 403T292 432Q248 432 214 402T174 312H400ZM316 579H236L320 756H459L316 579Z"  />
<glyph unicode="&#xEA;" horiz-adv-x="562" d="M176 220Q178 160 221 125T335 90Q378 90 415 101T485 132L487 22Q454 6 411 -3T319 -12Q256 -12 204 6T116 59T59 144T39 260Q39 318 57 367T110 451T191 507T297 527Q409 527 466 460T523 252Q523 246 523 236T521 220H176ZM400 312Q400 375 371 403T292 432Q248 432 214 402T174 312H400ZM344 756L450 579H358L288 691L217 579H128L241 756H344Z"  />
<glyph unicode="&#xEB;" horiz-adv-x="562" d="M176 220Q178 160 221 125T335 90Q378 90 415 101T485 132L487 22Q454 6 411 -3T319 -12Q256 -12 204 6T116 59T59 144T39 260Q39 318 57 367T110 451T191 507T297 527Q409 527 466 460T523 252Q523 246 523 236T521 220H176ZM400 312Q400 375 371 403T292 432Q248 432 214 402T174 312H400ZM451 618H336V735H451V618ZM129 735H244V618H129V735Z"  />
<glyph unicode="&#xEC;" horiz-adv-x="288" d="M77 515H211V0H77V515ZM-29 756H110L194 579H114L-29 756Z"  />
<glyph unicode="&#xED;" horiz-adv-x="288" d="M77 515H211V0H77V515ZM173 579H93L177 756H316L173 579Z"  />
<glyph unicode="&#xEE;" horiz-adv-x="288" d="M77 515H211V0H77V515ZM204 756L310 579H218L148 691L77 579H-12L101 756H204Z"  />
<glyph unicode="&#xEF;" horiz-adv-x="288" d="M77 515H211V0H77V515ZM310 618H195V735H310V618ZM-12 735H103V618H-12V735Z"  />
<glyph unicode="&#xF0;" horiz-adv-x="623" d="M197 777Q245 757 272 743T320 715L415 771L458 725L377 680Q484 604 534 504T584 287Q584 219 564 164T508 70T421 10T307 -12Q248 -12 199 6T115 57T59 138T39 244Q39 300 57 347T106 427T181 480T274 499Q311 499 348 488T412 454H414Q391 505 355 544T271 615L163 552L119 598L212 651Q198 660 187 666T165 677T141 687T111 700L197 777ZM313 403Q283 403 259 392T217 359T190 310T181 247Q181 211 191 183T219 134T261 104T312 93Q367 93 404 134T441 249Q441 285 431 313T404 362T363 392T313 403Z"  />
<glyph unicode="&#xF1;" horiz-adv-x="627" d="M201 429Q230 476 273 501T372 527Q423 527 458 511T516 466T547 394T557 300V0H425V248Q425 285 423 316T412 371T384 407T332 420Q299 420 271 402T227 353Q205 310 205 233V0H73V355Q73 393 72 433T68 515H195Q197 498 198 474T199 429H201ZM503 720Q497 660 472 628T402 595Q377 595 324 615Q292 627 277 631T251 636Q231 636 221 626T205 589H153Q160 646 187 678T259 711Q279 711 297 706T347 688Q371 677 384 674T409 670Q445 670 451 720H503Z"  />
<glyph unicode="&#xF2;" horiz-adv-x="620" d="M314 527Q373 527 422 508T506 453T561 368T581 256Q581 196 562 147T506 62T420 7T310 -12Q250 -12 200 7T115 62T59 147T39 257Q39 319 59 369T115 454T201 508T314 527ZM310 428Q250 428 216 384T182 256Q182 180 216 135T309 90Q369 90 404 135T440 261Q440 341 406 384T310 428ZM160 756H299L383 579H303L160 756Z"  />
<glyph unicode="&#xF3;" horiz-adv-x="620" d="M314 527Q373 527 422 508T506 453T561 368T581 256Q581 196 562 147T506 62T420 7T310 -12Q250 -12 200 7T115 62T59 147T39 257Q39 319 59 369T115 454T201 508T314 527ZM310 428Q250 428 216 384T182 256Q182 180 216 135T309 90Q369 90 404 135T440 261Q440 341 406 384T310 428ZM321 579H241L325 756H464L321 579Z"  />
<glyph unicode="&#xF4;" horiz-adv-x="620" d="M314 527Q373 527 422 508T506 453T561 368T581 256Q581 196 562 147T506 62T420 7T310 -12Q250 -12 200 7T115 62T59 147T39 257Q39 319 59 369T115 454T201 508T314 527ZM310 428Q250 428 216 384T182 256Q182 180 216 135T309 90Q369 90 404 135T440 261Q440 341 406 384T310 428ZM369 756L475 579H383L313 691L242 579H153L266 756H369Z"  />
<glyph unicode="&#xF5;" horiz-adv-x="620" d="M314 527Q373 527 422 508T506 453T561 368T581 256Q581 196 562 147T506 62T420 7T310 -12Q250 -12 200 7T115 62T59 147T39 257Q39 319 59 369T115 454T201 508T314 527ZM310 428Q250 428 216 384T182 256Q182 180 216 135T309 90Q369 90 404 135T440 261Q440 341 406 384T310 428ZM488 720Q482 660 457 628T387 595Q362 595 309 615Q277 627 262 631T236 636Q216 636 206 626T190 589H138Q145 646 172 678T244 711Q264 711 282 706T332 688Q356 677 369 674T394 670Q430 670 436 720H488Z"  />
<glyph unicode="&#xF6;" horiz-adv-x="620" d="M314 527Q373 527 422 508T506 453T561 368T581 256Q581 196 562 147T506 62T420 7T310 -12Q250 -12 200 7T115 62T59 147T39 257Q39 319 59 369T115 454T201 508T314 527ZM310 428Q250 428 216 384T182 256Q182 180 216 135T309 90Q369 90 404 135T440 261Q440 341 406 384T310 428ZM474 618H359V735H474V618ZM152 735H267V618H152V735Z"  />
<glyph unicode="&#xF7;" horiz-adv-x="596" d="M234 141H367V8H234V141ZM36 315H560V207H36V315ZM234 514H367V381H234V514Z"  />
<glyph unicode="&#xF8;" horiz-adv-x="620" d="M505 455Q540 420 560 368T580 255Q580 195 561 146T506 62T421 8T311 -11Q266 -11 226 1T154 35L97 -32L56 0L113 69Q41 142 41 255Q41 318 60 368T116 454T202 509T313 528Q358 528 395 519T465 488L518 552L558 519L505 455ZM227 123Q259 88 310 88Q377 88 412 136T447 260Q447 286 443 310T428 360L227 123ZM394 404Q379 420 358 426T312 433Q250 433 214 387T177 255Q177 230 181 210T196 166L394 404Z"  />
<glyph unicode="&#xF9;" horiz-adv-x="627" d="M428 85Q403 45 361 17T251 -12Q210 -12 177 2T120 42T83 106T70 188V515H202V248Q202 214 206 187T221 140T251 109T299 98Q328 98 350 110T389 144T413 195T421 258V515H554V153Q554 112 554 72T559 0H434Q432 16 431 37T430 85H428ZM151 756H290L374 579H294L151 756Z"  />
<glyph unicode="&#xFA;" horiz-adv-x="627" d="M428 85Q403 45 361 17T251 -12Q210 -12 177 2T120 42T83 106T70 188V515H202V248Q202 214 206 187T221 140T251 109T299 98Q328 98 350 110T389 144T413 195T421 258V515H554V153Q554 112 554 72T559 0H434Q432 16 431 37T430 85H428ZM322 579H242L326 756H465L322 579Z"  />
<glyph unicode="&#xFB;" horiz-adv-x="627" d="M428 85Q403 45 361 17T251 -12Q210 -12 177 2T120 42T83 106T70 188V515H202V248Q202 214 206 187T221 140T251 109T299 98Q328 98 350 110T389 144T413 195T421 258V515H554V153Q554 112 554 72T559 0H434Q432 16 431 37T430 85H428ZM368 756L474 579H382L312 691L241 579H152L265 756H368Z"  />
<glyph unicode="&#xFC;" horiz-adv-x="627" d="M428 85Q403 45 361 17T251 -12Q210 -12 177 2T120 42T83 106T70 188V515H202V248Q202 214 206 187T221 140T251 109T299 98Q328 98 350 110T389 144T413 195T421 258V515H554V153Q554 112 554 72T559 0H434Q432 16 431 37T430 85H428ZM473 618H358V735H473V618ZM151 735H266V618H151V735Z"  />
<glyph unicode="&#xFD;" horiz-adv-x="560" d="M158 515L238 266Q249 234 261 191T285 108H287Q298 148 310 190T334 266L414 515H549L346 -36Q331 -76 313 -110T269 -169T211 -208T135 -222Q110 -222 84 -218T39 -208L49 -108Q80 -118 115 -118Q148 -118 172 -97T212 -22L12 515H158ZM296 579H216L300 756H439L296 579Z"  />
<glyph unicode="&#xFE;" horiz-adv-x="635" d="M206 83Q207 74 207 57T208 21T209 -15T209 -40V-212H77V756H209V580Q209 573 209 553T209 509T208 465T206 435H208Q237 480 280 503T381 527Q430 527 470 508T537 453T580 369T595 262Q595 202 580 152T535 65T465 9T371 -12Q312 -12 273 13T208 83H206ZM338 423Q309 423 286 411T245 376T219 323T210 257Q210 221 219 191T244 139T284 105T337 92Q395 92 427 138T459 258Q459 332 429 377T338 423Z"  />
<glyph unicode="&#xFF;" horiz-adv-x="560" d="M158 515L238 266Q249 234 261 191T285 108H287Q298 148 310 190T334 266L414 515H549L346 -36Q331 -76 313 -110T269 -169T211 -208T135 -222Q110 -222 84 -218T39 -208L49 -108Q80 -118 115 -118Q148 -118 172 -97T212 -22L12 515H158ZM445 618H330V735H445V618ZM123 735H238V618H123V735Z"  />
<glyph unicode="&#x100;" horiz-adv-x="727" d="M717 0H564L503 161H212L151 0H6L280 698H439L717 0ZM407 430Q401 446 394 467T381 511T368 554T359 588H357Q353 574 347 554T334 512T319 468T306 430L248 267H465L407 430ZM214 863H506V796H214V863Z"  />
<glyph unicode="&#x101;" horiz-adv-x="557" d="M89 487Q128 507 178 517T274 527Q334 527 376 512T445 470T484 404T497 317Q497 302 497 282T496 241T496 199T495 164Q495 118 497 72T502 0H385Q384 6 384 18T383 41Q383 50 383 62T385 86H383Q357 42 314 16T206 -10Q168 -10 137 1T83 32T47 82T34 150Q34 231 102 274T299 318Q315 318 334 318T372 315Q372 375 343 402T251 429Q210 429 169 416T94 383L89 487ZM374 237Q360 239 351 239T330 239Q250 239 208 221T166 157Q166 123 187 105T246 87Q272 87 295 95T336 122T364 168T374 237ZM145 692H437V625H145V692Z"  />
<glyph unicode="&#x102;" horiz-adv-x="727" d="M717 0H564L503 161H212L151 0H6L280 698H439L717 0ZM407 430Q401 446 394 467T381 511T368 554T359 588H357Q353 574 347 554T334 512T319 468T306 430L248 267H465L407 430ZM263 906Q265 862 292 835T359 807Q401 807 425 834T459 906H527Q522 871 509 840T474 786T423 750T358 736Q324 736 295 750T243 789T208 843T194 906H263Z"  />
<glyph unicode="&#x103;" horiz-adv-x="557" d="M89 487Q128 507 178 517T274 527Q334 527 376 512T445 470T484 404T497 317Q497 302 497 282T496 241T496 199T495 164Q495 118 497 72T502 0H385Q384 6 384 18T383 41Q383 50 383 62T385 86H383Q357 42 314 16T206 -10Q168 -10 137 1T83 32T47 82T34 150Q34 231 102 274T299 318Q315 318 334 318T372 315Q372 375 343 402T251 429Q210 429 169 416T94 383L89 487ZM374 237Q360 239 351 239T330 239Q250 239 208 221T166 157Q166 123 187 105T246 87Q272 87 295 95T336 122T364 168T374 237ZM187 756Q189 712 216 685T283 657Q325 657 349 684T383 756H451Q446 721 433 690T398 636T347 600T282 586Q248 586 219 600T167 639T132 693T118 756H187Z"  />
<glyph unicode="&#x104;" horiz-adv-x="727" d="M639 0Q617 -23 604 -40T582 -70T571 -95T568 -116Q568 -137 582 -145T614 -154Q627 -154 641 -152T671 -142L681 -201Q659 -209 639 -212T597 -216Q577 -216 557 -212T521 -199T495 -173T485 -131Q485 -115 489 -100T502 -70T527 -37T566 0L504 159H214L155 0H10L281 698H439L717 0H639ZM389 466Q386 475 382 487T373 512T364 539T357 565Q351 542 341 513T324 466L254 269H461L389 466Z"  />
<glyph unicode="&#x105;" horiz-adv-x="557" d="M89 487Q128 507 178 517T274 527Q334 527 376 512T445 470T484 404T497 317Q497 288 496 250T495 183V143Q495 101 497 64T502 0H459Q437 -23 424 -40T402 -70T391 -95T388 -116Q388 -137 402 -145T434 -154Q447 -154 461 -152T491 -142L501 -201Q479 -209 459 -212T417 -216Q397 -216 377 -212T341 -199T315 -173T305 -131Q305 -99 323 -70T387 0Q385 6 384 18T383 41Q383 50 383 62T385 86H383Q357 42 314 16T206 -10Q168 -10 137 1T83 32T47 82T34 150Q34 231 102 274T299 318Q315 318 334 318T372 315Q372 375 343 402T251 429Q210 429 169 416T94 383L89 487ZM374 237Q365 239 355 239T330 239Q250 239 208 221T166 157Q166 123 187 105T246 87Q272 87 295 95T336 122T364 168T374 237Z"  />
<glyph unicode="&#x106;" horiz-adv-x="619" d="M589 16Q556 5 514 -1T426 -7Q342 -7 272 17T152 87T75 199T47 349Q47 430 75 496T152 608T270 680T417 705Q462 705 502 700T586 680L576 559Q538 576 504 583T428 591Q376 591 334 576T261 530T214 456T197 353Q197 295 215 250T264 173T338 126T430 110Q468 110 505 115T584 137L589 16ZM419 737H339L423 914H562L419 737Z"  />
<glyph unicode="&#x107;" horiz-adv-x="460" d="M409 405Q391 413 372 417T328 421Q290 421 262 408T214 373T184 322T174 258Q174 223 183 194T211 142T260 108T331 96Q354 96 375 100T418 114L425 9Q399 1 374 -3T316 -7Q252 -7 200 11T111 64T54 146T34 255Q34 317 56 366T116 450T204 503T312 521Q344 521 369 518T419 507L409 405ZM310 579H230L314 756H453L310 579Z"  />
<glyph unicode="&#x108;" horiz-adv-x="619" d="M589 16Q556 5 514 -1T426 -7Q342 -7 272 17T152 87T75 199T47 349Q47 430 75 496T152 608T270 680T417 705Q462 705 502 700T586 680L576 559Q538 576 504 583T428 591Q376 591 334 576T261 530T214 456T197 353Q197 295 215 250T264 173T338 126T430 110Q468 110 505 115T584 137L589 16ZM450 914L556 737H464L394 849L323 737H234L347 914H450Z"  />
<glyph unicode="&#x109;" horiz-adv-x="460" d="M409 405Q391 413 372 417T328 421Q290 421 262 408T214 373T184 322T174 258Q174 223 183 194T211 142T260 108T331 96Q354 96 375 100T418 114L425 9Q399 1 374 -3T316 -7Q252 -7 200 11T111 64T54 146T34 255Q34 317 56 366T116 450T204 503T312 521Q344 521 369 518T419 507L409 405ZM335 756L441 579H349L279 691L208 579H119L232 756H335Z"  />
<glyph unicode="&#x10A;" horiz-adv-x="619" d="M589 16Q556 5 514 -1T426 -7Q342 -7 272 17T152 87T75 199T47 349Q47 430 75 496T152 608T270 680T417 705Q462 705 502 700T586 680L576 559Q538 576 504 583T428 591Q376 591 334 576T261 530T214 456T197 353Q197 295 215 250T264 173T338 126T430 110Q468 110 505 115T584 137L589 16ZM479 770H342V898H479V770Z"  />
<glyph unicode="&#x10B;" horiz-adv-x="460" d="M409 405Q391 413 372 417T328 421Q290 421 262 408T214 373T184 322T174 258Q174 223 183 194T211 142T260 108T331 96Q354 96 375 100T418 114L425 9Q399 1 374 -3T316 -7Q252 -7 200 11T111 64T54 146T34 255Q34 317 56 366T116 450T204 503T312 521Q344 521 369 518T419 507L409 405ZM364 613H227V741H364V613Z"  />
<glyph unicode="&#x10C;" horiz-adv-x="619" d="M589 16Q556 5 514 -1T426 -7Q342 -7 272 17T152 87T75 199T47 349Q47 430 75 496T152 608T270 680T417 705Q462 705 502 700T586 680L576 559Q538 576 504 583T428 591Q376 591 334 576T261 530T214 456T197 353Q197 295 215 250T264 173T338 126T430 110Q468 110 505 115T584 137L589 16ZM350 737L244 914H336L406 802L477 914H566L453 737H350Z"  />
<glyph unicode="&#x10D;" horiz-adv-x="460" d="M409 405Q391 413 372 417T328 421Q290 421 262 408T214 373T184 322T174 258Q174 223 183 194T211 142T260 108T331 96Q354 96 375 100T418 114L425 9Q399 1 374 -3T316 -7Q252 -7 200 11T111 64T54 146T34 255Q34 317 56 366T116 450T204 503T312 521Q344 521 369 518T419 507L409 405ZM230 579L124 756H216L286 644L357 756H446L333 579H230Z"  />
<glyph unicode="&#x10E;" horiz-adv-x="735" d="M275 698Q363 698 438 680T569 619T656 510T687 346Q687 254 655 189T568 81T437 20T275 0H84V698H275ZM225 107H262Q320 107 371 119T459 160T519 234T541 347Q541 417 519 463T460 538T371 577T262 588H225V107ZM237 737L131 914H223L293 802L364 914H453L340 737H237Z"  />
<glyph unicode="&#x10F;" horiz-adv-x="632" d="M557 154Q557 113 558 73T562 0H440Q438 18 438 41T437 90H435Q407 40 365 14T263 -12Q211 -12 170 7T100 61T56 146T40 257Q40 317 56 366T101 451T172 507T264 527Q322 527 362 502T426 435H428Q426 464 426 502T425 578V756H557V154ZM299 424Q271 424 249 412T211 377T187 324T178 257Q178 221 186 191T211 138T249 104T300 91Q329 91 352 103T392 138T418 190T427 256Q427 292 418 323T393 376T352 411T299 424ZM676 579H603L619 756H731L676 579Z"  />
<glyph unicode="&#x110;" horiz-adv-x="735" d="M275 698Q363 698 438 680T569 619T656 510T687 346Q687 254 655 189T568 81T437 20T275 0H84V326H31V389H84V698H275ZM225 389H353V326H225V107H262Q320 107 371 119T459 160T519 234T541 347Q541 417 519 463T460 538T371 577T262 588H225V389Z"  />
<glyph unicode="&#x111;" horiz-adv-x="632" d="M557 687H611V624H557V154Q557 113 558 73T562 0H440Q438 18 438 41T437 90H435Q407 40 365 14T263 -12Q211 -12 170 7T100 61T56 146T40 257Q40 317 56 366T101 451T172 507T264 527Q322 527 362 502T426 435H428Q426 464 426 501T425 577V624H319V687H425V756H557V687ZM299 424Q271 424 249 412T211 377T187 324T178 257Q178 221 186 191T211 138T249 104T300 91Q329 91 352 103T392 138T418 190T427 256Q427 292 418 323T393 376T352 411T299 424Z"  />
<glyph unicode="&#x112;" horiz-adv-x="561" d="M84 698H497V582H223V414H475V301H223V117H500V0H84V698ZM144 863H436V796H144V863Z"  />
<glyph unicode="&#x113;" horiz-adv-x="562" d="M176 220Q178 160 221 125T335 90Q378 90 415 101T485 132L487 22Q454 6 411 -3T319 -12Q256 -12 204 6T116 59T59 144T39 260Q39 318 57 367T110 451T191 507T297 527Q409 527 466 460T523 252Q523 246 523 236T521 220H176ZM400 312Q400 375 371 403T292 432Q248 432 214 402T174 312H400ZM145 692H437V625H145V692Z"  />
<glyph unicode="&#x114;" horiz-adv-x="561" d="M84 698H497V582H223V414H475V301H223V117H500V0H84V698ZM194 906Q196 862 223 835T290 807Q332 807 356 834T390 906H458Q453 871 440 840T405 786T354 750T289 736Q255 736 226 750T174 789T139 843T125 906H194Z"  />
<glyph unicode="&#x115;" horiz-adv-x="562" d="M176 220Q178 160 221 125T335 90Q378 90 415 101T485 132L487 22Q454 6 411 -3T319 -12Q256 -12 204 6T116 59T59 144T39 260Q39 318 57 367T110 451T191 507T297 527Q409 527 466 460T523 252Q523 246 523 236T521 220H176ZM400 312Q400 375 371 403T292 432Q248 432 214 402T174 312H400ZM197 756Q199 712 226 685T293 657Q335 657 359 684T393 756H461Q456 721 443 690T408 636T357 600T292 586Q258 586 229 600T177 639T142 693T128 756H197Z"  />
<glyph unicode="&#x116;" horiz-adv-x="561" d="M84 698H497V582H223V414H475V301H223V117H500V0H84V698ZM370 770H233V898H370V770Z"  />
<glyph unicode="&#x117;" horiz-adv-x="562" d="M176 220Q178 160 221 125T335 90Q378 90 415 101T485 132L487 22Q454 6 411 -3T319 -12Q256 -12 204 6T116 59T59 144T39 260Q39 318 57 367T110 451T191 507T297 527Q409 527 466 460T523 252Q523 246 523 236T521 220H176ZM400 312Q400 375 371 403T292 432Q248 432 214 402T174 312H400ZM364 613H227V741H364V613Z"  />
<glyph unicode="&#x118;" horiz-adv-x="561" d="M84 698H497V582H223V414H475V301H223V117H500V0H466Q444 -23 431 -40T409 -70T398 -95T395 -116Q395 -137 409 -145T441 -154Q454 -154 468 -152T498 -142L508 -201Q486 -209 466 -212T424 -216Q404 -216 384 -212T348 -199T322 -173T312 -131Q312 -115 316 -100T329 -70T354 -37T393 0H84V698Z"  />
<glyph unicode="&#x119;" horiz-adv-x="562" d="M176 220Q178 160 221 125T335 90Q378 90 415 101T485 132L487 22L471 15Q447 4 428 -11T396 -44T375 -78T368 -111Q368 -137 382 -145T414 -154Q427 -154 441 -152T471 -142L481 -201Q459 -209 439 -212T397 -216Q377 -216 357 -212T321 -199T295 -173T285 -131Q285 -101 300 -73T354 -10Q346 -11 337 -11T319 -12Q256 -12 204 6T116 59T59 144T39 260Q39 318 58 367T111 451T192 507T297 527Q409 527 466 460T523 252Q523 246 523 236T521 220H176ZM400 312Q400 375 371 403T292 432Q248 432 214 402T174 312H400Z"  />
<glyph unicode="&#x11A;" horiz-adv-x="561" d="M84 698H497V582H223V414H475V301H223V117H500V0H84V698ZM244 737L138 914H230L300 802L371 914H460L347 737H244Z"  />
<glyph unicode="&#x11B;" horiz-adv-x="562" d="M176 220Q178 160 221 125T335 90Q378 90 415 101T485 132L487 22Q454 6 411 -3T319 -12Q256 -12 204 6T116 59T59 144T39 260Q39 318 57 367T110 451T191 507T297 527Q409 527 466 460T523 252Q523 246 523 236T521 220H176ZM400 312Q400 375 371 403T292 432Q248 432 214 402T174 312H400ZM244 579L138 756H230L300 644L371 756H460L347 579H244Z"  />
<glyph unicode="&#x11C;" horiz-adv-x="724" d="M627 553Q595 570 546 581T442 592Q386 592 341 575T265 527T216 451T198 351Q198 297 214 252T260 176T336 127T439 109Q461 109 482 111T521 119V293H372V405H655V30Q598 10 539 2T420 -7Q340 -7 272 17T153 88T75 201T47 352Q47 433 75 498T154 610T279 680T443 705Q495 705 544 699T637 678L627 553ZM471 914L577 737H485L415 849L344 737H255L368 914H471Z"  />
<glyph unicode="&#x11D;" horiz-adv-x="630" d="M297 424Q270 424 249 412T211 378T187 326T178 262Q178 193 210 149T298 105Q326 105 349 117T390 150T416 200T425 263Q425 297 416 326T390 377T350 411T297 424ZM557 515V40Q557 -18 541 -66T492 -148T408 -202T286 -222Q233 -222 183 -215T81 -188L91 -74Q139 -100 185 -111T275 -122Q309 -122 337 -113T385 -83T416 -33T427 40Q427 53 427 66T429 93H427Q404 54 364 27T262 0Q212 0 171 18T101 70T56 151T40 255Q40 315 56 365T102 451T174 507T270 527Q330 527 370 501T433 433H435Q433 457 433 476T433 515H557ZM363 756L469 579H377L307 691L236 579H147L260 756H363Z"  />
<glyph unicode="&#x11E;" horiz-adv-x="724" d="M627 553Q595 570 546 581T442 592Q386 592 341 575T265 527T216 451T198 351Q198 297 214 252T260 176T336 127T439 109Q461 109 482 111T521 119V293H372V405H655V30Q598 10 539 2T420 -7Q340 -7 272 17T153 88T75 201T47 352Q47 433 75 498T154 610T279 680T443 705Q495 705 544 699T637 678L627 553ZM320 906Q322 862 349 835T416 807Q458 807 482 834T516 906H584Q579 871 566 840T531 786T480 750T415 736Q381 736 352 750T300 789T265 843T251 906H320Z"  />
<glyph unicode="&#x11F;" horiz-adv-x="630" d="M297 424Q270 424 249 412T211 378T187 326T178 262Q178 193 210 149T298 105Q326 105 349 117T390 150T416 200T425 263Q425 297 416 326T390 377T350 411T297 424ZM557 515V40Q557 -18 541 -66T492 -148T408 -202T286 -222Q233 -222 183 -215T81 -188L91 -74Q139 -100 185 -111T275 -122Q309 -122 337 -113T385 -83T416 -33T427 40Q427 53 427 66T429 93H427Q404 54 364 27T262 0Q212 0 171 18T101 70T56 151T40 255Q40 315 56 365T102 451T174 507T270 527Q330 527 370 501T433 433H435Q433 457 433 476T433 515H557ZM207 756Q209 712 236 685T303 657Q345 657 369 684T403 756H471Q466 721 453 690T418 636T367 600T302 586Q268 586 239 600T187 639T152 693T138 756H207Z"  />
<glyph unicode="&#x120;" horiz-adv-x="724" d="M627 553Q595 570 546 581T442 592Q386 592 341 575T265 527T216 451T198 351Q198 297 214 252T260 176T336 127T439 109Q461 109 482 111T521 119V293H372V405H655V30Q598 10 539 2T420 -7Q340 -7 272 17T153 88T75 201T47 352Q47 433 75 498T154 610T279 680T443 705Q495 705 544 699T637 678L627 553ZM489 770H352V898H489V770Z"  />
<glyph unicode="&#x121;" horiz-adv-x="630" d="M297 424Q270 424 249 412T211 378T187 326T178 262Q178 193 210 149T298 105Q326 105 349 117T390 150T416 200T425 263Q425 297 416 326T390 377T350 411T297 424ZM557 515V40Q557 -18 541 -66T492 -148T408 -202T286 -222Q233 -222 183 -215T81 -188L91 -74Q139 -100 185 -111T275 -122Q309 -122 337 -113T385 -83T416 -33T427 40Q427 53 427 66T429 93H427Q404 54 364 27T262 0Q212 0 171 18T101 70T56 151T40 255Q40 315 56 365T102 451T174 507T270 527Q330 527 370 501T433 433H435Q433 457 433 476T433 515H557ZM377 613H240V741H377V613Z"  />
<glyph unicode="&#x122;" horiz-adv-x="724" d="M627 553Q595 570 546 581T442 592Q386 592 341 575T265 527T216 451T198 351Q198 297 214 252T260 176T336 127T439 109Q461 109 482 111T521 119V293H372V405H655V30Q598 10 539 2T420 -7Q340 -7 272 17T153 88T75 201T47 352Q47 433 75 498T154 610T279 680T443 705Q495 705 544 699T637 678L627 553ZM393 -233H319L373 -62H506L393 -233Z"  />
<glyph unicode="&#x123;" horiz-adv-x="630" d="M297 424Q270 424 249 412T211 378T187 326T178 262Q178 193 210 149T298 105Q326 105 349 117T390 150T416 200T425 263Q425 297 416 326T390 377T350 411T297 424ZM557 515V40Q557 -18 541 -66T492 -148T408 -202T286 -222Q233 -222 183 -215T81 -188L91 -74Q139 -100 185 -111T275 -122Q309 -122 337 -113T385 -83T416 -33T427 40Q427 53 427 66T429 93H427Q404 54 364 27T262 0Q212 0 171 18T101 70T56 151T40 255Q40 315 56 365T102 451T174 507T270 527Q330 527 370 501T433 433H435Q433 457 433 476T433 515H557ZM334 756H408L354 579H221L334 756Z"  />
<glyph unicode="&#x124;" horiz-adv-x="731" d="M84 698H226V420H506V698H647V0H506V302H226V0H84V698ZM423 914L529 737H437L367 849L296 737H207L320 914H423Z"  />
<glyph unicode="&#x125;" horiz-adv-x="630" d="M207 553Q207 519 206 485T204 428H206Q234 473 275 500T372 527Q423 527 459 511T517 465T550 393T560 299V0H428V248Q428 285 426 316T413 371T384 407T332 420Q269 420 238 370T207 233V0H75V756H207V553ZM371 954L477 777H385L315 889L244 777H155L268 954H371Z"  />
<glyph unicode="&#x126;" horiz-adv-x="731" d="M84 520H42V585H84V698H226V585H506V698H647V585H688V520H647V0H506V292H226V0H84V520ZM506 400V520H226V400H506Z"  />
<glyph unicode="&#x127;" horiz-adv-x="630" d="M207 687H319V624H207V553Q207 519 206 485T204 428H206Q234 473 275 500T372 527Q423 527 459 511T517 465T550 393T560 299V0H428V248Q428 285 426 316T413 371T384 407T332 420Q269 420 238 370T207 233V0H75V624H27V687H75V756H207V687Z"  />
<glyph unicode="&#x128;" horiz-adv-x="309" d="M84 698H225V0H84V698ZM329 888Q323 828 298 796T228 763Q203 763 150 783Q118 795 103 799T77 804Q57 804 47 794T31 757H-21Q-14 814 13 846T85 879Q105 879 123 874T173 856Q197 845 210 842T235 838Q271 838 277 888H329Z"  />
<glyph unicode="&#x129;" horiz-adv-x="288" d="M77 515H211V0H77V515ZM322 720Q316 660 291 628T221 595Q196 595 143 615Q111 627 96 631T70 636Q50 636 40 626T24 589H-28Q-21 646 6 678T78 711Q98 711 116 706T166 688Q190 677 203 674T228 670Q264 670 270 720H322Z"  />
<glyph unicode="&#x12A;" horiz-adv-x="309" d="M84 698H225V0H84V698ZM12 863H304V796H12V863Z"  />
<glyph unicode="&#x12B;" horiz-adv-x="288" d="M77 515H211V0H77V515ZM3 692H295V625H3V692Z"  />
<glyph unicode="&#x12E;" horiz-adv-x="309" d="M84 698H225V0H202Q180 -23 167 -40T145 -70T134 -95T131 -116Q131 -137 145 -145T177 -154Q190 -154 204 -152T234 -142L244 -201Q222 -209 202 -212T160 -216Q140 -216 120 -212T84 -199T58 -173T48 -131Q48 -115 52 -100T65 -70T90 -37T129 0H84V698Z"  />
<glyph unicode="&#x12F;" horiz-adv-x="288" d="M77 515H211V0H190Q168 -23 155 -40T133 -70T122 -95T119 -116Q119 -137 133 -145T165 -154Q178 -154 192 -152T222 -142L232 -201Q210 -209 190 -212T148 -216Q128 -216 108 -212T72 -199T46 -173T36 -131Q36 -115 40 -100T53 -70T78 -37T117 0H77V515ZM77 613V741H211V613H77Z"  />
<glyph unicode="&#x130;" horiz-adv-x="309" d="M84 698H225V0H84V698ZM227 770H90V898H227V770Z"  />
<glyph unicode="&#x131;" horiz-adv-x="288" d="M77 515H211V0H77V515Z"  />
<glyph unicode="&#x132;" horiz-adv-x="691" d="M84 698H225V0H84V698ZM612 698V216Q612 163 601 121T566 50T502 4T407 -12Q384 -12 360 -9T312 2L316 124Q333 119 351 117T383 114Q429 114 449 141T470 230V698H612Z"  />
<glyph unicode="&#x133;" d="M77 613V741H211V613H77ZM77 515H211V0H77V515ZM355 741H489V613H355V741ZM271 -117Q276 -118 281 -118T291 -119Q329 -119 342 -96T355 -18V515H489V-36Q489 -222 321 -222Q307 -222 293 -221T266 -217L271 -117Z"  />
<glyph unicode="&#x134;" horiz-adv-x="392" d="M313 698V216Q313 163 302 121T267 50T203 4T108 -12Q85 -12 61 -9T13 2L17 124Q34 119 52 117T84 114Q130 114 150 141T171 230V698H313ZM299 914L405 737H313L243 849L172 737H83L196 914H299Z"  />
<glyph unicode="&#x135;" horiz-adv-x="288" d="M-7 -117Q-2 -118 3 -118T13 -119Q51 -119 64 -96T77 -18V515H211V-36Q211 -222 43 -222Q29 -222 15 -221T-12 -217L-7 -117ZM206 756L312 579H220L150 691L79 579H-10L103 756H206Z"  />
<glyph unicode="&#x136;" horiz-adv-x="673" d="M225 0H84V698H225V394H227Q237 407 253 428T287 470T321 512T348 544L479 698H654L359 372L682 0H492L338 188Q328 200 315 217T287 254T257 295T227 336H225V0ZM307 -233H233L287 -62H420L307 -233Z"  />
<glyph unicode="&#x137;" horiz-adv-x="568" d="M301 135Q291 149 279 165T256 199T233 232T213 262H211V0H75V756H211V297H213Q221 308 232 322T255 353T280 384T303 412L391 515H545L337 286L568 0H401L301 135ZM252 -233H178L232 -62H365L252 -233Z"  />
<glyph unicode="&#x139;" horiz-adv-x="514" d="M84 698H225V120H496V0H84V698ZM192 737H112L196 914H335L192 737Z"  />
<glyph unicode="&#x13A;" horiz-adv-x="288" d="M77 756H211V0H77V756ZM175 777H95L179 954H318L175 777Z"  />
<glyph unicode="&#x13B;" horiz-adv-x="514" d="M84 698H225V120H496V0H84V698ZM262 -233H188L242 -62H375L262 -233Z"  />
<glyph unicode="&#x13C;" horiz-adv-x="288" d="M77 756H211V0H77V756ZM109 -233H35L89 -62H222L109 -233Z"  />
<glyph unicode="&#x13D;" horiz-adv-x="514" d="M84 698H225V120H496V0H84V698ZM369 579H296L312 756H424L369 579Z"  />
<glyph unicode="&#x13E;" horiz-adv-x="288" d="M77 756H211V0H77V756ZM338 579H265L281 756H393L338 579Z"  />
<glyph unicode="&#x13F;" horiz-adv-x="514" d="M84 698H225V120H496V0H84V698ZM484 356H347V484H484V356Z"  />
<glyph unicode="&#x140;" horiz-adv-x="414" d="M77 756H211V0H77V756ZM417 356H280V484H417V356Z"  />
<glyph unicode="&#x141;" horiz-adv-x="514" d="M330 473L225 408V120H496V0H84V329L24 292V371L84 408V698H225V487L330 552V473Z"  />
<glyph unicode="&#x142;" horiz-adv-x="308" d="M292 518L221 462V0H87V362L10 302V381L87 441V756H221V542L292 598V518Z"  />
<glyph unicode="&#x143;" horiz-adv-x="750" d="M539 698H666V0H488L309 342Q295 368 281 398T252 458T227 514T208 557H206Q207 541 208 512T209 448T210 381T211 326V0H84V698H272L448 353Q458 334 471 307T497 251T523 195T543 149H545Q544 168 543 200T541 270T540 343T539 405V698ZM412 737H332L416 914H555L412 737Z"  />
<glyph unicode="&#x144;" horiz-adv-x="627" d="M201 429Q230 476 273 501T372 527Q423 527 458 511T516 466T547 394T557 300V0H425V248Q425 285 423 316T412 371T384 407T332 420Q299 420 271 402T227 353Q205 310 205 233V0H73V355Q73 393 72 433T68 515H195Q197 498 198 474T199 429H201ZM338 579H258L342 756H481L338 579Z"  />
<glyph unicode="&#x145;" horiz-adv-x="750" d="M539 698H666V0H488L309 342Q295 368 281 398T252 458T227 514T208 557H206Q207 541 208 512T209 448T210 381T211 326V0H84V698H272L448 353Q458 334 471 307T497 251T523 195T543 149H545Q544 168 543 200T541 270T540 343T539 405V698ZM348 -233H274L328 -62H461L348 -233Z"  />
<glyph unicode="&#x146;" horiz-adv-x="627" d="M201 429Q230 476 273 501T372 527Q423 527 458 511T516 466T547 394T557 300V0H425V248Q425 285 423 316T412 371T384 407T332 420Q299 420 271 402T227 353Q205 310 205 233V0H73V355Q73 393 72 433T68 515H195Q197 498 198 474T199 429H201ZM277 -233H203L257 -62H390L277 -233Z"  />
<glyph unicode="&#x147;" horiz-adv-x="750" d="M539 698H666V0H488L309 342Q295 368 281 398T252 458T227 514T208 557H206Q207 541 208 512T209 448T210 381T211 326V0H84V698H272L448 353Q458 334 471 307T497 251T523 195T543 149H545Q544 168 543 200T541 270T540 343T539 405V698ZM319 737L213 914H305L375 802L446 914H535L422 737H319Z"  />
<glyph unicode="&#x148;" horiz-adv-x="627" d="M201 429Q230 476 273 501T372 527Q423 527 458 511T516 466T547 394T557 300V0H425V248Q425 285 423 316T412 371T384 407T332 420Q299 420 271 402T227 353Q205 310 205 233V0H73V355Q73 393 72 433T68 515H195Q197 498 198 474T199 429H201ZM257 579L151 756H243L313 644L384 756H473L360 579H257Z"  />
<glyph unicode="&#x149;" horiz-adv-x="627" d="M201 429Q230 476 273 501T372 527Q423 527 458 511T516 466T547 394T557 300V0H425V248Q425 285 423 316T412 371T384 407T332 420Q299 420 271 402T227 353Q205 310 205 233V0H73V355Q73 393 72 433T68 515H195Q197 498 198 474T199 429H201ZM106 579H33L49 756H161L106 579Z"  />
<glyph unicode="&#x14C;" horiz-adv-x="784" d="M398 710Q475 710 537 685T642 614T709 501T733 352Q733 268 709 201T640 87T532 14T390 -12Q313 -12 250 13T143 85T75 198T51 348Q51 522 142 616T398 710ZM390 601Q348 601 314 583T254 532T216 452T202 348Q202 291 215 245T254 166T315 115T394 97Q436 97 470 115T530 167T569 246T583 349Q583 407 570 454T531 533T470 583T390 601ZM240 863H532V796H240V863Z"  />
<glyph unicode="&#x14D;" horiz-adv-x="620" d="M314 527Q373 527 422 508T506 453T561 368T581 256Q581 196 562 147T506 62T420 7T310 -12Q250 -12 200 7T115 62T59 147T39 257Q39 319 59 369T115 454T201 508T314 527ZM310 428Q250 428 216 384T182 256Q182 180 216 135T309 90Q369 90 404 135T440 261Q440 341 406 384T310 428ZM163 692H455V625H163V692Z"  />
<glyph unicode="&#x14E;" horiz-adv-x="784" d="M398 710Q475 710 537 685T642 614T709 501T733 352Q733 268 709 201T640 87T532 14T390 -12Q313 -12 250 13T143 85T75 198T51 348Q51 522 142 616T398 710ZM390 601Q348 601 314 583T254 532T216 452T202 348Q202 291 215 245T254 166T315 115T394 97Q436 97 470 115T530 167T569 246T583 349Q583 407 570 454T531 533T470 583T390 601ZM289 906Q291 862 318 835T385 807Q427 807 451 834T485 906H553Q548 871 535 840T500 786T449 750T384 736Q350 736 321 750T269 789T234 843T220 906H289Z"  />
<glyph unicode="&#x14F;" horiz-adv-x="620" d="M314 527Q373 527 422 508T506 453T561 368T581 256Q581 196 562 147T506 62T420 7T310 -12Q250 -12 200 7T115 62T59 147T39 257Q39 319 59 369T115 454T201 508T314 527ZM310 428Q250 428 216 384T182 256Q182 180 216 135T309 90Q369 90 404 135T440 261Q440 341 406 384T310 428ZM209 756Q211 712 238 685T305 657Q347 657 371 684T405 756H473Q468 721 455 690T420 636T369 600T304 586Q270 586 241 600T189 639T154 693T140 756H209Z"  />
<glyph unicode="&#x150;" horiz-adv-x="784" d="M398 710Q475 710 537 685T642 614T709 501T733 352Q733 268 709 201T640 87T532 14T390 -12Q313 -12 250 13T143 85T75 198T51 348Q51 522 142 616T398 710ZM390 601Q348 601 314 583T254 532T216 452T202 348Q202 291 215 245T254 166T315 115T394 97Q436 97 470 115T530 167T569 246T583 349Q583 407 570 454T531 533T470 583T390 601ZM513 736H432L529 913H657L513 736ZM329 736H251L329 913H455L329 736Z"  />
<glyph unicode="&#x151;" horiz-adv-x="620" d="M314 527Q373 527 422 508T506 453T561 368T581 256Q581 196 562 147T506 62T420 7T310 -12Q250 -12 200 7T115 62T59 147T39 257Q39 319 59 369T115 454T201 508T314 527ZM310 428Q250 428 216 384T182 256Q182 180 216 135T309 90Q369 90 404 135T440 261Q440 341 406 384T310 428ZM437 579H356L453 756H581L437 579ZM253 579H175L253 756H379L253 579Z"  />
<glyph unicode="&#x152;" horiz-adv-x="959" d="M893 582H630V414H870V301H630V117H898V0H617Q574 0 530 -2T430 -4Q342 -4 271 19T150 87T73 197T46 348Q46 435 74 501T152 612T271 680T421 703Q443 703 462 702T501 701T540 699T586 698H893V582ZM488 584Q474 586 459 587T426 589Q318 589 258 524T198 348Q198 293 214 249T261 173T336 124T435 107Q450 107 464 107T488 110V584Z"  />
<glyph unicode="&#x153;" horiz-adv-x="939" d="M554 220Q555 190 567 166T600 125T651 99T715 89Q758 89 795 100T864 131L866 21Q833 5 791 -3T699 -12Q563 -12 497 71Q466 32 419 10T306 -12Q246 -12 197 7T113 62T58 146T39 256Q39 318 58 368T112 453T198 508T310 527Q373 527 419 505T496 444Q526 483 571 505T677 527Q789 527 844 460T900 252Q900 246 900 236T898 220H554ZM306 427Q246 427 214 383T182 255Q182 179 214 135T305 90Q365 90 398 135T431 260Q431 340 399 383T306 427ZM779 312Q779 375 751 403T672 432Q650 432 630 425T593 402T566 365T552 312H779Z"  />
<glyph unicode="&#x154;" horiz-adv-x="622" d="M84 698H286Q350 698 403 690T493 662T551 606T572 515Q572 446 534 405T426 350V348Q444 343 457 335T481 316T499 290T515 255L623 0H468L390 198Q379 225 370 243T348 271T314 286T262 290H225V0H84V698ZM225 398H266Q350 398 388 420T427 496Q427 524 416 542T385 570T334 584T266 588H225V398ZM301 737H221L305 914H444L301 737Z"  />
<glyph unicode="&#x155;" horiz-adv-x="394" d="M198 417Q218 468 254 497T346 527Q358 527 368 526T390 521L387 406Q366 413 341 413Q207 413 207 210V0H71V362Q71 403 70 443T66 515H192Q193 506 193 494T194 468T195 441T196 417H198ZM219 579H139L223 756H362L219 579Z"  />
<glyph unicode="&#x156;" horiz-adv-x="622" d="M84 698H286Q350 698 403 690T493 662T551 606T572 515Q572 446 534 405T426 350V348Q444 343 457 335T481 316T499 290T515 255L623 0H468L390 198Q379 225 370 243T348 271T314 286T262 290H225V0H84V698ZM225 398H266Q350 398 388 420T427 496Q427 524 416 542T385 570T334 584T266 588H225V398ZM287 -233H213L267 -62H400L287 -233Z"  />
<glyph unicode="&#x157;" horiz-adv-x="394" d="M198 417Q218 468 254 497T346 527Q358 527 368 526T390 521L387 406Q366 413 341 413Q207 413 207 210V0H71V362Q71 403 70 443T66 515H192Q193 506 193 494T194 468T195 441T196 417H198ZM113 -233H39L93 -62H226L113 -233Z"  />
<glyph unicode="&#x158;" horiz-adv-x="622" d="M84 698H286Q350 698 403 690T493 662T551 606T572 515Q572 446 534 405T426 350V348Q444 343 457 335T481 316T499 290T515 255L623 0H468L390 198Q379 225 370 243T348 271T314 286T262 290H225V0H84V698ZM225 398H266Q350 398 388 420T427 496Q427 524 416 542T385 570T334 584T266 588H225V398ZM236 737L130 914H222L292 802L363 914H452L339 737H236Z"  />
<glyph unicode="&#x159;" horiz-adv-x="394" d="M198 417Q218 468 254 497T346 527Q358 527 368 526T390 521L387 406Q366 413 341 413Q207 413 207 210V0H71V362Q71 403 70 443T66 515H192Q193 506 193 494T194 468T195 441T196 417H198ZM149 579L43 756H135L205 644L276 756H365L252 579H149Z"  />
<glyph unicode="&#x15A;" horiz-adv-x="548" d="M458 571Q416 588 382 594T316 601Q260 601 228 580T195 522Q195 506 200 493T219 467T257 442T321 415Q418 380 462 332T506 206Q506 156 488 116T435 47T352 3T243 -12Q145 -12 58 18L71 141Q116 119 157 110T235 101Q291 101 326 123T362 188Q362 208 356 223T335 253T293 280T227 308Q134 342 92 388T50 508Q50 554 68 591T119 655T198 696T300 710Q347 710 387 705T469 685L458 571ZM318 737H238L322 914H461L318 737Z"  />
<glyph unicode="&#x15B;" horiz-adv-x="447" d="M48 121Q86 103 122 95T193 86Q227 86 252 99T277 141Q277 154 273 164T257 183T227 200T176 220Q102 245 71 278T39 369Q39 406 53 435T95 484T159 516T243 527Q324 527 383 503L372 403Q308 432 249 432Q215 432 193 418T171 378Q171 365 175 356T190 339T219 324T265 307Q299 296 326 283T372 251T401 209T411 152Q411 112 396 82T353 30T286 -1T200 -12Q158 -12 119 -6T41 15L48 121ZM245 579H165L249 756H388L245 579Z"  />
<glyph unicode="&#x15C;" horiz-adv-x="548" d="M458 571Q416 588 382 594T316 601Q260 601 228 580T195 522Q195 506 200 493T219 467T257 442T321 415Q418 380 462 332T506 206Q506 156 488 116T435 47T352 3T243 -12Q145 -12 58 18L71 141Q116 119 157 110T235 101Q291 101 326 123T362 188Q362 208 356 223T335 253T293 280T227 308Q134 342 92 388T50 508Q50 554 68 591T119 655T198 696T300 710Q347 710 387 705T469 685L458 571ZM351 914L457 737H365L295 849L224 737H135L248 914H351Z"  />
<glyph unicode="&#x15D;" horiz-adv-x="447" d="M48 121Q86 103 122 95T193 86Q227 86 252 99T277 141Q277 154 273 164T257 183T227 200T176 220Q102 245 71 278T39 369Q39 406 53 435T95 484T159 516T243 527Q324 527 383 503L372 403Q308 432 249 432Q215 432 193 418T171 378Q171 365 175 356T190 339T219 324T265 307Q299 296 326 283T372 251T401 209T411 152Q411 112 396 82T353 30T286 -1T200 -12Q158 -12 119 -6T41 15L48 121ZM287 756L393 579H301L231 691L160 579H71L184 756H287Z"  />
<glyph unicode="&#x15E;" horiz-adv-x="548" d="M458 571Q416 588 382 594T316 601Q260 601 228 580T195 522Q195 506 200 493T219 467T257 442T321 415Q418 380 462 332T506 206Q506 158 489 119T441 52T364 8T264 -11L256 -62Q262 -61 266 -61T276 -61Q295 -61 313 -65T344 -78T366 -101T374 -137Q374 -162 364 -179T336 -208T295 -225T247 -230Q212 -230 180 -223L186 -173Q200 -175 213 -176T238 -178Q260 -178 276 -171T293 -143Q293 -123 279 -117T243 -110Q232 -110 220 -111T193 -115L202 -11Q164 -8 129 -1T58 18L71 141Q116 119 157 110T235 101Q291 101 326 123T362 188Q362 208 356 223T335 253T293 280T227 308Q134 342 92 388T50 508Q50 554 68 591T119 655T198 696T300 710Q347 710 387 705T469 685L458 571Z"  />
<glyph unicode="&#x15F;" horiz-adv-x="447" d="M48 121Q86 103 122 95T193 86Q227 86 252 99T277 141Q277 154 273 164T257 183T227 200T176 220Q102 245 71 278T39 369Q39 406 53 435T95 484T159 516T243 527Q324 527 383 503L372 403Q308 432 249 432Q215 432 193 418T171 378Q171 365 175 356T190 339T219 324T265 307Q299 296 326 283T372 251T401 209T411 152Q411 79 363 38T233 -10L225 -62Q231 -61 235 -61T245 -61Q264 -61 282 -65T313 -78T335 -101T343 -137Q343 -162 333 -179T305 -208T264 -225T216 -230Q181 -230 149 -223L155 -173Q169 -175 182 -176T207 -178Q229 -178 245 -171T262 -143Q262 -123 248 -117T212 -110Q201 -110 189 -111T162 -115L171 -11Q106 -8 41 15L48 121Z"  />
<glyph unicode="&#x160;" horiz-adv-x="548" d="M458 571Q416 588 382 594T316 601Q260 601 228 580T195 522Q195 506 200 493T219 467T257 442T321 415Q418 380 462 332T506 206Q506 156 488 116T435 47T352 3T243 -12Q145 -12 58 18L71 141Q116 119 157 110T235 101Q291 101 326 123T362 188Q362 208 356 223T335 253T293 280T227 308Q134 342 92 388T50 508Q50 554 68 591T119 655T198 696T300 710Q347 710 387 705T469 685L458 571ZM234 737L128 914H220L290 802L361 914H450L337 737H234Z"  />
<glyph unicode="&#x161;" horiz-adv-x="447" d="M48 121Q86 103 122 95T193 86Q227 86 252 99T277 141Q277 154 273 164T257 183T227 200T176 220Q102 245 71 278T39 369Q39 406 53 435T95 484T159 516T243 527Q324 527 383 503L372 403Q308 432 249 432Q215 432 193 418T171 378Q171 365 175 356T190 339T219 324T265 307Q299 296 326 283T372 251T401 209T411 152Q411 112 396 82T353 30T286 -1T200 -12Q158 -12 119 -6T41 15L48 121ZM181 579L75 756H167L237 644L308 756H397L284 579H181Z"  />
<glyph unicode="&#x162;" horiz-adv-x="565" d="M547 580L352 583V0H209V583L18 580V698H547V580ZM247 -233H173L227 -62H360L247 -233Z"  />
<glyph unicode="&#x163;" horiz-adv-x="388" d="M10 416V515H111V623L237 666V515H360V416H237V215Q237 156 252 129T317 102Q342 102 366 110L369 7Q350 0 327 -3T277 -6Q188 -6 149 40T109 188V416H10ZM183 -233H109L163 -62H296L183 -233Z"  />
<glyph unicode="&#x164;" horiz-adv-x="565" d="M547 580L352 583V0H209V583L18 580V698H547V580ZM224 737L118 914H210L280 802L351 914H440L327 737H224Z"  />
<glyph unicode="&#x165;" horiz-adv-x="388" d="M10 416V515H111V623L237 666V515H360V416H237V215Q237 156 252 129T317 102Q342 102 366 110L369 7Q350 0 327 -3T277 -6Q188 -6 149 40T109 188V416H10ZM377 579H304L320 756H432L377 579Z"  />
<glyph unicode="&#x166;" horiz-adv-x="565" d="M113 462H209V583L18 580V698H547V580L352 583V462H451V399H352V0H209V399H113V462Z"  />
<glyph unicode="&#x167;" horiz-adv-x="388" d="M31 327H109V416H10V515H111V623L237 666V515H360V416H237V327H323V264H237V215Q237 156 252 129T317 102Q342 102 366 110L369 7Q350 0 327 -3T277 -6Q188 -6 149 40T109 188V264H31V327Z"  />
<glyph unicode="&#x168;" horiz-adv-x="726" d="M221 698V287Q221 189 255 145T362 101Q440 101 476 145T512 287V698H647V277Q647 133 575 61T361 -12Q211 -12 145 61T79 277V698H221ZM542 888Q536 828 511 796T441 763Q416 763 363 783Q331 795 316 799T290 804Q270 804 260 794T244 757H192Q199 814 226 846T298 879Q318 879 336 874T386 856Q410 845 423 842T448 838Q484 838 490 888H542Z"  />
<glyph unicode="&#x169;" horiz-adv-x="627" d="M428 85Q403 45 361 17T251 -12Q210 -12 177 2T120 42T83 106T70 188V515H202V248Q202 214 206 187T221 140T251 109T299 98Q328 98 350 110T389 144T413 195T421 258V515H554V153Q554 112 554 72T559 0H434Q432 16 431 37T430 85H428ZM493 720Q487 660 462 628T392 595Q367 595 314 615Q282 627 267 631T241 636Q221 636 211 626T195 589H143Q150 646 177 678T249 711Q269 711 287 706T337 688Q361 677 374 674T399 670Q435 670 441 720H493Z"  />
<glyph unicode="&#x16A;" horiz-adv-x="726" d="M221 698V287Q221 189 255 145T362 101Q440 101 476 145T512 287V698H647V277Q647 133 575 61T361 -12Q211 -12 145 61T79 277V698H221ZM222 863H514V796H222V863Z"  />
<glyph unicode="&#x16B;" horiz-adv-x="627" d="M428 85Q403 45 361 17T251 -12Q210 -12 177 2T120 42T83 106T70 188V515H202V248Q202 214 206 187T221 140T251 109T299 98Q328 98 350 110T389 144T413 195T421 258V515H554V153Q554 112 554 72T559 0H434Q432 16 431 37T430 85H428ZM166 692H458V625H166V692Z"  />
<glyph unicode="&#x16C;" horiz-adv-x="726" d="M221 698V287Q221 189 255 145T362 101Q440 101 476 145T512 287V698H647V277Q647 133 575 61T361 -12Q211 -12 145 61T79 277V698H221ZM267 906Q269 862 296 835T363 807Q405 807 429 834T463 906H531Q526 871 513 840T478 786T427 750T362 736Q328 736 299 750T247 789T212 843T198 906H267Z"  />
<glyph unicode="&#x16D;" horiz-adv-x="627" d="M428 85Q403 45 361 17T251 -12Q210 -12 177 2T120 42T83 106T70 188V515H202V248Q202 214 206 187T221 140T251 109T299 98Q328 98 350 110T389 144T413 195T421 258V515H554V153Q554 112 554 72T559 0H434Q432 16 431 37T430 85H428ZM219 756Q221 712 248 685T315 657Q357 657 381 684T415 756H483Q478 721 465 690T430 636T379 600T314 586Q280 586 251 600T199 639T164 693T150 756H219Z"  />
<glyph unicode="&#x16E;" horiz-adv-x="726" d="M221 698V287Q221 189 255 145T362 101Q440 101 476 145T512 287V698H647V277Q647 133 575 61T361 -12Q211 -12 145 61T79 277V698H221ZM370 940Q391 940 409 932T442 909T465 876T473 836Q473 814 465 795T442 762T409 740T368 732Q347 732 329 740T296 762T273 795T265 836Q265 857 273 876T295 909T329 932T370 940ZM367 893Q344 893 328 877T312 837Q312 813 328 796T367 778Q391 778 408 795T425 835Q425 859 408 876T367 893Z"  />
<glyph unicode="&#x16F;" horiz-adv-x="627" d="M428 85Q403 45 361 17T251 -12Q210 -12 177 2T120 42T83 106T70 188V515H202V248Q202 214 206 187T221 140T251 109T299 98Q328 98 350 110T389 144T413 195T421 258V515H554V153Q554 112 554 72T559 0H434Q432 16 431 37T430 85H428ZM312 767Q333 767 351 759T384 736T407 703T415 663Q415 641 407 622T384 589T351 567T310 559Q289 559 271 567T238 589T215 622T207 663Q207 684 215 703T237 736T271 759T312 767ZM309 720Q286 720 270 704T254 664Q254 640 270 623T309 605Q333 605 350 622T367 662Q367 686 350 703T309 720Z"  />
<glyph unicode="&#x170;" horiz-adv-x="726" d="M221 698V287Q221 189 255 145T362 101Q440 101 476 145T512 287V698H647V277Q647 133 575 61T361 -12Q211 -12 145 61T79 277V698H221ZM472 736H391L488 913H616L472 736ZM288 736H210L288 913H414L288 736Z"  />
<glyph unicode="&#x171;" horiz-adv-x="627" d="M428 85Q403 45 361 17T251 -12Q210 -12 177 2T120 42T83 106T70 188V515H202V248Q202 214 206 187T221 140T251 109T299 98Q328 98 350 110T389 144T413 195T421 258V515H554V153Q554 112 554 72T559 0H434Q432 16 431 37T430 85H428ZM426 579H345L442 756H570L426 579ZM242 579H164L242 756H368L242 579Z"  />
<glyph unicode="&#x172;" horiz-adv-x="726" d="M221 698V287Q221 189 255 145T362 101Q440 101 476 145T512 287V698H647V277Q647 27 433 -6Q413 -27 401 -43T381 -72T371 -95T368 -116Q368 -137 382 -145T414 -154Q427 -154 441 -152T471 -142L481 -201Q459 -209 439 -212T397 -216Q377 -216 357 -212T321 -199T295 -173T285 -131Q285 -101 299 -74T352 -12Q279 -11 228 8T143 63T95 152T79 277V698H221Z"  />
<glyph unicode="&#x173;" horiz-adv-x="627" d="M428 85Q403 45 361 17T251 -12Q210 -12 177 2T120 42T83 106T70 188V515H202V248Q202 214 206 187T221 140T251 109T299 98Q328 98 350 110T389 144T413 195T421 258V515H554V153Q554 112 554 72T559 0H507Q485 -23 472 -40T450 -70T439 -95T436 -116Q436 -137 450 -145T482 -154Q495 -154 509 -152T539 -142L549 -201Q527 -209 507 -212T465 -216Q445 -216 425 -212T389 -199T363 -173T353 -131Q353 -115 357 -100T370 -70T395 -37T434 0Q432 16 431 37T430 85H428Z"  />
<glyph unicode="&#x174;" horiz-adv-x="1036" d="M544 467Q541 479 538 495T530 530T523 566T518 598H516Q514 584 511 567T505 531T499 496T493 467L389 0H211L18 698H169L270 280Q272 271 276 250T286 204T296 153T303 109H305Q308 127 312 152T322 203T331 250T337 280L428 698H615L711 280Q713 271 717 250T726 203T735 152T743 109H745Q748 126 752 151T762 202T771 248T778 280L878 698H1018L831 0H654L544 467ZM571 914L677 737H585L515 849L444 737H355L468 914H571Z"  />
<glyph unicode="&#x175;" horiz-adv-x="897" d="M174 0L14 515H157L233 236Q236 224 240 207T248 171T256 135T262 104H264Q266 117 270 135T278 171T287 207T295 235L369 515H534L614 236Q617 224 621 207T630 171T638 135T644 104H646Q648 117 652 134T660 171T668 207T675 235L750 515H883L724 0H559L478 295Q471 320 464 356T452 418H450Q445 392 437 356T421 295L340 0H174ZM516 756L622 579H530L460 691L389 579H300L413 756H516Z"  />
<glyph unicode="&#x176;" horiz-adv-x="665" d="M171 698L250 557Q260 540 272 517T297 469T320 424T338 389H340Q347 402 358 423T382 469T407 516T429 557L506 698H659L405 277V0H264V278L6 698H171ZM389 914L495 737H403L333 849L262 737H173L286 914H389Z"  />
<glyph unicode="&#x177;" horiz-adv-x="560" d="M158 515L238 266Q249 234 261 191T285 108H287Q298 148 310 190T334 266L414 515H549L346 -36Q331 -76 313 -110T269 -169T211 -208T135 -222Q110 -222 84 -218T39 -208L49 -108Q80 -118 115 -118Q148 -118 172 -97T212 -22L12 515H158ZM342 756L448 579H356L286 691L215 579H126L239 756H342Z"  />
<glyph unicode="&#x178;" horiz-adv-x="665" d="M171 698L250 557Q260 540 272 517T297 469T320 424T338 389H340Q347 402 358 423T382 469T407 516T429 557L506 698H659L405 277V0H264V278L6 698H171ZM500 773H385V890H500V773ZM178 890H293V773H178V890Z"  />
<glyph unicode="&#x179;" horiz-adv-x="560" d="M520 581Q442 470 384 389T285 251T219 163T183 117H528V0H33V119Q99 215 156 295T258 435T331 533T369 582H46V698H520V581ZM300 737H220L304 914H443L300 737Z"  />
<glyph unicode="&#x17A;" horiz-adv-x="504" d="M461 408Q393 329 346 275T266 186T215 131T186 101H470V0H34V112Q106 194 155 249T236 338T285 390T309 415H43V515H461V408ZM267 579H187L271 756H410L267 579Z"  />
<glyph unicode="&#x17B;" horiz-adv-x="560" d="M520 581Q442 470 384 389T285 251T219 163T183 117H528V0H33V119Q99 215 156 295T258 435T331 533T369 582H46V698H520V581ZM351 770H214V898H351V770Z"  />
<glyph unicode="&#x17C;" horiz-adv-x="504" d="M461 408Q393 329 346 275T266 186T215 131T186 101H470V0H34V112Q106 194 155 249T236 338T285 390T309 415H43V515H461V408ZM330 613H193V741H330V613Z"  />
<glyph unicode="&#x17D;" horiz-adv-x="560" d="M520 581Q442 470 384 389T285 251T219 163T183 117H528V0H33V119Q99 215 156 295T258 435T331 533T369 582H46V698H520V581ZM235 737L129 914H221L291 802L362 914H451L338 737H235Z"  />
<glyph unicode="&#x17E;" horiz-adv-x="504" d="M461 408Q393 329 346 275T266 186T215 131T186 101H470V0H34V112Q106 194 155 249T236 338T285 390T309 415H43V515H461V408ZM208 579L102 756H194L264 644L335 756H424L311 579H208Z"  />
<glyph unicode="&#x192;" horiz-adv-x="596" d="M215 331H112V405H230L250 502Q261 556 277 595T317 660T377 698T461 710Q478 710 501 707T541 699L523 591Q499 601 471 601Q451 601 438 596T416 577T401 540T387 483L371 405H486V331H356L289 -2Q278 -56 262 -95T222 -160T164 -198T81 -210Q64 -210 43 -207T4 -199L22 -91Q46 -101 71 -101Q90 -101 102 -96T124 -77T139 -40T152 17L215 331Z"  />
<glyph unicode="&#x218;" horiz-adv-x="548" d="M458 571Q416 588 382 594T316 601Q260 601 228 580T195 522Q195 506 200 493T219 467T257 442T321 415Q418 380 462 332T506 206Q506 156 488 116T435 47T352 3T243 -12Q145 -12 58 18L71 141Q116 119 157 110T235 101Q291 101 326 123T362 188Q362 208 356 223T335 253T293 280T227 308Q134 342 92 388T50 508Q50 554 68 591T119 655T198 696T300 710Q347 710 387 705T469 685L458 571ZM242 -233H168L222 -62H355L242 -233Z"  />
<glyph unicode="&#x219;" horiz-adv-x="447" d="M48 121Q86 103 122 95T193 86Q227 86 252 99T277 141Q277 154 273 164T257 183T227 200T176 220Q102 245 71 278T39 369Q39 406 53 435T95 484T159 516T243 527Q324 527 383 503L372 403Q308 432 249 432Q215 432 193 418T171 378Q171 365 175 356T190 339T219 324T265 307Q299 296 326 283T372 251T401 209T411 152Q411 112 396 82T353 30T286 -1T200 -12Q158 -12 119 -6T41 15L48 121ZM198 -233H124L178 -62H311L198 -233Z"  />
<glyph unicode="&#x21A;" horiz-adv-x="565" d="M547 580L352 583V0H209V583L18 580V698H547V580ZM247 -233H173L227 -62H360L247 -233Z"  />
<glyph unicode="&#x21B;" horiz-adv-x="388" d="M10 416V515H111V623L237 666V515H360V416H237V215Q237 156 252 129T317 102Q342 102 366 110L369 7Q350 0 327 -3T277 -6Q188 -6 149 40T109 188V416H10ZM183 -233H109L163 -62H296L183 -233Z"  />
<glyph unicode="&#x237;" horiz-adv-x="288" d="M-7 -117Q-2 -118 3 -118T13 -119Q51 -119 64 -96T77 -18V515H211V-36Q211 -222 43 -222Q29 -222 15 -221T-12 -217L-7 -117Z"  />
<glyph unicode="&#x2C6;" horiz-adv-x="500" d="M305 756L411 579H319L249 691L178 579H89L202 756H305Z"  />
<glyph unicode="&#x2C7;" horiz-adv-x="500" d="M195 579L89 756H181L251 644L322 756H411L298 579H195Z"  />
<glyph unicode="&#x2C9;" horiz-adv-x="500" d="M104 692H396V625H104V692Z"  />
<glyph unicode="&#x2D8;" horiz-adv-x="500" d="M154 756Q156 712 183 685T250 657Q292 657 316 684T350 756H418Q413 721 400 690T365 636T314 600T249 586Q215 586 186 600T134 639T99 693T85 756H154Z"  />
<glyph unicode="&#x2D9;" horiz-adv-x="500" d="M320 613H183V741H320V613Z"  />
<glyph unicode="&#x2DA;" horiz-adv-x="500" d="M252 767Q273 767 291 759T324 736T347 703T355 663Q355 641 347 622T324 589T291 567T250 559Q229 559 211 567T178 589T155 622T147 663Q147 684 155 703T177 736T211 759T252 767ZM249 720Q226 720 210 704T194 664Q194 640 210 623T249 605Q273 605 290 622T307 662Q307 686 290 703T249 720Z"  />
<glyph unicode="&#x2DB;" horiz-adv-x="500" d="M325 15Q298 -12 282 -32T256 -67T243 -93T239 -116Q239 -137 253 -145T285 -154Q298 -154 312 -152T342 -142L352 -201Q330 -209 310 -212T268 -216Q248 -216 228 -212T192 -199T166 -173T156 -131Q156 -113 161 -97T177 -64T207 -27T255 15H325Z"  />
<glyph unicode="&#x2DC;" horiz-adv-x="500" d="M427 720Q421 660 396 628T326 595Q301 595 248 615Q216 627 201 631T175 636Q155 636 145 626T129 589H77Q84 646 111 678T183 711Q203 711 221 706T271 688Q295 677 308 674T333 670Q369 670 375 720H427Z"  />
<glyph unicode="&#x2DD;" horiz-adv-x="500" d="M350 579H269L366 756H494L350 579ZM166 579H88L166 756H292L166 579Z"  />
<glyph unicode="&#x394;" horiz-adv-x="716" d="M277 698H436L682 131V0H34V131L277 698ZM178 129H530L410 432Q404 447 396 468T381 512T367 555T356 590H354Q350 576 343 556T328 513T311 469T297 432L178 129Z"  />
<glyph unicode="&#x3A9;" horiz-adv-x="792" d="M437 0V117Q500 172 536 240T573 394Q573 448 560 487T523 551T466 589T394 601Q356 601 324 589T269 550T233 485T220 393Q220 308 256 240T355 117V0H54V129H84Q122 129 151 129T211 125L212 127Q150 179 110 252T69 413Q69 486 92 542T159 635T264 691T402 710Q475 710 534 691T636 634T700 542T723 417Q723 373 712 332T682 254T637 185T580 127L581 125Q612 128 641 128T708 129H738V0H437Z"  />
<glyph unicode="&#x3BC;" horiz-adv-x="657" d="M428 97Q402 47 359 18T259 -12Q244 -12 229 -9T204 -1L201 -3Q202 -13 202 -30T204 -67T205 -108T206 -149V-210H73V515H205V248Q205 214 208 187T220 140T247 109T291 98Q324 98 348 115T389 161T413 230T421 315V515H554V172Q554 141 560 128T588 115Q590 115 595 115T604 117L609 -1Q600 -3 586 -4T560 -6Q499 -6 469 17T430 97H428Z"  />
<glyph unicode="&#x3C0;" horiz-adv-x="660" d="M510 211Q510 159 523 137T578 115Q581 115 590 115T604 118L611 0Q600 -3 583 -4T552 -6Q471 -6 431 33T390 164V383H244L218 0H78L133 383H22V515H640V383H510V211Z"  />
<glyph unicode="&#x2013;" horiz-adv-x="500" d="M500 322V220H0V322H500Z"  />
<glyph unicode="&#x2014;" horiz-adv-x="1000" d="M880 322V220H120V322H880Z"  />
<glyph unicode="&#x2018;" horiz-adv-x="280" d="M238 734L176 494H41L130 734H238Z"  />
<glyph unicode="&#x2019;" horiz-adv-x="280" d="M42 494L105 734H239L151 494H42Z"  />
<glyph unicode="&#x201A;" horiz-adv-x="280" d="M42 -132L105 109H240L151 -132H42Z"  />
<glyph unicode="&#x201C;" horiz-adv-x="480" d="M438 734L375 494H240L329 734H438ZM238 734L176 494H41L130 734H238Z"  />
<glyph unicode="&#x201D;" horiz-adv-x="480" d="M42 494L105 734H240L151 494H42ZM242 494L304 734H439L350 494H242Z"  />
<glyph unicode="&#x201E;" horiz-adv-x="480" d="M242 -132L303 109H439L350 -132H242ZM42 -132L105 109H240L151 -132H42Z"  />
<glyph unicode="&#x2020;" horiz-adv-x="596" d="M80 527H241V698H355V527H516V436H355V0H241V436H80V527Z"  />
<glyph unicode="&#x2021;" horiz-adv-x="596" d="M80 265H241V436H80V527H241V698H355V527H516V436H355V265H516V173H355V0H241V173H80V265Z"  />
<glyph unicode="&#x2022;" horiz-adv-x="500" d="M252 521Q287 521 318 507T372 470T409 415T423 348Q423 312 410 281T373 225T318 188T250 174Q214 174 182 187T127 225T90 281T76 349Q76 385 89 416T127 471T183 507T252 521Z"  />
<glyph unicode="&#x2026;" horiz-adv-x="1000" d="M96 140H237V0H96V140ZM429 140H570V0H429V140ZM762 140H903V0H762V140Z"  />
<glyph unicode="&#x2030;" horiz-adv-x="1338" d="M240 421Q269 421 288 446T308 528Q308 582 289 605T240 628Q211 628 192 605T172 528Q172 471 191 446T240 421ZM240 341Q200 341 168 354T112 392T77 451T64 528Q64 619 112 664T240 710Q319 710 367 665T416 528Q416 486 404 452T368 393T313 355T240 341ZM738 736L293 -21H209L654 736H738ZM692 68Q721 68 740 93T760 175Q760 229 741 252T692 275Q663 275 644 252T624 175Q624 118 643 93T692 68ZM692 -12Q652 -12 620 1T564 39T529 98T516 175Q516 266 564 311T692 357Q771 357 819 312T868 175Q868 133 856 99T820 40T765 2T692 -12ZM1098 68Q1127 68 1146 93T1166 175Q1166 229 1147 252T1098 275Q1069 275 1050 252T1030 175Q1030 118 1049 93T1098 68ZM1098 -12Q1058 -12 1026 1T970 39T935 98T922 175Q922 266 970 311T1098 357Q1177 357 1225 312T1274 175Q1274 133 1262 99T1226 40T1171 2T1098 -12Z"  />
<glyph unicode="&#x2039;" horiz-adv-x="327" d="M156 455H280L172 253L280 52H156L40 253L156 455Z"  />
<glyph unicode="&#x203A;" horiz-adv-x="327" d="M171 52H47L155 253L47 455H171L287 253L171 52Z"  />
<glyph unicode="&#x2044;" horiz-adv-x="140" d="M324 742L-91 -22H-175L240 742H324Z"  />
<glyph unicode="&#x20AC;" horiz-adv-x="596" d="M520 580Q497 585 480 587T441 590Q378 590 325 556T251 459H494L484 386H238Q236 378 236 370T236 354Q236 346 236 339T238 325H477L467 252H250Q270 183 321 148T442 113Q463 113 481 115T520 122L526 1Q483 -7 436 -7Q369 -7 314 11T216 63T146 145T107 252H37L46 325H98Q97 332 97 339T97 354Q97 362 97 370T98 386H37L46 459H109Q124 515 154 561T226 639T322 689T439 707Q469 707 495 705T539 699L520 580Z"  />
<glyph unicode="&#x2113;" horiz-adv-x="472" d="M81 364Q81 402 82 442T89 520T106 593T139 654T191 695T268 710Q345 710 382 665T420 545Q420 430 368 338T224 187Q235 144 255 127T310 109Q331 109 349 112T382 119L387 7Q335 -6 283 -6Q203 -6 161 26T100 130Q65 118 28 112V218Q58 224 85 233Q83 262 82 294T81 364ZM210 376Q210 356 210 339T211 305Q253 346 272 404T292 541Q292 570 284 588T258 607Q229 607 220 551T210 376Z"  />
<glyph unicode="&#x2122;" horiz-adv-x="900" d="M196 625H85V682H380V625H269V332H196V625ZM436 682H544L631 418H634L715 682H821V332H755V617H752L656 332H601L504 617H501V332H436V682Z"  />
<glyph unicode="&#x2126;" horiz-adv-x="792" d="M437 0V117Q500 172 536 240T573 394Q573 448 560 487T523 551T466 589T394 601Q356 601 324 589T269 550T233 485T220 393Q220 308 256 240T355 117V0H54V129H84Q122 129 151 129T211 125L212 127Q150 179 110 252T69 413Q69 486 92 542T159 635T264 691T402 710Q475 710 534 691T636 634T700 542T723 417Q723 373 712 332T682 254T637 185T580 127L581 125Q612 128 641 128T708 129H738V0H437Z"  />
<glyph unicode="&#x212E;" horiz-adv-x="853" d="M743 136Q717 107 686 80T615 33T526 0T413 -12Q339 -12 271 12T152 82T69 194T38 344Q38 424 70 491T157 607T284 683T437 710Q533 710 604 678T722 595T793 480T817 350V346H204L196 336V106Q244 62 300 43T419 24Q507 24 569 56T675 136H743ZM660 391V596Q607 645 550 659T437 674Q409 674 378 670T316 657T255 630T196 587V391L204 382H652L660 391Z"  />
<glyph unicode="&#x2202;" horiz-adv-x="614" d="M405 454Q385 498 352 535T277 603T190 658T102 700L188 777Q270 741 341 696T464 591T545 457T575 287Q575 219 555 164T499 70T412 10T298 -12Q239 -12 190 6T106 57T50 138T30 244Q30 300 48 347T97 427T172 480T265 499Q302 499 339 488T403 454H405ZM304 403Q274 403 250 392T208 359T181 310T172 247Q172 211 182 183T210 134T252 104T303 93Q358 93 395 134T432 249Q432 285 422 313T395 362T354 392T304 403Z"  />
<glyph unicode="&#x2206;" horiz-adv-x="716" d="M277 698H436L682 131V0H34V131L277 698ZM178 129H530L410 432Q404 447 396 468T381 512T367 555T356 590H354Q350 576 343 556T328 513T311 469T297 432L178 129Z"  />
<glyph unicode="&#x220F;" horiz-adv-x="784" d="M700 -210H557V648H227V-210H84V766H700V-210Z"  />
<glyph unicode="&#x2211;" horiz-adv-x="703" d="M315 65Q300 45 284 24T252 -17T222 -55T196 -86L197 -87Q212 -87 235 -87T286 -86T343 -85T398 -84H671V-210H36V-93L330 287L49 659V766H657V650H417Q392 650 366 650T314 651T267 652T230 653L229 652Q240 638 254 620T283 582T313 541T343 501L491 299L315 65Z"  />
<glyph unicode="&#x2212;" horiz-adv-x="596" d="M36 315H560V207H36V315Z"  />
<glyph unicode="&#x2215;" horiz-adv-x="140" d="M324 742L-91 -22H-175L240 742H324Z"  />
<glyph unicode="&#x2219;" horiz-adv-x="260" d="M59 340H202V200H59V340Z"  />
<glyph unicode="&#x221A;" horiz-adv-x="654" d="M314 49Q318 37 323 18T334 -23T345 -64T353 -98H355Q357 -82 360 -62T367 -21T374 20T381 54L528 766H658L433 -210H277L147 155H18V264H245L314 49Z"  />
<glyph unicode="&#x221E;" horiz-adv-x="756" d="M330 257Q310 308 284 334T223 361Q178 361 159 331T139 254Q139 232 144 212T160 177T186 153T221 144Q261 144 286 173T330 257ZM357 151Q328 82 291 51T202 19Q163 19 133 36T81 85T49 161T38 258Q38 309 50 351T86 424T143 472T219 490Q284 490 326 458T399 358Q428 427 464 458T554 490Q593 490 623 473T675 424T707 348T718 251Q718 200 706 158T670 85T613 37T537 19Q472 19 430 51T357 151ZM426 252Q446 201 472 175T533 148Q578 148 597 178T617 255Q617 277 612 297T596 332T570 356T535 365Q495 365 470 336T426 252Z"  />
<glyph unicode="&#x222B;" horiz-adv-x="382" d="M99 561Q99 668 143 714T287 760Q307 760 328 758T366 750L355 640Q330 651 304 651Q269 651 255 631T241 553V-22Q241 -129 197 -175T55 -221Q35 -221 15 -219T-22 -211L-11 -101Q1 -106 12 -109T38 -112Q71 -112 85 -92T99 -14V561Z"  />
<glyph unicode="&#x2248;" horiz-adv-x="596" d="M553 342Q531 315 495 299T420 283Q378 283 347 296T287 324T230 352T165 365Q123 365 92 343T43 292V417Q65 444 101 460T176 476Q218 476 249 463T309 435T366 407T431 394Q473 394 504 416T553 467V342ZM553 106Q531 79 495 63T420 47Q378 47 347 60T287 88T230 116T165 129Q123 129 92 107T43 56V181Q65 208 101 224T176 240Q218 240 249 227T309 199T366 171T431 158Q473 158 504 180T553 231V106Z"  />
<glyph unicode="&#x2260;" horiz-adv-x="596" d="M449 426H560V318H392L331 205H560V97H273L198 -44H71L146 97H36V205H204L265 318H36V426H322L398 567H525L449 426Z"  />
<glyph unicode="&#x2264;" horiz-adv-x="596" d="M40 108H556V0H40V108ZM40 266V418L556 549V437L341 387Q322 382 291 376T228 364T167 353T124 345V343Q138 340 166 335T227 323T291 309T341 298L556 249V136L40 266Z"  />
<glyph unicode="&#x2265;" horiz-adv-x="596" d="M556 0H40V108H556V0ZM40 136V249L255 298Q274 302 305 309T368 322T429 334T472 343V345Q458 347 430 352T369 364T305 376T255 387L40 437V549L556 418V266L40 136Z"  />
<glyph unicode="&#x25CA;" horiz-adv-x="548" d="M36 349L201 698H347L512 349L347 0H201L36 349ZM157 349L215 228Q221 216 229 198T246 161T262 123T274 93H276Q280 104 287 122T302 160T319 198T333 228L390 347L330 470Q324 481 316 499T300 537T286 575T276 605H274Q270 594 263 576T246 538T229 500T215 470L157 349Z"  />
<glyph unicode="&#xFB01;" horiz-adv-x="670" d="M372 646Q347 657 321 657Q283 657 269 634T254 553V515H372V416H254V0H120V416H19V515H120V551Q120 658 163 709T306 760Q326 760 346 758T383 750L372 646ZM459 613V741H593V613H459ZM459 515H593V0H459V515Z"  />
<glyph unicode="&#xFB02;" horiz-adv-x="670" d="M372 646Q347 657 321 657Q283 657 269 634T254 553V515H372V416H254V0H120V416H19V515H120V551Q120 658 163 709T306 760Q326 760 346 758T383 750L372 646ZM459 756H593V0H459V756Z"  />

</font>
</defs>
</svg>
