<?xml  version="1.0" encoding="UTF-8"?>
<!DOCTYPE svg PUBLIC "-//W3C//DTD SVG 1.0//EN" "http://www.w3.org/TR/2001/REC-SVG-20010904/DTD/svg10.dtd" >
<svg xmlns="http://www.w3.org/2000/svg" >
<metadata>
<version>1.0</version>
<id><![CDATA[Frutiger Neue W02 Light]]></id>
<vendor>Monotype Imaging Inc.</vendor>
<credits>
<name>Fonts.com WebFonts</name>
<URL>http://webfonts.fonts.com</URL>
<role>Home of the Web fonts</role>
</credits>
<license>
<URL>http://webfonts.fonts.com/Legal</URL>
</license>
<copyright><![CDATA[Copyright © 2009 Linotype GmbH, www.linotype.com. All rights reserved. This font software may not be reproduced, modified, disclosed or transferred without the express written approval of Linotype GmbH. Frutiger is a trademark of Linotype Corp. registered in the U.S. Patent and Trademark Office and may be registered in certain other jurisdictions in the name of Linotype Corp. or its licensee Linotype GmbH. This typeface is original artwork of Adrian Frutiger and Linotype Design Studio. The design may be protected in certain jurisdictions.]]></copyright>
<trademark><![CDATA[Frutiger is a trademark of Linotype Corp. registered in the U.S. Patent and Trademark Office and may be registered in certain other jurisdictions in the name of Linotype Corp. or its licensee Linotype GmbH.]]></trademark>
<licensee>
<name></name>
</licensee>
</metadata>
<defs >
<font horiz-adv-x="538" id="997ff52e-2b03-4091-8fb4-0b36654c16c5">
<font-face font-family="" panose-1="2 11 4 3 4 3 4 2 2 3" ascent="955" descent="-240" units-per-em="1000" alphabetic="0">
</font-face>
<missing-glyph horiz-adv-x="0" />

<glyph unicode="&#xA;" />
<glyph unicode="&#xD;" horiz-adv-x="0" />
<glyph unicode=" " horiz-adv-x="232" />
<glyph unicode="!" horiz-adv-x="298" d="M177 173H122L112 698H188L177 173ZM190 0H109V80H190V0Z"  />
<glyph unicode="&quot;" horiz-adv-x="404" d="M104 414L94 698H160L149 414H104ZM255 414L244 698H310L300 414H255Z"  />
<glyph unicode="#" horiz-adv-x="574" d="M97 0L136 211H29V264H145L175 429H70V483H185L225 696H286L247 483H377L416 696H478L438 483H544V429H429L398 264H504V211H389L350 0H288L327 211H197L158 0H97ZM367 429H238L207 264H337L367 429Z"  />
<glyph unicode="$" horiz-adv-x="574" d="M452 610Q418 627 379 636T300 645V389Q356 366 393 344T453 296T484 243T493 181Q493 143 479 112T440 56T378 16T298 -4V-92H255V-5Q213 -4 168 3T82 26L89 91Q134 69 173 60T255 50V337Q207 357 174 377T119 419T88 468T78 527Q78 563 91 592T127 644T184 680T257 698V790H300V700Q383 700 460 674L452 610ZM257 645Q205 639 176 609T146 532Q146 490 171 460T257 404V645ZM298 53Q355 58 389 92T424 178Q424 201 418 221T398 258T359 291T298 322V53Z"  />
<glyph unicode="%" horiz-adv-x="941" d="M242 709Q316 709 358 660T400 526Q400 438 357 389T238 339Q163 339 120 388T76 522Q76 610 120 659T242 709ZM238 663Q189 663 162 626T135 521Q135 458 162 422T238 385Q286 385 313 422T341 526Q341 593 315 628T238 663ZM289 -21H238L653 735H705L289 -21ZM708 360Q782 360 823 311T865 177Q865 90 822 40T703 -11Q629 -11 586 38T542 173Q542 261 586 310T708 360ZM704 314Q655 314 628 277T601 173Q601 108 628 72T703 35Q751 35 779 72T807 176Q807 242 781 278T704 314Z"  />
<glyph unicode="&amp;" horiz-adv-x="701" d="M624 380Q622 317 601 249T543 130L663 0H576L501 82Q457 34 405 12T290 -10Q239 -10 198 3T128 42T84 104T68 185Q68 254 107 301T234 384Q191 429 170 467T148 551Q148 585 161 614T199 664T256 696T328 708Q403 708 448 667T494 560Q494 498 453 454T326 369Q370 319 414 270T503 171Q530 215 544 268T560 380H624ZM293 406Q359 435 394 470T429 557Q429 602 400 628T324 654Q300 654 280 646T246 625T223 593T215 554Q215 535 219 518T232 484T257 448T293 406ZM268 343Q198 315 168 277T137 187Q137 155 149 129T182 83T232 54T296 44Q345 44 387 62T464 123L268 343Z"  />
<glyph unicode="&apos;" horiz-adv-x="254" d="M104 414L94 698H160L149 414H104Z"  />
<glyph unicode="(" horiz-adv-x="320" d="M141 308Q141 196 179 84T283 -140H226Q194 -91 166 -38T118 72T86 188T74 310Q74 371 85 431T117 547T166 657T226 760H283Q217 648 179 534T141 308Z"  />
<glyph unicode=")" horiz-adv-x="320" d="M187 311Q187 423 150 535T45 760H103Q135 711 162 658T210 547T242 430T254 309Q254 247 243 188T211 73T163 -37T103 -140H45Q112 -28 149 85T187 311Z"  />
<glyph unicode="*" horiz-adv-x="482" d="M264 591L412 648L430 591L277 549L381 424L332 387L242 524L153 387L104 422L206 549L52 592L71 648L220 591L210 752H271L264 591Z"  />
<glyph unicode="+" horiz-adv-x="574" d="M260 229H34V285H260V513H319V285H540V229H319V0H260V229Z"  />
<glyph unicode="&#x2c;" horiz-adv-x="234" d="M97 -134H43L104 97H176L97 -134Z"  />
<glyph unicode="-" horiz-adv-x="329" d="M288 239H42V293H288V239Z"  />
<glyph unicode="." horiz-adv-x="234" d="M158 0H75V84H158V0Z"  />
<glyph unicode="/" horiz-adv-x="452" d="M127 0H69L325 698H382L127 0Z"  />
<glyph unicode="0" horiz-adv-x="574" d="M293 709Q403 709 460 614T517 343Q517 264 503 199T461 88T389 15T287 -11Q228 -11 185 15T113 88T70 202T56 350Q56 524 115 616T293 709ZM286 650Q210 650 169 574T128 351Q128 199 169 123T287 47Q363 47 404 123T446 349Q446 498 404 574T286 650Z"  />
<glyph unicode="1" horiz-adv-x="574" d="M356 0H287V436Q287 458 287 485T288 539T289 588T291 624H289Q273 609 251 589T207 551L166 517L129 563L294 698H356V0Z"  />
<glyph unicode="2" horiz-adv-x="574" d="M94 667Q135 687 178 698T271 709Q315 709 353 698T420 663T465 604T482 522Q482 445 434 366T286 187Q242 144 205 112T135 57V55Q158 56 185 56T239 57T293 58T342 59H496V0H68V67Q157 143 221 206T328 323T390 426T410 519Q410 553 399 578T367 619T321 644T264 652Q226 652 187 641T106 606L94 667Z"  />
<glyph unicode="3" horiz-adv-x="574" d="M194 336Q186 336 175 336T156 335V392Q164 391 175 391T194 391Q298 391 355 423T413 526Q413 559 400 583T365 622T313 645T252 653Q213 653 176 645T94 617L88 678Q130 695 171 702T258 709Q307 709 348 698T418 663T464 607T480 530Q480 492 467 463T429 414T372 381T300 366V363Q339 361 373 350T432 318T471 265T486 192Q486 145 467 107T415 43T334 3T229 -11Q188 -11 146 -4T60 17L67 79Q112 60 151 52T229 44Q266 44 300 53T360 80T401 128T417 197Q417 269 361 302T194 336Z"  />
<glyph unicode="4" horiz-adv-x="574" d="M440 223H538V164H440V0H374V164H34V226L346 698H440V223ZM374 440Q374 487 375 543T379 657H377Q370 643 359 624T335 584T308 540T282 499L102 223H374V440Z"  />
<glyph unicode="5" horiz-adv-x="574" d="M473 640H171L166 414Q212 429 269 429Q321 429 363 415T436 373T483 306T500 218Q500 166 482 124T431 51T350 5T245 -11Q208 -11 171 -5T96 13L99 78Q132 62 170 53T243 44Q285 44 319 56T378 90T416 143T430 214Q430 293 383 334T247 375Q211 375 174 366T104 344L109 698H473V640Z"  />
<glyph unicode="6" horiz-adv-x="574" d="M476 629Q447 642 420 647T364 653Q309 653 266 630T194 564T148 464T131 335H134Q157 385 206 411T313 438Q359 438 397 422T461 378T502 309T517 222Q517 173 501 131T457 57T387 7T297 -11Q185 -11 125 71T65 314Q65 402 84 474T142 599T235 680T363 709Q395 709 423 705T482 689L476 629ZM300 384Q267 384 239 372T189 338T155 289T142 227Q142 190 153 157T184 98T233 59T296 44Q331 44 359 57T407 93T437 147T448 216Q448 292 411 338T300 384Z"  />
<glyph unicode="7" horiz-adv-x="574" d="M488 637L221 0H146L419 638H66V698H488V637Z"  />
<glyph unicode="8" horiz-adv-x="574" d="M348 365Q388 353 420 337T474 298T509 247T521 181Q521 136 504 101T455 41T381 3T285 -10Q233 -10 190 3T117 41T70 101T53 180Q53 248 97 292T221 364V365Q148 392 111 433T74 535Q74 574 89 605T133 660T202 695T291 708Q337 708 375 696T440 663T482 610T497 541Q497 482 459 439T348 366V365H348ZM295 389Q321 399 344 413T386 445T414 486T425 538Q425 595 386 624T285 654Q225 654 185 624T145 536Q145 506 157 483T191 441T239 411T295 389ZM276 337Q199 311 162 274T125 182Q125 118 169 81T287 44Q322 44 352 53T403 79T437 121T450 178Q450 233 409 271T276 337Z"  />
<glyph unicode="9" horiz-adv-x="574" d="M92 71Q121 57 150 51T209 45Q264 45 307 69T379 135T424 236T441 365H438Q415 316 366 291T261 266Q213 266 176 281T112 325T71 393T57 479Q57 528 73 570T117 643T186 691T277 709Q390 709 449 628T508 386Q508 298 489 225T431 100T338 18T210 -11Q178 -11 148 -7T86 11L92 71ZM273 320Q307 320 335 331T385 363T418 412T430 472Q430 509 420 542T390 600T342 639T279 654Q244 654 216 642T167 607T137 553T126 486Q126 409 162 365T273 320Z"  />
<glyph unicode=":" horiz-adv-x="262" d="M172 0H90V84H172V0ZM172 424H90V508H172V424Z"  />
<glyph unicode=";" horiz-adv-x="262" d="M97 -134H43L104 97H176L97 -134ZM172 424H90V508H172V424Z"  />
<glyph unicode="&lt;" horiz-adv-x="574" d="M36 233V290L539 475V411L265 316Q249 311 227 304T181 289T135 274T99 263V261Q113 257 135 250T180 236T226 221T265 207L539 112V49L36 233Z"  />
<glyph unicode="=" horiz-adv-x="574" d="M34 132V187H540V132H34ZM34 330V385H540V330H34Z"  />
<glyph unicode="&gt;" horiz-adv-x="574" d="M539 291V233L36 49V112L309 207Q325 213 347 220T394 235T439 250T476 261V263Q461 267 440 273T394 287T348 302T309 316L36 412V474L539 291Z"  />
<glyph unicode="?" horiz-adv-x="475" d="M73 680Q108 694 145 700T218 706Q263 706 301 696T366 666T409 615T425 542Q425 488 399 442T316 335Q298 315 286 298T266 265T255 232T251 196V173H188V190Q188 217 191 238T202 278T226 319T265 368Q314 424 335 460T356 535Q356 564 345 585T315 620T270 640T212 647Q179 647 145 641T78 619L73 680ZM260 0H179V81H260V0Z"  />
<glyph unicode="@" horiz-adv-x="1000" d="M769 -51Q717 -77 655 -91T518 -106Q424 -106 347 -79T216 -2T132 119T102 279Q102 368 135 444T226 577T364 665T537 697Q618 697 684 673T798 606T872 504T899 372Q899 316 884 265T840 176T773 114T687 91Q644 91 622 111T600 164Q600 180 604 199H602Q550 91 445 91Q378 91 343 134T307 250Q307 301 323 349T369 435T438 496T524 519Q575 519 604 495T646 425H648Q652 440 658 461T670 503H726Q710 454 695 407T669 318T650 244T643 189Q643 137 699 137Q732 137 759 157T805 209T835 284T846 370Q846 433 824 484T762 573T665 630T539 651Q457 651 388 623T269 544T190 425T161 278Q161 200 186 138T257 31T371 -36T521 -60Q581 -60 640 -47T753 -5L769 -51ZM523 472Q491 472 463 453T414 403T380 332T367 249Q367 198 391 169T460 139Q494 139 523 161T573 218T607 295T619 376Q619 421 594 446T523 472Z"  />
<glyph unicode="A" horiz-adv-x="687" d="M378 698Q452 522 525 349T672 0H596L518 189H164L87 0H13L305 698H378H378ZM393 499Q388 511 381 529T367 566T352 605T341 639H339Q334 624 327 606T313 568T299 530T287 499L186 246H495L393 499Z"  />
<glyph unicode="B" horiz-adv-x="578" d="M98 698H254Q307 698 352 688T429 657T480 602T499 520Q499 461 461 419T354 362V360Q426 352 470 308T515 195Q515 141 495 104T439 43T357 10T258 0H98V698ZM166 389H249Q288 389 321 396T378 418T415 457T429 515Q429 581 382 610T248 640H166V389ZM166 57H247Q344 57 394 90T445 196Q445 267 397 300T248 333H166V57Z"  />
<glyph unicode="C" horiz-adv-x="613" d="M565 617Q537 631 500 637T423 644Q358 644 305 622T213 561T153 468T131 349Q131 283 153 229T214 136T310 76T435 55Q468 55 501 60T567 79L572 12Q543 2 507 -2T432 -7Q349 -7 280 18T162 89T85 201T58 349Q58 428 85 493T160 606T277 679T427 705Q466 705 503 700T573 682L565 617Z"  />
<glyph unicode="D" horiz-adv-x="704" d="M240 698Q328 698 402 678T531 616T615 507T645 348Q645 253 613 187T525 80T396 19T240 0H98V698H240ZM167 60H236Q313 60 375 76T482 128T550 217T574 347Q574 428 549 484T479 574T372 623T236 638H167V60Z"  />
<glyph unicode="E" horiz-adv-x="525" d="M462 0H98V698H454V638H167V390H436V332H167V60H462V0Z"  />
<glyph unicode="F" horiz-adv-x="488" d="M98 0V698H441V638H167V384H431V326H167V0H98Z"  />
<glyph unicode="G" horiz-adv-x="711" d="M610 605Q568 626 525 635T435 645Q369 645 314 624T218 564T155 471T132 351Q132 284 153 230T214 136T308 76T429 54Q464 54 497 58T560 74V314H393V372H629V27Q579 10 529 2T429 -7Q346 -7 278 19T160 92T85 205T58 352Q58 430 86 494T164 606T283 679T436 705Q484 705 528 698T617 671L610 605Z"  />
<glyph unicode="H" horiz-adv-x="700" d="M602 0H533V332H167V0H98V698H167V392H533V698H602V0Z"  />
<glyph unicode="I" horiz-adv-x="265" d="M167 0H98V698H167V0Z"  />
<glyph unicode="J" horiz-adv-x="352" d="M25 65Q43 59 57 56T89 52Q120 52 140 61T172 89T187 136T192 201V698H261V186Q261 144 253 109T226 47T176 7T99 -8Q60 -8 24 4L25 65Z"  />
<glyph unicode="K" horiz-adv-x="615" d="M166 0H98V698H166V378H168Q186 397 206 419T246 461T282 498T307 524L479 698H572L237 370L602 0H502L281 231Q264 250 234 282T168 356H166V0Z"  />
<glyph unicode="L" horiz-adv-x="477" d="M167 59H459V0H98V698H167V59Z"  />
<glyph unicode="M" horiz-adv-x="915" d="M406 216Q411 204 417 186T431 149T444 109T456 72H458Q463 88 470 108T484 148T498 186T510 216L705 698H817V0H748V482Q748 494 748 514T748 557T748 603T750 647H748Q736 612 721 573T695 511L484 0H423L219 500Q214 512 207 530T193 569T178 610T165 647H163Q164 627 164 604T165 557T165 514T165 482V0H98V698H213L406 216Z"  />
<glyph unicode="N" horiz-adv-x="714" d="M549 698H617V0H526L264 450Q252 470 238 495T210 545T184 595T163 636H161Q162 620 163 596T164 544T165 490T166 440V0H98V698H198L454 257Q465 239 479 214T506 163T532 113T553 72H555Q554 90 553 119T551 181T550 245T549 300V698Z"  />
<glyph unicode="O" horiz-adv-x="757" d="M386 709Q456 709 513 683T611 609T674 495T696 347Q696 265 674 199T610 87T511 15T382 -11Q309 -11 250 14T148 85T84 197T61 344Q61 428 84 495T149 610T252 683T386 709ZM377 651Q323 651 278 630T201 569T152 473T134 349Q134 280 151 225T201 130T280 69T382 47Q436 47 480 68T555 129T604 223T622 347Q622 417 605 473T556 569T479 630T377 651Z"  />
<glyph unicode="P" horiz-adv-x="541" d="M250 698Q367 698 435 649T504 497Q504 446 484 408T430 346T347 309T244 297H167V0H98V698H250ZM167 357H243Q335 357 384 389T434 497Q434 572 385 605T240 638H167V357Z"  />
<glyph unicode="Q" horiz-adv-x="757" d="M386 709Q456 709 513 683T611 609T674 495T696 347Q696 224 647 138T509 15L671 -134H575L439 -6Q425 -8 411 -9T382 -11Q309 -11 250 14T148 85T84 197T61 344Q61 428 84 495T149 610T252 683T386 709ZM377 651Q323 651 278 630T201 569T152 473T134 349Q134 280 151 225T201 130T280 69T382 47Q436 47 480 68T555 129T604 223T622 347Q622 417 605 473T556 569T479 630T377 651Z"  />
<glyph unicode="R" horiz-adv-x="584" d="M98 698H262Q373 698 438 655T503 521Q503 454 462 412T352 352V350Q383 339 403 317T441 260Q471 194 500 130T560 0H482L379 234Q368 259 356 276T329 304T294 320T245 325H167V0H98V698ZM167 382H247Q333 382 382 416T431 516Q431 582 384 610T247 638H167V382Z"  />
<glyph unicode="S" horiz-adv-x="510" d="M411 621Q349 650 279 650Q248 650 221 642T175 619T144 582T133 533Q133 510 140 491T165 455T211 421T282 384Q371 342 411 297T452 185Q452 141 436 105T389 43T317 3T225 -11Q182 -11 141 -4T64 18L72 86Q112 66 148 58T223 49Q295 49 338 84T381 178Q381 202 374 221T350 259T305 295T234 333Q189 354 157 374T103 417T72 467T62 529Q62 568 77 601T121 658T188 695T277 709Q355 709 420 684L411 621Z"  />
<glyph unicode="T" horiz-adv-x="520" d="M226 0V638L14 636V698H505V636L295 638V0H226Z"  />
<glyph unicode="U" horiz-adv-x="688" d="M601 279Q601 213 586 159T538 68T457 10T339 -11Q271 -11 223 10T145 69T101 160T87 279V698H156V293Q156 239 164 194T194 116T251 65T343 46Q399 46 435 64T493 116T523 194T532 294V698H601V279Z"  />
<glyph unicode="V" horiz-adv-x="632" d="M274 182Q278 170 283 154T295 121T306 87T316 56H318Q322 70 327 87T339 121T350 154T361 182L551 698H622L356 0H276L10 698H86L274 182Z"  />
<glyph unicode="W" horiz-adv-x="999" d="M526 529Q523 540 519 555T511 587T504 618T497 646H495Q490 622 482 588T467 529L314 0H227L18 698H93L241 180Q244 171 247 157T255 125T264 90T271 58H273Q276 72 280 89T288 123T296 155T303 180L450 698H545L697 180Q700 171 704 157T712 125T721 90T729 58H731Q734 72 737 89T745 122T753 154T760 180L910 698H982L769 0H682L526 529Z"  />
<glyph unicode="X" horiz-adv-x="634" d="M318 407Q325 417 336 434T359 469T381 502T397 525L516 698H597L360 364L620 0H534L398 195Q378 224 355 259T315 322Q306 308 296 292T274 259T251 225T231 195L97 0H13L273 364L34 698H117L238 525Q244 517 254 502T277 469T300 434T318 407Z"  />
<glyph unicode="Y" horiz-adv-x="621" d="M94 698L200 532Q213 512 229 487T260 436T289 389T311 354H313Q321 367 334 389T363 437T395 487T424 532L530 698H613L346 296V0H276V294L9 698H94Z"  />
<glyph unicode="Z" horiz-adv-x="532" d="M485 634Q399 501 334 401T223 230T148 117T108 59H495V0H34V58Q107 172 172 272T287 449T369 575T412 638H43V698H485V634H485Z"  />
<glyph unicode="[" horiz-adv-x="320" d="M262 711H156V-91H262V-140H91V760H262V711Z"  />
<glyph unicode="\" horiz-adv-x="452" d="M125 698L381 0H323L68 698H125Z"  />
<glyph unicode="]" horiz-adv-x="320" d="M68 760H239V-140H68V-91H174V710H68V760Z"  />
<glyph unicode="^" horiz-adv-x="574" d="M258 697H315L475 265H414L340 475Q335 490 328 512T314 556T300 600T289 636H287Q282 621 276 600T262 557T247 512T234 475L161 265H101L258 697Z"  />
<glyph unicode="_" horiz-adv-x="500" d="M500 -78V-128H0V-78H500Z"  />
<glyph unicode="`" horiz-adv-x="500" d="M129 756H202L299 579H247L129 756Z"  />
<glyph unicode="a" horiz-adv-x="536" d="M102 477Q137 498 180 508T264 519Q315 519 350 505T408 464T441 402T451 320Q451 296 451 270T450 221T449 179T448 149Q448 107 450 67T454 0H394Q393 6 393 18T392 42Q392 52 392 66T394 92H392Q372 48 327 21T221 -7Q143 -7 96 33T49 141Q49 222 118 263T319 305Q336 305 355 305T389 302V317Q389 349 382 376T359 423T318 454T255 465Q218 465 180 453T106 416L102 477ZM390 253Q367 256 330 256Q227 256 173 229T118 141Q118 96 149 70T232 44Q310 44 350 93T390 253Z"  />
<glyph unicode="b" horiz-adv-x="599" d="M150 99Q150 73 149 44T146 0H85Q88 32 89 72T90 154V756H155V545Q155 507 155 467T152 407H154Q179 456 226 487T331 519Q383 519 423 499T490 443T532 361T546 260Q546 202 532 153T489 67T420 10T325 -11Q268 -11 223 19T152 99H150ZM318 44Q355 44 384 59T434 102T466 169T477 256Q477 299 467 337T436 403T387 448T320 464Q286 464 256 449T203 406T167 340T153 255Q153 210 165 172T198 105T250 60T318 44Z"  />
<glyph unicode="c" horiz-adv-x="455" d="M415 434Q369 457 307 457Q265 457 231 442T173 400T136 336T123 256Q123 211 135 174T172 109T230 67T308 52Q338 52 365 58T419 78L424 18Q398 7 369 1T304 -6Q247 -6 201 12T121 65T71 147T53 253Q53 309 71 357T122 440T201 494T305 514Q337 514 366 510T421 494L415 434Z"  />
<glyph unicode="d" horiz-adv-x="599" d="M508 154Q508 113 509 73T513 0H452Q450 22 450 48T449 99H447Q421 50 377 20T273 -11Q220 -11 180 9T111 63T68 145T53 248Q53 306 67 356T110 442T180 498T275 519Q330 519 375 492T444 418H446Q444 437 444 472T443 545V756H508V154ZM281 464Q245 464 216 449T166 406T134 339T122 251Q122 208 133 171T164 105T213 61T280 44Q314 44 344 59T396 101T431 167T444 251Q444 297 433 336T400 403T348 448T281 464Z"  />
<glyph unicode="e" horiz-adv-x="539" d="M120 242Q121 151 171 98T310 45Q348 45 381 54T448 81L451 19Q386 -11 308 -11Q184 -11 119 60T53 257Q53 316 70 364T117 446T190 500T284 519Q380 519 434 458T488 276Q488 269 488 260T486 242H120ZM423 295Q423 381 386 424T283 467Q217 467 173 423T122 295H423Z"  />
<glyph unicode="f" horiz-adv-x="342" d="M328 698Q316 701 304 703T280 705Q232 705 214 673T195 586V505H321V452H195V0H131V452H18V505H131V584Q131 623 139 655T164 710T209 747T275 760Q290 760 304 759T334 752L328 698Z"  />
<glyph unicode="g" horiz-adv-x="594" d="M279 464Q243 464 214 449T163 405T131 339T120 254Q120 209 131 172T162 109T211 69T277 54Q312 54 342 69T395 110T429 174T442 255Q442 300 431 338T398 404T346 448T279 464ZM505 508V27Q505 -90 445 -156T266 -222Q170 -222 90 -188L97 -122Q176 -165 264 -165Q315 -165 349 -150T403 -108T433 -44T442 39Q442 53 442 71T444 106H442Q419 61 375 31T268 0Q218 0 178 18T109 70T65 150T50 253Q50 311 66 360T111 444T181 499T273 519Q306 519 332 511T380 489T417 457T444 418H446Q444 442 444 465T444 508H505Z"  />
<glyph unicode="h" horiz-adv-x="592" d="M155 560Q155 541 155 520T155 477T154 439T153 411H155Q181 459 226 489T331 519Q382 519 416 502T471 455T499 383T508 292V0H442V269Q442 315 437 351T417 413T379 451T316 464Q282 464 253 451T202 411T168 346T155 255V0H90V756H155V560Z"  />
<glyph unicode="i" horiz-adv-x="246" d="M161 621H84V702H161V621ZM155 0H90V508H155V0Z"  />
<glyph unicode="j" horiz-adv-x="246" d="M161 621H84V702H161V621ZM155 -47Q155 -87 149 -119T127 -174T86 -209T22 -222Q1 -222 -19 -217V-161Q0 -165 15 -165Q61 -165 75 -134T90 -42V508H155V-47Z"  />
<glyph unicode="k" horiz-adv-x="510" d="M233 183Q212 205 192 227T157 270H155V0H90V756H155V294H157Q171 310 191 330T235 372L388 508H478L217 286L500 0H410L233 183Z"  />
<glyph unicode="l" horiz-adv-x="246" d="M155 0H90V756H155V0Z"  />
<glyph unicode="m" horiz-adv-x="881" d="M154 413Q177 461 219 490T318 519Q375 519 410 487T460 400Q484 456 528 487T632 519Q679 519 711 503T762 457T789 386T797 296V0H731V275Q731 316 727 351T711 411T677 450T617 464Q579 464 553 448T509 402T484 330T476 237V0H410V287Q410 378 386 421T303 464Q271 464 244 451T198 410T167 344T155 252V0H90V355Q90 396 89 436T85 508H148Q150 488 151 461T152 413H154Z"  />
<glyph unicode="n" horiz-adv-x="592" d="M155 413Q182 462 226 490T330 519Q382 519 416 502T470 455T499 383T508 292V0H442V269Q442 316 436 352T416 413T378 451T316 464Q281 464 252 451T201 412T167 347T155 255V0H90V355Q90 396 89 436T85 508H149Q151 488 152 461T153 413H155Z"  />
<glyph unicode="o" horiz-adv-x="593" d="M301 519Q353 519 397 500T472 445T522 360T540 252Q540 193 522 145T472 62T395 8T296 -11Q243 -11 198 8T121 62T71 145T53 252Q53 312 71 361T122 445T200 499T301 519ZM295 464Q256 464 224 449T170 406T135 339T122 252Q122 205 134 167T170 101T225 59T296 44Q335 44 367 59T423 101T458 167T471 254Q471 302 459 340T423 406T368 449T295 464Z"  />
<glyph unicode="p" horiz-adv-x="598" d="M90 355Q90 396 89 436T85 508H148Q149 500 149 487T150 460T151 433T152 411H154Q183 465 229 492T333 519Q381 519 420 500T486 447T529 364T545 257Q545 197 530 148T486 63T418 9T330 -11Q270 -11 225 19T155 100H153Q154 92 154 77T155 44T155 7T155 -27V-210H90V355ZM317 464Q281 464 251 448T198 404T164 337T152 251Q152 207 164 169T199 103T252 60T318 44Q354 44 383 59T433 102T465 168T476 251Q476 348 434 406T317 464Z"  />
<glyph unicode="q" horiz-adv-x="598" d="M443 -27Q443 -12 443 6T444 43T445 76T446 99H444Q415 47 372 18T269 -11Q220 -11 180 8T112 63T68 148T52 258Q52 315 67 363T111 445T180 499T268 519Q389 519 444 416H446Q446 434 448 461T452 508H511Q509 491 509 470T508 428V-210H443V-27ZM277 464Q242 464 214 449T165 406T134 339T123 254Q123 208 134 170T165 103T215 60T280 44Q316 44 346 59T398 102T432 168T445 250Q445 298 433 337T399 405T346 448T277 464Z"  />
<glyph unicode="r" horiz-adv-x="355" d="M155 409Q172 457 210 488T297 519Q319 519 339 513L338 453Q328 456 318 457T296 458Q264 458 238 444T194 403T165 341T155 263V0H90V355Q90 396 89 436T85 508H149Q150 498 150 485T151 459T152 432T153 409H155Z"  />
<glyph unicode="s" horiz-adv-x="403" d="M52 76Q113 44 180 44Q202 44 222 49T257 65T282 93T292 133Q292 152 286 166T267 192T231 215T177 240Q149 252 127 264T88 292T62 329T53 378Q53 411 66 437T101 482T154 509T219 519Q284 519 335 499L329 441Q301 455 275 460T219 465Q178 465 148 444T117 382Q117 347 143 327T226 285Q295 259 326 226T358 139Q358 101 344 73T305 26T249 -2T183 -11Q145 -11 112 -5T45 15L52 76Z"  />
<glyph unicode="t" horiz-adv-x="360" d="M187 505H321V451H187V168Q187 107 207 77T274 46Q302 46 327 57L330 5Q300 -6 264 -6Q223 -6 196 5T152 38T130 89T123 157V451H14V505H123V621L187 643V505Z"  />
<glyph unicode="u" horiz-adv-x="592" d="M437 96Q411 45 366 17T261 -11Q167 -11 125 45T83 216V508H149V237Q149 188 155 152T175 91T214 56T275 44Q309 44 338 56T390 94T424 159T436 252V508H501V152Q501 111 502 72T506 0H443Q442 8 442 20T441 46T440 73T439 96H437Z"  />
<glyph unicode="v" horiz-adv-x="473" d="M201 171Q205 159 210 144T220 112T229 79T237 51H239Q243 63 248 79T258 112T268 144T277 171L392 508H458L274 0H198L16 508H87L201 171Z"  />
<glyph unicode="w" horiz-adv-x="816" d="M184 0L17 508H88L192 169Q200 145 208 111T224 51H226Q229 63 233 78T241 110T250 141T259 168L369 508H449L559 169Q567 145 576 111T592 51H594Q601 76 610 110T627 168L733 508H799L630 0H552L434 366Q429 383 422 410T409 458H407Q405 448 402 436T395 411T388 387T381 366L264 0H184Z"  />
<glyph unicode="x" horiz-adv-x="481" d="M243 299Q256 322 271 349T297 391L371 508H445L281 266L461 0H382L300 128Q294 138 286 151T268 179T252 206T239 229Q234 220 226 206T209 178T192 151T178 128L96 0H19L200 266L33 508H113L188 391Q198 376 214 349T243 299Z"  />
<glyph unicode="y" horiz-adv-x="473" d="M202 172Q206 160 211 145T221 113T230 80T238 51H240Q243 64 248 80T258 112T268 144T277 172L392 508H459L263 -39Q247 -83 231 -117T196 -175T150 -210T88 -222Q77 -222 63 -221T34 -214L40 -160Q50 -163 62 -165T86 -168Q107 -168 122 -161T151 -137T177 -91T205 -16L16 508H87L202 172Z"  />
<glyph unicode="z" horiz-adv-x="467" d="M422 450Q346 352 292 282T201 166T143 93T110 54H426V0H38V57Q124 168 181 240T273 357T326 424T352 455H51V508H422V450H422Z"  />
<glyph unicode="{" horiz-adv-x="320" d="M12 333Q47 337 67 348T99 378T113 421T116 479V545Q116 598 122 637T148 702T201 742T290 760V712Q228 707 205 672T181 568V512Q181 465 178 431T165 373T135 333T82 311V309Q115 300 134 285T164 245T178 187T181 108V52Q181 -18 206 -52T290 -92V-140Q237 -136 204 -122T151 -83T124 -19T116 74V141Q116 173 113 198T99 242T68 272T12 287V333Z"  />
<glyph unicode="|" horiz-adv-x="280" d="M109 786H171V-214H109V786Z"  />
<glyph unicode="}" horiz-adv-x="320" d="M308 287Q273 283 253 272T221 242T207 199T204 141V74Q204 21 198 -17T172 -82T119 -122T30 -140V-92Q92 -87 115 -52T139 52V108Q139 154 142 188T155 247T185 286T238 309V311Q205 320 186 335T156 375T142 433T139 512V568Q139 638 114 672T30 712V760Q82 756 116 742T169 702T196 638T204 546V479Q204 447 207 422T221 378T252 348T308 333V287Z"  />
<glyph unicode="~" horiz-adv-x="574" d="M538 251Q515 222 479 203T404 184Q363 184 335 198T281 229T230 260T167 274Q148 274 129 268T93 250T61 223T36 191V260Q59 291 95 310T170 330Q212 330 241 316T294 285T345 254T407 240Q446 240 481 263T538 321V251Z"  />
<glyph unicode="&#xA0;" horiz-adv-x="232" />
<glyph unicode="&#xA1;" horiz-adv-x="298" d="M120 334H175L185 -189H109L120 334ZM107 508H188V427H107V508Z"  />
<glyph unicode="&#xA2;" horiz-adv-x="574" d="M457 638L416 508Q443 503 467 493L462 433Q447 441 432 446T399 453L279 66Q313 52 353 52Q383 52 410 57T465 78L470 18Q444 7 413 1T347 -6Q324 -6 302 -3T260 7L218 -130H176L223 23Q164 54 132 113T99 253Q99 309 117 357T168 440T247 494T351 514Q357 514 362 514T374 513L413 638H457ZM168 256Q168 201 187 157T242 86L357 457H353Q312 457 278 442T220 400T182 336T168 256Z"  />
<glyph unicode="&#xA3;" horiz-adv-x="574" d="M505 629Q484 639 458 644T406 650Q358 650 325 634T272 587T244 516T235 424V389H406V345H235V57H506V0H71V57H168V345H81V389H167V437Q167 566 229 636T402 706Q436 706 460 702T512 690L505 629Z"  />
<glyph unicode="&#xA4;" horiz-adv-x="574" d="M288 520Q312 520 337 512T387 485L491 589L529 552L425 446Q442 421 449 397T456 350Q456 302 425 253L529 147L491 109L387 215Q362 195 337 188T286 180Q262 180 237 187T186 215L82 109L44 147L149 253Q132 278 125 302T118 350Q118 373 125 397T149 446L44 552L82 589L186 484Q211 504 236 512T288 520ZM286 233Q335 233 367 266T399 350Q399 375 391 396T367 434T331 458T286 467Q238 467 207 434T175 350Q175 324 183 303T207 266T242 242T286 233Z"  />
<glyph unicode="&#xA5;" horiz-adv-x="574" d="M201 536Q210 518 222 494T248 445T272 398T289 361H291Q297 375 308 397T331 445T356 494T378 536L463 698H537L337 333H473V289H320V223H473V179H320V0H257V179H106V223H257V289H106V333H240L38 698H116L201 536Z"  />
<glyph unicode="&#xA6;" horiz-adv-x="280" d="M109 786H171V405H109V786ZM109 167H171V-214H109V167Z"  />
<glyph unicode="&#xA7;" horiz-adv-x="574" d="M445 625Q379 652 317 652Q261 652 227 627T192 560Q192 528 212 508T281 468Q330 448 368 431T433 395T474 351T488 290Q488 242 463 208T398 154Q428 134 444 107T461 45Q461 6 446 -24T403 -75T341 -105T265 -116Q225 -116 184 -109T105 -87L113 -23Q192 -58 267 -58Q320 -58 356 -34T393 39Q393 57 388 70T371 94T340 116T294 139Q251 159 214 174T150 207T108 251T92 317Q92 365 118 398T185 450Q156 470 141 495T126 555Q126 589 140 617T180 665T241 697T319 708Q392 708 452 687L445 625ZM227 427Q194 413 174 387T154 325Q154 303 161 288T184 259T224 235T281 210L355 180Q386 192 406 216T426 278Q426 321 394 346T296 399L227 427Z"  />
<glyph unicode="&#xA8;" horiz-adv-x="500" d="M197 622H126V699H197V622ZM374 622H303V699H374V622Z"  />
<glyph unicode="&#xA9;" horiz-adv-x="900" d="M450 661Q384 661 328 637T230 570T164 471T140 350Q140 285 164 229T229 129T327 62T450 37Q516 37 572 61T670 129T736 229T760 352Q760 415 736 471T671 569T573 636T450 661ZM450 701Q523 701 587 674T699 600T774 488T802 350Q802 276 775 212T699 100T587 25T450 -3Q377 -3 313 24T201 100T126 213T98 352Q98 425 125 488T201 599T313 674T450 701ZM561 494Q527 511 478 511Q444 511 416 500T366 468T334 419T322 357Q322 320 334 291T367 240T418 208T482 197Q502 197 522 200T564 214L567 166Q531 153 482 153Q435 153 396 167T329 207T285 271T269 357Q269 401 285 437T329 500T395 541T478 556Q530 556 564 542L561 494Z"  />
<glyph unicode="&#xAA;" horiz-adv-x="411" d="M292 492Q279 494 266 495T240 496Q177 496 138 477T98 412Q98 380 119 362T176 344Q226 344 259 379T292 492ZM296 375Q276 339 242 319T165 298Q106 298 71 328T35 411Q35 476 88 507T233 539Q258 539 291 536Q291 589 269 618T190 647Q162 647 134 639T81 613L77 668Q102 681 131 688T195 696Q276 696 312 655T349 544Q349 529 349 510T348 474T347 443T346 422V404Q346 378 347 353T350 304H298Q296 312 296 320T296 335Q296 342 296 351T297 375H296H296Z"  />
<glyph unicode="&#xAB;" horiz-adv-x="486" d="M299 250L433 49H371L230 250L370 447H432L299 250ZM118 250L252 49H190L49 250L188 447H251L118 250Z"  />
<glyph unicode="&#xAC;" horiz-adv-x="574" d="M33 345V399H521V116H467V345H33Z"  />
<glyph unicode="&#xAD;" horiz-adv-x="329" d="M288 239H42V293H288V239Z"  />
<glyph unicode="&#xAE;" horiz-adv-x="500" d="M188 619H238Q274 619 296 609T318 568Q318 551 306 539T268 522V520Q283 516 290 507T303 486L333 423H296L269 482Q262 496 254 502T226 509H220V423H188V619ZM220 536H231Q255 536 268 543T282 564Q282 582 269 587T231 592H220V536ZM254 692Q289 692 320 678T375 640T412 585T426 517Q426 480 413 448T375 391T319 354T251 340Q214 340 182 354T125 392T88 448T74 518Q74 554 88 586T126 641T183 678T254 692ZM248 664Q218 664 192 652T146 620T115 574T103 517Q103 486 114 459T146 412T193 380T250 368Q280 368 307 380T354 412T385 459T397 518Q397 548 385 574T353 621T306 652T248 664Z"  />
<glyph unicode="&#xAF;" horiz-adv-x="500" d="M381 632H118V678H381V632Z"  />
<glyph unicode="&#xB0;" horiz-adv-x="400" d="M203 731Q232 731 258 720T303 688T334 642T346 585Q346 555 335 528T304 481T257 450T200 438Q170 438 143 449T97 481T66 528T54 586Q54 616 65 642T97 688T145 719T203 731ZM199 689Q178 689 160 681T127 659T105 625T97 585Q97 563 105 544T127 511T160 489T200 481Q244 481 274 511T304 585Q304 630 274 659T199 689Z"  />
<glyph unicode="&#xB1;" horiz-adv-x="574" d="M34 4V59H540V4H34ZM260 308H34V364H260V536H318V364H540V308H318V134H260V308Z"  />
<glyph unicode="&#xB2;" horiz-adv-x="380" d="M62 828Q115 853 177 853Q205 853 230 846T273 825T303 790T314 739Q314 694 286 649T197 546Q169 520 147 502T106 471V469Q135 471 170 471T234 471H323V428H48V475Q102 519 141 555T206 622T243 681T255 735Q255 774 230 792T169 810Q145 810 121 804T70 783L62 828Z"  />
<glyph unicode="&#xB3;" horiz-adv-x="380" d="M129 625Q125 625 118 625T106 624V666Q111 665 117 665T129 665Q192 665 226 683T260 740Q260 777 231 794T163 811Q138 811 114 806T64 790L60 835Q86 845 113 849T170 853Q235 853 274 826T314 746Q314 701 283 677T204 648V646Q254 643 285 618T317 543Q317 514 305 492T270 454T218 430T150 421Q124 421 98 425T44 437L48 484Q75 473 100 468T149 463Q196 463 229 483T262 548Q262 589 229 607T129 625Z"  />
<glyph unicode="&#xB4;" horiz-adv-x="500" d="M253 579H201L298 756H371L253 579Z"  />
<glyph unicode="&#xB5;" horiz-adv-x="621" d="M507 130Q507 103 508 87T514 62T525 50T543 47Q548 47 553 48T561 50L564 -1Q558 -3 548 -4T530 -6Q485 -6 468 19T449 107H447Q425 53 376 22T267 -10Q230 -10 203 3T159 38Q157 38 156 37Q157 27 157 11T159 -25T160 -66T161 -106V-207H96V508H160V236Q160 198 163 163T179 102T216 59T282 43Q318 43 347 59T397 101T429 159T442 223Q443 242 443 260T443 299V508H507V130Z"  />
<glyph unicode="&#xB6;" horiz-adv-x="608" d="M491 645V-200H431V645H314V-200H252V258Q207 261 170 277T105 321T63 386T48 471Q48 523 65 565T114 636T192 682T296 698H549V645H491Z"  />
<glyph unicode="&#xB7;" horiz-adv-x="234" d="M158 226H75V310H158V226Z"  />
<glyph unicode="&#xB8;" horiz-adv-x="500" d="M218 -67Q224 -65 230 -65T243 -65Q281 -65 305 -84T330 -138Q330 -161 321 -178T297 -206T262 -224T220 -230Q191 -230 167 -224L172 -191Q181 -193 191 -194T212 -195Q224 -195 236 -193T258 -184T274 -168T280 -143Q280 -119 263 -108T219 -96Q203 -96 181 -102L195 10H233L218 -67Z"  />
<glyph unicode="&#xB9;" horiz-adv-x="380" d="M239 428H184V650Q184 668 184 687T184 726T185 762T187 791H185Q177 783 162 771T133 747L109 728L80 763L190 847H239V428Z"  />
<glyph unicode="&#xBA;" horiz-adv-x="452" d="M225 646Q169 646 136 605T102 492Q102 426 136 387T227 347Q281 347 315 388T349 496Q349 563 316 604T225 646ZM228 696Q268 696 301 681T359 639T396 575T410 494Q410 451 397 415T360 353T301 312T225 297Q184 297 150 311T92 352T53 414T39 492Q39 537 52 574T91 639T151 681T228 696Z"  />
<glyph unicode="&#xBB;" horiz-adv-x="486" d="M116 447L255 250L114 49H52L186 250L54 447H116ZM297 447L437 250L296 49H234L368 250L235 447H297Z"  />
<glyph unicode="&#xBC;" horiz-adv-x="900" d="M279 -22H228L630 742H681L279 -22ZM239 281H184V503Q184 521 184 540T184 579T185 615T187 644H185Q177 636 162 624T133 600L109 581L80 616L190 700H239V281ZM810 138H870V96H810V0H757V96H547V141L739 419H810V138ZM757 249Q757 277 757 312T760 383H759Q754 373 746 360T730 334T714 307T698 284L598 138H757V249Z"  />
<glyph unicode="&#xBD;" horiz-adv-x="900" d="M279 -22H228L630 742H681L279 -22ZM239 281H184V503Q184 521 184 540T184 579T185 615T187 644H185Q177 636 162 624T133 600L109 581L80 616L190 700H239V281ZM582 400Q635 425 697 425Q725 425 750 418T793 397T823 362T834 311Q834 266 806 221T717 118Q689 92 667 74T626 43V41Q655 43 690 43T754 43H843V0H568V47Q622 91 661 127T726 194T763 253T775 307Q775 346 750 364T689 382Q665 382 641 376T590 355L582 400Z"  />
<glyph unicode="&#xBE;" horiz-adv-x="900" d="M279 -22H228L630 742H681L279 -22ZM810 138H870V96H810V0H757V96H547V141L739 419H810V138ZM757 249Q757 277 757 312T760 383H759Q754 373 746 360T730 334T714 307T698 284L598 138H757V249ZM129 478Q125 478 118 478T106 477V519Q111 518 117 518T129 518Q192 518 226 536T260 593Q260 630 231 647T163 664Q138 664 114 659T64 643L60 688Q86 698 113 702T170 706Q235 706 274 679T314 599Q314 554 283 530T204 501V499Q254 496 285 471T317 396Q317 367 305 345T270 307T218 283T150 274Q124 274 98 278T44 290L48 337Q75 326 100 321T149 316Q196 316 229 336T262 401Q262 442 229 460T129 478Z"  />
<glyph unicode="&#xBF;" horiz-adv-x="475" d="M400 -173Q365 -187 328 -193T255 -199Q210 -199 172 -189T107 -159T64 -108T48 -35Q48 19 74 65T157 172Q175 192 187 209T207 242T218 275T222 311V334H285V317Q285 290 282 269T271 229T247 188T208 139Q183 111 166 89T138 47T122 9T117 -28Q117 -57 128 -78T158 -113T203 -133T261 -140Q294 -140 328 -134T395 -112L400 -173ZM213 507H294V426H213V507Z"  />
<glyph unicode="&#xC0;" horiz-adv-x="687" d="M378 698Q452 522 525 349T672 0H596L518 189H164L87 0H13L305 698H378H378ZM393 499Q388 511 381 529T367 566T352 605T341 639H339Q334 624 327 606T313 568T299 530T287 499L186 246H495L393 499ZM284 890L372 750H319L208 890H284Z"  />
<glyph unicode="&#xC1;" horiz-adv-x="687" d="M378 698Q452 522 525 349T672 0H596L518 189H164L87 0H13L305 698H378H378ZM393 499Q388 511 381 529T367 566T352 605T341 639H339Q334 624 327 606T313 568T299 530T287 499L186 246H495L393 499ZM366 750H314L402 891H478L366 750Z"  />
<glyph unicode="&#xC2;" horiz-adv-x="687" d="M378 698Q452 522 525 349T672 0H596L518 189H164L87 0H13L305 698H378H378ZM393 499Q388 511 381 529T367 566T352 605T341 639H339Q334 624 327 606T313 568T299 530T287 499L186 246H495L393 499ZM427 750L344 854L256 750H199L310 895H379L486 750H427Z"  />
<glyph unicode="&#xC3;" horiz-adv-x="687" d="M378 698Q452 522 525 349T672 0H596L518 189H164L87 0H13L305 698H378H378ZM393 499Q388 511 381 529T367 566T352 605T341 639H339Q334 624 327 606T313 568T299 530T287 499L186 246H495L393 499ZM495 868Q490 823 469 798T413 772Q398 772 380 776T337 794Q314 805 300 811T272 817Q256 817 245 807T229 770H190Q195 814 217 839T277 864Q294 864 311 858T352 840Q375 829 388 825T413 820Q433 820 442 833T455 868H495Z"  />
<glyph unicode="&#xC4;" horiz-adv-x="687" d="M378 698Q452 522 525 349T672 0H596L518 189H164L87 0H13L305 698H378H378ZM393 499Q388 511 381 529T367 566T352 605T341 639H339Q334 624 327 606T313 568T299 530T287 499L186 246H495L393 499ZM289 782H218V862H289V782ZM466 782H395V862H466V782Z"  />
<glyph unicode="&#xC5;" horiz-adv-x="687" d="M378 698Q452 522 525 349T672 0H596L518 189H164L87 0H13L305 698H378H378ZM393 499Q388 511 381 529T367 566T352 605T341 639H339Q334 624 327 606T313 568T299 530T287 499L186 246H495L393 499ZM343 937Q364 937 382 929T413 908T435 876T443 838Q443 796 414 767T343 738Q299 738 271 767T242 838Q242 880 270 908T343 937ZM343 901Q317 901 299 883T280 838Q280 811 297 792T343 773Q369 773 387 792T406 840Q406 865 388 883T343 901Z"  />
<glyph unicode="&#xC6;" horiz-adv-x="907" d="M844 0H517L504 188H205L92 0H15L441 698H832V639H542L556 391H816V333H562L578 60H844V0ZM487 465Q486 482 485 507T482 560T479 611T477 650H475Q467 634 454 610T425 560T395 509T369 465L237 245H501L487 465Z"  />
<glyph unicode="&#xC7;" horiz-adv-x="613" d="M565 617Q537 631 500 637T423 644Q358 644 305 622T213 561T153 468T131 349Q131 283 153 229T214 136T310 76T435 55Q468 55 501 60T567 79L572 12Q543 2 507 -2T432 -7Q423 -7 414 -7T397 -6L385 -67Q391 -65 397 -65T410 -65Q448 -65 472 -84T497 -138Q497 -161 488 -178T464 -206T429 -224T387 -230Q358 -230 334 -224L339 -191Q348 -193 358 -194T379 -195Q391 -195 403 -193T425 -184T441 -168T447 -143Q447 -119 430 -108T386 -96Q370 -96 348 -102L360 -2Q292 8 236 36T141 110T80 215T58 349Q58 428 85 493T160 606T277 679T427 705Q466 705 503 700T573 682L565 617Z"  />
<glyph unicode="&#xC8;" horiz-adv-x="525" d="M462 0H98V698H454V638H167V390H436V332H167V60H462V0ZM227 890L315 750H262L151 890H227Z"  />
<glyph unicode="&#xC9;" horiz-adv-x="525" d="M462 0H98V698H454V638H167V390H436V332H167V60H462V0ZM290 750H238L326 891H402L290 750Z"  />
<glyph unicode="&#xCA;" horiz-adv-x="525" d="M462 0H98V698H454V638H167V390H436V332H167V60H462V0ZM362 750L279 854L191 750H134L245 895H314L421 750H362Z"  />
<glyph unicode="&#xCB;" horiz-adv-x="525" d="M462 0H98V698H454V638H167V390H436V332H167V60H462V0ZM226 782H155V862H226V782ZM403 782H332V862H403V782Z"  />
<glyph unicode="&#xCC;" horiz-adv-x="265" d="M167 0H98V698H167V0ZM81 890L169 750H116L5 890H81Z"  />
<glyph unicode="&#xCD;" horiz-adv-x="265" d="M167 0H98V698H167V0ZM153 750H101L189 891H265L153 750Z"  />
<glyph unicode="&#xCE;" horiz-adv-x="265" d="M167 0H98V698H167V0ZM219 750L136 854L48 750H-9L102 895H171L278 750H219Z"  />
<glyph unicode="&#xCF;" horiz-adv-x="265" d="M167 0H98V698H167V0ZM83 782H12V862H83V782ZM260 782H189V862H260V782Z"  />
<glyph unicode="&#xD0;" horiz-adv-x="704" d="M239 698Q327 698 401 678T530 616T614 507T644 348Q644 253 612 187T524 80T395 19T239 0H97V332H29V372H97V698H239ZM310 332H166V60H235Q312 60 374 76T481 128T549 217T573 347Q573 428 548 484T478 574T371 623T235 638H166V372H310V332Z"  />
<glyph unicode="&#xD1;" horiz-adv-x="714" d="M549 698H617V0H526L264 450Q252 470 238 495T210 545T184 595T163 636H161Q162 620 163 596T164 544T165 490T166 440V0H98V698H198L454 257Q465 239 479 214T506 163T532 113T553 72H555Q554 90 553 119T551 181T550 245T549 300V698ZM512 868Q507 823 486 798T430 772Q415 772 397 776T354 794Q331 805 317 811T289 817Q273 817 262 807T246 770H207Q212 814 234 839T294 864Q311 864 328 858T369 840Q392 829 405 825T430 820Q450 820 459 833T472 868H512Z"  />
<glyph unicode="&#xD2;" horiz-adv-x="757" d="M386 709Q456 709 513 683T611 609T674 495T696 347Q696 265 674 199T610 87T511 15T382 -11Q309 -11 250 14T148 85T84 197T61 344Q61 428 84 495T149 610T252 683T386 709ZM377 651Q323 651 278 630T201 569T152 473T134 349Q134 280 151 225T201 130T280 69T382 47Q436 47 480 68T555 129T604 223T622 347Q622 417 605 473T556 569T479 630T377 651ZM324 890L412 750H359L248 890H324Z"  />
<glyph unicode="&#xD3;" horiz-adv-x="757" d="M386 709Q456 709 513 683T611 609T674 495T696 347Q696 265 674 199T610 87T511 15T382 -11Q309 -11 250 14T148 85T84 197T61 344Q61 428 84 495T149 610T252 683T386 709ZM377 651Q323 651 278 630T201 569T152 473T134 349Q134 280 151 225T201 130T280 69T382 47Q436 47 480 68T555 129T604 223T622 347Q622 417 605 473T556 569T479 630T377 651ZM397 750H345L433 891H509L397 750Z"  />
<glyph unicode="&#xD4;" horiz-adv-x="757" d="M386 709Q456 709 513 683T611 609T674 495T696 347Q696 265 674 199T610 87T511 15T382 -11Q309 -11 250 14T148 85T84 197T61 344Q61 428 84 495T149 610T252 683T386 709ZM377 651Q323 651 278 630T201 569T152 473T134 349Q134 280 151 225T201 130T280 69T382 47Q436 47 480 68T555 129T604 223T622 347Q622 417 605 473T556 569T479 630T377 651ZM465 750L382 854L294 750H237L348 895H417L524 750H465Z"  />
<glyph unicode="&#xD5;" horiz-adv-x="757" d="M386 709Q456 709 513 683T611 609T674 495T696 347Q696 265 674 199T610 87T511 15T382 -11Q309 -11 250 14T148 85T84 197T61 344Q61 428 84 495T149 610T252 683T386 709ZM377 651Q323 651 278 630T201 569T152 473T134 349Q134 280 151 225T201 130T280 69T382 47Q436 47 480 68T555 129T604 223T622 347Q622 417 605 473T556 569T479 630T377 651ZM529 868Q524 823 503 798T447 772Q432 772 414 776T371 794Q348 805 334 811T306 817Q290 817 279 807T263 770H224Q229 814 251 839T311 864Q328 864 345 858T386 840Q409 829 422 825T447 820Q467 820 476 833T489 868H529Z"  />
<glyph unicode="&#xD6;" horiz-adv-x="757" d="M386 709Q456 709 513 683T611 609T674 495T696 347Q696 265 674 199T610 87T511 15T382 -11Q309 -11 250 14T148 85T84 197T61 344Q61 428 84 495T149 610T252 683T386 709ZM377 651Q323 651 278 630T201 569T152 473T134 349Q134 280 151 225T201 130T280 69T382 47Q436 47 480 68T555 129T604 223T622 347Q622 417 605 473T556 569T479 630T377 651ZM327 782H256V862H327V782ZM504 782H433V862H504V782Z"  />
<glyph unicode="&#xD7;" horiz-adv-x="574" d="M328 249L534 44L494 4L289 210L83 4L43 44L248 249L43 454L83 495L289 289L494 495L534 454L328 249Z"  />
<glyph unicode="&#xD8;" horiz-adv-x="757" d="M386 709Q492 709 569 649L627 727L662 703L601 620Q646 572 671 503T696 347Q696 265 674 199T610 87T511 15T382 -11Q321 -11 271 6T180 56L123 -21L87 4L148 86Q106 133 84 198T61 344Q61 428 84 495T149 610T252 683T386 709ZM623 347Q623 416 607 471T560 566L220 110Q285 47 382 47Q436 47 480 68T556 129T605 223T623 347ZM378 651Q324 651 279 630T202 569T153 473T135 349Q135 286 149 234T192 144L530 597Q468 651 378 651Z"  />
<glyph unicode="&#xD9;" horiz-adv-x="688" d="M601 279Q601 213 586 159T538 68T457 10T339 -11Q271 -11 223 10T145 69T101 160T87 279V698H156V293Q156 239 164 194T194 116T251 65T343 46Q399 46 435 64T493 116T523 194T532 294V698H601V279ZM291 890L379 750H326L215 890H291Z"  />
<glyph unicode="&#xDA;" horiz-adv-x="688" d="M601 279Q601 213 586 159T538 68T457 10T339 -11Q271 -11 223 10T145 69T101 160T87 279V698H156V293Q156 239 164 194T194 116T251 65T343 46Q399 46 435 64T493 116T523 194T532 294V698H601V279ZM358 750H306L394 891H470L358 750Z"  />
<glyph unicode="&#xDB;" horiz-adv-x="688" d="M601 279Q601 213 586 159T538 68T457 10T339 -11Q271 -11 223 10T145 69T101 160T87 279V698H156V293Q156 239 164 194T194 116T251 65T343 46Q399 46 435 64T493 116T523 194T532 294V698H601V279ZM427 750L344 854L256 750H199L310 895H379L486 750H427Z"  />
<glyph unicode="&#xDC;" horiz-adv-x="688" d="M601 279Q601 213 586 159T538 68T457 10T339 -11Q271 -11 223 10T145 69T101 160T87 279V698H156V293Q156 239 164 194T194 116T251 65T343 46Q399 46 435 64T493 116T523 194T532 294V698H601V279ZM290 782H219V862H290V782ZM467 782H396V862H467V782Z"  />
<glyph unicode="&#xDD;" horiz-adv-x="621" d="M94 698L200 532Q213 512 229 487T260 436T289 389T311 354H313Q321 367 334 389T363 437T395 487T424 532L530 698H613L346 296V0H276V294L9 698H94ZM334 750H282L370 891H446L334 750Z"  />
<glyph unicode="&#xDE;" horiz-adv-x="564" d="M167 698V585H246Q304 585 354 576T440 545T498 485T519 391Q519 333 497 295T438 235T351 203T246 194H167V0H98V698H167ZM167 252H237Q288 252 327 259T394 282T436 325T450 390Q450 466 396 496T236 526H167V252Z"  />
<glyph unicode="&#xDF;" horiz-adv-x="600" d="M91 484Q91 543 103 593T142 681T212 739T320 760Q363 760 399 748T460 711T500 653T515 573Q515 544 506 516T480 465T437 424T377 399V397Q414 393 446 378T501 338T538 279T551 202Q551 155 535 116T489 49T418 6T326 -9Q303 -9 280 -7T230 2L234 61Q258 53 281 50T325 46Q358 46 386 56T436 85T469 134T481 201Q481 282 431 323T284 364H264V422H280Q320 422 351 433T404 465T436 512T447 571Q447 635 413 672T319 709Q273 709 242 692T191 643T164 570T156 476V0H91V484Z"  />
<glyph unicode="&#xE0;" horiz-adv-x="536" d="M102 477Q137 498 180 508T264 519Q315 519 350 505T408 464T441 402T451 320Q451 296 451 270T450 221T449 179T448 149Q448 107 450 67T454 0H394Q393 6 393 18T392 42Q392 52 392 66T394 92H392Q372 48 327 21T221 -7Q143 -7 96 33T49 141Q49 222 118 263T319 305Q336 305 355 305T389 302V317Q389 349 382 376T359 423T318 454T255 465Q218 465 180 453T106 416L102 477ZM390 253Q367 256 330 256Q227 256 173 229T118 141Q118 96 149 70T232 44Q310 44 350 93T390 253ZM134 756H207L304 579H252L134 756Z"  />
<glyph unicode="&#xE1;" horiz-adv-x="536" d="M102 477Q137 498 180 508T264 519Q315 519 350 505T408 464T441 402T451 320Q451 296 451 270T450 221T449 179T448 149Q448 107 450 67T454 0H394Q393 6 393 18T392 42Q392 52 392 66T394 92H392Q372 48 327 21T221 -7Q143 -7 96 33T49 141Q49 222 118 263T319 305Q336 305 355 305T389 302V317Q389 349 382 376T359 423T318 454T255 465Q218 465 180 453T106 416L102 477ZM390 253Q367 256 330 256Q227 256 173 229T118 141Q118 96 149 70T232 44Q310 44 350 93T390 253ZM285 579H233L330 756H403L285 579Z"  />
<glyph unicode="&#xE2;" horiz-adv-x="536" d="M102 477Q137 498 180 508T264 519Q315 519 350 505T408 464T441 402T451 320Q451 296 451 270T450 221T449 179T448 149Q448 107 450 67T454 0H394Q393 6 393 18T392 42Q392 52 392 66T394 92H392Q372 48 327 21T221 -7Q143 -7 96 33T49 141Q49 222 118 263T319 305Q336 305 355 305T389 302V317Q389 349 382 376T359 423T318 454T255 465Q218 465 180 453T106 416L102 477ZM390 253Q367 256 330 256Q227 256 173 229T118 141Q118 96 149 70T232 44Q310 44 350 93T390 253ZM356 579L273 715L184 579H127L238 756H308L416 579H356Z"  />
<glyph unicode="&#xE3;" horiz-adv-x="536" d="M102 477Q137 498 180 508T264 519Q315 519 350 505T408 464T441 402T451 320Q451 296 451 270T450 221T449 179T448 149Q448 107 450 67T454 0H394Q393 6 393 18T392 42Q392 52 392 66T394 92H392Q372 48 327 21T221 -7Q143 -7 96 33T49 141Q49 222 118 263T319 305Q336 305 355 305T389 302V317Q389 349 382 376T359 423T318 454T255 465Q218 465 180 453T106 416L102 477ZM390 253Q367 256 330 256Q227 256 173 229T118 141Q118 96 149 70T232 44Q310 44 350 93T390 253ZM421 703Q416 658 395 633T341 607Q326 607 309 611T267 629Q244 640 231 645T205 651Q188 651 177 641T162 604H123Q128 648 149 672T209 697Q226 697 242 692T282 674Q305 663 318 659T342 654Q362 654 370 667T382 703H421Z"  />
<glyph unicode="&#xE4;" horiz-adv-x="536" d="M102 477Q137 498 180 508T264 519Q315 519 350 505T408 464T441 402T451 320Q451 296 451 270T450 221T449 179T448 149Q448 107 450 67T454 0H394Q393 6 393 18T392 42Q392 52 392 66T394 92H392Q372 48 327 21T221 -7Q143 -7 96 33T49 141Q49 222 118 263T319 305Q336 305 355 305T389 302V317Q389 349 382 376T359 423T318 454T255 465Q218 465 180 453T106 416L102 477ZM390 253Q367 256 330 256Q227 256 173 229T118 141Q118 96 149 70T232 44Q310 44 350 93T390 253ZM219 622H148V699H219V622ZM396 622H325V699H396V622Z"  />
<glyph unicode="&#xE5;" horiz-adv-x="536" d="M102 477Q137 498 180 508T264 519Q315 519 350 505T408 464T441 402T451 320Q451 296 451 270T450 221T449 179T448 149Q448 107 450 67T454 0H394Q393 6 393 18T392 42Q392 52 392 66T394 92H392Q372 48 327 21T221 -7Q143 -7 96 33T49 141Q49 222 118 263T319 305Q336 305 355 305T389 302V317Q389 349 382 376T359 423T318 454T255 465Q218 465 180 453T106 416L102 477ZM390 253Q367 256 330 256Q227 256 173 229T118 141Q118 96 149 70T232 44Q310 44 350 93T390 253ZM270 769Q291 769 309 761T340 740T362 709T370 671Q370 650 362 632T341 600T309 579T270 571Q226 571 198 600T169 671Q169 713 197 741T270 769ZM270 733Q244 733 226 715T207 670Q207 643 224 625T270 606Q296 606 314 624T333 672Q333 698 315 715T270 733Z"  />
<glyph unicode="&#xE6;" horiz-adv-x="860" d="M445 240Q446 150 496 97T633 43Q707 43 774 80L777 18Q745 3 707 -4T631 -11Q546 -11 493 25T416 126H414Q407 99 391 74T351 30T294 0T219 -11Q143 -11 96 28T49 136Q49 297 320 297Q333 297 351 297T385 294Q385 328 379 359T357 413T317 451T253 465Q217 465 179 453T106 416L102 477Q138 499 180 509T262 519Q332 519 370 489T426 407Q452 461 498 490T606 519Q702 519 755 457T809 274Q809 268 809 258T807 240H445H445ZM385 246Q370 247 356 247T326 248Q222 248 170 221T117 136Q117 94 148 67T228 40Q385 40 385 246ZM744 293Q744 378 707 423T604 468Q539 468 496 423T446 293H744Z"  />
<glyph unicode="&#xE7;" horiz-adv-x="455" d="M415 434Q369 457 307 457Q265 457 231 442T173 400T136 336T123 256Q123 211 135 174T172 109T230 67T308 52Q338 52 365 58T419 78L424 18Q398 7 369 1T304 -6H298L286 -67Q292 -65 298 -65T311 -65Q349 -65 373 -84T398 -138Q398 -161 389 -178T365 -206T330 -224T288 -230Q259 -230 235 -224L240 -191Q249 -193 259 -194T280 -195Q292 -195 304 -193T326 -184T342 -168T348 -143Q348 -119 331 -108T287 -96Q271 -96 249 -102L261 -3Q164 10 109 78T53 253Q53 309 71 357T122 440T201 494T305 514Q337 514 366 510T421 494L415 434Z"  />
<glyph unicode="&#xE8;" horiz-adv-x="539" d="M120 242Q121 151 171 98T310 45Q348 45 381 54T448 81L451 19Q386 -11 308 -11Q184 -11 119 60T53 257Q53 316 70 364T117 446T190 500T284 519Q380 519 434 458T488 276Q488 269 488 260T486 242H120ZM423 295Q423 381 386 424T283 467Q217 467 173 423T122 295H423ZM151 756H224L321 579H269L151 756Z"  />
<glyph unicode="&#xE9;" horiz-adv-x="539" d="M120 242Q121 151 171 98T310 45Q348 45 381 54T448 81L451 19Q386 -11 308 -11Q184 -11 119 60T53 257Q53 316 70 364T117 446T190 500T284 519Q380 519 434 458T488 276Q488 269 488 260T486 242H120ZM423 295Q423 381 386 424T283 467Q217 467 173 423T122 295H423ZM299 579H247L344 756H417L299 579Z"  />
<glyph unicode="&#xEA;" horiz-adv-x="539" d="M120 242Q121 151 171 98T310 45Q348 45 381 54T448 81L451 19Q386 -11 308 -11Q184 -11 119 60T53 257Q53 316 70 364T117 446T190 500T284 519Q380 519 434 458T488 276Q488 269 488 260T486 242H120ZM423 295Q423 381 386 424T283 467Q217 467 173 423T122 295H423ZM367 579L284 715L195 579H138L249 756H319L427 579H367Z"  />
<glyph unicode="&#xEB;" horiz-adv-x="539" d="M120 242Q121 151 171 98T310 45Q348 45 381 54T448 81L451 19Q386 -11 308 -11Q184 -11 119 60T53 257Q53 316 70 364T117 446T190 500T284 519Q380 519 434 458T488 276Q488 269 488 260T486 242H120ZM423 295Q423 381 386 424T283 467Q217 467 173 423T122 295H423ZM231 622H160V699H231V622ZM408 622H337V699H408V622Z"  />
<glyph unicode="&#xEC;" horiz-adv-x="246" d="M-13 756H60L157 579H105L-13 756ZM155 0H90V508H155V0Z"  />
<glyph unicode="&#xED;" horiz-adv-x="246" d="M148 579H96L193 756H266L148 579ZM155 0H90V508H155V0Z"  />
<glyph unicode="&#xEE;" horiz-adv-x="246" d="M155 0H90V508H155V0ZM210 579L127 715L38 579H-19L92 756H162L270 579H210Z"  />
<glyph unicode="&#xEF;" horiz-adv-x="246" d="M73 622H2V699H73V622ZM250 622H179V699H250V622ZM155 0H90V508H155V0Z"  />
<glyph unicode="&#xF0;" horiz-adv-x="591" d="M294 454Q255 454 223 439T169 397T134 331T121 247Q121 201 133 164T169 100T224 59T296 44Q336 44 368 59T424 102T459 168T471 252Q471 298 458 335T422 399T366 440T294 454ZM539 261Q539 204 523 155T475 69T399 11T296 -10Q242 -10 197 8T120 61T71 142T53 248Q53 305 70 353T118 435T194 488T292 507Q338 507 378 490T446 443H448Q442 466 428 493T393 548T349 599T298 642L174 567L145 605L259 672Q234 687 205 699T145 719L186 764Q205 758 221 752T251 738T281 723T313 703L404 760L437 725L354 673Q450 597 494 491T539 261Z"  />
<glyph unicode="&#xF1;" horiz-adv-x="592" d="M155 413Q182 462 226 490T330 519Q382 519 416 502T470 455T499 383T508 292V0H442V269Q442 316 436 352T416 413T378 451T316 464Q281 464 252 451T201 412T167 347T155 255V0H90V355Q90 396 89 436T85 508H149Q151 488 152 461T153 413H155ZM451 703Q446 658 425 633T371 607Q356 607 339 611T297 629Q274 640 261 645T235 651Q218 651 207 641T192 604H153Q158 648 179 672T239 697Q256 697 272 692T312 674Q335 663 348 659T372 654Q392 654 400 667T412 703H451Z"  />
<glyph unicode="&#xF2;" horiz-adv-x="593" d="M301 519Q353 519 397 500T472 445T522 360T540 252Q540 193 522 145T472 62T395 8T296 -11Q243 -11 198 8T121 62T71 145T53 252Q53 312 71 361T122 445T200 499T301 519ZM295 464Q256 464 224 449T170 406T135 339T122 252Q122 205 134 167T170 101T225 59T296 44Q335 44 367 59T423 101T458 167T471 254Q471 302 459 340T423 406T368 449T295 464ZM166 756H239L336 579H284L166 756Z"  />
<glyph unicode="&#xF3;" horiz-adv-x="593" d="M301 519Q353 519 397 500T472 445T522 360T540 252Q540 193 522 145T472 62T395 8T296 -11Q243 -11 198 8T121 62T71 145T53 252Q53 312 71 361T122 445T200 499T301 519ZM295 464Q256 464 224 449T170 406T135 339T122 252Q122 205 134 167T170 101T225 59T296 44Q335 44 367 59T423 101T458 167T471 254Q471 302 459 340T423 406T368 449T295 464ZM312 579H260L357 756H430L312 579Z"  />
<glyph unicode="&#xF4;" horiz-adv-x="593" d="M301 519Q353 519 397 500T472 445T522 360T540 252Q540 193 522 145T472 62T395 8T296 -11Q243 -11 198 8T121 62T71 145T53 252Q53 312 71 361T122 445T200 499T301 519ZM295 464Q256 464 224 449T170 406T135 339T122 252Q122 205 134 167T170 101T225 59T296 44Q335 44 367 59T423 101T458 167T471 254Q471 302 459 340T423 406T368 449T295 464ZM380 579L297 715L208 579H151L262 756H332L440 579H380Z"  />
<glyph unicode="&#xF5;" horiz-adv-x="593" d="M301 519Q353 519 397 500T472 445T522 360T540 252Q540 193 522 145T472 62T395 8T296 -11Q243 -11 198 8T121 62T71 145T53 252Q53 312 71 361T122 445T200 499T301 519ZM295 464Q256 464 224 449T170 406T135 339T122 252Q122 205 134 167T170 101T225 59T296 44Q335 44 367 59T423 101T458 167T471 254Q471 302 459 340T423 406T368 449T295 464ZM444 703Q439 658 418 633T364 607Q349 607 332 611T290 629Q267 640 254 645T228 651Q211 651 200 641T185 604H146Q151 648 172 672T232 697Q249 697 265 692T305 674Q328 663 341 659T365 654Q385 654 393 667T405 703H444Z"  />
<glyph unicode="&#xF6;" horiz-adv-x="593" d="M301 519Q353 519 397 500T472 445T522 360T540 252Q540 193 522 145T472 62T395 8T296 -11Q243 -11 198 8T121 62T71 145T53 252Q53 312 71 361T122 445T200 499T301 519ZM295 464Q256 464 224 449T170 406T135 339T122 252Q122 205 134 167T170 101T225 59T296 44Q335 44 367 59T423 101T458 167T471 254Q471 302 459 340T423 406T368 449T295 464ZM244 622H173V699H244V622ZM421 622H350V699H421V622Z"  />
<glyph unicode="&#xF7;" horiz-adv-x="574" d="M34 231V286H540V231H34ZM331 21H253V102H331V21ZM331 411H253V492H331V411Z"  />
<glyph unicode="&#xF8;" horiz-adv-x="593" d="M301 519Q376 519 435 477L477 534L508 511L465 453Q500 417 520 366T540 252Q540 193 522 145T472 62T395 8T296 -11Q255 -11 219 0T154 33L112 -25L80 -1L124 59Q90 94 72 143T53 252Q53 312 71 361T122 445T200 499T301 519ZM472 254Q472 345 427 402L190 81Q233 44 297 44Q336 44 368 59T423 101T459 167T472 254ZM295 464Q256 464 225 449T170 406T135 339T122 252Q122 165 162 110L399 429Q378 446 352 455T295 464Z"  />
<glyph unicode="&#xF9;" horiz-adv-x="592" d="M437 96Q411 45 366 17T261 -11Q167 -11 125 45T83 216V508H149V237Q149 188 155 152T175 91T214 56T275 44Q309 44 338 56T390 94T424 159T436 252V508H501V152Q501 111 502 72T506 0H443Q442 8 442 20T441 46T440 73T439 96H437ZM160 756H233L330 579H278L160 756Z"  />
<glyph unicode="&#xFA;" horiz-adv-x="592" d="M437 96Q411 45 366 17T261 -11Q167 -11 125 45T83 216V508H149V237Q149 188 155 152T175 91T214 56T275 44Q309 44 338 56T390 94T424 159T436 252V508H501V152Q501 111 502 72T506 0H443Q442 8 442 20T441 46T440 73T439 96H437ZM314 579H262L359 756H432L314 579Z"  />
<glyph unicode="&#xFB;" horiz-adv-x="592" d="M437 96Q411 45 366 17T261 -11Q167 -11 125 45T83 216V508H149V237Q149 188 155 152T175 91T214 56T275 44Q309 44 338 56T390 94T424 159T436 252V508H501V152Q501 111 502 72T506 0H443Q442 8 442 20T441 46T440 73T439 96H437ZM379 579L296 715L207 579H150L261 756H331L439 579H379Z"  />
<glyph unicode="&#xFC;" horiz-adv-x="592" d="M437 96Q411 45 366 17T261 -11Q167 -11 125 45T83 216V508H149V237Q149 188 155 152T175 91T214 56T275 44Q309 44 338 56T390 94T424 159T436 252V508H501V152Q501 111 502 72T506 0H443Q442 8 442 20T441 46T440 73T439 96H437ZM242 622H171V699H242V622ZM419 622H348V699H419V622Z"  />
<glyph unicode="&#xFD;" horiz-adv-x="473" d="M202 172Q206 160 211 145T221 113T230 80T238 51H240Q243 64 248 80T258 112T268 144T277 172L392 508H459L263 -39Q247 -83 231 -117T196 -175T150 -210T88 -222Q77 -222 63 -221T34 -214L40 -160Q50 -163 62 -165T86 -168Q107 -168 122 -161T151 -137T177 -91T205 -16L16 508H87L202 172ZM248 579H196L293 756H366L248 579Z"  />
<glyph unicode="&#xFE;" horiz-adv-x="599" d="M152 99Q153 91 153 76T154 43T155 7T155 -27V-210H90V756H155V545Q155 507 155 467T152 406H154Q181 460 227 489T333 519Q382 519 421 500T488 445T531 362T546 257Q546 198 531 149T488 65T419 9T328 -11Q269 -11 225 18T154 99H152ZM319 44Q355 44 384 59T434 102T466 168T477 252Q477 299 466 338T435 405T386 448T319 464Q283 464 253 449T201 405T166 337T153 252Q153 207 165 169T200 104T252 60T319 44Z"  />
<glyph unicode="&#xFF;" horiz-adv-x="473" d="M202 172Q206 160 211 145T221 113T230 80T238 51H240Q243 64 248 80T258 112T268 144T277 172L392 508H459L263 -39Q247 -83 231 -117T196 -175T150 -210T88 -222Q77 -222 63 -221T34 -214L40 -160Q50 -163 62 -165T86 -168Q107 -168 122 -161T151 -137T177 -91T205 -16L16 508H87L202 172ZM187 622H116V699H187V622ZM364 622H293V699H364V622Z"  />
<glyph unicode="&#x100;" horiz-adv-x="687" d="M378 698Q452 522 525 349T672 0H596L518 189H164L87 0H13L305 698H378H378ZM393 499Q388 511 381 529T367 566T352 605T341 639H339Q334 624 327 606T313 568T299 530T287 499L186 246H495L393 499ZM472 795H209V841H472V795Z"  />
<glyph unicode="&#x101;" horiz-adv-x="536" d="M102 477Q137 498 180 508T264 519Q315 519 350 505T408 464T441 402T451 320Q451 296 451 270T450 221T449 179T448 149Q448 107 450 67T454 0H394Q393 6 393 18T392 42Q392 52 392 66T394 92H392Q372 48 327 21T221 -7Q143 -7 96 33T49 141Q49 222 118 263T319 305Q336 305 355 305T389 302V317Q389 349 382 376T359 423T318 454T255 465Q218 465 180 453T106 416L102 477ZM390 253Q367 256 330 256Q227 256 173 229T118 141Q118 96 149 70T232 44Q310 44 350 93T390 253ZM400 632H137V678H400V632Z"  />
<glyph unicode="&#x102;" horiz-adv-x="687" d="M378 698Q452 522 525 349T672 0H596L518 189H164L87 0H13L305 698H378H378ZM393 499Q388 511 381 529T367 566T352 605T341 639H339Q334 624 327 606T313 568T299 530T287 499L186 246H495L393 499ZM496 906Q490 840 449 803T343 765Q275 765 235 802T189 906H233Q249 816 343 816Q435 816 452 906H496Z"  />
<glyph unicode="&#x103;" horiz-adv-x="536" d="M102 477Q137 498 180 508T264 519Q315 519 350 505T408 464T441 402T451 320Q451 296 451 270T450 221T449 179T448 149Q448 107 450 67T454 0H394Q393 6 393 18T392 42Q392 52 392 66T394 92H392Q372 48 327 21T221 -7Q143 -7 96 33T49 141Q49 222 118 263T319 305Q336 305 355 305T389 302V317Q389 349 382 376T359 423T318 454T255 465Q218 465 180 453T106 416L102 477ZM390 253Q367 256 330 256Q227 256 173 229T118 141Q118 96 149 70T232 44Q310 44 350 93T390 253ZM424 728Q418 657 376 617T271 576Q205 576 164 615T117 728H160Q171 672 198 650T271 627Q316 627 344 652T381 728H424Z"  />
<glyph unicode="&#x104;" horiz-adv-x="687" d="M378 698Q452 522 525 349T672 0H635Q594 -43 579 -69T564 -121Q564 -149 580 -162T622 -175Q650 -175 679 -162L685 -196Q666 -205 648 -208T609 -212Q592 -212 575 -208T543 -194T520 -169T511 -132Q511 -97 531 -68T596 0L518 189H164L87 0H13L305 698H378H378ZM393 499Q388 511 381 529T367 566T352 605T341 639H339Q334 624 327 606T313 568T299 530T287 499L186 246H495L393 499Z"  />
<glyph unicode="&#x105;" horiz-adv-x="536" d="M102 477Q137 498 180 508T264 519Q315 519 350 505T408 464T441 402T451 320Q451 296 451 270T450 221T449 179T448 149Q448 107 450 67T454 0H433Q392 -43 376 -69T359 -121Q359 -149 375 -162T417 -175Q445 -175 474 -162L480 -196Q461 -205 443 -208T404 -212Q387 -212 370 -208T338 -194T315 -169T306 -132Q306 -97 327 -67T394 1Q393 7 393 19T392 42Q392 52 392 66T394 92H392Q372 48 327 21T221 -7Q143 -7 96 33T49 141Q49 222 118 263T319 305Q336 305 355 305T389 302V317Q389 349 382 376T359 423T318 454T255 465Q218 465 180 453T106 416L102 477ZM390 253Q367 256 330 256Q227 256 173 229T118 141Q118 96 149 70T232 44Q310 44 350 93T390 253Z"  />
<glyph unicode="&#x106;" horiz-adv-x="613" d="M565 617Q537 631 500 637T423 644Q358 644 305 622T213 561T153 468T131 349Q131 283 153 229T214 136T310 76T435 55Q468 55 501 60T567 79L572 12Q543 2 507 -2T432 -7Q349 -7 280 18T162 89T85 201T58 349Q58 428 85 493T160 606T277 679T427 705Q466 705 503 700T573 682L565 617ZM423 750H371L459 891H535L423 750Z"  />
<glyph unicode="&#x107;" horiz-adv-x="455" d="M415 434Q369 457 307 457Q265 457 231 442T173 400T136 336T123 256Q123 211 135 174T172 109T230 67T308 52Q338 52 365 58T419 78L424 18Q398 7 369 1T304 -6Q247 -6 201 12T121 65T71 147T53 253Q53 309 71 357T122 440T201 494T305 514Q337 514 366 510T421 494L415 434ZM315 579H263L360 756H433L315 579Z"  />
<glyph unicode="&#x108;" horiz-adv-x="613" d="M565 617Q537 631 500 637T423 644Q358 644 305 622T213 561T153 468T131 349Q131 283 153 229T214 136T310 76T435 55Q468 55 501 60T567 79L572 12Q543 2 507 -2T432 -7Q349 -7 280 18T162 89T85 201T58 349Q58 428 85 493T160 606T277 679T427 705Q466 705 503 700T573 682L565 617ZM479 750L396 854L308 750H251L362 895H431L538 750H479Z"  />
<glyph unicode="&#x109;" horiz-adv-x="455" d="M415 434Q369 457 307 457Q265 457 231 442T173 400T136 336T123 256Q123 211 135 174T172 109T230 67T308 52Q338 52 365 58T419 78L424 18Q398 7 369 1T304 -6Q247 -6 201 12T121 65T71 147T53 253Q53 309 71 357T122 440T201 494T305 514Q337 514 366 510T421 494L415 434ZM363 579L280 715L191 579H134L245 756H315L423 579H363Z"  />
<glyph unicode="&#x10A;" horiz-adv-x="613" d="M565 617Q537 631 500 637T423 644Q358 644 305 622T213 561T153 468T131 349Q131 283 153 229T214 136T310 76T435 55Q468 55 501 60T567 79L572 12Q543 2 507 -2T432 -7Q349 -7 280 18T162 89T85 201T58 349Q58 428 85 493T160 606T277 679T427 705Q466 705 503 700T573 682L565 617ZM456 776H377V862H456V776Z"  />
<glyph unicode="&#x10B;" horiz-adv-x="455" d="M415 434Q369 457 307 457Q265 457 231 442T173 400T136 336T123 256Q123 211 135 174T172 109T230 67T308 52Q338 52 365 58T419 78L424 18Q398 7 369 1T304 -6Q247 -6 201 12T121 65T71 147T53 253Q53 309 71 357T122 440T201 494T305 514Q337 514 366 510T421 494L415 434ZM339 610H260V695H339V610Z"  />
<glyph unicode="&#x10C;" horiz-adv-x="613" d="M565 617Q537 631 500 637T423 644Q358 644 305 622T213 561T153 468T131 349Q131 283 153 229T214 136T310 76T435 55Q468 55 501 60T567 79L572 12Q543 2 507 -2T432 -7Q349 -7 280 18T162 89T85 201T58 349Q58 428 85 493T160 606T277 679T427 705Q466 705 503 700T573 682L565 617ZM322 894L406 788L493 894H550L439 749H370L263 894H322Z"  />
<glyph unicode="&#x10D;" horiz-adv-x="455" d="M415 434Q369 457 307 457Q265 457 231 442T173 400T136 336T123 256Q123 211 135 174T172 109T230 67T308 52Q338 52 365 58T419 78L424 18Q398 7 369 1T304 -6Q247 -6 201 12T121 65T71 147T53 253Q53 309 71 357T122 440T201 494T305 514Q337 514 366 510T421 494L415 434ZM198 755L283 617L370 755H428L317 578H247L139 755H198Z"  />
<glyph unicode="&#x10E;" horiz-adv-x="704" d="M240 698Q328 698 402 678T531 616T615 507T645 348Q645 253 613 187T525 80T396 19T240 0H98V698H240ZM167 60H236Q313 60 375 76T482 128T550 217T574 347Q574 428 549 484T479 574T372 623T236 638H167V60ZM214 955L299 817L386 955H444L333 778H263L155 955H214Z"  />
<glyph unicode="&#x10F;" horiz-adv-x="599" d="M508 154Q508 113 509 73T513 0H452Q450 22 450 48T449 99H447Q421 50 377 20T273 -11Q220 -11 180 9T111 63T68 145T53 248Q53 306 67 356T110 442T180 498T275 519Q330 519 375 492T444 418H446Q444 437 444 472T443 545V756H508V154ZM281 464Q245 464 216 449T166 406T134 339T122 251Q122 208 133 171T164 105T213 61T280 44Q314 44 344 59T396 101T431 167T444 251Q444 297 433 336T400 403T348 448T281 464ZM612 579H571L589 756H652L612 579Z"  />
<glyph unicode="&#x110;" horiz-adv-x="704" d="M239 698Q327 698 401 678T530 616T614 507T644 348Q644 253 612 187T524 80T395 19T239 0H97V332H29V372H97V698H239ZM310 332H166V60H235Q312 60 374 76T481 128T549 217T573 347Q573 428 548 484T478 574T371 623T235 638H166V372H310V332Z"  />
<glyph unicode="&#x111;" horiz-adv-x="599" d="M508 661H565V622H508V154Q508 113 509 73T513 0H452Q450 22 450 48T449 99H447Q421 50 377 20T273 -11Q220 -11 180 9T111 63T68 145T53 248Q53 306 67 356T110 442T180 498T275 519Q330 519 375 492T444 418H446Q444 437 444 472T443 545V622H305V661H443V756H508V661ZM281 464Q245 464 216 449T166 406T134 339T122 251Q122 208 133 171T164 105T213 61T280 44Q314 44 344 59T396 101T431 167T444 251Q444 297 433 336T400 403T348 448T281 464Z"  />
<glyph unicode="&#x112;" horiz-adv-x="525" d="M462 0H98V698H454V638H167V390H436V332H167V60H462V0ZM403 795H140V841H403V795Z"  />
<glyph unicode="&#x113;" horiz-adv-x="539" d="M120 242Q121 151 171 98T310 45Q348 45 381 54T448 81L451 19Q386 -11 308 -11Q184 -11 119 60T53 257Q53 316 70 364T117 446T190 500T284 519Q380 519 434 458T488 276Q488 269 488 260T486 242H120ZM423 295Q423 381 386 424T283 467Q217 467 173 423T122 295H423ZM409 632H146V678H409V632Z"  />
<glyph unicode="&#x114;" horiz-adv-x="525" d="M462 0H98V698H454V638H167V390H436V332H167V60H462V0ZM426 906Q420 840 379 803T273 765Q205 765 165 802T119 906H163Q179 816 273 816Q365 816 382 906H426Z"  />
<glyph unicode="&#x115;" horiz-adv-x="539" d="M120 242Q121 151 171 98T310 45Q348 45 381 54T448 81L451 19Q386 -11 308 -11Q184 -11 119 60T53 257Q53 316 70 364T117 446T190 500T284 519Q380 519 434 458T488 276Q488 269 488 260T486 242H120ZM423 295Q423 381 386 424T283 467Q217 467 173 423T122 295H423ZM433 728Q427 657 385 617T280 576Q214 576 173 615T126 728H169Q180 672 207 650T280 627Q325 627 353 652T390 728H433Z"  />
<glyph unicode="&#x116;" horiz-adv-x="525" d="M462 0H98V698H454V638H167V390H436V332H167V60H462V0ZM322 776H243V862H322V776Z"  />
<glyph unicode="&#x117;" horiz-adv-x="539" d="M120 242Q121 151 171 98T310 45Q348 45 381 54T448 81L451 19Q386 -11 308 -11Q184 -11 119 60T53 257Q53 316 70 364T117 446T190 500T284 519Q380 519 434 458T488 276Q488 269 488 260T486 242H120ZM423 295Q423 381 386 424T283 467Q217 467 173 423T122 295H423ZM325 610H246V695H325V610Z"  />
<glyph unicode="&#x118;" horiz-adv-x="525" d="M462 0H418Q377 -43 361 -69T344 -121Q344 -149 360 -162T402 -175Q430 -175 459 -162L465 -196Q446 -205 428 -208T389 -212Q372 -212 355 -208T323 -194T300 -169T291 -132Q291 -97 312 -68T378 0H98V698H454V638H167V390H436V332H167V60H462V0Z"  />
<glyph unicode="&#x119;" horiz-adv-x="539" d="M120 242Q121 151 171 98T310 45Q348 45 381 54T448 81L451 23Q391 -9 361 -47T331 -121Q331 -149 347 -162T389 -175Q417 -175 446 -162L452 -196Q433 -205 415 -208T376 -212Q359 -212 342 -208T310 -194T287 -169T278 -132Q278 -99 297 -69T358 -7V-5Q344 -9 331 -10T308 -11Q184 -11 119 60T53 257Q53 316 70 364T117 446T190 500T284 519Q380 519 434 458T488 276Q488 269 488 260T486 242H120ZM423 295Q423 381 386 424T283 467Q217 467 173 423T122 295H423Z"  />
<glyph unicode="&#x11A;" horiz-adv-x="525" d="M462 0H98V698H454V638H167V390H436V332H167V60H462V0ZM190 894L274 788L361 894H418L307 749H238L131 894H190Z"  />
<glyph unicode="&#x11B;" horiz-adv-x="539" d="M120 242Q121 151 171 98T310 45Q348 45 381 54T448 81L451 19Q386 -11 308 -11Q184 -11 119 60T53 257Q53 316 70 364T117 446T190 500T284 519Q380 519 434 458T488 276Q488 269 488 260T486 242H120ZM423 295Q423 381 386 424T283 467Q217 467 173 423T122 295H423ZM202 755L287 617L374 755H432L321 578H251L143 755H202Z"  />
<glyph unicode="&#x11C;" horiz-adv-x="711" d="M610 605Q568 626 525 635T435 645Q369 645 314 624T218 564T155 471T132 351Q132 284 153 230T214 136T308 76T429 54Q464 54 497 58T560 74V314H393V372H629V27Q579 10 529 2T429 -7Q346 -7 278 19T160 92T85 205T58 352Q58 430 86 494T164 606T283 679T436 705Q484 705 528 698T617 671L610 605ZM500 750L417 854L329 750H272L383 895H452L559 750H500Z"  />
<glyph unicode="&#x11D;" horiz-adv-x="594" d="M279 464Q243 464 214 449T163 405T131 339T120 254Q120 209 131 172T162 109T211 69T277 54Q312 54 342 69T395 110T429 174T442 255Q442 300 431 338T398 404T346 448T279 464ZM505 508V27Q505 -90 445 -156T266 -222Q170 -222 90 -188L97 -122Q176 -165 264 -165Q315 -165 349 -150T403 -108T433 -44T442 39Q442 53 442 71T444 106H442Q419 61 375 31T268 0Q218 0 178 18T109 70T65 150T50 253Q50 311 66 360T111 444T181 499T273 519Q306 519 332 511T380 489T417 457T444 418H446Q444 442 444 465T444 508H505ZM370 579L287 715L198 579H141L252 756H322L430 579H370Z"  />
<glyph unicode="&#x11E;" horiz-adv-x="711" d="M610 605Q568 626 525 635T435 645Q369 645 314 624T218 564T155 471T132 351Q132 284 153 230T214 136T308 76T429 54Q464 54 497 58T560 74V314H393V372H629V27Q579 10 529 2T429 -7Q346 -7 278 19T160 92T85 205T58 352Q58 430 86 494T164 606T283 679T436 705Q484 705 528 698T617 671L610 605ZM567 906Q561 840 520 803T414 765Q346 765 306 802T260 906H304Q320 816 414 816Q506 816 523 906H567Z"  />
<glyph unicode="&#x11F;" horiz-adv-x="594" d="M279 464Q243 464 214 449T163 405T131 339T120 254Q120 209 131 172T162 109T211 69T277 54Q312 54 342 69T395 110T429 174T442 255Q442 300 431 338T398 404T346 448T279 464ZM505 508V27Q505 -90 445 -156T266 -222Q170 -222 90 -188L97 -122Q176 -165 264 -165Q315 -165 349 -150T403 -108T433 -44T442 39Q442 53 442 71T444 106H442Q419 61 375 31T268 0Q218 0 178 18T109 70T65 150T50 253Q50 311 66 360T111 444T181 499T273 519Q306 519 332 511T380 489T417 457T444 418H446Q444 442 444 465T444 508H505ZM444 728Q438 657 396 617T291 576Q225 576 184 615T137 728H180Q191 672 218 650T291 627Q336 627 364 652T401 728H444Z"  />
<glyph unicode="&#x120;" horiz-adv-x="711" d="M610 605Q568 626 525 635T435 645Q369 645 314 624T218 564T155 471T132 351Q132 284 153 230T214 136T308 76T429 54Q464 54 497 58T560 74V314H393V372H629V27Q579 10 529 2T429 -7Q346 -7 278 19T160 92T85 205T58 352Q58 430 86 494T164 606T283 679T436 705Q484 705 528 698T617 671L610 605ZM466 776H387V862H466V776Z"  />
<glyph unicode="&#x121;" horiz-adv-x="594" d="M279 464Q243 464 214 449T163 405T131 339T120 254Q120 209 131 172T162 109T211 69T277 54Q312 54 342 69T395 110T429 174T442 255Q442 300 431 338T398 404T346 448T279 464ZM505 508V27Q505 -90 445 -156T266 -222Q170 -222 90 -188L97 -122Q176 -165 264 -165Q315 -165 349 -150T403 -108T433 -44T442 39Q442 53 442 71T444 106H442Q419 61 375 31T268 0Q218 0 178 18T109 70T65 150T50 253Q50 311 66 360T111 444T181 499T273 519Q306 519 332 511T380 489T417 457T444 418H446Q444 442 444 465T444 508H505ZM334 610H255V695H334V610Z"  />
<glyph unicode="&#x122;" horiz-adv-x="711" d="M610 605Q568 626 525 635T435 645Q369 645 314 624T218 564T155 471T132 351Q132 284 153 230T214 136T308 76T429 54Q464 54 497 58T560 74V314H393V372H629V27Q579 10 529 2T429 -7Q346 -7 278 19T160 92T85 205T58 352Q58 430 86 494T164 606T283 679T436 705Q484 705 528 698T617 671L610 605ZM387 -230H338L397 -62H468L387 -230Z"  />
<glyph unicode="&#x123;" horiz-adv-x="594" d="M279 464Q243 464 214 449T163 405T131 339T120 254Q120 209 131 172T162 109T211 69T277 54Q312 54 342 69T395 110T429 174T442 255Q442 300 431 338T398 404T346 448T279 464ZM505 508V27Q505 -90 445 -156T266 -222Q170 -222 90 -188L97 -122Q176 -165 264 -165Q315 -165 349 -150T403 -108T433 -44T442 39Q442 53 442 71T444 106H442Q419 61 375 31T268 0Q218 0 178 18T109 70T65 150T50 253Q50 311 66 360T111 444T181 499T273 519Q306 519 332 511T380 489T417 457T444 418H446Q444 442 444 465T444 508H505ZM335 756H388L312 579H241L335 756Z"  />
<glyph unicode="&#x124;" horiz-adv-x="700" d="M602 0H533V332H167V0H98V698H167V392H533V698H602V0ZM433 750L350 854L262 750H205L316 895H385L492 750H433Z"  />
<glyph unicode="&#x125;" horiz-adv-x="592" d="M155 560Q155 541 155 520T155 477T154 439T153 411H155Q181 459 226 489T331 519Q382 519 416 502T471 455T499 383T508 292V0H442V269Q442 315 437 351T417 413T379 451T316 464Q282 464 253 451T202 411T168 346T155 255V0H90V756H155V560ZM354 790L271 894L183 790H126L237 935H306L413 790H354Z"  />
<glyph unicode="&#x126;" horiz-adv-x="700" d="M602 567H657V527H602V0H533V332H167V0H98V527H42V567H98V698H167V567H533V698H602V567ZM533 392V527H167V392H533Z"  />
<glyph unicode="&#x127;" horiz-adv-x="592" d="M155 660H285V621H155V560Q155 541 155 520T155 477T154 439T153 411H155Q181 459 226 488T331 518Q382 518 416 501T471 454T499 383T508 292V0H442V269Q442 315 437 351T417 412T379 450T316 463Q282 463 253 450T202 411T168 345T155 255V0H90V621H27V660H90V756H155V660Z"  />
<glyph unicode="&#x128;" horiz-adv-x="265" d="M167 0H98V698H167V0ZM289 868Q284 823 263 798T207 772Q192 772 174 776T131 794Q108 805 94 811T66 817Q50 817 39 807T23 770H-16Q-11 814 11 839T71 864Q88 864 105 858T146 840Q169 829 182 825T207 820Q227 820 236 833T249 868H289Z"  />
<glyph unicode="&#x129;" horiz-adv-x="246" d="M275 703Q270 658 249 633T195 607Q180 607 163 611T121 629Q98 640 85 645T59 651Q42 651 31 641T16 604H-23Q-18 648 3 672T63 697Q80 697 96 692T136 674Q159 663 172 659T196 654Q216 654 224 667T236 703H275ZM155 0H90V508H155V0Z"  />
<glyph unicode="&#x12A;" horiz-adv-x="265" d="M167 0H98V698H167V0ZM266 795H3V841H266V795Z"  />
<glyph unicode="&#x12B;" horiz-adv-x="246" d="M258 632H-5V678H258V632ZM155 0H90V508H155V0Z"  />
<glyph unicode="&#x12E;" horiz-adv-x="265" d="M167 0H150Q109 -43 93 -69T76 -121Q76 -149 92 -162T134 -175Q162 -175 191 -162L197 -196Q178 -205 160 -208T121 -212Q104 -212 87 -208T55 -194T32 -169T23 -132Q23 -97 44 -68T110 0H98V698H167V0Z"  />
<glyph unicode="&#x12F;" horiz-adv-x="246" d="M155 0H144Q103 -43 87 -69T70 -121Q70 -149 86 -162T128 -175Q156 -175 185 -162L191 -196Q172 -205 154 -208T115 -212Q98 -212 81 -208T49 -194T26 -169T17 -132Q17 -97 38 -68T104 0H90V508H155V0ZM161 621H84V702H161V621Z"  />
<glyph unicode="&#x130;" horiz-adv-x="265" d="M167 0H98V698H167V0ZM175 776H96V862H175V776Z"  />
<glyph unicode="&#x131;" horiz-adv-x="246" d="M155 0H90V508H155V0Z"  />
<glyph unicode="&#x132;" horiz-adv-x="617" d="M167 0H98V698H167V0ZM289 65Q307 59 321 56T353 52Q384 52 404 61T436 89T451 136T456 201V698H525V186Q525 144 517 109T490 47T440 7T363 -8Q324 -8 288 4L289 65Z"  />
<glyph unicode="&#x133;" horiz-adv-x="496" d="M161 621H84V702H161V621ZM155 0H90V508H155V0ZM411 621H334V702H411V621ZM405 -47Q405 -87 399 -119T377 -174T336 -209T272 -222Q251 -222 231 -217V-161Q250 -165 265 -165Q311 -165 325 -134T340 -42V508H405V-47Z"  />
<glyph unicode="&#x134;" horiz-adv-x="352" d="M25 65Q43 59 57 56T89 52Q120 52 140 61T172 89T187 136T192 201V698H261V186Q261 144 253 109T226 47T176 7T99 -8Q60 -8 24 4L25 65ZM309 750L226 854L138 750H81L192 895H261L368 750H309Z"  />
<glyph unicode="&#x135;" horiz-adv-x="246" d="M155 -47Q155 -87 149 -119T127 -174T86 -209T22 -222Q1 -222 -19 -217V-161Q0 -165 15 -165Q61 -165 75 -134T90 -42V508H155V-47ZM208 579L125 715L36 579H-21L90 756H160L268 579H208Z"  />
<glyph unicode="&#x136;" horiz-adv-x="615" d="M166 0H98V698H166V378H168Q186 397 206 419T246 461T282 498T307 524L479 698H572L237 370L602 0H502L281 231Q264 250 234 282T168 356H166V0ZM266 -238H217L276 -70H347L266 -238Z"  />
<glyph unicode="&#x137;" horiz-adv-x="510" d="M233 183Q212 205 192 227T157 270H155V0H90V756H155V294H157Q171 310 191 330T235 372L388 508H478L217 286L500 0H410L233 183ZM220 -230H171L230 -62H301L220 -230Z"  />
<glyph unicode="&#x139;" horiz-adv-x="477" d="M167 59H459V0H98V698H167V59ZM158 750H106L194 891H270L158 750Z"  />
<glyph unicode="&#x13A;" horiz-adv-x="246" d="M155 0H90V756H155V0ZM148 790H96L184 931H260L148 790Z"  />
<glyph unicode="&#x13B;" horiz-adv-x="477" d="M167 59H459V0H98V698H167V59ZM232 -230H183L242 -62H313L232 -230Z"  />
<glyph unicode="&#x13C;" horiz-adv-x="246" d="M155 0H90V756H155V0ZM85 -230H36L95 -62H166L85 -230Z"  />
<glyph unicode="&#x13D;" horiz-adv-x="477" d="M167 59H459V0H98V698H167V59ZM284 579H243L261 756H324L284 579Z"  />
<glyph unicode="&#x13E;" horiz-adv-x="246" d="M155 0H90V756H155V0ZM261 579H220L238 756H301L261 579Z"  />
<glyph unicode="&#x13F;" horiz-adv-x="489" d="M167 59H459V0H98V698H167V59ZM426 352H347V437H426V352Z"  />
<glyph unicode="&#x140;" horiz-adv-x="328" d="M155 0H90V756H155V0ZM328 352H249V437H328V352Z"  />
<glyph unicode="&#x141;" horiz-adv-x="477" d="M167 438L288 517V471L167 393V59H459V0H98V354L25 306V352L98 398V698H167V438Z"  />
<glyph unicode="&#x142;" horiz-adv-x="256" d="M161 504L236 562V517L161 458V0H95V412L20 353V399L95 458V756H161V504Z"  />
<glyph unicode="&#x143;" horiz-adv-x="714" d="M549 698H617V0H526L264 450Q252 470 238 495T210 545T184 595T163 636H161Q162 620 163 596T164 544T165 490T166 440V0H98V698H198L454 257Q465 239 479 214T506 163T532 113T553 72H555Q554 90 553 119T551 181T550 245T549 300V698ZM372 750H320L408 891H484L372 750Z"  />
<glyph unicode="&#x144;" horiz-adv-x="592" d="M155 413Q182 462 226 490T330 519Q382 519 416 502T470 455T499 383T508 292V0H442V269Q442 316 436 352T416 413T378 451T316 464Q281 464 252 451T201 412T167 347T155 255V0H90V355Q90 396 89 436T85 508H149Q151 488 152 461T153 413H155ZM314 579H262L359 756H432L314 579Z"  />
<glyph unicode="&#x145;" horiz-adv-x="714" d="M549 698H617V0H526L264 450Q252 470 238 495T210 545T184 595T163 636H161Q162 620 163 596T164 544T165 490T166 440V0H98V698H198L454 257Q465 239 479 214T506 163T532 113T553 72H555Q554 90 553 119T551 181T550 245T549 300V698ZM319 -230H270L329 -62H400L319 -230Z"  />
<glyph unicode="&#x146;" horiz-adv-x="592" d="M155 413Q182 462 226 490T330 519Q382 519 416 502T470 455T499 383T508 292V0H442V269Q442 316 436 352T416 413T378 451T316 464Q281 464 252 451T201 412T167 347T155 255V0H90V355Q90 396 89 436T85 508H149Q151 488 152 461T153 413H155ZM260 -230H211L270 -62H341L260 -230Z"  />
<glyph unicode="&#x147;" horiz-adv-x="714" d="M549 698H617V0H526L264 450Q252 470 238 495T210 545T184 595T163 636H161Q162 620 163 596T164 544T165 490T166 440V0H98V698H198L454 257Q465 239 479 214T506 163T532 113T553 72H555Q554 90 553 119T551 181T550 245T549 300V698ZM276 894L360 788L447 894H504L393 749H324L217 894H276Z"  />
<glyph unicode="&#x148;" horiz-adv-x="592" d="M155 413Q182 462 226 490T330 519Q382 519 416 502T470 455T499 383T508 292V0H442V269Q442 316 436 352T416 413T378 451T316 464Q281 464 252 451T201 412T167 347T155 255V0H90V355Q90 396 89 436T85 508H149Q151 488 152 461T153 413H155ZM214 755L299 617L386 755H444L333 578H263L155 755H214Z"  />
<glyph unicode="&#x149;" horiz-adv-x="592" d="M155 413Q182 462 226 490T330 519Q382 519 416 502T470 455T499 383T508 292V0H442V269Q442 316 436 352T416 413T378 451T316 464Q281 464 252 451T201 412T167 347T155 255V0H90V355Q90 396 89 436T85 508H149Q151 488 152 461T153 413H155ZM84 579H43L61 756H124L84 579Z"  />
<glyph unicode="&#x14C;" horiz-adv-x="757" d="M386 709Q456 709 513 683T611 609T674 495T696 347Q696 265 674 199T610 87T511 15T382 -11Q309 -11 250 14T148 85T84 197T61 344Q61 428 84 495T149 610T252 683T386 709ZM377 651Q323 651 278 630T201 569T152 473T134 349Q134 280 151 225T201 130T280 69T382 47Q436 47 480 68T555 129T604 223T622 347Q622 417 605 473T556 569T479 630T377 651ZM509 795H246V841H509V795Z"  />
<glyph unicode="&#x14D;" horiz-adv-x="593" d="M301 519Q353 519 397 500T472 445T522 360T540 252Q540 193 522 145T472 62T395 8T296 -11Q243 -11 198 8T121 62T71 145T53 252Q53 312 71 361T122 445T200 499T301 519ZM295 464Q256 464 224 449T170 406T135 339T122 252Q122 205 134 167T170 101T225 59T296 44Q335 44 367 59T423 101T458 167T471 254Q471 302 459 340T423 406T368 449T295 464ZM426 632H163V678H426V632Z"  />
<glyph unicode="&#x14E;" horiz-adv-x="757" d="M386 709Q456 709 513 683T611 609T674 495T696 347Q696 265 674 199T610 87T511 15T382 -11Q309 -11 250 14T148 85T84 197T61 344Q61 428 84 495T149 610T252 683T386 709ZM377 651Q323 651 278 630T201 569T152 473T134 349Q134 280 151 225T201 130T280 69T382 47Q436 47 480 68T555 129T604 223T622 347Q622 417 605 473T556 569T479 630T377 651ZM530 906Q524 840 483 803T377 765Q309 765 269 802T223 906H267Q283 816 377 816Q469 816 486 906H530Z"  />
<glyph unicode="&#x14F;" horiz-adv-x="593" d="M301 519Q353 519 397 500T472 445T522 360T540 252Q540 193 522 145T472 62T395 8T296 -11Q243 -11 198 8T121 62T71 145T53 252Q53 312 71 361T122 445T200 499T301 519ZM295 464Q256 464 224 449T170 406T135 339T122 252Q122 205 134 167T170 101T225 59T296 44Q335 44 367 59T423 101T458 167T471 254Q471 302 459 340T423 406T368 449T295 464ZM448 728Q442 657 400 617T295 576Q229 576 188 615T141 728H184Q195 672 222 650T295 627Q340 627 368 652T405 728H448Z"  />
<glyph unicode="&#x150;" horiz-adv-x="757" d="M386 709Q456 709 513 683T611 609T674 495T696 347Q696 265 674 199T610 87T511 15T382 -11Q309 -11 250 14T148 85T84 197T61 344Q61 428 84 495T149 610T252 683T386 709ZM377 651Q323 651 278 630T201 569T152 473T134 349Q134 280 151 225T201 130T280 69T382 47Q436 47 480 68T555 129T604 223T622 347Q622 417 605 473T556 569T479 630T377 651ZM339 750H288L368 892H441L339 750ZM465 750H413L498 892H573L465 750Z"  />
<glyph unicode="&#x151;" horiz-adv-x="593" d="M301 519Q353 519 397 500T472 445T522 360T540 252Q540 193 522 145T472 62T395 8T296 -11Q243 -11 198 8T121 62T71 145T53 252Q53 312 71 361T122 445T200 499T301 519ZM295 464Q256 464 224 449T170 406T135 339T122 252Q122 205 134 167T170 101T225 59T296 44Q335 44 367 59T423 101T458 167T471 254Q471 302 459 340T423 406T368 449T295 464ZM248 579H198L290 756H360L248 579ZM377 579H326L423 756H495L377 579Z"  />
<glyph unicode="&#x152;" horiz-adv-x="925" d="M862 0H592Q554 0 520 -2T444 -4Q356 -4 285 19T164 87T86 198T59 351Q59 430 86 494T163 605T285 676T444 701Q474 701 512 700T580 698H853V637H571V390H836V332H571V59H862V0ZM503 637Q486 639 469 639T437 640Q366 640 310 620T214 563T153 472T132 351Q132 211 215 134T451 56Q462 56 474 56T503 59V637H503Z"  />
<glyph unicode="&#x153;" horiz-adv-x="946" d="M293 464Q254 464 222 449T168 406T133 339T121 252Q121 205 133 167T168 101T223 59T295 44Q334 44 366 59T420 101T455 167T468 254Q468 302 456 340T420 406T365 449T293 464ZM831 293Q831 379 794 422T691 466Q624 466 583 422T534 293H831ZM718 -11Q640 -11 583 22T499 117Q470 57 418 23T294 -11Q240 -11 196 8T120 62T71 145T53 252Q53 312 71 361T121 445T198 499T299 519Q368 519 419 486T498 392Q524 451 574 485T693 519Q789 519 842 457T896 274Q896 268 896 258T894 240H532Q533 195 546 159T583 98T641 59T718 45Q756 45 791 54T862 83L864 22Q830 5 793 -3T718 -11Z"  />
<glyph unicode="&#x154;" horiz-adv-x="584" d="M98 698H262Q373 698 438 655T503 521Q503 454 462 412T352 352V350Q383 339 403 317T441 260Q471 194 500 130T560 0H482L379 234Q368 259 356 276T329 304T294 320T245 325H167V0H98V698ZM167 382H247Q333 382 382 416T431 516Q431 582 384 610T247 638H167V382ZM293 750H241L329 891H405L293 750Z"  />
<glyph unicode="&#x155;" horiz-adv-x="355" d="M155 409Q172 457 210 488T297 519Q319 519 339 513L338 453Q328 456 318 457T296 458Q264 458 238 444T194 403T165 341T155 263V0H90V355Q90 396 89 436T85 508H149Q150 498 150 485T151 459T152 432T153 409H155ZM207 579H155L252 756H325L207 579Z"  />
<glyph unicode="&#x156;" horiz-adv-x="584" d="M98 698H262Q373 698 438 655T503 521Q503 454 462 412T352 352V350Q383 339 403 317T441 260Q471 194 500 130T560 0H482L379 234Q368 259 356 276T329 304T294 320T245 325H167V0H98V698ZM167 382H247Q333 382 382 416T431 516Q431 582 384 610T247 638H167V382ZM264 -230H215L274 -62H345L264 -230Z"  />
<glyph unicode="&#x157;" horiz-adv-x="355" d="M155 409Q172 457 210 488T297 519Q319 519 339 513L338 453Q328 456 318 457T296 458Q264 458 238 444T194 403T165 341T155 263V0H90V355Q90 396 89 436T85 508H149Q150 498 150 485T151 459T152 432T153 409H155ZM84 -230H35L94 -62H165L84 -230Z"  />
<glyph unicode="&#x158;" horiz-adv-x="584" d="M98 698H262Q373 698 438 655T503 521Q503 454 462 412T352 352V350Q383 339 403 317T441 260Q471 194 500 130T560 0H482L379 234Q368 259 356 276T329 304T294 320T245 325H167V0H98V698ZM167 382H247Q333 382 382 416T431 516Q431 582 384 610T247 638H167V382ZM192 894L276 788L363 894H420L309 749H240L133 894H192Z"  />
<glyph unicode="&#x159;" horiz-adv-x="355" d="M155 409Q172 457 210 488T297 519Q319 519 339 513L338 453Q328 456 318 457T296 458Q264 458 238 444T194 403T165 341T155 263V0H90V355Q90 396 89 436T85 508H149Q150 498 150 485T151 459T152 432T153 409H155ZM108 755L193 617L280 755H338L227 578H157L49 755H108Z"  />
<glyph unicode="&#x15A;" horiz-adv-x="510" d="M411 621Q349 650 279 650Q248 650 221 642T175 619T144 582T133 533Q133 510 140 491T165 455T211 421T282 384Q371 342 411 297T452 185Q452 141 436 105T389 43T317 3T225 -11Q182 -11 141 -4T64 18L72 86Q112 66 148 58T223 49Q295 49 338 84T381 178Q381 202 374 221T350 259T305 295T234 333Q189 354 157 374T103 417T72 467T62 529Q62 568 77 601T121 658T188 695T277 709Q355 709 420 684L411 621ZM274 750H222L310 891H386L274 750Z"  />
<glyph unicode="&#x15B;" horiz-adv-x="403" d="M52 76Q113 44 180 44Q202 44 222 49T257 65T282 93T292 133Q292 152 286 166T267 192T231 215T177 240Q149 252 127 264T88 292T62 329T53 378Q53 411 66 437T101 482T154 509T219 519Q284 519 335 499L329 441Q301 455 275 460T219 465Q178 465 148 444T117 382Q117 347 143 327T226 285Q295 259 326 226T358 139Q358 101 344 73T305 26T249 -2T183 -11Q145 -11 112 -5T45 15L52 76ZM232 579H180L277 756H350L232 579Z"  />
<glyph unicode="&#x15C;" horiz-adv-x="510" d="M411 621Q349 650 279 650Q248 650 221 642T175 619T144 582T133 533Q133 510 140 491T165 455T211 421T282 384Q371 342 411 297T452 185Q452 141 436 105T389 43T317 3T225 -11Q182 -11 141 -4T64 18L72 86Q112 66 148 58T223 49Q295 49 338 84T381 178Q381 202 374 221T350 259T305 295T234 333Q189 354 157 374T103 417T72 467T62 529Q62 568 77 601T121 658T188 695T277 709Q355 709 420 684L411 621ZM351 750L268 854L180 750H123L234 895H303L410 750H351Z"  />
<glyph unicode="&#x15D;" horiz-adv-x="403" d="M52 76Q113 44 180 44Q202 44 222 49T257 65T282 93T292 133Q292 152 286 166T267 192T231 215T177 240Q149 252 127 264T88 292T62 329T53 378Q53 411 66 437T101 482T154 509T219 519Q284 519 335 499L329 441Q301 455 275 460T219 465Q178 465 148 444T117 382Q117 347 143 327T226 285Q295 259 326 226T358 139Q358 101 344 73T305 26T249 -2T183 -11Q145 -11 112 -5T45 15L52 76ZM299 579L216 715L127 579H70L181 756H251L359 579H299Z"  />
<glyph unicode="&#x15E;" horiz-adv-x="510" d="M411 621Q349 650 279 650Q248 650 221 642T175 619T144 582T133 533Q133 510 140 491T165 455T211 421T282 384Q371 342 411 297T452 185Q452 144 438 111T399 52T339 11T260 -9L249 -67Q255 -65 261 -65T274 -65Q312 -65 336 -84T361 -138Q361 -161 352 -178T328 -206T293 -224T251 -230Q222 -230 198 -224L203 -191Q212 -193 222 -194T243 -195Q255 -195 267 -193T289 -184T305 -168T311 -143Q311 -119 294 -108T250 -96Q234 -96 212 -102L223 -11Q181 -11 140 -4T64 18L72 86Q112 66 148 58T223 49Q295 49 338 84T381 178Q381 202 374 221T350 259T305 295T234 333Q189 354 157 374T103 417T72 467T62 529Q62 568 77 601T121 658T188 695T277 709Q355 709 420 684L411 621Z"  />
<glyph unicode="&#x15F;" horiz-adv-x="403" d="M52 76Q113 44 180 44Q202 44 222 49T257 65T282 93T292 133Q292 152 286 166T267 192T231 215T177 240Q149 252 127 264T88 292T62 329T53 378Q53 411 66 437T101 482T154 509T219 519Q284 519 335 499L329 441Q301 455 275 460T219 465Q178 465 148 444T117 382Q117 347 143 327T226 285Q295 259 326 226T358 139Q358 103 345 76T311 31T260 2T199 -10L188 -67Q194 -65 200 -65T213 -65Q251 -65 275 -84T300 -138Q300 -161 291 -178T267 -206T232 -224T190 -230Q161 -230 137 -224L142 -191Q151 -193 161 -194T182 -195Q194 -195 206 -193T228 -184T244 -168T250 -143Q250 -119 233 -108T189 -96Q173 -96 151 -102L162 -10Q101 -7 45 15L52 76Z"  />
<glyph unicode="&#x160;" horiz-adv-x="510" d="M411 621Q349 650 279 650Q248 650 221 642T175 619T144 582T133 533Q133 510 140 491T165 455T211 421T282 384Q371 342 411 297T452 185Q452 141 436 105T389 43T317 3T225 -11Q182 -11 141 -4T64 18L72 86Q112 66 148 58T223 49Q295 49 338 84T381 178Q381 202 374 221T350 259T305 295T234 333Q189 354 157 374T103 417T72 467T62 529Q62 568 77 601T121 658T188 695T277 709Q355 709 420 684L411 621ZM186 894L270 788L357 894H414L303 749H234L127 894H186Z"  />
<glyph unicode="&#x161;" horiz-adv-x="403" d="M52 76Q113 44 180 44Q202 44 222 49T257 65T282 93T292 133Q292 152 286 166T267 192T231 215T177 240Q149 252 127 264T88 292T62 329T53 378Q53 411 66 437T101 482T154 509T219 519Q284 519 335 499L329 441Q301 455 275 460T219 465Q178 465 148 444T117 382Q117 347 143 327T226 285Q295 259 326 226T358 139Q358 101 344 73T305 26T249 -2T183 -11Q145 -11 112 -5T45 15L52 76ZM129 755L214 617L301 755H359L248 578H178L70 755H129Z"  />
<glyph unicode="&#x162;" horiz-adv-x="520" d="M226 0V638L14 636V698H505V636L295 638V0H226ZM222 -230H173L232 -62H303L222 -230Z"  />
<glyph unicode="&#x163;" horiz-adv-x="360" d="M187 505H321V451H187V168Q187 107 207 77T274 46Q302 46 327 57L330 5Q300 -6 264 -6Q223 -6 196 5T152 38T130 89T123 157V451H14V505H123V621L187 643V505ZM176 -230H127L186 -62H257L176 -230Z"  />
<glyph unicode="&#x164;" horiz-adv-x="520" d="M226 0V638L14 636V698H505V636L295 638V0H226ZM176 894L260 788L347 894H404L293 749H224L117 894H176Z"  />
<glyph unicode="&#x165;" horiz-adv-x="360" d="M187 505H321V451H187V168Q187 107 207 77T274 46Q302 46 327 57L330 5Q300 -6 264 -6Q223 -6 196 5T152 38T130 89T123 157V451H14V505H123V621L187 643V505ZM307 579H266L284 756H347L307 579Z"  />
<glyph unicode="&#x166;" horiz-adv-x="520" d="M226 0V407H122V446H226V638L14 636V698H505V636L295 638V446H398V407H295V0H226Z"  />
<glyph unicode="&#x167;" horiz-adv-x="360" d="M187 505H321V451H187V310H284V271H187V168Q187 107 207 77T274 46Q302 46 327 57L330 5Q300 -6 264 -6Q223 -6 196 5T152 38T130 89T123 157V271H41V310H123V451H14V505H123V621L187 643V505Z"  />
<glyph unicode="&#x168;" horiz-adv-x="688" d="M601 279Q601 213 586 159T538 68T457 10T339 -11Q271 -11 223 10T145 69T101 160T87 279V698H156V293Q156 239 164 194T194 116T251 65T343 46Q399 46 435 64T493 116T523 194T532 294V698H601V279ZM498 868Q493 823 472 798T416 772Q401 772 383 776T340 794Q317 805 303 811T275 817Q259 817 248 807T232 770H193Q198 814 220 839T280 864Q297 864 314 858T355 840Q378 829 391 825T416 820Q436 820 445 833T458 868H498Z"  />
<glyph unicode="&#x169;" horiz-adv-x="592" d="M437 96Q411 45 366 17T261 -11Q167 -11 125 45T83 216V508H149V237Q149 188 155 152T175 91T214 56T275 44Q309 44 338 56T390 94T424 159T436 252V508H501V152Q501 111 502 72T506 0H443Q442 8 442 20T441 46T440 73T439 96H437ZM446 703Q441 658 420 633T366 607Q351 607 334 611T292 629Q269 640 256 645T230 651Q213 651 202 641T187 604H148Q153 648 174 672T234 697Q251 697 267 692T307 674Q330 663 343 659T367 654Q387 654 395 667T407 703H446Z"  />
<glyph unicode="&#x16A;" horiz-adv-x="688" d="M601 279Q601 213 586 159T538 68T457 10T339 -11Q271 -11 223 10T145 69T101 160T87 279V698H156V293Q156 239 164 194T194 116T251 65T343 46Q399 46 435 64T493 116T523 194T532 294V698H601V279ZM473 795H210V841H473V795Z"  />
<glyph unicode="&#x16B;" horiz-adv-x="592" d="M437 96Q411 45 366 17T261 -11Q167 -11 125 45T83 216V508H149V237Q149 188 155 152T175 91T214 56T275 44Q309 44 338 56T390 94T424 159T436 252V508H501V152Q501 111 502 72T506 0H443Q442 8 442 20T441 46T440 73T439 96H437ZM424 632H161V678H424V632Z"  />
<glyph unicode="&#x16C;" horiz-adv-x="688" d="M601 279Q601 213 586 159T538 68T457 10T339 -11Q271 -11 223 10T145 69T101 160T87 279V698H156V293Q156 239 164 194T194 116T251 65T343 46Q399 46 435 64T493 116T523 194T532 294V698H601V279ZM496 906Q490 840 449 803T343 765Q275 765 235 802T189 906H233Q249 816 343 816Q435 816 452 906H496Z"  />
<glyph unicode="&#x16D;" horiz-adv-x="592" d="M437 96Q411 45 366 17T261 -11Q167 -11 125 45T83 216V508H149V237Q149 188 155 152T175 91T214 56T275 44Q309 44 338 56T390 94T424 159T436 252V508H501V152Q501 111 502 72T506 0H443Q442 8 442 20T441 46T440 73T439 96H437ZM448 728Q442 657 400 617T295 576Q229 576 188 615T141 728H184Q195 672 222 650T295 627Q340 627 368 652T405 728H448Z"  />
<glyph unicode="&#x16E;" horiz-adv-x="688" d="M601 279Q601 213 586 159T538 68T457 10T339 -11Q271 -11 223 10T145 69T101 160T87 279V698H156V293Q156 239 164 194T194 116T251 65T343 46Q399 46 435 64T493 116T523 194T532 294V698H601V279ZM345 937Q366 937 384 929T415 908T437 876T445 838Q445 796 416 767T345 738Q301 738 273 767T244 838Q244 880 272 908T345 937ZM345 901Q319 901 301 883T282 838Q282 811 299 792T345 773Q371 773 389 792T408 840Q408 865 390 883T345 901Z"  />
<glyph unicode="&#x16F;" horiz-adv-x="592" d="M437 96Q411 45 366 17T261 -11Q167 -11 125 45T83 216V508H149V237Q149 188 155 152T175 91T214 56T275 44Q309 44 338 56T390 94T424 159T436 252V508H501V152Q501 111 502 72T506 0H443Q442 8 442 20T441 46T440 73T439 96H437ZM294 769Q315 769 333 761T364 740T386 709T394 671Q394 650 386 632T365 600T333 579T294 571Q250 571 222 600T193 671Q193 713 221 741T294 769ZM294 733Q268 733 250 715T231 670Q231 643 248 625T294 606Q320 606 338 624T357 672Q357 698 339 715T294 733Z"  />
<glyph unicode="&#x170;" horiz-adv-x="688" d="M601 279Q601 213 586 159T538 68T457 10T339 -11Q271 -11 223 10T145 69T101 160T87 279V698H156V293Q156 239 164 194T194 116T251 65T343 46Q399 46 435 64T493 116T523 194T532 294V698H601V279ZM292 750H241L321 892H394L292 750ZM418 750H366L451 892H526L418 750Z"  />
<glyph unicode="&#x171;" horiz-adv-x="592" d="M437 96Q411 45 366 17T261 -11Q167 -11 125 45T83 216V508H149V237Q149 188 155 152T175 91T214 56T275 44Q309 44 338 56T390 94T424 159T436 252V508H501V152Q501 111 502 72T506 0H443Q442 8 442 20T441 46T440 73T439 96H437ZM243 579H193L285 756H355L243 579ZM372 579H321L418 756H490L372 579Z"  />
<glyph unicode="&#x172;" horiz-adv-x="688" d="M601 279Q601 160 551 85T393 -7Q355 -47 341 -72T326 -121Q326 -149 342 -162T384 -175Q412 -175 441 -162L447 -196Q428 -205 410 -208T371 -212Q354 -212 337 -208T305 -194T282 -169T273 -132Q273 -100 291 -73T347 -11H339Q271 -11 223 10T145 69T101 160T87 279V698H156V293Q156 239 164 194T194 116T251 65T343 46Q399 46 435 64T493 116T523 194T532 294V698H601V279Z"  />
<glyph unicode="&#x173;" horiz-adv-x="592" d="M437 96Q411 45 366 17T261 -11Q167 -11 125 45T83 216V508H149V237Q149 188 155 152T175 91T214 56T275 44Q309 44 338 56T390 94T424 159T436 252V508H501V152Q501 111 502 72T506 0H478Q437 -43 421 -69T404 -121Q404 -149 420 -162T462 -175Q490 -175 519 -162L525 -196Q506 -205 488 -208T449 -212Q432 -212 415 -208T383 -194T360 -169T351 -132Q351 -96 372 -66T442 3Q441 12 441 24T440 48T439 73T439 96H437Z"  />
<glyph unicode="&#x174;" horiz-adv-x="999" d="M526 529Q523 540 519 555T511 587T504 618T497 646H495Q490 622 482 588T467 529L314 0H227L18 698H93L241 180Q244 171 247 157T255 125T264 90T271 58H273Q276 72 280 89T288 123T296 155T303 180L450 698H545L697 180Q700 171 704 157T712 125T721 90T729 58H731Q734 72 737 89T745 122T753 154T760 180L910 698H982L769 0H682L526 529ZM581 750L498 854L410 750H353L464 895H533L640 750H581Z"  />
<glyph unicode="&#x175;" horiz-adv-x="816" d="M184 0L17 508H88L192 169Q200 145 208 111T224 51H226Q229 63 233 78T241 110T250 141T259 168L369 508H449L559 169Q567 145 576 111T592 51H594Q601 76 610 110T627 168L733 508H799L630 0H552L434 366Q429 383 422 410T409 458H407Q405 448 402 436T395 411T388 387T381 366L264 0H184ZM492 579L409 715L320 579H263L374 756H444L552 579H492Z"  />
<glyph unicode="&#x176;" horiz-adv-x="621" d="M94 698L200 532Q213 512 229 487T260 436T289 389T311 354H313Q321 367 334 389T363 437T395 487T424 532L530 698H613L346 296V0H276V294L9 698H94ZM393 750L310 854L222 750H165L276 895H345L452 750H393Z"  />
<glyph unicode="&#x177;" horiz-adv-x="473" d="M202 172Q206 160 211 145T221 113T230 80T238 51H240Q243 64 248 80T258 112T268 144T277 172L392 508H459L263 -39Q247 -83 231 -117T196 -175T150 -210T88 -222Q77 -222 63 -221T34 -214L40 -160Q50 -163 62 -165T86 -168Q107 -168 122 -161T151 -137T177 -91T205 -16L16 508H87L202 172ZM326 579L243 715L154 579H97L208 756H278L386 579H326Z"  />
<glyph unicode="&#x178;" horiz-adv-x="621" d="M94 698L200 532Q213 512 229 487T260 436T289 389T311 354H313Q321 367 334 389T363 437T395 487T424 532L530 698H613L346 296V0H276V294L9 698H94ZM257 782H186V862H257V782ZM434 782H363V862H434V782Z"  />
<glyph unicode="&#x179;" horiz-adv-x="532" d="M485 634Q399 501 334 401T223 230T148 117T108 59H495V0H34V58Q107 172 172 272T287 449T369 575T412 638H43V698H485V634H485ZM285 750H233L321 891H397L285 750Z"  />
<glyph unicode="&#x17A;" horiz-adv-x="467" d="M422 450Q346 352 292 282T201 166T143 93T110 54H426V0H38V57Q124 168 181 240T273 357T326 424T352 455H51V508H422V450H422ZM254 579H202L299 756H372L254 579Z"  />
<glyph unicode="&#x17B;" horiz-adv-x="532" d="M485 634Q399 501 334 401T223 230T148 117T108 59H495V0H34V58Q107 172 172 272T287 449T369 575T412 638H43V698H485V634H485ZM318 776H239V862H318V776Z"  />
<glyph unicode="&#x17C;" horiz-adv-x="467" d="M422 450Q346 352 292 282T201 166T143 93T110 54H426V0H38V57Q124 168 181 240T273 357T326 424T352 455H51V508H422V450H422ZM282 610H203V695H282V610Z"  />
<glyph unicode="&#x17D;" horiz-adv-x="532" d="M485 634Q399 501 334 401T223 230T148 117T108 59H495V0H34V58Q107 172 172 272T287 449T369 575T412 638H43V698H485V634H485ZM185 894L269 788L356 894H413L302 749H233L126 894H185Z"  />
<glyph unicode="&#x17E;" horiz-adv-x="467" d="M422 450Q346 352 292 282T201 166T143 93T110 54H426V0H38V57Q124 168 181 240T273 357T326 424T352 455H51V508H422V450H422ZM160 755L245 617L332 755H390L279 578H209L101 755H160Z"  />
<glyph unicode="&#x192;" horiz-adv-x="574" d="M253 15Q233 -92 189 -140T69 -189Q52 -189 35 -187T1 -179L12 -125Q24 -131 39 -133T68 -136Q116 -136 144 -100T188 19L249 348H127V391H257L278 502Q298 608 341 658T463 708Q479 708 497 706T531 698L520 643Q508 649 493 651T464 654Q413 654 385 614T340 485L322 391H448V348H315L253 15Z"  />
<glyph unicode="&#x218;" horiz-adv-x="510" d="M411 621Q349 650 279 650Q248 650 221 642T175 619T144 582T133 533Q133 510 140 491T165 455T211 421T282 384Q371 342 411 297T452 185Q452 141 436 105T389 43T317 3T225 -11Q182 -11 141 -4T64 18L72 86Q112 66 148 58T223 49Q295 49 338 84T381 178Q381 202 374 221T350 259T305 295T234 333Q189 354 157 374T103 417T72 467T62 529Q62 568 77 601T121 658T188 695T277 709Q355 709 420 684L411 621ZM213 -230H164L223 -62H294L213 -230Z"  />
<glyph unicode="&#x219;" horiz-adv-x="403" d="M52 76Q113 44 180 44Q202 44 222 49T257 65T282 93T292 133Q292 152 286 166T267 192T231 215T177 240Q149 252 127 264T88 292T62 329T53 378Q53 411 66 437T101 482T154 509T219 519Q284 519 335 499L329 441Q301 455 275 460T219 465Q178 465 148 444T117 382Q117 347 143 327T226 285Q295 259 326 226T358 139Q358 101 344 73T305 26T249 -2T183 -11Q145 -11 112 -5T45 15L52 76ZM171 -230H122L181 -62H252L171 -230Z"  />
<glyph unicode="&#x21A;" horiz-adv-x="520" d="M226 0V638L14 636V698H505V636L295 638V0H226ZM222 -230H173L232 -62H303L222 -230Z"  />
<glyph unicode="&#x21B;" horiz-adv-x="360" d="M187 505H321V451H187V168Q187 107 207 77T274 46Q302 46 327 57L330 5Q300 -6 264 -6Q223 -6 196 5T152 38T130 89T123 157V451H14V505H123V621L187 643V505ZM176 -230H127L186 -62H257L176 -230Z"  />
<glyph unicode="&#x237;" horiz-adv-x="246" d="M155 -47Q155 -87 149 -119T127 -174T86 -209T22 -222Q1 -222 -19 -217V-161Q0 -165 15 -165Q61 -165 75 -134T90 -42V508H155V-47Z"  />
<glyph unicode="&#x2C6;" horiz-adv-x="500" d="M334 579L251 715L162 579H105L216 756H286L394 579H334Z"  />
<glyph unicode="&#x2C7;" horiz-adv-x="500" d="M164 755L249 617L336 755H394L283 578H213L105 755H164Z"  />
<glyph unicode="&#x2C9;" horiz-adv-x="500" d="M381 632H118V678H381V632Z"  />
<glyph unicode="&#x2D8;" horiz-adv-x="500" d="M403 728Q397 657 355 617T250 576Q184 576 143 615T96 728H139Q150 672 177 650T250 627Q295 627 323 652T360 728H403Z"  />
<glyph unicode="&#x2D9;" horiz-adv-x="500" d="M289 610H210V695H289V610Z"  />
<glyph unicode="&#x2DA;" horiz-adv-x="500" d="M249 769Q270 769 288 761T319 740T341 709T349 671Q349 650 341 632T320 600T288 579T249 571Q205 571 177 600T148 671Q148 713 176 741T249 769ZM249 733Q223 733 205 715T186 670Q186 643 203 625T249 606Q275 606 293 624T312 672Q312 698 294 715T249 733Z"  />
<glyph unicode="&#x2DB;" horiz-adv-x="500" d="M307 9Q284 -15 268 -33T242 -67T228 -95T224 -121Q224 -149 240 -162T282 -175Q310 -175 339 -162L345 -196Q326 -205 308 -208T269 -212Q252 -212 235 -208T203 -194T180 -169T171 -132Q171 -95 194 -64T269 9H307Z"  />
<glyph unicode="&#x2DC;" horiz-adv-x="500" d="M397 703Q392 658 371 633T317 607Q302 607 285 611T243 629Q220 640 207 645T181 651Q164 651 153 641T138 604H99Q104 648 125 672T185 697Q202 697 218 692T258 674Q281 663 294 659T318 654Q338 654 346 667T358 703H397Z"  />
<glyph unicode="&#x2DD;" horiz-adv-x="500" d="M173 579H123L215 756H285L173 579ZM302 579H251L348 756H420L302 579Z"  />
<glyph unicode="&#x394;" horiz-adv-x="690" d="M305 698H383L645 68V0H46V68L305 698ZM114 61H574L410 468Q404 483 395 507T376 557T358 606T345 643H343Q338 629 330 606T312 558T293 508T277 468L114 61Z"  />
<glyph unicode="&#x3A9;" horiz-adv-x="783" d="M392 708Q467 708 524 684T620 618T677 517T697 391Q697 332 682 283T642 193T585 119T518 60Q518 59 519 58Q552 61 594 61T676 62H705V0H449V66Q536 129 580 207T624 382Q624 455 604 506T552 589T477 635T391 650Q347 650 305 636T231 589T179 506T159 382Q159 285 202 207T333 66V0H77V62H106Q146 62 188 62T263 58Q263 58 264 60Q230 86 198 119T140 192T100 282T85 390Q85 459 104 517T162 618T258 684T392 708Z"  />
<glyph unicode="&#x3BC;" horiz-adv-x="621" d="M507 130Q507 103 508 87T514 62T525 50T543 47Q548 47 553 48T561 50L564 -1Q558 -3 548 -4T530 -6Q485 -6 468 19T449 107H447Q425 53 376 22T267 -10Q230 -10 203 3T159 38Q157 38 156 37Q157 27 157 11T159 -25T160 -66T161 -106V-207H96V508H160V236Q160 198 163 163T179 102T216 59T282 43Q318 43 347 59T397 101T429 159T442 223Q443 242 443 260T443 299V508H507V130Z"  />
<glyph unicode="&#x3C0;" horiz-adv-x="618" d="M471 146Q471 91 487 70T548 48Q554 48 563 49T578 52L582 0Q570 -3 557 -4T534 -6Q469 -6 439 27T409 135V449H214L161 0H94L159 449H32V508H608V449H471V146Z"  />
<glyph unicode="&#x2013;" horiz-adv-x="500" d="M500 244H0V289H500V244Z"  />
<glyph unicode="&#x2014;" horiz-adv-x="1000" d="M880 244H120V289H880V244Z"  />
<glyph unicode="&#x2018;" horiz-adv-x="274" d="M148 734H202L140 498H71L148 734Z"  />
<glyph unicode="&#x2019;" horiz-adv-x="274" d="M125 498H71L133 734H202L125 498Z"  />
<glyph unicode="&#x201A;" horiz-adv-x="274" d="M123 -127H69L132 105H201L123 -127Z"  />
<glyph unicode="&#x201C;" horiz-adv-x="437" d="M148 734H202L140 499H71L148 734ZM311 734H364L303 499H233L311 734Z"  />
<glyph unicode="&#x201D;" horiz-adv-x="437" d="M287 499H233L295 734H364L287 499ZM125 499H71L133 734H202L125 499Z"  />
<glyph unicode="&#x201E;" horiz-adv-x="437" d="M286 -127H232L294 105H363L286 -127ZM123 -127H69L132 105H201L123 -127Z"  />
<glyph unicode="&#x2020;" horiz-adv-x="574" d="M313 517H487V465H313V0H255V465H85V517H255V698H313V517Z"  />
<glyph unicode="&#x2021;" horiz-adv-x="574" d="M313 517H487V465H313V227H487V175H313V0H255V175H85V227H255V465H85V517H255V698H313V517Z"  />
<glyph unicode="&#x2022;" horiz-adv-x="491" d="M248 510Q282 510 312 497T366 460T402 405T415 340Q415 305 402 274T366 220T312 184T246 170Q210 170 179 183T125 220T89 274T76 342Q76 377 89 407T126 461T180 497T248 510Z"  />
<glyph unicode="&#x2026;" horiz-adv-x="1000" d="M208 0H125V84H208V0ZM541 0H459V84H541V0ZM874 0H792V84H874V0Z"  />
<glyph unicode="&#x2030;" horiz-adv-x="1331" d="M242 709Q316 709 358 660T400 526Q400 438 357 389T238 339Q163 339 120 388T76 522Q76 610 120 659T242 709ZM238 663Q189 663 162 626T135 521Q135 458 162 422T238 385Q286 385 313 422T341 526Q341 593 315 628T238 663ZM289 -21H238L653 735H705L289 -21ZM702 360Q776 360 817 311T859 177Q859 90 816 40T698 -11Q624 -11 581 38T537 173Q537 261 580 310T702 360ZM698 314Q649 314 622 277T595 173Q595 108 622 72T697 35Q746 35 773 72T801 176Q801 242 775 278T698 314ZM1098 360Q1172 360 1213 311T1255 177Q1255 90 1212 40T1093 -11Q1019 -11 976 38T932 173Q932 261 976 310T1098 360ZM1094 314Q1045 314 1018 277T991 173Q991 108 1018 72T1093 35Q1141 35 1169 72T1197 176Q1197 242 1171 278T1094 314Z"  />
<glyph unicode="&#x2039;" horiz-adv-x="305" d="M118 250L252 49H190L49 250L188 447H251L118 250Z"  />
<glyph unicode="&#x203A;" horiz-adv-x="305" d="M116 447L255 250L115 49H52L187 250L54 447H116Z"  />
<glyph unicode="&#x2044;" horiz-adv-x="140" d="M-101 -22H-152L250 742H301L-101 -22Z"  />
<glyph unicode="&#x20AC;" horiz-adv-x="574" d="M516 635Q495 640 476 642T431 644Q382 644 342 629T270 587T217 520T186 434H475L467 390H179Q178 382 178 371T178 352Q178 344 178 336T179 321H456L448 277H185Q202 174 268 115T437 55Q460 55 479 57T519 64L525 1Q505 -3 484 -5T439 -7Q377 -7 323 11T225 64T153 153T113 277H34L40 321H109Q108 328 108 336T108 352Q108 360 108 371T109 390H34L40 434H115Q126 496 155 546T226 631T321 686T433 705Q459 705 481 704T528 698L516 635Z"  />
<glyph unicode="&#x2113;" horiz-adv-x="435" d="M111 325Q111 423 116 495T135 615T175 686T239 709Q266 709 284 696T312 662T327 613T332 555Q332 432 293 341T173 196Q176 149 182 120T199 75T224 52T258 46Q278 46 292 49T318 57L320 6Q301 -1 282 -3T246 -6Q214 -6 192 2T154 31T130 84T116 166Q96 158 74 152T26 141V193Q76 201 113 218Q111 241 111 268T111 325ZM170 255Q226 303 249 379T272 559Q272 574 271 591T265 624T253 649T233 659Q215 659 203 635T183 566T173 461T170 326V255Z"  />
<glyph unicode="&#x2122;" horiz-adv-x="900" d="M214 638H93V682H383V638H265V332H214V638ZM446 682H524L625 401H628L726 682H802V332H755V632H752L645 332H603L496 632H493V332H446V682Z"  />
<glyph unicode="&#x2126;" horiz-adv-x="783" d="M392 708Q467 708 524 684T620 618T677 517T697 391Q697 332 682 283T642 193T585 119T518 60Q518 59 519 58Q552 61 594 61T676 62H705V0H449V66Q536 129 580 207T624 382Q624 455 604 506T552 589T477 635T391 650Q347 650 305 636T231 589T179 506T159 382Q159 285 202 207T333 66V0H77V62H106Q146 62 188 62T263 58Q263 58 264 60Q230 86 198 119T140 192T100 282T85 390Q85 459 104 517T162 618T258 684T392 708Z"  />
<glyph unicode="&#x212E;" horiz-adv-x="853" d="M743 136Q717 107 686 80T615 33T526 0T413 -12Q339 -12 271 12T152 82T69 194T38 344Q38 424 70 491T157 607T284 683T437 710Q533 710 604 678T722 595T793 480T817 350V346H204L196 336V106Q244 62 300 43T419 24Q507 24 569 56T675 136H743ZM660 391V596Q607 645 550 659T437 674Q409 674 378 670T316 657T255 630T196 587V391L204 382H652L660 391Z"  />
<glyph unicode="&#x2202;" horiz-adv-x="584" d="M293 454Q254 454 222 440T168 398T133 333T121 246Q121 199 133 162T169 98T224 58T294 44Q332 44 364 59T418 101T453 167T466 254Q466 302 453 339T416 401T361 440T293 454ZM534 260Q534 199 517 149T467 64T391 9T293 -11Q240 -11 196 7T120 59T71 140T53 246Q53 304 70 352T117 434T191 486T286 505Q332 505 372 489T440 441H442Q428 490 398 534T327 613T240 675T144 717L185 760Q269 731 334 683T443 571T511 429T534 260Z"  />
<glyph unicode="&#x2206;" horiz-adv-x="690" d="M305 698H383L645 68V0H46V68L305 698ZM114 61H574L410 468Q404 483 395 507T376 557T358 606T345 643H343Q338 629 330 606T312 558T293 508T277 468L114 61Z"  />
<glyph unicode="&#x220F;" horiz-adv-x="784" d="M672 -210H603V707H181V-210H112V766H672V-210Z"  />
<glyph unicode="&#x2211;" horiz-adv-x="686" d="M252 42Q238 21 219 -6T181 -59T145 -109T117 -146V-148Q132 -148 157 -148T213 -147T274 -146T331 -146H627V-208H50V-144L353 288L59 706V766H613V708H329Q309 708 283 708T230 708T179 709T140 710L139 709Q150 695 169 668T210 610T252 550T286 502L428 294L252 42Z"  />
<glyph unicode="&#x2212;" horiz-adv-x="574" d="M34 231V286H540V231H34Z"  />
<glyph unicode="&#x2215;" horiz-adv-x="140" d="M-101 -22H-152L250 742H301L-101 -22Z"  />
<glyph unicode="&#x2219;" horiz-adv-x="234" d="M158 226H75V310H158V226Z"  />
<glyph unicode="&#x221A;" horiz-adv-x="643" d="M305 2Q309 -10 315 -30T327 -72T338 -114T347 -148H349Q351 -132 354 -112T362 -69T370 -27T377 7L545 766H609L386 -208H309L183 181H44V236H232L305 2Z"  />
<glyph unicode="&#x221E;" horiz-adv-x="913" d="M662 45Q520 45 450 205Q420 127 370 86T251 45Q208 45 173 61T112 106T72 176T57 266Q57 313 71 352T110 421T171 466T251 482Q320 482 374 442T463 322Q492 399 543 440T661 482Q704 482 739 466T801 421T841 351T856 261Q856 214 842 175T803 107T741 62T662 45ZM426 268Q414 296 399 323T362 372T313 407T252 421Q222 421 198 409T155 376T128 326T118 262Q118 228 128 200T156 150T199 118T256 106Q292 106 319 120T367 156T402 208T426 268ZM486 259Q498 230 513 203T550 154T599 119T661 106Q691 106 715 118T758 151T785 201T795 265Q795 299 785 327T757 377T713 409T656 421Q620 421 593 407T545 370T510 318T486 259Z"  />
<glyph unicode="&#x222B;" horiz-adv-x="352" d="M129 593Q129 669 163 714T272 760Q301 760 330 751L323 697Q301 705 276 705Q229 705 213 674T196 592V-53Q196 -130 163 -175T54 -220Q26 -220 -4 -212L3 -158Q14 -161 26 -163T50 -165Q96 -165 112 -134T129 -52V593Z"  />
<glyph unicode="&#x2248;" horiz-adv-x="574" d="M538 349Q515 320 479 301T405 282Q363 282 335 296T281 327T230 358T167 372Q129 372 93 348T36 290V359Q59 390 96 409T170 428Q212 428 241 414T295 383T345 352T407 338Q447 338 481 361T538 419V349ZM538 157Q515 128 479 109T405 90Q363 90 335 104T281 135T230 166T167 180Q148 180 129 174T93 156T61 129T36 97V166Q59 197 96 216T170 235Q212 235 241 221T295 190T345 159T407 145Q447 145 481 168T538 226V157Z"  />
<glyph unicode="&#x2260;" horiz-adv-x="574" d="M358 330L284 187H540V132H254L170 -30H107L191 132H35V187H220L296 330H35V385H324L410 548H472L387 385H540V330H358Z"  />
<glyph unicode="&#x2264;" horiz-adv-x="574" d="M36 4V59H539V4H36ZM34 277V330L539 506V446L264 356Q248 351 226 344T179 330T134 316T97 305V303Q112 299 133 293T179 279T225 264T264 252L539 161V102L34 277Z"  />
<glyph unicode="&#x2265;" horiz-adv-x="574" d="M36 4V59H539V4H36ZM36 102V161L310 252Q326 257 348 264T395 278T441 292T478 303V305Q463 309 441 315T395 329T349 344T310 356L36 446V506L541 330V277L36 102Z"  />
<glyph unicode="&#x25CA;" horiz-adv-x="473" d="M267 0H206L27 348L205 697H265L444 348L267 0ZM93 348L167 202Q187 162 206 122T235 55H238Q249 82 267 121T306 202L378 347L295 512Q289 525 281 542T264 578T249 613T237 642H234Q229 630 221 612T204 575T187 537T171 505L93 348Z"  />
<glyph unicode="&#xFB01;" horiz-adv-x="584" d="M328 698Q316 701 304 703T280 705Q232 705 214 673T195 586V505H321V452H195V0H131V452H18V505H131V584Q131 623 139 655T164 710T209 747T275 760Q290 760 304 759T334 752L328 698ZM499 621H422V702H499V621ZM493 0H428V508H493V0Z"  />
<glyph unicode="&#xFB02;" horiz-adv-x="585" d="M328 698Q316 701 304 703T280 705Q232 705 214 673T195 586V505H321V452H195V0H131V452H18V505H131V584Q131 623 139 655T164 710T209 747T275 760Q290 760 304 759T334 752L328 698ZM493 0H428V756H493V0Z"  />

</font>
</defs>
</svg>
