<?xml version="1.0" encoding="utf-8"?>
<!-- Generator: Adobe Illustrator 17.0.0, SVG Export Plug-In . SVG Version: 6.00 Build 0)  -->
<!DOCTYPE svg PUBLIC "-//W3C//DTD SVG 1.1//EN" "http://www.w3.org/Graphics/SVG/1.1/DTD/svg11.dtd">
<svg version="1.1" id="Ebene_1" xmlns="http://www.w3.org/2000/svg" xmlns:xlink="http://www.w3.org/1999/xlink" x="0px" y="0px"
	 width="228.798px" height="55.925px" viewBox="-35.861 -2.397 228.798 55.925"
	 enable-background="new -35.861 -2.397 228.798 55.925" xml:space="preserve">
<g>
	<g>
		<path d="M8.109,6.958C8.56,7.244,9.086,7.41,9.801,7.41c0.944,0,1.723-0.483,1.723-1.571c0-1.504-3.512-1.691-3.512-3.7
			c0-1.23,1.075-1.998,2.426-1.998c0.374,0,0.977,0.054,1.504,0.252l-0.12,0.693C11.48,0.9,10.941,0.8,10.425,0.8
			c-0.791,0-1.658,0.33-1.658,1.318c0,1.537,3.514,1.549,3.514,3.789c0,1.547-1.328,2.164-2.514,2.164
			c-0.747,0-1.33-0.154-1.735-0.331L8.109,6.958z"/>
		<path d="M18.233,3.081c-0.374-0.164-0.823-0.286-1.197-0.286c-1.35,0-2.109,0.978-2.109,2.339c0,1.274,0.769,2.339,2.032,2.339
			c0.439,0,0.845-0.098,1.262-0.253l0.066,0.649c-0.472,0.164-0.911,0.198-1.438,0.198c-1.801,0-2.679-1.374-2.679-2.932
			c0-1.725,1.109-2.931,2.767-2.931c0.671,0,1.153,0.154,1.35,0.219L18.233,3.081z"/>
		<path d="M20.32-0.3h0.693v3.58h0.022c0.297-0.614,0.923-1.076,1.745-1.076c1.505,0,1.913,1,1.913,2.382v3.35H24V4.597
			c0-0.967-0.188-1.801-1.33-1.801c-1.23,0-1.658,1.164-1.658,2.142v2.997H20.32V-0.3z"/>
		<path d="M33.035,7.934h-0.833l-1.527-4.843h-0.022l-1.527,4.843h-0.835l-1.801-5.599h0.758l1.472,4.842h0.022l1.56-4.842h0.835
			l1.482,4.842h0.022l1.547-4.842h0.691L33.035,7.934z"/>
		<path d="M40.437,7.759c-0.483,0.198-1.109,0.307-1.625,0.307c-1.857,0-2.548-1.251-2.548-2.932c0-1.713,0.944-2.931,2.36-2.931
			c1.581,0,2.23,1.274,2.23,2.777v0.351h-3.833c0,1.187,0.637,2.142,1.844,2.142c0.505,0,1.241-0.209,1.571-0.417
			C40.437,7.057,40.437,7.759,40.437,7.759z M40.095,4.739c0-0.977-0.395-1.944-1.428-1.944c-1.021,0-1.647,1.022-1.647,1.944
			H40.095z"/>
		<path d="M43.72,0.841h-0.693v-0.922h0.693V0.841z M43.029,2.335h0.693v5.6h-0.693V2.335z"/>
		<path d="M45.806,7.354l3.372-4.425h-3.241V2.336h4.041v0.593l-3.37,4.414h3.37v0.593h-4.173V7.354z"/>
		<path d="M55.809,7.759c-0.483,0.198-1.109,0.307-1.624,0.307c-1.857,0-2.548-1.251-2.548-2.932c0-1.713,0.944-2.931,2.36-2.931
			c1.581,0,2.228,1.274,2.228,2.777v0.351h-3.832c0,1.187,0.637,2.142,1.844,2.142c0.505,0,1.241-0.209,1.57-0.417
			C55.809,7.057,55.809,7.759,55.809,7.759z M55.469,4.739c0-0.977-0.395-1.944-1.428-1.944c-1.022,0-1.647,1.022-1.647,1.944
			H55.469z"/>
		<path d="M58.401,3.586c0-0.614,0-0.845-0.044-1.25h0.693v1.075h0.022c0.252-0.625,0.725-1.207,1.438-1.207
			c0.165,0,0.363,0.032,0.483,0.066v0.725c-0.144-0.044-0.33-0.066-0.505-0.066c-1.098,0-1.394,1.23-1.394,2.24v2.767h-0.693V3.586z
			"/>
		<path d="M63.605,0.841h-0.693v-0.922h0.693V0.841z M62.913,2.335h0.693v5.6h-0.693V2.335z"/>
		<path d="M65.78,7.122c0.417,0.209,0.923,0.351,1.46,0.351c0.658,0,1.241-0.363,1.241-1c0-1.328-2.69-1.12-2.69-2.746
			c0-1.109,0.9-1.526,1.823-1.526c0.297,0,0.889,0.066,1.384,0.252l-0.066,0.605c-0.363-0.165-0.856-0.263-1.241-0.263
			c-0.713,0-1.207,0.219-1.207,0.934c0,1.044,2.757,0.912,2.757,2.746c0,1.186-1.109,1.593-1.955,1.593
			c-0.539,0-1.076-0.066-1.571-0.265L65.78,7.122z"/>
		<path d="M74.981,3.081c-0.374-0.164-0.823-0.286-1.196-0.286c-1.349,0-2.109,0.978-2.109,2.339c0,1.274,0.769,2.339,2.031,2.339
			c0.439,0,0.846-0.098,1.264-0.253l0.066,0.649c-0.472,0.164-0.912,0.198-1.438,0.198c-1.8,0-2.679-1.374-2.679-2.932
			c0-1.725,1.109-2.931,2.767-2.931c0.671,0,1.153,0.154,1.351,0.219L74.981,3.081z"/>
		<path d="M77.067-0.3h0.691v3.58h0.023c0.296-0.614,0.923-1.076,1.745-1.076c1.504,0,1.911,1,1.911,2.382v3.35h-0.693V4.597
			c0-0.967-0.186-1.801-1.328-1.801c-1.23,0-1.659,1.164-1.659,2.142v2.997h-0.691C77.067,7.935,77.067-0.3,77.067-0.3z"/>
		<path d="M87.784,7.759c-0.483,0.198-1.108,0.307-1.624,0.307c-1.857,0-2.548-1.251-2.548-2.932c0-1.713,0.944-2.931,2.36-2.931
			c1.581,0,2.228,1.274,2.228,2.777v0.351h-3.832c0,1.187,0.637,2.142,1.844,2.142c0.505,0,1.241-0.209,1.57-0.417
			C87.784,7.057,87.784,7.759,87.784,7.759z M87.445,4.739c0-0.977-0.395-1.944-1.428-1.944c-1.022,0-1.647,1.022-1.647,1.944
			H87.445z"/>
		<path d="M94.362,0.27h3.755v0.659h-2.997v2.735h2.844v0.659h-2.844v2.955h3.128v0.659h-3.887
			C94.362,7.936,94.362,0.27,94.362,0.27z"/>
		<path d="M101.324,0.841h-0.691v-0.922h0.691V0.841z M100.632,2.335h0.691v5.6h-0.691V2.335z"/>
		<path d="M108.363,7.934h-0.693V7.046h-0.022c-0.374,0.713-0.944,1.022-1.745,1.022c-1.537,0-2.306-1.274-2.306-2.932
			c0-1.702,0.658-2.931,2.306-2.931c1.098,0,1.647,0.801,1.745,1.076h0.022v-3.581h0.693V7.934z M106.012,7.474
			c1.23,0,1.658-1.318,1.658-2.339s-0.428-2.339-1.658-2.339c-1.318,0-1.659,1.251-1.659,2.339
			C104.354,6.222,104.695,7.474,106.012,7.474z"/>
		<path d="M115.324,7.474c0,1.56-0.703,2.833-2.623,2.833c-0.737,0-1.405-0.209-1.691-0.297l0.056-0.693
			c0.428,0.219,1.042,0.397,1.647,0.397c1.779,0,1.932-1.296,1.932-2.877h-0.022c-0.374,0.812-0.988,1.098-1.702,1.098
			c-1.789,0-2.362-1.56-2.362-2.801c0-1.702,0.658-2.931,2.306-2.931c0.747,0,1.23,0.098,1.745,0.769h0.022V2.335h0.693
			L115.324,7.474L115.324,7.474z M112.931,7.341c1.251,0,1.702-1.187,1.702-2.208c0-1.35-0.395-2.339-1.658-2.339
			c-1.318,0-1.659,1.251-1.659,2.339C111.316,6.232,111.757,7.341,112.931,7.341z"/>
		<path d="M121.605,7.759c-0.483,0.198-1.108,0.307-1.625,0.307c-1.857,0-2.548-1.251-2.548-2.932c0-1.713,0.944-2.931,2.36-2.931
			c1.581,0,2.23,1.274,2.23,2.777v0.351h-3.833c0,1.187,0.637,2.142,1.844,2.142c0.505,0,1.241-0.209,1.571-0.417V7.759z
			 M121.266,4.739c0-0.977-0.395-1.944-1.428-1.944c-1.021,0-1.647,1.022-1.647,1.944H121.266z"/>
		<path d="M124.197,3.653c0-0.428,0-0.867-0.044-1.316h0.671v0.997h0.022c0.232-0.505,0.647-1.13,1.811-1.13
			c1.384,0,1.913,0.923,1.913,2.153v3.58h-0.693V4.532c0-1.054-0.374-1.736-1.33-1.736c-1.264,0-1.658,1.109-1.658,2.044v3.097
			h-0.693C124.197,7.936,124.197,3.653,124.197,3.653z"/>
		<path d="M133.343,2.203c1.813,0,2.614,1.405,2.614,2.931s-0.801,2.932-2.614,2.932c-1.811,0-2.614-1.405-2.614-2.932
			S131.532,2.203,133.343,2.203z M133.343,7.474c1.207,0,1.857-1.044,1.857-2.339s-0.647-2.339-1.857-2.339
			c-1.207,0-1.855,1.044-1.855,2.339S132.137,7.474,133.343,7.474z"/>
		<path d="M137.693,7.122c0.417,0.209,0.923,0.351,1.46,0.351c0.659,0,1.241-0.363,1.241-1c0-1.328-2.69-1.12-2.69-2.746
			c0-1.109,0.9-1.526,1.823-1.526c0.297,0,0.889,0.066,1.384,0.252l-0.066,0.605c-0.363-0.165-0.856-0.263-1.241-0.263
			c-0.713,0-1.208,0.219-1.208,0.934c0,1.044,2.757,0.912,2.757,2.746c0,1.186-1.109,1.593-1.955,1.593
			c-0.539,0-1.076-0.066-1.571-0.265L137.693,7.122z"/>
		<path d="M142.821,7.122c0.417,0.209,0.923,0.351,1.462,0.351c0.659,0,1.24-0.363,1.24-1c0-1.328-2.69-1.12-2.69-2.746
			c0-1.109,0.9-1.526,1.823-1.526c0.296,0,0.889,0.066,1.384,0.252l-0.066,0.605c-0.363-0.165-0.856-0.263-1.241-0.263
			c-0.714,0-1.208,0.219-1.208,0.934c0,1.044,2.756,0.912,2.756,2.746c0,1.186-1.109,1.593-1.955,1.593
			c-0.537,0-1.075-0.066-1.57-0.265L142.821,7.122z"/>
		<path d="M152.133,7.759c-0.483,0.198-1.109,0.307-1.625,0.307c-1.857,0-2.548-1.251-2.548-2.932c0-1.713,0.944-2.931,2.36-2.931
			c1.581,0,2.23,1.274,2.23,2.777v0.351h-3.833c0,1.187,0.639,2.142,1.844,2.142c0.505,0,1.241-0.209,1.571-0.417V7.759
			L152.133,7.759z M151.793,4.739c0-0.977-0.397-1.944-1.429-1.944c-1.021,0-1.647,1.022-1.647,1.944H151.793z"/>
		<path d="M154.724,3.653c0-0.428,0-0.867-0.044-1.316h0.671v0.997h0.022c0.232-0.505,0.649-1.13,1.813-1.13
			c1.384,0,1.911,0.923,1.911,2.153v3.58h-0.693V4.532c0-1.054-0.374-1.736-1.328-1.736c-1.264,0-1.659,1.109-1.659,2.044v3.097
			h-0.693V3.653L154.724,3.653z"/>
		<path d="M161.258,7.122c0.417,0.209,0.923,0.351,1.46,0.351c0.659,0,1.241-0.363,1.241-1c0-1.328-2.69-1.12-2.69-2.746
			c0-1.109,0.9-1.526,1.823-1.526c0.297,0,0.889,0.066,1.384,0.252l-0.066,0.605c-0.363-0.165-0.856-0.263-1.241-0.263
			c-0.713,0-1.208,0.219-1.208,0.934c0,1.044,2.757,0.912,2.757,2.746c0,1.186-1.109,1.593-1.955,1.593
			c-0.539,0-1.076-0.066-1.571-0.265L161.258,7.122z"/>
		<path d="M170.459,3.081c-0.374-0.164-0.823-0.286-1.196-0.286c-1.349,0-2.109,0.978-2.109,2.339c0,1.274,0.769,2.339,2.031,2.339
			c0.439,0,0.846-0.098,1.264-0.253l0.066,0.649c-0.472,0.164-0.912,0.198-1.438,0.198c-1.8,0-2.679-1.374-2.679-2.932
			c0-1.725,1.109-2.931,2.767-2.931c0.671,0,1.153,0.154,1.351,0.219L170.459,3.081z"/>
		<path d="M172.546-0.3h0.691v3.58h0.022c0.296-0.614,0.923-1.076,1.745-1.076c1.504,0,1.911,1,1.911,2.382v3.35h-0.693V4.597
			c0-0.967-0.186-1.801-1.33-1.801c-1.23,0-1.658,1.164-1.658,2.142v2.997h-0.691V-0.3C172.544-0.3,172.546-0.3,172.546-0.3z"/>
		<path d="M182.725,7.034h-0.022c-0.307,0.669-1.088,1.032-1.779,1.032c-1.591,0-1.844-1.076-1.844-1.581
			c0-1.878,1.998-1.967,3.448-1.967h0.132V4.233c0-0.954-0.34-1.438-1.274-1.438c-0.581,0-1.13,0.132-1.647,0.461V2.586
			c0.428-0.208,1.153-0.384,1.647-0.384c1.384,0,1.967,0.625,1.967,2.086V6.76c0,0.449,0,0.791,0.054,1.174h-0.681V7.034z
			 M182.659,5.113h-0.198c-1.197,0-2.625,0.12-2.625,1.35c0,0.737,0.527,1.01,1.164,1.01c1.625,0,1.659-1.418,1.659-2.021
			L182.659,5.113L182.659,5.113z"/>
		<path d="M186.326,2.928h-1.13V2.335h1.13V1.928c0-1.174,0.044-2.362,1.483-2.362c0.219,0,0.516,0.032,0.647,0.11l-0.044,0.605
			c-0.144-0.077-0.351-0.121-0.549-0.121c-0.944,0-0.845,1.021-0.845,1.691v0.483h1.262v0.593h-1.262v5.007h-0.693L186.326,2.928
			L186.326,2.928z"/>
		<path d="M192.783,2.928h-1.274v3.623c0,0.505,0.186,0.923,0.747,0.923c0.263,0,0.439-0.056,0.639-0.132l0.042,0.571
			c-0.164,0.066-0.505,0.154-0.845,0.154c-1.23,0-1.274-0.846-1.274-1.867V2.928h-1.098V2.335h1.098V0.984l0.693-0.242v1.593h1.274
			v0.593H192.783z"/>
	</g>
	<g>
		<path d="M13.578,16.281c-0.483-0.253-1.174-0.33-1.713-0.33c-1.988,0-3.108,1.405-3.108,3.305c0,1.932,1.086,3.306,3.108,3.306
			c0.505,0,1.274-0.066,1.713-0.33l0.044,0.659c-0.417,0.253-1.274,0.331-1.757,0.331C9.449,23.223,8,21.63,8,19.258
			c0-2.328,1.493-3.963,3.865-3.963c0.449,0,1.362,0.077,1.757,0.284L13.578,16.281z"/>
		<path d="M18.607,17.358c1.811,0,2.614,1.405,2.614,2.931s-0.802,2.932-2.614,2.932c-1.813,0-2.614-1.405-2.614-2.932
			C15.993,18.762,16.794,17.358,18.607,17.358z M18.607,22.629c1.207,0,1.857-1.044,1.857-2.339s-0.649-2.339-1.857-2.339
			s-1.857,1.044-1.857,2.339S17.399,22.629,18.607,22.629z"/>
		<path d="M23.385,18.806c0-0.428,0-0.867-0.044-1.316h0.671v0.998h0.022c0.23-0.505,0.647-1.13,1.811-1.13
			c1.384,0,1.911,0.923,1.911,2.153v3.58h-0.693v-3.404c0-1.054-0.374-1.736-1.33-1.736c-1.262,0-1.658,1.109-1.658,2.044v3.097
			h-0.691L23.385,18.806L23.385,18.806z"/>
		<path d="M30.817,18.083h-1.13V17.49h1.13v-0.407c0-1.174,0.044-2.362,1.483-2.362c0.219,0,0.516,0.032,0.647,0.11l-0.044,0.605
			c-0.144-0.077-0.351-0.121-0.549-0.121c-0.944,0-0.845,1.021-0.845,1.691v0.483h1.262v0.593h-1.262v5.007h-0.693
			C30.817,23.088,30.817,18.083,30.817,18.083z"/>
		<path d="M38.614,22.915c-0.483,0.198-1.109,0.307-1.625,0.307c-1.857,0-2.548-1.251-2.548-2.932c0-1.713,0.944-2.931,2.36-2.931
			c1.581,0,2.23,1.274,2.23,2.777v0.351h-3.834c0,1.187,0.639,2.142,1.844,2.142c0.505,0,1.241-0.209,1.571-0.417
			C38.614,22.211,38.614,22.915,38.614,22.915z M38.274,19.894c0-0.977-0.397-1.944-1.429-1.944c-1.021,0-1.647,1.022-1.647,1.944
			H38.274z M37.121,15.326h0.868l-1.384,1.581H36.1L37.121,15.326z"/>
		<path d="M45.642,23.09h-0.693v-0.889h-0.022c-0.374,0.713-0.946,1.022-1.745,1.022c-1.537,0-2.306-1.274-2.306-2.932
			c0-1.702,0.659-2.931,2.306-2.931c1.098,0,1.647,0.801,1.745,1.076h0.022v-3.58h0.693V23.09z M43.292,22.629
			c1.23,0,1.658-1.318,1.658-2.339c0-1.022-0.428-2.339-1.658-2.339c-1.318,0-1.658,1.251-1.658,2.339
			C41.634,21.376,41.974,22.629,43.292,22.629z"/>
		<path d="M51.923,22.915c-0.483,0.198-1.109,0.307-1.625,0.307c-1.857,0-2.548-1.251-2.548-2.932c0-1.713,0.944-2.931,2.36-2.931
			c1.581,0,2.23,1.274,2.23,2.777v0.351h-3.833c0,1.187,0.639,2.142,1.844,2.142c0.505,0,1.241-0.209,1.571-0.417
			C51.923,22.211,51.923,22.915,51.923,22.915z M51.583,19.894c0-0.977-0.397-1.944-1.429-1.944c-1.021,0-1.647,1.022-1.647,1.944
			H51.583z M50.428,15.326h0.868l-1.384,1.581h-0.505L50.428,15.326z"/>
		<path d="M54.514,18.74c0-0.614,0-0.845-0.044-1.25h0.691v1.075h0.022c0.252-0.625,0.725-1.207,1.438-1.207
			c0.164,0,0.363,0.032,0.483,0.066v0.725c-0.144-0.044-0.33-0.066-0.505-0.066c-1.098,0-1.395,1.23-1.395,2.24v2.767h-0.691
			L54.514,18.74L54.514,18.74C54.514,18.741,54.514,18.74,54.514,18.74z"/>
		<path d="M62.245,22.19h-0.022c-0.307,0.669-1.088,1.032-1.779,1.032c-1.591,0-1.844-1.076-1.844-1.581
			c0-1.878,1.998-1.967,3.448-1.967h0.132v-0.286c0-0.954-0.34-1.438-1.274-1.438c-0.581,0-1.13,0.132-1.647,0.461v-0.671
			c0.428-0.208,1.153-0.384,1.647-0.384c1.384,0,1.967,0.625,1.967,2.086v2.471c0,0.449,0,0.791,0.054,1.174h-0.681
			C62.245,23.09,62.245,22.19,62.245,22.19z M62.179,20.267h-0.197c-1.197,0-2.625,0.12-2.625,1.35c0,0.737,0.527,1.01,1.164,1.01
			c1.625,0,1.659-1.418,1.659-2.021C62.179,20.607,62.179,20.267,62.179,20.267z"/>
		<path d="M67.789,18.083h-1.274v3.623c0,0.505,0.186,0.923,0.747,0.923c0.263,0,0.439-0.056,0.637-0.132l0.044,0.571
			c-0.164,0.066-0.505,0.154-0.846,0.154c-1.23,0-1.274-0.846-1.274-1.867v-3.272h-1.098V17.49h1.098v-1.351l0.693-0.242v1.593
			h1.274C67.789,17.49,67.789,18.083,67.789,18.083z"/>
		<path d="M70.579,15.995h-0.693v-0.923h0.693V15.995z M69.886,17.49h0.693v5.6h-0.693V17.49z"/>
		<path d="M75.366,17.358c1.813,0,2.614,1.405,2.614,2.931s-0.801,2.932-2.614,2.932c-1.813,0-2.614-1.405-2.614-2.932
			C72.753,18.762,73.553,17.358,75.366,17.358z M75.366,22.629c1.207,0,1.857-1.044,1.857-2.339s-0.649-2.339-1.857-2.339
			c-1.207,0-1.857,1.044-1.857,2.339S74.158,22.629,75.366,22.629z"/>
		<path d="M80.142,18.806c0-0.428,0-0.867-0.044-1.316h0.671v0.998h0.022c0.232-0.505,0.649-1.13,1.813-1.13
			c1.384,0,1.911,0.923,1.911,2.153v3.58h-0.693v-3.404c0-1.054-0.374-1.736-1.328-1.736c-1.264,0-1.659,1.109-1.659,2.044v3.097
			h-0.693L80.142,18.806L80.142,18.806z"/>
		<path d="M90.586,22.276c0.417,0.209,0.923,0.351,1.462,0.351c0.658,0,1.24-0.363,1.24-1c0-1.328-2.69-1.12-2.69-2.746
			c0-1.109,0.9-1.526,1.823-1.526c0.297,0,0.889,0.066,1.384,0.252l-0.066,0.604c-0.361-0.165-0.856-0.263-1.241-0.263
			c-0.713,0-1.207,0.219-1.207,0.934c0,1.044,2.756,0.912,2.756,2.746c0,1.186-1.108,1.593-1.955,1.593
			c-0.537,0-1.076-0.066-1.57-0.265L90.586,22.276z"/>
		<path d="M100.512,21.772c0,0.428,0,0.867,0.042,1.318h-0.669v-1h-0.022c-0.232,0.505-0.647,1.132-1.813,1.132
			c-1.384,0-1.911-0.923-1.911-2.154V17.49h0.693v3.404c0,1.054,0.374,1.735,1.328,1.735c1.262,0,1.659-1.109,1.659-2.042V17.49
			h0.693L100.512,21.772L100.512,21.772z"/>
		<path d="M103.796,15.995h-0.693v-0.923h0.693V15.995z M103.103,17.49h0.693v5.6h-0.693V17.49z"/>
		<path d="M105.969,22.276c0.417,0.209,0.923,0.351,1.462,0.351c0.658,0,1.241-0.363,1.241-1c0-1.328-2.691-1.12-2.691-2.746
			c0-1.109,0.9-1.526,1.823-1.526c0.297,0,0.889,0.066,1.384,0.252l-0.066,0.604c-0.363-0.165-0.856-0.263-1.24-0.263
			c-0.714,0-1.207,0.219-1.207,0.934c0,1.044,2.757,0.912,2.757,2.746c0,1.186-1.109,1.593-1.955,1.593
			c-0.539,0-1.076-0.066-1.571-0.265L105.969,22.276z"/>
		<path d="M111.097,22.276c0.417,0.209,0.923,0.351,1.462,0.351c0.659,0,1.24-0.363,1.24-1c0-1.328-2.69-1.12-2.69-2.746
			c0-1.109,0.9-1.526,1.823-1.526c0.297,0,0.889,0.066,1.384,0.252l-0.066,0.604c-0.361-0.165-0.856-0.263-1.241-0.263
			c-0.713,0-1.207,0.219-1.207,0.934c0,1.044,2.756,0.912,2.756,2.746c0,1.186-1.108,1.593-1.955,1.593
			c-0.537,0-1.076-0.066-1.57-0.265L111.097,22.276z"/>
		<path d="M120.409,22.915c-0.483,0.198-1.108,0.307-1.625,0.307c-1.857,0-2.548-1.251-2.548-2.932c0-1.713,0.944-2.931,2.36-2.931
			c1.581,0,2.23,1.274,2.23,2.777v0.351h-3.833c0,1.187,0.637,2.142,1.844,2.142c0.505,0,1.241-0.209,1.571-0.417V22.915z
			 M120.068,19.894c0-0.977-0.395-1.944-1.428-1.944c-1.021,0-1.647,1.022-1.647,1.944H120.068z"/>
	</g>
	<g>
		<path d="M13.578,31.434c-0.483-0.253-1.174-0.33-1.713-0.33c-1.988,0-3.108,1.405-3.108,3.305c0,1.932,1.086,3.306,3.108,3.306
			c0.505,0,1.274-0.066,1.713-0.331l0.044,0.66c-0.417,0.252-1.274,0.33-1.757,0.33C9.449,38.375,8,36.782,8,34.41
			c0-2.328,1.493-3.965,3.865-3.965c0.449,0,1.362,0.078,1.757,0.286L13.578,31.434z"/>
		<path d="M18.607,32.51c1.811,0,2.614,1.407,2.614,2.932s-0.802,2.932-2.614,2.932c-1.813,0-2.614-1.407-2.614-2.932
			S16.794,32.51,18.607,32.51z M18.607,37.781c1.207,0,1.857-1.042,1.857-2.339c0-1.295-0.649-2.339-1.857-2.339
			s-1.857,1.044-1.857,2.339C16.75,36.739,17.399,37.781,18.607,37.781z"/>
		<path d="M23.385,33.959c0-0.429,0-0.867-0.044-1.318h0.671v1.001h0.022c0.23-0.506,0.647-1.132,1.811-1.132
			c1.384,0,1.911,0.924,1.911,2.154v3.58h-0.693v-3.406c0-1.052-0.374-1.735-1.33-1.735c-1.262,0-1.658,1.109-1.658,2.044v3.097
			h-0.691L23.385,33.959C23.384,33.959,23.385,33.959,23.385,33.959z"/>
		<path d="M30.817,33.237h-1.13v-0.595h1.13v-0.405c0-1.176,0.044-2.359,1.483-2.359c0.219,0,0.516,0.031,0.647,0.108l-0.044,0.603
			c-0.144-0.078-0.351-0.12-0.549-0.12c-0.944,0-0.845,1.021-0.845,1.689v0.483h1.262v0.595h-1.262v5.007h-0.693
			C30.817,38.243,30.817,33.237,30.817,33.237z"/>
		<path d="M38.614,38.067c-0.483,0.199-1.109,0.309-1.625,0.309c-1.857,0-2.548-1.251-2.548-2.932c0-1.713,0.944-2.932,2.36-2.932
			c1.581,0,2.23,1.276,2.23,2.779v0.351h-3.834c0,1.186,0.639,2.14,1.844,2.14c0.505,0,1.241-0.209,1.571-0.417
			C38.614,37.363,38.614,38.067,38.614,38.067z M38.274,35.046c0-0.977-0.397-1.942-1.429-1.942c-1.021,0-1.647,1.022-1.647,1.942
			H38.274z"/>
		<path d="M45.642,38.243h-0.693v-0.888h-0.022c-0.374,0.712-0.946,1.021-1.745,1.021c-1.537,0-2.306-1.274-2.306-2.932
			c0-1.702,0.659-2.932,2.306-2.932c1.098,0,1.647,0.802,1.745,1.076h0.022v-3.579h0.693V38.243z M43.292,37.781
			c1.23,0,1.658-1.316,1.658-2.339c0-1.021-0.428-2.339-1.658-2.339c-1.318,0-1.658,1.251-1.658,2.339
			C41.634,36.53,41.974,37.781,43.292,37.781z"/>
		<path d="M51.923,38.067c-0.483,0.199-1.109,0.309-1.625,0.309c-1.857,0-2.548-1.251-2.548-2.932c0-1.713,0.944-2.932,2.36-2.932
			c1.581,0,2.23,1.276,2.23,2.779v0.351h-3.833c0,1.186,0.639,2.14,1.844,2.14c0.505,0,1.241-0.209,1.571-0.417
			C51.923,37.363,51.923,38.067,51.923,38.067z M51.583,35.046c0-0.977-0.397-1.942-1.429-1.942c-1.021,0-1.647,1.022-1.647,1.942
			H51.583z"/>
		<path d="M54.514,33.894c0-0.614,0-0.845-0.044-1.251h0.691v1.078h0.022c0.252-0.627,0.725-1.209,1.438-1.209
			c0.164,0,0.363,0.034,0.483,0.066v0.727c-0.144-0.046-0.33-0.066-0.505-0.066c-1.098,0-1.395,1.23-1.395,2.238v2.769h-0.691
			L54.514,33.894L54.514,33.894L54.514,33.894z"/>
		<path d="M62.245,37.342h-0.022c-0.307,0.669-1.088,1.032-1.779,1.032c-1.591,0-1.844-1.076-1.844-1.581
			c0-1.878,1.998-1.967,3.448-1.967h0.132v-0.284c0-0.956-0.34-1.439-1.274-1.439c-0.581,0-1.13,0.134-1.647,0.461v-0.669
			c0.428-0.209,1.153-0.387,1.647-0.387c1.384,0,1.967,0.627,1.967,2.088v2.471c0,0.449,0,0.789,0.054,1.176h-0.681
			C62.245,38.243,62.245,37.342,62.245,37.342z M62.179,35.421h-0.197c-1.197,0-2.625,0.12-2.625,1.35
			c0,0.737,0.527,1.01,1.164,1.01c1.625,0,1.659-1.418,1.659-2.021C62.179,35.761,62.179,35.421,62.179,35.421z"/>
		<path d="M64.858,37.659l3.37-4.423h-3.239v-0.595h4.041v0.595l-3.37,4.414h3.37v0.593h-4.173
			C64.858,38.243,64.858,37.659,64.858,37.659z"/>
		<path d="M71.798,31.149h-0.691v-0.923h0.691V31.149z M71.105,32.642h0.691v5.601h-0.691V32.642z"/>
		<path d="M76.585,32.51c1.811,0,2.614,1.407,2.614,2.932s-0.802,2.932-2.614,2.932c-1.813,0-2.614-1.407-2.614-2.932
			S74.773,32.51,76.585,32.51z M76.585,37.781c1.207,0,1.857-1.042,1.857-2.339c0-1.295-0.649-2.339-1.857-2.339
			c-1.207,0-1.857,1.044-1.857,2.339C74.729,36.739,75.376,37.781,76.585,37.781z"/>
		<path d="M81.361,33.959c0-0.429,0-0.867-0.044-1.318h0.671v1.001h0.022c0.23-0.506,0.647-1.132,1.811-1.132
			c1.384,0,1.911,0.924,1.911,2.154v3.58h-0.693v-3.406c0-1.052-0.374-1.735-1.33-1.735c-1.262,0-1.658,1.109-1.658,2.044v3.097
			H81.36C81.361,38.245,81.361,33.959,81.361,33.959z"/>
		<path d="M92.079,38.067c-0.483,0.199-1.109,0.309-1.624,0.309c-1.857,0-2.548-1.251-2.548-2.932c0-1.713,0.944-2.932,2.36-2.932
			c1.581,0,2.228,1.276,2.228,2.779v0.351h-3.832c0,1.186,0.637,2.14,1.844,2.14c0.505,0,1.241-0.209,1.57-0.417
			C92.079,37.363,92.079,38.067,92.079,38.067z M91.737,35.046c0-0.977-0.395-1.942-1.428-1.942c-1.022,0-1.647,1.022-1.647,1.942
			H91.737z"/>
		<path d="M98.448,37.265c0.451,0.286,0.977,0.451,1.691,0.451c0.944,0,1.723-0.483,1.723-1.571c0-1.504-3.512-1.689-3.512-3.7
			c0-1.23,1.075-1.998,2.426-1.998c0.374,0,0.977,0.056,1.504,0.255l-0.12,0.691c-0.341-0.188-0.88-0.284-1.395-0.284
			c-0.791,0-1.658,0.33-1.658,1.316c0,1.537,3.514,1.549,3.514,3.788c0,1.55-1.328,2.166-2.514,2.166
			c-0.747,0-1.33-0.154-1.735-0.33L98.448,37.265z"/>
		<path d="M106.869,38.243h-0.812l-1.9-5.601h0.758l1.549,4.845h0.022l1.625-4.845h0.725L106.869,38.243z"/>
		<path d="M111.35,31.149h-0.691v-0.923h0.691V31.149z M110.658,32.642h0.691v5.601h-0.691V32.642z"/>
		<path d="M113.438,37.659l3.37-4.423h-3.239v-0.595h4.041v0.595l-3.37,4.414h3.37v0.593h-4.173
			C113.438,38.243,113.438,37.659,113.438,37.659z"/>
		<path d="M119.168,37.659l3.37-4.423H119.3v-0.595h4.041v0.595l-3.372,4.414h3.372v0.593h-4.173
			C119.168,38.243,119.168,37.659,119.168,37.659z"/>
		<path d="M129.172,38.067c-0.483,0.199-1.109,0.309-1.625,0.309c-1.857,0-2.548-1.251-2.548-2.932c0-1.713,0.944-2.932,2.362-2.932
			c1.581,0,2.228,1.276,2.228,2.779v0.351h-3.833c0,1.186,0.637,2.14,1.844,2.14c0.505,0,1.241-0.209,1.57-0.417L129.172,38.067
			L129.172,38.067L129.172,38.067L129.172,38.067z M128.831,35.046c0-0.977-0.395-1.942-1.428-1.942
			c-1.022,0-1.647,1.022-1.647,1.942H128.831z"/>
		<path d="M131.764,33.894c0-0.614,0-0.845-0.044-1.251h0.691v1.078h0.022c0.252-0.627,0.725-1.209,1.438-1.209
			c0.164,0,0.363,0.034,0.483,0.066v0.727c-0.144-0.046-0.33-0.066-0.505-0.066c-1.098,0-1.395,1.23-1.395,2.238v2.769h-0.691
			L131.764,33.894L131.764,33.894L131.764,33.894z"/>
		<path d="M139.493,37.342h-0.022c-0.307,0.669-1.088,1.032-1.779,1.032c-1.591,0-1.844-1.076-1.844-1.581
			c0-1.878,1.998-1.967,3.448-1.967h0.132v-0.284c0-0.956-0.34-1.439-1.274-1.439c-0.581,0-1.13,0.134-1.647,0.461v-0.669
			c0.428-0.209,1.153-0.387,1.647-0.387c1.384,0,1.967,0.627,1.967,2.088v2.471c0,0.449,0,0.789,0.054,1.176h-0.681V37.342z
			 M139.428,35.421h-0.198c-1.197,0-2.625,0.12-2.625,1.35c0,0.737,0.527,1.01,1.164,1.01c1.625,0,1.659-1.418,1.659-2.021
			L139.428,35.421L139.428,35.421z"/>
	</g>
	<g>
		<path d="M13.578,46.587c-0.483-0.253-1.174-0.33-1.713-0.33c-1.988,0-3.108,1.405-3.108,3.305c0,1.932,1.086,3.306,3.108,3.306
			c0.505,0,1.274-0.066,1.713-0.331l0.044,0.66c-0.417,0.252-1.274,0.33-1.757,0.33C9.449,53.528,8,51.935,8,49.563
			c0-2.328,1.493-3.965,3.865-3.965c0.449,0,1.362,0.078,1.757,0.286L13.578,46.587z"/>
		<path d="M18.607,47.662c1.811,0,2.614,1.407,2.614,2.932c0,1.526-0.802,2.932-2.614,2.932c-1.813,0-2.614-1.407-2.614-2.932
			S16.794,47.662,18.607,47.662z M18.607,52.935c1.207,0,1.857-1.042,1.857-2.339c0-1.295-0.649-2.339-1.857-2.339
			S16.75,49.3,16.75,50.595C16.75,51.892,17.399,52.935,18.607,52.935z"/>
		<path d="M23.385,49.113c0-0.429,0-0.867-0.044-1.318h0.671v1.001h0.022c0.23-0.506,0.647-1.132,1.811-1.132
			c1.384,0,1.911,0.924,1.911,2.154v3.58h-0.693v-3.406c0-1.052-0.374-1.735-1.33-1.735c-1.262,0-1.658,1.109-1.658,2.044v3.097
			h-0.691L23.385,49.113C23.384,49.113,23.385,49.113,23.385,49.113z"/>
		<path d="M30.817,48.389h-1.13v-0.595h1.13v-0.405c0-1.176,0.044-2.359,1.483-2.359c0.219,0,0.516,0.031,0.647,0.108l-0.044,0.603
			c-0.144-0.078-0.351-0.12-0.549-0.12c-0.944,0-0.845,1.021-0.845,1.689v0.483h1.262v0.595h-1.262v5.007h-0.693
			C30.817,53.396,30.817,48.389,30.817,48.389z"/>
		<path d="M38.614,53.219c-0.483,0.199-1.109,0.309-1.625,0.309c-1.857,0-2.548-1.251-2.548-2.932c0-1.713,0.944-2.932,2.36-2.932
			c1.581,0,2.23,1.276,2.23,2.779v0.351h-3.834c0,1.186,0.639,2.14,1.844,2.14c0.505,0,1.241-0.209,1.571-0.417
			C38.614,52.515,38.614,53.219,38.614,53.219z M38.274,50.199c0-0.977-0.397-1.942-1.429-1.942c-1.021,0-1.647,1.022-1.647,1.942
			C35.198,50.199,38.274,50.199,38.274,50.199z"/>
		<path d="M45.642,53.396h-0.693v-0.889h-0.022c-0.374,0.712-0.946,1.021-1.745,1.021c-1.537,0-2.306-1.274-2.306-2.932
			c0-1.702,0.659-2.932,2.306-2.932c1.098,0,1.647,0.802,1.745,1.076h0.022V45.16h0.693V53.396z M43.292,52.935
			c1.23,0,1.658-1.316,1.658-2.339c0-1.021-0.428-2.339-1.658-2.339c-1.318,0-1.658,1.251-1.658,2.339
			C41.634,51.682,41.974,52.935,43.292,52.935z"/>
		<path d="M51.923,53.219c-0.483,0.199-1.109,0.309-1.625,0.309c-1.857,0-2.548-1.251-2.548-2.932c0-1.713,0.944-2.932,2.36-2.932
			c1.581,0,2.23,1.276,2.23,2.779v0.351h-3.833c0,1.186,0.639,2.14,1.844,2.14c0.505,0,1.241-0.209,1.571-0.417
			C51.923,52.515,51.923,53.219,51.923,53.219z M51.583,50.199c0-0.977-0.397-1.942-1.429-1.942c-1.021,0-1.647,1.022-1.647,1.942
			C48.507,50.199,51.583,50.199,51.583,50.199z"/>
		<path d="M54.514,49.047c0-0.614,0-0.845-0.044-1.251h0.691v1.078h0.022c0.252-0.627,0.725-1.209,1.438-1.209
			c0.164,0,0.363,0.034,0.483,0.066v0.727c-0.144-0.046-0.33-0.066-0.505-0.066c-1.098,0-1.395,1.23-1.395,2.238v2.769h-0.691
			L54.514,49.047L54.514,49.047z"/>
		<path d="M62.245,52.495h-0.022c-0.307,0.669-1.088,1.032-1.779,1.032c-1.591,0-1.844-1.076-1.844-1.581
			c0-1.878,1.998-1.967,3.448-1.967h0.132v-0.284c0-0.956-0.34-1.439-1.274-1.439c-0.581,0-1.13,0.134-1.647,0.461v-0.669
			c0.428-0.209,1.153-0.387,1.647-0.387c1.384,0,1.967,0.627,1.967,2.088v2.471c0,0.449,0,0.789,0.054,1.176h-0.681
			C62.245,53.397,62.245,52.495,62.245,52.495z M62.179,50.574h-0.197c-1.197,0-2.625,0.12-2.625,1.35
			c0,0.737,0.527,1.01,1.164,1.01c1.625,0,1.659-1.418,1.659-2.021C62.179,50.914,62.179,50.574,62.179,50.574z"/>
		<path d="M64.858,52.813l3.37-4.423h-3.239v-0.595h4.041v0.595l-3.37,4.414h3.37v0.593h-4.173
			C64.858,53.397,64.858,52.813,64.858,52.813z"/>
		<path d="M71.798,46.302h-0.691V45.38h0.691V46.302z M71.105,47.794h0.691v5.601h-0.691V47.794z"/>
		<path d="M78.77,52.078c0,0.429,0,0.867,0.044,1.318h-0.671v-1.001h-0.022c-0.23,0.506-0.647,1.132-1.811,1.132
			c-1.384,0-1.911-0.924-1.911-2.154v-3.58h0.691V51.2c0,1.054,0.374,1.735,1.33,1.735c1.264,0,1.658-1.109,1.658-2.044v-3.097
			h0.693L78.77,52.078L78.77,52.078z"/>
		<path d="M81.361,49.113c0-0.429,0-0.867-0.044-1.318h0.671v1.001h0.022c0.23-0.506,0.647-1.132,1.811-1.132
			c1.384,0,1.911,0.924,1.911,2.154v3.58h-0.693v-3.406c0-1.052-0.374-1.735-1.33-1.735c-1.262,0-1.658,1.109-1.658,2.044v3.097
			H81.36C81.361,53.399,81.361,49.113,81.361,49.113z"/>
		<path d="M91.806,52.583c0.417,0.209,0.923,0.351,1.462,0.351c0.658,0,1.241-0.361,1.241-1c0-1.328-2.691-1.122-2.691-2.746
			c0-1.109,0.9-1.527,1.823-1.527c0.297,0,0.889,0.066,1.384,0.253l-0.066,0.604c-0.363-0.165-0.856-0.265-1.24-0.265
			c-0.714,0-1.207,0.219-1.207,0.934c0,1.044,2.757,0.912,2.757,2.746c0,1.187-1.109,1.593-1.955,1.593
			c-0.539,0-1.076-0.066-1.571-0.263L91.806,52.583z"/>
		<path d="M99.305,53.396h-0.812l-1.899-5.601h0.758l1.549,4.845h0.022l1.625-4.845h0.725L99.305,53.396z"/>
		<path d="M103.784,46.302h-0.693V45.38h0.693V46.302z M103.092,47.794h0.693v5.601h-0.693V47.794z"/>
		<path d="M105.871,52.813l3.372-4.423h-3.239v-0.595h4.041v0.595l-3.372,4.414h3.372v0.593h-4.174
			C105.871,53.397,105.871,52.813,105.871,52.813z"/>
		<path d="M112.118,49.047c0-0.614,0-0.845-0.044-1.251h0.693v1.078h0.022c0.252-0.627,0.725-1.209,1.438-1.209
			c0.165,0,0.363,0.034,0.483,0.066v0.727c-0.144-0.046-0.33-0.066-0.505-0.066c-1.098,0-1.394,1.23-1.394,2.238v2.769h-0.693
			C112.118,53.398,112.118,49.047,112.118,49.047z"/>
		<path d="M119.849,52.495h-0.023c-0.307,0.669-1.086,1.032-1.779,1.032c-1.591,0-1.844-1.076-1.844-1.581
			c0-1.878,1.998-1.967,3.448-1.967h0.132v-0.284c0-0.956-0.341-1.439-1.274-1.439c-0.581,0-1.13,0.134-1.647,0.461v-0.669
			c0.428-0.209,1.152-0.387,1.647-0.387c1.384,0,1.965,0.627,1.965,2.088v2.471c0,0.449,0,0.789,0.056,1.176h-0.681L119.849,52.495
			C119.848,52.495,119.849,52.495,119.849,52.495z M119.784,50.574h-0.198c-1.197,0-2.623,0.12-2.623,1.35
			c0,0.737,0.527,1.01,1.164,1.01c1.625,0,1.659-1.418,1.659-2.021L119.784,50.574L119.784,50.574z"/>
	</g>
	<g>
		<g>
			<g>
				<g>
					<g>
						<g>
							<g>
								<defs>
									<rect id="SVGID_1_" x="-35.861" y="-2.397" width="31.35" height="34.43"/>
								</defs>
								<clipPath id="SVGID_2_">
									<use xlink:href="#SVGID_1_"  overflow="visible"/>
								</clipPath>
								<path clip-path="url(#SVGID_2_)" fill="#DC0018" d="M-4.564,0.14c0,0-5.841-2.537-15.621-2.537h-0.003
									c-9.779,0-15.621,2.537-15.621,2.537s-0.523,11.234,1.694,17.586c3.917,11.17,13.925,14.306,13.925,14.306h0.003h0.005
									c0,0,10.005-3.138,13.924-14.306C-4.041,11.374-4.564,0.14-4.564,0.14"/>
							</g>
						</g>
					</g>
				</g>
			</g>
		</g>
	</g>
	<polyline fill="#FFFFFF" points="-9.804,9.825 -9.804,16.014 -17.086,16.014 -17.086,23.237 -23.327,23.237 -23.327,16.014
		-30.606,16.014 -30.606,9.825 -23.327,9.825 -23.327,2.606 -17.088,2.606 -17.086,9.825 -9.804,9.825 	"/>
</g>
</svg>
