<?xml version="1.0" standalone="no"?>
<!DOCTYPE svg PUBLIC "-//W3C//DTD SVG 1.1//EN" "http://www.w3.org/Graphics/SVG/1.1/DTD/svg11.dtd" >
<svg xmlns="http://www.w3.org/2000/svg">
<metadata>
Created by FontPrep 20130207 at Wed Apr 23 14:18:57 2014
 By Yann Gouffon
Copyright (c) 2009 Linotype GmbH, www.linotype.com. All rights reserved. This font software may not be reproduced, modified, disclosed or transferred without the express written approval of Linotype GmbH. Frutiger is a trademark of Linotype Corp. registered in the U.S. Patent and Trademark Office and may be registered in certain other jurisdictions in the name of Linotype Corp. or its licensee Linotype GmbH. This typeface is original artwork of Adrian Frutiger and Linotype Design Studio. The design may be protected in certain jurisdictions.
</metadata>
<defs>
<font id="0159f6f6aa12a59149a659bde9a105c7" horiz-adv-x='1024' >
  <font-face 
    font-family="FrutigerNeueW02-Light"
    font-weight="200"
    font-stretch="normal"
    units-per-em="2048"
    panose-1="2 0 3 3 0 0 0 0 0 0"
    ascent="1556"
    descent="-492"
    x-height="1040"
    cap-height="1430"
    bbox="-47 -487 2011 1956"
    underline-thickness="102"
    underline-position="-102"
    unicode-range="U+000D-017E"
  />
<missing-glyph horiz-adv-x="1024" 
 />
    <glyph glyph-name=".notdef" horiz-adv-x="1024" 
 />
    <glyph glyph-name=".null" horiz-adv-x="0" 
 />
    <glyph glyph-name="uni000D" unicode="&#xd;" horiz-adv-x="0" 
 />
    <glyph glyph-name="space" unicode=" " horiz-adv-x="475" 
 />
    <glyph glyph-name="exclam" unicode="!" horiz-adv-x="610" 
d="M389 0h-166v164h166v-164zM362 354h-112l-21 1076h156z" />
    <glyph glyph-name="quotedbl" unicode="&#x22;" horiz-adv-x="827" 
d="M522 848l-22 582h135l-21 -582h-92zM213 848l-20 582h135l-23 -582h-92z" />
    <glyph glyph-name="numbersign" unicode="#" 
d="M752 879h-265l-63 -338h266zM59 432v109h238l61 338h-215v110h236l82 436h125l-80 -436h266l80 436h127l-82 -436h217v-110h-235l-64 -338h217v-109h-235l-80 -432h-127l80 432h-267l-79 -432h-125l80 432h-220z" />
    <glyph glyph-name="dollar" unicode="$" 
d="M610 109q111 8 189 79q69 76 69 177t-53 163q-72 76 -205 131v-550zM299 1094q0 -92 53 -152q45 -59 174 -115v494q-109 -12 -166 -74q-61 -61 -61 -153zM259 1318q99 96 267 112v188h88v-184q168 0 328 -54l-16 -131q-148 72 -312 72v-524q86 -35 193 -92
q82 -55 124 -103q77 -87 78 -232q1 -146 -108 -255q-113 -104 -291 -123v-180h-88v178q-210 8 -354 63l14 133q147 -74 340 -84v588q-201 80 -278 170q-84 84 -84 223t99 235z" />
    <glyph glyph-name="percent" unicode="%" horiz-adv-x="1927" 
d="M1442 643q-102 0 -156 -76t-55 -211q0 -135 55 -210q54 -74 152 -74t157 75q57 78 58 213q-1 135 -55 209t-156 74zM1772 360q0 -174 -90 -278t-242 -104t-241 100q-89 102 -89 279t89 279t246 101q157 0 243 -100q84 -103 84 -277zM592 -43h-105l850 1548h107zM698 1077
q0 281 -211 281q-98 0 -155 -76q-56 -80 -56 -212t56 -207t154 -75q99 0 157 76q55 78 55 213zM492 1452q156 0 242 -101t85 -277q0 -176 -89 -278t-244 -102t-240 101q-90 98 -90 274t90 283q90 100 246 100z" />
    <glyph glyph-name="ampersand" unicode="&#x26;" horiz-adv-x="1435" 
d="M281 383q0 -130 87 -210q87 -81 238 -83q211 0 344 162l-401 450q-268 -107 -268 -319zM600 831q279 120 279 305q1 97 -59 150t-163 53t-153 -61q-62 -50 -63 -132t34 -155q62 -94 125 -160zM139 379q0 141 81 238t259 169q-86 88 -131 167t-45 164t29 140q25 57 76 103
q101 90 259 90q157 0 251 -83t94 -215t-84 -222t-260 -174q215 -245 362 -406q112 184 117 428h131q-2 -127 -47 -269t-119 -243l246 -266h-178l-154 168q-172 -188 -432 -188q-111 0 -188 28q-78 23 -144 78q-123 115 -123 293z" />
    <glyph glyph-name="quotesingle" unicode="'" horiz-adv-x="520" 
d="M213 848l-20 582h135l-23 -582h-92z" />
    <glyph glyph-name="parenleft" unicode="(" horiz-adv-x="655" 
d="M289 637q0 -425 291 -924h-117q-314 486 -311 922q0 353 188 713q57 106 123 208h117q-291 -494 -291 -919z" />
    <glyph glyph-name="parenright" unicode=")" horiz-adv-x="655" 
d="M383 634q0 435 -291 922h119q149 -236 219 -436q138 -377 66 -735q-20 -117 -79 -277t-206 -395h-119q291 486 291 921z" />
    <glyph glyph-name="asterisk" unicode="*" horiz-adv-x="987" 
d="M541 1210l303 117l37 -117l-314 -86l213 -256l-100 -75l-184 280l-183 -280l-100 71l209 260l-316 88l39 115l306 -117l-21 330h125z" />
    <glyph glyph-name="plus" unicode="+" 
d="M532 469h-462v115h462v467h121v-467h453v-115h-453v-469h-121v469z" />
    <glyph glyph-name="comma" unicode="," horiz-adv-x="479" 
d="M199 -274h-111l125 473h147z" />
    <glyph glyph-name="hyphen" unicode="-" horiz-adv-x="673" 
d="M590 489h-504v111h504v-111z" />
    <glyph glyph-name="period" unicode="." horiz-adv-x="479" 
d="M324 0h-170v172h170v-172z" />
    <glyph glyph-name="slash" unicode="/" horiz-adv-x="925" 
d="M260 0h-119l525 1430h116z" />
    <glyph glyph-name="zero" unicode="0" 
d="M913 714q1 306 -85 462t-243 155t-240 -157t-83 -460t83 -461t242 -157t240 158q86 154 86 460zM590 1452q234 0 352 -195q117 -195 117 -548t-117 -529q-115 -200 -353 -202q-227 -1 -360 202q-116 209 -115 551t124 531q118 190 352 190z" />
    <glyph glyph-name="one" unicode="1" 
d="M590 1104q0 68 4 100q0 55 2 74h-4q-24 -24 -94 -85t-74 -65l-84 -69l-76 94l338 277h127v-1430h-141v893q0 63 2 102v109z" />
    <glyph glyph-name="two" unicode="2" 
d="M987 1069q0 -159 -99 -321q-147 -240 -468 -519q-94 -80 -144 -112v-4q31 2 103 2q36 4 113 4h110q35 2 98 2h316v-121h-877v137q182 158 316 285q141 141 223 248q162 211 162 393q0 127 -88 207q-84 65 -228 65t-307 -94l-24 125q180 88 362 86q86 0 170 -22
q82 -27 135 -74q53 -39 94 -119q33 -76 33 -168z" />
    <glyph glyph-name="three" unicode="3" 
d="M854 403q0 285 -457 285h-39q-29 0 -39 -2v117q10 -2 39 -2h39q449 0 449 276q0 132 -101 197q-35 27 -104 49q-68 14 -125 14q-159 0 -323 -73l-13 125q164 63 348 63q319 0 422 -211q33 -66 33 -152t-29 -141q-24 -59 -74 -101q-102 -87 -266 -97v-7q167 -5 271 -92
q112 -99 110 -258q0 -98 -41 -177q-80 -154 -270 -210q-102 -29 -240 -29t-321 58l14 127q162 -72 332 -72q253 0 351 170q34 59 34 143z" />
    <glyph glyph-name="four" unicode="4" 
d="M766 901q0 255 10 445h-4q-40 -78 -75 -132t-55 -89q-22 -35 -40 -64t-24 -39l-369 -565h557v444zM901 457h201v-121h-201v-336h-135v336h-696v127l639 967h192v-973z" />
    <glyph glyph-name="five" unicode="5" 
d="M521 768q-165 0 -308 -63l10 725h746v-119h-619l-10 -463q96 31 206 31q220 0 347 -117q59 -51 98 -135q33 -87 33 -187q0 -208 -143 -335q-143 -128 -379 -128q-135 0 -305 50l6 133q138 -68 295 -70q174 0 281 98q50 46 73 107q29 57 29 143q0 164 -99 246
q-96 84 -261 84z" />
    <glyph glyph-name="six" unicode="6" 
d="M614 786q-66 0 -127 -24q-199 -104 -196 -297q0 -153 86 -264q94 -111 228 -111q135 0 231 100q37 47 61 113q20 68 21 139q0 156 -76 250t-228 94zM753 1337q-233 0 -356 -182q-121 -168 -129 -469h6q45 100 148 158q106 53 212 53q185 0 312 -123q113 -135 113 -323
q0 -97 -34 -185q-69 -178 -232 -252q-84 -37 -185 -37q-229 0 -352 169t-123 497q0 172 39 328q89 311 311 422q113 59 248 59t256 -41l-12 -123q-103 49 -222 49z" />
    <glyph glyph-name="seven" unicode="7" 
d="M135 1307v123h864v-125l-546 -1305h-154l559 1307h-723z" />
    <glyph glyph-name="eight" unicode="8" 
d="M256 362q0 -120 90 -196t242 -76q221 0 309 160q25 49 25 115q0 115 -84 191t-273 134q-152 -51 -233 -129q-76 -79 -76 -199zM585 1339q-122 0 -206 -61q-82 -63 -82 -180q0 -164 192 -258q54 -23 115 -43q130 55 178 105t68 94t20 106q0 119 -82 178t-203 59zM1067 371
q0 -90 -36 -163q-74 -150 -253 -202q-82 -26 -192 -26q-219 1 -348 104q-66 55 -95 123q-35 68 -34 162q0 139 91 229t253 147v3q-303 111 -301 348q0 80 34 148t88 110q123 96 316 96t310 -93q118 -93 118 -249q0 -229 -305 -358v-2q354 -106 354 -377z" />
    <glyph glyph-name="nine" unicode="9" 
d="M881 967q0 68 -21 143q-25 66 -61 119q-90 111 -234 110q-143 -1 -223 -98q-37 -41 -63 -108q-20 -72 -21 -138q0 -158 74 -250q77 -90 220 -90t236 89q93 90 93 223zM542 545q-108 0 -182 33q-82 31 -131 90q-114 114 -113 315q1 200 126 336q53 57 139 98q88 35 186 35
q231 0 353 -166q121 -168 120 -495q0 -186 -41 -330q-35 -145 -116 -256q-74 -107 -192 -167t-263 -60t-252 45l12 122q111 -53 232 -53q236 0 356 187q119 176 127 469h-6q-45 -98 -146 -150t-209 -53z" />
    <glyph glyph-name="colon" unicode=":" horiz-adv-x="536" 
d="M352 868h-168v172h168v-172zM352 0h-168v172h168v-172z" />
    <glyph glyph-name="semicolon" unicode=";" horiz-adv-x="536" 
d="M352 868h-168v172h168v-172zM199 -274h-111l125 473h147z" />
    <glyph glyph-name="less" unicode="&#x3c;" 
d="M74 477v117l1030 379v-131l-561 -195q-8 -2 -35 -11t-44 -14q-17 -4 -50 -16q-32 -12 -54 -18t-70 -23t-87 -26v-4q41 -10 88 -27q46 -16 85 -28t73 -23q34 -12 94 -33l561 -195v-129z" />
    <glyph glyph-name="equal" unicode="=" 
d="M70 676v112h1036v-112h-1036zM70 270v113h1036v-113h-1036z" />
    <glyph glyph-name="greater" unicode="&#x3e;" 
d="M1104 596v-119l-1030 -377v129l559 195q59 20 77 26t52 18l45 15q33 7 67 19t101 33v4q-67 20 -101 29q-34 10 -60 18l-58 19q-33 11 -47 15t-42 14t-34 13l-559 197v127z" />
    <glyph glyph-name="question" unicode="?" horiz-adv-x="972" 
d="M532 0h-165v166h165v-166zM729 1086q0 238 -309 239q-144 0 -260 -57l-10 125q139 53 265 53q214 0 335 -82q122 -91 120 -254q0 -113 -55 -205q-47 -88 -168 -219q-31 -33 -61 -76q-31 -37 -41 -69q-10 -16 -25 -66q-6 -37 -6 -74v-47h-129v35q0 113 28 177t130 188
q96 110 141 188t45 144z" />
    <glyph glyph-name="at" unicode="@" horiz-adv-x="2048" 
d="M1268 776q0 86 -52 138t-132 53q-142 0 -236 -142q-98 -139 -96 -315q0 -106 50 -166t132 -59q82 0 137 47q53 39 105 114q92 155 92 330zM1048 -123q284 0 494 113l33 -94q-232 -113 -514 -113q-385 0 -619 213q-233 206 -233 571t254 615q127 118 289 182t338 64
q346 -1 544 -187q100 -90 154 -211t53 -252q0 -130 -34 -238q-69 -217 -224 -307q-82 -47 -173 -47t-136 41t-45 93t8 88h-4q-106 -221 -322 -222q-135 0 -211 88q-72 94 -72 220q1 230 132 400q130 169 321 169t242 -193h4q13 52 45 160h115q-170 -503 -170 -643
q0 -106 119 -106t215 149q37 63 61 152q50 241 -24 409q-94 222 -326 299q-118 43 -274 43t-293 -59q-135 -53 -246 -160q-106 -109 -160 -244q-59 -133 -59 -299q0 -325 198 -508q94 -92 232 -137q138 -49 288 -49z" />
    <glyph glyph-name="A" unicode="A" horiz-adv-x="1406" 
d="M805 1022q-11 25 -19 46t-18 49t-18 42q-6 20 -22 59t-30 91h-4q-10 -31 -19 -55t-25 -69q-16 -46 -35 -93q-19 -48 -27 -70l-207 -518h633zM774 1430q201 -479 301 -715t301 -715h-155l-160 387h-725l-158 -387h-151l598 1430h149z" />
    <glyph glyph-name="B" unicode="B" horiz-adv-x="1183" 
d="M340 117h166q199 -1 302 67t103 215t-98 215t-305 68h-168v-565zM340 797h170q168 0 264 59q45 29 78 80q27 53 27 119q0 135 -97 194q-94 61 -274 62h-168v-514zM201 1430h319q354 0 463 -197q39 -71 39 -179t-77 -195t-220 -118v-4q145 -14 237 -105q92 -90 93 -218
q0 -128 -43 -201q-74 -144 -281 -193q-90 -20 -203 -20h-327v1430z" />
    <glyph glyph-name="C" unicode="C" horiz-adv-x="1255" 
d="M268 710q0 -132 46 -245q91 -223 321 -309q113 -43 259 -43t267 49l10 -137q-103 -39 -281 -39q-176 0 -320 53t-238 143q-213 192 -213 524t209 535q215 203 546 203q189 0 300 -47l-17 -133q-112 55 -269 55q-284 0 -454 -170q-166 -171 -166 -439z" />
    <glyph glyph-name="D" unicode="D" horiz-adv-x="1441" 
d="M1176 711q0 596 -693 596h-141v-1184h141q150 0 287 33q131 38 219 108q185 146 187 447zM492 1430q381 0 595 -168q234 -190 234 -549q0 -371 -248 -549q-106 -82 -259 -123t-322 -41h-291v1430h291z" />
    <glyph glyph-name="E" unicode="E" horiz-adv-x="1075" 
d="M946 0h-745v1430h729v-123h-588v-508h551v-119h-551v-557h604v-123z" />
    <glyph glyph-name="F" unicode="F" horiz-adv-x="999" 
d="M201 0v1430h702v-123h-561v-521h541v-118h-541v-668h-141z" />
    <glyph glyph-name="G" unicode="G" horiz-adv-x="1456" 
d="M896 -14q-350 0 -568 202q-100 94 -154 232t-55 302q0 316 217 519t557 203q84 0 188 -14q106 -20 183 -56l-15 -135q-84 41 -174 64q-89 18 -205 18t-230 -43t-194 -123q-80 -74 -131 -190q-45 -117 -45 -251q0 -271 171 -437t438 -166q158 0 268 41v491h-342v119h483
v-707q-207 -69 -392 -69z" />
    <glyph glyph-name="H" unicode="H" horiz-adv-x="1433" 
d="M1233 0h-141v680h-750v-680h-141v1430h141v-627h750v627h141v-1430z" />
    <glyph glyph-name="I" unicode="I" horiz-adv-x="542" 
d="M342 0h-141v1430h141v-1430z" />
    <glyph glyph-name="J" unicode="J" horiz-adv-x="720" 
d="M393 412v1018h142v-1049q0 -401 -332 -397q-80 0 -154 24l2 125q154 -50 236 -6q45 18 65 55t33 97q8 78 8 133z" />
    <glyph glyph-name="K" unicode="K" horiz-adv-x="1259" 
d="M340 0h-139v1430h139v-656h4q30 30 78 84q80 84 88 93t33 34l35 35q23 25 51 53l352 357h190l-686 -672l748 -758h-205l-453 473q-27 31 -90 97t-141 159h-4v-729z" />
    <glyph glyph-name="L" unicode="L" horiz-adv-x="976" 
d="M342 121h598v-121h-739v1430h141v-1309z" />
    <glyph glyph-name="M" unicode="M" horiz-adv-x="1873" 
d="M334 1325q4 -54 4 -184v-1141h-137v1430h235l395 -988q8 -25 25 -61q16 -49 26 -76t27 -84q16 -41 25 -74h4q8 33 24 76t24 65q6 22 28 76t30 78l400 988h229v-1430h-141v1237q0 60 4 88h-4q-69 -201 -109 -278l-432 -1047h-125l-417 1024q-9 25 -19 48t-20 50l-31 87
q-10 27 -20 53t-21 63h-4z" />
    <glyph glyph-name="N" unicode="N" horiz-adv-x="1462" 
d="M1133 246q-9 90 -9 368v816h140v-1430h-187l-536 922q-33 51 -53 89t-72 133q-51 94 -82 159h-4q6 -36 6 -189l4 -110v-1004h-139v1430h205l524 -904q49 -84 54 -94q4 -10 24 -46t31 -55q56 -103 94 -184h4q-4 28 -4 99z" />
    <glyph glyph-name="O" unicode="O" horiz-adv-x="1550" 
d="M775 1333q-114 0 -208 -46q-188 -92 -256 -318q-37 -113 -37 -253q0 -285 140 -450q61 -80 157 -125t209 -45q216 0 359 168q68 88 98 195q37 111 37 251q0 282 -133 452q-133 171 -366 171zM787 1452q293 0 466 -205q172 -210 172 -536q0 -162 -45 -303
q-49 -133 -131 -232q-82 -92 -202 -147q-125 -51 -272 -51t-269 52t-203 146q-88 94 -131 230q-47 127 -47 296t47 311t135 236q84 94 209 152q128 51 271 51z" />
    <glyph glyph-name="P" unicode="P" horiz-adv-x="1107" 
d="M342 731h156q190 0 288 68q102 63 102 218t-100 223q-102 68 -296 67h-150v-576zM512 1430q242 0 381 -102t139 -306q0 -205 -147 -309q-147 -105 -385 -105h-158v-608h-141v1430h311z" />
    <glyph glyph-name="Q" unicode="Q" horiz-adv-x="1550" 
d="M775 1333q-114 0 -208 -46q-188 -92 -256 -318q-37 -113 -37 -253q0 -285 140 -450q61 -80 157 -125t209 -45q216 0 359 168q68 88 98 195q37 111 37 251q0 282 -133 452q-133 171 -366 171zM125 702q0 169 47 311t135 236q84 94 209 152q128 51 271 51q293 0 466 -205
q172 -210 172 -536q0 -256 -102 -428q-98 -174 -281 -252l332 -305h-196l-279 262q-41 -4 -57 -8l-60 -3q-305 0 -479 199q-88 94 -131 230q-47 127 -47 296z" />
    <glyph glyph-name="R" unicode="R" horiz-adv-x="1196" 
d="M342 782h164q172 0 276 70q100 74 100 206t-94 190q-96 58 -282 59h-164v-525zM201 1430h336q229 0 361 -90t132 -273q0 -135 -83 -223t-226 -123v-4q112 -35 182 -185q82 -180 122 -268t122 -264h-160l-211 479q-45 109 -102 144q-51 41 -172 43h-160v-666h-141v1430z
" />
    <glyph glyph-name="S" unicode="S" horiz-adv-x="1044" 
d="M691 171q89 71 89 183t-63 176q-64 72 -244 155t-263 170t-83 228q0 82 32 150q62 132 226 192q90 27 218 27t257 -51l-18 -129q-129 59 -265 59t-221 -65q-84 -68 -84 -174q0 -39 15 -86q39 -83 147 -144q63 -39 144 -76q180 -86 266 -178q82 -94 82 -229
q0 -84 -33 -166q-37 -74 -96 -127q-135 -109 -336 -109q-74 0 -174 15q-94 20 -156 45l16 139q158 -74 307 -75q148 -1 237 70z" />
    <glyph glyph-name="T" unicode="T" horiz-adv-x="1064" 
d="M463 0v1307l-434 -4v127h1005v-127l-430 4v-1307h-141z" />
    <glyph glyph-name="U" unicode="U" horiz-adv-x="1409" 
d="M1231 571q0 -285 -129 -432q-63 -80 -168 -119q-98 -43 -238 -43q-264 0 -399 164q-119 152 -119 430v859h141v-830q-1 -104 17 -200q34 -189 178 -269q74 -37 188 -37q312 0 371 303q16 102 17 205v828h141v-859z" />
    <glyph glyph-name="V" unicode="V" horiz-adv-x="1294" 
d="M561 373q4 -8 14 -40t26 -78q17 -46 30 -90t16 -50h4q6 19 18 56q11 38 26 80t21 59q6 16 13 36q8 20 10 27l389 1057h146l-545 -1430h-164l-545 1430h156z" />
    <glyph glyph-name="W" unicode="W" horiz-adv-x="2045" 
d="M555 119h4q12 59 14 63l17 70q11 53 15 65q5 11 9 29t7 23l301 1061h194l311 -1061l8 -24q16 -56 23 -91l21 -70q0 -4 14 -65h4q12 59 17 87q6 28 10 40t7 25t6 25t6 21q3 11 7 29t6 23l308 1061h147l-436 -1430h-178l-320 1083q-10 31 -16 59t-13 56q-6 28 -12 52
q-6 26 -9 36t-5 20t-4 17h-4q-31 -157 -58 -240l-313 -1083h-178l-428 1430h153l304 -1061q9 -27 16 -63q9 -41 27 -107t18 -80z" />
    <glyph glyph-name="X" unicode="X" horiz-adv-x="1298" 
d="M651 834q16 23 42 66q51 82 74 111t33 45t13 19l244 355h166l-486 -685l533 -745h-176l-279 399q-122 179 -170 260q-31 -45 -39 -61q-23 -31 -45 -70q-47 -64 -88 -129l-274 -399h-172l532 745l-489 685h170l247 -355q44 -56 96 -137t68 -104z" />
    <glyph glyph-name="Y" unicode="Y" horiz-adv-x="1271" 
d="M709 0h-144v602l-547 828h175l217 -340q16 -23 59 -95q23 -33 63 -101t62 -97q34 -61 43 -72h4q10 21 53 87t61 98q19 32 41 66t33 52q11 20 21 34t18 28l217 340h170l-546 -824v-606z" />
    <glyph glyph-name="Z" unicode="Z" horiz-adv-x="1089" 
d="M1014 121v-121h-944v119q35 55 93 144q62 95 206 320t200 310q56 84 133 203t142 211h-756v123h905v-132q-51 -82 -156 -242t-223 -344t-159 -241q-63 -103 -138 -213t-96 -137h793z" />
    <glyph glyph-name="bracketleft" unicode="[" horiz-adv-x="655" 
d="M537 1456h-218v-1642h218v-101h-351v1843h351v-100z" />
    <glyph glyph-name="backslash" unicode="\" horiz-adv-x="925" 
d="M256 1430l524 -1430h-118l-523 1430h117z" />
    <glyph glyph-name="bracketright" unicode="]" horiz-adv-x="655" 
d="M139 1556h350v-1843h-350v101h217v1640h-217v102z" />
    <glyph glyph-name="asciicircum" unicode="^" 
d="M528 1427h117l328 -884h-125l-152 430q-19 62 -44 136t-60 194h-4q-2 -4 -10 -31q-8 -28 -20 -64t-26 -81q-13 -45 -28 -78q-4 -18 -14 -44t-11 -32l-149 -430h-123z" />
    <glyph glyph-name="underscore" unicode="_" horiz-adv-x="1024" 
d="M1024 -160v-102h-1024v102h1024z" />
    <glyph glyph-name="grave" unicode="`" horiz-adv-x="1024" 
d="M264 1548h150l198 -362h-106z" />
    <glyph glyph-name="a" unicode="a" horiz-adv-x="1097" 
d="M676 524q-209 0 -322 -55t-112 -180q0 -95 64 -147t169 -52q160 0 242 103q82 96 82 325q-45 6 -123 6zM797 649q0 306 -290 304q-151 -1 -290 -101l-8 125q74 45 160 63q84 23 181 23q190 0 286 -113q86 -90 88 -295q0 -68 -2 -102v-100q0 -58 -4 -86v-62q0 -103 6 -201
t6 -104h-123q-4 8 -4 37v98q0 37 4 53h-4q-39 -88 -132 -145t-237 -57t-238 83q-95 83 -96 220q0 166 142 252q145 84 411 84q87 0 144 -7v31z" />
    <glyph glyph-name="b" unicode="b" horiz-adv-x="1226" 
d="M890 209q87 119 87 315q0 96 -23 166q-16 68 -61 137q-89 125 -235 124q-147 -1 -244 -120q-43 -57 -74 -135q-27 -86 -27 -177q0 -176 93 -306q106 -123 251 -123q146 0 233 119zM317 1116q0 -204 -6 -282h4q49 96 148 165q99 63 209 63q206 1 327 -148
q121 -150 119 -382q0 -113 -28 -221q-69 -215 -230 -291q-86 -43 -200 -43t-203 64q-94 63 -146 162h-4q0 -87 -8 -203h-125q10 112 10 315v1233h133v-432z" />
    <glyph glyph-name="c" unicode="c" horiz-adv-x="931" 
d="M868 37q-240 -94 -458 -12q-193 85 -267 276q-35 100 -35 216q1 239 142 384q74 76 164 111q88 41 218 41t230 -41l-12 -123q-98 47 -202 47q-280 0 -369 -248q-27 -74 -27 -167t26 -167q54 -153 193 -217q74 -31 176 -31t211 54z" />
    <glyph glyph-name="d" unicode="d" horiz-adv-x="1226" 
d="M819 827q-106 123 -251 123t-228 -119q-45 -61 -68 -139q-48 -162 0 -344q43 -150 166 -225q61 -33 133 -33t136 32t104 87q43 49 71 129t28 175q0 188 -91 314zM913 856q-6 80 -6 260v432h133v-1233q0 -216 11 -315h-125q-4 61 -4 98q-2 37 -2 105h-5q-51 -97 -142 -161
t-207 -64t-196 38q-80 39 -142 113t-89 170q-31 94 -31 211q1 238 117 395q131 158 338 158q113 0 207 -55q94 -59 139 -152h4z" />
    <glyph glyph-name="e" unicode="e" horiz-adv-x="1103" 
d="M866 604q0 176 -75 264q-76 88 -211 88q-134 0 -224 -89t-106 -263h616zM999 532q0 -24 -4 -36h-749q4 -188 106 -296t283 -108q139 0 283 74l6 -127q-133 -61 -293 -62q-254 0 -389 146q-133 150 -133 401t133 389q57 70 145 110t195 40q198 0 308 -126t109 -372v-33z
" />
    <glyph glyph-name="f" unicode="f" horiz-adv-x="700" 
d="M573 1444q-98 0 -135 -66q-39 -63 -39 -178v-166h258v-108h-258v-926h-131v926h-231v108h231v162q0 253 160 334q101 51 256 10l-12 -110q-58 14 -99 14z" />
    <glyph glyph-name="g" unicode="g" horiz-adv-x="1216" 
d="M1034 1040v-985q0 -242 -125 -374q-123 -135 -344 -135t-381 69l15 135q162 -88 350 -88t278 117q78 108 78 301v65q0 27 4 72h-4q-45 -88 -137 -156q-88 -61 -206 -61t-197 37q-80 37 -144 106q-119 154 -119 386t125 380q53 68 144 115q88 39 171 39q195 0 312 -127
q35 -37 55 -80h4q-4 66 -4 96v88h125zM572 950q-77 0 -137 -32q-122 -64 -168 -228t-2 -326q45 -162 169 -225q61 -29 133 -29q139 1 242 115q43 51 70 130q56 163 2 337q-20 74 -66 135q-96 123 -243 123z" />
    <glyph glyph-name="h" unicode="h" horiz-adv-x="1212" 
d="M317 1548v-483q0 -59 -2 -88v-80q-2 -23 -2 -55h4q51 96 145 158t206 62q114 0 185 -33q132 -63 171 -247q16 -88 16 -184v-598h-135v551q0 92 -10 165q-21 153 -121 208q-47 26 -124 26q-229 -1 -306 -241q-27 -80 -27 -187v-522h-133v1548h133z" />
    <glyph glyph-name="i" unicode="i" horiz-adv-x="503" 
d="M317 0h-133v1040h133v-1040zM330 1272h-158v166h158v-166z" />
    <glyph glyph-name="j" unicode="j" horiz-adv-x="503" 
d="M317 -96q0 -184 -59 -260q-27 -43 -82 -74q-54 -25 -112 -25t-103 11v114q35 -8 70 -8q92 0 125 64q29 70 28 188v1126h133v-1136zM330 1272h-158v166h158v-166z" />
    <glyph glyph-name="k" unicode="k" horiz-adv-x="1044" 
d="M317 553v-553h-133v1548h133v-946h5q25 31 71 74q27 29 88 86l314 278h184l-535 -454l580 -586h-184l-363 375q-69 75 -93 101t-62 77h-5z" />
    <glyph glyph-name="l" unicode="l" horiz-adv-x="503" 
d="M317 0h-133v1548h133v-1548z" />
    <glyph glyph-name="m" unicode="m" horiz-adv-x="1804" 
d="M311 846h4q47 100 135 158t204 59q116 0 186 -68q74 -66 102 -176q47 111 139 180q93 63 203 63t172 -34q128 -63 160 -237q16 -88 16 -185v-606h-135v563q0 192 -33 262t-79 98q-45 27 -123 27t-132 -32q-155 -104 -155 -433v-485h-135v588q0 186 -49 274
q-51 88 -170 88q-70 0 -121 -28q-55 -25 -94 -82q-39 -51 -66 -135q-23 -86 -23 -189v-516h-133v727q0 196 -10 313h129q8 -82 8 -194z" />
    <glyph glyph-name="n" unicode="n" horiz-adv-x="1212" 
d="M313 846h4q55 102 146 158q87 59 201 59q216 0 299 -133q77 -109 77 -332v-598h-135v551q0 196 -53 297q-60 104 -203 103t-237 -108t-95 -321v-522h-133v727q0 196 -10 313h131q8 -164 8 -194z" />
    <glyph glyph-name="o" unicode="o" horiz-adv-x="1214" 
d="M605 950q-81 0 -149 -32t-108 -87q-100 -117 -98 -314q0 -97 24 -177q58 -156 187 -219q63 -31 144 -31t150 32q131 61 183 222q27 74 27 176t-27 176q-52 160 -184 222q-68 32 -149 32zM614 1063q104 0 199 -39q96 -47 154 -115q63 -68 101 -171t38 -223
q0 -234 -137 -386t-363 -152q-102 0 -200 39q-94 43 -158 111q-141 162 -140 398q1 237 142 386q66 70 160 113q100 39 204 39z" />
    <glyph glyph-name="p" unicode="p" horiz-adv-x="1224" 
d="M311 514q0 -92 28 -172t71 -131q90 -121 241 -121q76 0 134 32q126 69 167 222q23 80 23 170q0 200 -86 318t-237 118t-246 -122q-95 -121 -95 -314zM313 205q4 -20 4 -115v-520h-133v1157q0 196 -10 313h129q4 -12 4 -43v-55l4 -55v-45h4q59 111 156 166q91 55 201 55
q213 0 323 -150q53 -61 90 -168q31 -102 31 -223q0 -243 -121 -393q-59 -72 -139 -113q-88 -39 -196 -39q-108 -1 -200 61q-93 62 -143 167h-4z" />
    <glyph glyph-name="q" unicode="q" horiz-adv-x="1224" 
d="M568 950q-77 0 -130 -32q-59 -31 -100 -87q-88 -129 -87 -316t89 -304q81 -121 233 -121q75 0 137 32q126 65 175 222q27 74 27 170t-25 178q-51 161 -179 226q-64 32 -140 32zM1040 -430h-133v375q0 43 2 67v76q0 48 4 68v47h-4q-117 -224 -358 -226q-94 0 -182 39
q-86 45 -140 113q-123 142 -123 395q0 123 32 220q65 196 231 280q88 39 180 39q248 0 360 -211h4l13 188h121q-2 -31 -7 -77v-1393z" />
    <glyph glyph-name="r" unicode="r" horiz-adv-x="727" 
d="M596 938q-56 0 -109 -30t-90 -83q-78 -99 -80 -286v-539h-133v727q0 196 -10 313h131q2 -14 2 -47q4 -20 4 -55v-53q2 -18 2 -47h4q33 94 111 159t180 66q47 0 86 -12l-2 -123q-40 10 -96 10z" />
    <glyph glyph-name="s" unicode="s" horiz-adv-x="825" 
d="M240 788q0 -78 54 -120t183 -89q129 -48 193 -116t63 -178q0 -74 -28 -138q-93 -167 -330 -170q-82 0 -146 15q-74 12 -137 39l14 125q127 -66 271 -66t201 100q20 33 20 77q0 87 -53 126q-29 29 -125 72q-97 43 -162 76q-57 37 -85 63q-64 58 -64 182t100 201
q82 74 227 75q144 1 250 -40l-12 -119q-104 49 -207 49t-165 -43t-62 -121z" />
    <glyph glyph-name="t" unicode="t" horiz-adv-x="737" 
d="M383 1034h274v-110h-274v-580q0 -123 40 -186t138 -64q53 0 109 23l6 -107q-63 -22 -141 -22q-232 1 -269 194q-14 57 -14 140v602h-223v110h223v238l131 45v-283z" />
    <glyph glyph-name="u" unicode="u" horiz-adv-x="1212" 
d="M905 44q0 34 -4 50v56q-2 18 -2 47h-4q-51 -103 -143 -161t-217 -59q-193 0 -279 114t-86 351v598h135v-555q0 -212 55 -299q57 -96 197 -96q141 0 242 103q94 115 94 323v524h133v-729q0 -194 10 -311h-129q-2 10 -2 44z" />
    <glyph glyph-name="v" unicode="v" horiz-adv-x="968" 
d="M412 350q16 -40 31 -99q16 -59 23 -79t9 -30t5 -21q3 -10 5 -17h4q10 29 19 60l20 65q27 95 39 121l236 690h135l-377 -1040h-155l-373 1040h145z" />
    <glyph glyph-name="w" unicode="w" horiz-adv-x="1671" 
d="M377 0l-342 1040h145l213 -694q23 -74 34 -127t32 -115h4q22 99 33 121q2 13 8 33t9 32t9 29q6 18 8 25l226 696h164l225 -694q41 -133 67 -242h5q23 78 32 121q33 115 35 119l217 696h135l-346 -1040h-160l-241 750q-23 69 -51 188h-4q-2 -10 -8 -32t-13 -43
q-6 -20 -13 -50t-20 -63l-239 -750h-164z" />
    <glyph glyph-name="x" unicode="x" horiz-adv-x="985" 
d="M498 612q8 12 40 70t70 119l152 239h151l-336 -495l369 -545h-162l-168 262q-6 7 -20 32t-25 41q-29 42 -53 87l-27 47q-4 -6 -21 -40t-41 -67q-24 -34 -39 -61t-23 -39l-168 -262h-158l371 545l-342 495h163l154 -239q24 -31 64 -104q41 -73 49 -85z" />
    <glyph glyph-name="y" unicode="y" horiz-adv-x="968" 
d="M202 -455q-54 0 -75 2q-20 2 -57 15l12 110q58 -16 99 -16q40 0 69 13t68 60t102 238l-387 1073h145l236 -688q10 -28 22 -69q12 -40 27 -91t24 -88h5q9 47 15 59q5 13 21 67q24 83 39 122l236 688h137l-401 -1120q-75 -198 -138 -278q-89 -97 -199 -97z" />
    <glyph glyph-name="z" unicode="z" horiz-adv-x="956" 
d="M872 111v-111h-794v117q138 180 234 301t159 202q63 80 90 114q65 81 93 117t47 57q18 20 20 24h-617v108h760v-118q-113 -145 -266 -344q-164 -207 -230 -294t-143 -173h647z" />
    <glyph glyph-name="braceleft" unicode="{" horiz-adv-x="655" 
d="M238 1116q0 109 14 191q27 159 160 213q72 29 182 36v-98q-125 -8 -174 -81t-49 -214v-114q0 -215 -35 -287q-18 -49 -62 -80q-35 -29 -106 -45v-4q72 -20 106 -51q43 -31 62 -82q35 -68 35 -279v-115q0 -142 53 -214t170 -80v-99q-108 10 -176 37q-139 55 -164 213
q-16 68 -16 189v137q0 145 -35 207q-36 70 -178 92v94q72 10 114 31q82 52 92 151q6 49 7 117v135z" />
    <glyph glyph-name="bar" unicode="|" horiz-adv-x="573" 
d="M223 1610h127v-2048h-127v2048z" />
    <glyph glyph-name="braceright" unicode="}" horiz-adv-x="655" 
d="M418 289v-137q0 -109 -14 -191q-27 -156 -160 -211q-72 -29 -183 -37v99q125 8 175 81t49 213v115q0 214 34 287q18 51 62 78q37 31 106 47v4q-72 20 -106 51q-43 31 -62 82q-34 67 -34 279v114q1 143 -53 215t-171 80v98q104 -8 172 -34t115 -84q41 -59 55 -131t15 -189
v-137q0 -148 35 -207q36 -70 178 -92v-94q-72 -10 -115 -31q-80 -50 -92 -151q-6 -49 -6 -117z" />
    <glyph glyph-name="asciitilde" unicode="~" 
d="M827 377q-80 0 -134 26q-54 27 -121 69q-66 42 -110 66t-102 23q-89 0 -170 -49q-75 -55 -116 -121v141q47 66 123 103q71 41 153 41t138 -27t120 -69t108 -65t121 -23t148 49q72 45 117 116v-143q-45 -59 -120 -98t-155 -39z" />
    <glyph glyph-name="uni00A0" unicode="&#xa0;" horiz-adv-x="475" 
 />
    <glyph glyph-name="exclamdown" unicode="&#xa1;" horiz-adv-x="610" 
d="M219 1040h166v-166h-166v166zM246 684h112l21 -1071h-156z" />
    <glyph glyph-name="cent" unicode="&#xa2;" 
d="M344 510q0 -106 41 -188q37 -88 111 -146l235 760h-8q-170 0 -272 -117q-53 -57 -78 -131q-29 -72 -29 -178zM719 1053h22q16 0 25 -2l80 256h90l-84 -267q55 -8 104 -30l-10 -123q-68 33 -129 41l-246 -793q74 -29 152 -29q136 0 229 54l11 -123q-113 -49 -228 -49
t-203 26l-86 -280h-86l97 313q-123 66 -187 184q-68 121 -68 261q1 262 142 409q74 76 164 111q88 41 211 41z" />
    <glyph glyph-name="sterling" unicode="&#xa3;" 
d="M839 1331q-102 0 -173 -33q-136 -74 -166 -241q-18 -86 -19 -189v-71h350v-90h-350v-590h555v-117h-891v117h199v590h-178v90h176v98q0 263 126 407t355 144q113 0 226 -33l-15 -125q-93 43 -195 43z" />
    <glyph glyph-name="currency" unicode="&#xa4;" 
d="M586 477q102 0 167 69t64 171q0 51 -18 94q-14 43 -47 77q-66 68 -164 68t-166 -67q-63 -70 -64 -172q0 -53 16 -94q38 -94 122 -127q39 -19 90 -19zM588 1065q112 0 205 -72l213 213l77 -76l-213 -217q64 -97 64 -195q0 -99 -64 -200l213 -217l-77 -78l-213 217
q-93 -71 -208 -71q-114 0 -204 71l-213 -217l-78 78l215 217q-63 96 -63 198t63 197l-215 217l78 76l213 -215q95 74 207 74z" />
    <glyph glyph-name="yen" unicode="&#xa5;" 
d="M969 682v-90h-314v-135h314v-90h-314v-367h-129v367h-309v90h309v135h-309v90h275l-414 748h160l217 -418q10 -16 26 -50q17 -34 31 -60t45 -89t35 -74h4q16 48 94 197q78 150 84 162l174 332h152l-410 -748h279z" />
    <glyph glyph-name="brokenbar" unicode="&#xa6;" horiz-adv-x="573" 
d="M223 342h127v-780h-127v780zM223 1610h127v-781h-127v781z" />
    <glyph glyph-name="section" unicode="&#xa7;" 
d="M872 569q0 90 -65 140q-59 51 -201 108l-141 57q-68 -28 -109 -82t-41 -114t17 -88q20 -59 127 -111q49 -20 116 -49l152 -61q145 58 145 200zM258 1137q0 66 29 127q29 53 82 100q117 86 275 86q159 0 282 -43l-15 -127q-135 55 -256 55t-192 -51q-70 -53 -70 -128
t44 -117q43 -42 119 -73q76 -30 178 -74t156 -84q111 -82 109 -214q0 -98 -52 -169t-132 -110q129 -84 129 -223q0 -80 -33 -144q-61 -117 -215 -165q-150 -38 -319 -6q-92 16 -162 45l16 131q165 -72 295 -72t204 49t75 150q0 74 -47 113q-47 47 -156 92q-126 57 -184 79
t-112 61q-118 83 -118 224q0 96 54 166q49 68 137 107q-121 84 -121 215z" />
    <glyph glyph-name="dieresis" unicode="&#xa8;" horiz-adv-x="1024" 
d="M766 1274h-145v158h145v-158zM403 1274h-145v158h145v-158z" />
    <glyph glyph-name="copyright" unicode="&#xa9;" horiz-adv-x="1843" 
d="M1002 403q85 0 153 35l6 -98q-72 -27 -170 -27q-190 0 -317 111q-53 47 -88 126t-35 176q0 184 123 298q123 115 311 115q96 0 170 -29l-6 -98q-74 35 -157 35q-145 0 -242 -89q-91 -91 -91 -233t95 -233q89 -89 248 -89zM412 1229q211 207 509 207t511 -207
q210 -211 210 -513q0 -154 -56 -283q-115 -268 -384 -384q-134 -55 -282 -55t-280 57q-269 116 -382 385q-57 129 -57 283t57 280q55 131 154 230zM922 1354q-139 0 -250 -51q-231 -95 -336 -340q-49 -115 -49 -247q0 -264 184 -452q80 -86 201 -137q111 -51 250 -51t249 51
q121 51 201 137q88 90 135 207q49 117 49 249q0 257 -184 447q-82 86 -201 136q-110 51 -249 51z" />
    <glyph glyph-name="ordfeminine" unicode="&#xaa;" horiz-adv-x="841" 
d="M606 768q-86 -158 -288 -158q-102 0 -174 62t-72 181q0 120 108 187q111 63 297 64q51 0 119 -6q0 113 -47 168q-43 59 -162 59t-221 -70l-8 113q108 57 258 57q149 0 224 -83t75 -228q0 -43 -2 -70v-73q0 -46 -4 -66v-78q0 -74 8 -204h-107q-4 20 -4 32v64q0 29 2 49h-2
zM598 1008l-106 8q-133 0 -209 -41q-82 -37 -82 -131q0 -66 44 -103t115 -36q102 -1 170 71t68 232z" />
    <glyph glyph-name="guillemotleft" unicode="&#xab;" horiz-adv-x="995" 
d="M242 512l274 -412h-127l-289 412l285 403h129zM612 512l275 -412h-127l-289 412l287 403h127z" />
    <glyph glyph-name="logicalnot" unicode="&#xac;" 
d="M68 707v110h999v-579h-111v469h-888z" />
    <glyph glyph-name="uni00AD" unicode="&#xad;" horiz-adv-x="673" 
d="M590 489h-504v111h504v-111z" />
    <glyph glyph-name="registered" unicode="&#xae;" horiz-adv-x="1024" 
d="M508 1360q-117 0 -209 -90q-41 -41 -65 -96q-48 -110 -1 -234q53 -116 162 -162q114 -52 230 0q116 51 166 164q49 122 -4 237q-53 116 -160 156q-56 25 -119 25zM515 1417q147 0 255 -106q53 -55 74 -115q28 -57 28 -138t-28 -140q-23 -64 -75 -116t-116 -77
q-59 -29 -136 -29t-143 28t-118 79q-51 51 -76 115q-28 63 -28 139q1 153 106 258q55 51 117 74q63 28 140 28zM473 1098q105 0 105 57q0 39 -29 47q-27 10 -76 10h-22v-114h22zM385 1268h102q76 0 120 -20t44 -85q0 -33 -24 -61q-27 -25 -78 -33v-4q31 -7 44 -25t28 -45
l61 -129h-76l-55 121q-15 29 -31 42t-57 13h-12v-176h-66v402z" />
    <glyph glyph-name="macron" unicode="&#xaf;" horiz-adv-x="1024" 
d="M780 1294h-538v95h538v-95z" />
    <glyph glyph-name="degree" unicode="&#xb0;" horiz-adv-x="819" 
d="M260 1348q-61 -61 -61 -151q-1 -90 61 -151t151 -61q89 -1 150 61t61 153t-61 153q-65 59 -155 59q-91 0 -146 -63zM414 1497q59 0 114 -22q47 -23 95 -66q86 -94 86 -211q0 -119 -86 -213q-96 -88 -213 -88t-213 88q-41 45 -64 98q-50 115 2 232q23 57 66 94
q37 39 96 66q58 22 117 22z" />
    <glyph glyph-name="plusminus" unicode="&#xb1;" 
d="M532 631h-462v114h462v353h119v-353h455v-114h-455v-357h-119v357zM70 8v113h1036v-113h-1036z" />
    <glyph glyph-name="uni00B2" unicode="&#xb2;" horiz-adv-x="778" 
d="M332 1659q-84 0 -189 -55l-16 92q104 51 229 51t205 -57q83 -65 83 -195q-1 -155 -241 -377q-115 -104 -186 -153v-4q78 4 131 4h314v-88h-564v96q219 174 324 301q102 131 101 220t-52 128q-55 37 -139 37z" />
    <glyph glyph-name="uni00B3" unicode="&#xb3;" horiz-adv-x="778" 
d="M303 948q96 0 165 40t69 129t-69 126t-204 37q-12 0 -22 -2h-25v86q6 -2 25 -2h22q270 0 268 154q0 76 -59 110t-148 35q-89 0 -194 -43l-8 92q93 37 225 37q133 0 214 -56t81 -163q0 -178 -225 -201v-4q96 -6 168 -57q63 -57 63 -137t-26 -121q-77 -144 -326 -146
q-83 0 -207 33l8 96q109 -43 205 -43z" />
    <glyph glyph-name="acute" unicode="&#xb4;" horiz-adv-x="1024" 
d="M518 1186h-106l198 362h150z" />
    <glyph glyph-name="mu" unicode="&#xb5;" horiz-adv-x="1271" 
d="M1155 -2q-42 -10 -70 -10q-94 0 -127 53q-35 47 -38 178h-5q-47 -115 -145 -174q-98 -65 -233 -65t-211 98q-4 0 -7 -2q5 -20 5 -56l4 -155q2 -29 2 -82v-207h-133v1464h131v-557q0 -198 40 -276q61 -119 204 -119t243 119q41 53 63 117t26 112q3 48 3 96v508h131v-774
l2 -88q13 -67 31 -74q18 -8 45 -8t33 6z" />
    <glyph glyph-name="paragraph" unicode="&#xb6;" horiz-adv-x="1245" 
d="M1006 1321v-1731h-123v1731h-240v-1731h-127v938q-98 6 -168 41q-156 61 -219 222q-31 78 -31 178q0 209 135 335t373 126h518v-109h-118z" />
    <glyph glyph-name="periodcentered" unicode="&#xb7;" horiz-adv-x="479" 
d="M324 463h-170v172h170v-172z" />
    <glyph glyph-name="cedilla" unicode="&#xb8;" horiz-adv-x="1024" 
d="M430 -399q28 0 53 6q50 4 78 49q12 20 12 61t-36 62q-54 41 -166 12l28 229h78l-31 -157q16 4 25 4h27q74 0 129 -39q49 -44 49 -102q0 -102 -68 -148q-61 -49 -138 -49q-78 0 -128 12l10 68q49 -8 78 -8z" />
    <glyph glyph-name="uni00B9" unicode="&#xb9;" horiz-adv-x="778" 
d="M377 1487q0 54 4 74q0 43 2 59h-4q-42 -42 -107 -90l-49 -39l-59 72l225 172h100v-858h-112v610z" />
    <glyph glyph-name="ordmasculine" unicode="&#xba;" horiz-adv-x="925" 
d="M186 1309q108 116 277 116t272 -116q53 -59 76 -131q29 -72 29 -164q0 -177 -103 -293q-113 -113 -277 -113q-84 0 -151 29q-145 62 -200 211q-29 76 -29 162t26 166q31 82 80 133zM461 1323q-115 0 -182 -86q-70 -82 -70 -223t70 -223q71 -80 183 -80t182 83t71 222
t-69 223t-185 84z" />
    <glyph glyph-name="guillemotright" unicode="&#xbb;" horiz-adv-x="995" 
d="M608 915l287 -403l-289 -412h-127l275 412l-273 403h127zM238 915l284 -403l-289 -412h-127l275 412l-270 403h127z" />
    <glyph glyph-name="onequarter" unicode="&#xbc;" horiz-adv-x="1843" 
d="M571 -45h-104l823 1565h105zM1550 510q0 133 6 274h-2q-4 -8 -14 -25t-13 -23t-21 -36q-18 -28 -28 -46q-12 -18 -20 -31q-8 -12 -28 -41l-205 -299h325v227zM1659 283h123v-86h-123v-197h-109v197h-430v92l393 569h146v-575zM489 1434v-859h-112v613l4 74q0 41 2 57h-4
q-41 -41 -107 -90l-49 -39l-59 72l225 172h100z" />
    <glyph glyph-name="onehalf" unicode="&#xbd;" horiz-adv-x="1843" 
d="M571 -45h-104l823 1565h105zM1397 782q-84 0 -189 -55l-16 92q104 51 229 51t205 -57q84 -66 83 -167t-60 -196t-175 -201t-192 -161v-4q78 4 131 4h313v-88h-563v96q219 174 324 301q102 131 100 232q0 78 -51 116q-55 37 -139 37zM489 1434v-859h-112v613l4 74
q0 41 2 57h-4q-41 -41 -107 -90l-49 -39l-59 72l225 172h100z" />
    <glyph glyph-name="threequarters" unicode="&#xbe;" horiz-adv-x="1843" 
d="M571 -45h-104l823 1565h105zM303 647q96 0 166 41q68 41 68 129t-69 125t-204 37h-22q-10 -2 -25 -2v86q6 -2 25 -2h22q270 0 268 153q0 76 -59 111t-148 35t-194 -43l-8 92q93 37 226 37q134 0 212 -57q82 -55 82 -155q0 -186 -225 -208v-4q102 -6 166 -58t65 -158
q0 -106 -96 -179q-47 -31 -107 -49q-173 -40 -356 16l8 96q109 -43 205 -43zM1550 510q0 133 6 274h-2q-4 -8 -14 -25t-13 -23t-21 -36q-18 -28 -28 -46q-12 -18 -20 -31q-8 -12 -28 -41l-205 -299h325v227zM1659 283h123v-86h-123v-197h-109v197h-430v92l393 569h146v-575z
" />
    <glyph glyph-name="questiondown" unicode="&#xbf;" horiz-adv-x="972" 
d="M436 1038h166v-166h-166v166zM98 -62q0 96 54 197q57 94 170 217q12 14 63 76q2 4 41 68q18 52 23 74t6 67v47h129v-35q0 -109 -24 -165t-52 -96q-29 -40 -86 -106q-98 -112 -140 -186q-42 -75 -42 -142q0 -129 84 -185q76 -54 220 -55q143 -1 265 57l10 -125
q-132 -52 -262 -53q-334 -3 -426 186q-33 63 -33 159z" />
    <glyph glyph-name="Agrave" unicode="&#xc0;" horiz-adv-x="1406" 
d="M805 1022q-11 25 -19 46t-18 49t-18 42q-6 20 -22 59t-30 91h-4q-10 -31 -19 -55t-25 -69q-16 -46 -35 -93q-19 -48 -27 -70l-207 -518h633zM774 1430q201 -479 301 -715t301 -715h-155l-160 387h-725l-158 -387h-151l598 1430h149zM582 1823l180 -287h-109l-227 287h156
z" />
    <glyph glyph-name="Aacute" unicode="&#xc1;" horiz-adv-x="1406" 
d="M805 1022q-11 25 -19 46t-18 49t-18 42q-6 20 -22 59t-30 91h-4q-10 -31 -19 -55t-25 -69q-16 -46 -35 -93q-19 -48 -27 -70l-207 -518h633zM774 1430q201 -479 301 -715t301 -715h-155l-160 387h-725l-158 -387h-151l598 1430h149zM750 1536h-107l180 289h156z" />
    <glyph glyph-name="Acircumflex" unicode="&#xc2;" horiz-adv-x="1406" 
d="M805 1022q-11 25 -19 46t-18 49t-18 42q-6 20 -22 59t-30 91h-4q-10 -31 -19 -55t-25 -69q-16 -46 -35 -93q-19 -48 -27 -70l-207 -518h633zM774 1430q201 -479 301 -715t301 -715h-155l-160 387h-725l-158 -387h-151l598 1430h149zM874 1536l-169 213l-181 -213h-116
l227 297h141l219 -297h-121z" />
    <glyph glyph-name="Atilde" unicode="&#xc3;" horiz-adv-x="1406" 
d="M805 1022q-11 25 -19 46t-18 49t-18 42q-6 20 -22 59t-30 91h-4q-10 -31 -19 -55t-25 -69q-16 -46 -35 -93q-19 -48 -27 -70l-207 -518h633zM774 1430q201 -479 301 -715t301 -715h-155l-160 387h-725l-158 -387h-151l598 1430h149zM1014 1778q-21 -197 -168 -197
q-18 0 -68 8q-49 16 -116 50t-105 34q-70 0 -88 -96h-80q8 90 54 141t118 51t160 -49q14 -8 40 -18t34 -14q41 -8 51 -9q71 0 86 99h82z" />
    <glyph glyph-name="Adieresis" unicode="&#xc4;" horiz-adv-x="1406" 
d="M805 1022q-11 25 -19 46t-18 49t-18 42q-6 20 -22 59t-30 91h-4q-10 -31 -19 -55t-25 -69q-16 -46 -35 -93q-19 -48 -27 -70l-207 -518h633zM774 1430q201 -479 301 -715t301 -715h-155l-160 387h-725l-158 -387h-151l598 1430h149zM954 1602h-145v163h145v-163z
M592 1602h-146v163h146v-163z" />
    <glyph glyph-name="Aring" unicode="&#xc5;" horiz-adv-x="1406" 
d="M805 1022q-11 25 -19 46t-18 49t-18 42q-6 20 -22 59t-30 91h-4q-10 -31 -19 -55t-25 -69q-16 -46 -35 -93q-19 -48 -27 -70l-207 -518h633zM774 1430q201 -479 301 -715t301 -715h-155l-160 387h-725l-158 -387h-151l598 1430h149zM701 1845q-52 0 -90 -38t-38 -91
t35 -93t91 -40t96 39q37 41 37 95t-37 91q-42 37 -94 37zM907 1708q0 -78 -59 -137q-60 -59 -146 -59t-149 59q-57 61 -57 146t58 143t139 59q81 0 155 -59q59 -74 59 -152z" />
    <glyph glyph-name="AE" unicode="&#xc6;" horiz-adv-x="1857" 
d="M979 1251l-2 80h-4q-27 -54 -41 -77t-34 -60t-45 -77q-24 -40 -44 -77q-29 -45 -53 -88l-271 -450h541l-35 538l-4 107q-2 18 -4 53t-4 51zM1729 0h-670l-27 385h-612l-232 -385h-157l872 1430h801v-121h-594l29 -508h532v-119h-520l33 -559h545v-123z" />
    <glyph glyph-name="Ccedilla" unicode="&#xc7;" horiz-adv-x="1255" 
d="M268 710q0 -132 46 -245q91 -223 321 -309q113 -43 259 -43t267 49l10 -137q-103 -39 -286 -39h-37q-25 0 -35 2l-25 -125q16 4 25 4h27q76 0 127 -41q51 -42 51 -100q0 -102 -68 -148q-61 -49 -138 -49q-78 0 -128 12l10 68q50 -8 78 -8q97 0 131 55q12 20 12 60
q1 40 -35 64q-59 40 -167 11l24 205q-137 20 -254 78q-364 196 -364 646q0 157 55 292q58 135 158 231q210 201 542 201q189 0 300 -47l-17 -133q-112 55 -269 55q-284 0 -454 -170q-166 -171 -166 -439z" />
    <glyph glyph-name="Egrave" unicode="&#xc8;" horiz-adv-x="1075" 
d="M946 0h-745v1430h729v-123h-588v-508h551v-119h-551v-557h604v-123zM465 1823l180 -287h-108l-228 287h156z" />
    <glyph glyph-name="Eacute" unicode="&#xc9;" horiz-adv-x="1075" 
d="M946 0h-745v1430h729v-123h-588v-508h551v-119h-551v-557h604v-123zM594 1536h-107l181 289h155z" />
    <glyph glyph-name="Ecircumflex" unicode="&#xca;" horiz-adv-x="1075" 
d="M946 0h-745v1430h729v-123h-588v-508h551v-119h-551v-557h604v-123zM741 1536l-170 213l-180 -213h-117l228 297h141l219 -297h-121z" />
    <glyph glyph-name="Edieresis" unicode="&#xcb;" horiz-adv-x="1075" 
d="M946 0h-745v1430h729v-123h-588v-508h551v-119h-551v-557h604v-123zM825 1602h-145v163h145v-163zM463 1602h-146v163h146v-163z" />
    <glyph glyph-name="Igrave" unicode="&#xcc;" horiz-adv-x="542" 
d="M342 0h-141v1430h141v-1430zM166 1823l180 -287h-108l-228 287h156z" />
    <glyph glyph-name="Iacute" unicode="&#xcd;" horiz-adv-x="542" 
d="M342 0h-141v1430h141v-1430zM313 1536h-106l180 289h156z" />
    <glyph glyph-name="Icircumflex" unicode="&#xce;" horiz-adv-x="542" 
d="M342 0h-141v1430h141v-1430zM449 1536l-170 213l-181 -213h-116l227 297h141l219 -297h-120z" />
    <glyph glyph-name="Idieresis" unicode="&#xcf;" horiz-adv-x="542" 
d="M342 0h-141v1430h141v-1430zM532 1602h-145v163h145v-163zM170 1602h-145v163h145v-163z" />
    <glyph glyph-name="Eth" unicode="&#xd0;" horiz-adv-x="1441" 
d="M1174 711q0 596 -693 596h-141v-545h295v-82h-295v-557h141q150 0 285 33q133 38 221 108q185 146 187 447zM489 1430q382 0 596 -168q232 -188 234 -549q0 -193 -67 -329q-129 -262 -445 -345q-143 -39 -318 -39h-290v680h-140v82h140v668h290z" />
    <glyph glyph-name="Ntilde" unicode="&#xd1;" horiz-adv-x="1462" 
d="M1133 246q-9 90 -9 368v816h140v-1430h-187l-536 922q-33 51 -53 89t-72 133q-51 94 -82 159h-4q6 -36 6 -189l4 -110v-1004h-139v1430h205l524 -904q49 -84 54 -94q4 -10 24 -46t31 -55q56 -103 94 -184h4q-4 28 -4 99zM881 1581q-18 0 -68 8q-49 16 -116 50t-105 34
q-70 0 -88 -96h-80q10 90 55 141t117 51t160 -49q37 -16 75 -32q33 -8 50 -9q71 0 86 99h82q-11 -92 -53 -144t-115 -53z" />
    <glyph glyph-name="Ograve" unicode="&#xd2;" horiz-adv-x="1550" 
d="M775 1333q-114 0 -208 -46q-188 -92 -256 -318q-37 -113 -37 -253q0 -285 140 -450q61 -80 157 -125t209 -45q216 0 359 168q68 88 98 195q37 111 37 251q0 282 -133 452q-133 171 -366 171zM787 1452q293 0 466 -205q172 -210 172 -536q0 -162 -45 -303
q-49 -133 -131 -232q-82 -92 -202 -147q-125 -51 -272 -51t-269 52t-203 146q-88 94 -131 230q-47 127 -47 296t47 311t135 236q84 94 209 152q128 51 271 51zM664 1823l180 -287h-109l-227 287h156z" />
    <glyph glyph-name="Oacute" unicode="&#xd3;" horiz-adv-x="1550" 
d="M775 1333q-114 0 -208 -46q-188 -92 -256 -318q-37 -113 -37 -253q0 -285 140 -450q61 -80 157 -125t209 -45q216 0 359 168q68 88 98 195q37 111 37 251q0 282 -133 452q-133 171 -366 171zM787 1452q293 0 466 -205q172 -210 172 -536q0 -162 -45 -303
q-49 -133 -131 -232q-82 -92 -202 -147q-125 -51 -272 -51t-269 52t-203 146q-88 94 -131 230q-47 127 -47 296t47 311t135 236q84 94 209 152q128 51 271 51zM813 1536h-106l180 289h155z" />
    <glyph glyph-name="Ocircumflex" unicode="&#xd4;" horiz-adv-x="1550" 
d="M775 1333q-114 0 -208 -46q-188 -92 -256 -318q-37 -113 -37 -253q0 -285 140 -450q61 -80 157 -125t209 -45q216 0 359 168q68 88 98 195q37 111 37 251q0 282 -133 452q-133 171 -366 171zM787 1452q293 0 466 -205q172 -210 172 -536q0 -162 -45 -303
q-49 -133 -131 -232q-82 -92 -202 -147q-125 -51 -272 -51t-269 52t-203 146q-88 94 -131 230q-47 127 -47 296t47 311t135 236q84 94 209 152q128 51 271 51zM952 1536l-170 213l-180 -213h-117l228 297h141l219 -297h-121z" />
    <glyph glyph-name="Otilde" unicode="&#xd5;" horiz-adv-x="1550" 
d="M775 1333q-114 0 -208 -46q-188 -92 -256 -318q-37 -113 -37 -253q0 -285 140 -450q61 -80 157 -125t209 -45q216 0 359 168q68 88 98 195q37 111 37 251q0 282 -133 452q-133 171 -366 171zM787 1452q293 0 466 -205q172 -210 172 -536q0 -162 -45 -303
q-49 -133 -131 -232q-82 -92 -202 -147q-125 -51 -272 -51t-269 52t-203 146q-88 94 -131 230q-47 127 -47 296t47 311t135 236q84 94 209 152q128 51 271 51zM1083 1778q-21 -197 -168 -197q-18 0 -67 8q-49 16 -116 50t-105 34q-72 0 -88 -96h-80q8 90 54 141t118 51
t160 -49q13 -8 39 -18t34 -14q41 -8 51 -9q73 0 86 99h82z" />
    <glyph glyph-name="Odieresis" unicode="&#xd6;" horiz-adv-x="1550" 
d="M775 1333q-114 0 -208 -46q-188 -92 -256 -318q-37 -113 -37 -253q0 -285 140 -450q61 -80 157 -125t209 -45q216 0 359 168q68 88 98 195q37 111 37 251q0 282 -133 452q-133 171 -366 171zM787 1452q293 0 466 -205q172 -210 172 -536q0 -162 -45 -303
q-49 -133 -131 -232q-82 -92 -202 -147q-125 -51 -272 -51t-269 52t-203 146q-88 94 -131 230q-47 127 -47 296t47 311t135 236q84 94 209 152q128 51 271 51zM1032 1602h-145v163h145v-163zM670 1602h-146v163h146v-163z" />
    <glyph glyph-name="multiply" unicode="&#xd7;" 
d="M672 510l422 -420l-82 -82l-420 422l-422 -422l-82 82l420 420l-420 420l82 84l422 -422l420 422l82 -84z" />
    <glyph glyph-name="Oslash" unicode="&#xd8;" horiz-adv-x="1550" 
d="M774 1333q-111 0 -205 -46q-182 -89 -258 -318q-35 -117 -35 -250q0 -264 117 -424l692 928q-125 110 -311 110zM1276 716q0 142 -35 249q-29 106 -94 194l-696 -934q131 -129 331 -129q111 0 204 46t153 122q137 162 137 452zM125 705q0 166 47 308t135 236
q84 94 209 152q128 51 275 51q217 0 374 -123l119 160l72 -49l-125 -170q90 -96 142 -238t52 -313q0 -170 -45 -311q-49 -133 -131 -232q-82 -92 -202 -147q-125 -51 -255 -51t-239 34q-98 37 -184 103l-117 -158l-74 51l125 168q-178 198 -178 529z" />
    <glyph glyph-name="Ugrave" unicode="&#xd9;" horiz-adv-x="1409" 
d="M1231 571q0 -285 -129 -432q-63 -80 -168 -119q-98 -43 -238 -43q-264 0 -399 164q-119 152 -119 430v859h141v-830q-1 -104 17 -200q34 -189 178 -269q74 -37 188 -37q312 0 371 303q16 102 17 205v828h141v-859zM596 1823l180 -287h-108l-228 287h156z" />
    <glyph glyph-name="Uacute" unicode="&#xda;" horiz-adv-x="1409" 
d="M1231 571q0 -285 -129 -432q-63 -80 -168 -119q-98 -43 -238 -43q-264 0 -399 164q-119 152 -119 430v859h141v-830q-1 -104 17 -200q34 -189 178 -269q74 -37 188 -37q312 0 371 303q16 102 17 205v828h141v-859zM733 1536h-106l180 289h156z" />
    <glyph glyph-name="Ucircumflex" unicode="&#xdb;" horiz-adv-x="1409" 
d="M1231 571q0 -285 -129 -432q-63 -80 -168 -119q-98 -43 -238 -43q-264 0 -399 164q-119 152 -119 430v859h141v-830q-1 -104 17 -200q34 -189 178 -269q74 -37 188 -37q312 0 371 303q16 102 17 205v828h141v-859zM874 1536l-169 213l-181 -213h-116l227 297h141
l219 -297h-121z" />
    <glyph glyph-name="Udieresis" unicode="&#xdc;" horiz-adv-x="1409" 
d="M1231 571q0 -285 -129 -432q-63 -80 -168 -119q-98 -43 -238 -43q-264 0 -399 164q-119 152 -119 430v859h141v-830q-1 -104 17 -200q34 -189 178 -269q74 -37 188 -37q312 0 371 303q16 102 17 205v828h141v-859zM956 1602h-145v163h145v-163zM594 1602h-145v163h145
v-163z" />
    <glyph glyph-name="Yacute" unicode="&#xdd;" horiz-adv-x="1271" 
d="M709 0h-144v602l-547 828h175l217 -340q16 -23 59 -95q23 -33 63 -101t62 -97q34 -61 43 -72h4q10 21 53 87t61 98q19 32 41 66t33 52q11 20 21 34t18 28l217 340h170l-546 -824v-606zM684 1536h-106l180 289h155z" />
    <glyph glyph-name="Thorn" unicode="&#xde;" horiz-adv-x="1155" 
d="M342 516h143q218 0 328 67q109 67 109 220q0 152 -111 213q-115 61 -328 61h-141v-561zM342 1430v-232h162q269 0 397 -84q162 -90 162 -310t-166 -325q-146 -80 -393 -82h-162v-397h-141v1430h141z" />
    <glyph glyph-name="germandbls" unicode="&#xdf;" horiz-adv-x="1228" 
d="M541 745v119h32q162 0 253 87t90 219t-72 206q-68 76 -176 76t-172 -35q-130 -72 -160 -250q-16 -94 -17 -192v-975h-133v991q0 401 248 522q92 43 200 43q208 0 308 -100q55 -49 82 -121q31 -68 31 -144q0 -136 -72 -241q-43 -53 -90 -82q-47 -35 -121 -51v-4
q159 -20 256 -121q102 -119 100 -278q0 -100 -34 -176q-30 -76 -90 -134q-128 -124 -336 -122q-107 0 -197 22l8 121q103 -31 181 -31q149 0 233 82q94 80 92 236q0 335 -403 333h-41z" />
    <glyph glyph-name="agrave" unicode="&#xe0;" horiz-adv-x="1097" 
d="M676 524q-209 0 -322 -55t-112 -180q0 -95 64 -147t169 -52q160 0 242 103q82 96 82 325q-45 6 -123 6zM797 649q0 306 -290 304q-151 -1 -290 -101l-8 125q74 45 160 63q84 23 181 23q190 0 286 -113q86 -90 88 -295q0 -68 -2 -102v-100q0 -58 -4 -86v-62q0 -103 6 -201
t6 -104h-123q-4 8 -4 37v98q0 37 4 53h-4q-39 -88 -132 -145t-237 -57t-238 83q-95 83 -96 220q0 166 142 252q145 84 411 84q87 0 144 -7v31zM274 1548h150l199 -362h-107z" />
    <glyph glyph-name="aacute" unicode="&#xe1;" horiz-adv-x="1097" 
d="M676 524q-209 0 -322 -55t-112 -180q0 -95 64 -147t169 -52q160 0 242 103q82 96 82 325q-45 6 -123 6zM797 649q0 306 -290 304q-151 -1 -290 -101l-8 125q74 45 160 63q84 23 181 23q190 0 286 -113q86 -90 88 -295q0 -68 -2 -102v-100q0 -58 -4 -86v-62q0 -103 6 -201
t6 -104h-123q-4 8 -4 37v98q0 37 4 53h-4q-39 -88 -132 -145t-237 -57t-238 83q-95 83 -96 220q0 166 142 252q145 84 411 84q87 0 144 -7v31zM584 1186h-107l199 362h149z" />
    <glyph glyph-name="acircumflex" unicode="&#xe2;" horiz-adv-x="1097" 
d="M676 524q-209 0 -322 -55t-112 -180q0 -95 64 -147t169 -52q160 0 242 103q82 96 82 325q-45 6 -123 6zM797 649q0 306 -290 304q-151 -1 -290 -101l-8 125q74 45 160 63q84 23 181 23q190 0 286 -113q86 -90 88 -295q0 -68 -2 -102v-100q0 -58 -4 -86v-62q0 -103 6 -201
t6 -104h-123q-4 8 -4 37v98q0 37 4 53h-4q-39 -88 -132 -145t-237 -57t-238 83q-95 83 -96 220q0 166 142 252q145 84 411 84q87 0 144 -7v31zM729 1186l-170 278l-182 -278h-117l227 362h144l221 -362h-123z" />
    <glyph glyph-name="atilde" unicode="&#xe3;" horiz-adv-x="1097" 
d="M676 524q-209 0 -322 -55t-112 -180q0 -95 64 -147t169 -52q160 0 242 103q82 96 82 325q-45 6 -123 6zM797 649q0 306 -290 304q-151 -1 -290 -101l-8 125q74 45 160 63q84 23 181 23q190 0 286 -113q86 -90 88 -295q0 -68 -2 -102v-100q0 -58 -4 -86v-62q0 -103 6 -201
t6 -104h-123q-4 8 -4 37v98q0 37 4 53h-4q-39 -88 -132 -145t-237 -57t-238 83q-95 83 -96 220q0 166 142 252q145 84 411 84q87 0 144 -7v31zM252 1237q21 190 176 190q62 0 150 -47l73 -32q37 -8 49 -9q43 0 58 29q18 25 24 72h80q-8 -88 -53 -146q-45 -51 -97 -51t-81 10
q-33 6 -78 31q-89 49 -141 49q-63 0 -80 -96h-80z" />
    <glyph glyph-name="adieresis" unicode="&#xe4;" horiz-adv-x="1097" 
d="M676 524q-209 0 -322 -55t-112 -180q0 -95 64 -147t169 -52q160 0 242 103q82 96 82 325q-45 6 -123 6zM797 649q0 306 -290 304q-151 -1 -290 -101l-8 125q74 45 160 63q84 23 181 23q190 0 286 -113q86 -90 88 -295q0 -68 -2 -102v-100q0 -58 -4 -86v-62q0 -103 6 -201
t6 -104h-123q-4 8 -4 37v98q0 37 4 53h-4q-39 -88 -132 -145t-237 -57t-238 83q-95 83 -96 220q0 166 142 252q145 84 411 84q87 0 144 -7v31zM811 1274h-145v158h145v-158zM449 1274h-146v158h146v-158z" />
    <glyph glyph-name="aring" unicode="&#xe5;" horiz-adv-x="1097" 
d="M676 524q-209 0 -322 -55t-112 -180q0 -95 64 -147t169 -52q160 0 242 103q82 96 82 325q-45 6 -123 6zM797 649q0 306 -290 304q-151 -1 -290 -101l-8 125q74 45 160 63q84 23 181 23q190 0 286 -113q86 -90 88 -295q0 -68 -2 -102v-100q0 -58 -4 -86v-62q0 -103 6 -201
t6 -104h-123q-4 8 -4 37v98q0 37 4 53h-4q-39 -88 -132 -145t-237 -57t-238 83q-95 83 -96 220q0 166 142 252q145 84 411 84q87 0 144 -7v31zM551 1241q55 0 93 38t38 94t-39 92t-91 36t-90 -38t-38 -91t35 -94q37 -37 92 -37zM550 1575q89 0 147 -59t61 -142
q0 -41 -16 -82t-46 -63q-18 -23 -63 -45q-43 -14 -80 -15q-92 0 -147 60q-60 57 -60 144t58 145t146 57z" />
    <glyph glyph-name="ae" unicode="&#xe6;" horiz-adv-x="1761" 
d="M1524 600q0 176 -76 267t-210 91t-221 -92t-104 -266h611zM788 504q-37 0 -59 4h-61q-215 0 -322 -55t-106 -174q0 -85 63 -141t164 -56q321 0 321 422zM1657 561q0 -51 -4 -69h-742q2 -184 105 -295q104 -109 268 -109t301 76l6 -127q-118 -58 -295 -59q-178 -1 -288 74
t-156 206h-4q-31 -113 -129 -197q-100 -84 -264 -84t-259 80t-96 222q0 330 555 329q67 0 133 -6q0 247 -142 324q-50 27 -128 26q-162 0 -301 -100l-8 125q132 84 328 86q265 0 335 -229q51 109 148 170q100 59 221 59q197 0 307 -127t109 -375z" />
    <glyph glyph-name="ccedilla" unicode="&#xe7;" horiz-adv-x="931" 
d="M868 37q-125 -49 -245 -49h-13l-24 -125q16 4 24 4h27q74 0 129 -39q49 -44 49 -102q0 -102 -67 -148q-61 -49 -139 -49t-128 12l11 68q50 -8 81 -8q137 0 140 106q0 51 -37 72q-54 41 -166 12l25 203q-197 27 -314 166q-113 143 -113 369t142 372q74 76 164 111
q88 41 218 41t230 -41l-12 -123q-98 47 -202 47q-280 0 -369 -248q-27 -74 -27 -167t26 -167q54 -153 193 -217q74 -31 176 -31t211 54z" />
    <glyph glyph-name="egrave" unicode="&#xe8;" horiz-adv-x="1103" 
d="M866 604q0 176 -75 264q-76 88 -211 88q-134 0 -224 -89t-106 -263h616zM999 532q0 -24 -4 -36h-749q4 -188 106 -296t283 -108q139 0 283 74l6 -127q-133 -61 -293 -62q-254 0 -389 146q-133 150 -133 401t133 389q57 70 145 110t195 40q198 0 308 -126t109 -372v-33z
M309 1548h150l198 -362h-106z" />
    <glyph glyph-name="eacute" unicode="&#xe9;" horiz-adv-x="1103" 
d="M866 604q0 176 -75 264q-76 88 -211 88q-134 0 -224 -89t-106 -263h616zM999 532q0 -24 -4 -36h-749q4 -188 106 -296t283 -108q139 0 283 74l6 -127q-133 -61 -293 -62q-254 0 -389 146q-133 150 -133 401t133 389q57 70 145 110t195 40q198 0 308 -126t109 -372v-33z
M612 1186h-106l199 362h149z" />
    <glyph glyph-name="ecircumflex" unicode="&#xea;" horiz-adv-x="1103" 
d="M866 604q0 176 -75 264q-76 88 -211 88q-134 0 -224 -89t-106 -263h616zM999 532q0 -24 -4 -36h-749q4 -188 106 -296t283 -108q139 0 283 74l6 -127q-133 -61 -293 -62q-254 0 -389 146q-133 150 -133 401t133 389q57 70 145 110t195 40q198 0 308 -126t109 -372v-33z
M752 1186l-170 278l-183 -278h-116l227 362h143l221 -362h-122z" />
    <glyph glyph-name="edieresis" unicode="&#xeb;" horiz-adv-x="1103" 
d="M866 604q0 176 -75 264q-76 88 -211 88q-134 0 -224 -89t-106 -263h616zM999 532q0 -24 -4 -36h-749q4 -188 106 -296t283 -108q139 0 283 74l6 -127q-133 -61 -293 -62q-254 0 -389 146q-133 150 -133 401t133 389q57 70 145 110t195 40q198 0 308 -126t109 -372v-33z
M836 1274h-146v158h146v-158zM473 1274h-145v158h145v-158z" />
    <glyph glyph-name="igrave" unicode="&#xec;" horiz-adv-x="503" 
d="M317 0h-133v1040h133v-1040zM-27 1548h150l199 -362h-107z" />
    <glyph glyph-name="iacute" unicode="&#xed;" horiz-adv-x="503" 
d="M317 0h-133v1040h133v-1040zM303 1186h-106l198 362h150z" />
    <glyph glyph-name="icircumflex" unicode="&#xee;" horiz-adv-x="503" 
d="M317 0h-133v1040h133v-1040zM430 1186l-170 278l-182 -278h-117l227 362h144l221 -362h-123z" />
    <glyph glyph-name="idieresis" unicode="&#xef;" horiz-adv-x="503" 
d="M317 0h-133v1040h133v-1040zM512 1274h-145v158h145v-158zM150 1274h-146v158h146v-158z" />
    <glyph glyph-name="eth" unicode="&#xf0;" horiz-adv-x="1210" 
d="M1104 535q0 -121 -33 -219q-71 -212 -256 -293q-92 -43 -206 -43t-206 36q-184 83 -260 275q-35 100 -35 216q1 232 134 384q143 147 344 147q202 0 327 -131h5q-10 41 -39 97q-60 116 -166 225q-47 47 -103 86l-254 -154l-59 78l233 137q-114 69 -233 97l84 92
q116 -35 260 -125l186 116l68 -71l-170 -107q201 -160 287 -374q92 -215 92 -469zM864 819q-103 111 -259 111t-261 -119q-98 -128 -96 -305q0 -98 26 -170q45 -149 185 -217q67 -29 149 -29t146 33q132 58 186 223q25 76 25 170q0 184 -101 303z" />
    <glyph glyph-name="ntilde" unicode="&#xf1;" horiz-adv-x="1212" 
d="M313 846h4q55 102 146 158q87 59 201 59q216 0 299 -133q77 -109 77 -332v-598h-135v551q0 196 -53 297q-60 104 -203 103t-237 -108t-95 -321v-522h-133v727q0 196 -10 313h131q8 -164 8 -194zM774 1243q-51 0 -82 10q-33 6 -73 28t-84 42q-31 10 -61 10t-50 -20
t-31 -76h-80q10 90 56 139q43 51 112 51t158 -47l74 -32q37 -8 49 -9q43 0 57 29q18 25 25 72h80q-8 -88 -54 -146q-45 -51 -96 -51z" />
    <glyph glyph-name="ograve" unicode="&#xf2;" horiz-adv-x="1214" 
d="M605 950q-81 0 -149 -32t-108 -87q-100 -117 -98 -314q0 -97 24 -177q58 -156 187 -219q63 -31 144 -31t150 32q131 61 183 222q27 74 27 176t-27 176q-52 160 -184 222q-68 32 -149 32zM614 1063q104 0 199 -39q96 -47 154 -115q63 -68 101 -171t38 -223
q0 -234 -137 -386t-363 -152q-102 0 -200 39q-94 43 -158 111q-141 162 -140 398q1 237 142 386q66 70 160 113q100 39 204 39zM340 1548h149l199 -362h-106z" />
    <glyph glyph-name="oacute" unicode="&#xf3;" horiz-adv-x="1214" 
d="M605 950q-81 0 -149 -32t-108 -87q-100 -117 -98 -314q0 -97 24 -177q58 -156 187 -219q63 -31 144 -31t150 32q131 61 183 222q27 74 27 176t-27 176q-52 160 -184 222q-68 32 -149 32zM614 1063q104 0 199 -39q96 -47 154 -115q63 -68 101 -171t38 -223
q0 -234 -137 -386t-363 -152q-102 0 -200 39q-94 43 -158 111q-141 162 -140 398q1 237 142 386q66 70 160 113q100 39 204 39zM639 1186h-107l199 362h150z" />
    <glyph glyph-name="ocircumflex" unicode="&#xf4;" horiz-adv-x="1214" 
d="M605 950q-81 0 -149 -32t-108 -87q-100 -117 -98 -314q0 -97 24 -177q58 -156 187 -219q63 -31 144 -31t150 32q131 61 183 222q27 74 27 176t-27 176q-52 160 -184 222q-68 32 -149 32zM614 1063q104 0 199 -39q96 -47 154 -115q63 -68 101 -171t38 -223
q0 -234 -137 -386t-363 -152q-102 0 -200 39q-94 43 -158 111q-141 162 -140 398q1 237 142 386q66 70 160 113q100 39 204 39zM778 1186l-170 278l-182 -278h-117l228 362h143l221 -362h-123z" />
    <glyph glyph-name="otilde" unicode="&#xf5;" horiz-adv-x="1214" 
d="M605 950q-81 0 -149 -32t-108 -87q-100 -117 -98 -314q0 -97 24 -177q58 -156 187 -219q63 -31 144 -31t150 32q131 61 183 222q27 74 27 176t-27 176q-52 160 -184 222q-68 32 -149 32zM614 1063q104 0 199 -39q96 -47 154 -115q63 -68 101 -171t38 -223
q0 -234 -137 -386t-363 -152q-102 0 -200 39q-94 43 -158 111q-141 162 -140 398q1 237 142 386q66 70 160 113q100 39 204 39zM760 1243q-52 0 -80 10q-35 6 -80 31t-78 37q-32 12 -62 12t-50 -20t-31 -76h-80q8 88 53 139t123 51q29 0 70 -10q43 -16 80 -37l73 -32
q37 -8 65 -8q52 -1 66 100h80q-8 -88 -53 -146q-44 -51 -96 -51z" />
    <glyph glyph-name="odieresis" unicode="&#xf6;" horiz-adv-x="1214" 
d="M605 950q-81 0 -149 -32t-108 -87q-100 -117 -98 -314q0 -97 24 -177q58 -156 187 -219q63 -31 144 -31t150 32q131 61 183 222q27 74 27 176t-27 176q-52 160 -184 222q-68 32 -149 32zM614 1063q104 0 199 -39q96 -47 154 -115q63 -68 101 -171t38 -223
q0 -234 -137 -386t-363 -152q-102 0 -200 39q-94 43 -158 111q-141 162 -140 398q1 237 142 386q66 70 160 113q100 39 204 39zM862 1274h-145v158h145v-158zM500 1274h-146v158h146v-158z" />
    <glyph glyph-name="divide" unicode="&#xf7;" 
d="M678 842h-160v166h160v-166zM678 43h-160v166h160v-166zM70 473v113h1036v-113h-1036z" />
    <glyph glyph-name="oslash" unicode="&#xf8;" horiz-adv-x="1214" 
d="M817 879q-91 71 -213 71q-78 0 -145 -30q-130 -67 -185 -226q-25 -80 -24 -178q0 -178 82 -291zM967 520q0 186 -93 303l-485 -657q88 -76 219 -76q242 0 334 254q25 76 25 176zM606 -23q-168 0 -291 91l-86 -119l-65 49l90 123q-146 146 -146 394q1 247 142 396
q66 70 160 113q100 39 206 39q154 0 275 -86l86 117l63 -47l-88 -119q154 -162 154 -405q0 -242 -137 -394t-363 -152z" />
    <glyph glyph-name="ugrave" unicode="&#xf9;" horiz-adv-x="1212" 
d="M905 44q0 34 -4 50v56q-2 18 -2 47h-4q-51 -103 -143 -161t-217 -59q-193 0 -279 114t-86 351v598h135v-555q0 -212 55 -299q57 -96 197 -96q141 0 242 103q94 115 94 323v524h133v-729q0 -194 10 -311h-129q-2 10 -2 44zM328 1548h149l199 -362h-107z" />
    <glyph glyph-name="uacute" unicode="&#xfa;" horiz-adv-x="1212" 
d="M905 44q0 34 -4 50v56q-2 18 -2 47h-4q-51 -103 -143 -161t-217 -59q-193 0 -279 114t-86 351v598h135v-555q0 -212 55 -299q57 -96 197 -96q141 0 242 103q94 115 94 323v524h133v-729q0 -194 10 -311h-129q-2 10 -2 44zM643 1186h-106l198 362h150z" />
    <glyph glyph-name="ucircumflex" unicode="&#xfb;" horiz-adv-x="1212" 
d="M905 44q0 34 -4 50v56q-2 18 -2 47h-4q-51 -103 -143 -161t-217 -59q-193 0 -279 114t-86 351v598h135v-555q0 -212 55 -299q57 -96 197 -96q141 0 242 103q94 115 94 323v524h133v-729q0 -194 10 -311h-129q-2 10 -2 44zM776 1186l-170 278l-182 -278h-117l228 362h143
l221 -362h-123z" />
    <glyph glyph-name="udieresis" unicode="&#xfc;" horiz-adv-x="1212" 
d="M905 44q0 34 -4 50v56q-2 18 -2 47h-4q-51 -103 -143 -161t-217 -59q-193 0 -279 114t-86 351v598h135v-555q0 -212 55 -299q57 -96 197 -96q141 0 242 103q94 115 94 323v524h133v-729q0 -194 10 -311h-129q-2 10 -2 44zM858 1274h-145v158h145v-158zM496 1274h-146v158
h146v-158z" />
    <glyph glyph-name="yacute" unicode="&#xfd;" horiz-adv-x="968" 
d="M202 -455q-54 0 -75 2q-20 2 -57 15l12 110q58 -16 99 -16q40 0 69 13t68 60t102 238l-387 1073h145l236 -688q10 -28 22 -69q12 -40 27 -91t24 -88h5q9 47 15 59q5 13 21 67q24 83 39 122l236 688h137l-401 -1120q-75 -198 -138 -278q-89 -97 -199 -97zM508 1186h-107
l199 362h150z" />
    <glyph glyph-name="thorn" unicode="&#xfe;" horiz-adv-x="1226" 
d="M977 516q0 187 -84 311t-240 123q-76 0 -136 -32q-126 -66 -177 -228q-27 -78 -27 -174q0 -183 97 -305q97 -121 244 -121q75 0 133 32q126 69 167 222q23 80 23 172zM317 1116q0 -206 -6 -285h4q55 113 151 173t204 59q108 0 192 -39q162 -87 225 -283q31 -98 31 -217
q0 -232 -119 -393q-69 -78 -147 -116t-188 -38t-205 60q-92 63 -144 166h-4q4 -12 4 -47v-68q2 -25 2 -76v-442h-133v1978h133v-432z" />
    <glyph glyph-name="ydieresis" unicode="&#xff;" horiz-adv-x="968" 
d="M202 -455q-54 0 -75 2q-20 2 -57 15l12 110q58 -16 99 -16q40 0 69 13t68 60t102 238l-387 1073h145l236 -688q10 -28 22 -69q12 -40 27 -91t24 -88h5q9 47 15 59q5 13 21 67q24 83 39 122l236 688h137l-401 -1120q-75 -198 -138 -278q-89 -97 -199 -97zM745 1274h-145
v158h145v-158zM383 1274h-145v158h145v-158z" />
    <glyph glyph-name="Amacron" unicode="&#x100;" horiz-adv-x="1406" 
d="M805 1022q-11 25 -19 46t-18 49t-18 42q-6 20 -22 59t-30 91h-4q-10 -31 -19 -55t-25 -69q-16 -46 -35 -93q-19 -48 -27 -70l-207 -518h633zM774 1430q201 -479 301 -715t301 -715h-155l-160 387h-725l-158 -387h-151l598 1430h149zM967 1628h-539v94h539v-94z" />
    <glyph glyph-name="amacron" unicode="&#x101;" horiz-adv-x="1097" 
d="M676 524q-209 0 -322 -55t-112 -180q0 -95 64 -147t169 -52q160 0 242 103q82 96 82 325q-45 6 -123 6zM797 649q0 306 -290 304q-151 -1 -290 -101l-8 125q74 45 160 63q84 23 181 23q190 0 286 -113q86 -90 88 -295q0 -68 -2 -102v-100q0 -58 -4 -86v-62q0 -103 6 -201
t6 -104h-123q-4 8 -4 37v98q0 37 4 53h-4q-39 -88 -132 -145t-237 -57t-238 83q-95 83 -96 220q0 166 142 252q145 84 411 84q87 0 144 -7v31zM819 1294h-538v95h538v-95z" />
    <glyph glyph-name="Abreve" unicode="&#x102;" horiz-adv-x="1406" 
d="M805 1022q-11 25 -19 46t-18 49t-18 42q-6 20 -22 59t-30 91h-4q-10 -31 -19 -55t-25 -69q-16 -46 -35 -93q-19 -48 -27 -70l-207 -518h633zM774 1430q201 -479 301 -715t301 -715h-155l-160 387h-725l-158 -387h-151l598 1430h149zM702 1671q190 0 224 184h90
q-12 -131 -96 -213q-86 -76 -220 -76t-221 76q-84 84 -92 213h90q35 -184 225 -184z" />
    <glyph glyph-name="abreve" unicode="&#x103;" horiz-adv-x="1097" 
d="M676 524q-209 0 -322 -55t-112 -180q0 -95 64 -147t169 -52q160 0 242 103q82 96 82 325q-45 6 -123 6zM797 649q0 306 -290 304q-151 -1 -290 -101l-8 125q74 45 160 63q84 23 181 23q190 0 286 -113q86 -90 88 -295q0 -68 -2 -102v-100q0 -58 -4 -86v-62q0 -103 6 -201
t6 -104h-123q-4 8 -4 37v98q0 37 4 53h-4q-39 -88 -132 -145t-237 -57t-238 83q-95 83 -96 220q0 166 142 252q145 84 411 84q87 0 144 -7v31zM550 1180q-132 0 -214 82q-88 82 -96 229h88q23 -117 78 -160q53 -47 149 -47t150 51q61 51 75 156h88q-12 -143 -98 -229
q-88 -82 -220 -82z" />
    <glyph glyph-name="Aogonek" unicode="&#x104;" horiz-adv-x="1406" 
d="M805 1022q-11 25 -19 46t-18 49t-18 42q-6 20 -22 59t-30 91h-4q-10 -31 -19 -55t-25 -69q-16 -46 -35 -93q-19 -48 -27 -70l-207 -518h633zM1155 -250q0 -108 123 -108q57 0 113 26l12 -69q-75 -33 -127 -33t-100 8q-45 16 -64 29q-65 52 -65 126q0 73 43 132
q39 59 131 139l-160 387h-725l-158 -387h-151l598 1430h149q201 -479 301 -715t301 -715h-76q-86 -94 -116 -145t-29 -105z" />
    <glyph glyph-name="aogonek" unicode="&#x105;" horiz-adv-x="1097" 
d="M676 524q-209 0 -322 -55t-112 -180q0 -95 64 -147t169 -52q160 0 242 103q82 96 82 325q-45 6 -123 6zM797 649q0 306 -290 304q-151 -1 -290 -101l-8 125q74 45 160 63q84 23 181 23q190 0 286 -113q86 -90 88 -295q0 -68 -2 -102v-100q0 -58 -4 -86v-62q0 -103 6 -201
t6 -104h-43q-92 -98 -117 -143q-35 -49 -35 -105q0 -110 123 -110q57 0 113 26l12 -69q-75 -33 -128 -33t-97 8q-131 41 -131 156q0 72 44 136t136 136q-4 8 -4 37v96q0 37 4 53h-4q-39 -88 -132 -145t-237 -57t-238 83q-95 83 -96 220q0 166 142 252q145 84 411 84
q87 0 144 -7v31z" />
    <glyph glyph-name="Cacute" unicode="&#x106;" horiz-adv-x="1255" 
d="M268 710q0 -132 46 -245q91 -223 321 -309q113 -43 259 -43t267 49l10 -137q-103 -39 -281 -39q-176 0 -320 53t-238 143q-213 192 -213 524t209 535q215 203 546 203q189 0 300 -47l-17 -133q-112 55 -269 55q-284 0 -454 -170q-166 -171 -166 -439zM866 1536h-106
l180 289h156z" />
    <glyph glyph-name="cacute" unicode="&#x107;" horiz-adv-x="931" 
d="M868 37q-240 -94 -458 -12q-193 85 -267 276q-35 100 -35 216q1 239 142 384q74 76 164 111q88 41 218 41t230 -41l-12 -123q-98 47 -202 47q-280 0 -369 -248q-27 -74 -27 -167t26 -167q54 -153 193 -217q74 -31 176 -31t211 54zM645 1186h-106l198 362h150z" />
    <glyph glyph-name="Ccircumflex" unicode="&#x108;" horiz-adv-x="1255" 
d="M268 710q0 -132 46 -245q91 -223 321 -309q113 -43 259 -43t267 49l10 -137q-103 -39 -281 -39q-176 0 -320 53t-238 143q-213 192 -213 524t209 535q215 203 546 203q189 0 300 -47l-17 -133q-112 55 -269 55q-284 0 -454 -170q-166 -171 -166 -439zM981 1536l-170 213
l-180 -213h-117l227 297h142l219 -297h-121z" />
    <glyph glyph-name="ccircumflex" unicode="&#x109;" horiz-adv-x="931" 
d="M868 37q-240 -94 -458 -12q-193 85 -267 276q-35 100 -35 216q1 239 142 384q74 76 164 111q88 41 218 41t230 -41l-12 -123q-98 47 -202 47q-280 0 -369 -248q-27 -74 -27 -167t26 -167q54 -153 193 -217q74 -31 176 -31t211 54zM743 1186l-170 278l-182 -278h-117
l228 362h143l221 -362h-123z" />
    <glyph glyph-name="Cdotaccent" unicode="&#x10a;" horiz-adv-x="1255" 
d="M268 710q0 -132 46 -245q91 -223 321 -309q113 -43 259 -43t267 49l10 -137q-103 -39 -281 -39q-176 0 -320 53t-238 143q-213 192 -213 524t209 535q215 203 546 203q189 0 300 -47l-17 -133q-112 55 -269 55q-284 0 -454 -170q-166 -171 -166 -439zM934 1589h-162v176
h162v-176z" />
    <glyph glyph-name="cdotaccent" unicode="&#x10b;" horiz-adv-x="931" 
d="M868 37q-240 -94 -458 -12q-193 85 -267 276q-35 100 -35 216q1 239 142 384q74 76 164 111q88 41 218 41t230 -41l-12 -123q-98 47 -202 47q-280 0 -369 -248q-27 -74 -27 -167t26 -167q54 -153 193 -217q74 -31 176 -31t211 54zM694 1249h-162v174h162v-174z" />
    <glyph glyph-name="Ccaron" unicode="&#x10c;" horiz-adv-x="1255" 
d="M268 710q0 -132 46 -245q91 -223 321 -309q113 -43 259 -43t267 49l10 -137q-103 -39 -281 -39q-176 0 -320 53t-238 143q-213 192 -213 524t209 535q215 203 546 203q189 0 300 -47l-17 -133q-112 55 -269 55q-284 0 -454 -170q-166 -171 -166 -439zM659 1831l172 -217
l179 217h116l-227 -297h-141l-219 297h120z" />
    <glyph glyph-name="ccaron" unicode="&#x10d;" horiz-adv-x="931" 
d="M868 37q-240 -94 -458 -12q-193 85 -267 276q-35 100 -35 216q1 239 142 384q74 76 164 111q88 41 218 41t230 -41l-12 -123q-98 47 -202 47q-280 0 -369 -248q-27 -74 -27 -167t26 -167q54 -153 193 -217q74 -31 176 -31t211 54zM406 1546l174 -282l178 282h119
l-228 -362h-143l-221 362h121z" />
    <glyph glyph-name="Dcaron" unicode="&#x10e;" horiz-adv-x="1441" 
d="M1176 711q0 596 -693 596h-141v-1184h141q150 0 287 33q131 38 219 108q185 146 187 447zM492 1430q381 0 595 -168q234 -190 234 -549q0 -371 -248 -549q-106 -82 -259 -123t-322 -41h-291v1430h291zM438 1956l174 -283l179 283h118l-227 -363h-143l-222 363h121z" />
    <glyph glyph-name="dcaron" unicode="&#x10f;" horiz-adv-x="1226" 
d="M819 827q-106 123 -251 123t-228 -119q-45 -61 -68 -139q-48 -162 0 -344q43 -150 166 -225q61 -33 133 -33t136 32t104 87q43 49 71 129t28 175q0 188 -91 314zM913 856q-6 80 -6 260v432h133v-1233q0 -216 11 -315h-125q-4 61 -4 98q-2 37 -2 105h-5q-51 -97 -142 -161
t-207 -64t-196 38q-80 39 -142 113t-89 170q-31 94 -31 211q1 238 117 395q131 158 338 158q113 0 207 -55q94 -59 139 -152h4zM1253 1186h-84l37 362h129z" />
    <glyph glyph-name="Dcroat" unicode="&#x110;" horiz-adv-x="1441" 
d="M1174 711q0 596 -693 596h-141v-545h295v-82h-295v-557h141q150 0 285 33q133 38 221 108q185 146 187 447zM489 1430q382 0 596 -168q232 -188 234 -549q0 -193 -67 -329q-129 -262 -445 -345q-143 -39 -318 -39h-290v680h-140v82h140v668h290z" />
    <glyph glyph-name="dcroat" unicode="&#x111;" horiz-adv-x="1226" 
d="M819 827q-106 123 -251 123t-228 -119q-45 -61 -68 -139q-48 -162 0 -344q43 -150 166 -225q61 -33 133 -33t136 32t104 87q43 49 71 129t28 175q0 188 -91 314zM913 856q-6 80 -6 260v158h-282v80h282v194h133v-194h117v-80h-117v-959q0 -216 11 -315h-125q-4 61 -4 98
q-2 37 -2 105h-5q-51 -97 -142 -161t-207 -64t-196 38q-80 39 -142 113t-89 170q-31 94 -31 211q1 238 117 395q131 158 338 158q113 0 207 -55q94 -59 139 -152h4z" />
    <glyph glyph-name="Emacron" unicode="&#x112;" horiz-adv-x="1075" 
d="M946 0h-745v1430h729v-123h-588v-508h551v-119h-551v-557h604v-123zM825 1628h-538v94h538v-94z" />
    <glyph glyph-name="emacron" unicode="&#x113;" horiz-adv-x="1103" 
d="M866 604q0 176 -75 264q-76 88 -211 88q-134 0 -224 -89t-106 -263h616zM999 532q0 -24 -4 -36h-749q4 -188 106 -296t283 -108q139 0 283 74l6 -127q-133 -61 -293 -62q-254 0 -389 146q-133 150 -133 401t133 389q57 70 145 110t195 40q198 0 308 -126t109 -372v-33z
M838 1294h-539v95h539v-95z" />
    <glyph glyph-name="Ebreve" unicode="&#x114;" horiz-adv-x="1075" 
d="M946 0h-745v1430h729v-123h-588v-508h551v-119h-551v-557h604v-123zM559 1671q190 0 223 184h90q-12 -131 -96 -213q-86 -76 -219 -76t-221 76q-84 84 -92 213h90q35 -184 225 -184z" />
    <glyph glyph-name="ebreve" unicode="&#x115;" horiz-adv-x="1103" 
d="M866 604q0 176 -75 264q-76 88 -211 88q-134 0 -224 -89t-106 -263h616zM999 532q0 -24 -4 -36h-749q4 -188 106 -296t283 -108q139 0 283 74l6 -127q-133 -61 -293 -62q-254 0 -389 146q-133 150 -133 401t133 389q57 70 145 110t195 40q198 0 308 -126t109 -372v-33z
M573 1284q195 0 226 207h88q-12 -143 -99 -229q-88 -82 -220 -82t-217 82t-93 229h88q23 -117 78 -160q53 -47 149 -47z" />
    <glyph glyph-name="Edotaccent" unicode="&#x116;" horiz-adv-x="1075" 
d="M946 0h-745v1430h729v-123h-588v-508h551v-119h-551v-557h604v-123zM659 1589h-161v176h161v-176z" />
    <glyph glyph-name="edotaccent" unicode="&#x117;" horiz-adv-x="1103" 
d="M866 604q0 176 -75 264q-76 88 -211 88q-134 0 -224 -89t-106 -263h616zM999 532q0 -24 -4 -36h-749q4 -188 106 -296t283 -108q139 0 283 74l6 -127q-133 -61 -293 -62q-254 0 -389 146q-133 150 -133 401t133 389q57 70 145 110t195 40q198 0 308 -126t109 -372v-33z
M666 1249h-162v174h162v-174z" />
    <glyph glyph-name="Eogonek" unicode="&#x118;" horiz-adv-x="1075" 
d="M596 -256q0 58 44 119t134 137h-573v1430h729v-123h-588v-508h551v-119h-551v-557h604v-123h-90q-82 -88 -117 -143t-34 -105q0 -112 118 -110q61 0 117 26l12 -69q-75 -33 -127 -33q-51 0 -100 8q-76 27 -111 80q-18 32 -18 90z" />
    <glyph glyph-name="eogonek" unicode="&#x119;" horiz-adv-x="1103" 
d="M866 604q0 176 -75 264q-76 88 -211 88q-134 0 -224 -89t-106 -263h616zM999 532q0 -24 -4 -36h-749q4 -188 106 -296t283 -108q139 0 283 74l6 -119q-122 -63 -184 -142t-62 -145q0 -121 119 -118q61 0 116 26l13 -69q-75 -33 -128 -33t-98 8q-128 40 -131 156
q0 134 164 256v4q-32 -11 -102 -13q-254 0 -389 146q-133 150 -133 401t133 389q57 70 145 110t195 40q198 0 308 -126t109 -372v-33z" />
    <glyph glyph-name="Ecaron" unicode="&#x11a;" horiz-adv-x="1075" 
d="M946 0h-745v1430h729v-123h-588v-508h551v-119h-551v-557h604v-123zM389 1831l172 -217l178 217h117l-227 -297h-142l-219 297h121z" />
    <glyph glyph-name="ecaron" unicode="&#x11b;" horiz-adv-x="1103" 
d="M866 604q0 176 -75 264q-76 88 -211 88q-134 0 -224 -89t-106 -263h616zM999 532q0 -24 -4 -36h-749q4 -188 106 -296t283 -108q139 0 283 74l6 -127q-133 -61 -293 -62q-254 0 -389 146q-133 150 -133 401t133 389q57 70 145 110t195 40q198 0 308 -126t109 -372v-33z
M414 1546l174 -282l178 282h119l-228 -362h-143l-221 362h121z" />
    <glyph glyph-name="Gcircumflex" unicode="&#x11c;" horiz-adv-x="1456" 
d="M896 -14q-350 0 -568 202q-100 94 -154 232t-55 302q0 316 217 519t557 203q84 0 188 -14q106 -20 183 -56l-15 -135q-84 41 -174 64q-89 18 -205 18t-230 -43t-194 -123q-80 -74 -131 -190q-45 -117 -45 -251q0 -271 171 -437t438 -166q158 0 268 41v491h-342v119h483
v-707q-207 -69 -392 -69zM1024 1536l-170 213l-180 -213h-117l227 297h142l219 -297h-121z" />
    <glyph glyph-name="gcircumflex" unicode="&#x11d;" horiz-adv-x="1216" 
d="M1034 1040v-985q0 -242 -125 -374q-123 -135 -344 -135t-381 69l15 135q162 -88 350 -88t278 117q78 108 78 301v65q0 27 4 72h-4q-45 -88 -137 -156q-88 -61 -206 -61t-197 37q-80 37 -144 106q-119 154 -119 386t125 380q53 68 144 115q88 39 171 39q195 0 312 -127
q35 -37 55 -80h4q-4 66 -4 96v88h125zM572 950q-77 0 -137 -32q-122 -64 -168 -228t-2 -326q45 -162 169 -225q61 -29 133 -29q139 1 242 115q43 51 70 130q56 163 2 337q-20 74 -66 135q-96 123 -243 123zM758 1186l-170 278l-182 -278h-117l227 362h143l222 -362h-123z
" />
    <glyph glyph-name="Gbreve" unicode="&#x11e;" horiz-adv-x="1456" 
d="M896 -14q-350 0 -568 202q-100 94 -154 232t-55 302q0 316 217 519t557 203q84 0 188 -14q106 -20 183 -56l-15 -135q-84 41 -174 64q-89 18 -205 18t-230 -43t-194 -123q-80 -74 -131 -190q-45 -117 -45 -251q0 -271 171 -437t438 -166q158 0 268 41v491h-342v119h483
v-707q-207 -69 -392 -69zM846 1671q190 0 225 184h90q-12 -131 -96 -213q-86 -76 -221 -76t-219 78t-93 211h91q33 -184 223 -184z" />
    <glyph glyph-name="gbreve" unicode="&#x11f;" horiz-adv-x="1216" 
d="M1034 1040v-985q0 -242 -125 -374q-123 -135 -344 -135t-381 69l15 135q162 -88 350 -88t278 117q78 108 78 301v65q0 27 4 72h-4q-45 -88 -137 -156q-88 -61 -206 -61t-197 37q-80 37 -144 106q-119 154 -119 386t125 380q53 68 144 115q88 39 171 39q195 0 312 -127
q35 -37 55 -80h4q-4 66 -4 96v88h125zM572 950q-77 0 -137 -32q-122 -64 -168 -228t-2 -326q45 -162 169 -225q61 -29 133 -29q139 1 242 115q43 51 70 130q56 163 2 337q-20 74 -66 135q-96 123 -243 123zM591 1180q-132 0 -214 82q-88 82 -96 229h88q23 -117 77 -160
q54 -47 150 -47t149 51q61 51 76 156h88q-12 -143 -98 -229q-88 -82 -220 -82z" />
    <glyph glyph-name="Gdotaccent" unicode="&#x120;" horiz-adv-x="1456" 
d="M896 -14q-350 0 -568 202q-100 94 -154 232t-55 302q0 316 217 519t557 203q84 0 188 -14q106 -20 183 -56l-15 -135q-84 41 -174 64q-89 18 -205 18t-230 -43t-194 -123q-80 -74 -131 -190q-45 -117 -45 -251q0 -271 171 -437t438 -166q158 0 268 41v491h-342v119h483
v-707q-207 -69 -392 -69zM954 1589h-161v176h161v-176z" />
    <glyph glyph-name="gdotaccent" unicode="&#x121;" horiz-adv-x="1216" 
d="M1034 1040v-985q0 -242 -125 -374q-123 -135 -344 -135t-381 69l15 135q162 -88 350 -88t278 117q78 108 78 301v65q0 27 4 72h-4q-45 -88 -137 -156q-88 -61 -206 -61t-197 37q-80 37 -144 106q-119 154 -119 386t125 380q53 68 144 115q88 39 171 39q195 0 312 -127
q35 -37 55 -80h4q-4 66 -4 96v88h125zM572 950q-77 0 -137 -32q-122 -64 -168 -228t-2 -326q45 -162 169 -225q61 -29 133 -29q139 1 242 115q43 51 70 130q56 163 2 337q-20 74 -66 135q-96 123 -243 123zM684 1249h-162v174h162v-174z" />
    <glyph glyph-name="uni0122" unicode="&#x122;" horiz-adv-x="1456" 
d="M896 -14q-350 0 -568 202q-100 94 -154 232t-55 302q0 316 217 519t557 203q84 0 188 -14q106 -20 183 -56l-15 -135q-84 41 -174 64q-89 18 -205 18t-230 -43t-194 -123q-80 -74 -131 -190q-45 -117 -45 -251q0 -271 171 -437t438 -166q158 0 268 41v491h-342v119h483
v-707q-207 -69 -392 -69zM793 -471h-101l121 344h145z" />
    <glyph glyph-name="uni0123" unicode="&#x123;" horiz-adv-x="1216" 
d="M1034 1040v-985q0 -242 -125 -374q-123 -135 -344 -135t-381 69l15 135q162 -88 350 -88t278 117q78 108 78 301v65q0 27 4 72h-4q-45 -88 -137 -156q-88 -61 -206 -61t-197 37q-80 37 -144 106q-119 154 -119 386t125 380q53 68 144 115q88 39 171 39q195 0 312 -127
q35 -37 55 -80h4q-4 66 -4 96v88h125zM572 950q-77 0 -137 -32q-122 -64 -168 -228t-2 -326q45 -162 169 -225q61 -29 133 -29q139 1 242 115q43 51 70 130q56 163 2 337q-20 74 -66 135q-96 123 -243 123zM686 1548h109l-156 -362h-145z" />
    <glyph glyph-name="Hcircumflex" unicode="&#x124;" horiz-adv-x="1433" 
d="M1233 0h-141v680h-750v-680h-141v1430h141v-627h750v627h141v-1430zM887 1536l-170 213l-180 -213h-117l227 297h141l220 -297h-121z" />
    <glyph glyph-name="hcircumflex" unicode="&#x125;" horiz-adv-x="1212" 
d="M317 1548v-483q0 -59 -2 -88v-80q-2 -23 -2 -55h4q51 96 145 158t206 62q114 0 185 -33q132 -63 171 -247q16 -88 16 -184v-598h-135v551q0 92 -10 165q-21 153 -121 208q-47 26 -124 26q-229 -1 -306 -241q-27 -80 -27 -187v-522h-133v1548h133zM725 1618l-170 213
l-180 -213h-117l227 297h142l219 -297h-121z" />
    <glyph glyph-name="Hbar" unicode="&#x126;" horiz-adv-x="1433" 
d="M1092 803v276h-750v-276h750zM1233 1161h113v-82h-113v-1079h-141v680h-750v-680h-141v1079h-115v82h115v269h141v-269h750v269h141v-269z" />
    <glyph glyph-name="hbar" unicode="&#x127;" horiz-adv-x="1212" 
d="M317 1352h267v-80h-267v-207q0 -59 -2 -88v-80q-2 -23 -2 -55h4q53 98 145 158t206 60t185 -33q133 -63 171 -245q16 -88 16 -184v-598h-135v551q0 94 -10 165q-21 151 -121 206q-47 26 -123 26q-154 -1 -237 -108q-97 -111 -97 -318v-522h-133v1272h-129v80h129v196h133
v-196z" />
    <glyph glyph-name="Itilde" unicode="&#x128;" horiz-adv-x="542" 
d="M342 0h-141v1430h141v-1430zM592 1778q-21 -197 -168 -197q-18 0 -68 8q-49 16 -116 50t-105 34q-70 0 -88 -96h-80q9 90 55 141t118 51t159 -49q14 -8 40 -18t34 -14q41 -8 51 -9q71 0 86 99h82z" />
    <glyph glyph-name="itilde" unicode="&#x129;" horiz-adv-x="503" 
d="M317 0h-133v1040h133v-1040zM-47 1237q21 190 176 190q62 0 150 -47q14 -6 39 -17q44 -20 85 -22t56 27q18 25 24 72h80q-8 -88 -53 -146q-44 -51 -96 -51t-82 10q-33 6 -78 31q-88 49 -140 49q-63 0 -81 -96h-80z" />
    <glyph glyph-name="Imacron" unicode="&#x12a;" horiz-adv-x="542" 
d="M342 0h-141v1430h141v-1430zM545 1628h-539v94h539v-94z" />
    <glyph glyph-name="imacron" unicode="&#x12b;" horiz-adv-x="503" 
d="M317 0h-133v1040h133v-1040zM528 1294h-538v95h538v-95z" />
    <glyph glyph-name="Iogonek" unicode="&#x12e;" horiz-adv-x="542" 
d="M201 0v1430h141v-1430h-35q-82 -88 -117 -143t-34 -105q0 -112 118 -110q61 0 117 26l12 -69q-75 -33 -127 -33q-51 0 -100 8q-78 28 -103 69q-25 43 -25 101t43 119q44 61 134 137h-24z" />
    <glyph glyph-name="iogonek" unicode="&#x12f;" horiz-adv-x="503" 
d="M330 1272h-158v166h158v-166zM35 -271q0 73 44 134t134 137h-29v1040h133v-1040h-22q-82 -88 -117 -143t-35 -109t33 -80t90 -26t113 26l12 -69q-75 -33 -127 -33q-51 0 -100 8q-45 16 -64 29q-65 53 -65 126z" />
    <glyph glyph-name="Idotaccent" unicode="&#x130;" horiz-adv-x="542" 
d="M342 0h-141v1430h141v-1430zM358 1589h-161v176h161v-176z" />
    <glyph glyph-name="dotlessi" unicode="&#x131;" horiz-adv-x="503" 
d="M317 0h-133v1040h133v-1040z" />
    <glyph glyph-name="IJ" unicode="&#x132;" horiz-adv-x="1263" 
d="M934 412v1018h141v-1049q0 -401 -332 -397q-80 0 -153 24l2 125q155 -50 235 -6q45 18 65 55t34 97q8 78 8 133zM342 0h-141v1430h141v-1430z" />
    <glyph glyph-name="ij" unicode="&#x133;" horiz-adv-x="1015" 
d="M829 -96q0 -184 -59 -260q-27 -43 -82 -74q-54 -25 -112 -25t-103 11v114q35 -8 70 -8q92 0 125 64q29 70 28 188v1126h133v-1136zM842 1272h-158v166h158v-166zM317 0h-133v1040h133v-1040zM330 1272h-158v166h158v-166z" />
    <glyph glyph-name="Jcircumflex" unicode="&#x134;" horiz-adv-x="720" 
d="M393 412v1018h142v-1049q0 -401 -332 -397q-80 0 -154 24l2 125q154 -50 236 -6q45 18 65 55t33 97q8 78 8 133zM633 1536l-170 213l-180 -213h-117l227 297h142l219 -297h-121z" />
    <glyph glyph-name="jcircumflex" unicode="&#x135;" horiz-adv-x="503" 
d="M317 -96q0 -184 -59 -260q-27 -43 -82 -74q-54 -25 -112 -25t-103 11v114q35 -8 70 -8q92 0 125 64q29 70 28 188v1126h133v-1136zM426 1186l-170 278l-182 -278h-117l227 362h144l221 -362h-123z" />
    <glyph glyph-name="uni0136" unicode="&#x136;" horiz-adv-x="1259" 
d="M340 0h-139v1430h139v-656h4q30 30 78 84q80 84 88 93t33 34l35 35q23 25 51 53l352 357h190l-686 -672l748 -758h-205l-453 473q-27 31 -90 97t-141 159h-4v-729zM545 -487h-101l121 344h146z" />
    <glyph glyph-name="uni0137" unicode="&#x137;" horiz-adv-x="1044" 
d="M317 553v-553h-133v1548h133v-946h5q25 31 71 74q27 29 88 86l314 278h184l-535 -454l580 -586h-184l-363 375q-69 75 -93 101t-62 77h-5zM451 -471h-101l121 344h145z" />
    <glyph glyph-name="Lacute" unicode="&#x139;" horiz-adv-x="976" 
d="M342 121h598v-121h-739v1430h141v-1309zM324 1536h-107l180 289h156z" />
    <glyph glyph-name="lacute" unicode="&#x13a;" horiz-adv-x="503" 
d="M317 0h-133v1548h133v-1548zM303 1618h-106l180 289h155z" />
    <glyph glyph-name="uni013B" unicode="&#x13b;" horiz-adv-x="976" 
d="M342 121h598v-121h-739v1430h141v-1309zM475 -471h-100l121 344h145z" />
    <glyph glyph-name="uni013C" unicode="&#x13c;" horiz-adv-x="503" 
d="M317 0h-133v1548h133v-1548zM174 -471h-100l121 344h145z" />
    <glyph glyph-name="Lcaron" unicode="&#x13d;" horiz-adv-x="976" 
d="M342 121h598v-121h-739v1430h141v-1309zM582 1186h-84l37 362h129z" />
    <glyph glyph-name="lcaron" unicode="&#x13e;" horiz-adv-x="503" 
d="M317 0h-133v1548h133v-1548zM535 1186h-84l36 362h129z" />
    <glyph glyph-name="Ldot" unicode="&#x13f;" horiz-adv-x="1001" 
d="M342 121h598v-121h-739v1430h141v-1309zM872 721h-161v174h161v-174z" />
    <glyph glyph-name="ldot" unicode="&#x140;" horiz-adv-x="671" 
d="M317 0h-133v1548h133v-1548zM672 721h-162v174h162v-174z" />
    <glyph glyph-name="Lslash" unicode="&#x141;" horiz-adv-x="976" 
d="M342 121h598v-121h-739v725l-150 -98v94l150 94v615h141v-533l248 162v-94l-248 -160v-684z" />
    <glyph glyph-name="lslash" unicode="&#x142;" horiz-adv-x="524" 
d="M330 0h-135v844l-154 -121v94l154 121v610h135v-516l153 119v-92l-153 -121v-938z" />
    <glyph glyph-name="Nacute" unicode="&#x143;" horiz-adv-x="1462" 
d="M1133 246q-9 90 -9 368v816h140v-1430h-187l-536 922q-33 51 -53 89t-72 133q-51 94 -82 159h-4q6 -36 6 -189l4 -110v-1004h-139v1430h205l524 -904q49 -84 54 -94q4 -10 24 -46t31 -55q56 -103 94 -184h4q-4 28 -4 99zM762 1536h-107l181 289h155z" />
    <glyph glyph-name="nacute" unicode="&#x144;" horiz-adv-x="1212" 
d="M313 846h4q55 102 146 158q87 59 201 59q216 0 299 -133q77 -109 77 -332v-598h-135v551q0 196 -53 297q-60 104 -203 103t-237 -108t-95 -321v-522h-133v727q0 196 -10 313h131q8 -164 8 -194zM643 1186h-106l198 362h150z" />
    <glyph glyph-name="uni0145" unicode="&#x145;" horiz-adv-x="1462" 
d="M1133 246q-9 90 -9 368v816h140v-1430h-187l-536 922q-33 51 -53 89t-72 133q-51 94 -82 159h-4q6 -36 6 -189l4 -110v-1004h-139v1430h205l524 -904q49 -84 54 -94q4 -10 24 -46t31 -55q56 -103 94 -184h4q-4 28 -4 99zM653 -471h-100l121 344h145z" />
    <glyph glyph-name="uni0146" unicode="&#x146;" horiz-adv-x="1212" 
d="M313 846h4q55 102 146 158q87 59 201 59q216 0 299 -133q77 -109 77 -332v-598h-135v551q0 196 -53 297q-60 104 -203 103t-237 -108t-95 -321v-522h-133v727q0 196 -10 313h131q8 -164 8 -194zM532 -471h-100l121 344h145z" />
    <glyph glyph-name="Ncaron" unicode="&#x147;" horiz-adv-x="1462" 
d="M1133 246q-9 90 -9 368v816h140v-1430h-187l-536 922q-33 51 -53 89t-72 133q-51 94 -82 159h-4q6 -36 6 -189l4 -110v-1004h-139v1430h205l524 -904q49 -84 54 -94q4 -10 24 -46t31 -55q56 -103 94 -184h4q-4 28 -4 99zM565 1831l172 -217l178 217h117l-227 -297h-141
l-220 297h121z" />
    <glyph glyph-name="ncaron" unicode="&#x148;" horiz-adv-x="1212" 
d="M313 846h4q55 102 146 158q87 59 201 59q216 0 299 -133q77 -109 77 -332v-598h-135v551q0 196 -53 297q-60 104 -203 103t-237 -108t-95 -321v-522h-133v727q0 196 -10 313h131q8 -164 8 -194zM438 1546l174 -282l179 282h118l-227 -362h-143l-222 362h121z" />
    <glyph glyph-name="napostrophe" unicode="&#x149;" horiz-adv-x="1212" 
d="M313 846h4q55 102 146 158q87 59 201 59q216 0 299 -133q77 -109 77 -332v-598h-135v551q0 196 -53 297q-60 104 -203 103t-237 -108t-95 -321v-522h-133v727q0 196 -10 313h131q8 -164 8 -194zM172 1186h-84l37 362h129z" />
    <glyph glyph-name="Omacron" unicode="&#x14c;" horiz-adv-x="1550" 
d="M775 1333q-114 0 -208 -46q-188 -92 -256 -318q-37 -113 -37 -253q0 -285 140 -450q61 -80 157 -125t209 -45q216 0 359 168q68 88 98 195q37 111 37 251q0 282 -133 452q-133 171 -366 171zM787 1452q293 0 466 -205q172 -210 172 -536q0 -162 -45 -303
q-49 -133 -131 -232q-82 -92 -202 -147q-125 -51 -272 -51t-269 52t-203 146q-88 94 -131 230q-47 127 -47 296t47 311t135 236q84 94 209 152q128 51 271 51zM1042 1628h-538v94h538v-94z" />
    <glyph glyph-name="omacron" unicode="&#x14d;" horiz-adv-x="1214" 
d="M605 950q-81 0 -149 -32t-108 -87q-100 -117 -98 -314q0 -97 24 -177q58 -156 187 -219q63 -31 144 -31t150 32q131 61 183 222q27 74 27 176t-27 176q-52 160 -184 222q-68 32 -149 32zM614 1063q104 0 199 -39q96 -47 154 -115q63 -68 101 -171t38 -223
q0 -234 -137 -386t-363 -152q-102 0 -200 39q-94 43 -158 111q-141 162 -140 398q1 237 142 386q66 70 160 113q100 39 204 39zM872 1294h-538v95h538v-95z" />
    <glyph glyph-name="Obreve" unicode="&#x14e;" horiz-adv-x="1550" 
d="M775 1333q-114 0 -208 -46q-188 -92 -256 -318q-37 -113 -37 -253q0 -285 140 -450q61 -80 157 -125t209 -45q216 0 359 168q68 88 98 195q37 111 37 251q0 282 -133 452q-133 171 -366 171zM787 1452q293 0 466 -205q172 -210 172 -536q0 -162 -45 -303
q-49 -133 -131 -232q-82 -92 -202 -147q-125 -51 -272 -51t-269 52t-203 146q-88 94 -131 230q-47 127 -47 296t47 311t135 236q84 94 209 152q128 51 271 51zM770 1671q190 0 225 184h90q-12 -131 -96 -213q-86 -76 -219 -76t-221 76q-84 84 -92 213h90q33 -184 223 -184z
" />
    <glyph glyph-name="obreve" unicode="&#x14f;" horiz-adv-x="1214" 
d="M605 950q-81 0 -149 -32t-108 -87q-100 -117 -98 -314q0 -97 24 -177q58 -156 187 -219q63 -31 144 -31t150 32q131 61 183 222q27 74 27 176t-27 176q-52 160 -184 222q-68 32 -149 32zM614 1063q104 0 199 -39q96 -47 154 -115q63 -68 101 -171t38 -223
q0 -234 -137 -386t-363 -152q-102 0 -200 39q-94 43 -158 111q-141 162 -140 398q1 237 142 386q66 70 160 113q100 39 204 39zM599 1180q-132 0 -214 82q-88 82 -96 229h88q23 -117 78 -160q53 -47 149 -47t150 51q61 51 75 156h89q-12 -143 -99 -229q-88 -82 -220 -82z
" />
    <glyph glyph-name="Ohungarumlaut" unicode="&#x150;" horiz-adv-x="1550" 
d="M775 1333q-114 0 -208 -46q-188 -92 -256 -318q-37 -113 -37 -253q0 -285 140 -450q61 -80 157 -125t209 -45q216 0 359 168q68 88 98 195q37 111 37 251q0 282 -133 452q-133 171 -366 171zM787 1452q293 0 466 -205q172 -210 172 -536q0 -162 -45 -303
q-49 -133 -131 -232q-82 -92 -202 -147q-125 -51 -272 -51t-269 52t-203 146q-88 94 -131 230q-47 127 -47 296t47 311t135 236q84 94 209 152q128 51 271 51zM952 1536h-106l174 291h154zM694 1536h-104l164 291h149z" />
    <glyph glyph-name="ohungarumlaut" unicode="&#x151;" horiz-adv-x="1214" 
d="M605 950q-81 0 -149 -32t-108 -87q-100 -117 -98 -314q0 -97 24 -177q58 -156 187 -219q63 -31 144 -31t150 32q131 61 183 222q27 74 27 176t-27 176q-52 160 -184 222q-68 32 -149 32zM614 1063q104 0 199 -39q96 -47 154 -115q63 -68 101 -171t38 -223
q0 -234 -137 -386t-363 -152q-102 0 -200 39q-94 43 -158 111q-141 162 -140 398q1 237 142 386q66 70 160 113q100 39 204 39zM772 1186h-104l198 362h148zM508 1186h-102l188 362h143z" />
    <glyph glyph-name="OE" unicode="&#x152;" horiz-adv-x="1894" 
d="M895 1311q-297 0 -457 -160q-80 -71 -124 -183t-44 -249q0 -289 172 -445q170 -160 482 -159h47q23 2 59 6v1184q-23 2 -72 6h-63zM1188 1430h559v-125h-578v-506h543v-119h-543v-559h596v-121h-553l-303 -8q-365 0 -576 188q-212 188 -212 539q0 325 213 520t575 197
l140 -2q53 -4 139 -4z" />
    <glyph glyph-name="oe" unicode="&#x153;" horiz-adv-x="1937" 
d="M623 -23q-127 0 -222 39q-92 45 -155 111q-139 159 -138 396q1 236 140 388q61 68 158 113q100 39 224 39t230 -68q104 -72 160 -192q52 117 154 189t245 71q197 0 305 -127q111 -125 111 -375v-33q0 -24 -4 -36h-741q8 -195 104 -291q45 -49 121 -82q74 -27 155 -27
q152 0 295 78l4 -125q-139 -68 -299 -68t-278 70t-170 193q-56 -121 -164 -192t-235 -71zM1702 600q0 180 -76 264q-76 90 -212 90t-222 -90q-82 -92 -98 -264h608zM604 90q80 0 148 32t108 87q100 109 98 311q0 98 -24 176q-29 80 -74 135q-93 119 -261 119t-255 -119
q-98 -115 -97 -306q1 -192 97 -318q105 -117 260 -117z" />
    <glyph glyph-name="Racute" unicode="&#x154;" horiz-adv-x="1196" 
d="M342 782h164q172 0 276 70q100 74 100 206t-94 190q-96 58 -282 59h-164v-525zM201 1430h336q229 0 361 -90t132 -273q0 -135 -83 -223t-226 -123v-4q112 -35 182 -185q82 -180 122 -268t122 -264h-160l-211 479q-45 109 -102 144q-51 41 -172 43h-160v-666h-141v1430z
M600 1536h-106l180 289h155z" />
    <glyph glyph-name="racute" unicode="&#x155;" horiz-adv-x="727" 
d="M596 938q-56 0 -109 -30t-90 -83q-78 -99 -80 -286v-539h-133v727q0 196 -10 313h131q2 -14 2 -47q4 -20 4 -55v-53q2 -18 2 -47h4q33 94 111 159t180 66q47 0 86 -12l-2 -123q-40 10 -96 10zM424 1186h-107l199 362h150z" />
    <glyph glyph-name="uni0156" unicode="&#x156;" horiz-adv-x="1196" 
d="M342 782h164q172 0 276 70q100 74 100 206t-94 190q-96 58 -282 59h-164v-525zM201 1430h336q229 0 361 -90t132 -273q0 -135 -83 -223t-226 -123v-4q112 -35 182 -185q82 -180 122 -268t122 -264h-160l-211 479q-45 109 -102 144q-51 41 -172 43h-160v-666h-141v1430z
M541 -471h-101l121 344h146z" />
    <glyph glyph-name="uni0157" unicode="&#x157;" horiz-adv-x="727" 
d="M596 938q-56 0 -109 -30t-90 -83q-78 -99 -80 -286v-539h-133v727q0 196 -10 313h131q2 -14 2 -47q4 -20 4 -55v-53q2 -18 2 -47h4q33 94 111 159t180 66q47 0 86 -12l-2 -123q-40 10 -96 10zM172 -471h-100l121 344h145z" />
    <glyph glyph-name="Rcaron" unicode="&#x158;" horiz-adv-x="1196" 
d="M342 782h164q172 0 276 70q100 74 100 206t-94 190q-96 58 -282 59h-164v-525zM201 1430h336q229 0 361 -90t132 -273q0 -135 -83 -223t-226 -123v-4q112 -35 182 -185q82 -180 122 -268t122 -264h-160l-211 479q-45 109 -102 144q-51 41 -172 43h-160v-666h-141v1430z
M393 1831l172 -217l178 217h117l-227 -297h-141l-220 297h121z" />
    <glyph glyph-name="rcaron" unicode="&#x159;" horiz-adv-x="727" 
d="M596 938q-56 0 -109 -30t-90 -83q-78 -99 -80 -286v-539h-133v727q0 196 -10 313h131q2 -14 2 -47q4 -20 4 -55v-53q2 -18 2 -47h4q33 94 111 159t180 66q47 0 86 -12l-2 -123q-40 10 -96 10zM221 1546l174 -282l178 282h119l-227 -362h-143l-222 362h121z" />
    <glyph glyph-name="Sacute" unicode="&#x15a;" horiz-adv-x="1044" 
d="M691 171q89 71 89 183t-63 176q-64 72 -244 155t-263 170t-83 228q0 82 32 150q62 132 226 192q90 27 218 27t257 -51l-18 -129q-129 59 -265 59t-221 -65q-84 -68 -84 -174q0 -39 15 -86q39 -83 147 -144q63 -39 144 -76q180 -86 266 -178q82 -94 82 -229
q0 -84 -33 -166q-37 -74 -96 -127q-135 -109 -336 -109q-74 0 -174 15q-94 20 -156 45l16 139q158 -74 307 -75q148 -1 237 70zM561 1536h-106l180 289h156z" />
    <glyph glyph-name="sacute" unicode="&#x15b;" horiz-adv-x="825" 
d="M240 788q0 -78 54 -120t183 -89q129 -48 193 -116t63 -178q0 -74 -28 -138q-93 -167 -330 -170q-82 0 -146 15q-74 12 -137 39l14 125q127 -66 271 -66t201 100q20 33 20 77q0 87 -53 126q-29 29 -125 72q-97 43 -162 76q-57 37 -85 63q-64 58 -64 182t100 201
q82 74 227 75q144 1 250 -40l-12 -119q-104 49 -207 49t-165 -43t-62 -121zM475 1186h-106l198 362h150z" />
    <glyph glyph-name="Scircumflex" unicode="&#x15c;" horiz-adv-x="1044" 
d="M691 171q89 71 89 183t-63 176q-64 72 -244 155t-263 170t-83 228q0 82 32 150q62 132 226 192q90 27 218 27t257 -51l-18 -129q-129 59 -265 59t-221 -65q-84 -68 -84 -174q0 -39 15 -86q39 -83 147 -144q63 -39 144 -76q180 -86 266 -178q82 -94 82 -229
q0 -84 -33 -166q-37 -74 -96 -127q-135 -109 -336 -109q-74 0 -174 15q-94 20 -156 45l16 139q158 -74 307 -75q148 -1 237 70zM719 1536l-170 213l-180 -213h-117l227 297h142l219 -297h-121z" />
    <glyph glyph-name="scircumflex" unicode="&#x15d;" horiz-adv-x="825" 
d="M240 788q0 -78 54 -120t183 -89q129 -48 193 -116t63 -178q0 -74 -28 -138q-93 -167 -330 -170q-82 0 -146 15q-74 12 -137 39l14 125q127 -66 271 -66t201 100q20 33 20 77q0 87 -53 126q-29 29 -125 72q-97 43 -162 76q-57 37 -85 63q-64 58 -64 182t100 201
q82 74 227 75q144 1 250 -40l-12 -119q-104 49 -207 49t-165 -43t-62 -121zM612 1186l-170 278l-182 -278h-117l228 362h143l221 -362h-123z" />
    <glyph glyph-name="Scedilla" unicode="&#x15e;" horiz-adv-x="1044" 
d="M691 171q89 71 89 183t-63 176q-64 72 -244 155t-263 170t-83 228q0 82 32 150q62 132 226 192q90 27 218 27t257 -51l-18 -129q-129 59 -265 59t-221 -65q-84 -68 -84 -174q0 -39 15 -86q39 -83 147 -144q63 -39 144 -76q180 -86 266 -178q82 -94 82 -244t-107 -256
q-107 -107 -287 -126l-22 -119q16 4 25 4h26q76 0 127 -41q51 -42 51 -100q0 -102 -67 -148q-61 -49 -139 -49t-127 12l10 68q50 -8 78 -8q97 0 131 55q12 20 12 60t-36 64q-60 40 -167 11l23 186q-74 0 -170 15q-94 20 -156 45l16 139q158 -74 307 -75q148 -1 237 70z" />
    <glyph glyph-name="scedilla" unicode="&#x15f;" horiz-adv-x="825" 
d="M370 -399q28 0 52 6q50 4 78 49q12 20 12 61t-37 62q-56 40 -166 12l23 189q-129 6 -240 51l14 125q127 -66 271 -66t201 100q20 33 20 77q0 87 -53 126q-29 29 -125 72q-97 43 -162 76q-57 37 -85 63q-64 58 -64 182t100 201q82 74 227 75q144 1 250 -40l-12 -119
q-104 49 -207 49t-165 -43t-62 -121t54 -120t183 -89q257 -96 257 -277q-1 -227 -202 -298q-57 -20 -124 -24l-23 -117q16 4 25 4h26q74 0 129 -39q49 -44 49 -102q0 -102 -67 -148q-61 -49 -139 -49t-127 12l10 68q51 -8 79 -8z" />
    <glyph glyph-name="Scaron" unicode="&#x160;" horiz-adv-x="1044" 
d="M691 171q89 71 89 183t-63 176q-64 72 -244 155t-263 170t-83 228q0 82 32 150q62 132 226 192q90 27 218 27t257 -51l-18 -129q-129 59 -265 59t-221 -65q-84 -68 -84 -174q0 -39 15 -86q39 -83 147 -144q63 -39 144 -76q180 -86 266 -178q82 -94 82 -229
q0 -84 -33 -166q-37 -74 -96 -127q-135 -109 -336 -109q-74 0 -174 15q-94 20 -156 45l16 139q158 -74 307 -75q148 -1 237 70zM381 1831l172 -217l178 217h117l-227 -297h-142l-219 297h121z" />
    <glyph glyph-name="scaron" unicode="&#x161;" horiz-adv-x="825" 
d="M240 788q0 -78 54 -120t183 -89q129 -48 193 -116t63 -178q0 -74 -28 -138q-93 -167 -330 -170q-82 0 -146 15q-74 12 -137 39l14 125q127 -66 271 -66t201 100q20 33 20 77q0 87 -53 126q-29 29 -125 72q-97 43 -162 76q-57 37 -85 63q-64 58 -64 182t100 201
q82 74 227 75q144 1 250 -40l-12 -119q-104 49 -207 49t-165 -43t-62 -121zM264 1546l174 -282l178 282h119l-227 -362h-143l-222 362h121z" />
    <glyph glyph-name="uni0162" unicode="&#x162;" horiz-adv-x="1064" 
d="M463 0v1307l-434 -4v127h1005v-127l-430 4v-1307h-141zM455 -471h-101l121 344h146z" />
    <glyph glyph-name="uni0163" unicode="&#x163;" horiz-adv-x="737" 
d="M383 1034h274v-110h-274v-580q0 -123 40 -186t138 -64q53 0 109 23l6 -107q-63 -22 -141 -22q-232 1 -269 194q-14 57 -14 140v602h-223v110h223v238l131 45v-283zM360 -471h-100l121 344h145z" />
    <glyph glyph-name="Tcaron" unicode="&#x164;" horiz-adv-x="1064" 
d="M463 0v1307l-434 -4v127h1005v-127l-430 4v-1307h-141zM360 1831l172 -217l179 217h116l-227 -297h-141l-219 297h120z" />
    <glyph glyph-name="tcaron" unicode="&#x165;" horiz-adv-x="737" 
d="M383 1034h274v-110h-274v-580q0 -123 40 -186t138 -64q53 0 109 23l6 -107q-63 -22 -141 -22q-232 1 -269 194q-14 57 -14 140v602h-223v110h223v238l131 45v-283zM629 1186h-84l37 362h129z" />
    <glyph glyph-name="Tbar" unicode="&#x166;" horiz-adv-x="1064" 
d="M463 0v834h-213v79h213v394l-434 -4v127h1005v-127l-430 4v-394h211v-79h-211v-834h-141z" />
    <glyph glyph-name="tbar" unicode="&#x167;" horiz-adv-x="737" 
d="M383 1034h274v-110h-274v-289h199v-80h-199v-211q0 -123 40 -186t138 -64q53 0 109 23l6 -107q-63 -22 -141 -22q-232 1 -269 194q-14 57 -14 140v233h-168v80h168v289h-223v110h223v238l131 45v-283z" />
    <glyph glyph-name="Utilde" unicode="&#x168;" horiz-adv-x="1409" 
d="M1231 571q0 -285 -129 -432q-63 -80 -168 -119q-98 -43 -238 -43q-264 0 -399 164q-119 152 -119 430v859h141v-830q-1 -104 17 -200q34 -189 178 -269q74 -37 188 -37q312 0 371 303q16 102 17 205v828h141v-859zM1020 1778q-21 -197 -168 -197q-18 0 -68 8
q-49 16 -116 50t-105 34q-70 0 -88 -96h-80q9 90 55 141t117 51t160 -49q37 -16 76 -32q33 -8 49 -9q71 0 86 99h82z" />
    <glyph glyph-name="utilde" unicode="&#x169;" horiz-adv-x="1212" 
d="M905 44q0 34 -4 50v56q-2 18 -2 47h-4q-51 -103 -143 -161t-217 -59q-193 0 -279 114t-86 351v598h135v-555q0 -212 55 -299q57 -96 197 -96q141 0 242 103q94 115 94 323v524h133v-729q0 -194 10 -311h-129q-2 10 -2 44zM764 1243q-51 0 -80 10q-35 6 -80 31t-78 37
q-32 12 -62 12t-50 -20t-31 -76h-80q8 88 53 139t123 51q29 0 70 -10q43 -16 85 -38q72 -37 133 -39q51 -1 67 100h79q-8 -88 -53 -146q-45 -51 -96 -51z" />
    <glyph glyph-name="Umacron" unicode="&#x16a;" horiz-adv-x="1409" 
d="M1231 571q0 -285 -129 -432q-63 -80 -168 -119q-98 -43 -238 -43q-264 0 -399 164q-119 152 -119 430v859h141v-830q-1 -104 17 -200q34 -189 178 -269q74 -37 188 -37q312 0 371 303q16 102 17 205v828h141v-859zM969 1628h-539v94h539v-94z" />
    <glyph glyph-name="umacron" unicode="&#x16b;" horiz-adv-x="1212" 
d="M905 44q0 34 -4 50v56q-2 18 -2 47h-4q-51 -103 -143 -161t-217 -59q-193 0 -279 114t-86 351v598h135v-555q0 -212 55 -299q57 -96 197 -96q141 0 242 103q94 115 94 323v524h133v-729q0 -194 10 -311h-129q-2 10 -2 44zM868 1294h-538v95h538v-95z" />
    <glyph glyph-name="Ubreve" unicode="&#x16c;" horiz-adv-x="1409" 
d="M1231 571q0 -285 -129 -432q-63 -80 -168 -119q-98 -43 -238 -43q-264 0 -399 164q-119 152 -119 430v859h141v-830q-1 -104 17 -200q34 -189 178 -269q74 -37 188 -37q312 0 371 303q16 102 17 205v828h141v-859zM702 1671q190 0 224 184h90q-12 -131 -96 -213
q-86 -76 -220 -76t-221 76q-84 84 -92 213h90q35 -184 225 -184z" />
    <glyph glyph-name="ubreve" unicode="&#x16d;" horiz-adv-x="1212" 
d="M905 44q0 34 -4 50v56q-2 18 -2 47h-4q-51 -103 -143 -161t-217 -59q-193 0 -279 114t-86 351v598h135v-555q0 -212 55 -299q57 -96 197 -96q141 0 242 103q94 115 94 323v524h133v-729q0 -194 10 -311h-129q-2 10 -2 44zM599 1180q-132 0 -214 82q-88 82 -96 229h88
q23 -117 78 -160q53 -47 149 -47t150 51q61 51 75 156h89q-12 -143 -99 -229q-88 -82 -220 -82z" />
    <glyph glyph-name="Uring" unicode="&#x16e;" horiz-adv-x="1409" 
d="M1231 571q0 -285 -129 -432q-63 -80 -168 -119q-98 -43 -238 -43q-264 0 -399 164q-119 152 -119 430v859h141v-830q-1 -104 17 -200q34 -189 178 -269q74 -37 188 -37q312 0 371 303q16 102 17 205v828h141v-859zM706 1845q-52 0 -90 -38t-38 -91t34 -93t92 -40
q56 0 95 39q37 41 37 95t-37 91q-41 37 -93 37zM911 1708q0 -78 -59 -137t-145 -59t-150 59q-57 61 -57 146t58 143t140 59q81 0 154 -59q59 -74 59 -152z" />
    <glyph glyph-name="uring" unicode="&#x16f;" horiz-adv-x="1212" 
d="M905 44q0 34 -4 50v56q-2 18 -2 47h-4q-51 -103 -143 -161t-217 -59q-193 0 -279 114t-86 351v598h135v-555q0 -212 55 -299q57 -96 197 -96q141 0 242 103q94 115 94 323v524h133v-729q0 -194 10 -311h-129q-2 10 -2 44zM600 1241q55 0 93 38t38 94t-39 92t-91 36
t-90 -38t-38 -91t35 -94q37 -37 92 -37zM807 1374q0 -41 -16 -82t-46 -63q-18 -23 -63 -45q-43 -14 -80 -15q-92 0 -147 60q-59 57 -59 144t56 145q58 58 147 57t149 -61q59 -60 59 -140z" />
    <glyph glyph-name="Uhungarumlaut" unicode="&#x170;" horiz-adv-x="1409" 
d="M1231 571q0 -285 -129 -432q-63 -80 -168 -119q-98 -43 -238 -43q-264 0 -399 164q-119 152 -119 430v859h141v-830q-1 -104 17 -200q34 -189 178 -269q74 -37 188 -37q312 0 371 303q16 102 17 205v828h141v-859zM856 1536h-106l174 291h153zM598 1536h-104l163 291h150
z" />
    <glyph glyph-name="uhungarumlaut" unicode="&#x171;" horiz-adv-x="1212" 
d="M905 44q0 34 -4 50v56q-2 18 -2 47h-4q-51 -103 -143 -161t-217 -59q-193 0 -279 114t-86 351v598h135v-555q0 -212 55 -299q57 -96 197 -96q141 0 242 103q94 115 94 323v524h133v-729q0 -194 10 -311h-129q-2 10 -2 44zM762 1186h-105l199 362h148zM498 1186h-103
l189 362h143z" />
    <glyph glyph-name="Uogonek" unicode="&#x172;" horiz-adv-x="1409" 
d="M788 -434q-51 0 -100 8q-78 28 -103 69t-25 97t34 110q35 54 117 127h-17q-262 0 -397 164q-119 152 -119 430v859h141v-830q-1 -104 17 -200q34 -189 178 -269q74 -37 188 -37q312 0 371 303q16 102 17 205v828h141v-859q0 -244 -105 -399q-100 -152 -321 -186
q-82 -90 -110 -138t-27 -96q0 -112 118 -110q61 0 117 26l12 -69q-76 -33 -127 -33z" />
    <glyph glyph-name="uogonek" unicode="&#x173;" horiz-adv-x="1212" 
d="M901 49v49q-2 18 -2 54v45h-4q-51 -103 -143 -161t-217 -59q-193 0 -279 114t-86 351v598h135v-555q0 -212 55 -299q57 -96 197 -96q141 0 242 103q94 115 94 323v524h133v-729q0 -194 10 -311h-57q-82 -88 -117 -143t-35 -109t33 -80t90 -26t113 26l12 -69
q-75 -33 -127 -33q-51 0 -100 8q-45 16 -64 29q-65 52 -65 127q0 74 45 136t141 140q-4 12 -4 43z" />
    <glyph glyph-name="Wcircumflex" unicode="&#x174;" horiz-adv-x="2045" 
d="M555 119h4q12 59 14 63l17 70q11 53 15 65q5 11 9 29t7 23l301 1061h194l311 -1061l8 -24q16 -56 23 -91l21 -70q0 -4 14 -65h4q12 59 17 87q6 28 10 40t7 25t6 25t6 21q3 11 7 29t6 23l308 1061h147l-436 -1430h-178l-320 1083q-10 31 -16 59t-13 56q-6 28 -12 52
q-6 26 -9 36t-5 20t-4 17h-4q-31 -157 -58 -240l-313 -1083h-178l-428 1430h153l304 -1061q9 -27 16 -63q9 -41 27 -107t18 -80zM1190 1536l-170 213l-180 -213h-117l227 297h142l219 -297h-121z" />
    <glyph glyph-name="wcircumflex" unicode="&#x175;" horiz-adv-x="1671" 
d="M377 0l-342 1040h145l213 -694q23 -74 34 -127t32 -115h4q22 99 33 121q2 13 8 33t9 32t9 29q6 18 8 25l226 696h164l225 -694q41 -133 67 -242h5q23 78 32 121q33 115 35 119l217 696h135l-346 -1040h-160l-241 750q-23 69 -51 188h-4q-2 -10 -8 -32t-13 -43
q-6 -20 -13 -50t-20 -63l-239 -750h-164zM1008 1186l-170 278l-183 -278h-116l227 362h143l221 -362h-122z" />
    <glyph glyph-name="Ycircumflex" unicode="&#x176;" horiz-adv-x="1271" 
d="M709 0h-144v602l-547 828h175l217 -340q16 -23 59 -95q23 -33 63 -101t62 -97q34 -61 43 -72h4q10 21 53 87t61 98q19 32 41 66t33 52q11 20 21 34t18 28l217 340h170l-546 -824v-606zM805 1536l-170 213l-180 -213h-117l227 297h142l219 -297h-121z" />
    <glyph glyph-name="ycircumflex" unicode="&#x177;" horiz-adv-x="968" 
d="M202 -455q-54 0 -75 2q-20 2 -57 15l12 110q58 -16 99 -16q40 0 69 13t68 60t102 238l-387 1073h145l236 -688q10 -28 22 -69q12 -40 27 -91t24 -88h5q9 47 15 59q5 13 21 67q24 83 39 122l236 688h137l-401 -1120q-75 -198 -138 -278q-89 -97 -199 -97zM668 1186
l-170 278l-183 -278h-116l227 362h143l222 -362h-123z" />
    <glyph glyph-name="Ydieresis" unicode="&#x178;" horiz-adv-x="1271" 
d="M709 0h-144v602l-547 828h175l217 -340q16 -23 59 -95q23 -33 63 -101t62 -97q34 -61 43 -72h4q10 21 53 87t61 98q19 32 41 66t33 52q11 20 21 34t18 28l217 340h170l-546 -824v-606zM889 1602h-146v163h146v-163zM526 1602h-145v163h145v-163z" />
    <glyph glyph-name="Zacute" unicode="&#x179;" horiz-adv-x="1089" 
d="M1014 121v-121h-944v119q35 55 93 144q62 95 206 320t200 310q56 84 133 203t142 211h-756v123h905v-132q-51 -82 -156 -242t-223 -344t-159 -241q-63 -103 -138 -213t-96 -137h793zM584 1536h-107l180 289h156z" />
    <glyph glyph-name="zacute" unicode="&#x17a;" horiz-adv-x="956" 
d="M872 111v-111h-794v117q138 180 234 301t159 202q63 80 90 114q65 81 93 117t47 57q18 20 20 24h-617v108h760v-118q-113 -145 -266 -344q-164 -207 -230 -294t-143 -173h647zM520 1186h-106l198 362h150z" />
    <glyph glyph-name="Zdotaccent" unicode="&#x17b;" horiz-adv-x="1089" 
d="M1014 121v-121h-944v119q35 55 93 144q62 95 206 320t200 310q56 84 133 203t142 211h-756v123h905v-132q-51 -82 -156 -242t-223 -344t-159 -241q-63 -103 -138 -213t-96 -137h793zM651 1589h-162v176h162v-176z" />
    <glyph glyph-name="zdotaccent" unicode="&#x17c;" horiz-adv-x="956" 
d="M872 111v-111h-794v117q138 180 234 301t159 202q63 80 90 114q65 81 93 117t47 57q18 20 20 24h-617v108h760v-118q-113 -145 -266 -344q-164 -207 -230 -294t-143 -173h647zM578 1249h-162v174h162v-174z" />
    <glyph glyph-name="Zcaron" unicode="&#x17d;" horiz-adv-x="1089" 
d="M1014 121v-121h-944v119q35 55 93 144q62 95 206 320t200 310q56 84 133 203t142 211h-756v123h905v-132q-51 -82 -156 -242t-223 -344t-159 -241q-63 -103 -138 -213t-96 -137h793zM379 1831l172 -217l178 217h117l-228 -297h-141l-219 297h121z" />
    <glyph glyph-name="zcaron" unicode="&#x17e;" horiz-adv-x="956" 
d="M872 111v-111h-794v117q138 180 234 301t159 202q63 80 90 114q65 81 93 117t47 57q18 20 20 24h-617v108h760v-118q-113 -145 -266 -344q-164 -207 -230 -294t-143 -173h647zM328 1546l174 -282l178 282h119l-228 -362h-143l-221 362h121z" />
  </font>
</defs>
</svg>
